<svg width="848" height="396" viewBox="0 0 848 396" fill="none" xmlns="http://www.w3.org/2000/svg">
<g clip-path="url(#clip0_303_3)">
<path d="M759.064 392.302H687.79C687.128 392.302 686.598 391.774 686.598 391.113C686.598 390.453 687.128 389.925 687.79 389.925H759.064C759.726 389.925 760.256 390.453 760.256 391.113C760.256 391.774 759.726 392.302 759.064 392.302Z" fill="#D89477"/>
<path d="M700.152 391.862C699.534 391.862 699.004 391.377 698.96 390.717C698.783 386.095 691.497 358.099 664.029 346.081C663.411 345.817 663.146 345.113 663.411 344.497C663.676 343.88 664.382 343.616 665.001 343.88C693.572 356.426 701.123 385.743 701.344 390.585C701.388 391.245 700.858 391.774 700.196 391.818C700.152 391.862 700.152 391.862 700.152 391.862Z" fill="#D89477"/>
<path d="M672.773 350.086C672.552 350.086 672.287 349.998 672.066 349.866C671.802 349.69 671.051 349.25 671.051 346.653C671.051 345.2 671.272 343.748 671.713 342.647C672.773 339.874 674.716 339.918 675.511 340.05C676.88 340.314 677.366 341.15 677.542 341.635C678.425 344.1 674.937 348.326 673.833 349.602C673.568 349.91 673.17 350.086 672.773 350.086ZM674.937 342.339C674.76 342.339 674.584 342.383 674.363 342.691C673.745 343.483 673.48 344.98 673.435 346.213C674.628 344.54 675.467 342.911 675.29 342.383C675.29 342.383 675.202 342.339 675.069 342.339C675.069 342.339 674.981 342.339 674.937 342.339Z" fill="#D89477"/>
<path d="M665.842 356.69C665.754 356.69 665.665 356.69 665.533 356.69C665.003 356.601 664.076 356.337 663.546 355.017C663.237 354.268 662.795 352.376 665.312 350.791C667.079 349.646 671.318 348.37 672.51 349.646C672.996 350.131 672.996 350.835 672.599 351.407C671.627 352.684 668.403 356.69 665.842 356.69ZM669.242 351.715C668.006 352.023 666.593 352.596 665.975 353.344C665.665 353.696 665.71 353.916 665.798 354.092C665.886 354.268 665.93 354.312 665.93 354.312C666.372 354.401 667.785 353.256 669.242 351.715Z" fill="#D89477"/>
<path d="M681.961 356.469C681.74 356.469 681.475 356.381 681.254 356.249C680.989 356.073 680.238 355.633 680.238 353.036C680.238 351.583 680.459 350.131 680.901 349.03C681.961 346.257 683.904 346.257 684.698 346.433C686.067 346.697 686.553 347.533 686.73 348.018C687.613 350.483 684.124 354.709 683.02 355.985C682.711 356.337 682.314 356.469 681.961 356.469ZM684.08 348.766C683.904 348.766 683.727 348.81 683.506 349.118C682.888 349.91 682.623 351.407 682.579 352.64C683.771 350.967 684.61 349.338 684.433 348.854C684.433 348.854 684.345 348.81 684.213 348.81C684.213 348.766 684.168 348.766 684.08 348.766Z" fill="#D89477"/>
<path d="M674.983 363.116C674.894 363.116 674.806 363.116 674.674 363.116C674.144 363.028 673.216 362.764 672.686 361.444C672.377 360.695 671.936 358.802 674.453 357.218C676.219 356.073 680.459 354.797 681.651 356.073C682.137 356.557 682.137 357.262 681.739 357.834C680.768 359.111 677.544 363.116 674.983 363.116ZM678.383 358.142C677.147 358.45 675.733 359.022 675.115 359.771C674.806 360.123 674.85 360.343 674.939 360.519C675.027 360.695 675.071 360.739 675.071 360.739C675.557 360.827 676.97 359.683 678.383 358.142Z" fill="#D89477"/>
<path d="M690.438 366.506C690.085 366.506 689.731 366.374 689.466 366.11C689.246 365.889 688.672 365.273 689.29 362.764C689.643 361.355 690.217 359.991 690.924 359.022C692.646 356.601 694.501 357.085 695.251 357.438C696.532 358.01 696.797 358.978 696.841 359.463C697.062 362.06 692.646 365.317 691.277 366.286C690.968 366.418 690.703 366.506 690.438 366.506ZM693.971 359.507C693.838 359.507 693.662 359.551 693.485 359.727C692.69 360.343 692.072 361.752 691.719 362.94C693.308 361.62 694.501 360.255 694.456 359.683C694.456 359.683 694.368 359.639 694.28 359.595C694.147 359.507 694.059 359.507 693.971 359.507Z" fill="#D89477"/>
<path d="M682.447 371.304C682.093 371.304 681.74 371.26 681.475 371.128C680.989 370.952 680.15 370.423 679.974 369.059C679.841 368.267 679.93 366.33 682.756 365.361C684.743 364.701 689.159 364.481 689.998 365.977C690.307 366.55 690.175 367.254 689.645 367.738C688.452 368.619 684.92 371.304 682.447 371.304ZM686.244 367.21C685.008 367.21 683.462 367.386 682.668 368.002C682.27 368.266 682.27 368.487 682.314 368.707C682.358 368.883 682.358 368.927 682.358 368.927C682.844 369.103 684.478 368.355 686.244 367.21Z" fill="#D89477"/>
<path d="M664.516 346.213C664.472 346.213 664.472 346.213 664.428 346.213C662.706 346.081 656.965 345.553 655.552 343.352C655.155 342.736 655.066 341.987 655.331 341.239C655.773 340.05 656.788 339.346 658.113 339.302C660.807 339.214 664.384 341.723 665.62 344.54C665.797 344.937 665.753 345.377 665.488 345.685C665.267 345.993 664.914 346.213 664.516 346.213ZM658.246 341.679C658.202 341.679 658.202 341.679 658.202 341.679C657.716 341.679 657.627 341.899 657.583 342.031C657.804 342.516 659.703 343.132 661.999 343.528C660.763 342.427 659.261 341.679 658.246 341.679Z" fill="#D89477"/>
<path d="M701.038 392.522C700.464 392.522 699.934 392.082 699.846 391.509C699.581 389.617 697.241 372.713 701.127 368.179C701.833 367.343 702.761 366.902 703.776 366.858C704.615 366.858 705.278 367.167 705.808 367.827C707.53 369.94 707.132 376.235 706.382 381.737C707.618 379.8 709.12 378.039 710.798 377.291C711.946 376.763 713.094 376.719 714.154 377.115C716.053 377.819 716.715 379.096 716.98 380.02C717.907 383.322 714.684 387.548 714.33 387.988C713.933 388.516 713.182 388.604 712.652 388.208C712.122 387.812 712.034 387.063 712.432 386.535C713.182 385.611 715.169 382.485 714.684 380.637C714.595 380.24 714.33 379.712 713.271 379.316C712.785 379.14 712.299 379.184 711.769 379.404C708.722 380.813 705.675 387.944 704.748 390.585C704.527 391.201 703.909 391.509 703.291 391.333C702.672 391.157 702.319 390.541 702.452 389.925C704.041 382.573 705.587 371.304 703.953 369.279C703.865 369.191 703.865 369.191 703.82 369.191C703.6 369.191 703.291 369.235 702.981 369.676C700.597 372.449 701.259 384.334 702.275 391.113C702.363 391.773 701.922 392.346 701.259 392.478C701.171 392.522 701.127 392.522 701.038 392.522Z" fill="#D89477"/>
<path d="M680.062 392.302H664.606C663.944 392.302 663.414 391.774 663.414 391.113C663.414 390.453 663.944 389.925 664.606 389.925H680.062C680.725 389.925 681.255 390.453 681.255 391.113C681.255 391.774 680.725 392.302 680.062 392.302Z" fill="#D89477"/>
<path d="M341.577 387.679C341.533 387.679 341.445 387.679 341.401 387.679C339.502 387.415 329.963 385.919 327.799 382.441C327.27 381.605 327.181 380.724 327.49 379.844C327.755 379.096 328.285 378.523 329.08 378.215C330.802 377.511 333.938 378.083 337.205 379.096C333.629 376.19 330.317 372.669 329.698 369.323C329.345 367.43 329.831 365.714 331.067 364.261C331.818 363.381 332.834 362.94 334.07 362.852C339.767 362.456 349.482 370.864 350.542 371.832C351.027 372.273 351.072 373.021 350.63 373.505C350.188 373.989 349.438 374.033 348.952 373.593C346.214 371.172 338.177 364.965 334.203 365.229C333.584 365.274 333.187 365.45 332.834 365.846C332.039 366.77 331.774 367.783 331.995 368.927C333.01 374.43 344.227 381.517 348.422 383.806C348.996 384.114 349.217 384.818 348.908 385.39C348.599 385.963 347.892 386.183 347.318 385.919C341.533 383.057 332.348 379.448 329.919 380.416C329.698 380.504 329.698 380.592 329.654 380.636C329.61 380.812 329.566 380.988 329.742 381.253C330.891 383.101 337.426 384.818 341.666 385.39C342.328 385.478 342.77 386.095 342.681 386.711C342.637 387.239 342.151 387.679 341.577 387.679Z" fill="#D89477"/>
<path d="M304.527 76.8584C305.896 76.9905 308.325 77.5627 311.416 77.8268C309.341 79.3235 305.985 81.2604 305.985 81.2604L304.527 76.8584Z" fill="#D89477"/>
<path d="M291.146 99.5724C289.644 99.5724 288.01 99.3963 286.332 99.0881C273.614 96.535 267.564 90.2842 267.299 90.0201C266.946 89.6239 266.858 89.0517 267.123 88.6115C267.388 88.1713 267.918 87.9072 268.403 88.0392C268.536 88.0833 280.901 90.7684 284.389 84.6497C286.376 81.1722 288.364 78.0908 290.307 75.4496L290.395 75.3616C291.985 73.2046 295.208 71.0477 298.432 71.4439C300.375 71.664 303.069 72.9405 304.968 77.6506C307.396 83.1531 306.646 89.844 303.025 94.334C300.287 97.7676 296.136 99.5724 291.146 99.5724ZM272.334 90.9445C275.204 92.8814 280.017 95.3905 286.818 96.7551C293.045 98.0317 298.167 96.623 301.214 92.8374C304.217 89.0957 304.879 83.1971 302.804 78.575C301.612 75.6257 300.022 74.041 298.167 73.7769C295.738 73.4688 293.31 75.4496 292.338 76.7702L292.25 76.8583C290.351 79.4114 288.408 82.4047 286.465 85.7942C283.683 90.7684 276.882 91.2527 272.334 90.9445Z" fill="currentColor"/>
<path d="M292.428 86.6305C292.428 86.1462 270.922 70.0791 270.922 70.0791C270.922 70.0791 275.205 89.6238 284.479 91.3846C293.752 93.1453 292.428 86.6305 292.428 86.6305Z" fill="#D89477"/>
<path d="M298.212 79.939C297.903 79.939 297.594 79.807 297.373 79.5869C297.152 79.3668 297.02 79.0586 297.02 78.7505C297.02 78.4424 297.152 78.1342 297.373 77.9141C297.814 77.4739 298.609 77.4739 299.051 77.9141C299.272 78.1342 299.404 78.4424 299.404 78.7505C299.404 79.0586 299.272 79.3668 299.051 79.5869C298.83 79.807 298.521 79.939 298.212 79.939Z" fill="currentColor"/>
<path d="M683.195 8.45215C684.564 8.58421 686.993 9.15646 690.084 9.42058C688.009 10.9172 684.653 12.8541 684.653 12.8541L683.195 8.45215Z" fill="#D89477"/>
<path d="M669.814 31.2101C668.312 31.2101 666.678 31.034 665 30.7258C652.282 28.1727 646.232 21.9219 645.967 21.6578C645.614 21.2616 645.526 20.6894 645.791 20.2492C646.056 19.809 646.586 19.5449 647.071 19.6769C647.204 19.721 659.569 22.4061 663.057 16.2874C665.044 12.8099 667.032 9.72851 668.975 7.08734L669.063 6.9993C670.653 4.84234 673.876 2.68538 677.1 3.08155C679.043 3.30165 681.737 4.57822 683.636 9.28831C686.064 14.7908 685.314 21.4817 681.693 25.9717C678.955 29.4053 674.848 31.2101 669.814 31.2101ZM651.046 22.5382C653.916 24.4751 658.73 26.9842 665.53 28.3488C671.757 29.6254 676.879 28.2167 679.926 24.431C682.929 20.6894 683.592 14.7908 681.516 10.1687C680.324 7.21939 678.734 5.63469 676.879 5.37057C674.451 5.06243 672.022 7.04332 671.05 8.3639L670.962 8.45194C669.063 11.0051 667.12 13.9984 665.177 17.3879C662.351 22.4061 655.55 22.8904 651.046 22.5382Z" fill="currentColor"/>
<path d="M671.096 18.2682C671.096 17.7839 649.59 1.7168 649.59 1.7168C649.59 1.7168 653.873 21.2615 663.147 23.0223C672.42 24.783 671.096 18.2682 671.096 18.2682Z" fill="#D89477"/>
<path d="M676.923 11.5328C676.614 11.5328 676.305 11.4007 676.084 11.1806C675.863 10.9605 675.73 10.6524 675.73 10.3443C675.73 10.0361 675.863 9.72798 676.084 9.50788C676.525 9.06769 677.32 9.06769 677.762 9.50788C677.983 9.72798 678.115 10.0361 678.115 10.3443C678.115 10.6524 677.983 10.9605 677.762 11.1806C677.541 11.4007 677.232 11.5328 676.923 11.5328Z" fill="currentColor"/>
<path d="M782.645 309.545C781.983 309.545 781.453 309.016 781.453 308.356V307.96C781.453 307.3 781.983 306.771 782.645 306.771C783.308 306.771 783.838 307.3 783.838 307.96V308.356C783.838 309.016 783.308 309.545 782.645 309.545Z" fill="#D89477"/>
<path d="M782.645 350.439C781.983 350.439 781.453 349.91 781.453 349.25V348.414C781.453 347.753 781.983 347.225 782.645 347.225C783.308 347.225 783.838 347.753 783.838 348.414V349.25C783.838 349.91 783.308 350.439 782.645 350.439ZM782.645 344.584C781.983 344.584 781.453 344.056 781.453 343.395V342.559C781.453 341.899 781.983 341.371 782.645 341.371C783.308 341.371 783.838 341.899 783.838 342.559V343.395C783.838 344.056 783.308 344.584 782.645 344.584ZM782.645 338.729C781.983 338.729 781.453 338.201 781.453 337.541V336.704C781.453 336.044 781.983 335.516 782.645 335.516C783.308 335.516 783.838 336.044 783.838 336.704V337.541C783.838 338.201 783.308 338.729 782.645 338.729ZM782.645 332.919C781.983 332.919 781.453 332.391 781.453 331.73V330.894C781.453 330.234 781.983 329.705 782.645 329.705C783.308 329.705 783.838 330.234 783.838 330.894V331.73C783.838 332.391 783.308 332.919 782.645 332.919ZM782.645 327.064C781.983 327.064 781.453 326.536 781.453 325.876V325.039C781.453 324.379 781.983 323.851 782.645 323.851C783.308 323.851 783.838 324.379 783.838 325.039V325.876C783.838 326.536 783.308 327.064 782.645 327.064ZM782.645 321.21C781.983 321.21 781.453 320.681 781.453 320.021V319.185C781.453 318.524 781.983 317.996 782.645 317.996C783.308 317.996 783.838 318.524 783.838 319.185V320.021C783.838 320.681 783.308 321.21 782.645 321.21ZM782.645 315.399C781.983 315.399 781.453 314.871 781.453 314.21V313.374C781.453 312.714 781.983 312.186 782.645 312.186C783.308 312.186 783.838 312.714 783.838 313.374V314.21C783.838 314.871 783.308 315.399 782.645 315.399Z" fill="#D89477"/>
<path d="M782.645 355.853C781.983 355.853 781.453 355.325 781.453 354.665V354.269C781.453 353.608 781.983 353.08 782.645 353.08C783.308 353.08 783.838 353.608 783.838 354.269V354.665C783.838 355.281 783.308 355.853 782.645 355.853Z" fill="#D89477"/>
<path d="M193.111 392.302C172.576 392.302 159.328 379.888 159.328 360.696V309.149H37.9332C15.2351 309.149 0 294.27 0 272.172C0 254.52 5.56413 243.78 15.8534 230.134L142.327 58.1051C152.881 43.6667 163.656 31.6934 188.96 31.6934C200.22 31.6934 209.361 34.8628 216.118 41.0695C223.537 47.8926 227.29 57.6209 227.29 69.9023V104.678H224.906V69.9023C224.906 58.2812 221.417 49.1691 214.484 42.7863C208.169 36.9757 199.602 34.0704 188.96 34.0704C164.804 34.0704 154.427 45.6035 144.27 59.5137L17.7522 231.542C7.77212 244.792 2.38463 255.225 2.38463 272.172C2.38463 292.861 16.6482 306.772 37.9332 306.772H160.521C161.183 306.772 161.713 307.3 161.713 307.96V360.696C161.713 378.435 174.034 389.925 193.111 389.925C212.408 389.925 224.906 378.303 224.906 360.299V307.96C224.906 307.3 225.436 306.772 226.098 306.772H251.181C267.961 306.772 279.664 294.402 279.664 276.75C279.664 259.275 268.226 247.521 251.181 247.521H226.098C225.436 247.521 224.906 246.993 224.906 246.333V125.807H227.29V245.144H251.181C269.64 245.144 282.048 257.822 282.048 276.75C282.048 295.855 269.375 309.149 251.181 309.149H227.29V360.299C227.29 379.712 213.866 392.302 193.111 392.302ZM160.521 247.521H82.8879C82.4463 247.521 82.0489 247.257 81.828 246.861C81.6073 246.465 81.6514 245.981 81.9164 245.628L156.149 141.83C157.385 140.114 158.622 138.397 159.814 136.68C160.123 136.24 160.653 136.064 161.183 136.24C161.669 136.416 162.022 136.856 161.978 137.384C161.801 143.239 161.713 148.785 161.713 153.848V246.289C161.713 246.993 161.183 247.521 160.521 247.521ZM85.1842 245.144H159.328V153.892C159.328 149.93 159.373 145.704 159.461 141.258C158.975 141.918 158.534 142.579 158.048 143.239L85.1842 245.144Z" fill="currentColor"/>
<path d="M424.197 395.999C423.756 395.999 423.314 395.999 422.917 395.999C401.676 395.823 382.511 391.729 366.039 383.806C348.949 375.574 334.509 363.205 323.116 347.006C301.433 316.192 290.438 270.984 290.438 212.614C290.438 155.741 301.698 111.281 323.866 80.4231C331.904 69.2421 341.442 59.866 352.173 52.4707L353.542 54.4075C343.032 61.6267 333.67 70.8708 325.809 81.7877C303.95 112.249 292.822 156.269 292.822 212.614C292.822 270.5 303.685 315.223 325.059 345.641C336.231 361.488 350.362 373.637 367.055 381.649C383.217 389.44 402.029 393.446 422.917 393.622C423.358 393.622 423.756 393.622 424.197 393.622V395.999ZM519.538 353.256L517.684 351.76C519.318 349.779 520.863 347.71 522.365 345.597C544.135 314.915 555.175 270.456 555.175 213.406C555.175 155.697 544.091 111.105 522.188 80.7752C510.971 65.2804 496.929 53.4391 480.369 45.6036C464.162 37.9442 445.394 34.0265 424.639 34.0265C413.334 34.0265 402.515 35.215 392.447 37.504L391.917 35.171C402.162 32.8379 413.157 31.6494 424.639 31.6494C445.747 31.6494 464.824 35.6112 481.384 43.4467C498.297 51.4582 512.694 63.5636 524.131 79.3666C546.343 110.092 557.56 155.168 557.56 213.362C557.56 270.896 546.387 315.84 524.308 346.918C522.806 349.118 521.172 351.231 519.538 353.256ZM424.197 332.699C402.294 332.699 386.971 324.071 375.975 305.495C364.096 285.422 358.09 254.3 358.09 213.01C358.09 172.204 364.184 141.478 376.284 121.669C387.192 103.709 403.045 94.9936 424.639 94.9936C435.635 94.9936 444.82 97.1945 452.769 101.729C460.629 106.175 467.077 112.821 472.464 121.978C484.078 141.742 489.951 172.38 489.951 213.054C489.951 254.432 483.99 285.554 472.243 305.583C461.336 324.071 446.101 332.699 424.197 332.699ZM424.639 97.3706C403.928 97.3706 388.781 105.734 378.315 122.902C366.481 142.359 360.475 172.644 360.475 213.01C360.475 253.86 366.392 284.586 378.05 304.263C388.56 322.046 403.222 330.322 424.242 330.322C445.173 330.322 459.79 322.046 470.168 304.307C481.693 284.674 487.567 253.948 487.567 213.01C487.567 172.776 481.782 142.535 470.389 123.166C465.222 114.362 459.084 108.023 451.576 103.753C443.981 99.4836 435.193 97.3706 424.639 97.3706Z" fill="currentColor"/>
<path d="M423.799 339.919H423.005C422.342 339.919 421.812 339.391 421.812 338.73C421.812 338.07 422.342 337.542 423.005 337.542H423.799C424.462 337.542 424.992 338.07 424.992 338.73C424.992 339.391 424.462 339.919 423.799 339.919ZM428.569 339.831C427.95 339.831 427.42 339.347 427.376 338.686C427.332 338.026 427.862 337.454 428.525 337.454C428.789 337.454 429.054 337.41 429.319 337.41C429.982 337.366 430.556 337.85 430.6 338.51C430.644 339.171 430.158 339.743 429.496 339.787C429.231 339.787 428.966 339.831 428.701 339.831C428.613 339.831 428.613 339.831 428.569 339.831ZM418.279 339.743C418.235 339.743 418.235 339.743 418.191 339.743L417.396 339.699C416.734 339.655 416.248 339.082 416.292 338.422C416.336 337.762 416.91 337.278 417.573 337.322L418.368 337.366C419.03 337.41 419.516 337.982 419.472 338.642C419.383 339.259 418.898 339.743 418.279 339.743ZM434.133 339.303C433.559 339.303 433.029 338.862 432.94 338.246C432.852 337.586 433.338 337.014 433.956 336.926C434.221 336.882 434.486 336.838 434.751 336.838C435.413 336.749 435.987 337.19 436.12 337.85C436.208 338.51 435.767 339.082 435.104 339.215C434.839 339.259 434.574 339.303 434.309 339.303C434.221 339.303 434.177 339.303 434.133 339.303ZM412.715 339.082C412.671 339.082 412.583 339.082 412.539 339.082C412.274 339.038 412.009 338.994 411.744 338.95C411.081 338.862 410.64 338.246 410.772 337.586C410.861 336.926 411.479 336.485 412.141 336.617C412.406 336.661 412.671 336.705 412.892 336.749C413.554 336.838 413.996 337.454 413.908 338.114C413.819 338.686 413.334 339.082 412.715 339.082ZM439.609 338.378C439.079 338.378 438.549 337.982 438.46 337.454C438.328 336.793 438.725 336.177 439.388 336.045C439.653 336.001 439.918 335.913 440.139 335.869C440.801 335.737 441.419 336.133 441.552 336.749C441.684 337.41 441.287 338.026 440.668 338.158C440.403 338.202 440.139 338.29 439.874 338.334C439.785 338.378 439.697 338.378 439.609 338.378ZM407.284 338.026C407.195 338.026 407.107 338.026 407.019 337.982C406.754 337.938 406.489 337.85 406.224 337.806C405.606 337.63 405.208 337.014 405.385 336.353C405.561 335.737 406.18 335.341 406.842 335.517C407.107 335.561 407.328 335.649 407.593 335.693C408.211 335.869 408.608 336.485 408.476 337.146C408.299 337.674 407.814 338.026 407.284 338.026ZM444.952 336.97C444.466 336.97 443.98 336.661 443.804 336.133C443.583 335.517 443.936 334.857 444.599 334.637C444.864 334.548 445.084 334.46 445.349 334.416C445.968 334.196 446.63 334.548 446.851 335.165C447.072 335.781 446.718 336.441 446.1 336.661C445.835 336.749 445.57 336.838 445.349 336.926C445.217 336.926 445.084 336.97 444.952 336.97ZM401.94 336.485C401.808 336.485 401.675 336.485 401.543 336.397C401.278 336.309 401.013 336.221 400.792 336.133C400.174 335.913 399.865 335.209 400.086 334.592C400.306 333.976 401.013 333.668 401.631 333.888C401.896 333.976 402.117 334.064 402.382 334.152C403 334.372 403.353 335.033 403.133 335.649C402.912 336.177 402.426 336.485 401.94 336.485ZM450.207 335.033C449.765 335.033 449.324 334.769 449.103 334.328C448.838 333.712 449.103 333.008 449.721 332.788C449.942 332.7 450.207 332.568 450.428 332.48C451.046 332.215 451.753 332.48 452.017 333.096C452.282 333.712 452.017 334.416 451.399 334.681C451.134 334.813 450.913 334.901 450.649 334.989C450.516 334.989 450.339 335.033 450.207 335.033ZM396.774 334.372C396.597 334.372 396.42 334.328 396.288 334.24C396.023 334.108 395.802 334.02 395.537 333.888C394.963 333.624 394.698 332.876 394.963 332.303C395.272 331.731 395.979 331.467 396.553 331.731C396.774 331.863 397.039 331.951 397.259 332.083C397.878 332.348 398.098 333.052 397.833 333.668C397.657 334.152 397.215 334.372 396.774 334.372ZM455.153 332.568C454.755 332.568 454.314 332.348 454.093 331.951C453.784 331.379 453.961 330.675 454.535 330.323C454.755 330.191 454.976 330.058 455.197 329.926C455.771 329.618 456.478 329.794 456.831 330.367C457.184 330.939 456.963 331.643 456.389 331.995C456.169 332.127 455.904 332.259 455.683 332.392C455.55 332.524 455.374 332.568 455.153 332.568ZM391.872 331.819C391.651 331.819 391.43 331.775 391.254 331.643C391.033 331.511 390.812 331.379 390.547 331.203C389.973 330.851 389.796 330.103 390.15 329.574C390.503 329.002 391.254 328.826 391.784 329.178C392.004 329.31 392.225 329.442 392.446 329.574C393.02 329.926 393.197 330.631 392.843 331.203C392.667 331.599 392.269 331.819 391.872 331.819ZM459.834 329.574C459.481 329.574 459.083 329.398 458.862 329.09C458.465 328.562 458.597 327.813 459.127 327.417C459.348 327.285 459.525 327.109 459.745 326.977C460.275 326.581 461.026 326.713 461.424 327.241C461.821 327.769 461.688 328.518 461.159 328.914C460.938 329.09 460.717 329.222 460.496 329.398C460.32 329.486 460.099 329.574 459.834 329.574ZM387.279 328.694C387.014 328.694 386.794 328.606 386.573 328.474C386.352 328.298 386.131 328.166 385.91 327.99C385.38 327.593 385.292 326.845 385.69 326.317C386.087 325.789 386.838 325.701 387.368 326.097C387.588 326.273 387.765 326.405 387.986 326.581C388.516 326.977 388.604 327.725 388.207 328.254C387.986 328.518 387.633 328.694 387.279 328.694ZM464.206 326.141C463.896 326.141 463.543 326.009 463.322 325.745C462.881 325.26 462.925 324.512 463.411 324.072C463.587 323.896 463.808 323.72 463.985 323.544C464.471 323.103 465.221 323.147 465.663 323.632C466.104 324.116 466.06 324.864 465.575 325.304C465.354 325.48 465.177 325.657 464.956 325.833C464.78 326.053 464.471 326.141 464.206 326.141ZM382.996 325.128C382.687 325.128 382.422 325.04 382.201 324.82C381.98 324.644 381.803 324.468 381.627 324.248C381.141 323.808 381.141 323.059 381.583 322.575C382.024 322.091 382.775 322.091 383.261 322.531C383.437 322.707 383.658 322.883 383.835 323.059C384.321 323.5 384.365 324.248 383.923 324.732C383.658 324.996 383.305 325.128 382.996 325.128ZM468.18 322.267C467.871 322.267 467.606 322.179 467.385 321.959C466.899 321.519 466.899 320.77 467.341 320.286C467.518 320.11 467.694 319.89 467.871 319.714C468.312 319.23 469.063 319.186 469.549 319.626C470.035 320.066 470.079 320.814 469.637 321.299C469.461 321.519 469.284 321.695 469.107 321.871C468.842 322.135 468.533 322.267 468.18 322.267ZM379.11 321.211C378.801 321.211 378.447 321.078 378.227 320.814C378.05 320.594 377.873 320.418 377.697 320.198C377.255 319.714 377.299 318.966 377.829 318.525C378.315 318.085 379.066 318.129 379.507 318.657C379.684 318.834 379.86 319.054 380.037 319.23C380.479 319.714 380.435 320.462 379.949 320.902C379.684 321.079 379.375 321.211 379.11 321.211ZM471.801 318.085C471.536 318.085 471.271 317.997 471.05 317.821C470.52 317.425 470.432 316.677 470.83 316.148C471.006 315.928 471.139 315.752 471.315 315.532C471.713 315.004 472.463 314.916 472.993 315.312C473.523 315.708 473.612 316.456 473.214 316.985C473.038 317.205 472.905 317.425 472.728 317.601C472.508 317.909 472.154 318.085 471.801 318.085ZM375.577 316.897C375.224 316.897 374.87 316.721 374.605 316.412C374.429 316.192 374.296 315.972 374.12 315.752C373.722 315.224 373.855 314.476 374.385 314.079C374.915 313.683 375.665 313.815 376.063 314.343C376.239 314.564 376.372 314.74 376.548 314.96C376.946 315.488 376.858 316.236 376.328 316.633C376.063 316.853 375.798 316.897 375.577 316.897ZM475.069 313.551C474.848 313.551 474.627 313.507 474.407 313.331C473.877 312.979 473.7 312.231 474.053 311.702C474.186 311.482 474.318 311.262 474.495 311.042C474.848 310.514 475.599 310.338 476.129 310.69C476.703 311.042 476.835 311.79 476.482 312.319C476.35 312.539 476.173 312.759 476.04 312.979C475.82 313.375 475.466 313.551 475.069 313.551ZM372.397 312.363C372 312.363 371.603 312.187 371.382 311.834C371.249 311.614 371.073 311.394 370.94 311.174C370.587 310.602 370.764 309.898 371.338 309.545C371.912 309.193 372.618 309.369 372.971 309.942C373.104 310.162 373.236 310.382 373.369 310.602C373.722 311.174 373.546 311.878 373.016 312.231C372.839 312.319 372.618 312.363 372.397 312.363ZM534.066 311.614C533.934 311.614 533.801 311.57 533.625 311.526C533.007 311.306 532.697 310.602 532.918 309.986L533.183 309.237C533.404 308.621 534.111 308.313 534.729 308.533C535.347 308.753 535.656 309.457 535.435 310.074L535.17 310.822C535.038 311.35 534.552 311.614 534.066 311.614ZM477.983 308.841C477.763 308.841 477.586 308.797 477.409 308.665C476.835 308.357 476.614 307.609 476.968 307.036L477.365 306.376C477.674 305.804 478.425 305.584 478.999 305.936C479.573 306.244 479.794 306.992 479.441 307.564L479.043 308.269C478.778 308.621 478.381 308.841 477.983 308.841ZM369.527 307.608C369.085 307.608 368.688 307.388 368.467 306.992L368.07 306.288C367.761 305.716 367.981 305.011 368.556 304.659C369.13 304.351 369.88 304.571 370.189 305.143L370.587 305.848C370.896 306.42 370.675 307.124 370.101 307.476C369.924 307.564 369.748 307.608 369.527 307.608ZM535.965 306.42C535.833 306.42 535.7 306.42 535.568 306.376C534.95 306.156 534.596 305.496 534.817 304.879L535.082 304.131C535.303 303.515 535.965 303.163 536.583 303.383C537.202 303.603 537.555 304.263 537.334 304.879L537.069 305.628C536.937 306.112 536.495 306.42 535.965 306.42ZM480.545 303.955C480.368 303.955 480.191 303.911 480.015 303.823C479.441 303.515 479.176 302.81 479.485 302.238L479.838 301.534C480.103 300.962 480.854 300.697 481.428 300.962C482.002 301.226 482.267 301.974 482.002 302.546L481.649 303.251C481.428 303.691 480.986 303.955 480.545 303.955ZM367.01 302.678C366.568 302.678 366.127 302.414 365.95 302.018L365.597 301.27C365.332 300.653 365.597 299.949 366.171 299.685C366.745 299.421 367.496 299.685 367.761 300.257L368.114 300.962C368.379 301.534 368.158 302.282 367.54 302.546C367.363 302.634 367.187 302.678 367.01 302.678ZM537.732 301.138C537.599 301.138 537.511 301.138 537.378 301.094C536.76 300.918 536.407 300.213 536.583 299.597L536.804 298.849C536.981 298.232 537.643 297.88 538.306 298.056C538.924 298.232 539.277 298.893 539.101 299.553L538.88 300.301C538.703 300.829 538.217 301.138 537.732 301.138ZM482.841 298.893C482.709 298.893 482.532 298.849 482.399 298.805C481.781 298.54 481.516 297.836 481.781 297.264L482.09 296.56C482.355 295.943 483.018 295.679 483.636 295.899C484.254 296.163 484.519 296.824 484.298 297.44L483.989 298.188C483.768 298.629 483.327 298.893 482.841 298.893ZM364.758 297.572C364.272 297.572 363.83 297.308 363.654 296.824L363.345 296.075C363.08 295.459 363.389 294.755 364.007 294.535C364.625 294.271 365.332 294.579 365.553 295.195L365.862 295.943C366.127 296.56 365.818 297.264 365.199 297.484C365.067 297.572 364.934 297.572 364.758 297.572ZM539.321 295.811C539.233 295.811 539.101 295.811 539.012 295.767C538.394 295.591 537.997 294.931 538.173 294.315L538.394 293.566C538.571 292.95 539.233 292.554 539.851 292.73C540.469 292.906 540.867 293.566 540.69 294.183L540.47 294.931C540.293 295.503 539.807 295.811 539.321 295.811ZM484.872 293.742C484.74 293.742 484.607 293.698 484.475 293.654C483.857 293.434 483.548 292.73 483.768 292.114L484.033 291.365C484.254 290.749 484.917 290.441 485.579 290.661C486.197 290.881 486.506 291.541 486.285 292.202L486.021 292.95C485.844 293.434 485.358 293.742 484.872 293.742ZM362.771 292.422C362.285 292.422 361.799 292.114 361.667 291.629L361.402 290.881C361.181 290.265 361.49 289.605 362.152 289.384C362.771 289.164 363.433 289.516 363.654 290.133L363.919 290.881C364.14 291.497 363.83 292.158 363.212 292.378C363.036 292.378 362.903 292.422 362.771 292.422ZM540.734 290.485C540.646 290.485 540.558 290.485 540.425 290.441C539.807 290.265 539.41 289.649 539.542 288.988L539.719 288.24C539.895 287.624 540.514 287.227 541.176 287.359C541.794 287.536 542.192 288.152 542.059 288.812L541.883 289.605C541.75 290.133 541.264 290.485 540.734 290.485ZM486.683 288.46C486.55 288.46 486.462 288.46 486.33 288.416C485.711 288.196 485.358 287.536 485.535 286.919L485.756 286.171C485.932 285.555 486.639 285.203 487.257 285.379C487.875 285.555 488.228 286.259 488.052 286.875L487.831 287.624C487.654 288.152 487.213 288.46 486.683 288.46ZM361.004 287.139C360.474 287.139 360.033 286.831 359.856 286.303L359.635 285.555C359.459 284.938 359.812 284.278 360.43 284.058C361.048 283.882 361.711 284.234 361.932 284.85L362.152 285.599C362.329 286.215 361.976 286.875 361.357 287.095C361.269 287.139 361.137 287.139 361.004 287.139ZM542.059 285.07C541.971 285.07 541.883 285.07 541.794 285.026C541.132 284.894 540.734 284.234 540.911 283.618L541.088 282.825C541.22 282.165 541.883 281.769 542.501 281.945C543.163 282.077 543.561 282.737 543.384 283.354L543.207 284.146C543.075 284.718 542.589 285.07 542.059 285.07ZM488.273 283.178C488.184 283.178 488.052 283.178 487.964 283.134C487.345 282.958 486.948 282.297 487.124 281.681L487.345 280.933C487.522 280.316 488.184 279.92 488.803 280.096C489.421 280.272 489.818 280.933 489.642 281.549L489.421 282.341C489.288 282.826 488.803 283.178 488.273 283.178ZM359.459 281.813C358.929 281.813 358.443 281.461 358.31 280.933L358.09 280.14C357.913 279.524 358.31 278.864 358.929 278.688C359.547 278.512 360.209 278.908 360.386 279.524L360.607 280.272C360.783 280.889 360.386 281.549 359.768 281.725C359.679 281.813 359.591 281.813 359.459 281.813ZM543.207 279.656C543.119 279.656 543.031 279.656 542.987 279.612C542.324 279.48 541.927 278.864 542.059 278.203L542.236 277.411C542.368 276.751 542.987 276.355 543.649 276.487C544.311 276.619 544.709 277.235 544.576 277.895L544.4 278.688C544.267 279.26 543.781 279.656 543.207 279.656ZM489.642 277.807C489.553 277.807 489.465 277.807 489.377 277.763C488.714 277.631 488.361 276.971 488.493 276.311L488.67 275.562C488.803 274.902 489.465 274.506 490.083 274.682C490.746 274.814 491.143 275.474 490.966 276.09L490.79 276.883C490.657 277.411 490.172 277.807 489.642 277.807ZM544.267 274.198C544.179 274.198 544.135 274.198 544.046 274.198C543.384 274.066 542.987 273.449 543.075 272.833L543.207 272.041C543.34 271.38 543.958 270.984 544.576 271.072C545.239 271.204 545.636 271.821 545.548 272.437L545.415 273.229C545.327 273.801 544.841 274.198 544.267 274.198ZM490.834 272.393C490.746 272.393 490.657 272.393 490.613 272.349C489.951 272.217 489.553 271.6 489.686 270.94L489.862 270.148C489.995 269.488 490.613 269.091 491.276 269.223C491.938 269.355 492.335 269.972 492.203 270.632L492.026 271.424C491.894 271.997 491.408 272.393 490.834 272.393ZM545.195 268.739C545.15 268.739 545.062 268.739 545.018 268.739C544.356 268.651 543.914 268.035 544.046 267.375L544.179 266.582C544.267 265.922 544.885 265.482 545.548 265.57C546.21 265.658 546.652 266.274 546.564 266.934L546.431 267.727C546.299 268.343 545.769 268.739 545.195 268.739ZM491.894 266.934C491.805 266.934 491.761 266.934 491.673 266.934C491.011 266.802 490.613 266.186 490.701 265.57L490.834 264.777C490.966 264.117 491.585 263.677 492.203 263.809C492.865 263.941 493.307 264.513 493.174 265.174L493.042 265.966C492.954 266.538 492.468 266.934 491.894 266.934ZM546.034 263.281C545.989 263.281 545.945 263.281 545.857 263.281C545.195 263.193 544.753 262.576 544.841 261.96L544.93 261.168C545.018 260.508 545.636 260.067 546.254 260.155C546.917 260.243 547.358 260.86 547.27 261.476L547.182 262.268C547.093 262.841 546.608 263.281 546.034 263.281ZM492.777 261.432C492.733 261.432 492.644 261.432 492.6 261.432C491.938 261.344 491.496 260.728 491.585 260.067L491.717 259.275C491.805 258.615 492.424 258.175 493.086 258.263C493.748 258.351 494.19 258.967 494.102 259.627L493.969 260.42C493.881 261.036 493.395 261.432 492.777 261.432ZM546.74 257.778C546.696 257.778 546.652 257.778 546.608 257.778C545.945 257.69 545.504 257.118 545.548 256.458L545.636 255.665C545.725 255.005 546.299 254.565 546.961 254.609C547.623 254.697 548.065 255.269 548.021 255.93L547.933 256.722C547.844 257.338 547.314 257.778 546.74 257.778ZM493.572 255.974C493.528 255.974 493.484 255.974 493.439 255.974C492.777 255.886 492.335 255.313 492.424 254.653L492.512 253.861C492.6 253.2 493.174 252.76 493.837 252.848C494.499 252.936 494.941 253.508 494.852 254.169L494.764 254.961C494.676 255.533 494.146 255.974 493.572 255.974ZM547.358 252.232C547.314 252.232 547.27 252.232 547.226 252.232C546.564 252.188 546.078 251.572 546.166 250.911L546.254 250.119C546.299 249.459 546.917 248.974 547.579 249.062C548.242 249.106 548.727 249.723 548.639 250.383L548.551 251.175C548.462 251.792 547.933 252.232 547.358 252.232ZM494.19 250.427C494.146 250.427 494.102 250.427 494.058 250.427C493.395 250.339 492.909 249.767 492.998 249.107L493.086 248.314C493.174 247.654 493.748 247.17 494.411 247.258C495.073 247.346 495.559 247.918 495.471 248.578L495.382 249.371C495.338 249.987 494.808 250.427 494.19 250.427ZM547.844 246.729C547.8 246.729 547.756 246.729 547.756 246.729C547.093 246.685 546.608 246.113 546.652 245.453L546.696 244.661C546.74 244 547.314 243.516 547.977 243.56C548.639 243.604 549.125 244.176 549.081 244.837L549.037 245.629C548.992 246.245 548.462 246.729 547.844 246.729ZM494.72 244.925C494.676 244.925 494.632 244.925 494.632 244.925C493.969 244.881 493.484 244.308 493.528 243.648L493.616 242.856C493.66 242.195 494.234 241.711 494.897 241.755C495.559 241.799 496.045 242.372 496.001 243.032L495.912 243.824C495.868 244.44 495.338 244.925 494.72 244.925ZM548.286 241.183C548.242 241.183 548.242 241.183 548.197 241.183C547.535 241.139 547.049 240.567 547.093 239.906L547.138 239.114C547.182 238.454 547.756 237.97 548.418 238.014C549.081 238.058 549.566 238.63 549.522 239.29L549.478 240.083C549.434 240.699 548.904 241.183 548.286 241.183ZM495.162 239.378C495.117 239.378 495.117 239.378 495.073 239.378C494.411 239.334 493.925 238.762 493.969 238.102L494.013 237.309C494.058 236.649 494.632 236.165 495.294 236.209C495.956 236.253 496.442 236.825 496.398 237.485L496.354 238.278C496.31 238.938 495.78 239.378 495.162 239.378ZM548.595 235.681H548.551C547.888 235.637 547.403 235.108 547.403 234.448L547.447 233.656C547.491 232.995 548.065 232.511 548.683 232.511C549.346 232.555 549.831 233.083 549.831 233.744L549.787 234.536C549.743 235.152 549.213 235.681 548.595 235.681ZM495.471 233.876H495.427C494.764 233.832 494.278 233.303 494.278 232.643L494.323 231.851C494.367 231.191 494.941 230.662 495.559 230.706C496.221 230.75 496.707 231.279 496.707 231.939L496.663 232.731C496.663 233.348 496.133 233.876 495.471 233.876ZM548.86 230.134H548.816C548.153 230.09 547.623 229.562 547.668 228.902L547.712 228.109C547.756 227.449 548.286 226.965 548.948 226.965C549.611 227.009 550.14 227.537 550.096 228.197L550.052 228.99C550.008 229.606 549.478 230.134 548.86 230.134ZM495.736 228.329C495.736 228.329 495.691 228.329 495.736 228.329C495.029 228.285 494.499 227.757 494.543 227.097L494.588 226.304C494.632 225.644 495.162 225.16 495.824 225.16C496.486 225.204 497.016 225.732 496.972 226.392L496.928 227.185C496.884 227.801 496.354 228.329 495.736 228.329ZM549.037 224.588C548.992 224.588 548.992 224.588 549.037 224.588C548.33 224.588 547.844 224.015 547.844 223.355V222.563C547.844 221.902 548.374 221.418 549.037 221.418C549.037 221.418 549.037 221.418 549.081 221.418C549.743 221.418 550.273 221.99 550.229 222.651V223.443C550.185 224.059 549.655 224.588 549.037 224.588ZM495.868 222.783C495.206 222.783 494.676 222.211 494.676 221.55V220.758C494.676 220.098 495.25 219.569 495.912 219.613C496.575 219.613 497.105 220.186 497.06 220.846V221.638C497.06 222.255 496.531 222.783 495.868 222.783ZM549.125 219.041C548.462 219.041 547.933 218.513 547.933 217.853V217.06C547.933 216.4 548.462 215.872 549.125 215.872C549.787 215.872 550.317 216.4 550.317 217.06V217.853C550.317 218.513 549.787 219.041 549.125 219.041ZM495.956 217.236C495.294 217.236 494.764 216.708 494.764 216.048V215.255C494.764 214.595 495.294 214.067 495.956 214.067C496.619 214.067 497.149 214.595 497.149 215.255V216.048C497.149 216.708 496.619 217.236 495.956 217.236ZM549.125 213.495C548.462 213.495 547.933 212.966 547.933 212.306V211.514C547.933 210.854 548.462 210.325 549.125 210.325C549.787 210.325 550.317 210.854 550.317 211.514V212.306C550.317 212.966 549.787 213.495 549.125 213.495ZM549.081 207.948C548.418 207.948 547.888 207.42 547.888 206.76V205.967C547.888 205.307 548.418 204.779 549.081 204.779C549.699 204.779 550.273 205.307 550.273 205.967V206.76C550.273 207.376 549.743 207.948 549.081 207.948ZM548.948 202.402C548.286 202.402 547.756 201.874 547.756 201.257L547.712 200.465C547.712 199.805 548.197 199.276 548.86 199.232C549.522 199.232 550.052 199.717 550.096 200.377L550.141 201.169C550.185 201.829 549.655 202.358 548.948 202.402C548.992 202.402 548.992 202.402 548.948 202.402ZM548.772 196.855C548.153 196.855 547.623 196.371 547.579 195.711L547.535 194.918C547.491 194.258 548.021 193.686 548.683 193.686C549.346 193.686 549.92 194.17 549.92 194.83L549.964 195.623C550.008 196.283 549.478 196.811 548.816 196.855H548.772ZM352.481 195.843H352.437C351.775 195.799 351.289 195.271 351.289 194.61L351.333 193.818C351.377 193.158 351.951 192.673 352.57 192.673C353.232 192.717 353.718 193.246 353.718 193.906L353.674 194.698C353.63 195.359 353.1 195.843 352.481 195.843ZM548.462 191.309C547.844 191.309 547.314 190.825 547.27 190.208L547.226 189.416C547.182 188.756 547.668 188.183 548.33 188.139C548.992 188.095 549.566 188.58 549.611 189.24L549.655 190.032C549.699 190.693 549.169 191.265 548.551 191.265C548.551 191.309 548.507 191.309 548.462 191.309ZM352.791 190.34C352.746 190.34 352.746 190.34 352.702 190.34C352.04 190.296 351.554 189.724 351.598 189.064L351.642 188.271C351.686 187.611 352.261 187.127 352.923 187.171C353.585 187.215 354.071 187.787 354.027 188.448L353.983 189.24C353.939 189.856 353.409 190.34 352.791 190.34ZM548.109 185.762C547.491 185.762 546.961 185.278 546.917 184.662L546.873 183.87C546.829 183.209 547.314 182.637 547.977 182.593C548.639 182.549 549.213 183.033 549.257 183.693L549.301 184.486C549.346 185.146 548.86 185.718 548.197 185.762C548.197 185.762 548.153 185.762 548.109 185.762ZM353.232 184.794C353.188 184.794 353.144 184.794 353.144 184.794C352.481 184.75 351.996 184.178 352.04 183.517L352.128 182.725C352.172 182.065 352.79 181.581 353.409 181.625C354.071 181.669 354.557 182.241 354.513 182.901L354.424 183.693C354.38 184.31 353.85 184.794 353.232 184.794ZM547.668 180.26C547.049 180.26 546.519 179.776 546.475 179.159L546.387 178.367C546.343 177.707 546.828 177.135 547.447 177.09C548.109 177.046 548.683 177.531 548.727 178.147L548.816 178.939C548.86 179.6 548.374 180.172 547.756 180.216C547.756 180.26 547.712 180.26 547.668 180.26ZM353.762 179.291C353.718 179.291 353.674 179.291 353.63 179.291C352.967 179.203 352.481 178.631 352.57 177.971L352.658 177.179C352.746 176.518 353.32 176.078 353.983 176.122C354.645 176.21 355.131 176.782 355.043 177.443L354.954 178.235C354.866 178.807 354.38 179.291 353.762 179.291ZM547.138 174.713C546.519 174.713 546.034 174.273 545.945 173.657L545.857 172.865C545.769 172.204 546.254 171.632 546.917 171.544C547.579 171.456 548.153 171.94 548.242 172.601L548.33 173.393C548.418 174.053 547.933 174.625 547.27 174.713C547.226 174.713 547.182 174.713 547.138 174.713ZM354.424 173.745C354.38 173.745 354.336 173.745 354.292 173.745C353.63 173.657 353.188 173.085 353.276 172.424L353.365 171.632C353.453 170.972 354.027 170.532 354.689 170.62C355.352 170.708 355.793 171.324 355.705 171.94L355.617 172.733C355.528 173.305 354.998 173.745 354.424 173.745ZM546.475 169.211C545.901 169.211 545.371 168.771 545.283 168.155L545.195 167.362C545.106 166.702 545.592 166.13 546.21 166.042C546.873 165.954 547.447 166.438 547.535 167.054L547.623 167.846C547.712 168.507 547.226 169.079 546.608 169.167C546.564 169.211 546.519 169.211 546.475 169.211ZM355.175 168.287C355.131 168.287 355.043 168.287 354.998 168.287C354.336 168.199 353.894 167.582 353.983 166.922L354.115 166.13C354.204 165.469 354.822 165.029 355.484 165.161C356.147 165.249 356.588 165.866 356.456 166.526L356.367 167.274C356.279 167.846 355.793 168.287 355.175 168.287ZM545.725 163.709C545.15 163.709 544.621 163.268 544.532 162.696L544.4 161.904C544.311 161.243 544.753 160.671 545.415 160.539C546.078 160.451 546.652 160.891 546.784 161.552L546.917 162.344C547.005 163.004 546.564 163.576 545.901 163.709C545.857 163.709 545.813 163.709 545.725 163.709ZM356.102 162.784C356.014 162.784 355.97 162.784 355.882 162.784C355.219 162.652 354.822 162.036 354.91 161.42L355.043 160.627C355.175 159.967 355.793 159.571 356.412 159.659C357.074 159.791 357.471 160.407 357.383 161.023L357.251 161.816C357.162 162.388 356.677 162.784 356.102 162.784ZM544.885 158.25C544.311 158.25 543.826 157.854 543.693 157.238L543.561 156.445C543.472 155.785 543.87 155.169 544.532 155.081C545.195 154.949 545.813 155.389 545.901 156.049L546.034 156.841C546.122 157.502 545.68 158.118 545.062 158.206C545.018 158.25 544.974 158.25 544.885 158.25ZM357.162 157.37C357.074 157.37 356.986 157.37 356.897 157.326C356.235 157.194 355.838 156.577 355.97 155.917L356.147 155.125C356.279 154.464 356.942 154.068 357.56 154.2C358.222 154.332 358.62 154.949 358.487 155.609L358.31 156.401C358.222 156.974 357.736 157.37 357.162 157.37ZM543.914 152.792C543.34 152.792 542.854 152.396 542.722 151.823L542.589 151.031C542.457 150.371 542.898 149.754 543.517 149.622C544.179 149.49 544.797 149.93 544.93 150.547L545.062 151.339C545.195 151.999 544.753 152.616 544.091 152.704C544.046 152.792 544.002 152.792 543.914 152.792ZM358.399 151.955C358.31 151.955 358.222 151.955 358.134 151.911C357.516 151.735 357.118 151.119 357.251 150.459L357.427 149.666C357.604 149.05 358.222 148.654 358.885 148.786C359.503 148.962 359.9 149.578 359.768 150.239L359.591 150.987C359.414 151.603 358.929 151.955 358.399 151.955ZM542.854 147.333C542.324 147.333 541.794 146.937 541.706 146.409L541.529 145.617C541.397 144.956 541.794 144.34 542.457 144.208C543.119 144.076 543.737 144.472 543.87 145.132L544.046 145.925C544.179 146.585 543.781 147.201 543.119 147.333C542.987 147.333 542.898 147.333 542.854 147.333ZM359.812 146.585C359.724 146.585 359.591 146.585 359.503 146.541C358.885 146.365 358.487 145.705 358.664 145.088L358.885 144.34C359.061 143.724 359.724 143.328 360.342 143.548C360.96 143.724 361.357 144.384 361.137 145L360.916 145.749C360.828 146.233 360.342 146.585 359.812 146.585ZM541.618 141.919C541.088 141.919 540.602 141.567 540.47 140.994L540.293 140.246C540.16 139.63 540.514 138.97 541.176 138.793C541.794 138.617 542.457 139.014 542.633 139.674L542.81 140.466C542.942 141.127 542.545 141.743 541.927 141.875C541.794 141.919 541.706 141.919 541.618 141.919ZM361.446 141.303C361.313 141.303 361.181 141.303 361.093 141.259C360.474 141.038 360.121 140.378 360.342 139.762L360.607 139.014C360.828 138.397 361.49 138.045 362.108 138.265C362.726 138.485 363.08 139.146 362.859 139.762L362.594 140.51C362.417 140.95 361.932 141.303 361.446 141.303ZM540.293 136.548C539.763 136.548 539.277 136.196 539.145 135.668L538.924 134.92C538.747 134.303 539.145 133.643 539.763 133.467C540.381 133.291 541.044 133.687 541.22 134.303L541.441 135.052C541.618 135.668 541.22 136.328 540.602 136.504C540.469 136.548 540.381 136.548 540.293 136.548ZM363.256 136.064C363.124 136.064 362.991 136.02 362.815 135.976C362.197 135.756 361.887 135.052 362.108 134.436L362.373 133.687C362.594 133.071 363.301 132.763 363.919 132.983C364.537 133.203 364.846 133.907 364.625 134.524L364.36 135.272C364.228 135.756 363.742 136.064 363.256 136.064ZM538.791 131.222C538.262 131.222 537.82 130.87 537.643 130.386L537.422 129.637C537.246 129.021 537.599 128.361 538.217 128.141C538.836 127.965 539.498 128.317 539.719 128.933L539.94 129.681C540.116 130.298 539.763 130.958 539.145 131.134C539.012 131.178 538.88 131.222 538.791 131.222ZM365.376 130.914C365.199 130.914 365.067 130.87 364.89 130.826C364.272 130.562 364.007 129.858 364.272 129.285L364.581 128.537C364.846 127.921 365.553 127.657 366.171 127.921C366.789 128.185 367.054 128.889 366.789 129.505L366.48 130.21C366.259 130.65 365.818 130.914 365.376 130.914ZM537.158 125.896C536.672 125.896 536.186 125.588 536.009 125.059L535.744 124.311C535.524 123.695 535.877 123.034 536.495 122.814C537.113 122.594 537.776 122.946 537.997 123.563L538.262 124.311C538.482 124.927 538.129 125.588 537.511 125.808C537.378 125.896 537.29 125.896 537.158 125.896ZM367.717 125.896C367.54 125.896 367.363 125.852 367.187 125.764C366.613 125.456 366.348 124.751 366.657 124.179L367.01 123.475C367.319 122.902 368.026 122.638 368.6 122.946C369.174 123.255 369.439 123.959 369.13 124.531L368.776 125.235C368.556 125.632 368.158 125.896 367.717 125.896ZM370.366 121.01C370.145 121.01 369.969 120.966 369.748 120.834C369.174 120.481 368.997 119.777 369.306 119.205L369.704 118.5C370.057 117.928 370.764 117.752 371.338 118.104C371.912 118.456 372.088 119.161 371.735 119.733L371.338 120.393C371.161 120.789 370.764 121.01 370.366 121.01ZM535.347 120.657C534.861 120.657 534.42 120.349 534.243 119.865L533.978 119.117C533.757 118.5 534.066 117.84 534.685 117.576C535.303 117.312 535.965 117.664 536.23 118.28L536.495 119.029C536.716 119.645 536.407 120.305 535.789 120.569C535.612 120.613 535.479 120.657 535.347 120.657ZM373.325 116.299C373.104 116.299 372.839 116.211 372.662 116.079C372.132 115.727 371.956 114.979 372.353 114.407C372.486 114.187 372.662 113.966 372.795 113.746C373.192 113.218 373.899 113.086 374.473 113.438C375.003 113.834 375.135 114.539 374.782 115.111C374.65 115.331 374.473 115.551 374.34 115.771C374.076 116.123 373.678 116.299 373.325 116.299ZM533.404 115.463C532.918 115.463 532.477 115.199 532.3 114.715L531.991 113.966C531.726 113.35 532.035 112.646 532.653 112.426C533.271 112.162 533.978 112.47 534.199 113.086L534.508 113.834C534.729 114.451 534.464 115.155 533.846 115.375C533.713 115.419 533.536 115.463 533.404 115.463ZM376.637 111.854C376.372 111.854 376.107 111.765 375.886 111.589C375.356 111.193 375.312 110.445 375.709 109.917C375.886 109.697 376.063 109.52 376.239 109.3C376.681 108.816 377.432 108.728 377.917 109.124C378.403 109.564 378.491 110.313 378.094 110.797C377.917 111.017 377.741 111.193 377.608 111.413C377.343 111.721 376.99 111.854 376.637 111.854ZM531.284 110.357C530.843 110.357 530.401 110.093 530.18 109.653L529.871 108.948C529.606 108.332 529.871 107.628 530.489 107.364C531.108 107.099 531.814 107.364 532.079 107.98L532.388 108.728C532.653 109.344 532.388 110.049 531.77 110.313C531.593 110.313 531.417 110.357 531.284 110.357ZM380.302 107.716C379.993 107.716 379.684 107.584 379.463 107.364C378.977 106.923 378.977 106.175 379.419 105.691C379.595 105.515 379.816 105.295 379.993 105.119C380.479 104.634 381.229 104.634 381.671 105.119C382.157 105.603 382.157 106.351 381.671 106.791C381.494 106.967 381.318 107.143 381.141 107.364C380.964 107.584 380.655 107.716 380.302 107.716ZM528.944 105.295C528.502 105.295 528.061 105.03 527.884 104.634L527.531 103.93C527.222 103.358 527.487 102.609 528.061 102.345C528.635 102.037 529.385 102.301 529.65 102.874L530.004 103.578C530.269 104.15 530.048 104.898 529.43 105.163C529.297 105.251 529.12 105.295 528.944 105.295ZM384.365 103.93C384.011 103.93 383.702 103.798 383.437 103.534C382.996 103.05 383.084 102.301 383.57 101.861C383.791 101.685 383.967 101.509 384.188 101.333C384.674 100.893 385.469 100.981 385.866 101.509C386.308 101.993 386.219 102.785 385.69 103.182C385.469 103.358 385.292 103.534 385.115 103.666C384.939 103.798 384.63 103.93 384.365 103.93ZM388.781 100.54C388.383 100.54 388.03 100.364 387.809 100.012C387.412 99.484 387.588 98.7357 388.118 98.3395C388.339 98.2074 388.56 98.0314 388.781 97.8993C389.311 97.5472 390.061 97.6792 390.415 98.2075C390.768 98.7357 390.635 99.484 390.106 99.8362C389.885 99.9682 389.664 100.144 389.487 100.276C389.266 100.452 389.002 100.54 388.781 100.54ZM526.471 100.364C526.029 100.364 525.632 100.144 525.411 99.7481L525.058 99.0438C524.749 98.4716 524.969 97.7232 525.543 97.4151C526.118 97.107 526.868 97.3271 527.177 97.8993L527.575 98.6036C527.884 99.1759 527.663 99.9242 527.089 100.188C526.824 100.32 526.647 100.364 526.471 100.364ZM393.506 97.5912C393.064 97.5912 392.667 97.3711 392.446 96.9749C392.137 96.4026 392.313 95.6983 392.932 95.3462C393.153 95.2141 393.417 95.0821 393.638 94.95C394.212 94.6419 394.963 94.862 395.272 95.4342C395.581 96.0065 395.361 96.7548 394.786 97.0629C394.566 97.195 394.345 97.3271 394.124 97.4151C393.903 97.5472 393.682 97.5912 393.506 97.5912ZM523.777 95.4782C523.38 95.4782 522.982 95.2581 522.761 94.906L522.364 94.2457C522.011 93.6734 522.232 92.9691 522.806 92.617C523.38 92.2648 524.086 92.4849 524.439 93.0572L524.837 93.7615C525.19 94.3337 524.969 95.038 524.395 95.3902C524.175 95.4342 523.954 95.4782 523.777 95.4782ZM398.496 95.1701C398.054 95.1701 397.613 94.906 397.392 94.4658C397.127 93.8495 397.392 93.1452 398.01 92.9251C398.275 92.8371 398.496 92.705 398.761 92.617C399.379 92.3528 400.086 92.661 400.306 93.2773C400.571 93.8935 400.262 94.5978 399.644 94.8179C399.423 94.906 399.158 95.038 398.937 95.1261C398.805 95.1261 398.628 95.1701 398.496 95.1701ZM403.707 93.2332C403.221 93.2332 402.735 92.9251 402.559 92.3969C402.338 91.7806 402.691 91.1203 403.353 90.9002C403.618 90.8122 403.883 90.7241 404.148 90.6801C404.767 90.504 405.429 90.8562 405.65 91.4725C405.826 92.0887 405.473 92.749 404.855 92.9691C404.59 93.0572 404.369 93.1012 404.104 93.1892C403.927 93.1892 403.795 93.2332 403.707 93.2332ZM409.05 91.7806C408.52 91.7806 407.99 91.3844 407.902 90.8562C407.769 90.1959 408.167 89.5796 408.785 89.4476C409.05 89.4035 409.315 89.3155 409.58 89.2715C410.242 89.1394 410.861 89.5356 410.993 90.1959C411.126 90.8562 410.728 91.4725 410.066 91.6045C409.801 91.6485 409.58 91.6926 409.315 91.7806C409.227 91.7806 409.138 91.7806 409.05 91.7806ZM520.863 90.7681C520.465 90.7681 520.068 90.5921 519.847 90.2399L519.405 89.5796C519.052 89.0514 519.184 88.303 519.759 87.9509C520.288 87.5987 521.039 87.7308 521.392 88.3031L521.834 88.9633C522.187 89.5356 522.011 90.2399 521.481 90.5921C521.304 90.7241 521.083 90.7681 520.863 90.7681ZM517.727 86.1901C517.374 86.1901 516.976 86.014 516.756 85.7059L516.314 85.0896C515.917 84.5614 516.049 83.8131 516.579 83.4169C517.109 83.0207 517.86 83.1528 518.257 83.681L518.743 84.3413C519.14 84.8695 519.008 85.6179 518.478 86.014C518.213 86.1021 517.992 86.1901 517.727 86.1901Z" fill="#D89477"/>
<path d="M759.061 392.302C738.571 392.302 725.279 379.888 725.279 360.696V309.149H603.839C581.141 309.149 565.906 294.314 565.906 272.172C565.906 254.52 571.47 243.78 581.76 230.133L708.321 58.149C718.876 43.7106 729.651 31.7373 754.954 31.7373C766.215 31.7373 775.356 34.9067 782.112 41.1135C789.531 47.9365 793.285 57.6648 793.285 69.9463V245.144H817.175C835.634 245.144 848.043 257.822 848.043 276.75C848.043 295.855 835.369 309.149 817.175 309.149H793.285V360.299C793.241 379.712 779.816 392.302 759.061 392.302ZM754.91 34.0703C730.755 34.0703 720.377 45.6035 710.22 59.5137L583.703 231.542C573.723 244.792 568.335 255.181 568.335 272.172C568.335 292.861 582.599 306.772 603.884 306.772H726.515C727.178 306.772 727.708 307.3 727.708 307.96V360.696C727.708 378.435 740.028 389.925 759.105 389.925C778.403 389.925 790.9 378.303 790.9 360.299V307.96C790.9 307.3 791.43 306.772 792.092 306.772H817.175C833.956 306.772 845.658 294.402 845.658 276.75C845.658 259.274 834.221 247.521 817.175 247.521H792.092C791.43 247.521 790.9 246.993 790.9 246.333V69.9023C790.9 58.2811 787.412 49.1691 780.478 42.7862C774.164 37.0197 765.552 34.0703 754.91 34.0703ZM726.471 247.521H648.838C648.397 247.521 647.999 247.257 647.778 246.861C647.558 246.465 647.602 245.981 647.867 245.628L722.099 141.83C723.336 140.113 724.572 138.397 725.765 136.68C726.074 136.24 726.604 136.064 727.133 136.24C727.619 136.416 727.973 136.856 727.928 137.384C727.752 143.239 727.663 148.785 727.663 153.848V246.289C727.663 246.993 727.133 247.521 726.471 247.521ZM651.179 245.144H725.323V153.892C725.323 149.93 725.367 145.704 725.455 141.258C724.97 141.918 724.528 142.579 724.042 143.239L651.179 245.144Z" fill="currentColor"/>
<path d="M216.825 92.0887C216.163 92.0887 215.633 91.5604 215.633 90.9001V90.504C215.633 89.8437 216.163 89.3154 216.825 89.3154C217.488 89.3154 218.017 89.8437 218.017 90.504V90.9001C218.017 91.5604 217.488 92.0887 216.825 92.0887Z" fill="#D89477"/>
<path d="M216.825 244.396C216.163 244.396 215.633 243.868 215.633 243.208V243.032C215.633 242.371 216.163 241.843 216.825 241.843C217.488 241.843 218.017 242.371 218.017 243.032V243.208C218.017 243.868 217.488 244.396 216.825 244.396ZM216.825 239.466C216.163 239.466 215.633 238.938 215.633 238.278V237.485C215.633 236.825 216.163 236.297 216.825 236.297C217.488 236.297 218.017 236.825 218.017 237.485V238.278C218.017 238.938 217.488 239.466 216.825 239.466ZM216.825 233.92C216.163 233.92 215.633 233.391 215.633 232.731V231.939C215.633 231.279 216.163 230.75 216.825 230.75C217.488 230.75 218.017 231.279 218.017 231.939V232.731C218.017 233.391 217.488 233.92 216.825 233.92ZM216.825 228.373C216.163 228.373 215.633 227.845 215.633 227.185V226.392C215.633 225.732 216.163 225.204 216.825 225.204C217.488 225.204 218.017 225.732 218.017 226.392V227.185C218.017 227.845 217.488 228.373 216.825 228.373ZM216.825 222.827C216.163 222.827 215.633 222.299 215.633 221.638V220.846C215.633 220.186 216.163 219.657 216.825 219.657C217.488 219.657 218.017 220.186 218.017 220.846V221.638C218.017 222.254 217.488 222.827 216.825 222.827ZM216.825 217.236C216.163 217.236 215.633 216.708 215.633 216.048V215.255C215.633 214.595 216.163 214.067 216.825 214.067C217.488 214.067 218.017 214.595 218.017 215.255V216.048C218.017 216.708 217.488 217.236 216.825 217.236ZM216.825 211.69C216.163 211.69 215.633 211.162 215.633 210.501V209.709C215.633 209.049 216.163 208.52 216.825 208.52C217.488 208.52 218.017 209.049 218.017 209.709V210.501C218.017 211.162 217.488 211.69 216.825 211.69ZM216.825 206.143C216.163 206.143 215.633 205.615 215.633 204.955V204.162C215.633 203.502 216.163 202.974 216.825 202.974C217.488 202.974 218.017 203.502 218.017 204.162V204.955C218.017 205.615 217.488 206.143 216.825 206.143ZM216.825 200.597C216.163 200.597 215.633 200.069 215.633 199.408V198.616C215.633 197.956 216.163 197.427 216.825 197.427C217.488 197.427 218.017 197.956 218.017 198.616V199.408C218.017 200.069 217.488 200.597 216.825 200.597ZM216.825 195.05C216.163 195.05 215.633 194.522 215.633 193.862V193.07C215.633 192.409 216.163 191.881 216.825 191.881C217.488 191.881 218.017 192.409 218.017 193.07V193.862C218.017 194.522 217.488 195.05 216.825 195.05ZM216.825 189.504C216.163 189.504 215.633 188.976 215.633 188.315V187.523C215.633 186.863 216.163 186.335 216.825 186.335C217.488 186.335 218.017 186.863 218.017 187.523V188.315C218.017 188.976 217.488 189.504 216.825 189.504ZM216.825 183.957C216.163 183.957 215.633 183.429 215.633 182.769V181.977C215.633 181.316 216.163 180.788 216.825 180.788C217.488 180.788 218.017 181.316 218.017 181.977V182.769C218.017 183.385 217.488 183.957 216.825 183.957ZM216.825 178.367C216.163 178.367 215.633 177.839 215.633 177.178V176.386C215.633 175.726 216.163 175.198 216.825 175.198C217.488 175.198 218.017 175.726 218.017 176.386V177.178C218.017 177.839 217.488 178.367 216.825 178.367ZM216.825 172.821C216.163 172.821 215.633 172.292 215.633 171.632V170.84C215.633 170.179 216.163 169.651 216.825 169.651C217.488 169.651 218.017 170.179 218.017 170.84V171.632C218.017 172.292 217.488 172.821 216.825 172.821ZM216.825 167.274C216.163 167.274 215.633 166.746 215.633 166.086V165.293C215.633 164.633 216.163 164.105 216.825 164.105C217.488 164.105 218.017 164.633 218.017 165.293V166.086C218.017 166.746 217.488 167.274 216.825 167.274ZM216.825 161.728C216.163 161.728 215.633 161.199 215.633 160.539V159.747C215.633 159.086 216.163 158.558 216.825 158.558C217.488 158.558 218.017 159.086 218.017 159.747V160.539C218.017 161.199 217.488 161.728 216.825 161.728ZM216.825 156.181C216.163 156.181 215.633 155.653 215.633 154.993V154.2C215.633 153.54 216.163 153.012 216.825 153.012C217.488 153.012 218.017 153.54 218.017 154.2V154.993C218.017 155.653 217.488 156.181 216.825 156.181ZM216.825 150.635C216.163 150.635 215.633 150.106 215.633 149.446V148.654C215.633 147.993 216.163 147.465 216.825 147.465C217.488 147.465 218.017 147.993 218.017 148.654V149.446C218.017 150.106 217.488 150.635 216.825 150.635ZM216.825 145.044C216.163 145.044 215.633 144.516 215.633 143.856V143.063C215.633 142.403 216.163 141.875 216.825 141.875C217.488 141.875 218.017 142.403 218.017 143.063V143.856C218.017 144.516 217.488 145.044 216.825 145.044ZM216.825 139.498C216.163 139.498 215.633 138.969 215.633 138.309V137.517C215.633 136.857 216.163 136.328 216.825 136.328C217.488 136.328 218.017 136.857 218.017 137.517V138.309C218.017 138.969 217.488 139.498 216.825 139.498ZM216.825 133.951C216.163 133.951 215.633 133.423 215.633 132.763V131.97C215.633 131.31 216.163 130.782 216.825 130.782C217.488 130.782 218.017 131.31 218.017 131.97V132.763C218.017 133.423 217.488 133.951 216.825 133.951ZM216.825 128.405C216.163 128.405 215.633 127.877 215.633 127.216V126.424C215.633 125.764 216.163 125.235 216.825 125.235C217.488 125.235 218.017 125.764 218.017 126.424V127.216C218.017 127.877 217.488 128.405 216.825 128.405Z" fill="#D89477"/>
<path d="M216.825 103.182C216.163 103.182 215.633 102.653 215.633 101.993V101.201C215.633 100.541 216.163 100.012 216.825 100.012C217.488 100.012 218.017 100.541 218.017 101.201V101.993C218.017 102.653 217.488 103.182 216.825 103.182ZM216.825 97.6352C216.163 97.6352 215.633 97.107 215.633 96.4467V95.6543C215.633 94.9941 216.163 94.4658 216.825 94.4658C217.488 94.4658 218.017 94.9941 218.017 95.6543V96.4467C218.017 97.107 217.488 97.6352 216.825 97.6352Z" fill="#D89477"/>
<path d="M216.825 247.17C216.163 247.17 215.633 246.641 215.633 245.981V245.585C215.633 244.925 216.163 244.396 216.825 244.396C217.488 244.396 218.017 244.925 218.017 245.585V245.981C218.017 246.641 217.488 247.17 216.825 247.17Z" fill="#D89477"/>
<path d="M237.667 245.145H160.52V247.522H237.667V245.145Z" fill="currentColor"/>
<path d="M796.288 306.771H721.438V309.148H796.288V306.771Z" fill="currentColor"/>
<path d="M132.129 300.125H131.731C131.069 300.125 130.539 299.597 130.539 298.937C130.539 298.276 131.069 297.748 131.731 297.748H132.129C132.791 297.748 133.321 298.276 133.321 298.937C133.321 299.597 132.791 300.125 132.129 300.125Z" fill="#D89477"/>
<path d="M126.916 300.125H126.121C125.459 300.125 124.929 299.597 124.929 298.937C124.929 298.276 125.459 297.748 126.121 297.748H126.916C127.578 297.748 128.108 298.276 128.108 298.937C128.108 299.597 127.578 300.125 126.916 300.125ZM121.264 300.125H120.469C119.806 300.125 119.276 299.597 119.276 298.937C119.276 298.276 119.806 297.748 120.469 297.748H121.264C121.926 297.748 122.456 298.276 122.456 298.937C122.456 299.597 121.926 300.125 121.264 300.125ZM115.611 300.125H114.816C114.154 300.125 113.624 299.597 113.624 298.937C113.624 298.276 114.154 297.748 114.816 297.748H115.611C116.274 297.748 116.803 298.276 116.803 298.937C116.803 299.597 116.274 300.125 115.611 300.125ZM109.959 300.125H109.164C108.501 300.125 107.972 299.597 107.972 298.937C107.972 298.276 108.501 297.748 109.164 297.748H109.959C110.621 297.748 111.151 298.276 111.151 298.937C111.151 299.597 110.621 300.125 109.959 300.125ZM104.306 300.125H103.511C102.849 300.125 102.319 299.597 102.319 298.937C102.319 298.276 102.849 297.748 103.511 297.748H104.306C104.969 297.748 105.499 298.276 105.499 298.937C105.499 299.597 104.969 300.125 104.306 300.125ZM98.698 300.125H97.9031C97.2407 300.125 96.7108 299.597 96.7108 298.937C96.7108 298.276 97.2407 297.748 97.9031 297.748H98.698C99.3604 297.748 99.8903 298.276 99.8903 298.937C99.8903 299.597 99.3604 300.125 98.698 300.125ZM93.0455 300.125H92.2507C91.5883 300.125 91.0584 299.597 91.0584 298.937C91.0584 298.276 91.5883 297.748 92.2507 297.748H93.0455C93.7079 297.748 94.2379 298.276 94.2379 298.937C94.2379 299.597 93.7079 300.125 93.0455 300.125ZM87.3931 300.125H86.5982C85.9358 300.125 85.4059 299.597 85.4059 298.937C85.4059 298.276 85.9358 297.748 86.5982 297.748H87.3931C88.0555 297.748 88.5854 298.276 88.5854 298.937C88.5854 299.597 88.0555 300.125 87.3931 300.125ZM81.7406 300.125H80.9458C80.2834 300.125 79.7535 299.597 79.7535 298.937C79.7535 298.276 80.2834 297.748 80.9458 297.748H81.7406C82.403 297.748 82.933 298.276 82.933 298.937C82.933 299.597 82.403 300.125 81.7406 300.125ZM76.0882 300.125H75.2933C74.6309 300.125 74.101 299.597 74.101 298.937C74.101 298.276 74.6309 297.748 75.2933 297.748H76.0882C76.7506 297.748 77.2805 298.276 77.2805 298.937C77.2805 299.597 76.7506 300.125 76.0882 300.125ZM70.4799 300.125H69.685C69.0226 300.125 68.4927 299.597 68.4927 298.937C68.4927 298.276 69.0226 297.748 69.685 297.748H70.4799C71.1423 297.748 71.6722 298.276 71.6722 298.937C71.6722 299.597 71.0981 300.125 70.4799 300.125ZM64.8275 300.125H64.0326C63.3702 300.125 62.8403 299.597 62.8403 298.937C62.8403 298.276 63.3702 297.748 64.0326 297.748H64.8275C65.4899 297.748 66.0198 298.276 66.0198 298.937C66.0198 299.597 65.4899 300.125 64.8275 300.125ZM59.175 300.125H58.3801C57.7177 300.125 57.1878 299.597 57.1878 298.937C57.1878 298.276 57.7177 297.748 58.3801 297.748H59.175C59.8374 297.748 60.3673 298.276 60.3673 298.937C60.3673 299.597 59.8374 300.125 59.175 300.125ZM53.5226 300.125H52.7277C52.0653 300.125 51.5354 299.597 51.5354 298.937C51.5354 298.276 52.0653 297.748 52.7277 297.748H53.5226C54.185 297.748 54.7149 298.276 54.7149 298.937C54.7149 299.597 54.185 300.125 53.5226 300.125ZM47.8701 300.125H47.0752C46.4128 300.125 45.8829 299.597 45.8829 298.937C45.8829 298.276 46.4128 297.748 47.0752 297.748H47.8701C48.5325 297.748 49.0624 298.276 49.0624 298.937C49.0624 299.597 48.5325 300.125 47.8701 300.125ZM42.2177 300.125H41.4228C40.7604 300.125 40.2305 299.597 40.2305 298.937C40.2305 298.276 40.7604 297.748 41.4228 297.748H42.2177C42.8801 297.748 43.41 298.276 43.41 298.937C43.41 299.597 42.8801 300.125 42.2177 300.125Z" fill="#D89477"/>
<path d="M36.6093 300.125H36.2118C35.5494 300.125 35.0195 299.597 35.0195 298.937C35.0195 298.276 35.5494 297.748 36.2118 297.748H36.6093C37.2717 297.748 37.8016 298.276 37.8016 298.937C37.8016 299.597 37.2717 300.125 36.6093 300.125Z" fill="#D89477"/>
<path d="M782.645 93.2771C781.983 93.2771 781.453 92.7489 781.453 92.0886V91.6924C781.453 91.0321 781.983 90.5039 782.645 90.5039C783.308 90.5039 783.838 91.0321 783.838 91.6924V92.0886C783.838 92.7489 783.308 93.2771 782.645 93.2771Z" fill="#D89477"/>
<path d="M782.645 243.208C781.983 243.208 781.453 242.68 781.453 242.019V241.227C781.453 240.567 781.983 240.038 782.645 240.038C783.308 240.038 783.838 240.567 783.838 241.227V242.019C783.838 242.68 783.308 243.208 782.645 243.208ZM782.645 237.661C781.983 237.661 781.453 237.133 781.453 236.473V235.68C781.453 235.02 781.983 234.492 782.645 234.492C783.308 234.492 783.838 235.02 783.838 235.68V236.473C783.838 237.133 783.308 237.661 782.645 237.661ZM782.645 232.115C781.983 232.115 781.453 231.587 781.453 230.926V230.134C781.453 229.474 781.983 228.945 782.645 228.945C783.308 228.945 783.838 229.474 783.838 230.134V230.926C783.838 231.587 783.308 232.115 782.645 232.115ZM782.645 226.568C781.983 226.568 781.453 226.04 781.453 225.38V224.588C781.453 223.927 781.983 223.399 782.645 223.399C783.308 223.399 783.838 223.927 783.838 224.588V225.38C783.838 226.04 783.308 226.568 782.645 226.568ZM782.645 221.022C781.983 221.022 781.453 220.494 781.453 219.833V219.041C781.453 218.381 781.983 217.853 782.645 217.853C783.308 217.853 783.838 218.381 783.838 219.041V219.833C783.838 220.494 783.308 221.022 782.645 221.022ZM782.645 215.475C781.983 215.475 781.453 214.947 781.453 214.287V213.495C781.453 212.834 781.983 212.306 782.645 212.306C783.308 212.306 783.838 212.834 783.838 213.495V214.287C783.838 214.947 783.308 215.475 782.645 215.475ZM782.645 209.929C781.983 209.929 781.453 209.401 781.453 208.74V207.948C781.453 207.288 781.983 206.76 782.645 206.76C783.308 206.76 783.838 207.288 783.838 207.948V208.74C783.838 209.357 783.308 209.929 782.645 209.929ZM782.645 204.339C781.983 204.339 781.453 203.81 781.453 203.15V202.358C781.453 201.697 781.983 201.169 782.645 201.169C783.308 201.169 783.838 201.697 783.838 202.358V203.15C783.838 203.81 783.308 204.339 782.645 204.339ZM782.645 198.792C781.983 198.792 781.453 198.264 781.453 197.604V196.811C781.453 196.151 781.983 195.623 782.645 195.623C783.308 195.623 783.838 196.151 783.838 196.811V197.604C783.838 198.264 783.308 198.792 782.645 198.792ZM782.645 193.246C781.983 193.246 781.453 192.717 781.453 192.057V191.265C781.453 190.604 781.983 190.076 782.645 190.076C783.308 190.076 783.838 190.604 783.838 191.265V192.057C783.838 192.717 783.308 193.246 782.645 193.246ZM782.645 187.699C781.983 187.699 781.453 187.171 781.453 186.511V185.718C781.453 185.058 781.983 184.53 782.645 184.53C783.308 184.53 783.838 185.058 783.838 185.718V186.511C783.838 187.171 783.308 187.699 782.645 187.699ZM782.645 182.153C781.983 182.153 781.453 181.624 781.453 180.964V180.172C781.453 179.511 781.983 178.983 782.645 178.983C783.308 178.983 783.838 179.511 783.838 180.172V180.964C783.838 181.624 783.308 182.153 782.645 182.153ZM782.645 176.606C781.983 176.606 781.453 176.078 781.453 175.418V174.625C781.453 173.965 781.983 173.437 782.645 173.437C783.308 173.437 783.838 173.965 783.838 174.625V175.418C783.838 176.078 783.308 176.606 782.645 176.606ZM782.645 171.06C781.983 171.06 781.453 170.531 781.453 169.871V169.035C781.453 168.375 781.983 167.846 782.645 167.846C783.308 167.846 783.838 168.375 783.838 169.035V169.827C783.838 170.487 783.308 171.06 782.645 171.06ZM782.645 165.469C781.983 165.469 781.453 164.941 781.453 164.281V163.488C781.453 162.828 781.983 162.3 782.645 162.3C783.308 162.3 783.838 162.828 783.838 163.488V164.281C783.838 164.941 783.308 165.469 782.645 165.469ZM782.645 159.923C781.983 159.923 781.453 159.395 781.453 158.734V157.942C781.453 157.282 781.983 156.753 782.645 156.753C783.308 156.753 783.838 157.282 783.838 157.942V158.734C783.838 159.395 783.308 159.923 782.645 159.923ZM782.645 154.376C781.983 154.376 781.453 153.848 781.453 153.188V152.395C781.453 151.735 781.983 151.207 782.645 151.207C783.308 151.207 783.838 151.735 783.838 152.395V153.188C783.838 153.848 783.308 154.376 782.645 154.376ZM782.645 148.83C781.983 148.83 781.453 148.302 781.453 147.641V146.849C781.453 146.189 781.983 145.66 782.645 145.66C783.308 145.66 783.838 146.189 783.838 146.849V147.641C783.838 148.302 783.308 148.83 782.645 148.83ZM782.645 143.283C781.983 143.283 781.453 142.755 781.453 142.095V141.303C781.453 140.642 781.983 140.114 782.645 140.114C783.308 140.114 783.838 140.642 783.838 141.303V142.095C783.838 142.755 783.308 143.283 782.645 143.283ZM782.645 137.737C781.983 137.737 781.453 137.209 781.453 136.548V135.756C781.453 135.096 781.983 134.568 782.645 134.568C783.308 134.568 783.838 135.096 783.838 135.756V136.548C783.838 137.209 783.308 137.737 782.645 137.737ZM782.645 132.19C781.983 132.19 781.453 131.662 781.453 131.002V130.21C781.453 129.549 781.983 129.021 782.645 129.021C783.308 129.021 783.838 129.549 783.838 130.21V131.002C783.838 131.618 783.308 132.19 782.645 132.19ZM782.645 126.6C781.983 126.6 781.453 126.072 781.453 125.411V124.619C781.453 123.959 781.983 123.431 782.645 123.431C783.308 123.431 783.838 123.959 783.838 124.619V125.411C783.838 126.072 783.308 126.6 782.645 126.6ZM782.645 121.054C781.983 121.054 781.453 120.525 781.453 119.865V119.073C781.453 118.412 781.983 117.884 782.645 117.884C783.308 117.884 783.838 118.412 783.838 119.073V119.865C783.838 120.525 783.308 121.054 782.645 121.054ZM782.645 115.507C781.983 115.507 781.453 114.979 781.453 114.319V113.526C781.453 112.866 781.983 112.338 782.645 112.338C783.308 112.338 783.838 112.866 783.838 113.526V114.319C783.838 114.979 783.308 115.507 782.645 115.507ZM782.645 109.961C781.983 109.961 781.453 109.432 781.453 108.772V107.98C781.453 107.319 781.983 106.791 782.645 106.791C783.308 106.791 783.838 107.319 783.838 107.98V108.772C783.838 109.432 783.308 109.961 782.645 109.961ZM782.645 104.414C781.983 104.414 781.453 103.886 781.453 103.226V102.433C781.453 101.773 781.983 101.245 782.645 101.245C783.308 101.245 783.838 101.773 783.838 102.433V103.226C783.838 103.886 783.308 104.414 782.645 104.414ZM782.645 98.8677C781.983 98.8677 781.453 98.3394 781.453 97.6791V96.8868C781.453 96.2265 781.983 95.6982 782.645 95.6982C783.308 95.6982 783.838 96.2265 783.838 96.8868V97.6791C783.838 98.3394 783.308 98.8677 782.645 98.8677Z" fill="#D89477"/>
<path d="M782.645 248.402C781.983 248.402 781.453 247.874 781.453 247.214V246.817C781.453 246.157 781.983 245.629 782.645 245.629C783.308 245.629 783.838 246.157 783.838 246.817V247.214C783.838 247.83 783.308 248.402 782.645 248.402Z" fill="#D89477"/>
<path d="M621.546 198.131C621.326 198.131 621.061 198.043 620.84 197.911C620.31 197.515 620.177 196.81 620.575 196.238L620.796 195.93C621.193 195.402 621.9 195.27 622.474 195.666C623.004 196.062 623.136 196.766 622.739 197.339L622.518 197.647C622.297 197.955 621.9 198.131 621.546 198.131Z" fill="#D89477"/>
<path d="M616.203 205.658C615.982 205.658 615.717 205.57 615.496 205.438C614.966 205.042 614.834 204.338 615.231 203.765L615.629 203.237C616.026 202.709 616.733 202.577 617.307 202.973C617.837 203.369 617.969 204.073 617.572 204.646L617.174 205.174C616.953 205.482 616.6 205.658 616.203 205.658ZM618.852 201.917C618.631 201.917 618.366 201.828 618.146 201.696C617.616 201.3 617.483 200.596 617.881 200.024L618.278 199.495C618.676 198.967 619.382 198.835 619.956 199.231C620.486 199.628 620.619 200.332 620.221 200.904L619.824 201.432C619.603 201.74 619.25 201.917 618.852 201.917Z" fill="#D89477"/>
<path d="M613.687 209.224C613.466 209.224 613.201 209.136 612.98 209.004C612.45 208.608 612.318 207.903 612.715 207.331L612.936 207.023C613.334 206.495 614.04 206.363 614.614 206.759C615.144 207.155 615.277 207.859 614.879 208.431L614.659 208.74C614.438 209.048 614.084 209.224 613.687 209.224Z" fill="#D89477"/>
<path d="M703.421 82.5363C703.201 82.5363 702.936 82.4482 702.715 82.3162C702.185 81.92 702.052 81.2157 702.45 80.6434L702.671 80.3353C703.068 79.8071 703.775 79.675 704.349 80.0712C704.879 80.4673 705.011 81.1717 704.614 81.7439L704.393 82.052C704.172 82.3602 703.819 82.5363 703.421 82.5363Z" fill="#D89477"/>
<path d="M646.718 162.608C646.497 162.608 646.232 162.52 646.012 162.388C645.482 161.991 645.349 161.287 645.747 160.715L646.188 160.099C646.586 159.57 647.292 159.438 647.866 159.834C648.396 160.231 648.529 160.935 648.131 161.507L647.69 162.123C647.469 162.432 647.116 162.608 646.718 162.608ZM649.854 158.162C649.633 158.162 649.368 158.074 649.147 157.942C648.617 157.545 648.485 156.841 648.882 156.269L649.324 155.653C649.721 155.124 650.428 154.992 651.002 155.389C651.532 155.785 651.664 156.489 651.267 157.061L650.825 157.678C650.604 157.986 650.251 158.162 649.854 158.162ZM653.033 153.716C652.812 153.716 652.547 153.628 652.326 153.496C651.797 153.099 651.664 152.395 652.062 151.823L652.503 151.207C652.901 150.678 653.607 150.546 654.181 150.943C654.711 151.339 654.844 152.043 654.446 152.615L654.005 153.232C653.784 153.54 653.386 153.716 653.033 153.716ZM656.168 149.27C655.948 149.27 655.683 149.182 655.462 149.05C654.932 148.654 654.799 147.949 655.197 147.377L655.638 146.761C656.036 146.232 656.742 146.1 657.317 146.497C657.846 146.893 657.979 147.597 657.582 148.169L657.14 148.786C656.919 149.094 656.566 149.27 656.168 149.27ZM659.304 144.824C659.083 144.824 658.818 144.736 658.597 144.604C658.067 144.208 657.935 143.503 658.332 142.931L658.774 142.315C659.171 141.786 659.878 141.654 660.452 142.051C660.982 142.447 661.114 143.151 660.717 143.723L660.275 144.34C660.054 144.648 659.701 144.824 659.304 144.824ZM662.483 140.378C662.262 140.378 661.997 140.29 661.777 140.158C661.247 139.762 661.114 139.057 661.512 138.485L661.953 137.869C662.351 137.34 663.057 137.208 663.631 137.605C664.161 138.001 664.294 138.705 663.896 139.277L663.455 139.894C663.234 140.202 662.837 140.378 662.483 140.378ZM665.619 135.932C665.398 135.932 665.133 135.844 664.912 135.712C664.382 135.316 664.25 134.611 664.647 134.039L665.089 133.423C665.486 132.895 666.193 132.762 666.767 133.159C667.297 133.555 667.429 134.259 667.032 134.831L666.59 135.448C666.369 135.756 666.016 135.932 665.619 135.932ZM668.754 131.486C668.533 131.486 668.268 131.398 668.047 131.266C667.517 130.87 667.385 130.165 667.782 129.593L668.224 128.977C668.621 128.449 669.328 128.316 669.902 128.713C670.432 129.109 670.564 129.813 670.167 130.385L669.725 131.002C669.505 131.31 669.151 131.486 668.754 131.486ZM671.933 127.04C671.713 127.04 671.448 126.952 671.227 126.82C670.697 126.424 670.565 125.719 670.962 125.147L671.404 124.531C671.801 124.003 672.507 123.87 673.082 124.267C673.611 124.663 673.744 125.367 673.347 125.939L672.905 126.556C672.684 126.864 672.287 127.04 671.933 127.04ZM675.069 122.594C674.848 122.594 674.583 122.506 674.362 122.374C673.832 121.978 673.7 121.273 674.097 120.701L674.539 120.085C674.936 119.557 675.643 119.425 676.217 119.821C676.747 120.217 676.879 120.921 676.482 121.493L676.04 122.11C675.82 122.418 675.466 122.594 675.069 122.594ZM678.248 118.148C678.028 118.148 677.763 118.06 677.542 117.928C677.012 117.532 676.879 116.827 677.277 116.255L677.718 115.639C678.116 115.111 678.822 114.979 679.396 115.375C679.926 115.771 680.059 116.475 679.661 117.047L679.22 117.664C678.955 117.972 678.602 118.148 678.248 118.148ZM681.384 113.702C681.163 113.702 680.898 113.614 680.677 113.482C680.147 113.086 680.015 112.381 680.412 111.809L680.854 111.193C681.251 110.665 681.958 110.533 682.532 110.929C683.062 111.325 683.194 112.029 682.797 112.601L682.355 113.218C682.134 113.526 681.737 113.702 681.384 113.702ZM684.519 109.212C684.298 109.212 684.033 109.124 683.812 108.992C683.283 108.596 683.15 107.891 683.547 107.319L683.989 106.703C684.387 106.175 685.093 106.043 685.667 106.439C686.197 106.835 686.33 107.539 685.932 108.111L685.491 108.728C685.27 109.08 684.916 109.212 684.519 109.212ZM687.699 104.766C687.478 104.766 687.213 104.678 686.992 104.546C686.462 104.15 686.33 103.445 686.727 102.873L687.169 102.257C687.566 101.729 688.273 101.597 688.847 101.993C689.377 102.389 689.509 103.093 689.112 103.666L688.67 104.282C688.405 104.59 688.052 104.766 687.699 104.766ZM690.834 100.32C690.613 100.32 690.348 100.232 690.127 100.1C689.597 99.7038 689.465 98.9994 689.862 98.4272L690.304 97.8109C690.701 97.2827 691.408 97.1506 691.982 97.5468C692.512 97.943 692.644 98.6473 692.247 99.2195L691.805 99.8358C691.585 100.144 691.187 100.32 690.834 100.32ZM693.969 95.8741C693.748 95.8741 693.483 95.786 693.263 95.654C692.733 95.2578 692.6 94.5535 692.998 93.9812L693.439 93.3649C693.837 92.8367 694.543 92.7046 695.117 93.1008C695.647 93.497 695.78 94.2013 695.382 94.7736L694.941 95.3898C694.72 95.698 694.367 95.8741 693.969 95.8741ZM697.149 91.4281C696.928 91.4281 696.663 91.34 696.442 91.208C695.912 90.8118 695.78 90.1075 696.177 89.5352L696.619 88.919C697.016 88.3907 697.723 88.2587 698.297 88.6548C698.827 89.051 698.959 89.7553 698.562 90.3276L698.12 90.9439C697.855 91.252 697.502 91.4281 697.149 91.4281ZM700.284 86.9821C700.063 86.9821 699.798 86.8941 699.577 86.762C699.048 86.3658 698.915 85.6615 699.312 85.0893L699.754 84.473C700.152 83.9447 700.858 83.8127 701.432 84.2089C701.962 84.605 702.095 85.3094 701.697 85.8816L701.256 86.4979C701.035 86.806 700.637 86.9821 700.284 86.9821Z" fill="#D89477"/>
<path d="M643.804 166.745C643.583 166.745 643.318 166.657 643.098 166.525C642.568 166.129 642.435 165.425 642.833 164.852L643.053 164.544C643.451 164.016 644.157 163.884 644.732 164.28C645.261 164.676 645.394 165.381 644.996 165.953L644.776 166.261C644.555 166.569 644.157 166.745 643.804 166.745Z" fill="#D89477"/>
<path d="M121.617 103.402C121.396 103.402 121.131 103.313 120.91 103.181C120.38 102.785 120.248 102.081 120.645 101.509L120.866 101.201C121.263 100.672 121.97 100.54 122.544 100.936C123.074 101.333 123.206 102.037 122.809 102.609L122.588 102.917C122.323 103.225 121.97 103.402 121.617 103.402Z" fill="#D89477"/>
<path d="M64.8706 183.473C64.6498 183.473 64.3848 183.385 64.164 183.253C63.6341 182.857 63.5016 182.152 63.8991 181.58L64.3407 180.964C64.7381 180.436 65.4446 180.304 66.0187 180.7C66.5486 181.096 66.6811 181.8 66.2837 182.372L65.8421 182.989C65.6213 183.297 65.268 183.473 64.8706 183.473ZM68.0501 179.027C67.8293 179.027 67.5643 178.939 67.3435 178.807C66.8136 178.411 66.6811 177.706 67.0786 177.134L67.5202 176.518C67.9176 175.99 68.6241 175.858 69.1982 176.254C69.7281 176.65 69.8606 177.354 69.4632 177.926L69.0216 178.543C68.8008 178.851 68.4034 179.027 68.0501 179.027ZM71.1854 174.581C70.9646 174.581 70.6997 174.493 70.4789 174.361C69.9489 173.965 69.8165 173.26 70.2139 172.688L70.6555 172.072C71.0529 171.544 71.7595 171.412 72.3336 171.808C72.8635 172.204 72.996 172.908 72.5985 173.481L72.1569 174.097C71.9361 174.405 71.5829 174.581 71.1854 174.581ZM74.3208 170.135C74.1 170.135 73.835 170.047 73.6142 169.915C73.0843 169.519 72.9518 168.814 73.3492 168.242L73.7908 167.626C74.1883 167.098 74.8948 166.966 75.4689 167.362C75.9988 167.758 76.1313 168.462 75.7339 169.035L75.2923 169.651C75.0715 169.959 74.7182 170.135 74.3208 170.135ZM77.5003 165.689C77.2795 165.689 77.0145 165.601 76.7937 165.469C76.2638 165.073 76.1313 164.368 76.5287 163.796L76.9703 163.18C77.3678 162.652 78.0743 162.52 78.6484 162.916C79.1783 163.312 79.3108 164.016 78.9134 164.589L78.4718 165.205C78.251 165.513 77.8535 165.689 77.5003 165.689ZM80.6356 161.243C80.4148 161.243 80.1498 161.155 79.929 161.023C79.3991 160.627 79.2666 159.922 79.6641 159.35L80.1057 158.734C80.5031 158.206 81.2097 158.074 81.7838 158.47C82.3137 158.866 82.4462 159.57 82.0487 160.143L81.6071 160.759C81.3863 161.067 81.033 161.243 80.6356 161.243ZM83.7709 156.797C83.5501 156.797 83.2852 156.709 83.0644 156.577C82.5345 156.181 82.402 155.477 82.7994 154.904L83.241 154.288C83.6385 153.76 84.345 153.628 84.9191 154.024C85.449 154.42 85.5815 155.124 85.1841 155.697L84.7425 156.313C84.5217 156.621 84.1684 156.797 83.7709 156.797ZM86.9504 152.351C86.7296 152.351 86.4647 152.263 86.2439 152.131C85.714 151.735 85.5815 151.031 85.9789 150.458L86.4205 149.842C86.818 149.314 87.5245 149.182 88.0986 149.578C88.6285 149.974 88.761 150.678 88.3636 151.251L87.922 151.867C87.7012 152.175 87.3037 152.351 86.9504 152.351ZM90.0858 147.905C89.865 147.905 89.6 147.817 89.3792 147.685C88.8493 147.289 88.7168 146.585 89.1143 146.012L89.5559 145.396C89.9533 144.868 90.6599 144.736 91.2339 145.132C91.7639 145.528 91.8963 146.232 91.4989 146.805L91.0573 147.421C90.8365 147.729 90.4832 147.905 90.0858 147.905ZM93.2653 143.459C93.0445 143.459 92.7795 143.371 92.5587 143.239C92.0288 142.843 91.8963 142.139 92.2938 141.566L92.7354 140.95C93.1328 140.422 93.8394 140.29 94.4134 140.686C94.9434 141.082 95.0758 141.786 94.6784 142.359L94.2368 142.975C93.9718 143.283 93.6186 143.459 93.2653 143.459ZM96.4006 139.013C96.1798 139.013 95.9149 138.925 95.6941 138.793C95.1642 138.397 95.0317 137.693 95.4291 137.12L95.8707 136.504C96.2682 135.976 96.9747 135.844 97.5488 136.24C98.0787 136.636 98.2112 137.34 97.8137 137.913L97.3721 138.529C97.1513 138.837 96.7539 139.013 96.4006 139.013ZM99.536 134.567C99.3152 134.567 99.0502 134.479 98.8294 134.347C98.2995 133.951 98.167 133.247 98.5645 132.674L99.0061 132.058C99.4035 131.53 100.11 131.398 100.684 131.794C101.214 132.19 101.347 132.894 100.949 133.467L100.507 134.083C100.287 134.391 99.9334 134.567 99.536 134.567ZM102.715 130.121C102.495 130.121 102.23 130.033 102.009 129.901C101.479 129.505 101.347 128.801 101.744 128.228L102.186 127.612C102.583 127.084 103.29 126.952 103.864 127.348C104.394 127.744 104.526 128.448 104.129 129.021L103.687 129.637C103.422 129.945 103.069 130.121 102.715 130.121ZM105.851 125.675C105.63 125.675 105.365 125.587 105.144 125.455C104.614 125.059 104.482 124.355 104.879 123.782L105.321 123.166C105.718 122.638 106.425 122.506 106.999 122.902C107.529 123.298 107.661 124.003 107.264 124.575L106.822 125.191C106.602 125.499 106.204 125.675 105.851 125.675ZM108.986 121.229C108.765 121.229 108.5 121.141 108.28 121.009C107.75 120.613 107.617 119.909 108.015 119.336L108.456 118.72C108.854 118.192 109.56 118.06 110.134 118.456C110.664 118.852 110.797 119.557 110.399 120.129L109.958 120.745C109.737 121.053 109.384 121.229 108.986 121.229ZM112.166 116.783C111.945 116.783 111.68 116.695 111.459 116.563C110.929 116.167 110.797 115.463 111.194 114.89L111.636 114.274C112.033 113.746 112.74 113.614 113.314 114.01C113.844 114.406 113.976 115.111 113.579 115.683L113.137 116.299C112.872 116.607 112.519 116.783 112.166 116.783ZM115.301 112.337C115.08 112.337 114.815 112.249 114.594 112.117C114.065 111.721 113.932 111.017 114.329 110.444L114.771 109.828C115.169 109.3 115.875 109.168 116.449 109.564C116.979 109.96 117.112 110.665 116.714 111.237L116.273 111.853C116.052 112.161 115.654 112.337 115.301 112.337ZM118.436 107.847C118.216 107.847 117.951 107.759 117.73 107.627C117.2 107.231 117.067 106.527 117.465 105.954L117.906 105.338C118.304 104.81 119.01 104.678 119.584 105.074C120.114 105.47 120.247 106.175 119.849 106.747L119.408 107.363C119.187 107.715 118.834 107.847 118.436 107.847Z" fill="#D89477"/>
<path d="M61.955 187.611C61.7342 187.611 61.4693 187.523 61.2485 187.391C60.7186 186.995 60.5861 186.29 60.9394 185.718L61.1602 185.41C61.5576 184.882 62.2641 184.75 62.8382 185.102C63.3681 185.498 63.5006 186.202 63.1473 186.775L62.9265 187.083C62.7057 187.435 62.3525 187.611 61.955 187.611Z" fill="#D89477"/>
<path d="M527.707 396H422.916C422.519 396 422.121 395.78 421.9 395.472C421.68 395.12 421.635 394.679 421.812 394.327C427.597 381.958 439.167 383.234 444.466 384.555C443.141 380.505 444.687 376.455 447.16 373.946C450.074 370.997 454.005 370.116 457.537 371.525C458.023 366.331 460.452 361.709 464.426 358.715C468.886 355.326 474.76 354.357 480.942 356.074C487.875 357.967 492.644 363.381 495.161 372.229C497.193 362.413 502.448 344.497 513.929 344.497C513.974 344.497 513.974 344.497 514.018 344.497C517.153 344.497 518.566 346.126 519.184 347.446C521.966 353.389 515.166 367.739 508.63 377.908C520.156 369.104 528.855 365.01 532.565 366.859C533.316 367.211 534.552 368.18 534.419 370.469C534.199 374.606 529.209 378.92 519.626 383.366C517.992 384.115 516.314 384.819 514.768 385.479C520.686 385.831 526.78 388.032 528.811 394.547C528.944 394.899 528.855 395.296 528.635 395.604C528.458 395.824 528.105 396 527.707 396ZM424.903 393.623H525.941C521.437 384.687 505.892 388.605 505.76 388.649C505.142 388.825 504.479 388.429 504.303 387.812C504.126 387.196 504.479 386.536 505.097 386.36C505.186 386.36 511.942 384.247 518.699 381.121C527.177 377.204 531.902 373.374 532.079 370.293C532.123 369.236 531.726 369.016 531.549 368.928C529.606 367.96 521.26 370.116 503.419 385.127C502.934 385.523 502.271 385.479 501.83 385.083C501.388 384.643 501.344 383.939 501.741 383.498C509.69 373.77 519.847 354.313 517.065 348.459C516.756 347.799 516.093 346.874 514.018 346.874H513.974C500.593 346.874 496.53 378.348 496.486 378.7C496.398 379.273 495.912 379.757 495.338 379.757C494.764 379.801 494.234 379.317 494.146 378.744C492.424 367.299 487.787 360.432 480.324 358.407C474.892 356.911 469.77 357.703 465.884 360.652C462.042 363.558 459.878 368.224 459.878 373.462C459.878 373.902 459.657 374.298 459.26 374.518C458.862 374.739 458.421 374.695 458.023 374.474C454.446 372.185 450.869 373.682 448.882 375.663C446.497 378.04 445.261 382.134 447.734 385.92C448.043 386.36 447.999 386.932 447.646 387.328C447.292 387.724 446.762 387.856 446.277 387.68C445.703 387.328 431.881 381.694 424.903 393.623Z" fill="#D89477"/>
<path d="M450.869 382.75C450.383 382.75 449.898 382.442 449.765 381.958C449.677 381.738 443.097 367.783 428.215 362.193C427.597 361.973 427.288 361.268 427.509 360.652C427.729 360.036 428.436 359.728 429.054 359.948C445.173 366.023 451.973 381.033 452.017 381.165C452.238 381.782 451.885 382.442 451.267 382.662C451.134 382.706 451.002 382.75 450.869 382.75Z" fill="#D89477"/>
<path d="M421.503 374.474C421.15 374.474 420.797 374.43 420.444 374.342C419.03 373.99 418.456 373.066 418.191 372.361C417.441 370.204 418.986 366.771 420.62 364.042C418.236 365.054 415.409 365.582 413.599 363.821C412.097 362.413 412.009 360.256 413.334 358.583C414.879 356.646 418.147 355.678 422.21 357.307C420.973 354.401 420.223 351.716 421.106 349.911C421.548 349.075 422.298 348.503 423.27 348.327C424.374 348.106 425.345 348.371 426.096 349.075C427.244 350.175 427.686 352.244 427.774 354.181C429.143 352.464 430.909 350.748 432.676 350.395C433.647 350.219 434.575 350.483 435.37 351.1C436.076 351.716 436.429 352.508 436.341 353.389C436.297 353.961 435.679 356.734 428.922 360.872C430.909 362.237 433.824 364.614 434.001 367.035C434.045 367.783 433.868 368.884 432.676 369.852C431.483 370.777 430.424 370.689 429.717 370.468C428.392 370.028 427.244 368.62 426.361 367.035C426.052 369.632 425.301 372.361 423.756 373.638C423.137 374.21 422.387 374.474 421.503 374.474ZM424.285 362.809C422.122 365.934 419.914 370.028 420.488 371.613C420.532 371.789 420.62 371.965 421.062 372.053C421.724 372.229 422.077 372.009 422.298 371.833C423.844 370.556 424.33 366.11 424.285 362.809ZM427.068 362.457C427.951 364.922 429.364 367.827 430.556 368.223C430.689 368.267 430.909 368.311 431.307 368.003C431.748 367.651 431.748 367.387 431.748 367.255C431.616 365.89 429.187 363.821 427.068 362.457ZM418.324 358.891C416.822 358.891 415.718 359.419 415.189 360.08C414.968 360.344 414.35 361.268 415.233 362.105C416.646 363.469 420.488 361.664 422.784 360.212C421.106 359.243 419.56 358.891 418.324 358.891ZM425.743 359.287C425.831 359.552 425.919 359.772 425.919 359.948C425.964 359.904 426.052 359.86 426.14 359.816C426.317 359.728 426.493 359.596 426.714 359.508C426.538 359.552 426.317 359.552 426.096 359.463C425.964 359.419 425.831 359.331 425.743 359.287ZM433.382 352.728C433.338 352.728 433.25 352.728 433.206 352.728C431.528 353.037 428.878 356.514 427.509 358.891C427.465 358.935 427.421 359.023 427.377 359.067C430.689 357.042 433.912 354.445 434.045 353.169C434.045 353.081 434.045 353.037 433.912 352.905C433.736 352.773 433.559 352.728 433.382 352.728ZM424.065 350.616C423.976 350.616 423.888 350.616 423.8 350.66C423.446 350.748 423.358 350.88 423.27 350.968C422.563 352.376 424.506 356.602 425.257 358.187V358.143C425.61 355.678 425.566 351.804 424.506 350.792C424.418 350.704 424.285 350.616 424.065 350.616Z" fill="#D89477"/>
<path d="M445.173 373.858C445.084 373.858 444.952 373.858 444.863 373.814C444.422 373.682 444.113 373.374 444.024 372.934C443.053 368.972 443.23 361.004 450.604 359.067C451.311 358.891 453.519 358.319 454.402 359.816C455.903 362.325 450.648 368.62 446.012 373.462C445.791 373.726 445.482 373.858 445.173 373.858ZM452.326 361.18C452.15 361.18 451.797 361.224 451.222 361.356C446.409 362.633 445.835 367.167 446.012 369.984C449.412 366.199 452.062 362.457 452.326 361.18Z" fill="#D89477"/>
<path d="M477.099 357.263C476.525 357.263 476.04 356.866 475.951 356.338C475.907 356.162 474.052 336.75 482.531 328.694C483.017 328.254 483.768 328.254 484.209 328.738C484.651 329.222 484.651 329.971 484.165 330.411C476.658 337.586 478.248 355.722 478.292 355.898C478.38 356.558 477.983 357.175 477.32 357.263C477.232 357.263 477.188 357.263 477.099 357.263Z" fill="#D89477"/>
<path d="M478.867 349.955C476.659 349.955 475.113 349.207 474.363 348.723C473.038 347.886 472.155 346.786 472.022 345.729C471.934 345.069 472.42 344.497 473.082 344.409C473.744 344.321 474.318 344.805 474.407 345.465C474.451 345.597 474.804 346.214 475.732 346.742C476.526 347.182 478.69 348.106 481.737 346.962C482.355 346.742 483.062 347.05 483.283 347.666C483.504 348.283 483.194 348.987 482.576 349.207C481.207 349.779 479.971 349.955 478.867 349.955Z" fill="#D89477"/>
<path d="M482.091 336.485C480.148 336.485 478.603 336.001 477.455 334.988C475.6 333.316 475.688 330.938 475.688 330.806C475.732 330.146 476.306 329.662 476.969 329.706C477.631 329.75 478.117 330.322 478.073 330.938C478.073 331.026 478.029 332.347 479.044 333.227C480.016 334.064 481.782 334.328 484.079 333.932C484.741 333.8 485.359 334.24 485.448 334.9C485.58 335.561 485.138 336.177 484.476 336.265C483.681 336.397 482.842 336.485 482.091 336.485Z" fill="#D89477"/>
<path d="M480.459 343.22C478.516 343.22 476.97 342.736 475.822 341.724C473.967 340.051 474.055 337.674 474.055 337.542C474.1 336.881 474.674 336.397 475.336 336.441C475.998 336.485 476.484 337.058 476.44 337.674C476.44 337.762 476.396 339.082 477.412 339.963C478.383 340.799 480.149 341.063 482.446 340.667C483.108 340.535 483.726 340.975 483.815 341.636C483.947 342.296 483.506 342.912 482.843 343C482.048 343.132 481.209 343.22 480.459 343.22Z" fill="#D89477"/>
<path d="M397.705 54.628H264.166C263.636 54.628 263.151 54.2758 263.018 53.7916C262.93 53.4835 260.854 46.0882 264.917 39.1331C267.699 34.379 272.601 31.0335 279.49 29.1407C277.723 18.576 285.628 7.21893 298.346 2.28874C311.064 -2.64145 328.728 -0.660573 340.518 19.3243C351.912 13.4257 364.895 13.4697 376.288 19.5884C389.094 26.4115 397.75 39.3532 398.898 53.3514C398.942 53.7036 398.809 54.0117 398.589 54.2318C398.368 54.4959 398.059 54.628 397.705 54.628ZM265.138 52.2509H396.425C394.967 39.5293 386.886 27.9081 375.184 21.6573C364.144 15.7587 351.558 15.8908 340.651 21.9215C340.077 22.2296 339.37 22.0535 339.017 21.4813C331.775 8.62756 317.511 -2.59743 299.229 4.48972C287.173 9.15579 279.755 20.0286 282.051 29.7129C282.183 30.3292 281.786 30.9895 281.168 31.1216C274.323 32.7503 269.598 35.8316 266.992 40.2336C264.166 45.0758 264.74 50.2701 265.138 52.2509Z" fill="#898989"/>
<path d="M278.34 126.996H201.458C201.149 126.996 200.84 126.864 200.619 126.644C200.398 126.424 200.266 126.116 200.266 125.763C200.663 115.287 206.845 107.583 217.179 104.678C230.029 101.069 245.309 105.955 252.462 115.771C259.086 113.306 264.96 113.174 269.906 115.375C276.883 118.5 279.356 125.103 279.444 125.367C279.577 125.719 279.532 126.16 279.312 126.468C279.091 126.82 278.737 126.996 278.34 126.996ZM202.694 124.619H276.441C275.337 122.638 272.997 119.381 268.89 117.532C264.341 115.507 258.821 115.771 252.462 118.324C251.933 118.544 251.358 118.368 251.005 117.884C244.646 108.332 230.073 103.534 217.797 106.967C208.921 109.476 203.489 115.859 202.694 124.619Z" fill="#898989"/>
<path d="M325.148 34.467C324.883 34.467 324.618 34.379 324.397 34.2029C323.868 33.8067 323.779 33.0584 324.177 32.5302C324.177 32.5302 324.353 32.3101 324.707 31.8699C325.148 31.3857 325.899 31.2976 326.385 31.7378C326.87 32.178 326.959 32.9263 326.517 33.4106C326.208 33.7627 326.031 33.9828 326.031 33.9828C325.855 34.335 325.501 34.467 325.148 34.467ZM328.946 30.4172C328.637 30.4172 328.328 30.2852 328.107 30.0651C327.665 29.5809 327.665 28.8325 328.151 28.3923C328.328 28.2162 328.549 28.0402 328.725 27.8201C329.211 27.3799 329.962 27.3799 330.403 27.8641C330.845 28.3483 330.845 29.0966 330.359 29.5368C330.182 29.7129 329.962 29.889 329.785 30.0651C329.564 30.2852 329.255 30.4172 328.946 30.4172ZM333.141 26.7636C332.788 26.7636 332.435 26.5875 332.214 26.3234C331.816 25.7952 331.905 25.0468 332.39 24.6507C332.611 24.4746 332.832 24.2985 333.053 24.1664C333.583 23.7703 334.333 23.8583 334.731 24.3865C335.128 24.9148 335.04 25.6631 334.51 26.0593C334.289 26.2354 334.113 26.3674 333.892 26.5435C333.671 26.6756 333.406 26.7636 333.141 26.7636ZM337.69 23.5502C337.292 23.5502 336.895 23.3741 336.674 22.9779C336.321 22.4057 336.497 21.7013 337.027 21.3492C337.248 21.2171 337.469 21.0851 337.734 20.909C338.308 20.5568 339.014 20.7329 339.368 21.3052C339.721 21.8774 339.544 22.5817 338.97 22.9339C338.749 23.066 338.529 23.198 338.308 23.3301C338.131 23.4621 337.91 23.5502 337.69 23.5502ZM342.547 20.865C342.106 20.865 341.664 20.6009 341.487 20.2047C341.222 19.6324 341.443 18.8841 342.061 18.62C342.326 18.4879 342.547 18.3999 342.812 18.2678C343.43 18.0037 344.137 18.2678 344.402 18.8401C344.667 19.4564 344.402 20.1607 343.828 20.4248C343.607 20.5128 343.342 20.6449 343.121 20.7329C342.9 20.821 342.724 20.865 342.547 20.865Z" fill="#898989"/>
<path d="M663.413 92.5728H579.951C579.51 92.5728 579.112 92.3527 578.891 91.9565C578.67 91.5603 578.715 91.1201 578.935 90.768C579.156 90.4158 584.676 81.744 594.259 79.7631C599.69 78.6626 605.255 79.8952 610.863 83.5048C619.827 73.5563 635.857 65.5888 650.916 71.0472C667.652 77.1219 664.605 91.5163 664.561 91.6484C664.429 92.1766 663.943 92.5728 663.413 92.5728ZM582.292 90.1957H662.353C662.662 87.2024 662.574 77.8262 650.077 73.2482C635.681 68.0099 620.225 76.1095 611.967 85.8378C611.569 86.322 610.907 86.4101 610.377 86.0579C605.034 82.4043 599.779 81.0837 594.745 82.0961C588.739 83.3287 584.367 87.6866 582.292 90.1957Z" fill="#898989"/>
</g>
<defs>
<clipPath id="clip0_303_3">
<rect width="848" height="396" fill="currentColor"/>
</clipPath>
</defs>
</svg>
