<svg width="123" height="98" viewBox="0 0 123 98" fill="none" xmlns="http://www.w3.org/2000/svg">
<path d="M71.7175 1.16246C71.6487 1.07648 71.58 0.990507 71.6659 0.921743C71.7691 0.698232 72.2851 0.285651 72.6461 0.560822C72.9899 0.990735 72.0098 1.35165 71.7175 1.16246ZM73.7637 0.371869C73.5402 0.268669 73.1275 0.457729 73.0931 0.767225C73.0759 0.921973 73.1446 1.00796 73.2994 1.02517C73.6089 1.05962 73.8668 0.853329 73.9013 0.543833C73.9013 0.543833 73.8325 0.457854 73.7637 0.371869ZM68.3114 10.6532C68.6037 10.8424 68.9992 10.8081 69.4119 10.619C69.5838 10.4815 70.1685 10.1549 69.8935 9.81095C69.4809 9.29505 68.4663 9.96546 68.2599 10.4125C68.1739 10.4812 68.2427 10.5672 68.3114 10.6532ZM64.4271 1.21283C64.1863 1.26437 63.9456 1.31592 63.9284 1.47067C63.9112 1.62542 64.1174 1.88337 64.1174 1.88337C64.3582 1.83182 64.6677 1.86626 64.6849 1.71151C64.7881 1.48801 64.4271 1.21283 64.4271 1.21283ZM36.3371 70.622C36.509 70.4844 36.6639 69.7967 36.3544 69.7623C36.0449 69.7278 35.976 70.3468 36.1136 70.5187C36.1823 70.6047 36.2511 70.6907 36.3371 70.622ZM60.625 13.5578C60.9002 13.1968 60.7628 12.3198 60.3673 12.3541C59.9891 12.2337 59.5075 13.0418 59.6966 13.4545C59.9028 13.7124 60.4531 13.6953 60.625 13.5578ZM80.9507 1.95495C80.6069 1.52503 79.3688 2.09224 79.4547 2.72845C79.4546 3.43342 81.5868 2.57405 80.9507 1.95495ZM76.875 6.20128C76.0498 5.16948 73.4189 6.28668 73.4359 7.54188C73.4186 7.69663 73.8829 7.74828 74.0376 7.7655C74.7426 7.76562 77.3563 6.80316 76.875 6.20128ZM27.7213 79.063C27.7041 79.2177 27.6696 79.5272 27.8244 79.5444C27.9791 79.5616 28.1511 79.4241 28.1683 79.2694C28.1855 79.1146 28.22 78.8051 27.9105 78.7707C27.8245 78.8395 27.6525 78.977 27.7213 79.063ZM32.0032 75.7796C31.9517 75.5388 31.7626 75.1261 31.4359 75.2464C31.1092 75.3667 32.0201 77.7397 32.0032 75.7796ZM24.5748 78.4778C24.1108 77.0162 22.9964 57.466 10.7575 36.5212C6.87264 29.9007 -1.8945 17.8804 1.94066 12.9806C6.49814 7.22126 22.9532 7.17242 36.7089 6.03987C44.6872 5.43939 57.1536 2.51841 57.6178 2.57007C58.3228 2.57019 57.7552 3.44701 58.357 3.67063C58.7353 3.79106 59.1135 3.91148 59.5778 3.96314C59.8873 3.99758 60.2312 3.72253 60.4032 3.585C60.9363 3.01768 61.5208 3.39604 62.3978 3.25863C62.6385 3.20709 62.673 2.8976 62.8449 2.76007C62.9309 2.69131 62.9309 2.69132 62.9309 2.69132C64.3064 3.00104 65.4757 2.34784 66.7481 2.17611C68.0378 1.84963 69.3274 1.52315 70.617 1.19667C70.703 1.12791 70.9437 1.07637 70.9953 1.31709C71.3907 1.98775 69.9292 1.74678 69.5165 1.93585C69.0178 2.19369 67.8141 2.4514 68.0032 2.8641C68.1063 3.34556 71.1499 2.03928 72.6631 1.81601C74.1762 1.59273 76.5322 -0.573366 77.0822 0.819468C77.4431 1.79961 73.0413 1.93644 73.2647 2.74461C73.4709 3.70753 75.3969 2.59021 77.2711 1.93713C77.5119 1.88559 77.7182 2.14355 77.8042 2.07478C78.1309 1.95447 78.2685 1.42147 78.5092 1.36993C78.5952 1.30116 78.664 1.38714 78.7328 1.47312C78.8531 1.79984 78.8874 2.19532 78.6982 2.48759C77.8727 3.5707 74.5199 2.72762 74.8119 4.32675C75.0009 5.44442 77.4086 2.81407 77.4428 3.91451C77.4769 5.71993 73.402 4.32651 72.7656 5.82232C72.6796 5.89108 72.7484 5.97707 72.8171 6.06306C73.1094 6.25224 73.7629 5.30666 74.0208 5.80534C74.2098 6.21803 73.5736 6.3039 73.4017 6.44143C73.0577 6.71648 72.5075 6.73358 72.6106 7.21504C72.5934 7.36979 72.6794 7.30102 72.8341 7.31824C72.9029 7.40422 72.8856 7.55898 72.9544 7.64496C72.9372 7.79971 72.834 8.02321 72.6792 8.00599C72.4385 8.05753 72.129 8.0231 71.8023 8.14341C71.1316 8.53877 70.5469 9.57033 69.8591 9.41547C69.3261 9.27782 69.4294 8.34934 69.1372 8.16016C68.7761 7.88499 68.2602 8.29756 68.3805 8.62428C68.4321 8.86501 68.8275 8.83069 68.9651 9.00266C69.1541 9.41536 68.0022 9.20883 67.3314 10.3092C67.2282 10.5327 67.3657 10.7046 67.4173 10.9454C67.4 11.1001 67.4171 11.6503 66.9529 11.5987C66.6434 11.5642 66.9702 10.739 66.592 10.6185C66.2997 10.4294 66.0245 10.7904 65.8526 10.9279C65.3367 11.3405 64.924 11.5296 64.219 11.5294C63.2733 11.5809 62.7745 12.5437 62.1554 13.1798C61.9834 13.3173 61.7598 13.9191 61.4675 13.7299C61.1065 13.4547 62.0695 12.5436 61.571 12.0964C60.4191 11.1849 59.3527 13.0245 58.6993 13.2652C58.1319 13.437 57.891 14.1935 57.7362 14.8813C57.7017 15.1908 57.8736 15.7582 57.3921 15.8613C56.9966 15.8956 57.0827 15.1219 56.756 15.2422C56.1886 15.414 55.7585 16.4628 56.2571 16.91C56.9619 17.6151 57.9423 15.8442 58.6816 16.2398C58.7504 16.3258 58.8191 16.4118 58.7332 16.4805C58.5095 17.0823 57.6498 17.065 57.0824 17.2368C56.1022 17.5977 55.0361 18.0274 54.1247 18.4743C52.388 19.2994 50.6169 19.7289 48.7598 20.2272C45.1316 21.1551 44.0311 21.8943 44.1857 22.6165C44.5293 24.4564 54.0371 28.4126 55.894 29.3243C70.2845 36.5655 81.6485 45.6632 82.3361 46.523C82.4049 46.609 82.4736 46.695 82.5424 46.781C82.6627 47.1077 82.9205 47.6064 82.5766 47.8815C82.4906 47.9502 81.9233 47.4171 81.7169 47.8641C81.39 48.6894 83.5222 48.535 83.4533 49.154C83.3844 49.773 82.2154 48.3112 82.0778 48.8442C81.9574 49.2225 82.4904 49.3602 82.7139 49.4634C83.4359 50.0137 83.0405 50.048 83.2811 50.7015C83.7795 51.8536 85.155 52.1633 86.0834 52.9716C86.2209 53.1435 86.4272 53.4015 86.4788 53.6422C86.6849 54.6051 87.9572 55.1384 87.923 54.0379C87.8372 53.4017 86.9087 53.2984 86.4101 52.8513C86.3413 52.7653 86.1178 52.6621 86.135 52.5073C86.0835 52.2666 86.032 52.0259 86.1179 51.9571C86.2899 51.8196 86.5134 51.9228 86.6682 51.94C87.0292 52.2152 87.373 52.6451 87.7341 52.9203C88.0951 53.1954 88.6281 53.3331 88.9547 53.9177C89.0235 54.0037 89.1438 54.3304 89.0406 54.5539C88.9374 54.7775 88.4559 54.8805 88.3527 55.1041C88.1978 55.7918 88.8684 56.1014 89.5733 56.1015C89.8828 56.136 90.3814 56.5831 90.6566 56.2221C90.8458 55.9298 89.6422 55.4825 90.0034 55.0528C91.19 53.5398 93.8032 56.1022 94.8861 57.6327C95.23 58.0626 94.5592 59.163 95.1438 59.5413C95.2813 59.7133 95.7284 59.2147 95.9175 59.6274C95.9862 59.7134 95.9518 60.0229 95.7798 60.1604C95.5219 60.3667 95.2296 60.1775 95.0577 60.3151C94.3698 60.8652 93.8882 61.6732 94.0944 62.6362C94.1459 62.8769 94.5929 63.0833 94.8852 63.2725C95.1087 63.3757 95.5042 63.3414 95.6762 63.2038C95.9341 62.9975 95.8138 62.6708 95.5215 62.4817C95.4528 62.3957 95.2293 62.2925 95.2465 62.1377C95.2637 61.983 95.3497 61.9142 95.3497 61.9142C96.0374 62.0691 96.6564 62.1379 97.3442 62.2928C97.3442 62.2928 97.4989 62.31 97.4817 62.4648C97.7739 63.3589 98.5647 63.9953 98.5301 65.0097C98.4785 65.474 99.5444 66.4542 100.026 66.3511C100.112 66.2824 100.353 66.2308 100.215 66.0589C100.129 65.4227 98.7365 64.5627 99.6307 64.2705C99.8714 64.219 100.164 64.4082 100.146 64.5629C100.198 65.5086 101.109 65.7667 101.591 66.3686C102.072 66.9705 102.484 67.4864 103.155 67.796C103.533 67.9164 104.204 68.226 104.118 67.5898C104.101 67.0396 102.794 66.8158 102.949 66.1281C103.035 65.3544 104.221 65.9564 104.565 66.3863C105.132 66.9194 104.53 68.1057 105.184 68.5701C106.043 69.2924 107.109 69.5677 108.107 69.757C108.416 69.7914 108.691 70.1353 108.554 70.6683C108.433 71.0466 108.124 71.0122 107.728 71.0465C107.573 71.0293 107.401 71.1668 107.264 70.9948C107.058 70.7369 107.419 70.3071 107.281 70.1351C107.161 69.8084 107.144 70.6681 106.198 70.7195C105.716 70.8226 105.459 69.619 104.96 69.8768C104.788 70.0143 104.926 70.1863 104.994 70.2723C105.115 70.599 105.149 70.9945 104.891 71.2008C104.478 71.3898 104.358 71.0631 104.152 70.8052C103.808 70.3753 103.567 69.7218 102.88 69.567C101.728 69.3604 101.212 69.068 100.662 68.3802C100.318 67.9503 99.9053 67.4344 99.3551 67.4515C98.8048 67.4686 97.8591 67.52 97.7043 68.2077C97.6698 68.5172 98.1341 68.5689 98.2716 68.7409C98.3747 69.2223 97.3088 68.2421 96.4834 68.6202C96.3114 68.7577 96.5865 69.1017 96.4145 69.2392C95.7439 69.6346 95.1081 66.9005 94.3514 68.0696C94.0762 68.4307 94.8325 70.0815 93.1305 68.4821C92.7007 68.1209 92.0474 67.6566 92.185 67.1236C92.2712 66.3499 92.8729 66.5735 93.6122 66.9691C93.9045 67.1583 94.5234 67.9321 94.747 67.3303C94.9534 66.8833 94.3861 66.3502 94.283 65.8687C94.3002 65.714 94.5582 65.5077 94.5066 65.267C94.3003 65.009 93.8532 65.5076 93.5609 65.3184C93.3374 65.2152 93.4923 64.5274 93.0968 64.5618C92.942 64.5445 92.8388 64.7681 92.8388 64.7681C92.8216 64.9228 92.8732 65.1635 92.8559 65.3183C92.8387 65.473 93.1825 65.9029 92.9418 65.9545C92.7871 65.9373 92.6495 65.7653 92.6668 65.6105C92.4777 65.1978 92.2714 64.9399 91.8931 64.8195C91.7384 64.8023 91.6009 64.6303 91.4633 64.4583C90.982 63.8564 90.4319 63.1686 89.8646 62.6355C89.5035 62.3603 89.0909 61.8444 88.6782 62.0335C88.1968 62.1365 88.4374 62.79 88.8844 62.9964C89.2627 63.1168 89.6754 62.9277 89.9504 63.2717C90.1567 63.5296 90.2426 64.1658 89.8299 64.3549C89.2452 64.6815 88.7812 63.2199 88.3513 63.5637C88.0074 63.8388 88.2996 64.0279 88.1963 64.9564C88.1274 65.5754 89.1419 65.61 89.4857 66.0399C89.8983 66.5558 90.4656 67.0889 90.9642 67.536C91.4627 67.9832 91.0156 68.4817 91.2907 68.8257C92.2705 70.5797 93.0271 70.1155 93.8179 70.7519C93.8867 70.8379 93.921 71.2333 93.9038 71.3881C93.9553 71.6288 94.1444 72.0415 94.2819 72.2135C94.7977 72.5059 95.2275 72.867 95.8293 73.0906C96.431 73.3143 97.2047 74.1053 97.0155 74.3976C96.895 74.7759 96.4137 74.174 96.3449 74.088C95.3306 73.3485 91.7889 71.3877 91.4795 70.6483C91.1186 69.6682 89.8464 68.43 89.7089 68.258C89.5026 68 89.4683 67.6046 89.0728 67.6389C88.9868 67.7077 88.8493 67.5357 88.7805 67.4497C87.9897 66.8134 87.4912 65.6613 86.4252 65.386C86.1157 65.3515 85.6341 66.1596 85.3591 65.8157C85.0668 65.6265 85.6515 65.2999 85.5999 65.0592C85.5484 64.8184 84.5855 65.0246 84.6371 64.5604C84.7576 64.1821 85.4109 64.6465 85.5141 64.423C85.9614 62.5144 82.798 60.6741 80.9581 61.0177C80.2359 61.1723 80.614 62.7027 79.8918 62.8573C78.8601 62.9775 77.9492 60.6045 77.2269 61.4641C76.6937 62.0315 77.8113 62.5475 78.4818 62.8571C79.3759 63.2699 80.1839 63.7515 81.1984 63.786C81.3531 63.8033 81.5594 64.0612 81.6282 64.1472C81.8345 64.4051 81.9204 65.0413 82.3158 65.007C82.7801 65.0587 82.9006 63.9755 83.5196 64.0443C84.4309 64.3024 84.3446 65.7811 84.9807 66.4002C85.4793 66.8474 87.0265 68.4295 87.3189 67.9137C87.5081 67.6214 86.9751 67.4838 86.8376 67.3118C86.786 67.0711 86.425 66.7959 86.6829 66.5896C87.732 65.6097 87.3878 67.2947 87.6283 68.6531C87.7486 68.9798 88.2128 69.0315 88.4363 69.1347C89.4336 69.324 90.0869 69.7884 89.8633 70.3901C89.5192 71.3702 87.6798 68.8939 87.267 69.7879C86.8886 70.3724 88.8831 70.751 88.4188 71.4044C88.1436 71.7654 87.6621 71.8685 87.3354 71.9888C86.8367 72.2466 86.4585 72.1262 86.4586 71.4212C86.4416 70.166 86.1666 69.8221 84.9114 69.8391C84.6019 69.8046 84.2924 69.7702 83.8969 69.8045C83.5874 69.7701 83.2092 69.6497 82.9512 69.856C82.1946 70.3201 84.0859 70.9222 83.6387 71.4208C83.5355 71.6443 83.0885 71.4379 83.0197 71.3519C82.2804 70.9563 81.4552 70.6295 80.9051 69.9416C80.5612 69.5117 79.3576 69.7694 79.3577 69.0644C79.3578 68.3594 80.3722 69.099 81.1632 68.3254C81.8511 67.7753 80.5445 66.8465 79.8052 66.4509C79.6505 66.4337 79.5129 66.2618 79.5301 66.107C79.4443 65.4708 78.9113 65.3332 78.3955 65.0408C77.192 64.5935 77.9142 64.4389 77.8972 63.1837C77.8973 62.4787 76.8313 62.2034 76.0748 61.9626C75.5418 61.8249 74.8884 61.3606 75.3356 60.862C75.4388 60.6385 75.903 60.6902 76.075 60.5526C76.4361 60.1228 74.2356 58.0763 73.7884 59.2799C73.6679 59.6581 74.5449 59.5207 74.5104 59.8302C74.4932 59.985 74.1837 59.9505 74.0805 60.174C74.1321 60.4148 74.751 60.4836 74.5619 60.7759C74.4586 60.9994 74.2351 60.8962 74.0804 60.879C73.3239 60.6382 72.9801 60.2082 73.0489 59.5892C73.0662 59.4345 73.1521 59.3658 73.0834 59.2798C72.8771 59.0218 72.4988 58.9014 72.2581 58.9529C72.1034 58.9357 72.0174 59.0045 72.0174 59.0045C71.3295 59.5546 70.8825 59.3482 70.7451 58.4712C70.642 57.9898 70.5734 57.1988 69.9887 57.5254C69.318 57.9208 70.4699 58.8323 70.6418 59.3997C70.8136 59.9672 72.2406 60.5176 71.7075 61.085C71.0024 61.7898 69.9195 60.2593 69.2318 59.3995C68.8192 58.8836 68.4066 58.3677 68.8882 57.5596C69.1806 57.0438 68.9056 56.6999 68.3898 56.4075C68.0975 56.2183 67.96 56.0464 67.6677 55.8572C67.4442 55.754 67.2207 55.6508 66.9972 55.5476C66.9284 55.4616 66.6533 55.8226 66.722 55.9086C66.8596 56.0806 66.9799 56.4073 67.2034 56.5105C67.9427 56.9061 68.6647 57.4564 67.7533 57.9033C66.9107 58.4362 66.8594 56.7855 65.9998 56.0632C65.7076 55.874 65.3464 56.3039 65.1229 56.2007C64.2461 55.6331 65.4325 55.5301 66.0688 54.7393C66.1548 54.6705 66.1033 54.4298 66.0345 54.3438C65.9659 53.5528 65.6736 53.3637 65.0029 53.759C64.745 53.9653 64.212 53.8277 63.9368 54.1887C63.7304 54.6357 64.5212 55.272 64.3836 55.805C64.0396 56.7851 62.3032 54.7902 61.9764 55.6155C61.9592 55.7703 62.1827 55.8735 62.1655 56.0282C62.2342 56.1142 62.5953 56.3894 62.3373 56.5956C61.6323 57.3005 60.5321 55.2198 59.9303 55.7011C59.5863 55.9762 60.4116 56.303 60.6179 56.561C61.0477 56.9221 61.7182 57.2317 61.7181 57.9367C61.7697 58.1774 62.2167 58.3838 62.1822 58.6933C62.2853 59.1748 61.7866 59.4326 61.4084 59.3122C61.0989 59.2778 60.927 58.7103 60.8583 58.6243C60.3597 58.1772 59.9127 57.9708 59.4657 57.7644C59.0186 57.558 58.5544 57.5063 58.0042 57.5234C57.5399 57.4718 57.0929 57.2654 56.3707 57.42C56.2847 57.4888 56.0611 58.0905 55.6141 57.8841C54.6513 57.3853 54.9266 56.3193 54.0153 56.0612C53.7918 55.958 53.4136 55.8376 53.2933 55.5109C53.2245 55.4249 53.3105 55.3561 53.3965 55.2874C53.5684 55.1499 53.9295 55.425 54.1702 55.3735C54.5657 55.3392 55.0299 55.3908 55.2363 54.9438C55.3395 54.7203 55.6834 54.4452 55.9069 54.5485C56.1305 54.6517 56.6635 54.7893 56.6118 55.2535C56.5601 55.7178 55.5973 55.219 55.5457 55.6832C55.5456 56.3882 56.6116 56.6635 57.093 56.5604C57.5745 56.4573 58.0904 56.0447 58.0561 55.6492C58.0218 55.2538 57.248 55.1677 56.8182 54.8065C56.5947 54.7033 56.5432 54.4626 56.3369 54.2046C56.1993 54.0327 56.079 53.706 55.9243 53.6887C55.0303 53.2759 55.7353 52.5711 55.1337 51.6425C54.9446 51.2298 54.2912 51.4704 53.8957 51.5047C53.2595 51.5906 52.8985 51.3154 52.6234 50.9715C52.0905 50.1289 51.0417 49.6988 50.4226 50.3349C49.6316 51.1085 52.6578 51.3669 52.3309 52.1922C52.2277 52.4157 51.9182 52.3813 51.7635 52.3641C50.7147 51.934 49.5627 51.7275 48.7031 51.0052C48.3421 50.73 47.7231 50.6611 47.3448 50.5407C46.8978 50.3343 45.6943 49.8871 46.2961 49.4057C47.1732 48.5634 48.8578 51.0224 49.3222 50.3691C49.4254 50.1456 48.9613 49.389 48.4283 49.2513C47.6718 49.0105 47.1388 48.8728 46.5542 48.4945C45.9697 48.1161 44.9037 47.8408 44.319 48.1674C43.9923 48.2877 43.8031 48.58 43.3904 48.769C42.9777 48.9581 42.5994 48.8377 42.3244 48.4938C42.0493 48.1498 42.4448 48.1155 42.4105 47.72C42.3418 46.9291 41.0179 46.8601 40.3473 46.5505C39.5908 46.3096 38.8171 46.2235 38.1294 46.0687C37.2869 45.8966 36.324 46.1027 36.0143 46.7733C35.8252 47.0655 36.3237 47.5127 36.2205 47.7362C35.9281 48.252 34.8965 47.6672 34.6041 48.183C34.3977 48.63 34.9995 48.8536 35.0511 49.0944C35.0854 49.4898 34.1396 50.2462 33.8301 50.2118C33.6753 50.1946 33.4518 50.0914 33.3658 50.1601C32.5575 51.0885 33.7265 52.5502 33.8295 53.7366C33.984 55.1638 34.3793 56.5394 34.5338 57.9666C34.7914 59.8752 34.8942 61.7666 34.9971 63.658C35.1687 65.6354 35.4262 68.249 35.3573 68.868C35.3401 69.0227 35.2369 69.2462 35.0821 69.229C34.3944 69.0741 34.8768 63.3313 33.8966 63.6922C33.6559 63.7437 33.9137 64.2424 33.8793 64.5519C33.8103 65.8759 33.4318 67.1654 33.6035 68.4378C33.6379 68.8333 33.4314 69.2803 33.0532 69.1599C32.2279 68.8331 33.1222 67.8359 32.5721 67.1481C32.1595 66.6322 32.5724 65.0331 31.8502 65.1878C30.0964 65.4626 31.7637 68.7814 31.815 70.4321C31.9522 72.7189 32.2441 75.023 32.8627 77.2068C33.0346 77.7743 33.7565 79.0296 33.0343 79.1842C32.3809 79.4248 32.1925 74.7823 31.4703 74.9369C31.2296 74.9885 31.3327 75.4699 31.1779 75.4527C31.0232 75.4355 30.8857 75.2635 30.7481 75.0916C30.6278 74.7649 31.1782 74.0428 30.7139 73.9911C28.9257 73.8705 30.9883 78.5649 30.2661 78.7195C30.0254 78.7711 29.8021 77.2579 29.5615 76.6045C29.4584 76.123 27.8083 72.6495 27.6709 71.7725C27.6709 71.7725 27.5678 71.2911 27.3099 71.4974C26.5532 71.9615 27.5331 73.0105 27.619 73.6467C27.9283 75.0911 28.0828 76.5183 28.564 77.8251C28.8046 78.4785 29.0965 80.7827 28.5291 80.9545C28.2024 81.0748 27.8416 79.3897 27.8073 78.9942C27.8589 78.53 27.7558 78.0485 27.7215 77.653C27.6357 77.0168 27.3778 76.5182 27.2919 75.8819C27.2577 74.7815 26.8109 73.1652 26.0889 72.6148C25.9513 72.4428 25.6246 72.5632 25.6074 72.7179C25.5555 74.5921 27.2229 77.2059 26.4835 77.5153C26.1568 77.6356 25.9505 77.3776 25.7786 77.5152C25.2799 77.773 25.5893 78.5124 25.0734 78.925C24.6434 79.2688 24.6266 77.3086 24.0762 78.0307C23.887 78.323 24.4372 79.0108 24.0932 79.2859C24.7465 79.7502 24.6091 78.8733 24.5748 78.4778ZM81.6961 69.168C81.3694 69.2883 81.4038 69.6837 81.4553 69.9245C81.5241 70.0105 81.6788 70.0277 81.6788 70.0277C82.0055 69.9074 82.2636 68.9961 81.6961 69.168ZM94.4732 59.2317C94.1809 59.0425 93.4588 59.1972 93.5619 59.6786C93.5102 60.1429 94.1979 60.2977 94.4559 60.0914C94.7826 59.9711 94.7655 59.4209 94.4732 59.2317ZM93.3041 58.475C93.2869 58.6297 93.5964 58.6642 93.7339 58.8361L93.9059 58.6986C93.7684 58.5266 93.8028 58.2172 93.5621 58.2687C93.4933 58.1827 93.3901 58.4062 93.3041 58.475ZM87.6816 58.3193C87.4752 58.7663 88.2145 59.1619 88.4552 59.1104C88.8851 58.7666 87.9912 57.6488 87.6816 58.3193ZM88.7819 58.9901C88.5583 59.5918 90.123 59.6093 89.8824 58.9559C89.6761 58.6979 88.9711 58.6978 88.7819 58.9901ZM88.1116 57.2705C88.8855 56.6516 87.407 55.1555 86.7364 55.5508C85.8937 56.0837 87.4238 57.8206 88.1116 57.2705ZM90.6383 62.7216C90.8274 63.1343 91.7902 63.633 92.1513 63.2032C92.3405 62.911 91.8763 62.8593 91.8935 62.7046C91.8419 62.4638 91.7216 62.1371 91.8248 61.9136C91.8421 61.7589 92.3063 61.8105 92.4611 61.8277C92.7705 61.8622 93.2003 62.2233 93.3895 61.9311C93.8367 61.4325 93.0286 60.9509 92.5644 60.8993C92.2549 60.8648 92.2033 60.6241 92.169 60.2286C92.0144 59.5064 92.9429 59.6097 93.0805 59.0767C93.2354 58.389 92.7369 57.2369 92.1179 57.168C90.794 57.099 91.2925 57.5462 90.4671 57.9243C90.2264 57.9758 90.1748 58.4401 90.2263 58.6808C90.2778 58.9215 90.6733 58.8872 90.6561 59.042C90.6217 59.3515 90.1574 59.2998 90.1402 59.4545C89.8306 60.1251 89.6413 61.1223 90.243 61.3459C91.0683 61.6728 91.3608 60.452 91.4982 61.329C91.3606 61.862 90.3805 62.2229 90.6383 62.7216ZM85.8755 62.5832C86.185 62.6176 86.3914 62.1706 86.4086 62.0159C86.357 61.7752 86.0476 61.7407 85.7553 61.5515C85.7553 61.5515 85.6005 61.5343 85.5833 61.6891C85.4801 61.9126 85.4972 62.4628 85.8755 62.5832ZM74.1671 56.5804C74.528 57.5606 76.0756 57.0278 76.7804 57.7329C77.4165 58.352 79.7033 58.9198 78.8262 59.7622C78.5683 59.9684 78.1729 59.2978 77.9837 59.5901C77.2958 60.8451 79.7544 61.9804 80.1844 60.9316C80.4768 60.4158 78.8261 60.4671 79.2045 59.8826C79.5829 59.298 80.1501 60.5361 80.494 60.2611C80.9239 59.9173 80.7693 59.1951 80.735 58.7996C80.5117 57.2864 78.8785 55.7731 77.5716 56.2543C77.0729 56.5121 77.709 57.1312 78.1561 57.3376C78.4483 57.5268 78.7406 57.716 78.9469 57.974C79.0844 58.1459 79.2047 58.4726 79.0327 58.6102C77.829 59.5729 77.1073 56.9076 76.3509 55.9618C76.2821 55.8758 76.2993 55.7211 76.3853 55.6523C76.4713 55.5835 76.4541 55.7383 76.6088 55.7555C76.6088 55.7555 76.6776 55.8415 76.7636 55.7727C76.7636 55.7727 76.9183 55.7899 77.0043 55.7212C77.056 55.2569 76.3682 55.1021 75.904 55.0504C75.6805 54.9472 75.4568 55.549 74.9926 55.4973C74.6143 55.3769 74.6317 54.5172 74.1674 54.4655C73.4109 54.2247 73.2048 53.2617 72.4653 53.5711C71.9667 53.829 72.5168 54.5168 72.8778 54.792C73.1701 54.9812 73.4623 55.1704 73.7546 55.3595C74.1844 55.7207 73.9092 56.0817 74.1671 56.5804ZM82.5389 67.9301C82.5389 67.9301 82.3841 67.9129 82.3669 68.0676C82.3497 68.2224 82.4012 68.4631 82.556 68.4803C82.556 68.4803 82.7107 68.4976 82.7279 68.3428C82.8311 68.1193 82.6936 67.9473 82.5389 67.9301ZM80.1836 65.8664C80.3554 66.4338 81.3009 67.7923 82.1951 67.5002C83.4847 67.1737 82.6423 66.2967 82.161 65.6948C81.6109 65.0069 80.7168 64.5941 79.8056 64.336C79.6508 64.3188 79.4273 64.2156 79.3241 64.4391C79.1005 65.0409 80.0805 65.3849 80.1836 65.8664ZM71.3901 5.51259C71.2525 5.34062 70.9431 5.30619 70.8571 5.37495C70.2724 5.70155 70.3411 6.49249 70.4441 6.97395C70.7363 7.86811 72.4557 7.90279 72.0776 7.0774C71.9573 6.75068 71.3382 7.38677 71.1319 7.12882C70.8568 6.78488 71.5103 6.54429 71.5275 6.38954C71.6479 6.01128 71.5276 5.68455 71.3901 5.51259ZM71.5968 2.95067C71.1841 3.13973 70.3244 3.12239 70.3587 3.51787C70.4102 4.46357 72.9551 3.41513 72.9208 3.01966C72.5942 2.435 71.9235 2.83035 71.5968 2.95067ZM68.0374 3.96453C67.9514 4.03329 67.5387 4.22237 67.6763 4.39434C68.0889 4.91024 68.9314 4.37735 69.4129 4.27427C69.7396 4.15396 70.1351 4.11964 69.946 3.70694C69.8773 3.62096 69.6538 3.51776 69.5678 3.58653C69.0003 3.75837 68.5361 3.7067 68.0374 3.96453ZM66.5416 3.32811C66.7651 3.43131 67.5905 3.05316 67.006 2.67478C66.7137 2.48559 66.3525 2.91541 66.3353 3.07016C66.3353 3.07016 66.4728 3.24213 66.5416 3.32811ZM67.538 8.4522C67.3145 8.349 66.3344 8.70992 66.7642 9.07106C67.0565 9.26026 67.5551 9.00242 67.5896 8.69292C67.7443 8.71014 67.6928 8.46942 67.538 8.4522ZM64.0828 3.6028C64.0483 3.91229 64.4781 4.27344 64.8908 4.08437C65.2175 3.96407 65.2864 3.34509 64.9254 3.06992C64.5471 2.9495 64.0312 3.36207 64.0828 3.6028ZM63.7044 4.18736C63.9451 4.13582 63.9796 3.82631 63.9108 3.74032C63.5498 3.46515 63.2402 4.1357 63.7044 4.18736ZM63.9964 5.78647C64.2887 5.97566 64.8734 5.64908 64.9938 5.27082C65.0798 5.20205 64.9423 5.03008 64.8735 4.9441C64.3749 4.49696 63.5666 5.42532 63.9964 5.78647ZM52.8524 17.9411C53.2307 18.0615 53.6606 17.7177 53.9873 17.5974C54.3828 17.5631 54.8471 17.6147 55.277 17.2709C55.5349 17.0646 56.068 16.4973 55.793 16.1533C55.5867 15.8954 55.2771 16.5659 55.2083 16.4799C54.3143 16.0671 53.7467 16.9439 53.0245 17.0986C52.5431 17.2017 52.4054 17.7347 52.8524 17.9411ZM49.1383 18.9377C49.2071 19.0237 49.8088 19.2473 49.8605 18.7831C49.8949 18.4736 49.4307 18.4219 49.2759 18.4047C49.1212 18.3875 48.9492 18.525 48.932 18.6798C48.932 18.6798 48.9835 18.9205 49.1383 18.9377ZM58.8473 54.1707C58.9677 53.7924 59.8617 54.2052 59.8274 53.8097C60.0339 52.6578 57.283 51.3333 56.681 52.5196C56.0618 53.8607 60.0678 55.8731 60.3085 55.8216C60.4633 55.8388 60.5665 55.6153 60.4117 55.5981C60.1194 55.4089 59.8272 55.2197 59.5349 55.0305C59.4834 54.7898 58.7956 54.6349 58.8473 54.1707ZM72.8084 58.2309L72.7225 58.2996C72.774 58.5403 73.0491 58.8843 73.3758 58.764C73.9432 58.5921 73.0492 58.1793 72.8084 58.2309ZM32.6585 64.2594L32.8133 64.2766C32.9165 64.0531 32.8134 63.5717 32.5899 63.4685C32.5211 63.3825 32.4351 63.4512 32.3491 63.52C32.2459 63.7435 32.435 64.1562 32.6585 64.2594ZM26.1056 75.2799C26.5011 75.2456 26.3808 74.9189 26.4152 74.6094C26.5013 73.8357 25.9857 72.8383 25.5902 72.8726C25.04 72.8897 25.6242 75.383 26.1056 75.2799ZM26.8103 77.395C27.223 77.2059 26.6386 75.4176 26.2087 75.7614C25.8648 76.0364 26.1914 76.6211 26.3632 77.1886C26.4492 77.1198 26.7243 77.4637 26.8103 77.395ZM115.6 88.2938C115.463 88.1218 115.085 88.0014 114.999 88.0701C114.655 88.3452 114.947 88.5344 115.084 88.7064C115.291 88.9643 115.6 88.9987 115.738 89.1707C116.013 89.5146 116.701 89.6695 116.236 90.3228C116.15 90.3916 116.184 90.7871 116.305 91.1138C116.545 91.7672 117.13 92.1456 117.835 92.1457C118.144 92.1801 118.282 92.3521 118.574 92.5413C119.382 93.0229 119.571 93.4356 120.397 92.3524C120.483 92.2837 120.483 92.2837 120.569 92.2149C120.535 91.8194 119.744 91.8881 119.4 91.4582C119.4 91.4582 119.279 91.1315 119.073 90.8735C118.661 90.3576 118.437 89.5494 117.835 89.3258C117.681 89.3086 117.595 89.3774 117.44 89.3601C116.597 89.188 115.996 88.9644 115.6 88.2938ZM114.551 92.7985C114.155 92.8329 113.932 92.0247 113.536 92.059C113.45 92.1278 113.364 92.1965 113.364 92.1965C113.33 92.506 113.605 92.85 113.829 92.9532C114.499 93.2628 115.135 94.5868 115.823 94.0367C116.167 93.7617 116.15 93.2115 115.961 92.7988C115.514 91.8874 115.428 92.6611 114.551 92.7985ZM118.454 94.3295C118.23 93.5213 117.113 92.3003 116.528 93.3319C116.132 94.0712 116.906 94.1573 117.491 94.5356C117.783 94.7248 118.161 94.8453 118.281 95.172C118.728 96.0833 119.554 96.4102 120.276 96.9605C120.568 97.1497 120.963 97.8204 121.17 97.3733C121.497 96.5481 120.224 96.0148 119.777 95.8084C118.935 95.6363 118.677 95.1376 118.454 94.3295ZM114.139 85.2329C114.208 85.3189 114.604 85.2846 114.621 85.1298C114.638 84.9751 114.26 84.8547 114.088 84.9922C114.088 84.9922 114.071 85.1469 114.139 85.2329ZM101.624 69.5839C101.573 69.3432 101.384 68.9305 101.212 69.068C99.7157 69.8415 101.83 71.2518 102.845 71.9914C103.343 72.4385 104.117 72.5246 104.186 71.9056C104.134 71.6649 103.911 71.5617 103.687 71.4585C102.639 71.0284 101.917 70.4781 101.624 69.5839ZM121.876 92.4387C121.652 92.3355 121.171 92.4385 121.222 92.6793C121.274 92.92 121.738 92.9717 121.841 92.7482C122.082 92.6966 122.03 92.4559 121.876 92.4387ZM118.163 83.5657C118.129 83.1703 117.338 83.2389 117.303 83.5484C117.338 83.9439 118.266 84.0472 118.163 83.5657ZM110.925 79.627C111.303 79.0425 109.154 77.2367 108.604 77.2538C108.209 77.2881 108.312 77.7696 108.518 78.0275C109.085 78.5607 109.584 79.0078 110.151 79.5409C110.375 79.6441 110.736 79.9193 110.925 79.627ZM117.097 83.2905C117.08 81.3303 116.221 79.198 114.656 79.8855C114.243 80.0746 114.535 80.9688 114.123 81.1579C113.555 81.3297 113.28 80.2808 112.73 80.2979C112.575 80.2807 112.524 80.7449 112.3 80.6417C111.991 80.6073 112.06 79.9883 111.922 79.8163C111.785 79.6444 111.475 79.6099 111.303 79.7474C111.217 79.8162 111.097 80.1945 111.08 80.3492C111.2 80.6759 111.63 81.0371 111.681 81.2778C111.836 82 112.42 81.6734 112.85 82.0345C113.057 82.2925 112.713 82.5676 112.713 82.5676C112.884 83.135 113.607 82.9804 113.796 83.3931C114.552 85.0439 115.24 85.1987 115.24 85.1987C115.257 85.7489 114.122 86.0926 114.311 86.5053C114.844 87.3479 115.841 86.8323 116.082 87.4857C116.391 88.2251 116.804 88.741 117.474 89.0506C117.543 89.1366 117.921 89.257 118.076 89.2743C118.919 89.4464 119.211 90.3405 119.451 90.9939C119.52 91.0799 119.64 91.4066 119.881 91.3551C120.363 91.252 120.432 90.633 120.311 90.3063C120.277 89.9108 119.417 89.8935 119.469 89.4292C119.486 89.2745 119.727 89.223 119.813 89.1542C119.985 89.0167 120.139 89.0339 120.157 88.8791C120.346 87.8819 119.71 88.6727 118.73 88.3287C118.42 88.2942 118.403 87.744 118.111 87.5548C117.819 87.3656 117.165 87.6063 117.062 87.1248C116.959 86.6433 117.612 86.4027 117.922 86.4372C118.386 86.4888 118.73 87.6237 119.108 87.0392C119.487 86.4546 120.037 85.0276 118.954 84.907C118.335 84.8381 117.733 85.3195 117.492 86.076C117.475 86.2307 117.217 86.437 117.062 86.4198L116.993 86.3338C116.976 85.7836 117.939 85.5774 117.922 85.0272C117.888 84.6317 117.492 84.6661 117.355 84.4941C117.252 84.0126 117.08 83.4452 117.097 83.2905ZM73.2199 65.7964C73.4089 66.2091 73.9764 66.0373 74.1483 65.8998C74.4923 65.6247 74.3549 64.7478 73.8734 64.8509C73.5467 64.9712 73.0308 65.3838 73.2199 65.7964ZM52.4335 55.4936C52.4679 55.889 53.2416 55.9751 53.4308 55.6829C53.9639 55.1155 52.2617 54.9261 52.4335 55.4936ZM45.2816 50.0761C45.5567 49.7151 45.3334 48.9069 44.7831 48.924C43.8546 48.8207 44.6452 50.867 45.2816 50.0761ZM70.3831 63.8358C70.3831 63.8358 70.6238 63.7843 70.7098 63.7155C70.7958 63.6468 70.985 63.3545 70.8475 63.1825C70.4864 62.9073 70.28 63.3544 70.194 63.4231C70.1768 63.5779 70.3143 63.7499 70.3831 63.8358ZM47.7399 52.6213C48.531 51.8477 45.9693 50.231 45.4705 51.1938C44.9717 52.1566 47.1208 53.2574 47.7399 52.6213ZM65.3114 60.1382C65.0535 59.6395 64.9159 60.1725 64.5032 60.3616C64.0045 60.6194 63.2998 59.2093 62.9042 59.9486C62.6978 60.3957 63.2995 60.6193 63.6778 60.7397C63.9013 60.8429 64.2796 60.9633 64.4171 61.1353C64.8812 61.8919 65.8269 61.8405 66.463 62.4596C66.6693 62.7176 67.0476 62.838 67.4258 62.9584C67.8041 63.0788 68.5434 63.4744 68.5435 62.7695C68.4748 61.9785 67.3401 61.6172 66.6868 61.1529C66.257 60.7917 65.638 60.7229 65.3114 60.1382ZM65.5001 62.6658C65.3626 62.4938 65.0531 62.4594 64.8296 62.3562C64.5373 62.167 64.245 61.9778 63.9527 61.7886C63.5229 61.4275 63.1791 60.9976 62.5774 60.7739C61.6833 60.3611 60.4111 59.1229 59.8608 59.845C58.9493 60.9968 67.3051 65.4516 67.9586 64.506C68.5262 63.6292 66.9959 63.3022 66.3941 63.0786C65.9987 63.1129 65.7751 63.0097 65.5001 62.6658ZM45.7459 49.4228C45.8835 49.5948 46.1069 49.698 46.2789 49.5605C46.3649 49.4917 46.3821 49.337 46.3134 49.251C46.1758 49.079 45.8664 49.0446 45.6944 49.1821C45.7632 49.2681 45.6772 49.3368 45.7459 49.4228ZM39.1773 51.4335C38.9366 51.485 38.4208 51.1926 38.3004 51.5709C38.266 51.8804 38.5755 51.9148 38.7302 51.932C40.312 52.4997 41.8938 53.0674 43.596 53.2568C43.7507 53.2741 43.9055 53.2913 43.9227 53.1365C44.0259 52.913 43.5789 52.7066 43.6821 52.4831C43.7853 52.2596 44.2323 52.466 44.2495 52.3112C44.3355 52.2425 44.3527 52.0877 44.198 52.0705C42.5474 51.4169 40.9655 51.5541 39.1773 51.4335ZM37.0112 49.0775C36.633 48.9571 36.289 49.2321 36.4093 49.5588C36.4781 49.6448 36.4609 49.7996 36.6156 49.8168C36.8391 49.92 36.9596 49.5417 37.2175 49.3354C37.1488 49.2495 37.0972 49.0087 37.0112 49.0775ZM114.001 91.4057C114.19 91.1134 114.07 90.7867 114.018 90.546C113.485 89.7034 112.402 89.5828 111.473 89.4795C111.164 89.4451 110.321 89.273 110.27 89.7372C110.115 91.1299 112.986 92.7811 114.001 91.4057ZM38.6277 47.9257C38.5761 47.685 38.0431 47.5474 37.8712 47.6849C37.51 48.1147 38.8855 48.4244 38.6277 47.9257ZM43.5621 50.0415C42.2383 49.2675 42.5478 49.3019 41.4302 48.7859C40.9832 48.5795 40.8111 49.422 40.7767 49.7315C40.5874 50.7288 41.7223 50.3851 42.2553 50.5227C42.4788 50.6259 42.6508 50.4884 42.8571 50.7463C43.3384 51.3482 44.7654 51.8987 45.2298 51.2453C45.5222 50.7296 44.6797 50.5575 44.3014 50.4371C44.0091 50.2479 43.6997 50.2134 43.5621 50.0415ZM40.7083 47.5306C40.5019 47.9776 41.4474 48.6312 41.8086 48.2014C42.187 47.6168 40.9319 46.9288 40.7083 47.5306ZM40.1406 49.1124C40.1063 48.7169 39.7452 48.4418 39.5561 48.734C39.2981 48.9403 39.6419 49.3702 39.9514 49.4047C39.9514 49.4047 40.0546 49.1812 40.1406 49.1124ZM37.2687 51.6911C37.3375 51.7771 37.647 51.8115 37.6642 51.6568C37.7502 51.588 37.6126 51.416 37.5439 51.33C37.4751 51.2441 37.3204 51.2268 37.2344 51.2956C37.2172 51.4504 37.2 51.6051 37.2687 51.6911ZM99.319 77.6305C99.2502 77.5446 99.0955 77.5273 99.0783 77.6821C98.9923 77.7508 99.1298 77.9228 99.1986 78.0088C99.1986 78.0088 99.4221 78.112 99.5253 77.8885C99.5425 77.7337 99.4737 77.6478 99.319 77.6305ZM101.124 81.8263C101.296 80.9838 102.448 81.1903 103.239 81.8266C103.307 81.9126 103.686 82.033 103.772 81.9643C104.15 81.3797 102.087 79.5052 101.451 80.296C100.9 81.0181 101.279 81.1385 100.522 81.6026C100.023 81.8605 99.4387 81.4821 99.0777 81.2069C98.3041 80.4159 97.0145 80.0374 96.1032 80.4843C96.0172 80.553 95.8452 80.6906 95.8968 80.9313C95.9998 81.4128 96.8595 81.4301 96.9626 81.9116C97.2032 82.565 97.7879 82.2384 98.2177 82.5995C98.3552 82.7715 98.51 82.7887 98.5615 83.0295C98.7162 83.7517 99.4382 84.302 99.8854 83.8034C100.247 83.3736 99.1634 82.5481 99.7481 82.2215C100.092 81.9465 100.487 82.6171 100.78 82.8063C101.072 82.9955 101.278 83.2534 101.502 83.3566C102.31 83.8382 103.135 84.165 103.668 85.0077C103.874 85.2656 104.39 85.558 104.459 84.939C104.408 83.2883 100.883 83.2878 101.124 81.8263ZM105.302 83.7012C105.439 83.1681 104.39 82.7381 104.047 83.0132C103.496 83.7352 105.164 84.2342 105.302 83.7012ZM99.1984 78.7138C98.7685 79.0576 99.4389 80.0722 100.024 79.7456C100.54 79.333 99.6284 78.3699 99.1984 78.7138ZM107.949 87.364C107.932 86.8138 107.898 86.4183 107.468 86.0571C107.107 85.782 106.797 85.0426 106.316 85.1457C106.075 85.1972 105.645 85.541 105.834 85.9537C106.161 86.5384 106.814 86.2978 106.917 86.7792C107.038 87.1059 107.089 87.3467 107.296 87.6046C107.364 87.6906 107.588 87.7938 107.743 87.811C107.829 87.7423 107.932 87.5187 107.949 87.364ZM109.084 85.6104C108.947 85.4384 108.689 85.6447 108.517 85.7822C108.517 85.7822 108.482 86.0917 108.637 86.1089C108.792 86.1261 108.946 86.1434 109.032 86.0746C109.05 85.9199 109.239 85.6276 109.084 85.6104ZM76.0912 66.7426C75.7128 67.3272 77.1055 67.4822 77.1572 67.0179C77.1744 66.8632 76.8649 66.8287 76.7102 66.8115C76.5554 66.7943 76.1944 66.5191 76.0912 66.7426ZM110.923 88.7916C110.941 88.6369 110.82 88.3102 110.683 88.1382C109.857 87.8114 108.241 86.8482 108.104 88.0862C108 88.3097 108.361 88.5849 108.516 88.6021C109.118 88.8257 109.806 88.9806 110.425 89.0495C110.493 89.1355 110.906 88.9464 110.923 88.7916ZM89.3988 71.7484C89.33 71.6624 89.2613 71.5764 89.0205 71.628C87.9716 71.9029 88.5904 73.3817 89.1922 73.6054C90.7739 74.173 90.6367 72.5911 89.3988 71.7484ZM90.447 75.7033C90.2923 75.6861 90.1375 75.6689 89.9828 75.6516C89.4497 75.514 88.9855 75.4623 88.6244 75.8921C88.3492 76.2532 88.0569 76.064 87.9538 75.5825C87.9711 75.4278 88.0743 75.2043 87.8507 75.1011C87.2662 74.7227 86.9394 75.548 87.0424 76.0294C87.1455 76.5109 87.3346 76.9236 87.9536 76.9925C88.4178 77.0441 88.7789 77.3193 89.1399 77.5945C89.5009 77.8696 90.0511 78.5575 90.5154 77.9042C90.7046 77.6119 90.5327 77.0445 90.7907 76.8382C91.3926 76.3568 91.9084 76.6492 91.9428 76.3397C91.9085 75.9443 91.2552 75.4799 90.7049 75.497C90.6877 75.6517 90.533 75.6345 90.447 75.7033ZM76.2805 65.7454C75.9193 66.1752 77.2948 66.4849 77.1917 66.0035C77.1574 65.608 76.5384 65.5391 76.2805 65.7454ZM87.249 74.8774C87.7822 73.6051 86.0972 73.261 85.8564 74.0175C85.4951 75.1522 86.9221 75.7027 87.249 74.8774ZM94.6419 78.8334C94.7107 78.9194 94.8654 78.9366 94.8826 78.7818C94.9686 78.7131 94.9858 78.5583 94.7623 78.4551C94.6936 78.3691 94.5216 78.5067 94.4356 78.5754C94.4184 78.7302 94.4872 78.8161 94.6419 78.8334ZM85.3925 71.8509C85.5301 71.3179 84.6876 71.1458 84.3609 71.2661C84.2749 71.3349 84.1889 71.4037 84.1717 71.5584C84.206 71.9539 85.2376 72.5387 85.3925 71.8509ZM91.1007 74.0527C91.0834 74.2075 91.221 74.3795 91.3757 74.3967C91.4445 74.4827 91.7195 74.8266 91.8227 74.6031C92.2526 74.2593 91.3071 73.6057 91.1007 74.0527ZM63.2141 57.1632C63.2485 57.5587 63.1968 58.0229 63.4891 58.2121C63.9361 58.4185 64.4348 58.1607 64.5552 57.7824C64.7444 57.4902 64.3318 56.9743 63.7128 56.9054C63.5581 56.8882 63.1454 57.0772 63.2141 57.1632ZM100.319 63.7204C100.852 63.1531 99.5278 62.3791 99.0807 62.8777C98.7883 63.3935 99.8887 64.0642 100.319 63.7204ZM89.7946 69.5992C90.0869 69.7884 90.276 70.2011 90.5339 69.9948C90.7059 69.8572 90.4136 69.6681 90.4308 69.5133C90.2933 69.3413 90.259 68.9459 89.9495 68.9114C89.5712 68.791 89.3648 69.238 89.7946 69.5992ZM102.227 64.1678C101.866 63.8926 101.419 64.3912 101.23 63.9785C101.161 63.8925 100.869 63.7033 100.628 63.7549C99.6135 64.4253 101.487 65.8871 102.244 65.423C102.812 65.2512 102.588 64.443 102.227 64.1678ZM90.9464 71.2156C91.3419 71.1813 91.1872 70.4591 90.8605 70.5794C90.6198 70.631 90.4649 71.3187 90.9464 71.2156ZM94.0612 55.191C93.9065 55.1738 93.7345 55.3113 93.7173 55.466C93.7173 55.466 93.7861 55.552 93.8548 55.638C94.0096 55.6552 94.1815 55.5177 94.1988 55.3629C94.13 55.277 94.0612 55.191 94.0612 55.191ZM89.0754 52.1295C88.7142 52.5593 89.402 52.7142 89.7115 52.7487C89.935 52.8519 90.0208 53.4881 90.4163 53.4537C90.657 53.4022 91.0868 53.7634 90.9837 53.2819C90.7604 52.4737 89.4193 51.8545 89.0754 52.1295ZM92.2536 68.6195C91.3421 69.7714 94.0242 71.0098 94.97 70.2534C95.142 70.1159 94.8842 69.6172 94.7294 69.6C94.3512 69.4796 94.0932 69.6859 93.8697 69.5827C92.8037 69.3074 92.7867 68.0522 92.2536 68.6195ZM90.9463 71.9206C90.8603 71.9894 90.929 72.0754 90.9978 72.1613C91.4276 72.5225 92.6999 73.0557 92.7 72.3508C92.7517 71.8865 91.806 71.9379 91.4277 71.8175C91.2042 71.7143 90.9635 71.7659 90.9463 71.9206ZM79.9768 68.4283C80.4069 67.3795 78.7049 65.7802 77.8623 66.3131C76.6585 67.2757 79.5123 69.7866 79.9768 68.4283ZM80.9578 63.1326C80.9578 63.1326 81.1813 63.2358 81.2673 63.1671C81.3533 63.0983 81.2157 62.9263 81.2157 62.9263C81.147 62.8403 80.9922 62.8231 80.9062 62.8919C80.8203 62.9606 80.9578 63.1326 80.9578 63.1326ZM93.5596 73.0731C93.4049 73.0558 93.3877 73.2106 93.3017 73.2794C93.1812 73.6576 94.0236 74.5347 94.2645 73.7782C94.4709 73.3311 93.8004 73.0215 93.5596 73.0731ZM91.7553 66.7624C92.168 66.5734 92.0478 65.5417 91.5663 65.6448C90.6894 65.7822 91.0846 67.1578 91.7553 66.7624ZM88.9695 68.5674C88.9007 68.4814 88.8147 68.5501 88.7287 68.6189C88.7287 68.6189 88.7975 68.7049 88.8663 68.7909C88.9522 68.7221 89.021 68.8081 89.107 68.7393C89.1242 68.5846 89.0554 68.4986 88.9695 68.5674ZM54.9959 52.8804C54.9101 52.2442 53.5001 52.244 53.586 52.8802C53.5514 53.8947 55.0646 53.6714 54.9959 52.8804ZM84.2788 48.0709C84.4336 48.0881 84.5883 48.1053 84.6055 47.9506C84.6915 47.8818 84.554 47.7098 84.554 47.7098C84.3992 47.6926 84.1757 47.5894 84.1585 47.7442C83.9693 48.0364 84.1928 48.1396 84.2788 48.0709ZM100.73 74.1059C100.798 74.1919 101.022 74.2951 101.177 74.3123C101.331 74.3296 101.434 74.106 101.434 74.106C101.383 73.8653 101.263 73.5386 101.125 73.3666C101.005 73.0399 100.42 72.6615 100.214 73.1086C100.179 73.4181 100.609 73.7792 100.73 74.1059ZM88.2673 51.648C88.3533 51.5792 88.3018 51.3385 88.233 51.2525C88.1642 51.1665 88.0782 51.2353 87.9922 51.304C87.9063 51.3728 88.0438 51.5448 88.0266 51.6995C88.0266 51.6995 88.1813 51.7167 88.2673 51.648ZM86.2386 50.1689C86.2729 50.5644 86.7715 51.0115 87.167 50.9772C87.253 50.9084 87.3389 50.8397 87.3389 50.8397C87.3046 50.4442 86.892 49.9283 86.4966 49.9626C86.4278 49.8766 86.2558 50.0142 86.2386 50.1689ZM83.5909 48.621C83.6597 48.707 83.8144 48.7242 83.9004 48.6554C83.9864 48.5867 84.0896 48.3632 83.9349 48.3459C83.8661 48.2599 83.6941 48.3975 83.6081 48.4662C83.5222 48.535 83.5909 48.621 83.5909 48.621ZM99.4403 71.6125C99.0793 71.3373 99.0966 70.4776 98.5464 70.4947C97.446 70.5289 98.6494 71.6812 98.9932 72.1111C99.5605 72.6442 100.867 72.8679 100.73 71.991C100.782 71.5268 99.8014 71.8877 99.4403 71.6125ZM111.855 71.9757C111.872 71.8209 111.734 71.6489 111.58 71.6317C111.115 71.5801 110.685 71.9239 110.874 72.3366C111.15 72.6805 111.734 72.3539 111.855 71.9757ZM107.832 67.2981C107.832 67.2981 107.883 67.5389 107.969 67.4701C108.038 67.5561 108.262 67.6593 108.365 67.4358C108.468 67.2123 108.176 67.0231 108.09 67.0918C108.09 67.0918 107.918 67.2294 107.832 67.2981ZM107.299 67.1605C107.918 67.2294 107.952 66.2149 107.402 66.232C107.007 66.2663 106.921 67.0401 107.299 67.1605ZM107.557 68.3641C107.453 68.5876 107.505 68.8284 107.728 68.9316C107.797 69.0176 107.883 68.9488 107.969 68.88C108.072 68.6565 108.021 68.4158 107.797 68.3126C107.797 68.3126 107.643 68.2954 107.557 68.3641ZM110.015 70.9093C110.17 70.9265 110.41 70.875 110.496 70.8062C110.582 70.7375 110.531 70.4967 110.307 70.3935C110.153 70.3763 109.981 70.5138 109.895 70.5826L110.015 70.9093ZM116.651 80.2642C117.201 80.2471 116.479 78.9918 116.186 79.5075C115.997 79.7998 116.341 80.2297 116.651 80.2642ZM115.705 78.9056C115.258 78.6992 114.828 78.3381 114.364 78.2864C113.9 78.2348 113.676 78.8365 113.882 79.0945C114.226 79.5244 115.069 79.6965 115.499 79.3527C115.585 79.2839 115.705 78.9056 115.705 78.9056ZM115.602 77.0142C115.189 77.2033 114.691 78.1661 115.55 78.1835C115.86 78.2179 116.359 77.9601 116.324 77.5646C116.359 77.2551 116.015 76.8252 115.602 77.0142ZM113.573 77.6501C113.694 77.2718 112.834 77.2545 112.782 77.0138C112.696 76.3776 112.335 76.1024 111.906 75.7412C111.39 75.4489 111.184 74.4859 110.53 74.7265C110.032 74.9844 110.496 75.741 110.238 75.9473C110.066 76.0848 109.739 76.2051 109.516 76.1019C109.017 75.6548 109.499 74.8467 109.327 74.2793C109.344 74.1245 109.292 73.8838 109.052 73.9354C108.811 73.9869 109.103 74.8811 108.639 74.8294C108.175 74.7777 108.329 74.09 108.329 74.09C108.691 73.6602 108.33 73.385 108.192 73.2131C107.831 72.9379 107.281 72.955 107.023 72.4563C106.473 71.7684 105.854 70.2896 105.476 70.8742C105.097 71.4587 105.716 72.2326 105.252 72.1809C102.432 72.1804 104.289 73.797 103.979 74.4675C103.962 74.6223 103.928 74.9318 103.996 75.0178C104.065 75.1037 104.443 75.2242 104.529 75.1554C104.89 74.7256 105.681 74.657 105.836 73.9692C106.06 73.3675 106.731 72.9721 106.971 73.6255C107.418 74.5369 107.831 75.0528 108.209 75.8782C108.793 76.9615 109.756 77.4603 110.667 78.4234C111.166 78.8705 111.853 79.0254 112.18 79.61C112.318 79.782 112.524 80.0399 112.765 79.9884C113.16 79.9541 112.833 79.3694 112.954 78.9912C113.006 78.5269 112.559 78.3205 112.765 77.8735C113.109 77.5984 113.625 77.8908 113.573 77.6501ZM99.6296 70.6153C99.578 71.0795 100.352 71.8706 100.73 71.286C101.366 70.4952 99.8017 69.7728 99.6296 70.6153ZM110.479 73.0759C110.324 73.0587 110.307 73.2134 110.376 73.2994C110.513 73.4714 110.565 73.7121 110.72 73.7293C110.874 73.7465 110.891 73.5918 110.891 73.5918C110.926 73.2823 110.72 73.0243 110.479 73.0759ZM99.4582 67.9329C99.183 68.294 99.8878 68.999 100.249 68.5692C100.524 68.2082 99.8193 67.5031 99.4582 67.9329ZM82.8862 47.2109C82.8518 47.5204 83.4363 47.8988 83.7802 47.6237C84.2274 47.1252 82.9206 46.9014 82.8862 47.2109ZM96.5189 61.966C96.8284 62.0004 97.0176 61.7081 97.2583 61.6566C97.9633 61.6567 98.5305 62.8948 99.1324 62.4135C99.6483 62.0009 98.4447 61.5536 97.9977 61.3472C97.4132 60.9688 96.7943 60.195 96.1409 60.4356C95.5562 60.7622 96.1234 62.0003 96.5189 61.966ZM101.056 75.3956C101.194 75.5675 101.658 75.6192 101.761 75.3957C101.985 74.7939 100.918 75.2236 101.056 75.3956ZM105.801 76.3936C106.128 76.2733 106.558 77.3394 106.919 76.9096C107.194 76.5486 106.678 76.2562 106.524 76.239C106.231 76.0498 106.008 75.9466 105.698 75.9122C105.303 75.9465 104.89 76.1355 104.512 76.0151C104.134 75.8947 103.79 75.4648 103.429 75.1896C102.913 74.8972 102.518 74.2266 101.881 74.3124C101.727 74.2952 101.469 74.5015 101.52 74.7422C101.623 75.2237 102.174 75.2066 102.535 75.4818C102.896 75.7569 103.412 76.0493 103.773 76.3245C104.202 76.6857 104.546 77.1156 105.165 77.1845C105.32 77.2017 105.44 77.5284 105.664 77.6316C105.801 77.8036 106.008 78.0615 106.248 78.01C106.902 77.7694 105.148 76.6342 105.801 76.3936ZM117.39 79.9548C117.545 79.972 117.631 79.9032 117.717 79.8345C117.717 79.8345 117.82 79.611 117.596 79.5078C117.442 79.4905 117.27 79.6281 117.184 79.6968C117.252 79.7828 117.39 79.9548 117.39 79.9548ZM95.5203 70.2363C95.5375 70.0816 94.7639 69.2905 94.953 68.9982C95.039 68.9295 95.125 68.8607 95.1938 68.9467C95.7268 69.0843 96.2081 69.6862 96.6379 70.0474C96.9817 70.4773 98.2197 70.615 97.9789 71.3716C97.9444 71.681 97.4286 71.3887 97.3427 71.4574C97.2567 71.5262 97.3254 71.6122 97.3254 71.6122C97.738 72.1281 98.2366 72.5752 98.8211 72.9536C99.612 73.5899 100.781 75.7566 102.397 76.7198C102.981 77.0981 106.248 78.01 106.248 78.01C106.627 78.1304 106.97 77.8553 107.177 78.1133C107.675 78.5604 107.658 79.4201 108.569 79.6782C108.793 79.7814 108.999 80.0394 108.982 80.1941C109.068 80.8303 109.429 81.1055 109.859 81.4666C110.151 81.6558 110.426 81.9998 110.632 82.2577C110.701 82.3437 110.684 82.4984 110.838 82.5157C112.008 82.5674 112.334 83.8571 113.228 84.2699C113.967 84.6655 113.795 85.508 114.122 86.0926C114.173 86.3334 114.294 87.3651 113.657 87.4509C113.021 87.5368 113.314 86.316 112.85 86.2644C111.835 86.2298 111.508 85.6452 110.993 86.0577C110.735 86.264 110.975 86.9175 110.58 86.9518C110.253 87.0721 109.651 86.8484 109.617 86.453C109.497 86.1263 110.047 86.1092 110.081 85.7997C110.099 85.6449 109.944 85.6277 109.875 85.5417C109.669 85.2838 109.445 85.1806 109.239 84.9226C108.465 84.1315 109.084 84.2004 109.583 83.2376C109.876 82.7218 109.016 81.9995 108.5 82.4121C108.242 82.6184 108.827 82.9968 108.655 83.1343C108.173 83.9424 105.474 82.8587 106.471 81.638C106.832 81.2082 107.468 82.5323 107.984 82.1197C108.586 81.6384 107.503 80.8129 106.815 80.658C106.437 80.5376 106.145 80.3484 106.11 79.9529C106.093 79.4027 105.715 79.2823 105.337 79.1618C104.804 79.0242 104.064 78.6286 103.635 78.9724C103.359 79.3335 103.927 79.8666 103.806 80.2448C103.703 80.4683 101.915 78.9377 102.5 78.6112C102.672 78.4736 103.084 78.9895 103.274 78.6973C103.531 78.491 103.256 78.147 103.119 77.9751C102.483 77.356 101.829 76.8916 101.176 76.4272C101.107 76.3413 100.592 76.0489 100.402 76.3411C100.196 76.7882 101.056 76.8055 101.176 77.1322L101.159 77.287C100.66 77.5448 99.9209 77.1492 99.3879 77.0116C99.0096 76.8911 98.6829 77.0114 98.3562 77.1317C97.6168 77.4411 96.6711 77.4925 96.035 76.8734C95.4677 76.3403 94.1609 76.1166 94.333 75.2741C94.3503 74.4144 95.485 75.4806 95.8632 75.601C96.3962 75.7387 97.0151 76.5125 97.3763 76.0827C97.5482 75.9452 97.1012 75.7388 97.1184 75.584C97.1873 74.965 98.5285 74.8793 98.4426 74.2431C98.4083 73.8476 97.9441 73.796 97.7206 73.6928C97.2048 73.4004 96.8437 73.1252 96.5171 72.5405C96.3968 72.2138 96.0186 72.0934 95.7951 71.9902C94.9526 71.8181 95.5545 71.3368 95.5203 70.2363ZM110.649 84.9228C110.529 84.5961 110.013 84.3037 109.686 84.424C109.6 84.4928 109.514 84.5616 109.583 84.6476C109.703 84.9743 110.219 85.2667 110.546 85.1464C110.614 85.2323 110.632 85.0776 110.649 84.9228ZM119.075 81.0039C119.144 81.0899 119.384 81.0384 119.401 80.8836C119.487 80.8149 119.522 80.5054 119.367 80.4881C119.144 80.3849 119.04 80.6084 118.954 80.6772C118.937 80.832 118.92 80.9867 119.075 81.0039ZM118.903 77.6166C119.23 77.4963 119.041 77.0836 119.058 76.9289C118.955 76.4474 118.783 75.8799 118.319 75.8283C118.01 75.7938 117.786 76.3956 117.752 76.7051C118.009 77.2038 118.491 77.8057 118.903 77.6166ZM120.09 78.2186C120.09 78.2186 120.141 78.4593 120.21 78.5453C120.365 78.5625 120.588 78.6657 120.606 78.511C120.691 78.4422 120.657 78.0467 120.434 77.9435C120.365 77.8576 120.262 78.0811 120.09 78.2186Z" fill="currentColor"/>
</svg>
