<svg width="165" height="159" viewBox="0 0 165 159" fill="none" xmlns="http://www.w3.org/2000/svg">
<path d="M45.4866 99.1364C45.3997 99.1364 45.3997 99.1364 45.3127 99.0491C45.3997 98.9618 45.3997 99.0491 45.4866 99.1364ZM87.1337 120.865C87.8292 121.214 88.0031 119.993 87.8292 119.469C87.8292 119.295 87.3076 119.382 87.2206 119.12C87.1337 119.644 86.525 120.516 87.1337 120.865ZM17.9248 65.6266C18.0117 65.5394 18.0117 65.4521 17.9248 65.2776C17.8378 65.3648 17.8378 65.4521 17.9248 65.6266C17.8378 65.5394 17.8378 65.5394 17.9248 65.6266C17.9248 65.5394 17.9248 65.6266 17.9248 65.6266ZM44.4432 97.7401C43.7477 98.1764 45.0519 98.4382 45.3127 98.9618C45.3127 98.4382 45.0519 97.3038 44.4432 97.7401ZM18.0986 64.5795C18.0117 64.4922 17.8378 64.4922 17.7509 64.5795C17.577 64.754 17.8378 65.0158 17.9248 65.2776C18.0117 65.0158 18.1856 64.754 18.0986 64.5795ZM50.7034 99.2236C50.7034 99.1363 50.7034 99.1364 50.7034 99.0491C50.7034 99.1364 50.6164 99.1363 50.7034 99.2236C50.7034 99.1363 50.7034 99.2236 50.7034 99.2236ZM17.9248 65.6266C17.9248 65.6266 17.9248 65.5394 17.9248 65.6266C17.8378 65.6266 17.7509 65.8012 17.7509 65.8884C17.7509 65.8012 17.8378 65.7139 17.9248 65.6266ZM45.3127 98.9618C45.3127 99.0491 45.3127 98.9618 45.3127 98.9618V98.9618ZM81.6561 122C81.743 122.174 81.743 122.523 82.0039 122.523C82.0908 122.523 82.2647 122.436 82.2647 122.349C82.3516 122.174 82.1778 121.825 81.9169 121.738C81.743 121.825 81.5691 122 81.6561 122ZM55.9201 103.325C55.7462 103.325 55.6593 103.5 55.6593 103.5C56.007 104.634 55.4854 105.594 55.0506 106.641C54.9637 106.903 55.1376 107.339 55.1376 107.427C55.0506 107.863 54.6159 108.125 54.6159 108.212C54.7898 108.735 55.2245 109.608 55.8332 109.434C56.007 109.346 56.007 109.172 56.007 109.172C55.9201 107.863 55.8332 106.641 56.2679 105.419C56.5287 104.634 56.6157 103.5 55.9201 103.325ZM51.225 103.674C51.312 103.674 51.3989 103.5 51.3989 103.5C51.312 103.412 51.312 103.238 51.1381 103.238C51.0511 103.238 51.0511 103.412 51.0511 103.412C51.0511 103.5 51.1381 103.674 51.225 103.674ZM50.7034 99.2236C50.5295 99.3981 50.7034 99.6599 50.9642 99.8345C50.8772 99.6599 50.7903 99.3981 50.7034 99.2236ZM52.7901 97.5656C52.877 97.5656 53.0509 97.3038 52.9639 97.3038C52.3553 96.5184 52.5292 95.5585 52.3553 94.6858C52.3553 94.5986 52.3553 94.2495 52.0945 94.2495C50.0078 94.5113 51.225 97.9146 52.7901 97.5656ZM51.0511 105.856C51.0511 105.768 50.9642 105.681 50.8772 105.681C50.8772 105.768 50.9642 105.856 51.0511 105.856C51.0511 105.943 51.225 105.943 51.312 105.943C51.225 105.943 51.1381 105.856 51.0511 105.856ZM51.312 105.943C51.6598 106.118 52.0075 106.379 51.8336 105.943C51.7467 105.768 51.4859 105.943 51.312 105.943ZM53.1378 98.8745C53.8334 98.4382 52.1814 97.4783 52.0075 98.1764C51.8336 98.7 52.7031 99.1363 53.1378 98.8745ZM68.7011 112.924C68.0925 112.488 67.7447 113.622 67.6578 114.146C67.5708 114.669 67.5708 115.193 67.5708 115.717C67.5708 116.153 66.8753 117.113 67.6578 117.113C68.1795 117.113 68.7011 116.851 68.962 116.24C69.3967 115.28 69.6575 113.622 68.7011 112.924ZM68.875 111.353C68.962 110.743 68.5273 109.783 67.9186 109.695C67.397 109.608 67.1361 110.132 66.9622 110.394C66.8753 110.481 66.8753 110.568 66.9622 110.655C67.4839 111.179 68.0056 111.528 68.7011 111.615C68.7881 111.528 68.875 111.441 68.875 111.353ZM61.8324 112.313C62.0933 112.139 61.8324 111.79 61.7455 111.528C61.5716 111.964 61.2238 112.662 61.8324 112.313ZM68.7881 117.549C68.1795 118.247 70.2662 119.731 70.7009 118.684C71.1356 117.898 69.3098 117.026 68.7881 117.549ZM62.1802 108.735C61.8324 108.474 61.6585 107.863 61.1369 107.688C60.7891 107.601 60.3543 108.561 60.0066 108.125C59.311 107.427 61.8324 105.943 60.7021 105.594C60.4413 105.507 60.1804 106.118 59.9196 106.03C58.3546 105.681 57.4851 104.547 57.9199 105.943C58.0068 106.205 58.6154 105.856 58.7024 106.205C59.0502 107.339 58.0068 107.95 58.9632 108.648C59.224 108.823 59.224 109.346 59.3979 109.695C59.4849 109.957 59.3979 110.394 59.5718 110.481C60.0935 110.83 60.7021 109.608 61.3107 109.87C61.6585 110.044 61.9194 110.568 61.8324 110.917C62.0063 110.83 62.2672 110.743 62.441 110.83C62.7888 110.917 62.441 111.964 62.9627 111.877C64.7886 111.877 63.2236 109.521 62.1802 108.735ZM61.7455 111.266C61.6585 111.353 61.6585 111.441 61.7455 111.528C61.7455 111.441 61.7455 111.353 61.7455 111.266C61.8324 111.266 61.9194 111.179 61.9194 111.092C61.7455 111.092 61.7455 111.179 61.7455 111.266ZM41.9218 93.2023C41.8349 93.0278 41.574 93.1151 41.4001 93.1151C41.3132 93.1151 41.2262 93.2896 41.2262 93.3769C41.3132 93.5514 41.4871 93.5514 41.661 93.5514C41.7479 93.6386 42.0088 93.4641 41.9218 93.2023ZM35.5748 86.5702C35.4009 86.6575 34.9661 86.832 35.0531 87.1811C35.14 87.4429 35.4878 87.4429 35.4878 87.4429C35.6617 87.3556 36.0095 87.1811 36.0095 86.9193C36.0095 86.6575 35.5748 86.4829 35.5748 86.5702ZM102.436 98.0019C103.132 97.7401 102.001 96.4311 101.654 97.042C101.48 97.4783 102.001 98.0892 102.436 98.0019ZM33.8359 88.7518C33.3142 88.9264 34.3575 90.1481 34.5314 89.45C34.6184 89.1882 34.1836 88.5773 33.8359 88.7518ZM24.7935 72.4333C24.7065 72.346 24.5326 72.346 24.4457 72.4333C24.2718 72.6951 24.3588 73.1314 24.5326 73.2187C24.6196 73.306 24.7935 73.2187 24.8804 73.2187C25.0543 73.0442 24.9674 72.6078 24.7935 72.4333ZM49.3992 101.58C49.3122 101.318 48.9644 101.492 48.7905 101.58C48.7036 101.667 48.5297 101.754 48.5297 101.929C48.5297 102.103 48.7905 102.103 48.8775 102.103C49.0514 102.191 49.66 102.103 49.3992 101.58ZM107.479 94.9476C107.566 94.9476 107.566 94.7731 107.479 94.7731C107.392 94.6858 107.218 94.6858 107.131 94.7731C107.131 94.7731 107.131 94.8604 107.131 94.9476C107.218 95.0349 107.392 95.0349 107.479 94.9476ZM105.827 93.9877C105.914 93.9877 106.088 93.8132 106.001 93.7259C106.001 93.6387 105.827 93.6387 105.74 93.6387C105.74 93.6387 105.653 93.7259 105.653 93.8132C105.74 93.8132 105.74 93.9877 105.827 93.9877ZM41.8349 95.4712C41.7479 95.4712 41.661 95.6457 41.7479 95.733C41.7479 95.8203 41.8349 95.8203 41.9218 95.8203C42.0088 95.8203 42.0088 95.6458 42.0088 95.6458C41.9218 95.5585 41.9218 95.4712 41.8349 95.4712ZM70.0053 114.669C69.1359 114.582 70.0923 115.368 70.3531 115.804C70.4401 115.455 70.527 114.757 70.0053 114.669ZM36.2703 89.45C35.7487 89.2754 35.8356 90.7589 36.4442 90.3226C36.7051 90.0608 36.5312 89.5372 36.2703 89.45ZM40.2698 93.9005C40.1829 93.9005 39.9221 94.075 40.009 94.3368C40.096 94.5986 40.4437 94.5113 40.6176 94.5113L40.7915 94.1622C40.6176 93.9877 40.4437 93.9005 40.2698 93.9005ZM37.9223 92.0679C37.8354 92.5042 38.1831 93.2896 38.6179 92.9405C39.0526 92.5915 39.2265 91.8061 38.8787 91.3698C38.5309 90.8462 38.0093 91.7188 37.9223 92.0679ZM50.7034 104.983C50.2686 105.158 50.6164 105.245 50.8772 105.594C50.8772 105.332 51.0511 104.896 50.7034 104.983ZM83.3081 119.382C83.3081 119.295 83.1342 119.12 83.0472 119.207C82.9603 119.207 82.9603 119.382 82.9603 119.382C82.9603 119.469 83.0472 119.556 83.1342 119.556C83.1342 119.556 83.3081 119.469 83.3081 119.382ZM85.3078 125.054C85.3948 124.443 85.9164 123.221 85.047 123.134C84.0036 123.047 84.8731 124.53 84.6992 125.229C84.96 125.229 85.3078 125.229 85.3078 125.054ZM84.5253 125.49C84.1775 125.141 83.395 124.618 83.1342 125.229C82.8733 126.014 83.8297 125.578 84.4383 125.752C84.4383 125.665 84.4383 125.578 84.5253 125.49ZM84.5253 125.49C84.5253 125.578 84.5253 125.578 84.5253 125.49C84.6992 125.49 84.6992 125.403 84.7861 125.229C84.6122 125.316 84.5253 125.403 84.5253 125.49C84.5253 125.49 84.5253 125.578 84.5253 125.49C84.6122 125.578 84.5253 125.49 84.5253 125.49ZM81.4822 118.335C81.3952 118.335 81.3083 118.509 81.3083 118.596C81.3083 118.684 81.3952 118.858 81.5691 118.858C81.743 118.858 81.743 118.596 81.743 118.509C81.743 118.422 81.6561 118.335 81.4822 118.335ZM87.3076 119.207C87.3076 119.12 87.3076 119.12 87.3076 119.207C87.3076 119.12 87.3076 119.12 87.3076 119.207C87.3076 119.12 87.3076 119.12 87.3076 119.207C87.2206 118.945 87.0467 118.858 86.7859 118.858C86.8728 118.945 87.0467 119.12 87.3076 119.207ZM49.3992 100.62C49.0514 101.143 49.7469 101.929 50.3556 101.929C50.8772 101.929 50.7903 101.143 51.0511 101.143C50.5295 100.882 49.8339 100.009 49.3992 100.62ZM51.0511 101.143C51.1381 101.056 51.225 100.969 51.225 100.882C51.1381 100.882 51.1381 100.969 51.0511 101.143ZM51.225 100.882C51.4859 100.707 51.6598 100.794 51.4859 100.445C51.3989 100.271 51.1381 100.009 50.8772 99.8345C51.1381 100.271 51.312 100.533 51.225 100.882ZM85.1339 126.188C85.3947 126.363 85.6556 126.799 85.5686 126.276C85.5686 126.188 85.3078 126.188 85.1339 126.188ZM70.3531 115.891C70.3531 115.978 70.3531 115.978 70.4401 115.978C70.4401 115.978 70.4401 115.891 70.3531 115.891ZM81.9169 123.745C81.1344 123.396 80.178 122.174 79.4824 122.698C78.3521 123.483 80.6127 124.269 81.4822 124.705C81.9169 124.967 82.2647 124.967 82.4386 124.443C82.4386 124.269 82.1778 123.832 81.9169 123.745ZM84.5253 125.752C84.6122 125.927 84.7861 126.101 84.96 126.101C84.96 126.188 85.1339 126.188 85.2209 126.188C85.1339 126.101 85.047 126.101 85.047 126.101C84.8731 125.927 84.6992 125.839 84.5253 125.752ZM78.3521 119.469C78.0044 119.905 78.1782 120.953 78.6999 121.04C80.0041 121.214 78.9608 118.771 78.3521 119.469ZM72.6137 117.026C71.8312 117.549 72.6137 118.771 73.3962 118.422C73.9179 118.073 73.2223 116.589 72.6137 117.026ZM74.4396 116.153C75.2221 115.891 75.2221 114.32 74.6135 113.971C73.3093 113.361 73.0484 116.589 74.4396 116.153ZM72.179 113.011C71.8312 112.575 70.8748 111.441 70.614 112.313C70.3531 113.273 70.614 115.28 71.9181 114.669C72.4398 114.408 72.5268 113.535 72.179 113.011ZM73.9179 112.401C74.2657 112.226 74.5265 111.441 74.0048 111.179C73.0484 110.83 73.2223 112.662 73.9179 112.401ZM70.4401 115.978C70.4401 116.24 69.6575 116.677 69.9184 117.026C70.2662 117.549 70.8748 116.764 71.0487 116.328C71.1356 115.804 70.7878 116.24 70.4401 115.978ZM72.2659 119.469C72.092 119.556 72.092 119.818 72.092 119.818C72.179 119.905 72.3529 119.993 72.5268 119.993L72.7007 119.731C72.6137 119.644 72.5268 119.382 72.2659 119.469ZM79.5694 115.455C80.0041 115.193 79.4824 114.408 79.6563 114.059C80.2649 112.924 80.6127 111.266 79.4824 110.743C78.1782 110.132 78.8738 112.662 78.613 113.535C78.3521 114.233 78.6999 115.978 79.5694 115.455ZM74.2657 119.382C74.1787 119.382 74.0048 119.556 74.0048 119.556C74.0918 119.993 74.1787 120.516 74.2657 120.865C74.4396 121.214 74.9612 121.825 75.2221 121.302C75.4829 120.778 74.8743 120.08 74.6135 119.556C74.7004 119.469 74.4396 119.469 74.2657 119.382ZM79.5694 120.603C79.5694 120.691 79.7433 120.778 79.9172 120.691C80.178 120.603 80.4388 120.167 80.3519 119.818C80.3519 119.731 80.178 119.644 80.0911 119.731C79.7433 119.818 79.4824 120.254 79.5694 120.603ZM78.613 118.509C78.7869 118.422 79.0477 118.073 79.0477 117.811C78.9608 117.2 79.3955 116.153 78.6999 115.804C78.2652 115.542 77.4827 115.804 77.3088 116.328C77.1349 117.026 78.1782 117.2 78.0043 117.811C77.9174 118.335 78.2652 118.596 78.613 118.509ZM77.3957 118.422C77.3088 118.335 77.048 118.422 77.048 118.596C76.961 118.858 77.2218 119.207 77.4827 119.207C77.5696 119.207 77.6566 119.207 77.6566 119.12C77.7435 118.858 77.5696 118.509 77.3957 118.422ZM49.4861 104.023C49.3992 104.023 49.3992 104.285 49.3992 104.285C49.5731 104.372 49.7469 104.634 49.9208 104.547C50.0078 104.547 50.0078 104.46 50.0078 104.372C50.0078 104.11 49.66 103.936 49.4861 104.023ZM134.432 145.387C133.737 145.561 133.041 145.823 132.346 146.085C132.085 146.172 131.476 146.521 131.824 146.696C132.693 147.394 133.911 145.91 134.867 145.648C135.91 145.299 134.693 145.299 134.432 145.387ZM124.433 148.441C124.346 148.528 124.173 148.528 124.173 148.703C124.173 148.79 124.26 148.877 124.26 148.877C124.433 148.877 124.781 148.703 124.781 148.528C124.781 148.266 124.52 148.354 124.433 148.441ZM123.129 148.354C123.129 148.354 123.129 148.266 123.129 148.179C123.042 148.092 122.781 148.179 122.781 148.266C122.781 148.354 122.781 148.441 122.868 148.441C122.868 148.616 123.042 148.528 123.129 148.354ZM122.608 149.663C122.868 149.75 123.303 149.488 123.216 149.226C123.216 148.616 122.086 149.314 122.608 149.663ZM127.303 147.568C127.303 147.481 127.303 147.394 127.216 147.307C126.781 147.132 125.39 147.394 125.912 148.005C126.259 148.528 127.042 148.005 127.303 147.568ZM128.346 147.743V147.83C128.52 147.917 128.694 147.83 128.781 147.743C128.781 147.656 128.781 147.568 128.694 147.568C128.607 147.481 128.346 147.568 128.346 147.743ZM126.694 148.354C126.694 148.441 126.694 148.528 126.781 148.528C127.042 148.615 127.39 148.528 127.563 148.266C127.563 148.179 127.563 148.005 127.477 148.005C127.216 147.83 126.868 148.092 126.694 148.354ZM132.172 145.299C131.476 145.387 128.868 146.608 128.172 146.783C128.085 146.783 127.911 146.957 127.998 147.045C128.433 148.005 132.954 145.212 132.172 145.299ZM118.956 151.059C118.956 151.146 118.956 151.233 119.043 151.321C119.13 151.408 119.391 151.233 119.391 151.146C119.391 151.059 119.391 150.972 119.304 150.972C119.217 150.884 118.956 150.972 118.956 151.059ZM108.783 154.288C108.783 154.375 108.783 154.375 108.87 154.375C108.957 154.375 109.131 154.2 109.131 154.113C109.131 154.113 109.131 154.026 109.044 154.026C108.87 154.026 108.783 154.2 108.783 154.288ZM98.5236 149.837C98.5236 149.75 98.4366 149.663 98.3497 149.663C98.2627 149.663 98.2627 149.837 98.2627 149.924C98.2627 149.924 98.2627 150.099 98.3497 150.099C98.4366 150.012 98.5236 149.924 98.5236 149.837ZM106.262 152.368C106.088 152.368 106.088 152.63 106.001 152.717L106.088 152.804C106.175 152.717 106.436 152.63 106.436 152.455C106.523 152.455 106.349 152.368 106.262 152.368ZM101.48 148.615C101.567 148.354 101.567 148.005 101.306 147.83C100.784 147.568 100.262 148.79 100.697 149.052C101.045 149.226 101.306 148.79 101.48 148.615ZM110.87 151.67C111.392 151.757 111.826 150.623 111.392 150.361C110.87 149.837 110 151.583 110.87 151.67ZM112.087 152.106C112.087 152.193 112.087 152.281 112.087 152.281C112.261 152.542 112.87 152.804 113.13 152.455C113.391 152.193 112.261 151.844 112.087 152.106ZM108.348 150.884C107.827 151.233 106.783 152.193 106.87 152.455C107.392 153.59 109.566 151.932 109.827 150.884C109.566 150.535 108.696 150.623 108.348 150.884ZM107.74 150.186C107.131 150.099 106.349 150.884 106.436 151.408C106.61 151.67 108.435 150.361 107.74 150.186ZM105.827 145.212C105.305 145.125 104.61 145.736 104.523 146.259C104.523 146.347 104.61 146.434 104.697 146.434C105.218 146.521 106.001 145.998 106.088 145.387C106.001 145.387 105.914 145.212 105.827 145.212ZM105.479 146.87C106.175 147.481 107.131 145.299 106.87 145.474C106.436 145.736 106.088 145.998 105.74 146.259C105.653 146.347 105.218 146.608 105.479 146.87ZM153.734 139.627C153.126 139.802 153.299 138.493 152.604 138.755C152.256 138.842 152.43 138.929 151.995 139.191C151.474 139.453 151.387 139.191 150.604 139.191C150.082 139.191 149.561 139.278 149.561 139.714C149.561 139.889 149.822 139.802 149.909 139.889C150.082 139.976 150.691 140.238 150.517 139.889C150.43 139.627 149.996 139.889 149.996 139.714C149.909 139.453 150.43 139.453 150.691 139.453C151.039 139.365 151.387 139.54 151.474 139.714C151.561 139.889 151.647 139.627 151.908 139.54C152.169 139.453 152.691 139.714 152.604 139.889L152.517 140.064C151.3 139.627 149.996 140.674 148.778 140.936C147.387 141.285 145.996 141.46 144.605 141.896C142.866 142.332 141.127 142.856 139.388 143.38C139.127 143.467 138.606 143.467 138.693 143.816C138.779 143.99 138.953 143.903 139.127 143.903C140.518 143.554 141.997 143.118 143.388 142.769C143.735 142.682 145.3 142.682 143.648 143.205C140.953 144.078 137.91 144.863 135.215 145.561C135.128 145.561 135.302 145.038 135.563 144.95C136.258 144.689 137.736 144.863 137.649 144.165C137.562 143.292 136.171 144.514 135.476 144.689C134.693 144.95 132.259 145.561 133.911 144.689C134.171 144.514 134.78 144.689 134.867 144.34C135.041 143.903 134.345 143.99 134.084 144.165C133.563 144.427 133.041 144.601 132.346 144.514C131.911 144.427 131.389 144.776 130.954 145.038C130.433 145.474 129.911 145.736 129.215 145.823C128.955 145.823 128.781 145.998 128.52 146.085C127.998 146.259 127.65 146.696 126.955 146.608C126.433 146.521 125.825 146.87 125.216 147.045C125.129 147.045 125.129 147.132 125.042 147.132C123.129 147.219 121.564 148.354 119.825 149.139C118.869 149.488 117.999 150.099 117.043 150.361C116.261 150.623 115.652 150.972 115.043 151.408C114.695 151.583 114.348 151.67 114 151.932C113.217 152.542 112.522 152.106 114.609 150.884C114.869 150.71 115.13 150.535 115.304 150.274C115.478 150.012 115.652 149.75 116.087 149.75C116.521 149.75 117.478 148.965 116.695 148.528C116.261 148.266 115.739 148.965 115.304 149.226C115.13 149.314 114.956 149.488 114.869 149.401C114.435 149.226 114.174 149.488 114 149.75C113.739 150.186 113.391 150.361 112.87 150.448C112.522 150.535 112 151.146 111.652 150.797C111.305 150.448 112.174 149.837 111.826 149.488C111.392 149.139 110.783 149.75 110.348 150.186C110.174 150.361 110.087 150.012 110 149.663C109.827 149.226 109.653 149.837 108.957 149.75C108.609 149.663 108.435 150.797 108.001 150.623C107.479 150.361 107.914 149.663 108.088 149.314C108.262 149.052 108.609 149.139 108.696 148.79C108.696 148.703 108.696 148.615 108.609 148.528C108.348 148.441 108.175 148.965 107.914 149.052C107.827 149.052 107.74 149.052 107.653 149.052C106.783 149.575 106.001 150.099 105.131 150.623C104.262 151.146 102.871 152.281 102.697 152.106C102.697 152.106 102.262 152.019 102.784 151.495C103.306 150.884 104.088 150.448 104.784 149.924C105.218 149.575 105.827 149.314 106.262 148.877C106.61 148.616 107.653 148.354 107.131 148.092C106.783 147.917 106.523 148.266 106.088 148.615C106.001 148.703 105.827 148.877 105.74 148.965C104.784 149.575 103.914 150.186 103.045 150.797C102.61 151.059 102.436 151.67 102.088 151.321C101.567 150.71 103.74 150.535 103.393 149.75C103.306 149.488 103.045 149.837 102.958 149.75C102.697 149.401 103.393 149.314 103.74 149.314C104.349 149.488 104.784 148.965 105.218 148.703C105.305 148.615 105.392 148.266 105.392 148.092C105.218 147.656 105.392 147.307 105.827 147.132C107.653 145.998 107.392 144.776 107.74 144.514C108.088 144.252 108.435 143.99 108.87 143.729C109.653 143.205 110.348 142.594 111.131 142.158C111.392 141.983 111.913 142.071 112.261 141.722C112.435 141.547 112.87 141.023 112.696 140.587C112.435 139.976 112 140.849 111.652 141.023C111.305 141.198 111.044 141.722 110.696 141.722C110.609 141.722 110.522 141.634 110.522 141.547C110.522 141.198 111.218 140.849 111.218 140.849C110.87 140.238 112.435 140.064 113.044 139.714C113.478 139.453 113.826 139.104 113.304 138.842C113.13 138.755 112.957 139.278 112.783 139.104C112.522 138.929 113.044 138.58 113.044 138.318V138.231C112.087 137.533 113.044 137.446 113.391 137.271C114.087 136.747 114.869 136.224 115.217 135.351C115.304 135.264 115.391 134.915 115.652 135.002C116.174 135.177 115.652 136.049 115.913 136.224C116.521 136.573 116.087 135.526 117.13 135.264C117.304 135.177 117.565 135.089 117.739 134.915C117.652 134.915 117.565 134.915 117.478 134.915C116.869 134.915 116.261 134.915 115.652 134.828C115.13 134.74 115.304 135.177 114.696 135.438C114.522 135.526 114.348 135.526 114.261 135.438C114.261 135.438 114.174 135.439 114.174 135.526C113.565 135.962 112.957 137.358 112.174 136.922C112 136.835 112.087 136.486 112.174 136.398C112.609 135.962 112.87 135.439 113.304 134.915C113.13 134.828 112.957 134.828 112.783 134.828C112.174 135.002 111.479 134.479 110.87 134.217C110.261 133.955 109.74 133.082 109.044 133.344C108.783 133.431 109.044 134.304 108.609 134.479C108.262 134.74 107.653 134.479 107.305 134.304C106.696 133.78 106.696 132.908 106.349 132.297C106.175 132.035 106.001 131.599 105.566 131.861C105.131 132.122 105.305 132.472 105.566 132.733C105.653 132.821 105.74 132.908 105.74 133.082C105.827 133.519 105.479 133.955 105.131 133.78C104.436 133.257 103.653 133.519 102.871 133.257C102.001 132.995 100.958 132.908 100.523 132.559C99.5669 131.773 100.089 129.766 98.9583 129.766C98.4366 129.766 98.5236 130.464 98.3497 130.726C97.828 131.512 97.5672 130.901 96.7847 130.813C97.1324 130.377 97.4802 129.417 98.0019 129.068C98.2627 128.894 98.5236 129.068 98.7844 129.155C99.6539 129.592 100.436 129.592 101.045 128.719C101.306 128.283 102.001 127.846 102.349 128.806C102.436 129.068 101.741 129.243 101.914 129.679C102.088 130.29 102.958 130.203 103.479 130.377C103.74 130.464 104.001 130.464 104.175 130.639C105.045 131.512 106.436 131.599 106.783 130.726C107.392 129.243 105.479 129.941 104.088 129.068C103.74 128.806 103.306 128.283 103.479 127.759C103.653 127.41 104.262 127.672 104.436 127.41C105.218 126.363 103.306 127.148 103.045 126.625C102.523 125.578 104.871 125.752 104.436 124.967C104.175 124.53 103.306 124.705 103.045 124.007C102.958 123.658 102.61 123.047 102.088 123.309C101.741 123.483 101.393 123.92 101.132 124.269C101.045 124.356 101.132 124.443 101.045 124.53C100.958 124.879 100.61 125.141 100.61 125.49C100.61 126.188 102.436 127.148 101.654 127.934C100.871 128.719 99.8278 127.41 99.1322 127.061C98.9583 126.974 98.7844 126.45 98.8714 126.188C98.9583 125.839 99.6539 125.578 99.5669 125.054C99.48 124.181 98.6105 123.571 98.2627 122.698C98.0019 122.087 98.0888 121.651 98.5236 121.302C99.2191 120.603 99.3061 119.905 99.1322 118.945C99.0452 118.422 99.7408 117.636 99.393 117.113C99.3061 117.026 99.1322 117.026 99.0452 116.938C99.5669 116.153 97.7411 116.24 98.1758 115.804C98.8714 115.193 100.089 115.978 100.784 116.589C101.654 117.462 103.306 116.677 103.306 117.724C103.306 118.509 102.871 119.207 102.001 119.469C101.914 119.469 101.654 120.342 102.175 120.429C102.958 120.603 102.871 119.033 103.393 118.771C104.001 118.596 104.784 119.731 105.305 119.207C105.566 118.945 104.784 118.596 104.958 118.335C105.479 117.636 106.87 118.073 107.653 118.684C108.088 119.033 108.696 119.905 108.348 120.691C108.175 121.04 107.305 120.778 107.392 121.127C107.479 121.738 108.696 121.912 109.131 121.476C109.913 120.865 109.74 120.08 110.609 119.731C111.218 119.382 111.739 120.254 112.348 120.08C113.13 119.818 114.261 120.429 114.869 121.302C114.869 121.127 115.043 120.865 115.217 120.603C116.347 119.295 119.478 119.905 120.26 121.476C120.347 121.651 120.26 121.738 120.173 121.738C119.825 121.912 119.13 121.825 119.304 122.436C119.478 122.96 119.999 122.785 120.434 122.785C120.956 122.785 121.564 122.611 122.26 122.523C121.651 121.912 120.956 121.476 120.26 120.953C119.825 120.604 119.478 120.254 119.043 119.993C117.912 119.12 116.695 118.247 115.565 117.375C114.087 116.153 112.522 114.844 111.044 113.535C98.6105 101.842 102.784 98.6128 103.132 98.0892C103.393 97.7401 104.001 98.351 104.349 98.0892C104.436 98.0892 104.349 97.9146 104.436 97.9146C105.827 97.4783 106.262 101.231 107.74 100.882C108.001 100.794 107.827 100.445 107.914 100.358C108.696 99.9217 107.914 101.929 108.609 101.754C108.783 101.754 108.783 101.318 109.044 101.318C109.74 101.405 110.696 102.801 111.652 103.412C112.522 104.023 113.13 105.681 114.261 105.419C114.348 105.419 114.435 105.332 114.435 105.245C114.435 104.721 113.652 104.459 113.217 104.11C112.783 103.674 112.435 103.238 112.087 102.889C112 102.801 111.913 102.627 111.739 102.54C111.131 102.103 109.566 101.929 109.827 101.056C109.913 100.707 110.522 101.231 110.609 100.969C110.696 100.533 110.087 100.271 109.74 100.184C109.479 100.096 109.218 100.707 108.87 100.445C108.609 100.184 109.044 99.7472 108.957 99.4854C108.175 97.5656 105.218 98.5255 105.045 96.5184C105.045 96.4311 105.131 96.3439 105.131 96.3439C105.305 96.3439 105.479 96.4311 105.566 96.6057C106.957 97.7401 107.566 97.6528 108.957 98.7873C109.131 98.9618 109.392 99.0491 109.566 99.1364C109.913 99.3981 110.174 100.096 110.609 100.009C110.696 100.009 110.783 99.8345 110.783 99.7472C110.696 99.3109 110.087 99.2236 109.827 98.7873C109.479 98.2637 108.957 98.0892 108.522 97.7401C107.392 96.6929 106.436 96.8675 105.74 95.8203C105.653 95.733 105.827 95.5585 105.914 95.6458C107.392 96.1693 107.392 96.3439 108.262 96.7802C108.87 97.042 107.74 95.8203 108.001 95.4712C108.609 94.7731 109.566 95.9075 110.174 96.2566C110.696 96.6057 110.348 96.6929 111.131 96.4311C111.218 96.3439 111.479 96.4311 111.565 96.6057C111.652 96.7802 111.218 97.2165 111.479 97.3911C111.826 97.5656 111.826 96.8675 112.087 96.8675C114 96.7802 115.217 101.667 116.695 100.358C117.13 99.9217 116.261 99.3109 116.087 98.7C115.913 98.0892 114.348 97.6529 114.956 96.9547C115.652 96.1693 116.174 98.7873 116.956 98.4382C117.13 98.351 116.956 98.0892 117.13 98.0019C117.217 97.9146 117.304 98.0019 117.304 98.0019C117.912 98.5255 118.521 99.0491 119.13 99.6599C119.304 99.7472 119.478 100.009 119.564 100.009C120.347 99.6599 120.608 100.271 120.956 100.707C132.954 113.186 157.821 124.269 159.212 124.967C167.559 129.243 167.819 135.7 153.734 139.627ZM116.347 106.903C116.261 106.467 115.739 106.03 115.217 106.03C115.13 106.03 115.043 106.118 115.043 106.205C115.043 106.641 115.652 107.165 116.087 107.077C116.261 107.077 116.347 106.99 116.347 106.903ZM100.262 122.611C99.7408 122.96 100.176 123.483 100.697 123.483C100.871 123.483 101.045 123.309 101.132 123.221C101.132 122.698 100.697 122.349 100.262 122.611ZM101.741 118.073C101.741 117.986 101.567 117.986 101.567 117.986C101.48 117.986 101.393 118.073 101.393 118.16C101.393 118.247 101.567 118.335 101.654 118.335C101.654 118.247 101.741 118.16 101.741 118.073ZM105.566 121.127C105.653 121.214 105.827 121.389 105.914 121.389C106.001 121.389 106.088 121.214 106.001 121.04C105.914 120.865 105.74 120.865 105.653 120.865C105.566 120.865 105.479 121.04 105.566 121.127ZM105.131 123.047C105.392 122.872 106.001 122.96 106.001 122.611C106.088 122.087 105.218 122 104.871 121.651C104.61 121.389 104.262 121.214 104.001 121.563C103.74 122 103.74 122.436 104.001 122.872C104.436 123.221 104.784 123.309 105.131 123.047ZM106.523 126.537C106.523 126.014 105.74 126.101 105.566 126.625C105.479 126.712 105.479 127.148 105.74 127.236C106.088 127.323 106.523 126.887 106.523 126.537ZM109.913 126.363C110.696 126.363 110.174 124.705 109.566 125.141C109.218 125.403 109.392 126.363 109.913 126.363ZM109.827 130.29C109.74 129.854 109.131 129.417 108.783 129.592C108.522 129.679 108.175 129.941 108.088 130.203C107.914 130.813 108.87 131.163 109.392 131.075C109.827 130.901 109.913 130.639 109.827 130.29ZM109.827 127.585C109.653 128.457 111.305 129.068 111.739 128.457C112.348 127.497 110.174 126.188 109.827 127.585ZM112.348 148.441C112.348 148.354 112.261 148.266 112.174 148.179C111.739 148.092 111.131 148.441 111.044 148.877C111.044 148.965 111.044 149.052 111.131 149.052C111.565 149.226 112.174 148.877 112.348 148.441ZM114.696 144.95C114.261 144.165 114 145.387 113.304 145.736C112.696 146.085 111.479 146.172 111.739 146.783C112 147.394 112.696 146.434 113.478 145.998C114.087 145.648 115.043 145.474 114.696 144.95ZM115.913 136.747C115.652 136.486 114.782 137.62 115.391 137.707C115.913 137.795 116.087 137.009 115.913 136.747ZM123.564 122.349C123.738 122.611 124.173 122.698 124.346 122.523C124.433 122.436 124.433 122.262 124.433 122.174C124.26 121.912 123.825 121.912 123.651 122.087C123.564 122.174 123.564 122.262 123.564 122.349ZM115.391 122.698C115.478 122.96 115.565 123.221 115.652 123.396C115.652 123.483 115.826 123.57 115.826 123.483C116.174 123.309 115.739 123.047 115.391 122.698ZM118.26 148.354C118.26 148.266 118.173 148.179 118.086 148.179C117.912 148.179 117.739 148.354 117.739 148.528C117.739 148.615 117.826 148.615 117.826 148.615C117.999 148.703 118.26 148.528 118.26 148.354ZM121.043 130.028C121.129 130.028 121.129 130.028 121.043 130.028C120.26 129.854 119.478 130.115 118.782 130.29C117.999 130.464 117.304 131.163 116.695 131.686C116.434 131.948 116.521 132.471 116.782 132.821C117.043 132.821 117.304 132.908 117.478 132.646C118.086 131.861 117.826 130.552 118.869 130.901C119.217 130.988 119.13 131.25 119.478 131.337C119.564 131.337 119.651 131.337 119.651 131.337C119.912 130.726 120.434 130.377 121.043 130.028ZM122.434 147.132C122.434 146.783 121.912 146.608 121.738 146.783C121.477 146.957 121.477 147.394 121.738 147.568C121.999 147.656 122.434 147.394 122.434 147.132ZM122.521 145.91C122.521 145.387 121.651 145.823 121.651 146.172C121.651 146.259 121.651 146.347 121.738 146.347C121.999 146.434 122.521 146.172 122.521 145.91ZM137.041 143.554C137.041 143.467 137.041 143.38 136.954 143.38C136.693 143.292 136.345 143.38 136.171 143.641C136.171 143.729 136.171 143.816 136.258 143.903C136.519 143.903 136.954 143.729 137.041 143.554ZM141.301 141.896C141.04 141.634 140.605 142.071 140.518 142.245V142.332C140.692 142.507 140.953 142.332 141.214 142.245C141.301 142.332 141.562 141.983 141.301 141.896ZM143.648 141.285C143.388 141.111 142.953 141.198 142.779 141.46C142.692 141.547 142.779 141.722 142.866 141.809C143.127 141.983 143.562 141.809 143.735 141.547C143.822 141.547 143.735 141.373 143.648 141.285ZM146.431 140.762C146.431 139.976 145.04 140.587 144.953 141.023C144.866 141.634 146.431 141.373 146.431 140.762ZM149.126 140.151C149.039 139.191 148.344 139.889 147.735 140.238C147.474 140.325 146.518 140.325 147.039 140.762C147.3 141.023 147.648 140.5 147.822 140.5C148.257 140.5 149.213 140.762 149.126 140.151ZM111.826 137.271C111.739 137.009 111.392 137.184 111.305 137.184C110 138.056 106.523 139.104 107.74 140.238C108.957 141.373 112.261 139.016 111.826 137.271ZM97.4802 125.839C97.5672 125.141 96.176 124.618 95.9152 125.316C95.3935 126.538 97.3063 127.061 97.4802 125.839ZM109.131 141.023C109.131 141.111 109.218 141.111 109.218 141.111C109.392 141.111 109.566 140.936 109.566 140.762C109.566 140.674 109.479 140.674 109.479 140.674C109.305 140.674 109.131 140.849 109.131 141.023ZM102.262 125.141C102.175 125.054 102.001 124.879 101.914 124.879C101.741 124.967 101.741 125.229 101.741 125.316C101.741 125.403 101.914 125.752 102.175 125.665C102.436 125.665 102.349 125.316 102.262 125.141ZM99.1322 117.113C99.48 117.636 98.4366 117.636 98.2627 118.073C98.0888 118.422 98.8714 119.12 98.3497 119.469C97.828 119.905 97.1324 118.073 96.4369 118.596C95.9152 119.033 96.6108 119.644 96.6977 120.08C97.1324 121.738 96.0891 120.953 95.6544 122.523C95.5674 122.872 96.3499 123.047 96.176 123.396C96.0021 124.181 94.5241 123.745 94.4371 123.047C94.0024 123.658 93.046 122.611 92.7851 121.825C92.6982 121.389 92.0896 121.127 92.0896 120.691C92.0896 119.818 92.7851 119.033 93.3938 118.16C94.0024 117.375 93.1329 116.328 93.3938 115.193C93.4807 114.669 94.0893 114.233 94.611 114.146C95.5674 113.884 95.5674 115.193 95.6544 115.891C95.7413 116.589 95.2196 116.851 96.176 117.811C96.8716 118.509 95.9152 116.851 96.5238 115.717C96.8716 115.019 96.6977 115.978 97.6541 117.026C98.0019 117.2 98.6105 116.938 99.1322 117.113ZM95.8283 121.04C95.1327 119.207 93.7415 120.778 94.3502 122.611C94.3502 122.698 94.4371 122.785 94.5241 122.872C94.611 122.087 96.0891 121.738 95.8283 121.04ZM149.126 141.285C147.387 142.071 145.04 141.809 144.953 142.245C144.866 142.507 145.127 142.507 145.387 142.42C146.865 142.158 148.344 141.896 149.735 141.634C149.909 141.634 150.343 141.547 150.343 141.285C150.343 140.849 149.387 141.198 149.126 141.285ZM94.1763 128.021C93.5677 128.632 93.3938 129.679 93.7416 130.464C94.0893 131.163 95.2196 130.464 96.0021 130.726C95.7413 130.29 95.9152 129.417 95.6544 128.981C95.2196 127.934 94.8718 127.323 94.1763 128.021ZM147.213 142.507C147.213 142.594 147.213 142.594 147.3 142.681C147.474 142.769 147.648 142.681 147.735 142.507C147.735 142.42 147.735 142.332 147.648 142.332C147.474 142.245 147.213 142.332 147.213 142.507ZM145.909 142.769C145.909 142.856 145.909 142.943 145.996 142.943C146.17 143.031 146.431 142.943 146.518 142.769C146.518 142.682 146.518 142.594 146.431 142.507C146.344 142.507 145.996 142.594 145.909 142.769ZM95.9152 130.639C96.0021 130.813 96.0891 130.901 96.263 130.901C96.263 130.726 96.0891 130.726 95.9152 130.639ZM96.3499 130.901C96.5238 131.075 96.6977 131.075 96.8716 130.901C96.6977 130.901 96.5238 130.901 96.3499 130.901ZM91.481 125.839C91.2201 125.839 91.0462 126.188 91.0462 126.45C91.0462 126.537 91.1332 126.625 91.2201 126.625C91.481 126.625 91.6548 126.276 91.6548 126.014C91.7418 125.927 91.5679 125.839 91.481 125.839ZM101.828 150.884C101.132 150.361 100.262 151.757 99.6539 152.368C99.3061 152.717 98.9583 153.066 98.5236 153.415C98.1758 153.764 97.915 154.375 97.2194 154.113C97.2194 154.113 97.1324 154.2 97.1324 154.288C93.7416 155.422 93.6546 156.557 91.7418 157.778C91.5679 157.866 91.3071 158.476 91.3071 158.738C91.3071 158.825 91.394 159 91.481 159C91.6549 159 91.7418 158.738 91.8287 158.651C93.8285 157.342 95.8283 156.12 97.7411 154.811C99.2191 153.851 102.436 153.415 102.088 151.67C101.914 151.146 102.088 151.059 101.828 150.884ZM58.0938 100.533C57.5721 99.5727 58.0938 101.231 57.0504 101.667C57.2243 101.842 57.3982 102.714 57.8329 102.452C58.3546 102.191 57.746 101.493 57.746 101.231C57.746 101.231 57.746 101.143 57.8329 101.056C58.0068 100.882 58.2676 100.707 58.0938 100.533ZM20.707 59.8672C20.6201 59.8672 20.5331 60.0417 20.5331 60.0417C20.6201 60.129 20.707 60.2162 20.707 60.2162C20.794 60.2162 21.0548 60.2162 21.0548 59.9544C21.0548 59.7799 20.794 59.8672 20.707 59.8672ZM56.9635 101.667C56.7896 101.667 56.6157 101.754 56.5287 101.842C56.7026 101.929 56.8765 101.929 56.9635 101.667C56.9635 101.754 56.9635 101.667 56.9635 101.667ZM65.4841 104.547C65.2233 104.634 65.3972 104.983 65.3972 105.07C65.3972 105.158 65.4841 105.245 65.5711 105.245C65.745 105.245 65.745 104.983 65.745 104.896C65.745 104.809 65.658 104.459 65.4841 104.547ZM53.6595 102.976C53.3987 102.976 53.1378 102.976 52.877 102.976C52.5292 103.761 52.2684 103.587 52.1814 104.023C51.9206 104.896 52.1814 105.681 53.1378 105.594C53.6595 105.507 54.2681 105.07 54.442 104.547C54.6159 104.11 54.7029 103.325 54.2681 103.151H54.1812C54.0073 103.151 53.8334 103.063 53.6595 102.976ZM43.9216 87.0938C43.9216 87.0065 43.8346 86.9193 43.7477 87.0065C43.6607 87.0065 43.6607 87.0938 43.6607 87.1811C43.6607 87.2683 43.7477 87.2683 43.8346 87.2683C43.8346 87.2683 43.9216 87.1811 43.9216 87.0938ZM86.3512 120.953C86.0903 122.087 84.8731 120.953 84.0906 120.429C83.395 119.993 84.96 119.993 85.1339 119.644C85.3078 119.207 84.96 118.684 85.047 118.247C85.4817 116.764 84.6992 115.891 83.8297 115.019C83.395 114.669 83.0472 114.408 82.4386 114.582C81.5691 114.931 80.8736 114.495 80.6997 113.535C80.6127 113.099 80.4388 112.662 80.5258 112.226C80.7866 111.179 79.8302 111.179 79.3085 110.219C79.1347 109.783 80.0041 109.346 79.7433 109.085C79.3955 108.648 78.613 108.91 78.1782 109.346C78.0913 109.434 78.2652 110.044 77.9174 110.132C77.1349 110.393 76.961 107.95 76.0915 108.648C75.1351 109.434 76.3524 111.266 75.5699 112.575C75.4829 112.662 75.2221 113.36 74.7004 113.186C73.9179 112.924 74.3526 111.79 74.7004 111.179C75.2221 110.132 75.0482 109.695 74.0048 109.434C73.831 109.346 73.5701 109.172 73.3962 109.259C73.1354 109.434 73.4832 109.957 73.2223 110.132C72.5268 110.481 72.2659 109.259 72.3529 108.648C72.3529 107.95 72.092 107.165 71.3965 107.339C70.2662 107.776 72.179 109.085 72.0051 110.044C72.0051 110.394 71.8312 110.917 71.3095 111.004C70.7009 111.092 69.9184 110.568 69.7445 109.957C69.6575 109.521 70.1792 109.172 70.2662 108.823C70.3531 108.561 70.4401 108.212 70.4401 107.863C70.4401 107.252 70.9617 106.467 70.527 106.118C70.2662 105.943 69.7445 106.903 69.3098 106.728C68.6142 106.467 69.4837 105.594 69.5706 105.158C69.6575 104.809 69.6575 104.285 69.4837 104.11C69.1359 103.849 67.9186 103.412 68.1795 104.285C68.2664 104.547 68.7881 104.285 68.962 104.634C69.0489 104.896 69.1359 105.419 68.7881 105.507C67.9186 105.856 67.9186 104.721 67.8317 103.674C67.7447 103.151 67.1361 102.976 66.8753 102.627C66.5275 102.191 66.0058 102.191 65.9189 102.54C65.5711 103.5 64.5277 104.285 65.1364 105.507C65.4841 106.292 65.3102 107.077 66.5275 106.816C66.7883 106.728 66.6144 106.554 67.2231 106.379C67.4839 106.292 67.397 105.768 67.6578 105.681C68.1795 105.507 68.6142 106.03 68.4403 106.816C68.3534 107.077 68.6142 107.427 68.7011 107.776C68.7881 108.125 69.3967 108.474 69.1359 108.91C68.875 109.346 68.3534 108.91 68.0056 108.91C66.6144 108.91 67.4839 108.125 66.2667 107.601C65.2233 107.165 66.3536 108.125 66.2667 109.346C66.1797 109.957 65.3103 110.394 64.6147 110.306C63.9191 110.219 64.2669 109.87 63.9191 108.474C63.7452 107.863 64.7886 108.037 64.8755 107.688C65.0494 107.339 65.0494 106.728 64.7016 106.467C64.5277 106.292 64.093 106.554 63.8322 106.379C62.7019 105.594 64.8755 102.976 63.5713 102.452C63.3105 102.365 63.1366 103.063 62.7888 103.063C62.3541 103.063 61.5716 102.627 61.6585 102.016C61.7455 101.667 62.441 102.016 62.528 101.667C62.6149 101.405 62.1802 101.231 62.0063 101.056C61.4846 100.445 60.7021 100.445 60.5282 101.143C60.2674 101.754 60.4413 102.54 60.7021 103.063C60.963 103.587 61.6585 104.11 61.3977 104.634C61.1369 105.158 60.5282 104.896 60.2674 104.285C60.1805 104.023 60.0066 103.761 60.0066 103.587C59.7457 102.365 58.2676 102.191 57.9199 101.056C57.9199 101.056 57.9199 100.969 58.0068 100.882C58.2676 100.707 58.6154 100.882 58.8763 100.707C59.311 100.358 58.9632 99.8345 58.5285 99.5727C57.9199 99.2236 57.4851 98.2637 56.7896 98.4382C55.4854 98.7 55.9201 101.405 56.7026 101.667C56.4418 101.929 56.3548 102.191 55.8332 102.191C55.3115 102.103 55.9201 101.143 55.4854 100.882C55.0506 100.62 54.3551 100.62 54.0073 100.969C53.5726 101.492 54.7029 102.452 54.2681 102.801C54.0942 102.714 53.9203 102.714 53.7465 102.714C53.5726 102.627 53.3987 102.452 53.2248 102.365C53.6595 101.929 52.5292 100.533 53.2248 99.9217C53.5726 99.6599 53.9203 100.62 54.2681 100.445C55.1376 99.8345 53.5726 98.7 53.5726 97.6528C53.5726 97.1292 54.2681 96.8675 54.529 96.5184C54.8768 95.9076 54.7898 95.2967 54.2681 94.7731C53.9203 94.3368 53.7465 93.5514 53.0509 93.2896C52.7901 93.2023 52.3553 93.8132 52.0075 93.5514C51.6598 93.2896 52.3553 92.6787 52.0945 92.3297C51.9206 92.1552 51.5728 92.5915 51.312 92.417C50.7903 91.9806 51.4859 90.8462 50.9642 90.4099C50.6164 90.0608 49.7469 89.7117 49.3122 90.2353C48.7036 90.9334 49.5731 92.0679 50.0078 93.0278C50.6164 94.3368 50.8772 95.733 51.312 97.042C51.312 97.1292 50.7903 98.351 50.7034 98.7C50.6164 98.5255 50.3556 98.4382 50.1817 98.4382C49.9208 98.5255 50.0078 99.1364 49.7469 99.0491C48.9644 99.0491 50.1817 98.4382 49.9208 97.3911C49.8339 97.1293 49.1383 97.3911 49.1383 96.9547C49.1383 96.4311 50.0947 96.6929 50.3556 96.1693C50.3556 96.1693 50.6164 95.733 50.3556 95.4712C49.2253 94.424 50.1817 93.3769 49.2253 93.4641C48.1819 93.6387 49.1383 95.6457 48.5297 96.1693C48.4428 96.2566 48.3558 96.2566 48.2689 96.1693C47.3125 95.3839 48.7036 93.0278 47.4864 92.3297C46.9647 92.0679 46.443 92.417 46.1822 92.8533C45.7474 93.5514 45.7474 94.8604 46.5299 95.3839C46.7038 95.5585 46.9647 94.9476 47.2255 95.2094C47.8341 95.6458 47.4864 96.8675 47.1386 97.3038C46.9647 97.5656 46.8777 98.0019 46.7038 98.4382C46.2691 98.5255 46.1822 99.0491 46.2691 99.4854C46.0952 99.6599 46.0083 99.7472 45.7474 99.6599C45.3997 99.6599 45.6605 98.8746 45.5735 98.6128C46.0083 98.7 45.9213 97.2165 45.8344 96.4311C45.6605 95.733 45.8344 94.9476 45.0519 94.5113C44.9649 94.5113 44.9649 94.424 44.878 94.424C44.791 94.2495 44.7041 94.075 44.5302 93.9877C44.4432 93.8132 44.4432 93.6387 44.4432 93.4641C44.6171 93.1151 45.7474 93.5514 45.7474 92.9405C45.7474 92.2424 44.4432 92.8533 44.3563 92.0679C44.2694 91.5443 44.0085 91.1952 44.0955 90.5844C44.1824 89.0136 45.1388 87.7047 45.1388 86.1339C45.1388 85.6976 45.5735 85.0867 45.1388 84.8249C44.1824 84.2141 42.7043 85.2612 42.6174 86.3957C42.5304 87.3556 44.878 89.1881 43.226 89.2754C42.8782 89.2754 42.7913 88.49 42.3565 88.49C42.2696 88.49 42.2696 88.6646 42.1827 88.7518C42.0957 89.3627 42.5304 90.0608 42.4435 90.6717C42.3565 91.1952 41.9218 92.9405 41.1393 92.2424C40.5307 91.7188 42.1827 90.4099 41.4871 89.9735C41.2263 89.799 40.9654 90.6717 40.6176 90.4971C40.096 90.2353 40.6176 89.3627 40.5307 88.8391C40.5307 88.4028 40.3568 87.9664 40.3568 87.6174C40.3568 87.0938 40.7915 86.3957 40.3568 85.9594C39.5743 85.174 39.1396 86.9193 38.8787 87.5301C38.7048 88.2282 39.2265 89.1009 38.8787 89.7117C38.5309 90.2353 37.5745 90.8462 37.0528 90.3226C36.792 90.0608 37.4876 89.6245 37.4006 89.2754C37.4006 89.1881 37.1398 89.1881 37.0528 89.1009C36.9659 88.8391 36.6181 88.4028 36.792 88.141C37.2267 87.4429 36.1834 85.3485 37.2267 85.7848C36.9659 85.4358 37.0528 84.9122 36.9659 84.4758C36.792 83.5159 36.4442 82.6433 35.5748 82.3815C35.0531 82.207 35.14 83.2541 34.5314 82.9923C34.4445 82.9923 34.1836 83.1669 34.0967 83.3414C33.662 83.865 33.4881 85.4358 32.6186 85.174C32.6186 85.174 32.6186 85.174 32.5317 85.174C32.5317 85.3485 32.5317 85.6103 32.4447 85.8721C32.3578 86.3084 31.923 86.832 31.4014 86.7447C30.7927 86.6575 30.5319 85.7848 30.6189 84.9994C30.7058 84.3886 30.358 83.865 29.7494 83.5159C29.0538 83.0796 28.706 82.3815 28.4452 81.5961C28.3583 81.4216 28.0974 80.7235 28.6191 80.6362C29.3147 80.5489 28.9669 82.0324 29.3147 81.9452C30.1841 81.8579 29.4886 80.7235 29.0538 79.8508C28.706 79.1527 29.2277 79.7635 29.5755 78.8036C29.8363 78.0182 29.4886 77.5819 30.0102 76.9711C30.445 76.5348 30.9666 75.9239 30.9666 75.4003C30.8797 73.8295 29.4886 73.3932 29.4016 73.0442C29.2277 73.9168 28.793 74.7895 28.0974 75.4003C27.8366 75.6621 27.141 75.313 26.8802 75.7494C26.6193 76.0984 26.3585 76.7093 26.7063 76.9711C27.0541 77.2329 27.3149 76.273 27.6627 76.4475C28.6191 77.0583 27.141 77.1456 26.6193 78.1928C26.4455 78.5418 26.7063 79.0654 26.7063 79.4145C26.7063 79.4145 26.7063 79.589 26.6193 79.589C25.576 79.8508 25.1413 78.1055 25.4021 77.2329C25.9238 75.9239 25.4021 76.7093 25.3152 75.4003C25.3152 75.313 25.4021 75.2258 25.489 75.1385C25.0543 75.313 24.7065 74.3531 24.7935 73.8295C24.9674 73.1314 26.1846 73.4805 26.4455 72.9569C26.5324 72.6951 26.4455 72.5206 26.3585 72.4333C25.7499 71.5607 25.4021 70.7753 26.6193 70.0771C26.7063 69.9899 26.8802 69.5536 26.7932 69.4663C26.1846 68.7682 26.5324 67.8955 26.5324 67.1101C26.4455 66.5866 26.1846 65.3649 25.576 65.8884C25.2282 66.1502 25.6629 66.6738 25.7499 66.9356C26.0107 67.8083 25.8368 68.9427 25.1413 69.4663C24.9674 69.6408 24.6196 69.7281 24.4457 69.6408C24.2718 69.5536 24.1849 69.2045 24.1849 69.03C24.1849 67.8083 23.6632 66.3248 24.3588 65.1903C24.6196 64.754 25.3152 64.754 25.8368 64.4049C25.9238 64.3177 26.0977 64.0559 25.9238 63.8814C25.7499 63.5323 25.0543 64.0559 24.8804 63.6196C24.6196 63.096 25.489 62.6596 25.576 62.1361C25.6629 61.6997 25.489 60.5653 24.7935 60.9143C24.011 61.3507 25.1413 63.445 24.011 63.445C23.6632 63.445 23.4893 62.8342 23.1415 62.6596C23.4023 62.4851 23.6632 62.0488 23.6632 61.8743C23.8371 61.1761 23.4023 60.5653 23.2285 60.0417C23.1415 60.478 22.6198 60.9143 22.4459 61.3507C22.2721 61.8743 21.7504 62.4851 21.3156 61.9615C20.9679 61.6125 21.5765 60.5653 21.1418 60.478C20.6201 60.3908 20.794 61.4379 20.8809 61.8743C20.9679 62.7469 20.0115 64.4049 20.707 64.754C20.4462 64.9285 20.1854 65.7139 19.9245 65.9757C19.4898 66.3248 19.4898 67.2847 19.4028 67.9828C19.4028 68.3319 19.2289 69.2045 19.7506 69.2918C20.1854 69.379 20.0984 68.5064 20.3592 68.4191C20.4462 68.4191 20.5331 68.4191 20.6201 68.5064C21.0548 69.1172 20.9679 70.339 20.2723 70.688C19.142 71.2116 18.7073 69.03 18.4464 67.9828C18.3595 67.6337 18.0987 67.2847 17.8378 67.0229C17.577 66.6738 17.3161 66.3248 17.1422 65.8884C16.8814 65.3649 17.3161 65.4521 17.6639 65.1903C17.577 65.6266 17.8378 66.3248 18.2725 66.3248C19.4028 66.412 18.4464 64.754 18.8812 63.445C19.3159 62.2233 18.7073 60.2162 17.49 59.7799C16.2728 59.3436 18.0987 62.3978 16.9684 62.3106C16.6206 62.3106 16.6206 61.5252 16.2728 61.4379C16.1858 61.4379 16.0989 61.4379 16.0989 61.5252C15.925 61.787 16.4467 62.2233 16.2728 62.3979C15.1425 63.7068 16.1858 61.9615 15.0555 60.6526C14.5339 60.0417 13.5775 60.478 13.3166 59.8672C13.0558 59.3436 12.8819 58.6455 12.8819 58.0346C12.9688 57.511 14.273 57.2492 13.7514 56.7256C13.6644 56.6384 13.5775 56.6384 13.5775 56.7256C12.1863 57.511 12.0124 57.4238 11.4038 56.0275C10.9691 55.0676 10.5344 54.1077 10.1866 53.1478C10.0127 52.7114 9.6649 52.1879 9.92574 51.7515C10.2735 51.0534 11.4038 51.8388 11.9255 51.0534C12.1863 50.5298 13.0558 49.8317 12.4472 49.4827C12.1863 49.3081 11.8385 50.0062 11.4908 49.8317C10.4474 49.2209 11.6647 47.0392 10.6213 46.3411C10.5344 46.2538 10.3605 46.3411 10.3605 46.4284C10.1866 46.6902 10.4474 47.0392 10.4474 47.301C10.3605 47.7374 10.2735 48.1737 10.0127 48.5227C9.57796 48.9591 10.1866 49.6572 9.49101 50.1808C8.7085 50.8789 8.44766 49.0463 8.18682 48.4355C8.01293 47.9992 7.92598 47.5628 7.75209 47.1265C7.14347 45.9921 7.66515 46.6029 8.62155 45.643C9.31712 44.9449 8.53461 44.4213 7.75209 44.5086C6.79569 44.6831 6.44791 44.2468 6.27401 43.4614C5.83928 41.8906 5.31761 40.4071 4.88288 38.8363C4.44815 37.3528 4.01342 35.9566 3.57869 34.4731C3.14396 32.8151 2.70923 31.2443 2.2745 29.5863C2.18756 29.1499 2.18756 28.8009 2.53534 28.4518C2.79618 28.19 3.4048 27.5792 3.05702 27.4046C2.79618 27.2301 2.62229 27.9282 2.36145 27.9282C1.92672 28.0155 1.83977 27.5792 1.92672 27.1428C2.01367 26.8811 2.10061 26.3575 1.92672 26.2702C0.796424 25.6593 1.49199 24.5249 1.3181 23.7395C1.23115 23.3905 1.23115 23.0414 1.14421 22.6051C1.05726 21.7324 0.88337 20.8598 0.88337 20.0744C0.88337 18.8527 1.14421 17.8055 0.796424 16.4965C0.709478 15.973 0.535586 15.7112 0.709478 15.3621C0.709478 15.2748 0.187803 15.1876 0.100857 14.8385C0.0139113 14.4895 0.622532 14.2277 0.100857 13.7041C-0.15998 13.4423 0.187803 12.7442 0.187803 12.2206C0.187803 11.7842 -0.333872 10.7371 0.361695 10.8243C0.622532 10.8243 0.709478 11.2606 0.709478 11.4352C0.970316 12.4824 1.40505 13.355 1.92672 14.4894C2.18756 15.2748 2.88312 16.1475 1.83977 16.9329C1.66588 17.1074 1.40505 17.8928 1.83977 18.1546C2.10061 18.3291 2.36145 17.7182 2.62229 17.8055C2.88312 17.8928 2.70923 18.5036 2.97007 18.5909C3.66564 18.7654 3.66564 17.7182 3.4048 17.1074C3.05702 16.322 2.70923 15.5366 2.88312 14.664C2.97007 14.0531 2.53534 13.4423 2.4484 12.8314C2.36145 12.3078 2.53534 11.7842 2.4484 11.3479C2.2745 10.6498 1.92672 10.0389 1.49199 9.42808C1.14421 8.81723 1.66588 8.20638 1.23115 7.50826C0.88337 6.98467 1.75283 5.93749 1.3181 5.32664C0.622532 4.36673 -0.420818 3.23229 0.448641 2.97049C0.709478 2.88323 0.622532 3.6686 0.970316 3.75587C1.05726 3.75587 1.14421 3.75588 1.14421 3.66861C1.66588 3.23229 1.66588 2.7087 1.57894 2.18511C1.40505 1.48699 0.709478 -0.0837726 1.57894 0.00349223C3.23091 0.265287 2.36145 3.31955 2.79618 4.97759C2.88312 5.32664 3.05702 5.67571 3.14396 6.11203C3.83953 8.72998 4.62204 11.3479 5.31761 13.9659C5.40455 14.3149 5.57845 14.7512 5.66539 15.1003C6.01318 16.4093 7.66515 16.9329 7.83904 18.2418C7.83904 18.5036 7.40431 18.6782 7.49126 18.94C7.5782 19.2018 7.92598 19.1145 8.09988 19.289C8.18682 19.3763 8.18682 19.4635 8.09988 19.5508C7.66515 20.7725 7.66515 20.7725 8.7085 21.4706C8.88239 21.5579 9.05628 21.907 9.14323 22.0815C9.23017 22.4305 9.83879 22.9541 9.49101 23.3032C9.23017 23.4777 8.96934 22.8669 8.79544 22.9541C8.01293 23.3905 8.7085 23.9141 9.57796 24.0013C10.1866 24.0886 10.5344 24.4376 10.5344 24.9612C10.5344 25.6593 10.7083 26.1829 10.8821 26.7938C11.056 27.4919 10.8821 28.2773 10.8821 28.9754C10.8821 29.499 10.0996 30.3716 10.7952 30.808C11.4908 31.157 11.7516 29.7608 12.1863 29.8481C12.795 29.9353 12.9688 30.7207 13.1427 31.2443C13.3166 31.7679 13.5775 32.3787 13.4036 32.8151C12.8819 34.124 12.9688 35.433 13.7514 36.3057C13.8383 36.3929 13.9253 36.3929 14.0122 36.3057C14.36 36.1311 14.0991 35.2585 14.6208 35.1712C15.3164 34.9967 15.4903 36.0439 15.2294 36.742C14.7947 37.8764 15.0555 39.0109 15.4903 40.1453C15.6642 40.5816 16.4467 41.2798 16.5336 40.5816C16.6206 40.1453 15.7511 40.1453 15.6642 39.709C15.4903 39.2727 15.3164 38.3127 15.925 38.051C16.7945 37.7019 16.9684 39.4472 17.2292 40.2326C17.4031 40.8434 17.6639 41.367 18.0117 41.9779C18.7942 43.1123 19.4028 44.334 20.0115 45.5557C20.3592 46.1666 19.4028 46.1666 19.4028 46.7774C19.4028 47.1265 19.8376 47.0392 20.0115 47.1265C21.0548 47.301 21.8373 47.9991 21.9243 49.0463C22.0112 49.6572 22.0982 50.0935 22.7068 50.5298C23.5762 51.2279 24.2718 52.3624 24.7935 53.4096C25.3152 54.544 26.0977 55.4167 26.7932 56.3766C27.4019 57.3365 27.3149 58.3837 27.9235 59.5181C28.6191 60.6526 29.8363 61.0889 30.5319 62.1361C31.3144 63.3578 32.1839 64.4049 33.0533 65.6266C33.3142 66.063 33.575 66.4993 33.8359 66.9356C33.9228 67.0229 33.9228 67.1974 34.0097 67.2847C36.0095 68.7682 37.3137 70.8625 39.0526 72.6951C39.8351 73.4805 40.3568 74.5277 41.3132 75.1385C41.4871 75.2258 41.574 75.4003 41.661 75.5748C42.1827 76.4475 42.7913 77.2329 43.7477 77.931C44.9649 78.8036 45.8344 80.1999 46.8777 81.3343C47.3125 81.7706 47.7472 82.2942 48.1819 82.7306C49.0514 83.5159 49.9208 84.3013 50.7903 84.9994C52.1814 86.0466 53.6595 87.0065 55.1376 87.9664C55.2245 88.0537 55.3984 88.141 55.4854 88.2282C56.5287 89.3627 57.5721 90.4099 58.9632 91.2825C59.7457 91.7188 60.0935 92.766 60.7021 93.4641C60.963 93.8132 61.3107 94.2495 61.6585 94.2495C62.441 94.2495 62.8758 94.7731 63.4844 95.1222C64.2669 95.733 64.9625 96.5184 66.0058 96.8675C66.3536 96.9547 66.6144 97.3038 66.8753 97.6528C67.1361 97.9146 67.0492 98.6128 67.4839 98.7C68.5273 99.0491 69.3098 98.7873 69.9184 99.3981C71.2226 100.707 72.9615 101.405 74.4396 102.365C74.8743 102.627 75.309 102.976 75.8307 103.325C76.0915 103.5 76.2654 103.674 76.5263 103.761C77.4827 104.023 78.0913 104.198 78.0043 104.896C78.3521 104.721 79.0477 104.809 79.4824 105.07C80.178 105.507 80.9605 105.943 81.743 106.292C82.2647 106.554 82.2647 106.99 82.1777 107.514C82.0908 108.212 82.0039 109.172 82.8733 108.735C83.1342 108.648 82.8733 108.125 83.0472 107.95C84.0036 106.816 85.047 107.688 85.7425 108.823C86.0903 109.346 86.4381 109.695 87.1337 109.783C87.5684 109.783 88.4379 110.044 88.3509 110.568C88.6117 110.393 89.0465 110.219 89.3073 110.481C89.5682 110.655 89.1334 111.179 89.3073 111.266C90.4376 112.052 90.1768 111.179 91.0462 111.877C91.6549 112.401 93.3068 111.79 93.2199 112.837C93.2199 113.36 92.6113 113.535 92.0026 113.099C91.5679 112.75 90.9593 112.575 90.3507 112.313C90.1768 112.226 89.829 112.052 89.5681 112.226C89.0465 112.662 90.0029 113.186 90.3507 113.361C91.481 113.884 91.8287 114.669 91.481 115.891C91.394 116.153 91.5679 116.589 91.5679 116.938C91.6549 117.724 91.6549 118.422 90.6115 118.247C90.0898 118.16 90.1768 117.462 90.4376 116.938C90.6984 116.328 90.7854 115.804 90.2637 115.28C89.9159 114.931 90.6115 114.757 90.6115 114.146C90.5246 113.186 90.1768 114.32 89.3943 114.582C88.8726 114.844 88.0901 114.495 87.7423 113.971C87.6553 113.797 88.0901 113.361 87.8292 113.099C87.0467 112.575 86.4381 112.837 85.4817 112.924C85.047 112.924 84.6122 113.448 84.6992 113.971C84.7861 114.408 85.5686 114.146 85.7425 114.582C85.9164 115.019 85.1339 115.629 85.3948 116.153C85.8295 116.851 85.8295 117.549 86.3512 117.986C86.1773 117.986 86.0034 117.986 85.8295 118.073C85.3078 119.12 86.612 119.993 86.3512 120.953ZM88.264 112.401C88.5248 112.313 88.4379 112.052 88.3509 111.79C88.177 112.226 87.7423 112.488 88.264 112.401ZM2.2745 4.80306C2.18756 4.71579 2.10061 4.80306 2.10061 4.80306C2.01367 4.97759 2.18756 5.32665 2.36145 5.23938C2.4484 5.32665 2.36145 4.97759 2.2745 4.80306ZM3.66564 11.0861C3.66564 10.9989 3.57869 10.9116 3.49175 10.9116C3.4048 10.9116 3.4048 11.0861 3.4048 11.1734C3.4048 11.1734 3.49175 11.3479 3.57869 11.2607C3.66564 11.2607 3.66564 11.1734 3.66564 11.0861ZM2.88312 20.7725C2.88312 20.6852 2.79618 20.598 2.70923 20.598C2.62229 20.598 2.62229 20.6852 2.62229 20.7725C2.62229 20.8598 2.70923 20.947 2.79618 20.8598C2.70923 20.947 2.88312 20.8598 2.88312 20.7725ZM10.1866 27.5792C10.2735 27.6664 10.3605 27.5792 10.4474 27.5792C10.5344 27.4046 10.4474 27.1429 10.2735 27.0556H10.1866C10.0996 27.1429 10.0996 27.4919 10.1866 27.5792ZM6.44791 34.5604C6.36096 34.8222 6.70874 34.9967 6.79569 35.1712L6.96958 35.084C6.88263 34.8222 7.05653 34.4731 6.79569 34.3858C6.70874 34.3858 6.53485 34.4731 6.44791 34.5604ZM6.27401 32.9023C6.27401 32.9896 6.44791 32.9896 6.44791 32.9896C6.6218 32.9023 6.70874 32.5533 6.6218 32.3787C6.6218 32.2915 6.44791 32.2915 6.36096 32.2915C6.27401 32.3787 6.18707 32.6405 6.27401 32.9023ZM4.27426 19.9871C3.66564 19.6381 3.05702 20.6853 3.75258 20.9471C4.27426 21.2088 4.79593 20.3362 4.27426 19.9871ZM4.88288 28.8009C5.05677 28.8009 5.23066 28.5391 5.14372 28.3646C5.14372 28.19 4.79593 28.0155 4.62204 28.0155C4.5351 28.0155 4.44815 28.1028 4.44815 28.19C4.44815 28.4518 4.62204 28.8009 4.88288 28.8009ZM7.83904 44.2468C7.83904 44.1595 7.66515 44.0722 7.5782 44.0722C7.40431 44.0722 7.40431 44.334 7.40431 44.4213C7.40431 44.5086 7.49126 44.9449 7.83904 44.8576C8.09988 44.7703 7.92598 44.4213 7.83904 44.2468ZM9.23017 39.1854C8.79544 38.6618 7.83904 39.2727 7.23042 39.0981C6.6218 38.9236 5.75234 37.4401 5.14372 38.1382C4.44815 38.8363 5.66539 39.8835 6.10012 40.058C7.14347 40.5816 8.53461 39.9708 9.23017 39.2727C9.23017 39.3599 9.23017 39.2727 9.23017 39.1854ZM9.6649 36.0439C10.8821 35.1712 10.9691 35.3457 11.2299 34.124C11.4908 32.9896 9.40406 33.5132 8.88239 34.124C8.36071 34.6476 8.79544 36.5674 9.6649 36.0439ZM9.75185 36.4802C9.75185 36.3929 9.57796 36.3929 9.49101 36.3929C9.40407 36.4802 9.31712 36.5675 9.31712 36.6547C9.31712 36.742 9.49101 36.742 9.49101 36.742C9.6649 36.742 9.83879 36.6547 9.75185 36.4802ZM11.2299 39.0109C10.8821 38.7491 10.0127 39.0981 10.0127 39.709C10.0127 40.1453 10.6213 40.4944 10.9691 40.4071C11.4908 40.1453 11.5777 39.2727 11.2299 39.0109ZM22.5329 57.9473C22.1851 57.511 21.6634 58.1219 21.7504 58.6455C21.7504 58.82 21.9243 58.9945 22.0112 59.169C22.1851 58.7327 22.7068 58.2964 22.5329 57.9473ZM21.8373 53.3223C22.359 53.5841 22.5329 52.7114 22.5329 52.5369C22.5329 51.9261 22.0112 51.0534 21.4026 51.1407C20.3592 51.1407 20.9679 52.9732 21.8373 53.3223ZM20.3592 56.2893C20.4462 56.2893 20.5331 56.202 20.5331 56.202C20.6201 55.9403 20.4462 55.5912 20.2723 55.5039C20.1854 55.5039 20.0984 55.5039 20.0984 55.5912C19.9245 55.853 20.0984 56.202 20.3592 56.2893ZM17.577 46.4284C18.0117 46.952 19.0551 46.6029 19.2289 46.1666C19.5767 44.8576 16.7945 45.4685 17.577 46.4284ZM18.0117 50.9662C17.8378 50.9662 17.8378 51.2279 17.9248 51.3152C17.9248 51.4025 18.0986 51.4897 18.1856 51.4897C18.2725 51.4897 18.3595 51.3152 18.3595 51.2279C18.2725 51.1407 18.1856 50.9662 18.0117 50.9662ZM14.8817 44.6831C15.3164 44.2468 14.7078 42.9378 14.0991 43.025C13.4036 43.1123 14.273 45.3812 14.8817 44.6831ZM14.4469 48.8718C14.6208 48.9591 14.7947 49.2209 14.8817 49.4827C15.0555 49.919 15.4903 50.1808 15.925 49.919C16.2728 49.7444 16.5336 49.3081 16.7075 48.9591C16.7945 48.8718 16.7075 48.61 16.5336 48.5227C16.0989 48.2609 15.5772 49.2209 15.2294 49.0463C14.6208 48.6973 16.9684 47.0392 15.6642 47.2138C14.7078 47.301 14.6208 47.2138 14.0991 47.4756C13.5775 47.6501 13.6644 48.5227 14.4469 48.8718ZM12.6211 41.1925C13.0558 40.8434 13.0558 39.9708 12.8819 39.5345C12.795 39.4472 12.708 39.3599 12.5341 39.3599C12.2733 39.3599 12.1863 39.709 12.0994 39.8835C12.0124 40.058 11.9255 40.3198 11.8385 40.4944C11.7516 40.6689 11.4038 40.9307 11.4908 41.1052C11.6647 41.4543 12.2733 41.4543 12.6211 41.1925ZM13.1427 42.3269C12.795 41.8906 12.0124 41.9779 11.7516 42.4142C11.4038 43.025 11.8385 44.4213 12.6211 44.334C13.4905 44.2468 13.5775 42.8505 13.1427 42.3269ZM14.6208 57.2492C14.7947 57.6855 14.9686 58.3837 15.4903 57.9473C16.0989 57.4238 15.8381 56.3766 15.4903 55.853C15.1425 55.3294 13.8383 55.3294 13.8383 54.544C13.8383 54.195 14.6208 54.2822 14.7078 53.8459C14.8817 52.886 14.1861 53.0605 14.36 52.1879C14.4469 51.7515 14.5339 51.3152 14.7078 50.9662C14.8817 50.268 14.7947 50.0062 14.0991 49.919C13.8383 49.8317 13.5775 49.7444 13.4036 49.8317C13.3166 49.919 13.3166 50.0062 13.3166 50.0062C14.4469 51.7515 13.6644 53.4096 12.8819 54.9803C12.4472 55.9403 11.9255 56.3766 12.795 56.5511C13.9252 56.8129 14.273 56.1148 14.6208 57.2492ZM16.0119 59.8672C15.5772 59.6926 14.9686 60.0417 14.8817 60.478C14.7947 61.0889 15.925 61.3507 16.1858 60.8271C16.3597 60.5653 16.3597 59.9544 16.0119 59.8672ZM18.2725 57.5983C18.1856 57.162 17.6639 56.3766 17.3161 56.8129C16.9684 57.2492 17.3161 57.9473 17.6639 58.2964C17.7509 58.3837 17.8378 58.3837 17.9248 58.3837C18.2725 58.2091 18.3595 57.7728 18.2725 57.5983ZM18.5334 55.2421C19.142 54.8058 18.0117 54.2822 17.9248 53.7586C17.8378 53.1478 18.0986 52.4496 17.577 52.0133C16.5336 51.1407 14.5339 54.3695 16.4467 54.3695C16.9684 54.3695 16.2728 52.7987 16.9684 52.7114C18.0117 52.6242 17.3161 54.8931 18.0986 55.2421C18.1856 55.4167 18.3595 55.3294 18.5334 55.2421ZM20.6201 58.82C21.0548 58.7327 21.2287 58.1219 21.2287 57.8601C21.1418 57.2492 20.3592 57.3365 20.0115 56.9874C19.6637 56.6384 19.142 56.3766 18.8812 56.7256C18.0117 57.8601 19.6637 58.9073 20.6201 58.82ZM23.2285 60.478C23.2285 60.3908 23.2285 60.2162 23.2285 60.129C23.2285 59.169 22.8807 60.2162 22.0982 59.5181C21.9243 59.6926 21.6634 59.169 21.4026 59.169C20.9679 59.169 20.3592 59.4308 20.1854 59.7799C19.8376 60.6526 21.1418 60.8271 22.0982 60.5653C22.359 60.478 22.9676 60.2162 23.2285 60.478ZM25.576 74.7022C25.2282 74.8767 25.6629 75.313 25.7499 75.5748C25.9238 75.2258 26.0977 74.4404 25.576 74.7022ZM36.0095 74.7022C36.1834 74.7895 36.3573 74.6149 36.4442 74.5277C36.6181 74.0913 36.2703 73.4805 35.8356 73.306C35.7487 73.306 35.6617 73.3059 35.5748 73.3932C35.4009 73.8295 35.5748 74.5277 36.0095 74.7022ZM36.0095 77.8437C35.9226 78.0183 35.6617 78.1928 35.6617 78.3673C35.6617 78.4546 35.8356 78.5418 36.0095 78.5418C36.1834 78.4546 36.1834 78.1928 36.1834 77.931C36.2703 77.931 36.0964 77.8437 36.0095 77.8437ZM31.3144 74.7895C31.4883 75.0513 31.4014 75.4876 31.6622 75.6621C32.01 75.8366 32.5317 75.7494 32.7056 75.4003C32.9664 74.8767 32.5317 73.655 31.8361 73.8295C31.4883 73.9168 31.6622 74.7895 31.3144 74.7895ZM30.445 67.1974C30.445 67.1974 30.5319 67.2847 30.5319 67.1974C30.6189 67.1102 30.7058 66.8484 30.5319 66.7611C30.5319 66.6738 30.358 66.6738 30.358 66.7611C30.2711 66.8484 30.445 67.0229 30.445 67.1974ZM28.3583 63.8814C28.4452 63.445 27.9235 62.5724 27.4019 62.8342C26.0977 63.3578 28.1844 64.754 28.3583 63.8814ZM27.0541 71.3861C26.0107 71.2989 26.7932 73.0442 27.3149 72.5206C27.6627 72.2588 27.4888 71.4734 27.0541 71.3861ZM30.8797 74.1786C30.9666 73.1314 32.2708 71.1243 31.4014 70.5135C30.9666 70.2517 30.445 71.2116 29.9233 71.1243C29.8363 71.1243 29.7494 70.9498 29.7494 70.8625C29.7494 70.4262 30.6189 70.339 30.6189 69.8154C30.6189 69.4663 30.445 68.7682 29.9233 68.7682C29.4886 68.8554 30.0102 70.1644 29.4016 70.1644C28.5322 70.1644 29.4886 68.0701 28.706 68.0701C27.228 67.8955 26.8802 70.7753 27.7496 71.7352C28.0105 71.997 28.4452 71.8225 28.706 71.997C28.9669 72.1715 29.2277 72.346 29.3147 72.6078C29.4016 72.8696 29.4016 73.2187 29.3147 73.5677C29.3147 73.4805 29.4016 73.4805 29.4886 73.3932C30.0972 73.1314 30.5319 73.655 30.8797 74.1786ZM32.3578 85.0867C32.3578 84.9122 32.4447 84.7376 32.3578 84.6504C32.01 84.5631 32.1839 84.6504 32.3578 85.0867ZM33.662 80.9853C33.575 80.1999 32.5317 79.589 32.6186 78.7164C32.6186 78.1928 33.662 77.931 33.4881 77.4074C33.3142 77.0583 32.6186 76.7965 32.1839 77.1456C31.5753 77.6692 32.4447 78.8036 32.01 79.3272C31.923 79.4145 31.8361 79.4145 31.7492 79.4145C31.3144 79.24 31.4883 78.0183 30.8797 78.1055C29.8363 78.1928 30.445 79.9381 30.8797 80.8107C30.9666 81.0725 31.3144 81.3343 31.2275 81.5961C31.0536 82.556 31.3144 83.5159 32.0969 83.6032C32.6186 83.6905 32.8794 83.0796 33.0533 82.8178C33.3142 82.1197 33.7489 81.5088 33.662 80.9853ZM34.9662 75.313C33.662 74.8767 33.4881 77.4074 34.7923 77.1456C35.4878 77.0583 35.5748 75.5748 34.9662 75.313ZM36.0095 82.1197C36.0095 81.8579 35.7487 81.5089 35.4878 81.5089C35.4009 81.5089 35.3139 81.5961 35.3139 81.6834C35.3139 81.9452 35.4878 82.2942 35.7487 82.2942C35.9226 82.2942 36.0095 82.207 36.0095 82.1197ZM37.0528 82.1197C37.1398 82.6433 37.1398 83.2541 37.5745 83.6032C37.8354 83.7777 38.0962 83.6032 38.2701 83.5159C38.444 83.5159 38.6179 83.4287 38.6179 83.3414C38.8787 82.8178 38.7918 82.0324 38.357 81.4216C38.2701 81.3343 37.7484 81.5089 37.6615 81.1598C37.3137 80.1126 37.8354 77.3201 36.0964 78.9782C35.6617 79.4145 36.7051 79.9381 36.879 80.4617C37.0528 80.9853 36.879 81.5961 37.0528 82.1197ZM37.3137 86.6575C37.4006 86.9193 37.2267 87.2683 37.3137 87.5301C37.4876 87.9664 37.9223 88.141 38.0962 87.7919C38.444 87.0065 37.8354 87.1811 37.3137 86.6575ZM38.0962 84.3886C37.3137 84.8249 38.0093 87.0065 38.6179 86.4829C39.2265 85.9594 39.4004 83.6032 38.0962 84.3886ZM42.7043 84.8249C42.4435 84.4759 41.9218 85.3485 41.661 84.6504C41.4871 84.0395 40.8785 84.2141 40.5307 84.4758C40.3568 84.5631 40.2698 84.9994 40.4437 85.174C40.9654 85.8721 40.8785 86.3957 41.4001 86.6575C41.8349 86.9193 42.5304 86.5702 42.3565 86.1339C42.1827 85.523 43.0521 85.174 42.7043 84.8249ZM42.8782 83.9523C42.8782 83.865 42.7913 83.7777 42.7043 83.7777C42.6174 83.7777 42.6174 83.9523 42.6174 83.9523C42.6174 84.0395 42.7043 84.1268 42.7913 84.1268C42.7913 84.1268 42.8782 84.0395 42.8782 83.9523ZM48.7036 92.3297C48.7036 91.5443 48.008 90.3226 47.3994 91.108C47.0516 91.5443 47.6602 92.3297 48.095 92.6787C48.3558 93.0278 48.7036 92.766 48.7036 92.3297ZM55.4854 97.3911C54.8768 97.3038 54.7029 98.5255 55.3115 98.7C56.2679 98.9618 56.5287 97.5656 55.4854 97.3911ZM63.7452 101.056C62.7888 101.58 64.8755 102.54 65.0494 101.929C65.0494 101.492 64.2669 100.794 63.7452 101.056ZM64.9625 98.5255C64.7016 98.351 64.2669 98.2637 64.0061 98.4382C63.9191 98.5255 63.8322 98.6128 63.9191 98.7C64.0061 98.9618 64.4408 99.0491 64.7886 99.1364C64.8755 99.1364 64.9625 98.8745 65.0494 98.7873C65.0494 98.7873 65.0494 98.6128 64.9625 98.5255ZM70.9617 104.11C71.0487 103.587 70.1792 102.801 69.6575 103.151C68.5273 103.849 70.7009 105.245 70.9617 104.11ZM71.1356 102.452C70.527 102.714 71.5704 103.674 71.7442 103.063C71.8312 102.714 71.3095 102.365 71.1356 102.452ZM74.9613 107.95C74.9613 107.863 74.7004 107.776 74.7004 107.776C74.5265 108.037 74.3526 108.299 74.1787 108.561C74.0918 108.648 73.831 108.91 74.0048 109.085C74.2657 109.259 74.3526 108.91 74.4396 108.823C74.6135 108.561 75.0482 108.299 74.9613 107.95ZM77.9174 106.292C77.5696 107.165 77.3088 108.997 78.3521 108.474C79.0477 108.125 78.0913 107.426 77.9174 106.292ZM82.0908 111.702C81.9169 111.615 81.6561 111.528 81.5691 111.615C81.4822 111.702 81.3083 111.964 81.3952 112.139C81.5691 112.662 81.3083 113.797 82.0908 113.797C83.395 113.884 82.6994 112.139 82.0908 111.702ZM84.3514 113.099C84.3514 112.837 83.9167 112.837 83.8297 112.837C83.6558 112.924 83.395 113.011 83.395 113.186C83.395 113.36 83.7428 113.535 83.8297 113.535C84.0036 113.535 84.4383 113.448 84.3514 113.099ZM32.2708 79.8508C31.4014 79.9381 32.2708 82.2942 33.2272 81.3343C33.662 80.898 32.7925 79.7636 32.2708 79.8508ZM22.8807 63.445C22.8807 63.445 22.8807 63.3578 22.8807 63.445C22.8807 63.3578 22.8807 63.445 22.8807 63.445ZM22.8807 63.3578C22.9676 63.445 22.9676 63.445 22.8807 63.3578C23.0546 63.445 23.0546 63.445 23.1415 63.445C23.1415 63.3578 23.0546 63.3578 22.8807 63.3578ZM22.8807 63.445C22.8807 63.445 22.9676 63.445 22.8807 63.445C22.9676 63.6196 22.7068 64.0559 22.7937 64.1432C23.5762 65.6267 23.4893 67.3719 23.4893 68.9427C23.4893 69.9026 22.8807 70.8625 22.4459 71.7352C22.359 71.9097 21.5765 71.7352 21.4895 72.0842C21.4026 72.7824 21.9243 73.3932 22.7937 73.5677C22.9676 73.5677 23.0546 74.0913 23.0546 74.3531C23.0546 75.0513 23.6632 76.0984 23.0546 76.3602C22.2721 76.7093 21.4895 74.0041 21.4026 73.2187C21.3156 72.8696 20.8809 72.6951 20.794 72.346C20.6201 71.5607 21.0548 70.688 21.3156 69.8154C21.4895 69.2045 22.0112 68.6809 22.1851 67.9828C22.4459 67.1101 22.0982 65.7139 21.4026 65.4521C21.6634 65.1903 21.7504 64.4922 21.7504 64.0559C21.5765 63.1832 21.9243 63.8814 22.8807 63.445ZM22.4459 65.4521C22.359 65.3649 22.1851 65.3649 22.1851 65.4521C22.0982 65.6267 22.0982 65.8884 22.2721 66.063C22.2721 66.063 22.359 66.063 22.4459 66.063C22.6198 65.8884 22.6198 65.6267 22.4459 65.4521ZM52.9639 102.714C52.4423 102.976 52.5292 102.976 52.877 102.976C52.9639 102.889 52.9639 102.801 52.9639 102.714ZM44.3563 94.5113C44.1824 94.424 43.8346 94.3368 43.3999 94.424C43.0521 94.5113 43.3999 95.0349 43.313 95.2967C43.226 95.5585 43.0521 95.733 42.9652 95.9948C42.7043 96.6929 42.7913 97.6529 43.7477 97.3911C44.4432 97.2165 45.0519 95.733 44.7041 94.9476C44.6171 94.7731 44.4432 94.6858 44.3563 94.5113ZM52.9639 102.714C53.0509 102.714 53.1378 102.627 53.1378 102.627C53.0509 102.627 52.9639 102.627 52.9639 102.714ZM46.1822 99.9217C46.3561 100.533 46.7908 101.143 47.3125 100.969C47.6602 100.882 47.9211 100.271 47.8341 99.8345C47.7472 99.3109 47.2255 98.7873 46.7038 98.8745C46.5299 99.3109 46.443 99.6599 46.1822 99.9217ZM56.9635 101.667C56.9635 101.667 57.0504 101.754 56.9635 101.667C57.0504 101.667 57.0504 101.667 57.0504 101.667C57.0504 101.667 57.0504 101.667 56.9635 101.667ZM91.394 123.396C91.394 123.221 91.1332 123.221 91.0462 123.221C90.9593 123.221 90.8723 123.396 90.9593 123.571C90.9593 123.658 91.1332 123.745 91.2201 123.745C91.3071 123.658 91.481 123.57 91.394 123.396ZM92.8721 130.028C93.8285 129.679 93.1329 128.196 92.4374 128.196C91.8287 128.196 91.0462 128.719 91.1332 129.33C91.2201 130.115 92.3504 130.29 92.8721 130.028ZM29.4016 77.2329C29.4886 77.2329 29.5755 77.1456 29.5755 77.0583C29.5755 76.8838 29.4016 76.622 29.2277 76.5348C29.1408 76.5348 29.0538 76.622 29.0538 76.622C29.0538 76.9711 29.2277 77.2329 29.4016 77.2329ZM89.9159 126.188C89.9159 126.014 89.9159 125.403 89.4812 125.49C88.6117 125.665 89.742 127.41 88.9595 127.759C88.0901 128.196 87.3945 126.188 86.7859 126.537C85.9164 127.061 87.8292 130.988 90.6115 128.894C90.9593 128.632 90.7854 127.934 90.6115 127.846C89.9159 127.497 90.0029 126.799 89.9159 126.188ZM86.7859 123.832C86.525 124.007 86.525 124.53 86.6989 124.705C87.1337 124.879 87.3945 123.483 86.7859 123.832ZM93.3938 127.41C93.4807 127.323 93.5677 127.148 93.4807 127.061C93.2199 126.625 92.3504 126.276 92.3504 126.974C92.2635 127.585 92.8721 127.759 93.3938 127.41ZM91.5679 155.248C91.5679 155.335 91.6548 155.422 91.6548 155.422C91.8287 155.422 92.0896 155.248 92.1765 155.073C92.1765 154.986 92.0896 154.899 92.0026 154.899C91.8287 154.811 91.5679 155.073 91.5679 155.248ZM94.2632 125.752C94.611 125.49 94.611 124.879 94.3502 124.443C94.0024 123.92 93.2199 123.483 92.6982 123.832C92.2635 124.094 92.4374 124.792 92.5243 125.054C92.8721 125.578 93.7415 126.014 94.2632 125.752ZM91.0462 120.167C91.0462 120.08 90.9593 119.905 90.7854 119.905C90.6115 119.905 90.6115 120.167 90.6115 120.254C90.6115 120.342 90.7854 120.429 90.8723 120.429C91.0462 120.429 91.0462 120.254 91.0462 120.167ZM20.707 65.4521C20.794 65.4521 20.8809 65.5394 20.9679 65.5394C21.1418 65.7139 21.2287 65.6266 21.3156 65.5394C21.2287 65.5394 21.1418 65.4521 20.9679 65.4521C20.8809 65.3649 20.794 65.3649 20.707 65.4521ZM89.742 117.287C89.5682 116.502 89.0465 115.368 88.5248 115.891C88.0031 116.415 88.4379 117.549 89.0465 118.073C89.5681 118.509 89.829 117.724 89.742 117.287ZM86.525 116.851C87.2206 117.549 88.4379 115.455 87.3945 115.193C86.612 115.106 86.0034 116.415 86.525 116.851ZM10.9691 50.5298C10.9691 50.4426 10.8821 50.3553 10.7952 50.3553C10.7083 50.3553 10.5344 50.4426 10.5344 50.5298C10.5344 50.6171 10.6213 50.7044 10.7083 50.7044C10.7952 50.7044 10.9691 50.6171 10.9691 50.5298ZM87.4815 125.141C87.2206 125.839 88.264 125.665 88.5248 125.316C88.5248 125.229 88.4379 124.967 88.4379 124.967C88.177 125.054 87.6553 124.705 87.4815 125.141ZM89.2204 122.523C89.2204 122.611 89.3943 122.698 89.4812 122.698C89.5681 122.698 89.6551 122.523 89.6551 122.436C89.6551 122.349 89.5682 122.174 89.3943 122.174C89.2204 122.174 89.2204 122.436 89.2204 122.523ZM88.0031 121.476C87.3076 121.825 87.6553 123.483 88.4379 122.96C88.8726 122.698 88.6987 121.214 88.0031 121.476Z" fill="currentColor"/>
</svg>
