<svg width="89" height="59" viewBox="0 0 89 59" fill="none" xmlns="http://www.w3.org/2000/svg">
<path d="M21.8575 54.7233C21.7878 54.7233 21.7181 54.7233 21.7181 54.7934C21.6484 54.9335 21.6484 55.3539 21.9272 55.424C22.2757 55.424 22.0666 54.7934 21.8575 54.7233ZM22.2757 56.0546C22.1363 55.9845 22.0666 55.7043 22.206 55.5641C22.2757 55.494 22.3454 55.494 22.4151 55.5641C22.5545 55.7043 22.5545 55.9145 22.4151 56.0546C22.4151 56.0546 22.3454 56.0546 22.2757 56.0546ZM25.2029 49.258C25.412 49.328 25.5514 49.5382 25.6211 49.8185C25.6211 49.9587 25.6908 50.3791 25.412 50.3791C24.9939 50.3791 24.9242 49.6083 25.0636 49.328C25.0636 49.258 25.1333 49.258 25.2029 49.258ZM18.9999 51.0798C18.9302 50.9396 18.8606 50.7995 18.9303 50.7294C19 50.6593 19.209 50.6593 19.209 50.6593C19.2787 50.7995 19.4181 50.9396 19.3484 51.0097C19.2787 51.1498 18.9999 51.0798 18.9999 51.0798ZM42.2089 9.52926C42.2089 9.6694 41.9301 10.0197 41.7907 9.8796C41.6513 9.73946 41.9301 9.45921 42.0695 9.45921C42.1392 9.45921 42.2089 9.4592 42.2089 9.52926ZM23.5999 44.2831C23.5302 44.5634 23.0423 44.8437 22.903 44.6335C22.6939 44.4933 22.9029 43.9328 23.1817 43.8627C23.3908 43.8627 23.5999 44.143 23.5999 44.2831ZM25.8999 58.9975C25.5514 58.9975 25.3423 58.1566 25.6908 57.9464C26.0393 57.6662 26.4575 59.0675 25.8999 58.9975ZM26.3878 55.2838C25.5514 55.2838 25.0636 53.5321 25.6908 53.0417C25.7605 52.9716 25.9696 53.1818 26.0393 53.2519C26.3181 53.6022 26.8757 55.2838 26.3878 55.2838ZM42.9756 1.89182C43.0453 1.82176 43.1847 1.68163 43.2544 1.7517C43.3241 1.82177 43.3241 1.9619 43.2544 2.03197C43.1847 2.10204 43.0453 2.24218 42.9059 2.10204C42.9059 2.03198 42.9059 1.89182 42.9756 1.89182ZM43.0453 5.32517C42.9059 5.39523 42.6271 5.46532 42.5574 5.25511C42.4877 5.04491 44.021 4.55441 43.0453 5.32517ZM41.4423 0.560533C40.5362 0.910875 30.4302 8.1279 15.2363 10.3701C10.4273 11.0708 1.01822 11.4912 0.112171 15.3449C-0.933285 19.8994 5.5485 28.0974 10.4273 35.3845C13.2848 39.5885 16.7697 46.9457 16.9787 47.1559C17.2575 47.5063 17.4666 46.8756 17.8151 47.0859C18.0242 47.226 18.2333 47.3661 18.4424 47.5763C18.5818 47.7165 18.5818 47.9967 18.5818 48.1369C18.5121 48.6274 18.9302 48.7675 19.209 49.258C19.2787 49.3981 19.1393 49.5382 19.1393 49.6784C19.1393 49.7485 19.1393 49.7484 19.1393 49.7484C19.8363 50.309 19.9757 51.1498 20.3939 51.8505C20.7424 52.6212 21.0908 53.392 21.4393 54.1628C21.4393 54.2328 21.509 54.373 21.6484 54.3029C22.1363 54.2328 21.4393 53.6022 21.3696 53.3219C21.2999 52.9716 20.9515 52.2709 21.2302 52.2008C21.509 52.0607 22.0666 54.0927 22.5545 54.9335C23.0423 55.7743 22.903 57.8063 23.809 57.526C24.4363 57.3158 22.7636 55.0736 23.2514 54.8634C23.809 54.5832 24.0181 55.9845 24.4363 57.1757C24.506 57.3158 24.7151 57.3158 24.7151 57.3859C24.7848 57.5961 24.5757 57.8764 24.6454 58.0165C24.6454 58.0866 24.7151 58.0866 24.7848 58.0866C24.9939 58.0165 25.2029 57.8764 25.2726 57.6662C25.4817 56.8253 23.7393 55.494 24.6454 55.0036C25.2726 54.6532 24.9242 56.8954 25.4817 56.475C26.3878 55.7743 24.0878 54.3029 24.5757 53.392C24.5757 53.3219 24.6454 53.3219 24.7151 53.3219C24.9242 53.392 24.7151 54.0927 25.0636 54.0226C25.3423 53.9525 25.1332 53.6022 25.1332 53.4621C25.1332 53.1818 24.9242 52.9015 25.2029 52.7614C25.2726 52.6913 25.2726 52.7614 25.3423 52.8315C25.412 52.8315 25.4817 52.7614 25.5514 52.7614C25.6211 52.6913 25.6908 52.5512 25.6211 52.4811C25.5514 52.341 25.412 52.2008 25.3423 51.9906C25.2726 51.5002 25.5514 50.7995 25.2029 50.5192C24.9242 50.309 24.506 50.7294 24.2969 50.6593C24.0181 50.5893 24.0181 50.1689 24.2272 50.0988C24.3666 50.0287 24.506 50.2389 24.6454 50.2389C24.9242 50.1689 24.3666 49.6784 24.6454 48.9076C24.7151 48.7675 24.8545 48.7675 24.9939 48.6974C25.0636 48.6274 25.3423 48.4172 25.1332 48.2069C24.9939 48.0668 24.7151 48.5573 24.506 48.4172C24.2969 48.3471 24.3666 48.0668 24.3666 47.9267C24.3666 47.5063 24.2969 47.226 24.0181 46.8757C23.6696 46.3852 23.9484 45.7546 24.0181 45.194C24.0181 45.0539 24.2272 44.7035 24.0181 44.6335C23.7393 44.5634 23.6696 45.4042 23.2514 45.3341C22.3454 45.1239 22.8333 43.8627 22.6939 43.4423C22.5545 43.092 22.8333 42.6716 23.112 42.3212C23.2514 42.1811 23.5999 42.0409 23.4605 41.7607C23.3211 41.5505 22.9727 41.9008 22.903 41.6906C22.7636 41.3403 23.112 40.7096 23.5302 40.7797C24.1575 40.8498 23.6696 42.0409 24.1575 42.2511C24.2272 42.2511 24.2969 42.2511 24.2969 42.1811C24.506 41.8307 24.1575 41.4103 24.0181 41.06C23.809 40.4294 23.5999 39.7287 23.4605 39.0981C23.1817 37.9069 22.6939 36.8559 22.206 35.7348C21.2302 33.5627 21.1605 32.7219 21.5787 32.5117C22.6242 31.9511 28.3393 35.1042 29.5241 35.6647C38.7938 39.9389 47.7846 41.9709 48.4816 41.9709C48.5513 41.9709 48.621 41.9709 48.6907 41.9709C48.8998 41.9008 49.2483 41.8307 49.2483 41.5505C49.2483 41.4804 48.7604 41.4103 48.8998 41.13C49.1786 40.6396 49.9452 41.7607 50.224 41.4804C50.5028 41.2001 49.318 41.2001 49.5271 40.9199C49.6665 40.7096 49.9452 40.9198 50.0846 40.9899C50.6422 41.13 50.5028 40.9198 50.921 40.7797C51.6877 40.5695 52.3846 41.1301 53.1513 41.2702C53.2907 41.2702 53.4998 41.2702 53.6392 41.2001C54.1967 40.9198 54.9634 41.3403 54.4058 41.7607C54.0573 41.9709 53.6392 41.5505 53.221 41.4804C53.1513 41.4804 53.0119 41.4103 52.9422 41.4804C52.8028 41.5505 52.6634 41.6205 52.6634 41.6906C52.6634 41.8307 52.8028 41.9008 52.8725 41.9709C53.1513 42.0409 53.4998 42.0409 53.7786 42.111C54.0573 42.1811 54.3361 42.3913 54.7543 42.3212C54.824 42.3212 55.0331 42.2511 55.1028 42.111C55.1725 41.9709 55.0331 41.6906 55.1028 41.5505C55.3816 41.2001 55.7998 41.4103 56.0785 41.7607C56.2179 41.9008 56.6361 41.9709 56.5664 42.2511C56.4967 42.4613 55.7998 42.0409 55.7301 42.3913C55.4513 43.5824 57.7513 43.8627 58.9361 43.7926C59.2846 43.7926 59.5634 43.0219 59.9816 43.162C60.1209 43.162 60.0512 43.5824 60.33 43.5124C60.3997 43.5124 60.5391 43.3722 60.5391 43.2321C60.5391 43.0219 60.33 42.9518 60.33 42.8117C60.33 42.2511 60.5391 41.6906 61.0967 41.4103C61.2361 41.3403 61.5149 41.4804 61.724 41.5505C61.8634 41.6205 62.0028 41.8307 62.0028 41.9709C62.0028 42.1811 61.7937 42.2511 61.5846 42.1811C61.5149 42.1811 61.3755 42.111 61.3058 42.1811C61.2361 42.2511 61.2361 42.3212 61.2361 42.3212C61.5846 42.6015 61.8634 42.8818 62.2118 43.162C62.2118 43.162 62.2815 43.2321 62.3512 43.162C62.9088 42.9518 63.5361 43.092 64.024 42.6716C64.233 42.4614 65.1391 42.6015 65.2785 42.8818C65.2785 42.9518 65.3482 43.092 65.2088 43.092C64.8603 43.3022 63.8846 42.9518 64.0937 43.5124C64.1633 43.6525 64.3724 43.7226 64.4421 43.6525C64.93 43.3022 65.4179 43.6525 65.9058 43.6525C66.3936 43.6525 66.8118 43.6525 67.23 43.8627C67.4391 44.0029 67.8573 44.2131 67.5088 44.4233C67.23 44.6335 66.6027 44.0729 66.3239 44.4233C65.9755 44.7736 66.7421 45.1239 67.0906 45.1239C67.5785 45.194 67.927 44.4233 68.4148 44.5634C69.1118 44.7035 69.6694 45.1239 70.1573 45.5443C70.2967 45.6845 70.5754 45.6845 70.7845 45.4042C70.9239 45.194 70.7845 45.0539 70.6451 44.8437C70.5754 44.7736 70.5754 44.6335 70.436 44.6335C70.227 44.6335 70.1573 44.9838 70.0179 44.9838C69.8088 45.0539 70.227 44.7035 69.8785 44.2131C69.7391 43.9328 69.0421 44.2831 68.9724 43.9328C68.9724 43.7926 69.1118 43.7926 69.1815 43.7926C69.3906 43.7226 69.5997 43.5824 69.5997 43.3722C69.53 43.092 69.3209 43.162 69.1118 43.162C68.7633 43.162 68.3451 43.3022 67.9967 43.0219C67.4391 42.5314 67.0906 42.3913 66.533 42.3913C66.1846 42.3913 65.7664 42.3913 65.5573 42.111C65.3482 41.8307 64.9997 41.3403 65.2785 40.9899C65.4179 40.8498 65.627 41.06 65.7664 41.06C66.0452 40.9198 65.1391 40.7797 64.9997 40.2192C64.9997 40.079 65.2785 40.079 65.2785 39.9389C65.2088 39.4484 63.6058 40.2192 63.8846 39.3783C63.9543 39.0981 65.0694 38.8178 63.6058 38.6076C63.2573 38.5375 62.7694 38.3974 62.5603 38.6777C62.2118 39.028 62.5603 39.2382 63.0482 39.4484C63.2573 39.5185 63.8846 39.5185 63.6755 39.8688C63.5361 40.1491 63.0482 40.079 62.7694 40.2192C62.6997 40.2892 62.6997 40.4994 62.5603 40.5695C62.3512 40.5695 62.4209 40.1491 62.2118 40.079C62.0725 40.009 61.7937 40.3593 61.6543 40.1491C61.5846 40.079 61.6543 39.9389 61.6543 39.9389C61.724 39.8688 61.8634 39.7988 61.9331 39.7287C62.0028 39.6586 62.3512 39.6586 62.2815 39.5185C62.2118 39.4484 62.0725 39.4484 62.0028 39.5185C61.724 39.5886 61.5149 39.5886 61.3058 39.4484C61.2361 39.3783 61.0967 39.3783 60.9573 39.3783C60.4694 39.3783 59.9119 39.3783 59.424 39.3083C59.1452 39.2382 58.727 39.2382 58.6573 38.9579C58.5179 38.6777 58.9361 38.5375 59.2149 38.6777C59.424 38.8178 59.4937 39.0981 59.7725 39.0981C59.9816 39.0981 60.33 38.8879 60.2603 38.6076C60.1906 38.1872 59.2846 38.5375 59.2846 38.1872C59.2846 37.9069 59.4937 37.977 59.9119 37.5566C60.1906 37.2763 60.6088 37.7668 60.9573 37.7668C61.3755 37.7668 61.8634 37.8368 62.2815 37.9069C62.6997 37.977 62.7694 37.5566 63.0482 37.5566C64.3027 37.3464 64.3724 37.9069 64.9997 38.047C65.0694 38.047 65.2785 37.9069 65.3482 37.8368C65.4876 37.7668 65.7664 37.6967 65.9058 37.6967C66.2542 37.8368 66.6027 37.9069 66.9512 38.1171C67.2997 38.3273 67.9967 38.3974 68.0664 38.1872C68.2058 37.977 67.7179 37.977 67.6482 37.977C66.8815 37.7668 64.5118 36.7858 64.024 36.926C63.3967 37.1362 62.2815 36.996 62.1422 36.996C61.9331 36.996 61.724 37.1362 61.5846 36.926C61.5846 36.8559 61.4452 36.8559 61.3755 36.8559C60.7482 36.7158 59.9816 36.926 59.424 36.5055C59.2846 36.3654 59.4937 35.8049 59.2149 35.8049C59.0058 35.7348 59.0755 36.1552 58.9361 36.2253C58.7967 36.2953 58.5179 35.7348 58.3088 35.945C58.1694 36.1552 58.6573 36.2953 58.5876 36.4355C57.821 37.4164 55.6604 36.5756 55.1028 35.5246C54.8937 35.1042 55.7998 34.6838 55.5907 34.2634C55.2422 33.7028 53.7089 34.1933 53.8483 33.4926C53.918 33.0021 54.6149 33.3525 55.0331 33.5627C55.5907 33.843 56.1482 34.0532 56.5664 34.5436C56.6361 34.6137 56.8452 34.6137 56.9149 34.6137C57.124 34.6137 57.4725 34.4035 57.6119 34.6137C57.821 34.8239 57.3331 35.3144 57.6119 35.5947C58.0997 35.945 58.7967 35.3144 59.3543 35.3845C59.7725 35.4545 61.1664 35.5947 61.027 35.945C60.9573 36.1552 60.6785 35.945 60.5391 35.945C60.3997 36.0151 60.1209 35.945 60.1209 36.1552C60.0513 37.0661 60.7482 36.2253 61.5149 35.8049C61.724 35.7348 61.9331 35.945 62.0724 36.0151C62.5603 36.4355 63.0482 36.5756 63.2573 36.2253C63.6058 35.6647 61.6543 35.7348 61.9331 35.1742C62.0725 34.7538 63.0482 35.5947 63.1876 35.1042C63.2573 34.8239 63.1179 34.5436 63.0482 34.3334C62.9785 33.9831 62.7694 33.8429 62.4209 34.1232C61.7937 34.6137 61.5149 34.6137 61.027 33.9831C60.8876 33.843 60.7482 33.7028 60.6088 33.4926C60.4694 33.3525 60.2603 33.2123 60.2603 33.0021C60.1906 32.4416 61.2361 33.1423 61.3058 32.7219C61.3755 32.5817 61.0967 32.4416 61.027 32.4416C60.5391 32.2314 60.0513 31.9511 59.4937 31.9511C59.1452 31.9511 58.7967 31.2504 58.4482 31.5307C58.0997 31.811 58.8664 32.0212 58.7967 32.7219C58.7967 33.2824 57.821 33.0021 57.3331 32.7919C57.2634 32.7219 57.124 32.7219 57.0543 32.7919C56.7058 33.0021 56.427 32.7919 56.0785 32.6518C55.3816 32.2314 55.5907 32.6518 54.9634 33.1423C54.6149 33.4225 54.0573 33.0021 53.6392 32.7219C53.3604 32.5117 52.8725 32.3715 52.8028 32.7919C52.7331 32.9321 52.9422 33.1423 52.9422 33.2824C52.8725 33.6327 50.9907 33.3525 51.4089 32.6518C51.5483 32.4416 51.8271 32.9321 51.9664 32.7919C52.0361 32.7219 51.8967 32.5817 51.9664 32.4416C52.1058 32.3715 52.3846 32.6518 52.4543 32.4416C52.524 32.3015 52.3846 32.2314 52.3149 32.1613C51.8967 31.881 51.5483 31.881 51.2695 32.1613C51.1998 32.2314 51.1998 32.3014 51.1301 32.3014C50.921 32.3014 50.7119 32.1613 50.6422 32.0212C50.5725 31.9511 50.5725 31.8811 50.5725 31.8811C50.5725 31.3205 50.2937 31.1804 49.8058 31.4606C49.5271 31.6008 49.1089 31.881 49.0392 31.4606C48.9695 30.9702 49.8755 31.1804 50.224 31.0402C50.5725 30.9001 51.4089 31.3906 51.4786 30.9001C51.5483 30.2695 50.3634 30.3395 49.6665 30.3395C49.2483 30.3395 48.8301 30.3395 48.621 30.9001C48.4816 31.2504 48.2028 31.2504 47.8543 31.1103C47.6453 31.0402 47.5059 31.0402 47.2968 30.9701C47.1574 30.9001 47.018 30.83 46.8786 30.76C46.8089 30.76 46.8786 30.4797 46.9483 30.4797C47.0877 30.4797 47.2968 30.4096 47.4362 30.4797C47.924 30.6899 48.4816 30.83 48.3422 30.1994C48.2725 29.5688 47.4362 30.1994 46.7392 30.0593C46.5301 29.9892 46.5998 29.6389 46.4604 29.5688C45.8331 29.3586 46.2513 29.9892 46.1119 30.6198C46.1119 30.6899 45.9725 30.76 45.9028 30.76C45.4847 31.0402 45.2756 30.9702 45.2059 30.4797C45.2059 30.2695 44.9271 30.0593 44.9968 29.779C45.1362 29.4987 45.7635 29.6389 45.9725 29.3586C46.321 28.798 44.6483 28.728 44.9271 28.2375C44.9968 28.1674 45.1362 28.2375 45.2059 28.1674C45.2756 28.1674 45.5544 28.2375 45.5544 28.0273C45.6241 27.3967 44.1604 27.6769 44.1604 27.1865C44.1604 26.9062 44.6483 27.1865 44.8574 27.1865C45.2059 27.2565 45.6241 27.4667 45.9725 27.1865C46.1119 27.1164 46.3907 27.2565 46.5301 27.1164C46.8089 26.9763 46.7392 26.6259 46.5301 26.4858C46.3907 26.3456 46.0422 26.4858 45.9725 26.4858C45.5544 26.4157 45.2756 26.2756 44.9968 26.1354C44.718 25.9953 44.5089 25.7851 44.2998 25.5048C44.0907 25.2946 43.8119 25.1545 43.6028 24.7341C43.6028 24.664 43.8119 24.3137 43.5332 24.1735C42.9059 23.8933 42.4877 24.4538 41.9998 24.1035C41.8604 24.0334 41.6513 23.8933 41.4423 23.9633C41.3726 23.9633 41.3726 24.0334 41.3726 24.1035C41.3726 24.2436 41.6513 24.3137 41.721 24.4538C41.8604 24.664 42.0695 24.8742 41.9301 25.1545C41.8604 25.2946 41.8604 25.5749 41.9998 25.645C42.1392 25.715 42.418 25.9252 42.6271 25.715C42.8362 25.5048 42.2089 25.2246 42.418 25.0143C42.7665 24.7341 43.3241 25.1545 43.4635 25.4348C43.6028 25.715 43.6028 26.1355 43.3938 26.2756C43.1847 26.4157 42.8362 26.0654 42.4877 25.9953C42.3483 25.9252 42.2089 25.9953 41.9998 25.9953C41.8604 25.9953 41.6513 26.0654 41.5816 25.9953C41.0241 25.715 40.9544 26.3456 40.2574 26.4157C39.9786 26.4858 39.8392 26.0654 39.6998 25.8552C39.4908 25.5048 39.212 25.4348 38.9332 25.4348C38.3059 25.5048 37.6786 25.1545 37.7483 24.5939C37.818 23.8933 39.1423 25.2946 39.421 24.8042C39.4907 24.664 39.3514 24.5239 39.2817 24.4538C38.6544 24.1035 38.0968 23.613 37.3999 23.4729C37.1211 23.4028 36.8423 23.1225 36.6332 22.9824C36.3544 22.8422 35.6574 22.4218 35.6574 22.9123C35.5877 23.6831 37.4695 23.5429 37.3302 24.0334C37.2605 24.1735 36.7029 24.2436 36.4241 24.0334C36.0059 23.7531 35.7271 23.5429 35.309 23.4028C34.8908 23.2627 34.3332 22.8422 34.2635 22.4218C34.1938 22.2116 34.2635 22.0014 34.1938 21.7212C34.1241 21.4409 33.915 21.3007 33.6362 21.3007C33.3574 21.3007 33.4968 21.5109 33.2877 21.6511C32.8696 21.9314 32.312 21.3007 31.8938 21.0905C31.4756 20.8103 31.1272 20.4599 30.7787 20.1796C30.3605 19.8293 30.0817 19.2688 30.2908 18.8484C30.3605 18.6381 30.7787 18.7082 30.8484 18.5681C30.9878 18.2177 30.2908 17.9375 30.4302 17.5871C30.5696 17.3068 30.9181 17.5171 31.0575 17.447C31.2665 17.3068 31.2665 16.5361 31.1272 16.396C31.0575 16.3259 30.9181 16.2558 30.9181 16.1857C31.0575 15.415 32.2423 15.415 32.8696 14.9946C33.6362 14.5041 34.4726 14.1538 35.2393 13.6633C36.2847 13.0327 37.2605 12.332 38.2362 11.6313C39.2817 10.9306 40.6756 10.0198 40.9544 9.73948C41.0241 9.66941 41.0938 9.52928 41.0241 9.45921C40.6756 9.17894 38.0271 11.7014 37.818 11.0708C37.7483 10.9306 38.0968 10.8606 38.2362 10.7204C38.8635 10.1599 39.3514 9.45921 40.0483 9.0388C40.2574 8.89866 40.3968 8.61838 40.1877 8.47824C39.6998 8.19797 39.5604 9.0388 39.0029 9.0388C38.5847 9.0388 37.9574 9.87962 37.7483 9.45921C37.1908 8.47825 39.4907 7.98778 40.3271 7.35716C41.5119 6.51634 42.7665 5.74559 44.0907 5.18504C44.4392 5.0449 45.3453 4.90477 45.1362 4.48436C44.9968 4.06395 42.6271 5.81565 42.418 5.39524C42.3483 5.2551 42.6271 5.11496 42.5574 5.0449C42.4877 4.97483 42.3483 4.97482 42.2089 4.97482C41.9998 5.04489 41.8604 5.60544 41.6513 5.39524C40.8847 4.55442 44.021 3.7136 43.8119 3.29319C43.7422 3.15305 42.9059 3.64354 42.4877 3.78368C42.2089 3.92381 39.8392 4.48436 39.3514 4.76463C39.3514 4.76463 39.0726 4.90476 39.0726 4.69455C39.0029 4.13401 39.9089 4.20408 40.2574 3.99388C41.0938 3.57347 41.8604 3.083 42.6968 2.80272C43.115 2.66259 44.3695 1.89182 44.2301 1.54148C44.1604 1.33128 43.1847 1.82176 42.9756 1.9619C42.7665 2.1721 42.4877 2.31225 42.2786 2.45238C41.9301 2.66259 41.5816 2.73264 41.2332 2.94285C40.6756 3.36326 39.6998 3.78367 39.1423 3.64353C39.0029 3.64353 38.9332 3.43333 39.0029 3.36326C39.9089 2.59251 41.8604 2.3823 41.721 1.89182C41.6513 1.68162 41.4423 1.68162 41.4423 1.54148C41.3726 1.19114 41.8604 1.05102 41.8604 0.630606C41.8604 0.280264 40.8847 1.05101 41.0241 0.490461C41.0938 0.280256 41.6513 0.280268 41.6513 -5.85774e-06C42.1392 0.140131 41.6513 0.420397 41.4423 0.560533ZM59.424 32.6518C59.3543 32.4416 59.5634 32.3015 59.7028 32.2314C59.7725 32.2314 59.8422 32.3014 59.8422 32.3014C59.9119 32.5116 59.5634 33.0021 59.424 32.6518ZM59.5634 42.9518C59.3543 42.8818 59.1452 42.4614 59.424 42.3212C59.6331 42.111 59.9816 42.3913 59.9816 42.6015C60.0512 42.8117 59.7725 43.0219 59.5634 42.9518ZM58.727 42.6716C58.7967 42.6015 58.9361 42.7416 59.0755 42.7416L59.0755 42.8818C58.9361 42.8818 58.7967 43.0219 58.727 42.8818C58.6573 42.8818 58.727 42.7416 58.727 42.6716ZM56.427 39.9389C56.5664 39.6586 57.0543 39.8688 57.124 40.009C57.124 40.3593 56.2179 40.3593 56.427 39.9389ZM57.1937 40.2192C57.4028 39.8688 58.0301 40.6396 57.6119 40.7797C57.4028 40.7797 57.124 40.4294 57.1937 40.2192ZM56.0785 40.5695C56.0785 41.2001 54.7543 41.06 54.6846 40.5695C54.6149 39.9389 56.0785 40.009 56.0785 40.5695ZM59.7725 39.6586C60.0513 39.5886 60.6785 39.8688 60.6088 40.2192C60.5391 40.4294 60.33 40.2192 60.2603 40.2892C60.1209 40.3593 59.9119 40.4294 59.8422 40.5695C59.7725 40.6396 59.9816 40.8498 60.0513 40.9199C60.1906 41.06 60.5391 41.13 60.4694 41.3403C60.3997 41.7607 59.8422 41.5505 59.6331 41.3403C59.4937 41.2001 59.3543 41.2702 59.1452 41.4103C58.727 41.6205 59.1452 42.0409 58.9361 42.3212C58.6573 42.6716 57.8907 42.8818 57.6119 42.6015C57.0543 41.9709 57.4725 42.0409 57.3331 41.4804C57.2634 41.3403 57.4725 41.1301 57.6119 41.06C57.7513 40.9899 57.8907 41.2001 57.9604 41.13C58.0997 40.9899 57.8907 40.7797 57.9604 40.7096C58.1694 40.2892 58.5876 39.7988 58.9361 40.009C59.424 40.2892 58.9361 40.9198 59.424 40.6396C59.6331 40.3593 59.424 39.7287 59.7725 39.6586ZM57.821 37.3464C57.9604 37.4865 57.821 37.7668 57.7513 37.8368C57.6119 37.9069 57.4725 37.7668 57.2634 37.6967C57.2634 37.6967 57.1937 37.6266 57.2634 37.5566C57.3331 37.4164 57.6119 37.2062 57.821 37.3464ZM50.224 33.913C50.8513 33.7028 51.1998 34.6838 51.8271 34.7538C52.3846 34.8239 53.5695 35.7348 53.6392 34.964C53.6392 34.7538 53.1513 34.8239 53.221 34.6137C53.5695 33.7729 55.1028 34.5436 54.7543 35.1742C54.6149 35.5246 53.9876 34.6838 53.8483 35.1042C53.7089 35.5246 54.5452 35.3144 54.5452 35.5947C54.5452 35.945 54.127 36.1552 53.918 36.2953C53.0816 36.7858 51.6877 36.5756 51.4089 35.7348C51.3392 35.3845 51.8967 35.4545 52.1755 35.5947C52.3846 35.6647 52.5937 35.7348 52.8028 35.7348C52.9422 35.7348 53.1513 35.6647 53.1513 35.5246C53.1513 34.5436 51.5483 35.2443 50.7816 35.2443C50.7119 35.2443 50.6422 35.3144 50.6422 35.3845C50.6422 35.4545 50.7119 35.3845 50.7816 35.4545C50.7816 35.4545 50.8513 35.4545 50.8513 35.5246C50.8513 35.5246 50.921 35.5947 50.921 35.6647C50.7119 35.8749 50.3634 35.5947 50.1543 35.3845C50.0149 35.3144 50.224 34.964 50.0149 34.7538C49.8059 34.6137 49.3877 34.964 49.1786 34.7538C48.7604 34.4736 48.2028 34.7538 48.0634 34.2634C47.9937 33.913 48.5513 33.913 48.8301 33.9831C49.0392 34.0532 49.2483 34.1232 49.4574 34.1933C49.8058 34.2634 49.8755 33.9831 50.224 33.913ZM59.1452 33.5627C59.1452 33.5627 59.0755 33.4926 59.1452 33.4225C59.2149 33.3525 59.3543 33.2824 59.424 33.3525C59.424 33.3525 59.4937 33.4225 59.424 33.4926C59.3543 33.6327 59.2149 33.6328 59.1452 33.5627ZM57.1937 33.2123C57.5422 33.0722 58.5876 33.0021 58.7967 33.5627C59.1452 34.3334 58.3785 34.2634 57.8907 34.2634C57.3331 34.2634 56.7755 33.9831 56.2876 33.6327C56.2179 33.5627 56.0785 33.4926 56.1482 33.3525C56.3573 33.0021 56.9149 33.3525 57.1937 33.2123ZM23.8787 52.8315C23.7393 52.8315 23.5999 52.6913 23.5999 52.6213C23.5302 52.2008 23.9484 51.9206 24.2272 51.7804C24.7848 51.5702 25.4817 52.411 24.9242 52.5512C24.7151 52.6212 24.7848 52.0607 24.5757 52.0607C24.2969 52.0607 24.4363 52.4811 24.3666 52.5512C24.2272 52.7614 24.0181 52.8315 23.8787 52.8315ZM22.6939 53.9525C22.6242 53.6723 22.2757 53.2519 22.4848 53.1117C22.9727 52.7614 23.4605 54.443 23.2514 54.5832C22.8333 54.6532 22.7636 54.1627 22.6939 53.9525ZM21.7878 51.7804C21.7878 51.7104 21.7181 51.4301 21.8575 51.4301C22.2757 51.4301 22.3454 52.0607 22.4848 52.341C22.5545 52.5512 22.6939 52.7614 22.4151 52.8315C22.3454 52.8315 22.206 52.7614 22.206 52.6913C22.0666 52.341 21.8575 52.1308 21.7878 51.7804ZM20.8818 51.2899C21.0212 51.36 21.1605 51.9206 20.7424 51.7804C20.5333 51.7104 20.603 51.36 20.6727 51.2899C20.6727 51.2899 20.8121 51.2899 20.8818 51.2899ZM23.809 49.7484C23.6696 49.6784 23.4605 49.0478 23.809 49.1178C24.0181 49.1879 24.0878 49.5382 23.9484 49.6784C24.0181 49.7485 23.8787 49.8185 23.809 49.7484ZM20.0454 49.9587C20.1848 49.8185 20.5333 49.8886 20.603 50.1689C20.6727 50.3791 20.3939 50.6593 20.1151 50.5893C19.906 50.4491 19.906 50.0287 20.0454 49.9587ZM20.1848 49.5382C20.2545 49.6784 20.1151 49.8185 20.0454 49.8185C19.7666 49.7485 19.9757 49.328 20.1848 49.5382ZM21.0908 49.0478C21.2999 49.1178 21.3696 49.5382 21.2302 49.7484C21.2302 49.8185 21.0908 49.8185 21.0212 49.8185C20.603 49.7485 20.7424 48.9777 21.0908 49.0478ZM22.6939 38.6777C22.903 38.8178 22.903 39.1681 22.9727 39.3783C23.112 39.5885 23.3211 39.7988 23.3211 40.1491C23.3211 40.3593 23.2514 40.8498 22.9727 40.8498C22.7636 40.8498 22.9727 40.4294 22.903 40.4294C22.3454 40.1491 22.5545 39.5185 22.3454 39.0981C22.206 38.8178 22.4151 38.5375 22.6939 38.6777ZM21.7181 36.4355C21.7878 36.4355 22.1363 36.6457 21.9272 36.8559C21.7878 36.996 21.5787 36.7858 21.509 36.7158C21.4393 36.6457 21.4393 36.5055 21.509 36.4355C21.509 36.4355 21.6484 36.3654 21.7181 36.4355ZM42.9756 27.2565C42.8362 27.4667 43.3938 27.747 43.1847 27.8872C42.6968 28.4477 40.9544 27.6069 41.3029 26.8361C41.721 25.9953 44.2998 27.1865 44.3695 27.3266C44.4392 27.3967 44.3695 27.5368 44.2998 27.4667C44.0907 27.3967 43.8816 27.3266 43.6725 27.2565C43.5332 27.3266 43.1847 27.0463 42.9756 27.2565ZM50.5028 32.5817L50.5028 32.5117C50.6422 32.4416 50.921 32.4416 50.9907 32.6518C51.1301 33.0021 50.5725 32.7219 50.5028 32.5817ZM37.6089 10.2299L37.6786 10.3C37.6089 10.4402 37.3302 10.5803 37.1908 10.5102C37.1211 10.5102 37.1211 10.4402 37.1211 10.3701C37.1908 10.23 37.4696 10.1599 37.6089 10.2299ZM40.4665 2.59251C40.6059 2.80271 40.3968 2.87279 40.2574 3.01292C39.9089 3.36326 39.212 3.5034 39.0726 3.29319C38.8635 3.01292 40.3271 2.31223 40.4665 2.59251ZM41.7907 2.10204C41.8604 2.38232 40.7453 2.80272 40.7453 2.45238C40.7453 2.17211 41.1635 2.10203 41.5119 1.9619C41.5119 2.03197 41.7907 2.03198 41.7907 2.10204ZM82.2845 41.9008C82.1451 41.9008 81.936 41.7607 81.936 41.6906C81.936 41.4103 82.1451 41.4804 82.2845 41.4804C82.4936 41.4804 82.633 41.6205 82.7723 41.6205C83.0511 41.6205 83.3996 41.9008 83.539 41.4103C83.539 41.3403 83.7481 41.2001 83.9572 41.13C84.3754 40.9899 84.7935 41.13 85.0723 41.4804C85.2117 41.6205 85.3511 41.6205 85.5602 41.6906C86.1178 41.9008 86.3966 41.8307 86.1875 42.6716C86.1875 42.7416 86.1875 42.7416 86.1875 42.8117C85.9784 42.9518 85.6996 42.5314 85.3511 42.5314C85.3511 42.5314 85.142 42.6015 84.9329 42.6015C84.5148 42.6015 84.0269 42.8117 83.6784 42.6015C83.6087 42.5314 83.6087 42.4613 83.539 42.3913C83.1208 42.0409 82.7723 41.8307 82.2845 41.9008ZM84.0966 39.5885C83.9572 39.3783 83.4693 39.5885 83.3299 39.3783C83.3299 39.3083 83.3299 39.2382 83.3299 39.2382C83.4693 39.0981 83.7481 39.0981 83.8875 39.1681C84.3057 39.3783 85.2117 39.1681 85.2117 39.7287C85.2117 40.009 84.9329 40.2192 84.6542 40.2892C84.0269 40.4294 84.3754 40.079 84.0966 39.5885ZM86.3966 40.9199C85.9087 41.1301 84.8632 41.06 85.142 40.3593C85.3511 39.8688 85.6996 40.2192 86.1178 40.3593C86.3269 40.4294 86.536 40.5695 86.7451 40.4994C87.3723 40.3593 87.8602 40.6396 88.4178 40.7797C88.6269 40.8498 89.1147 40.7797 88.9753 41.06C88.6966 41.5505 87.9299 41.13 87.6511 40.9899C87.2329 40.6396 86.8844 40.7096 86.3966 40.9199ZM80.1936 42.3913C80.2633 42.3913 80.4027 42.6015 80.333 42.6716C80.2633 42.7416 80.0542 42.6015 80.0542 42.4614C80.0542 42.4614 80.1239 42.3913 80.1936 42.3913ZM67.5088 42.3913C67.3694 42.4613 67.0906 42.5314 67.0906 42.3913C66.8815 41.3403 68.4148 41.8307 69.1815 42.0409C69.5997 42.111 69.9482 42.4613 69.6694 42.7416C69.53 42.8117 69.3906 42.7416 69.2512 42.6716C68.6239 42.3212 68.0664 42.1811 67.5088 42.3913ZM86.8147 43.3722C86.6754 43.3022 86.536 43.0219 86.6754 42.9518C86.8147 42.8818 87.0238 43.092 86.9541 43.2321C87.0238 43.3722 86.8844 43.4423 86.8147 43.3722ZM80.9602 45.0539C80.7511 45.194 80.4724 44.7736 80.6118 44.6335C80.8208 44.4933 81.239 44.9137 80.9602 45.0539ZM76.1512 43.0219C76.0118 43.4423 74.2694 43.092 74.0603 42.8117C73.9209 42.6015 74.1997 42.4614 74.4088 42.4614C74.8966 42.5314 75.3148 42.6015 75.8027 42.6716C75.9421 42.7416 76.2209 42.8117 76.1512 43.0219ZM80.4027 44.6335C79.4269 45.4042 78.033 45.8246 77.7542 44.7736C77.6845 44.4933 78.2421 44.2831 78.1724 44.0028C78.033 43.6525 77.4057 43.9328 77.1966 43.6525C77.1269 43.5824 77.336 43.3722 77.1966 43.3022C77.0572 43.162 76.7784 43.4423 76.639 43.4423C76.4996 43.4423 76.3603 43.3022 76.3603 43.162C76.3603 43.092 76.4997 42.8818 76.5693 42.8117C76.7784 42.7416 77.1269 42.8117 77.2663 42.7416C77.6845 42.5314 77.7542 42.9518 78.1027 43.0219C78.3118 43.0219 78.3118 42.7416 78.3118 42.7416C78.6602 42.6015 78.8693 43.0219 79.1481 42.9518C80.2633 42.6716 80.6118 42.9518 80.6118 42.9518C80.8905 42.7416 80.6117 42.0409 80.8905 41.9709C81.5178 41.9008 81.6572 42.6015 82.0754 42.4614C82.5633 42.3212 82.9814 42.3212 83.3996 42.5314C83.4693 42.5314 83.6784 42.6716 83.7481 42.7416C84.1663 43.092 84.7239 42.8818 85.142 42.7416C85.2117 42.7416 85.4208 42.6716 85.4905 42.8117C85.6299 43.092 85.3511 43.3722 85.142 43.4423C84.9329 43.5824 84.5845 43.162 84.3754 43.3722C84.3057 43.4423 84.3754 43.5824 84.3754 43.6525C84.3754 43.7926 84.4451 43.8627 84.3754 43.9328C83.9572 44.4233 84.0966 43.7926 83.539 43.4423C83.3996 43.3022 83.1208 43.5124 82.9117 43.4423C82.7026 43.3722 82.5633 42.9518 82.2845 43.092C82.0057 43.2321 82.1451 43.6525 82.2845 43.7926C82.4936 44.0028 83.1905 43.7226 83.0511 44.143C82.9117 44.5634 82.4239 45.4042 81.936 44.9137C81.6572 44.6335 81.6572 44.143 81.936 43.7226C82.0057 43.6525 82.0057 43.4423 81.936 43.3722L81.8663 43.3722C81.5875 43.5824 81.8663 44.143 81.5875 44.3532C81.3784 44.4933 81.239 44.2831 81.0996 44.2831C80.8208 44.4233 80.4724 44.5634 80.4027 44.6335ZM54.4058 29.779C54.6846 29.7089 54.824 30.0593 54.824 30.1994C54.824 30.4797 54.3361 30.76 54.1967 30.4797C54.127 30.2695 54.127 29.8491 54.4058 29.779ZM41.0938 23.5429C41.3029 23.4028 41.6513 23.7531 41.5816 23.9633C41.512 24.4538 40.7453 23.683 41.0938 23.5429ZM35.5877 22.1415C35.518 22.4218 35.0302 22.632 34.8211 22.3518C34.4029 21.9314 35.7271 21.5109 35.5877 22.1415ZM52.3149 29.1484C52.3149 29.1484 52.3846 29.2885 52.3846 29.3586C52.3846 29.4287 52.3149 29.6389 52.1755 29.6389C51.8967 29.5688 52.0361 29.2885 52.0361 29.2184C52.1058 29.1484 52.2452 29.1484 52.3149 29.1484ZM37.818 22.3518C37.7483 23.0524 35.9362 22.4218 36.215 21.7912C36.4938 21.1606 37.8877 21.7912 37.818 22.3518ZM48.4816 28.0973C48.1331 28.1674 48.3422 27.8872 48.2725 27.6069C48.2028 27.2565 47.2271 27.4668 47.4362 26.9763C47.5756 26.696 47.924 26.9062 48.1331 27.0463C48.2725 27.1164 48.4816 27.2565 48.621 27.2565C49.1786 27.1865 49.5271 27.6769 50.0846 27.747C50.2937 27.747 50.5028 27.8872 50.7119 28.0273C50.921 28.1674 51.4089 28.3776 51.0604 28.6579C50.6422 28.9382 50.0149 28.5178 49.5271 28.3776C49.1786 28.3076 48.8998 28.0273 48.4816 28.0973ZM49.8058 27.1865C49.6665 27.1865 49.5271 27.0463 49.3877 26.9763C49.1786 26.9062 48.9695 26.8361 48.7604 26.7661C48.4119 26.696 48.0634 26.696 47.715 26.4858C47.1574 26.2055 46.0422 26.0654 46.1816 25.5048C46.3907 24.5939 51.8967 26.9763 51.6877 27.677C51.4786 28.3076 50.7119 27.6769 50.3634 27.4667C50.224 27.2565 50.0846 27.1865 49.8058 27.1865ZM35.4483 22.632C35.5877 22.632 35.7271 22.7021 35.7271 22.8422C35.7271 22.9123 35.6574 22.9824 35.5877 22.9824C35.4483 22.9824 35.309 22.8422 35.309 22.7021C35.3787 22.7021 35.3786 22.632 35.4483 22.632ZM33.8453 18.5681C33.7756 18.4279 33.4271 18.2878 33.5665 18.0776C33.7059 17.9375 33.8453 18.0776 33.915 18.1477C34.8211 18.7082 35.7271 19.2687 36.4938 20.0395C36.5635 20.1096 36.6332 20.1796 36.5635 20.2497C36.4938 20.3899 36.215 20.2497 36.1453 20.3898C36.0756 20.53 36.3544 20.6701 36.2847 20.7402C36.2847 20.8103 36.215 20.8803 36.1453 20.8103C35.1696 20.2497 34.612 19.4089 33.8453 18.5681ZM31.8241 18.4279C31.615 18.2878 31.615 18.0075 31.8241 17.9375C31.8938 17.9375 31.9635 17.8674 32.0332 17.9375C32.1726 18.0075 32.0332 18.2177 32.0332 18.4279C31.9635 18.4279 31.8241 18.498 31.8241 18.4279ZM83.1905 39.8688C83.1208 40.079 82.9117 40.1491 82.7723 40.2192C82.1451 40.2892 81.6572 39.7987 81.239 39.3783C81.0996 39.2382 80.6814 38.8879 80.8905 38.6777C81.5178 38.047 83.4693 38.8178 83.1905 39.8688ZM31.8938 19.6892C31.7544 19.7592 31.4756 19.549 31.4756 19.4089C31.5453 19.0585 32.2423 19.6191 31.8938 19.6892ZM34.8908 21.3007C33.9847 20.9504 34.1241 21.0905 33.4271 20.7402C33.1484 20.6 33.4968 20.1796 33.6362 20.0395C34.0544 19.549 34.3332 20.2497 34.612 20.4599C34.7514 20.53 34.7514 20.6701 34.9605 20.6701C35.4483 20.6701 36.2847 21.1606 36.1453 21.6511C36.0059 22.0014 35.5877 21.6511 35.3786 21.5109C35.1696 21.4409 35.0302 21.3007 34.8908 21.3007ZM32.5211 20.8803C32.6605 20.6001 33.3574 20.8103 33.2877 21.1606C33.1484 21.581 32.312 21.2307 32.5211 20.8803ZM33.0787 19.9694C32.8696 20.1096 32.5908 20.0395 32.6605 19.8293C32.6605 19.6191 33.009 19.6191 33.1484 19.7592C33.1484 19.7592 33.0787 19.8994 33.0787 19.9694ZM33.2181 17.5171C33.2878 17.5171 33.4271 17.6572 33.3574 17.7273C33.3574 17.7973 33.218 17.7973 33.1484 17.7973C33.0787 17.7973 33.009 17.7273 33.009 17.6572C33.0787 17.5871 33.1484 17.5171 33.2181 17.5171ZM70.5754 38.047C70.5057 38.047 70.436 37.977 70.5057 37.9069C70.5057 37.8368 70.6451 37.8368 70.7148 37.8368C70.7148 37.8368 70.8542 37.9069 70.7845 38.047C70.7148 38.1171 70.6451 38.1171 70.5754 38.047ZM73.3633 37.2763C73.0148 37.6967 73.5724 38.1872 74.1997 38.3273C74.2694 38.3273 74.4784 38.4675 74.4784 38.5375C74.3391 38.9579 72.5966 38.6777 72.736 38.047C72.8754 37.4865 73.0845 37.6266 73.0148 37.0661C72.9451 36.7158 72.5269 36.5756 72.2482 36.5055C71.5512 36.4355 70.8542 35.945 70.7148 35.3144C70.7148 35.2443 70.7148 35.1042 70.8542 35.0341C71.133 34.894 71.4815 35.3144 71.7603 35.1742C72.1785 35.0341 72.2482 35.4545 72.5966 35.5246C72.736 35.5246 72.8057 35.5947 72.9451 35.5246C73.3633 35.3144 73.9209 35.4545 73.8512 35.8749C73.7815 36.2253 72.9451 36.0151 73.0148 36.4355C73.0148 36.7157 73.5027 36.6457 73.7118 36.7158C73.9209 36.7858 74.13 36.7858 74.2694 36.8559C74.8269 37.0661 75.3148 37.3464 75.9421 37.2763C76.1512 37.2763 76.4996 37.4164 76.2209 37.6967C75.3845 38.3273 73.9906 36.5756 73.3633 37.2763ZM75.9421 38.6076C75.733 38.8879 75.1057 38.5375 75.1057 38.2573C75.2451 37.6967 76.1512 38.3273 75.9421 38.6076ZM71.0633 37.5566C71.0633 37.2062 71.83 37.1362 71.8997 37.5566C71.8997 37.977 71.0633 37.9069 71.0633 37.5566ZM78.7996 38.4675C78.5208 38.6777 78.3118 38.8178 77.9633 38.7477C77.6845 38.6777 77.1966 38.8178 77.0572 38.5375C76.9875 38.3974 76.9875 38.047 77.2663 37.977C77.6845 37.9069 77.8239 38.3273 78.1027 38.1872C78.3118 38.1171 78.4512 38.047 78.6602 38.047C78.7299 38.047 78.8693 38.1171 78.939 38.1872C78.939 38.2572 78.8693 38.3974 78.7996 38.4675ZM78.3815 39.7287C78.2421 39.7287 78.2421 39.5185 78.2421 39.3783C78.2421 39.3783 78.3815 39.2382 78.4512 39.3083C78.5208 39.3783 78.5905 39.4484 78.5905 39.5185C78.5209 39.5886 78.4512 39.7987 78.3815 39.7287ZM56.0088 30.83C56.1482 30.4096 56.7755 31.0402 56.5664 31.2504C56.4967 31.3205 56.3573 31.1804 56.2876 31.1103C56.2179 31.0402 55.9392 30.9702 56.0088 30.83ZM80.6814 39.3783C80.6118 39.4484 80.4027 39.5185 80.2633 39.5185C79.7754 39.2382 78.6602 38.8178 79.2178 38.2573C79.2875 38.1171 79.5663 38.1872 79.636 38.2573C79.9845 38.4675 80.333 38.7477 80.6118 39.028C80.6814 39.028 80.7511 39.3083 80.6814 39.3783ZM63.7452 35.4545C63.6755 35.4545 63.6058 35.4545 63.5361 35.3144C63.2573 34.6838 64.233 34.4035 64.5815 34.6137C65.4876 35.1743 64.6512 35.7348 63.7452 35.4545ZM66.1149 34.4035C66.0452 34.3334 65.9755 34.2634 65.9058 34.1933C65.627 33.9831 65.4179 33.7729 65.4876 33.4225C65.5573 33.1423 65.3482 33.0722 65.0694 33.2123C64.9997 33.2824 64.93 33.4225 64.7906 33.3525C64.3724 33.2123 64.6512 32.7219 64.93 32.5817C65.2088 32.4416 65.4876 32.3715 65.7664 32.6518C65.9755 32.862 66.2542 32.9321 66.533 33.0021C66.8118 33.0722 67.3694 33.0722 67.23 33.5627C67.1603 33.7729 66.8118 33.913 66.8118 34.1232C66.8118 34.6137 67.1603 34.7538 67.0209 34.894C66.8118 35.0341 66.3239 34.894 66.1149 34.6137C66.1846 34.5436 66.1149 34.4736 66.1149 34.4035ZM55.5907 31.3205C55.6604 30.9701 56.3573 31.5307 56.0785 31.6708C55.8695 31.811 55.5907 31.5307 55.5907 31.3205ZM64.4421 33.1423C64.024 33.913 63.1876 33.2123 63.4664 32.7919C63.8846 32.1613 64.7209 32.6518 64.4421 33.1423ZM69.3209 35.2443C69.3906 35.2443 69.4603 35.3144 69.3906 35.3845C69.3906 35.4545 69.3209 35.5246 69.1815 35.4545C69.1118 35.4545 69.1118 35.3144 69.1118 35.2443C69.1815 35.1743 69.2512 35.1743 69.3209 35.2443ZM62.2118 33.4225C62.0028 33.7028 61.5846 33.3525 61.5149 33.1423C61.5149 33.0722 61.5149 33.0021 61.5846 32.9321C61.7937 32.7919 62.4906 33.0722 62.2118 33.4225ZM65.5573 35.3845C65.627 35.3144 65.7664 35.3144 65.8361 35.3845C65.9058 35.3845 66.1846 35.3844 66.1149 35.5246C66.1149 35.8749 65.4179 35.6647 65.5573 35.3845ZM46.1816 28.2375C46.3907 28.0974 46.5998 27.8872 46.8089 27.9572C47.0877 28.0974 47.1574 28.4477 47.018 28.6579C46.9483 28.8681 46.5301 28.8681 46.2513 28.5878C46.1816 28.5178 46.1119 28.2375 46.1816 28.2375ZM64.0937 44.0729C64.024 44.5634 63.1179 44.2131 63.1876 43.7926C63.327 43.4423 64.0937 43.7226 64.0937 44.0729ZM62.8391 36.5055C63.0482 36.5756 63.327 36.5056 63.327 36.7158C63.327 36.8559 63.1179 36.7858 63.0482 36.8559C62.9088 36.8559 62.6997 36.996 62.5603 36.8559C62.3512 36.7158 62.4906 36.4355 62.8391 36.5055ZM65.0694 44.8437C64.7906 44.7736 64.8603 44.3532 64.5815 44.4233C64.5118 44.4233 64.3027 44.3532 64.2331 44.2131C64.1634 43.4423 65.627 43.7926 65.6967 44.3532C65.8361 44.7035 65.3482 44.9137 65.0694 44.8437ZM64.0937 36.4355C64.233 36.6457 63.8149 36.8559 63.7452 36.6457C63.6755 36.5055 63.9543 36.1552 64.0937 36.4355ZM57.4028 44.3532C57.3331 44.2831 57.3331 44.143 57.4028 44.0729C57.4028 44.0729 57.4725 44.0729 57.5422 44.0729C57.6119 44.143 57.6119 44.2831 57.5422 44.3532C57.4725 44.3532 57.4028 44.3532 57.4028 44.3532ZM53.918 43.092C53.9876 42.7416 54.3361 43.0219 54.4755 43.162C54.6149 43.2321 54.9634 43.0219 55.1028 43.2321C55.1725 43.3722 55.521 43.4423 55.2422 43.5824C54.7543 43.7926 53.918 43.3722 53.918 43.092ZM63.327 38.1171C63.5361 37.2062 65.2088 38.0471 65.2088 38.8178C65.2088 38.9579 64.8603 39.028 64.7906 38.9579C64.5815 38.8178 64.5815 38.6076 64.4421 38.5375C63.8846 38.1171 63.2573 38.6076 63.327 38.1171ZM64.4421 36.1552C64.4421 36.0851 64.5118 36.0851 64.5815 36.0851C64.93 36.1552 65.6967 36.5756 65.3482 36.8559C65.1391 37.0661 64.7906 36.5756 64.5815 36.4355C64.4421 36.3654 64.3724 36.2253 64.4421 36.1552ZM58.3785 32.0912C58.03 32.7219 56.5664 32.5117 56.4967 31.8811C56.4967 30.9001 58.8664 31.3205 58.3785 32.0912ZM56.1482 34.6838C56.1482 34.6838 56.2876 34.7538 56.2876 34.8239C56.2876 34.894 56.1482 34.894 56.1482 34.894C56.0785 34.894 56.0088 34.8239 56.0088 34.7538C56.0088 34.6838 56.1482 34.6838 56.1482 34.6838ZM66.0452 36.996C65.9755 36.926 66.0452 36.8559 66.0452 36.7858C66.1846 36.5756 66.9512 36.6457 66.6724 37.0661C66.533 37.3464 66.1149 37.1362 66.0452 36.996ZM62.2118 38.6076C62.2815 38.8879 61.724 39.2382 61.5846 38.9579C61.3058 38.4675 62.1421 38.1171 62.2118 38.6076ZM62.0028 36.5055C61.9331 36.5055 61.9331 36.4355 61.9331 36.3654C61.9331 36.3654 62.0028 36.3654 62.0724 36.3654C62.0724 36.4355 62.1422 36.4355 62.1422 36.5055C62.0725 36.5756 62.0028 36.5756 62.0028 36.5055ZM40.815 25.8552C40.4665 26.0654 39.9089 25.3647 40.2574 25.1545C40.7453 24.7341 41.2332 25.5749 40.815 25.8552ZM50.0149 42.3212C50.0846 42.3913 50.1543 42.4613 50.0846 42.5314C50.0846 42.6015 49.9452 42.6015 49.9452 42.6015C49.8755 42.5314 49.7362 42.4613 49.8058 42.3913C49.8755 42.1811 50.0149 42.2511 50.0149 42.3212ZM69.3906 40.1491C69.4603 40.1491 69.5997 40.2192 69.6694 40.2892C69.7391 40.3593 69.6694 40.4994 69.6694 40.4994C69.53 40.5695 69.3209 40.6396 69.1815 40.6396C68.9724 40.7096 68.5542 40.5695 68.6936 40.2892C68.833 40.1491 69.1815 40.2192 69.3906 40.1491ZM53.3604 42.8818C53.3604 42.9518 53.221 43.0219 53.1513 43.0219C53.0816 43.0219 53.0816 42.9518 53.0816 42.8818C53.0816 42.8117 53.221 42.8117 53.2907 42.7416C53.2907 42.7416 53.3604 42.8117 53.3604 42.8818ZM51.8271 42.4614C52.0361 42.3212 52.4543 42.3913 52.5937 42.6015C52.5937 42.6716 52.5937 42.7416 52.5937 42.7416C52.3846 42.8818 51.9664 42.8818 51.8271 42.6716C51.7574 42.6716 51.7574 42.5314 51.8271 42.4614ZM50.0149 41.7607C50.0846 41.7607 50.1543 41.8307 50.1543 41.9008C50.1543 41.9709 50.0846 42.111 50.0149 42.0409C49.9452 42.0409 49.9452 41.9008 49.9452 41.8307C49.9452 41.7607 50.0149 41.7607 50.0149 41.7607ZM67.6482 40.4994C67.3694 40.4294 66.9512 40.7797 66.7421 40.4994C66.3239 39.9389 67.3694 40.079 67.7179 40.079C68.2058 40.1491 68.833 40.7096 68.3451 40.9899C68.1361 41.2001 67.927 40.5695 67.6482 40.4994ZM72.736 46.5253C72.6663 46.5954 72.5269 46.5954 72.4572 46.5253C72.2482 46.3151 72.2482 45.9648 72.5269 45.8947C72.8057 45.8947 72.8754 46.3151 72.736 46.5253ZM68.833 46.3852C68.833 46.3852 68.9724 46.3151 68.9724 46.3852C69.0421 46.3852 69.1815 46.4552 69.1118 46.5954C69.0421 46.7355 68.833 46.6654 68.833 46.5954C68.833 46.5954 68.833 46.4552 68.833 46.3852ZM68.5542 46.175C68.833 46.4552 68.3451 46.8756 68.1361 46.5954C67.9967 46.3852 68.3451 46.0348 68.5542 46.175ZM69.2512 45.8246C69.3209 45.6845 69.4603 45.6144 69.5997 45.6845C69.6694 45.6845 69.6694 45.7546 69.6694 45.8246C69.5997 45.9648 69.4603 46.0348 69.3209 45.9648C69.3209 45.9648 69.2512 45.8947 69.2512 45.8246ZM71.4815 46.0348C71.5512 46.1049 71.6209 46.245 71.6209 46.3151C71.6209 46.3852 71.4815 46.4552 71.3421 46.3852C71.2724 46.3151 71.2724 46.175 71.2724 46.1049L71.4815 46.0348ZM78.7299 45.6144C78.939 45.8947 78.033 46.0348 78.1724 45.6845C78.2421 45.4743 78.5905 45.4743 78.7299 45.6144ZM77.6845 45.6845C77.4057 45.5443 77.0572 45.4743 76.8481 45.2641C76.639 45.0539 76.8481 44.7035 77.0572 44.7035C77.4057 44.7035 77.8239 45.0539 77.8239 45.4042C77.8239 45.4743 77.6845 45.6845 77.6845 45.6845ZM76.7087 46.3852C76.639 46.1049 76.9178 45.4743 77.2663 45.8947C77.4057 46.0348 77.4754 46.3852 77.2663 46.5253C77.1269 46.6654 76.7784 46.6654 76.7087 46.3852ZM76.2209 45.1239C76.0815 45.3342 75.733 44.9137 75.5936 44.9838C75.2451 45.194 74.9663 45.1239 74.6178 45.0539C74.2694 44.9137 73.7118 45.194 73.5724 44.7736C73.5027 44.4233 74.0603 44.3532 74.0603 44.143C74.0603 44.0028 73.9906 43.7926 73.8512 43.7226C73.433 43.6525 73.2239 44.2131 72.8754 44.3532C72.8057 44.4233 72.6663 44.4933 72.5966 44.3532C72.5269 44.2131 73.0845 44.0028 72.8754 43.7926C72.6663 43.5824 72.3876 43.9328 72.3876 43.9328C72.3179 44.2831 72.0391 44.2131 71.8997 44.2131C71.6209 44.143 71.4118 43.8627 71.0633 43.9328C70.5057 43.9328 69.53 44.2131 69.6694 43.7926C69.8088 43.3722 70.436 43.3722 70.227 43.162C69.1118 41.7607 70.6451 42.0409 70.8542 41.6205C70.9239 41.5505 71.0633 41.4103 71.133 41.4103C71.2027 41.4103 71.4118 41.5505 71.4118 41.6205C71.3421 41.9709 71.6209 42.3913 71.3421 42.7416C71.133 43.092 71.2027 43.5824 71.6209 43.4423C72.2482 43.3022 72.6663 43.3022 73.2239 43.162C73.9906 43.0219 74.6178 43.3022 75.4542 43.3722C75.8724 43.4423 76.2209 43.7226 76.639 43.6525C76.7784 43.6525 76.9875 43.6525 77.0572 43.7926C77.1966 44.0028 76.7784 44.0729 76.639 44.2831C76.43 44.4933 76.1512 44.3532 76.0118 44.6335C76.0118 44.9137 76.3603 45.0539 76.2209 45.1239ZM67.23 40.9899C67.4391 40.7797 68.1361 40.8498 67.9967 41.2702C67.8573 41.9008 66.8815 41.4103 67.23 40.9899ZM72.736 45.4042C72.6663 45.3341 72.736 45.2641 72.8057 45.2641C72.9451 45.2641 73.0845 45.194 73.1542 45.2641C73.2239 45.3341 73.1542 45.4042 73.1542 45.4042C73.0148 45.5444 72.8057 45.5444 72.736 45.4042ZM65.8361 41.9709C65.9058 41.6906 66.533 41.7607 66.4633 42.111C66.3936 42.3913 65.7664 42.3212 65.8361 41.9709ZM49.0392 41.9709C49.1786 41.8307 49.5968 41.9709 49.5968 42.2511C49.5271 42.6716 48.8998 42.111 49.0392 41.9709ZM61.724 42.8818C61.8634 43.0219 61.7937 43.2321 61.8634 43.3722C62.1421 43.7226 62.9785 43.5124 62.9785 44.0029C62.9785 44.4233 62.2815 44.0029 62.0028 43.8627C61.5846 43.7226 60.9573 43.7226 60.8179 43.3022C60.7482 42.8818 61.5846 42.6715 61.724 42.8818ZM70.1573 39.7988C70.2967 39.7988 70.5057 40.009 70.436 40.1491C70.227 40.4994 70.0179 39.7988 70.1573 39.7988ZM72.5269 41.7607C72.5966 41.9709 73.2936 41.7607 73.2239 42.111C73.1542 42.3913 72.8057 42.2511 72.736 42.1811C72.5269 42.111 72.3876 42.0409 72.2482 41.9008C72.1088 41.6906 72.0391 41.4103 71.83 41.2702C71.6209 41.1301 71.2724 41.1301 70.9936 41.06C70.6451 40.9198 70.1573 40.9899 69.9482 40.6396C69.8785 40.5695 69.8785 40.3593 70.0179 40.2892C70.2967 40.1491 70.5057 40.4294 70.7845 40.4994C71.0633 40.5695 71.4118 40.7096 71.6906 40.7797C72.0391 40.8498 72.3876 40.8498 72.6663 41.13C72.736 41.2001 72.9451 41.1301 73.0845 41.2001C73.2239 41.2001 73.433 41.2001 73.5027 41.3403C73.6421 41.7607 72.3875 41.3403 72.5269 41.7607ZM78.8693 46.1049C78.939 46.175 78.939 46.245 78.939 46.3151C78.939 46.3151 78.8693 46.4552 78.7299 46.3852C78.6602 46.3151 78.6602 46.175 78.6602 46.1049C78.7299 46.1049 78.8693 46.1049 78.8693 46.1049ZM65.4179 39.0981C65.3482 39.1681 64.6512 39.0981 64.5815 39.3083C64.5815 39.3783 64.5815 39.4484 64.6512 39.4484C64.93 39.6586 65.4179 39.6586 65.7664 39.7287C66.1149 39.7287 66.6724 40.2892 66.9512 39.8688C67.0906 39.7287 66.7421 39.5886 66.7421 39.5185C66.7421 39.4484 66.8118 39.4484 66.8118 39.4484C67.23 39.4484 67.6482 39.5185 68.0664 39.6586C68.6936 39.7988 70.227 39.5185 71.3421 39.9389C71.7603 40.079 73.5027 41.3403 73.5027 41.3403C73.7118 41.4804 73.7118 41.7607 73.9209 41.7607C74.3391 41.8307 74.7572 41.4804 75.2451 41.8307C75.3845 41.9008 75.5936 41.9008 75.6633 41.8307C76.0118 41.6205 76.2906 41.6906 76.639 41.7607C76.8481 41.8307 77.1269 41.8307 77.336 41.8307C77.4057 41.8307 77.4754 41.7607 77.5451 41.8307C78.033 42.3913 78.7996 42.0409 79.3572 42.3212C79.8451 42.5314 80.1936 42.111 80.6118 42.0409C80.7511 41.9709 81.3087 41.6205 81.0996 41.2702C80.8905 40.9199 80.4027 41.5505 80.1936 41.3403C79.7754 40.8498 79.3572 40.9198 79.3572 40.4994C79.3572 40.2892 79.7754 40.1491 79.636 39.9389C79.5663 39.7287 79.2178 39.5185 79.0087 39.6586C78.7996 39.7287 79.0087 40.009 78.8693 40.1491C78.7996 40.2192 78.7299 40.1491 78.6602 40.1491C78.4512 40.1491 78.3118 40.079 78.1027 40.079C77.4057 40.009 77.6845 40.2892 77.4057 40.9199C77.2663 41.2702 76.5693 41.1301 76.5693 40.7096C76.5693 40.4994 76.9875 40.6396 76.9875 40.4994C77.1966 39.9389 75.5936 39.028 75.3845 40.009C75.3148 40.3593 76.2209 40.1491 76.2209 40.5695C76.2209 41.06 75.3845 40.8498 75.036 40.5695C74.8269 40.4294 74.6178 40.3593 74.4088 40.4994C74.13 40.7096 73.9209 40.5695 73.7118 40.4294C73.433 40.2192 72.9451 40.009 72.9451 39.6586C73.0148 39.3783 73.5027 39.4484 73.6421 39.2382C73.7118 39.0981 72.2482 38.8178 72.3179 39.2382C72.3179 39.3783 72.736 39.3783 72.6663 39.5885C72.6663 39.7988 72.3876 39.7988 72.2482 39.7988C71.6906 39.7287 71.2027 39.5886 70.7148 39.4484C70.6451 39.4484 70.2967 39.3083 70.3663 39.0981C70.5057 38.8178 70.8542 39.2382 71.0633 39.1681L71.133 39.0981C71.0633 38.7477 70.5754 38.5375 70.2967 38.3273C70.0876 38.1872 70.0179 37.977 69.9482 37.7668C69.8088 37.2763 69.4603 36.7858 68.9027 36.7158C68.4148 36.6457 67.7876 36.0851 67.4391 36.5055C67.0209 36.8559 67.9967 36.996 68.2058 37.1362C68.4845 37.3464 69.1118 37.3464 69.0421 37.6967C69.0421 37.8368 68.7633 37.6967 68.6936 37.7668C68.4148 38.0471 68.9027 38.7477 68.5542 38.9579C68.3451 39.0981 68.1361 38.8879 67.9967 38.8178C67.6482 38.6777 67.3694 38.6076 66.9512 38.6777C66.7421 38.7477 66.533 38.6076 66.3936 38.5375C65.9755 38.1872 65.9755 38.6777 65.4179 39.0981ZM78.6602 40.7797C78.4512 40.8498 78.1027 40.7096 78.033 40.4994C78.033 40.4294 78.033 40.3593 78.1027 40.3593C78.3118 40.2892 78.6602 40.4294 78.7299 40.6396C78.7996 40.6396 78.7299 40.7096 78.6602 40.7797ZM80.0542 46.5253C80.1239 46.5253 80.1936 46.6654 80.1239 46.7355C80.1239 46.8056 79.9845 46.9457 79.9148 46.8757C79.7754 46.8056 79.8451 46.6654 79.8451 46.5954C79.9148 46.5253 79.9845 46.4552 80.0542 46.5253ZM78.3118 47.7865C78.3815 47.9967 78.1027 48.0668 78.033 48.1369C77.7542 48.277 77.4057 48.4172 77.1966 48.2069C77.0572 48.0668 77.2663 47.7165 77.4057 47.5763C77.7542 47.5063 78.2421 47.5063 78.3118 47.7865ZM79.0784 48.1369C79.0784 48.1369 79.2178 48.0668 79.2875 48.0668C79.3572 48.1369 79.4966 48.207 79.4269 48.277C79.4269 48.3471 79.2178 48.4872 79.0784 48.4172C79.0087 48.4172 79.0784 48.277 79.0784 48.1369Z" fill="#696E76"/>
</svg>
