<svg width="355" height="354" viewBox="0 0 355 354" fill="none" xmlns="http://www.w3.org/2000/svg">
<path d="M185.441 40.6704C201.06 40.6704 217.236 42.3418 232.855 45.6846C248.474 49.0273 263.535 55.1557 276.922 62.9555C290.31 71.3125 302.582 82.455 312.065 95.269C321.548 108.083 327.684 123.683 331.03 139.282C337.724 170.481 334.935 203.352 324.337 233.437C318.758 248.479 311.507 262.965 302.024 275.779C292.541 288.593 280.827 300.292 267.997 309.763C241.78 328.706 209.427 338.734 177.631 337.063C145.278 335.949 114.041 324.249 88.381 305.306C62.1637 286.364 41.5246 260.179 29.8105 230.651C17.5386 201.123 14.7495 167.139 23.1167 135.939C27.0214 120.34 34.8308 105.854 44.3137 93.0405C53.7965 80.2265 65.5106 68.5268 78.8982 59.6128C105.115 41.2275 136.353 30.6421 168.149 27.8564C172.053 27.2993 175.958 27.2993 179.863 26.7422C183.767 26.7422 187.672 26.1851 191.577 26.1851C199.386 26.7422 207.753 26.7422 215.563 27.8564C223.372 28.4136 231.182 30.6421 238.991 32.3135C246.8 34.542 254.61 36.7705 261.861 40.1133C291.426 51.813 318.201 72.4267 334.935 99.1689C343.302 112.54 348.88 127.582 352.227 143.182C355.574 158.782 355.574 174.938 353.901 190.538C349.438 222.294 333.819 251.822 310.391 273.55C307.602 276.336 304.813 279.121 301.466 281.35L291.983 288.593C285.29 293.05 278.596 297.507 271.344 300.849C264.093 304.749 256.841 307.535 249.589 310.321C245.685 311.435 241.78 312.549 238.433 313.663C236.76 314.221 234.529 314.778 232.855 315.335L227.277 316.449C196.039 323.692 163.686 322.577 132.448 315.335C101.769 307.535 71.6466 293.607 47.6606 272.436C44.3137 270.207 41.5246 266.865 38.7355 264.079C35.9464 261.293 33.1574 258.508 30.9261 255.165L23.6745 245.694L17.5386 235.665C9.72918 221.737 3.59321 206.695 1.36195 190.538C-3.10057 158.782 3.5932 125.911 18.6542 96.9404C25.9058 83.0122 34.8308 69.084 45.9871 57.3843L49.8918 52.9272L54.3543 49.0273C57.1434 46.2417 59.9325 43.456 63.2794 40.6704C69.4153 35.6562 75.5513 30.6421 82.8029 26.7422C89.4967 22.2852 96.7483 18.9424 104 15.0425C107.905 13.3711 111.251 12.2568 115.156 10.5855L120.734 8.35693L126.312 6.68557C141.931 1.67141 158.108 0 173.727 0C181.536 0.557129 189.903 0.557129 197.713 2.78564C205.522 3.8999 213.332 6.68553 221.141 8.91405C236.202 14.4853 250.705 21.1709 264.093 30.6421C270.786 35.0991 276.922 40.6704 283.058 45.1274C285.847 47.913 288.637 50.6987 291.983 53.4843L296.446 57.9414L300.351 62.3984L308.16 71.3125L315.412 80.7836L318.758 85.7978L322.105 90.812C324.337 94.1547 326.568 97.4975 328.241 101.397C331.588 108.64 335.493 115.883 338.282 123.125C339.398 127.025 341.629 130.368 342.187 134.268L345.534 145.968C346.649 149.868 347.207 153.768 347.765 157.667C348.323 161.567 349.438 165.467 349.438 169.367L349.996 181.624L349.438 193.881L348.881 200.009L347.765 206.138C347.207 210.037 346.649 213.937 346.091 217.837C343.86 225.637 342.745 233.437 339.398 241.237C334.377 256.279 326.568 270.764 317.085 283.578C298.677 309.763 272.46 330.934 242.338 342.634C212.216 354.891 178.747 357.119 147.509 349.877L135.795 347.091L124.639 343.191C120.734 342.077 117.387 339.848 113.483 338.177L107.905 335.391C106.231 334.277 104.558 333.163 102.884 332.606C88.9388 324.806 76.6669 314.221 66.0684 301.964C60.4903 296.392 56.0278 289.707 51.5653 283.021C47.6606 276.336 43.1981 269.093 40.409 261.85C36.5043 254.608 34.8308 246.808 32.0418 239.565C30.3683 231.765 28.137 223.966 27.0214 216.166C24.2323 200.566 24.7902 184.41 25.9058 168.253C27.5793 152.096 31.484 137.054 37.0621 122.011C43.1981 106.969 50.4496 93.0405 59.9325 80.2265C69.4153 67.4126 80.5716 56.27 93.4014 46.7988C106.231 37.3276 120.734 30.0849 135.795 25.0708C150.856 20.0566 167.033 17.8281 182.652 17.8281C167.033 18.3853 150.856 20.6137 135.795 25.6279C120.734 31.1992 106.789 38.4419 93.9592 47.913C81.1294 57.3842 70.531 69.0839 61.0481 81.3408C51.5653 94.1547 44.3137 108.083 38.7355 122.568C33.7152 137.611 29.8105 152.653 28.1371 168.253C27.0214 183.852 26.4636 200.009 29.2527 215.052C29.8105 222.851 32.5996 230.651 34.273 237.894C37.0621 245.137 39.2934 252.936 42.6402 259.622C45.4293 266.865 49.8918 273.55 53.7965 280.236C58.2591 286.364 62.7216 293.05 68.2997 298.621C78.8982 310.321 91.1701 320.349 104.558 328.149C106.231 329.263 107.905 330.377 109.578 330.934L115.156 333.163C118.503 334.834 122.408 336.506 125.755 337.62L136.911 341.52L148.067 344.305C178.747 350.991 211.1 348.762 240.107 336.506C269.113 324.806 294.215 304.749 312.623 279.121C321.548 266.307 329.357 252.379 334.377 237.894C337.166 230.651 338.84 222.851 341.071 215.609C341.629 211.709 342.187 207.809 342.745 203.909L343.86 198.338L344.418 192.766L344.976 181.067L344.418 169.367C344.418 165.467 343.302 161.567 342.745 157.667C342.187 153.768 341.629 149.868 340.513 145.968L337.166 134.825C336.051 130.925 334.377 127.582 333.262 123.683C331.03 116.44 326.568 109.197 323.221 102.512C321.548 99.1689 319.316 95.8261 317.085 92.4833L314.296 87.4692L310.949 82.455L304.255 72.9838L296.446 64.0698L292.541 59.6128L288.079 55.7129L279.711 47.3559C273.576 42.3418 267.997 37.3276 261.304 32.8706C248.474 23.3994 234.528 16.7138 219.467 11.6997C212.216 9.47118 204.407 6.68553 196.597 6.12841C188.788 4.45702 180.978 3.89993 173.169 3.89993C157.55 3.89993 141.931 5.5713 126.87 10.0283L121.292 11.6997L115.714 13.9282C112.367 15.5996 108.462 16.7139 104.558 18.3853C97.8639 21.728 90.6123 25.0708 83.9185 29.5278C77.2248 33.4277 71.0888 38.4419 64.9528 43.456C62.1638 46.2417 59.3747 49.0273 56.5856 51.2559L52.1231 55.1557L48.2184 59.6128C37.6199 70.7554 28.6949 84.1264 21.4433 98.0546C6.94009 125.911 0.246321 157.667 4.15102 188.867C6.38228 204.466 11.9604 218.952 19.212 232.88L25.348 242.908L32.5996 252.379C34.8308 255.722 37.6199 258.508 40.409 261.293C43.1981 264.079 45.9871 266.865 48.7762 269.65C72.2044 290.821 101.211 304.749 131.891 312.549C162.57 319.792 194.924 320.906 225.603 314.221L231.182 313.106C232.855 312.549 235.086 311.992 236.76 311.435C240.664 310.321 244.569 309.206 247.916 308.092C255.168 305.306 262.419 302.521 269.671 298.621C276.922 295.278 283.616 290.821 290.31 286.921L299.793 279.679C303.14 277.45 305.929 274.664 308.718 271.879C332.146 250.708 347.765 221.737 352.227 189.981C353.901 174.381 353.901 158.225 350.554 143.182C347.207 127.582 341.071 113.097 333.262 99.726C315.969 72.9838 290.31 52.9272 260.746 41.7846C253.494 38.4419 245.685 36.7705 238.433 34.542C230.624 32.8706 222.814 31.1992 215.005 30.6421C207.196 29.5278 199.386 29.5278 191.577 28.9707C187.672 28.9707 183.767 28.9707 179.863 29.5278C175.958 29.5278 172.053 30.0849 168.149 30.6421C136.911 33.9848 106.231 44.0132 80.5716 62.3984C67.7419 71.3125 56.5856 82.455 47.1027 95.269C38.1777 108.083 30.9261 122.011 27.0214 137.054C19.212 167.139 22.5589 200.009 34.273 228.98C45.9871 257.951 66.0684 283.021 91.7279 301.964C116.83 320.349 147.509 332.049 178.747 333.163C209.985 334.834 241.78 325.363 266.882 306.978C279.711 297.507 290.868 286.364 300.351 274.107C309.833 261.293 317.085 247.365 322.663 232.88C333.262 203.352 336.051 171.038 329.915 140.396C323.779 109.754 304.813 81.3408 278.038 65.1841C264.65 56.8271 249.59 50.6987 234.529 47.3559C217.236 43.456 201.617 41.7847 185.441 40.6704C185.441 41.2275 185.441 41.2275 185.441 40.6704Z" fill="currentColor"/>
</svg>
