<svg width="194" height="76" viewBox="0 0 194 76" fill="none" xmlns="http://www.w3.org/2000/svg">
<g clip-path="url(#clip0_182_509)">
<path d="M94.5246 32.459C92.4026 32.459 90.5378 31.6721 88.9946 30.0983C87.4513 28.5246 86.6797 26.6229 86.6797 24.459C86.6797 22.2295 87.4513 20.3934 88.9946 18.8196C90.5378 17.2459 92.4026 16.459 94.5246 16.459C96.325 16.459 97.8683 16.9836 99.2829 18.0983C99.5401 18.295 99.733 18.6229 99.7973 18.9508C99.8616 19.3442 99.733 19.6721 99.5401 19.9344C99.3472 20.1967 99.0257 20.3934 98.7042 20.459C98.3184 20.5246 97.9969 20.3934 97.7397 20.1967C96.7751 19.4754 95.7463 19.0819 94.5246 19.0819C93.1099 19.0819 91.8882 19.6065 90.8593 20.6557C89.8305 21.7049 89.3161 22.9508 89.3161 24.459C89.3161 25.9016 89.8305 27.1475 90.8593 28.1967C91.8882 29.2459 93.1099 29.7705 94.5246 29.7705C95.8749 29.7705 97.0323 29.3114 98.0612 28.3934C98.3184 28.1311 98.6399 28 98.9614 28.0655C99.3472 28.0655 99.6044 28.1967 99.8616 28.5246C100.119 28.7869 100.247 29.1147 100.183 29.4426C100.183 29.836 100.055 30.0983 99.7973 30.3606C98.3184 31.8032 96.5822 32.459 94.5246 32.459Z" fill="currentColor"/>
<path d="M94.5246 32.459C92.4026 32.459 90.5378 31.6721 88.9946 30.0983C87.4513 28.5246 86.6797 26.6229 86.6797 24.459C86.6797 22.2295 87.4513 20.3934 88.9946 18.8196C90.5378 17.2459 92.4026 16.459 94.5246 16.459C96.325 16.459 97.8683 16.9836 99.2829 18.0983C99.5401 18.295 99.733 18.6229 99.7973 18.9508C99.8616 19.3442 99.733 19.6721 99.5401 19.9344C99.3472 20.1967 99.0257 20.3934 98.7042 20.459C98.3184 20.5246 97.9969 20.3934 97.7397 20.1967C96.7751 19.4754 95.7463 19.0819 94.5246 19.0819C93.1099 19.0819 91.8882 19.6065 90.8593 20.6557C89.8305 21.7049 89.3161 22.9508 89.3161 24.459C89.3161 25.9016 89.8305 27.1475 90.8593 28.1967C91.8882 29.2459 93.1099 29.7705 94.5246 29.7705C95.8749 29.7705 97.0323 29.3114 98.0612 28.3934C98.3184 28.1311 98.6399 28 98.9614 28.0655C99.3472 28.0655 99.6044 28.1967 99.8616 28.5246C100.119 28.7869 100.247 29.1147 100.183 29.4426C100.183 29.836 100.055 30.0983 99.7973 30.3606C98.3184 31.8032 96.5822 32.459 94.5246 32.459Z" fill="currentColor"/>
<path d="M110.792 32.459C108.606 32.459 106.805 31.6721 105.262 30.0983C103.719 28.5246 102.947 26.6229 102.947 24.459C102.947 22.2295 103.719 20.3278 105.262 18.8196C106.805 17.2459 108.67 16.459 110.792 16.459C112.978 16.459 114.843 17.2459 116.386 18.8196C117.93 20.3934 118.701 22.295 118.701 24.459C118.701 26.6885 117.93 28.5246 116.386 30.0983C114.843 31.6721 112.978 32.459 110.792 32.459ZM110.792 19.0819C109.313 19.0819 108.091 19.6065 107.063 20.6557C106.034 21.7049 105.519 22.9508 105.519 24.459C105.519 25.9672 106.034 27.2131 107.063 28.2623C108.091 29.3114 109.313 29.836 110.792 29.836C112.271 29.836 113.493 29.3114 114.522 28.2623C115.551 27.2131 116.065 25.9672 116.065 24.459C116.065 22.9508 115.551 21.7049 114.522 20.6557C113.493 19.6065 112.271 19.0819 110.792 19.0819Z" fill="currentColor"/>
<path d="M110.792 32.459C108.606 32.459 106.805 31.6721 105.262 30.0983C103.719 28.5246 102.947 26.6229 102.947 24.459C102.947 22.2295 103.719 20.3278 105.262 18.8196C106.805 17.2459 108.67 16.459 110.792 16.459C112.978 16.459 114.843 17.2459 116.386 18.8196C117.93 20.3934 118.701 22.295 118.701 24.459C118.701 26.6885 117.93 28.5246 116.386 30.0983C114.843 31.6721 112.978 32.459 110.792 32.459ZM110.792 19.0819C109.313 19.0819 108.091 19.6065 107.063 20.6557C106.034 21.7049 105.519 22.9508 105.519 24.459C105.519 25.9672 106.034 27.2131 107.063 28.2623C108.091 29.3114 109.313 29.836 110.792 29.836C112.271 29.836 113.493 29.3114 114.522 28.2623C115.551 27.2131 116.065 25.9672 116.065 24.459C116.065 22.9508 115.551 21.7049 114.522 20.6557C113.493 19.6065 112.271 19.0819 110.792 19.0819Z" fill="currentColor"/>
<path d="M132.141 16.459C132.526 16.459 132.784 16.5901 133.041 16.8524C133.298 17.1147 133.427 17.4426 133.427 17.7705C133.427 18.1639 133.298 18.4262 133.041 18.6885C132.784 18.9508 132.462 19.0819 132.141 19.0819H125.517V23.1475H130.276C130.662 23.1475 130.919 23.2787 131.176 23.541C131.433 23.8032 131.562 24.1311 131.562 24.459C131.562 24.8524 131.433 25.1147 131.176 25.377C130.919 25.6393 130.597 25.7705 130.276 25.7705H125.517V31.1475C125.517 31.5409 125.389 31.8032 125.132 32.0655C124.874 32.3278 124.553 32.459 124.231 32.459C123.91 32.459 123.588 32.3278 123.331 32.0655C123.074 31.8032 122.945 31.4754 122.945 31.1475V17.7705C122.945 17.377 123.074 17.1147 123.331 16.8524C123.588 16.5901 123.91 16.459 124.231 16.459H132.141Z" fill="currentColor"/>
<path d="M132.141 16.459C132.526 16.459 132.784 16.5901 133.041 16.8524C133.298 17.1147 133.427 17.4426 133.427 17.7705C133.427 18.1639 133.298 18.4262 133.041 18.6885C132.784 18.9508 132.462 19.0819 132.141 19.0819H125.517V23.1475H130.276C130.662 23.1475 130.919 23.2787 131.176 23.541C131.433 23.8032 131.562 24.1311 131.562 24.459C131.562 24.8524 131.433 25.1147 131.176 25.377C130.919 25.6393 130.597 25.7705 130.276 25.7705H125.517V31.1475C125.517 31.5409 125.389 31.8032 125.132 32.0655C124.874 32.3278 124.553 32.459 124.231 32.459C123.91 32.459 123.588 32.3278 123.331 32.0655C123.074 31.8032 122.945 31.4754 122.945 31.1475V17.7705C122.945 17.377 123.074 17.1147 123.331 16.8524C123.588 16.5901 123.91 16.459 124.231 16.459H132.141Z" fill="currentColor"/>
<path d="M147.252 16.459C147.638 16.459 147.895 16.5901 148.152 16.8524C148.409 17.1147 148.538 17.4426 148.538 17.7705C148.538 18.1639 148.409 18.4262 148.152 18.6885C147.895 18.9508 147.573 19.0819 147.252 19.0819H140.629V23.1475H145.387C145.773 23.1475 146.03 23.2787 146.287 23.541C146.545 23.8032 146.673 24.1311 146.673 24.459C146.673 24.8524 146.545 25.1147 146.287 25.377C146.03 25.6393 145.709 25.7705 145.387 25.7705H140.629V31.1475C140.629 31.5409 140.5 31.8032 140.243 32.0655C139.986 32.3278 139.664 32.459 139.343 32.459C138.957 32.459 138.7 32.3278 138.442 32.0655C138.185 31.8032 138.057 31.4754 138.057 31.1475V17.7705C138.057 17.377 138.185 17.1147 138.442 16.8524C138.7 16.5901 139.021 16.459 139.343 16.459H147.252Z" fill="currentColor"/>
<path d="M147.252 16.459C147.638 16.459 147.895 16.5901 148.152 16.8524C148.409 17.1147 148.538 17.4426 148.538 17.7705C148.538 18.1639 148.409 18.4262 148.152 18.6885C147.895 18.9508 147.573 19.0819 147.252 19.0819H140.629V23.1475H145.387C145.773 23.1475 146.03 23.2787 146.287 23.541C146.545 23.8032 146.673 24.1311 146.673 24.459C146.673 24.8524 146.545 25.1147 146.287 25.377C146.03 25.6393 145.709 25.7705 145.387 25.7705H140.629V31.1475C140.629 31.5409 140.5 31.8032 140.243 32.0655C139.986 32.3278 139.664 32.459 139.343 32.459C138.957 32.459 138.7 32.3278 138.442 32.0655C138.185 31.8032 138.057 31.4754 138.057 31.1475V17.7705C138.057 17.377 138.185 17.1147 138.442 16.8524C138.7 16.5901 139.021 16.459 139.343 16.459H147.252Z" fill="currentColor"/>
<path d="M162.299 29.836C162.685 29.836 162.942 29.9672 163.199 30.2295C163.456 30.4918 163.585 30.8196 163.585 31.1475C163.585 31.5409 163.456 31.8032 163.199 32.0655C162.942 32.3278 162.62 32.459 162.299 32.459H154.39C154.004 32.459 153.747 32.3278 153.489 32.0655C153.232 31.8032 153.104 31.4754 153.104 31.1475V17.7705C153.104 17.377 153.232 17.1147 153.489 16.8524C153.747 16.5901 154.068 16.459 154.39 16.459H162.299C162.685 16.459 162.942 16.5901 163.199 16.8524C163.456 17.1147 163.585 17.4426 163.585 17.7705C163.585 18.1639 163.456 18.4262 163.199 18.6885C162.942 18.9508 162.62 19.0819 162.299 19.0819H155.676V23.1475H160.434C160.82 23.1475 161.077 23.2787 161.334 23.541C161.591 23.8032 161.72 24.1311 161.72 24.459C161.72 24.8524 161.591 25.1147 161.334 25.377C161.077 25.6393 160.755 25.7705 160.434 25.7705H155.676V29.836H162.299V29.836Z" fill="currentColor"/>
<path d="M162.299 29.836C162.685 29.836 162.942 29.9672 163.199 30.2295C163.456 30.4918 163.585 30.8196 163.585 31.1475C163.585 31.5409 163.456 31.8032 163.199 32.0655C162.942 32.3278 162.62 32.459 162.299 32.459H154.39C154.004 32.459 153.747 32.3278 153.489 32.0655C153.232 31.8032 153.104 31.4754 153.104 31.1475V17.7705C153.104 17.377 153.232 17.1147 153.489 16.8524C153.747 16.5901 154.068 16.459 154.39 16.459H162.299C162.685 16.459 162.942 16.5901 163.199 16.8524C163.456 17.1147 163.585 17.4426 163.585 17.7705C163.585 18.1639 163.456 18.4262 163.199 18.6885C162.942 18.9508 162.62 19.0819 162.299 19.0819H155.676V23.1475H160.434C160.82 23.1475 161.077 23.2787 161.334 23.541C161.591 23.8032 161.72 24.1311 161.72 24.459C161.72 24.8524 161.591 25.1147 161.334 25.377C161.077 25.6393 160.755 25.7705 160.434 25.7705H155.676V29.836H162.299V29.836Z" fill="currentColor"/>
<path d="M177.668 29.836C178.054 29.836 178.311 29.9672 178.568 30.2295C178.825 30.4918 178.954 30.8196 178.954 31.1475C178.954 31.5409 178.825 31.8032 178.568 32.0655C178.311 32.3278 177.989 32.459 177.668 32.459H169.759C169.373 32.459 169.116 32.3278 168.858 32.0655C168.601 31.8032 168.473 31.4754 168.473 31.1475V17.7705C168.473 17.377 168.601 17.1147 168.858 16.8524C169.116 16.5901 169.437 16.459 169.759 16.459H177.668C178.054 16.459 178.311 16.5901 178.568 16.8524C178.825 17.1147 178.954 17.4426 178.954 17.7705C178.954 18.1639 178.825 18.4262 178.568 18.6885C178.311 18.9508 177.989 19.0819 177.668 19.0819H171.045V23.1475H175.803C176.189 23.1475 176.446 23.2787 176.703 23.541C176.961 23.8032 177.089 24.1311 177.089 24.459C177.089 24.8524 176.961 25.1147 176.703 25.377C176.446 25.6393 176.125 25.7705 175.803 25.7705H171.045V29.836H177.668V29.836Z" fill="currentColor"/>
<path d="M177.668 29.836C178.054 29.836 178.311 29.9672 178.568 30.2295C178.825 30.4918 178.954 30.8196 178.954 31.1475C178.954 31.5409 178.825 31.8032 178.568 32.0655C178.311 32.3278 177.989 32.459 177.668 32.459H169.759C169.373 32.459 169.116 32.3278 168.858 32.0655C168.601 31.8032 168.473 31.4754 168.473 31.1475V17.7705C168.473 17.377 168.601 17.1147 168.858 16.8524C169.116 16.5901 169.437 16.459 169.759 16.459H177.668C178.054 16.459 178.311 16.5901 178.568 16.8524C178.825 17.1147 178.954 17.4426 178.954 17.7705C178.954 18.1639 178.825 18.4262 178.568 18.6885C178.311 18.9508 177.989 19.0819 177.668 19.0819H171.045V23.1475H175.803C176.189 23.1475 176.446 23.2787 176.703 23.541C176.961 23.8032 177.089 24.1311 177.089 24.459C177.089 24.8524 176.961 25.1147 176.703 25.377C176.446 25.6393 176.125 25.7705 175.803 25.7705H171.045V29.836H177.668V29.836Z" fill="currentColor"/>
<path d="M94.5246 59.9336C92.4026 59.9336 90.5378 59.1467 88.9946 57.5729C87.4513 55.9992 86.6797 54.0975 86.6797 51.9336C86.6797 49.7041 87.4513 47.868 88.9946 46.2942C90.5378 44.7205 92.4026 43.9336 94.5246 43.9336C96.325 43.9336 97.8683 44.4582 99.2829 45.5729C99.5401 45.7697 99.733 46.0975 99.7973 46.4254C99.8616 46.8188 99.733 47.1467 99.5401 47.409C99.3472 47.6713 99.0257 47.868 98.7042 47.9336C98.3184 47.9992 97.9969 47.868 97.7397 47.6713C96.7751 46.95 95.7463 46.5565 94.5246 46.5565C93.1099 46.5565 91.8882 47.0811 90.8593 48.1303C89.8305 49.1795 89.3161 50.4254 89.3161 51.9336C89.3161 53.3762 89.8305 54.6221 90.8593 55.6713C91.8882 56.7205 93.1099 57.2451 94.5246 57.2451C95.8749 57.2451 97.0323 56.786 98.0612 55.868C98.3184 55.6057 98.6399 55.4746 98.9614 55.5401C99.3472 55.5401 99.6044 55.6713 99.8616 55.9992C100.119 56.2615 100.247 56.5893 100.183 56.9172C100.183 57.3106 100.055 57.5729 99.7973 57.8352C98.3184 59.2123 96.5822 59.9336 94.5246 59.9336Z" fill="currentColor"/>
<path d="M94.5246 59.9336C92.4026 59.9336 90.5378 59.1467 88.9946 57.5729C87.4513 55.9992 86.6797 54.0975 86.6797 51.9336C86.6797 49.7041 87.4513 47.868 88.9946 46.2942C90.5378 44.7205 92.4026 43.9336 94.5246 43.9336C96.325 43.9336 97.8683 44.4582 99.2829 45.5729C99.5401 45.7697 99.733 46.0975 99.7973 46.4254C99.8616 46.8188 99.733 47.1467 99.5401 47.409C99.3472 47.6713 99.0257 47.868 98.7042 47.9336C98.3184 47.9992 97.9969 47.868 97.7397 47.6713C96.7751 46.95 95.7463 46.5565 94.5246 46.5565C93.1099 46.5565 91.8882 47.0811 90.8593 48.1303C89.8305 49.1795 89.3161 50.4254 89.3161 51.9336C89.3161 53.3762 89.8305 54.6221 90.8593 55.6713C91.8882 56.7205 93.1099 57.2451 94.5246 57.2451C95.8749 57.2451 97.0323 56.786 98.0612 55.868C98.3184 55.6057 98.6399 55.4746 98.9614 55.5401C99.3472 55.5401 99.6044 55.6713 99.8616 55.9992C100.119 56.2615 100.247 56.5893 100.183 56.9172C100.183 57.3106 100.055 57.5729 99.7973 57.8352C98.3184 59.2123 96.5822 59.9336 94.5246 59.9336Z" fill="currentColor"/>
<path d="M110.792 59.9336C108.606 59.9336 106.805 59.1467 105.262 57.5729C103.719 55.9992 102.947 54.0975 102.947 51.9336C102.947 49.7041 103.719 47.8024 105.262 46.2942C106.805 44.7205 108.67 43.9336 110.792 43.9336C112.978 43.9336 114.843 44.7205 116.386 46.2942C117.93 47.868 118.701 49.7697 118.701 51.9336C118.701 54.1631 117.93 55.9992 116.386 57.5729C114.843 59.1467 112.978 59.9336 110.792 59.9336ZM110.792 46.491C109.313 46.491 108.091 47.0156 107.063 48.0647C106.034 49.1139 105.519 50.3598 105.519 51.868C105.519 53.3762 106.034 54.6221 107.063 55.6713C108.091 56.7205 109.313 57.2451 110.792 57.2451C112.271 57.2451 113.493 56.7205 114.522 55.6713C115.551 54.6221 116.065 53.3762 116.065 51.868C116.065 50.3598 115.551 49.1139 114.522 48.0647C113.493 47.0156 112.271 46.491 110.792 46.491Z" fill="currentColor"/>
<path d="M110.792 59.9336C108.606 59.9336 106.805 59.1467 105.262 57.5729C103.719 55.9992 102.947 54.0975 102.947 51.9336C102.947 49.7041 103.719 47.8024 105.262 46.2942C106.805 44.7205 108.67 43.9336 110.792 43.9336C112.978 43.9336 114.843 44.7205 116.386 46.2942C117.93 47.868 118.701 49.7697 118.701 51.9336C118.701 54.1631 117.93 55.9992 116.386 57.5729C114.843 59.1467 112.978 59.9336 110.792 59.9336ZM110.792 46.491C109.313 46.491 108.091 47.0156 107.063 48.0647C106.034 49.1139 105.519 50.3598 105.519 51.868C105.519 53.3762 106.034 54.6221 107.063 55.6713C108.091 56.7205 109.313 57.2451 110.792 57.2451C112.271 57.2451 113.493 56.7205 114.522 55.6713C115.551 54.6221 116.065 53.3762 116.065 51.868C116.065 50.3598 115.551 49.1139 114.522 48.0647C113.493 47.0156 112.271 46.491 110.792 46.491Z" fill="currentColor"/>
<path d="M133.62 48.5229C133.62 49.5065 133.298 50.4246 132.719 51.2114C132.141 51.9983 131.369 52.5885 130.469 52.9164L132.976 58.0311C133.105 58.359 133.169 58.6869 133.041 59.0147C132.912 59.3426 132.719 59.6049 132.398 59.8016C132.205 59.8672 132.012 59.9328 131.819 59.9328C131.305 59.9328 130.919 59.6705 130.662 59.2114L127.768 53.2442H125.517V58.5557C125.517 58.8836 125.389 59.2114 125.132 59.4737C124.874 59.736 124.553 59.8672 124.231 59.8672C123.91 59.8672 123.588 59.736 123.331 59.4737C123.074 59.2114 122.945 58.8836 122.945 58.5557V45.1787C122.945 44.7852 123.074 44.5229 123.331 44.2606C123.588 43.9983 123.91 43.8672 124.231 43.8672H128.733C130.083 43.8672 131.24 44.3262 132.205 45.2442C133.169 46.1623 133.62 47.2114 133.62 48.5229ZM128.861 50.5557C129.504 50.5557 130.019 50.359 130.469 49.9655C130.919 49.5721 131.112 49.1131 131.112 48.5885C131.112 47.9983 130.855 47.5393 130.404 47.1459C129.954 46.7524 129.44 46.5557 128.797 46.5557H125.582V50.6213H128.861V50.5557Z" fill="currentColor"/>
<path d="M133.62 48.5229C133.62 49.5065 133.298 50.4246 132.719 51.2114C132.141 51.9983 131.369 52.5885 130.469 52.9164L132.976 58.0311C133.105 58.359 133.169 58.6869 133.041 59.0147C132.912 59.3426 132.719 59.6049 132.398 59.8016C132.205 59.8672 132.012 59.9328 131.819 59.9328C131.305 59.9328 130.919 59.6705 130.662 59.2114L127.768 53.2442H125.517V58.5557C125.517 58.8836 125.389 59.2114 125.132 59.4737C124.874 59.736 124.553 59.8672 124.231 59.8672C123.91 59.8672 123.588 59.736 123.331 59.4737C123.074 59.2114 122.945 58.8836 122.945 58.5557V45.1787C122.945 44.7852 123.074 44.5229 123.331 44.2606C123.588 43.9983 123.91 43.8672 124.231 43.8672H128.733C130.083 43.8672 131.24 44.3262 132.205 45.2442C133.169 46.1623 133.62 47.2114 133.62 48.5229ZM128.861 50.5557C129.504 50.5557 130.019 50.359 130.469 49.9655C130.919 49.5721 131.112 49.1131 131.112 48.5885C131.112 47.9983 130.855 47.5393 130.404 47.1459C129.954 46.7524 129.44 46.5557 128.797 46.5557H125.582V50.6213H128.861V50.5557Z" fill="currentColor"/>
<path d="M148.024 59.4094L140.115 49.0487V58.5569C140.115 58.9504 139.986 59.2127 139.729 59.475C139.472 59.7373 139.151 59.8684 138.829 59.8684C138.508 59.8684 138.186 59.7373 137.929 59.475C137.672 59.2127 137.543 58.8848 137.543 58.5569V45.2454C137.543 44.9832 137.607 44.7209 137.8 44.4586C137.993 44.1963 138.186 44.0651 138.443 43.9995C138.7 43.934 138.958 43.8684 139.215 43.9995C139.472 44.0651 139.665 44.2618 139.858 44.4586L147.703 54.8192V45.2454C147.703 44.852 147.831 44.5897 148.089 44.3274C148.346 44.0651 148.667 43.934 148.989 43.934C149.375 43.934 149.632 44.0651 149.889 44.3274C150.146 44.5897 150.275 44.9176 150.275 45.2454V58.6225V58.6881V58.7536V58.8192V58.8848V58.9504C150.275 59.0159 150.275 59.0159 150.275 59.0159C150.275 59.0159 150.275 59.0159 150.275 59.0815V59.1471V59.2127L150.211 59.2782C150.211 59.2782 150.211 59.3438 150.146 59.3438L150.082 59.4094C150.082 59.4094 150.082 59.475 150.018 59.475L149.953 59.5405C149.953 59.5405 149.953 59.5405 149.889 59.6061L149.825 59.6717C149.825 59.6717 149.825 59.6717 149.76 59.7373L149.696 59.8028C149.632 59.8684 149.567 59.8684 149.503 59.934C149.439 59.934 149.375 59.9996 149.31 59.9996C149.31 59.9996 149.246 59.9996 149.31 59.9996C149.246 59.9996 149.182 60.0651 149.117 60.0651H149.053C148.989 60.0651 148.924 60.0651 148.86 60.0651C148.796 60.0651 148.796 60.0651 148.732 60.0651C148.667 60.0651 148.667 60.0651 148.603 60.0651C148.603 60.0651 148.603 60.0651 148.539 60.0651C148.474 60.0651 148.474 60.0651 148.474 60.0651C148.474 60.0651 148.474 60.0651 148.41 60.0651C148.346 60.0651 148.346 60.0651 148.346 59.9996C148.346 59.9996 148.346 59.9996 148.281 59.9996C148.281 59.9996 148.217 59.9996 148.217 59.934C148.217 59.934 148.153 59.934 148.153 59.8684L148.089 59.8028C148.089 59.8028 148.024 59.8028 148.024 59.7373C147.96 59.7373 147.96 59.6717 147.896 59.6717C148.024 59.475 148.024 59.475 148.024 59.4094C148.024 59.4094 148.024 59.475 148.024 59.4094Z" fill="currentColor"/>
<path d="M148.024 59.4094L140.115 49.0487V58.5569C140.115 58.9504 139.986 59.2127 139.729 59.475C139.472 59.7373 139.151 59.8684 138.829 59.8684C138.508 59.8684 138.186 59.7373 137.929 59.475C137.672 59.2127 137.543 58.8848 137.543 58.5569V45.2454C137.543 44.9832 137.607 44.7209 137.8 44.4586C137.993 44.1963 138.186 44.0651 138.443 43.9995C138.7 43.934 138.958 43.8684 139.215 43.9995C139.472 44.0651 139.665 44.2618 139.858 44.4586L147.703 54.8192V45.2454C147.703 44.852 147.831 44.5897 148.089 44.3274C148.346 44.0651 148.667 43.934 148.989 43.934C149.375 43.934 149.632 44.0651 149.889 44.3274C150.146 44.5897 150.275 44.9176 150.275 45.2454V58.6225V58.6881V58.7536V58.8192V58.8848V58.9504C150.275 59.0159 150.275 59.0159 150.275 59.0159C150.275 59.0159 150.275 59.0159 150.275 59.0815V59.1471V59.2127L150.211 59.2782C150.211 59.2782 150.211 59.3438 150.146 59.3438L150.082 59.4094C150.082 59.4094 150.082 59.475 150.018 59.475L149.953 59.5405C149.953 59.5405 149.953 59.5405 149.889 59.6061L149.825 59.6717C149.825 59.6717 149.825 59.6717 149.76 59.7373L149.696 59.8028C149.632 59.8684 149.567 59.8684 149.503 59.934C149.439 59.934 149.375 59.9996 149.31 59.9996C149.31 59.9996 149.246 59.9996 149.31 59.9996C149.246 59.9996 149.182 60.0651 149.117 60.0651H149.053C148.989 60.0651 148.924 60.0651 148.86 60.0651C148.796 60.0651 148.796 60.0651 148.732 60.0651C148.667 60.0651 148.667 60.0651 148.603 60.0651C148.603 60.0651 148.603 60.0651 148.539 60.0651C148.474 60.0651 148.474 60.0651 148.474 60.0651C148.474 60.0651 148.474 60.0651 148.41 60.0651C148.346 60.0651 148.346 60.0651 148.346 59.9996C148.346 59.9996 148.346 59.9996 148.281 59.9996C148.281 59.9996 148.217 59.9996 148.217 59.934C148.217 59.934 148.153 59.934 148.153 59.8684L148.089 59.8028C148.089 59.8028 148.024 59.8028 148.024 59.7373C147.96 59.7373 147.96 59.6717 147.896 59.6717C148.024 59.475 148.024 59.475 148.024 59.4094C148.024 59.4094 148.024 59.475 148.024 59.4094Z" fill="currentColor"/>
<path d="M164.293 57.2442C164.679 57.2442 164.936 57.3754 165.193 57.6377C165.45 57.9 165.579 58.2278 165.579 58.5557C165.579 58.8836 165.45 59.2114 165.193 59.4737C164.936 59.736 164.614 59.8672 164.293 59.8672H156.384C155.998 59.8672 155.741 59.736 155.483 59.4737C155.226 59.2114 155.098 58.8836 155.098 58.5557V45.1787C155.098 44.7852 155.226 44.5229 155.483 44.2606C155.741 43.9983 156.062 43.8672 156.384 43.8672H164.293C164.679 43.8672 164.936 43.9983 165.193 44.2606C165.45 44.5229 165.579 44.8508 165.579 45.1787C165.579 45.5065 165.45 45.8344 165.193 46.0967C164.936 46.359 164.614 46.4901 164.293 46.4901H157.67V50.5557H162.428C162.814 50.5557 163.071 50.6869 163.328 50.9492C163.586 51.2114 163.714 51.5393 163.714 51.8672C163.714 52.2606 163.586 52.5229 163.328 52.7852C163.071 53.0475 162.75 53.1787 162.428 53.1787H157.67V57.2442H164.293V57.2442Z" fill="currentColor"/>
<path d="M164.293 57.2442C164.679 57.2442 164.936 57.3754 165.193 57.6377C165.45 57.9 165.579 58.2278 165.579 58.5557C165.579 58.8836 165.45 59.2114 165.193 59.4737C164.936 59.736 164.614 59.8672 164.293 59.8672H156.384C155.998 59.8672 155.741 59.736 155.483 59.4737C155.226 59.2114 155.098 58.8836 155.098 58.5557V45.1787C155.098 44.7852 155.226 44.5229 155.483 44.2606C155.741 43.9983 156.062 43.8672 156.384 43.8672H164.293C164.679 43.8672 164.936 43.9983 165.193 44.2606C165.45 44.5229 165.579 44.8508 165.579 45.1787C165.579 45.5065 165.45 45.8344 165.193 46.0967C164.936 46.359 164.614 46.4901 164.293 46.4901H157.67V50.5557H162.428C162.814 50.5557 163.071 50.6869 163.328 50.9492C163.586 51.2114 163.714 51.5393 163.714 51.8672C163.714 52.2606 163.586 52.5229 163.328 52.7852C163.071 53.0475 162.75 53.1787 162.428 53.1787H157.67V57.2442H164.293V57.2442Z" fill="currentColor"/>
<path d="M179.789 48.5229C179.789 49.5065 179.468 50.4246 178.889 51.2114C178.31 51.9983 177.539 52.5885 176.639 52.9164L179.146 58.0311C179.275 58.359 179.339 58.6869 179.211 59.0147C179.082 59.3426 178.889 59.6049 178.568 59.8016C178.375 59.8672 178.182 59.9328 177.989 59.9328C177.475 59.9328 177.089 59.6705 176.832 59.2114L173.938 53.2442H171.687V58.5557C171.687 58.8836 171.559 59.2114 171.302 59.4737C171.044 59.736 170.723 59.8672 170.401 59.8672C170.08 59.8672 169.758 59.736 169.501 59.4737C169.244 59.2114 169.115 58.8836 169.115 58.5557V45.1787C169.115 44.7852 169.244 44.5229 169.501 44.2606C169.758 43.9983 170.08 43.8672 170.401 43.8672H174.902C176.253 43.8672 177.41 44.3262 178.375 45.2442C179.339 46.1623 179.789 47.2114 179.789 48.5229ZM175.031 50.5557C175.674 50.5557 176.188 50.359 176.639 49.9655C177.089 49.5721 177.282 49.1131 177.282 48.5885C177.282 47.9983 177.024 47.5393 176.574 47.1459C176.124 46.7524 175.61 46.5557 174.967 46.5557H171.752V50.6213H175.031V50.5557Z" fill="currentColor"/>
<path d="M179.789 48.5229C179.789 49.5065 179.468 50.4246 178.889 51.2114C178.31 51.9983 177.539 52.5885 176.639 52.9164L179.146 58.0311C179.275 58.359 179.339 58.6869 179.211 59.0147C179.082 59.3426 178.889 59.6049 178.568 59.8016C178.375 59.8672 178.182 59.9328 177.989 59.9328C177.475 59.9328 177.089 59.6705 176.832 59.2114L173.938 53.2442H171.687V58.5557C171.687 58.8836 171.559 59.2114 171.302 59.4737C171.044 59.736 170.723 59.8672 170.401 59.8672C170.08 59.8672 169.758 59.736 169.501 59.4737C169.244 59.2114 169.115 58.8836 169.115 58.5557V45.1787C169.115 44.7852 169.244 44.5229 169.501 44.2606C169.758 43.9983 170.08 43.8672 170.401 43.8672H174.902C176.253 43.8672 177.41 44.3262 178.375 45.2442C179.339 46.1623 179.789 47.2114 179.789 48.5229ZM175.031 50.5557C175.674 50.5557 176.188 50.359 176.639 49.9655C177.089 49.5721 177.282 49.1131 177.282 48.5885C177.282 47.9983 177.024 47.5393 176.574 47.1459C176.124 46.7524 175.61 46.5557 174.967 46.5557H171.752V50.6213H175.031V50.5557Z" fill="currentColor"/>
<path d="M24.8217 37.0492C19.6132 37.0492 15.4336 32.7869 15.4336 27.541C15.4336 22.623 23.0856 13.9016 23.9215 12.918L24.7574 12L25.5934 12.918C26.4936 13.9016 34.0813 22.623 34.0813 27.541C34.1456 32.7869 29.9659 37.0492 24.8217 37.0492ZM24.8217 15.4098C22.2496 18.4262 17.7485 24.459 17.7485 27.541C17.7485 31.541 20.9636 34.7541 24.8217 34.7541C28.7442 34.7541 31.895 31.4754 31.895 27.541C31.895 24.459 27.3295 18.4262 24.8217 15.4098Z" fill="currentColor"/>
<path d="M24.8217 37.0492C19.6132 37.0492 15.4336 32.7869 15.4336 27.541C15.4336 22.623 23.0856 13.9016 23.9215 12.918L24.7574 12L25.5934 12.918C26.4936 13.9016 34.0813 22.623 34.0813 27.541C34.1456 32.7869 29.9659 37.0492 24.8217 37.0492ZM24.8217 15.4098C22.2496 18.4262 17.7485 24.459 17.7485 27.541C17.7485 31.541 20.9636 34.7541 24.8217 34.7541C28.7442 34.7541 31.895 31.4754 31.895 27.541C31.895 24.459 27.3295 18.4262 24.8217 15.4098Z" fill="currentColor"/>
<path d="M52.151 13.7695H49.9004V35.8679H52.151V13.7695Z" fill="currentColor"/>
<path d="M52.151 13.7695H49.9004V35.8679H52.151V13.7695Z" fill="currentColor"/>
<path d="M51.0576 36.9833C45.7848 36.9833 41.4766 31.5407 41.4766 24.7866C41.4766 18.0325 45.7848 12.5898 51.0576 12.5898C56.3304 12.5898 60.6386 18.0325 60.6386 24.7866C60.6386 31.5407 56.3304 36.9833 51.0576 36.9833ZM51.0576 14.8849C47.0066 14.8849 43.7271 19.3439 43.7271 24.7866C43.7271 30.2292 47.0066 34.6882 51.0576 34.6882C55.1086 34.6882 58.3881 30.2292 58.3881 24.7866C58.3881 19.3439 55.1086 14.8849 51.0576 14.8849Z" fill="currentColor"/>
<path d="M51.0576 36.9833C45.7848 36.9833 41.4766 31.5407 41.4766 24.7866C41.4766 18.0325 45.7848 12.5898 51.0576 12.5898C56.3304 12.5898 60.6386 18.0325 60.6386 24.7866C60.6386 31.5407 56.3304 36.9833 51.0576 36.9833ZM51.0576 14.8849C47.0066 14.8849 43.7271 19.3439 43.7271 24.7866C43.7271 30.2292 47.0066 34.6882 51.0576 34.6882C55.1086 34.6882 58.3881 30.2292 58.3881 24.7866C58.3881 19.3439 55.1086 14.8849 51.0576 14.8849Z" fill="currentColor"/>
<path d="M51.0573 63.4748C45.2701 63.4748 40.5117 58.6223 40.5117 52.7207H42.7623C42.7623 57.3764 46.4918 61.1797 51.0573 61.1797C55.6228 61.1797 59.3523 57.3764 59.3523 52.7207H61.6029C61.6029 58.6223 56.8445 63.4748 51.0573 63.4748Z" fill="currentColor"/>
<path d="M51.0573 63.4748C45.2701 63.4748 40.5117 58.6223 40.5117 52.7207H42.7623C42.7623 57.3764 46.4918 61.1797 51.0573 61.1797C55.6228 61.1797 59.3523 57.3764 59.3523 52.7207H61.6029C61.6029 58.6223 56.8445 63.4748 51.0573 63.4748Z" fill="currentColor"/>
<path d="M61.6029 52.7219H59.3523V45.5744H42.7623V52.7219H40.5117V43.2793H61.6029V52.7219Z" fill="currentColor"/>
<path d="M61.6029 52.7219H59.3523V45.5744H42.7623V52.7219H40.5117V43.2793H61.6029V52.7219Z" fill="currentColor"/>
<path d="M24.8214 63.936L14.9832 53.9032C12.3468 51.1491 12.3468 46.7556 14.9832 44.0015C16.2692 42.6901 18.0054 41.9688 19.8058 41.9688C21.6063 41.9688 23.3425 42.6901 24.6285 44.0015L24.7571 44.1327L24.8857 44.0015C26.1718 42.6901 27.9079 41.9688 29.7084 41.9688C31.5088 41.9688 33.245 42.6901 34.531 44.0015C37.1674 46.7556 37.1674 51.1491 34.531 53.9032L24.8214 63.936ZM19.8058 44.3294C18.6484 44.3294 17.4266 44.7884 16.5264 45.7065C14.7259 47.5425 14.7259 50.4933 16.5264 52.3294L24.7571 60.7228L32.9878 52.3294C34.7883 50.4933 34.7883 47.5425 32.9878 45.7065C31.1873 43.8704 28.2937 43.8704 26.4933 45.7065L24.7571 47.4769L23.0209 45.7065C22.185 44.7884 20.9633 44.3294 19.8058 44.3294Z" fill="currentColor"/>
<path d="M24.8214 63.936L14.9832 53.9032C12.3468 51.1491 12.3468 46.7556 14.9832 44.0015C16.2692 42.6901 18.0054 41.9688 19.8058 41.9688C21.6063 41.9688 23.3425 42.6901 24.6285 44.0015L24.7571 44.1327L24.8857 44.0015C26.1718 42.6901 27.9079 41.9688 29.7084 41.9688C31.5088 41.9688 33.245 42.6901 34.531 44.0015C37.1674 46.7556 37.1674 51.1491 34.531 53.9032L24.8214 63.936ZM19.8058 44.3294C18.6484 44.3294 17.4266 44.7884 16.5264 45.7065C14.7259 47.5425 14.7259 50.4933 16.5264 52.3294L24.7571 60.7228L32.9878 52.3294C34.7883 50.4933 34.7883 47.5425 32.9878 45.7065C31.1873 43.8704 28.2937 43.8704 26.4933 45.7065L24.7571 47.4769L23.0209 45.7065C22.185 44.7884 20.9633 44.3294 19.8058 44.3294Z" fill="currentColor"/>
<path d="M74.5264 76H0V0H74.5264V76ZM1.09314 74.8852H73.3689V1.11475H1.09314V74.8852Z" fill="currentColor"/>
<path d="M74.5264 76H0V0H74.5264V76ZM1.09314 74.8852H73.3689V1.11475H1.09314V74.8852Z" fill="currentColor"/>
<path d="M194 76H73.4336V0H194V76ZM74.5267 74.8852H192.843V1.11475H74.5267V74.8852V74.8852Z" fill="currentColor"/>
<path d="M194 76H73.4336V0H194V76ZM74.5267 74.8852H192.843V1.11475H74.5267V74.8852V74.8852Z" fill="currentColor"/>
</g>
<defs>
<clipPath id="clip0_182_509">
<rect width="194" height="76" fill="white"/>
</clipPath>
</defs>
</svg>
