<svg width="106" height="123" viewBox="0 0 106 123" fill="none" xmlns="http://www.w3.org/2000/svg">
<path d="M46.6336 24.5152C47.6322 22.3333 47.8153 19.7851 46.9665 17.3534C46.1177 14.9217 44.3701 13.0396 42.2398 11.957C41.2412 14.1389 41.0582 16.6872 41.907 19.1188C42.7724 21.5672 44.5033 23.4326 46.6336 24.5152Z" fill="currentColor"/>
<path d="M46.6336 24.5152C47.6322 22.3333 47.8153 19.7851 46.9665 17.3534C46.1177 14.9217 44.3701 13.0396 42.2398 11.957C41.2412 14.1389 41.0582 16.6872 41.907 19.1188C42.7724 21.5672 44.5033 23.4326 46.6336 24.5152Z" fill="currentColor"/>
<path d="M28.3761 28.9797C30.2734 30.6119 32.6367 31.3447 34.9501 31.2115C34.7338 28.8964 33.6686 26.6646 31.7713 25.0323C29.874 23.4001 27.5107 22.6673 25.1973 22.8005C25.4136 25.099 26.4788 27.3308 28.3761 28.9797Z" fill="currentColor"/>
<path d="M28.3761 28.9797C30.2734 30.6119 32.6367 31.3447 34.9501 31.2115C34.7338 28.8964 33.6686 26.6646 31.7713 25.0323C29.874 23.4001 27.5107 22.6673 25.1973 22.8005C25.4136 25.099 26.4788 27.3308 28.3761 28.9797Z" fill="currentColor"/>
<path d="M29.9746 40.156C27.6445 39.1733 25.1481 39.19 22.9512 40.0394C23.8665 42.2046 25.5974 44.02 27.9275 45.0027C30.2575 45.9854 32.754 45.9687 34.9509 45.1193C34.0355 42.9541 32.3046 41.1387 29.9746 40.156Z" fill="currentColor"/>
<path d="M29.9746 40.156C27.6445 39.1733 25.1481 39.19 22.9512 40.0394C23.8665 42.2046 25.5974 44.02 27.9275 45.0027C30.2575 45.9854 32.754 45.9687 34.9509 45.1193C34.0355 42.9541 32.3046 41.1387 29.9746 40.156Z" fill="currentColor"/>
<path d="M17.1752 41.6386C15.0615 41.089 12.9146 41.4221 11.1504 42.4214C12.2155 44.1536 13.9131 45.486 16.0268 46.0356C18.1405 46.5852 20.2875 46.2521 22.0516 45.2528C20.9865 43.5373 19.2889 42.1882 17.1752 41.6386Z" fill="currentColor"/>
<path d="M17.1752 41.6386C15.0615 41.089 12.9146 41.4221 11.1504 42.4214C12.2155 44.1536 13.9131 45.486 16.0268 46.0356C18.1405 46.5852 20.2875 46.2521 22.0516 45.2528C20.9865 43.5373 19.2889 42.1882 17.1752 41.6386Z" fill="currentColor"/>
<path d="M33.8847 61.2912C36.5975 62.0074 39.3436 61.591 41.6071 60.3252C40.259 58.0934 38.0954 56.3779 35.3826 55.6617C32.6697 54.9455 29.9236 55.3619 27.6602 56.6277C29.0082 58.8429 31.1719 60.575 33.8847 61.2912Z" fill="currentColor"/>
<path d="M33.8847 61.2912C36.5975 62.0074 39.3436 61.591 41.6071 60.3252C40.259 58.0934 38.0954 56.3779 35.3826 55.6617C32.6697 54.9455 29.9236 55.3619 27.6602 56.6277C29.0082 58.8429 31.1719 60.575 33.8847 61.2912Z" fill="currentColor"/>
<path d="M25.9635 60.7265C24.5987 59.1443 22.6348 58.0784 20.388 57.8618C18.1412 57.662 16.0275 58.3615 14.3965 59.6773C15.7612 61.2595 17.7251 62.3255 19.9719 62.542C22.2188 62.7418 24.3324 62.0423 25.9635 60.7265Z" fill="currentColor"/>
<path d="M25.9635 60.7265C24.5987 59.1443 22.6348 58.0784 20.388 57.8618C18.1412 57.662 16.0275 58.3615 14.3965 59.6773C15.7612 61.2595 17.7251 62.3255 19.9719 62.542C22.2188 62.7418 24.3324 62.0423 25.9635 60.7265Z" fill="currentColor"/>
<path d="M24.9825 65.9894C22.8688 67.4384 21.5207 69.6036 21.0547 71.9354C23.4014 72.3351 25.8978 71.8521 28.0115 70.3864C30.1252 68.9374 31.4733 66.7722 31.9393 64.4405C29.5926 64.0574 27.0961 64.5404 24.9825 65.9894Z" fill="currentColor"/>
<path d="M24.9825 65.9894C22.8688 67.4384 21.5207 69.6036 21.0547 71.9354C23.4014 72.3351 25.8978 71.8521 28.0115 70.3864C30.1252 68.9374 31.4733 66.7722 31.9393 64.4405C29.5926 64.0574 27.0961 64.5404 24.9825 65.9894Z" fill="currentColor"/>
<path d="M56.2712 28.2644C56.2712 25.1166 55.023 22.2685 52.9925 20.1699C50.9787 22.2685 49.7305 25.1166 49.7305 28.2644C49.7305 31.4123 50.9787 34.2604 53.0092 36.359C55.023 34.277 56.2712 31.4123 56.2712 28.2644Z" fill="currentColor"/>
<path d="M56.2712 28.2644C56.2712 25.1166 55.023 22.2685 52.9925 20.1699C50.9787 22.2685 49.7305 25.1166 49.7305 28.2644C49.7305 31.4123 50.9787 34.2604 53.0092 36.359C55.023 34.277 56.2712 31.4123 56.2712 28.2644Z" fill="currentColor"/>
<path d="M55.3712 11.2924C55.3712 9.01059 54.4724 6.94533 53.0079 5.42969C51.5433 6.94533 50.6445 9.02725 50.6445 11.2924C50.6445 13.5742 51.5433 15.6394 53.0079 17.1551C54.4724 15.6394 55.3712 13.5742 55.3712 11.2924Z" fill="currentColor"/>
<path d="M55.3712 11.2924C55.3712 9.01059 54.4724 6.94533 53.0079 5.42969C51.5433 6.94533 50.6445 9.02725 50.6445 11.2924C50.6445 13.5742 51.5433 15.6394 53.0079 17.1551C54.4724 15.6394 55.3712 13.5742 55.3712 11.2924Z" fill="currentColor"/>
<path d="M64.0758 19.1188C64.9246 16.6872 64.7416 14.1389 63.743 11.957C61.6127 13.0396 59.8651 14.905 59.0163 17.3534C58.1675 19.7851 58.3506 22.3333 59.3492 24.5152C61.4962 23.4326 63.227 21.5672 64.0758 19.1188Z" fill="currentColor"/>
<path d="M64.0758 19.1188C64.9246 16.6872 64.7416 14.1389 63.743 11.957C61.6127 13.0396 59.8651 14.905 59.0163 17.3534C58.1675 19.7851 58.3506 22.3333 59.3492 24.5152C61.4962 23.4326 63.227 21.5672 64.0758 19.1188Z" fill="currentColor"/>
<path d="M74.2296 25.0323C72.3323 26.6646 71.2671 28.8964 71.0508 31.2115C73.3642 31.3447 75.7275 30.6119 77.6248 28.9797C79.5221 27.3474 80.5873 25.1156 80.8036 22.8005C78.4903 22.6673 76.1103 23.4001 74.2296 25.0323Z" fill="currentColor"/>
<path d="M74.2296 25.0323C72.3323 26.6646 71.2671 28.8964 71.0508 31.2115C73.3642 31.3447 75.7275 30.6119 77.6248 28.9797C79.5221 27.3474 80.5873 25.1156 80.8036 22.8005C78.4903 22.6673 76.1103 23.4001 74.2296 25.0323Z" fill="currentColor"/>
<path d="M83.0329 40.0394C80.836 39.19 78.3395 39.1733 76.0095 40.156C73.6795 41.1387 71.9652 42.9541 71.0332 45.1193C73.2301 45.9521 75.7266 45.9854 78.0566 45.0027C80.3866 44.0034 82.1175 42.1879 83.0329 40.0394Z" fill="currentColor"/>
<path d="M83.0329 40.0394C80.836 39.19 78.3395 39.1733 76.0095 40.156C73.6795 41.1387 71.9652 42.9541 71.0332 45.1193C73.2301 45.9521 75.7266 45.9854 78.0566 45.0027C80.3866 44.0034 82.1175 42.1879 83.0329 40.0394Z" fill="currentColor"/>
<path d="M89.9564 46.0513C92.0701 45.5016 93.7677 44.1692 94.8329 42.437C93.0687 41.4377 90.9217 41.1046 88.8081 41.6542C86.6944 42.2039 84.9968 43.5363 83.9316 45.2685C85.7125 46.2511 87.8428 46.6009 89.9564 46.0513Z" fill="currentColor"/>
<path d="M89.9564 46.0513C92.0701 45.5016 93.7677 44.1692 94.8329 42.437C93.0687 41.4377 90.9217 41.1046 88.8081 41.6542C86.6944 42.2039 84.9968 43.5363 83.9316 45.2685C85.7125 46.2511 87.8428 46.6009 89.9564 46.0513Z" fill="currentColor"/>
<path d="M72.115 61.2912C74.8278 60.575 76.9914 58.8429 78.3395 56.6277C76.076 55.3619 73.3299 54.9455 70.6171 55.6617C67.9043 56.3779 65.7407 58.11 64.3926 60.3252C66.656 61.591 69.4022 62.0074 72.115 61.2912Z" fill="currentColor"/>
<path d="M72.115 61.2912C74.8278 60.575 76.9914 58.8429 78.3395 56.6277C76.076 55.3619 73.3299 54.9455 70.6171 55.6617C67.9043 56.3779 65.7407 58.11 64.3926 60.3252C66.656 61.591 69.4022 62.0074 72.115 61.2912Z" fill="currentColor"/>
<path d="M86.0287 62.542C88.2755 62.3421 90.2394 61.2595 91.6041 59.6773C89.9731 58.3615 87.8594 57.662 85.6126 57.8618C83.3658 58.0617 81.4019 59.1443 80.0371 60.7265C81.6681 62.0423 83.7818 62.7418 86.0287 62.542Z" fill="currentColor"/>
<path d="M86.0287 62.542C88.2755 62.3421 90.2394 61.2595 91.6041 59.6773C89.9731 58.3615 87.8594 57.662 85.6126 57.8618C83.3658 58.0617 81.4019 59.1443 80.0371 60.7265C81.6681 62.0423 83.7818 62.7418 86.0287 62.542Z" fill="currentColor"/>
<path d="M81.0017 65.9894C78.8881 64.5404 76.3916 64.0574 74.0449 64.4405C74.5276 66.7722 75.859 68.9208 77.9727 70.3864C80.0864 71.8354 82.5828 72.3184 84.9295 71.9354C84.4635 69.6036 83.1154 67.4384 81.0017 65.9894Z" fill="currentColor"/>
<path d="M81.0017 65.9894C78.8881 64.5404 76.3916 64.0574 74.0449 64.4405C74.5276 66.7722 75.859 68.9208 77.9727 70.3864C80.0864 71.8354 82.5828 72.3184 84.9295 71.9354C84.4635 69.6036 83.1154 67.4384 81.0017 65.9894Z" fill="currentColor"/>
<path d="M52.992 0C26.2965 0 4.56055 21.7353 4.56055 48.4672C4.56055 59.4764 8.35518 70.2524 15.2288 78.8133C22.0025 87.2409 31.5057 93.2368 41.9743 95.6685L42.6234 95.8184L43.1726 95.4353C47.7328 92.3041 51.128 87.9237 52.992 82.7439C54.856 87.9237 58.2346 92.3041 62.7948 95.4353L63.344 95.8184L63.9931 95.6685C74.4616 93.2368 83.9648 87.2409 90.7386 78.8133C97.6122 70.2524 101.407 59.4764 101.407 48.4672C101.423 21.7353 79.7042 0 52.992 0ZM57.9849 81.6447C60.7643 85.592 64.4758 88.8398 68.7197 91.055C67.1553 91.6379 65.5742 92.1209 63.9765 92.5206C58.451 88.49 54.9559 82.111 54.5565 75.299C55.4385 77.5474 56.5869 79.6793 57.9849 81.6447ZM73.5296 35.3927L73.4464 35.4426C65.2913 39.2567 58.7672 45.8023 54.9892 53.9468C56.0211 46.4519 58.8171 39.2068 63.1277 32.961C64.276 31.2788 65.5576 29.6632 66.9057 28.1476L67.0554 27.9644C71.8653 22.6013 77.6738 18.4542 84.2977 15.6227C85.5293 16.7886 86.6943 18.0544 87.7928 19.3535C85.1964 26.3322 80.1369 32.0283 73.5296 35.3927ZM57.4524 66.2551C58.3677 61.475 61.1138 57.3944 65.1581 54.7462C68.803 52.3645 72.9637 51.0654 77.1911 51.0154C77.291 51.0154 77.3742 51.0154 77.474 51.0154C85.1798 51.0154 92.303 54.8462 96.5803 61.2585C94.9327 66.938 92.1699 72.2177 88.3919 76.9145C84.1313 82.2276 78.6058 86.5913 72.4145 89.5227C67.5714 87.5573 63.4272 84.2429 60.3982 79.9625L60.315 79.8459C57.5522 75.8486 56.537 71.0352 57.4524 66.2551ZM77.1412 47.9342C70.4174 48.0175 64.0098 50.7823 59.1 55.7289C58.0349 56.7948 57.0696 57.9441 56.2208 59.1599C58.4177 52.4145 62.7116 46.3519 68.4035 42.0382C74.5116 37.408 81.8012 34.9596 89.4737 34.9596C91.837 34.9596 94.217 35.1928 96.5304 35.6758C97.7453 39.823 98.3611 44.1368 98.3611 48.4838C98.3611 51.4984 98.0782 54.4797 97.4957 57.3944C92.5527 51.3818 85.263 47.9675 77.4241 47.9675C77.3409 47.9342 77.241 47.9342 77.1412 47.9342ZM82.8331 32.478C85.8622 29.5466 88.2588 26.0823 89.9564 22.185C92.2032 25.3328 94.0339 28.7638 95.3987 32.3614C91.2212 31.6952 86.9606 31.7452 82.8331 32.478ZM51.4276 75.299C51.0281 82.111 47.5331 88.49 42.0076 92.5206C40.4265 92.1209 38.8287 91.6379 37.2643 91.055C41.5249 88.8398 45.2197 85.592 48.0157 81.6447C49.3971 79.6793 50.5455 77.5474 51.4276 75.299ZM21.6863 15.6227C28.4101 18.4875 34.2852 22.7013 39.1283 28.1809L39.1782 28.2309C39.1949 28.2642 39.2282 28.2808 39.2448 28.3141L39.2947 28.3641C40.5596 29.8131 41.7413 31.3288 42.8231 32.8944C47.1336 39.1568 49.963 46.4019 50.9948 53.9301C47.3666 46.1354 41.1754 39.7397 33.4696 35.8757V35.859L33.3531 35.8091C26.3963 32.5613 20.8708 26.5653 18.1746 19.3535C19.2897 18.0544 20.4714 16.8053 21.6863 15.6227ZM49.7632 59.1599C48.8978 57.9441 47.9325 56.7948 46.884 55.7289C41.9909 50.7823 35.5833 48.0175 28.8429 47.9342C28.7264 47.9342 28.6265 47.9342 28.51 47.9342C20.6877 47.9342 13.4147 51.3652 8.47168 57.3778C7.90581 54.4797 7.60624 51.4818 7.60624 48.4672C7.60624 44.1201 8.22203 39.823 9.43698 35.6592C11.7504 35.1928 14.1137 34.943 16.4937 34.943C24.1661 34.943 31.4392 37.3913 37.5638 42.0215C43.2724 46.3519 47.5664 52.3978 49.7632 59.1599ZM28.8096 50.9988C33.0369 51.0487 37.1977 52.3479 40.8425 54.7296C44.8868 57.3778 47.6163 61.475 48.5483 66.2384C49.4803 71.0185 48.4651 75.8486 45.6857 79.8126L45.6025 79.9458C42.5901 84.2429 38.4293 87.5407 33.5861 89.506C27.4115 86.5747 21.886 82.211 17.6087 76.8979C13.8308 72.2011 11.068 66.9213 9.42034 61.2418C13.7642 54.7296 21.0039 50.8822 28.8096 50.9988ZM43.0561 4.16385C49.5469 2.69817 56.4205 2.69817 62.928 4.16385C66.4064 7.09519 68.4035 11.3923 68.4035 15.9392C68.4035 19.62 67.1054 23.1843 64.7587 25.9324C63.2775 27.598 61.8794 29.3634 60.5979 31.2122C57.0529 36.3753 54.4899 42.0382 52.992 48.0841C51.4941 42.0215 48.9144 36.3254 45.3528 31.1622C44.1545 29.4134 42.8231 27.7146 41.4084 26.1323C38.9452 23.3342 37.5971 19.72 37.5971 15.9392C37.5971 11.3923 39.5777 7.09519 43.0561 4.16385ZM24.2161 13.3909C28.2271 10.0932 32.7041 7.52823 37.5638 5.76276C35.5833 8.77738 34.5182 12.275 34.5182 15.9392C34.5182 17.3049 34.6679 18.6707 34.9675 20.0198C31.6888 17.3882 28.0606 15.1564 24.2161 13.3909ZM10.5854 32.3447C11.9501 28.7305 13.7975 25.3162 16.0443 22.1683C17.7585 26.049 20.1718 29.5133 23.2341 32.478C21.0206 32.0783 18.7738 31.8784 16.5269 31.8784C14.5464 31.8784 12.5492 32.0449 10.5854 32.3447ZM71.0165 20.0198C71.3161 18.6707 71.4659 17.3049 71.4659 15.9392C71.4659 12.2917 70.4174 8.77738 68.4202 5.76276C73.28 7.52823 77.757 10.0932 81.768 13.3909C77.9234 15.1564 74.3118 17.3882 71.0165 20.0198Z" fill="currentColor"/>
<path d="M52.992 0C26.2965 0 4.56055 21.7353 4.56055 48.4672C4.56055 59.4764 8.35518 70.2524 15.2288 78.8133C22.0025 87.2409 31.5057 93.2368 41.9743 95.6685L42.6234 95.8184L43.1726 95.4353C47.7328 92.3041 51.128 87.9237 52.992 82.7439C54.856 87.9237 58.2346 92.3041 62.7948 95.4353L63.344 95.8184L63.9931 95.6685C74.4616 93.2368 83.9648 87.2409 90.7386 78.8133C97.6122 70.2524 101.407 59.4764 101.407 48.4672C101.423 21.7353 79.7042 0 52.992 0ZM57.9849 81.6447C60.7643 85.592 64.4758 88.8398 68.7197 91.055C67.1553 91.6379 65.5742 92.1209 63.9765 92.5206C58.451 88.49 54.9559 82.111 54.5565 75.299C55.4385 77.5474 56.5869 79.6793 57.9849 81.6447ZM73.5296 35.3927L73.4464 35.4426C65.2913 39.2567 58.7672 45.8023 54.9892 53.9468C56.0211 46.4519 58.8171 39.2068 63.1277 32.961C64.276 31.2788 65.5576 29.6632 66.9057 28.1476L67.0554 27.9644C71.8653 22.6013 77.6738 18.4542 84.2977 15.6227C85.5293 16.7886 86.6943 18.0544 87.7928 19.3535C85.1964 26.3322 80.1369 32.0283 73.5296 35.3927ZM57.4524 66.2551C58.3677 61.475 61.1138 57.3944 65.1581 54.7462C68.803 52.3645 72.9637 51.0654 77.1911 51.0154C77.291 51.0154 77.3742 51.0154 77.474 51.0154C85.1798 51.0154 92.303 54.8462 96.5803 61.2585C94.9327 66.938 92.1699 72.2177 88.3919 76.9145C84.1313 82.2276 78.6058 86.5913 72.4145 89.5227C67.5714 87.5573 63.4272 84.2429 60.3982 79.9625L60.315 79.8459C57.5522 75.8486 56.537 71.0352 57.4524 66.2551ZM77.1412 47.9342C70.4174 48.0175 64.0098 50.7823 59.1 55.7289C58.0349 56.7948 57.0696 57.9441 56.2208 59.1599C58.4177 52.4145 62.7116 46.3519 68.4035 42.0382C74.5116 37.408 81.8012 34.9596 89.4737 34.9596C91.837 34.9596 94.217 35.1928 96.5304 35.6758C97.7453 39.823 98.3611 44.1368 98.3611 48.4838C98.3611 51.4984 98.0782 54.4797 97.4957 57.3944C92.5527 51.3818 85.263 47.9675 77.4241 47.9675C77.3409 47.9342 77.241 47.9342 77.1412 47.9342ZM82.8331 32.478C85.8622 29.5466 88.2588 26.0823 89.9564 22.185C92.2032 25.3328 94.0339 28.7638 95.3987 32.3614C91.2212 31.6952 86.9606 31.7452 82.8331 32.478ZM51.4276 75.299C51.0281 82.111 47.5331 88.49 42.0076 92.5206C40.4265 92.1209 38.8287 91.6379 37.2643 91.055C41.5249 88.8398 45.2197 85.592 48.0157 81.6447C49.3971 79.6793 50.5455 77.5474 51.4276 75.299ZM21.6863 15.6227C28.4101 18.4875 34.2852 22.7013 39.1283 28.1809L39.1782 28.2309C39.1949 28.2642 39.2282 28.2808 39.2448 28.3141L39.2947 28.3641C40.5596 29.8131 41.7413 31.3288 42.8231 32.8944C47.1336 39.1568 49.963 46.4019 50.9948 53.9301C47.3666 46.1354 41.1754 39.7397 33.4696 35.8757V35.859L33.3531 35.8091C26.3963 32.5613 20.8708 26.5653 18.1746 19.3535C19.2897 18.0544 20.4714 16.8053 21.6863 15.6227ZM49.7632 59.1599C48.8978 57.9441 47.9325 56.7948 46.884 55.7289C41.9909 50.7823 35.5833 48.0175 28.8429 47.9342C28.7264 47.9342 28.6265 47.9342 28.51 47.9342C20.6877 47.9342 13.4147 51.3652 8.47168 57.3778C7.90581 54.4797 7.60624 51.4818 7.60624 48.4672C7.60624 44.1201 8.22203 39.823 9.43698 35.6592C11.7504 35.1928 14.1137 34.943 16.4937 34.943C24.1661 34.943 31.4392 37.3913 37.5638 42.0215C43.2724 46.3519 47.5664 52.3978 49.7632 59.1599ZM28.8096 50.9988C33.0369 51.0487 37.1977 52.3479 40.8425 54.7296C44.8868 57.3778 47.6163 61.475 48.5483 66.2384C49.4803 71.0185 48.4651 75.8486 45.6857 79.8126L45.6025 79.9458C42.5901 84.2429 38.4293 87.5407 33.5861 89.506C27.4115 86.5747 21.886 82.211 17.6087 76.8979C13.8308 72.2011 11.068 66.9213 9.42034 61.2418C13.7642 54.7296 21.0039 50.8822 28.8096 50.9988ZM43.0561 4.16385C49.5469 2.69817 56.4205 2.69817 62.928 4.16385C66.4064 7.09519 68.4035 11.3923 68.4035 15.9392C68.4035 19.62 67.1054 23.1843 64.7587 25.9324C63.2775 27.598 61.8794 29.3634 60.5979 31.2122C57.0529 36.3753 54.4899 42.0382 52.992 48.0841C51.4941 42.0215 48.9144 36.3254 45.3528 31.1622C44.1545 29.4134 42.8231 27.7146 41.4084 26.1323C38.9452 23.3342 37.5971 19.72 37.5971 15.9392C37.5971 11.3923 39.5777 7.09519 43.0561 4.16385ZM24.2161 13.3909C28.2271 10.0932 32.7041 7.52823 37.5638 5.76276C35.5833 8.77738 34.5182 12.275 34.5182 15.9392C34.5182 17.3049 34.6679 18.6707 34.9675 20.0198C31.6888 17.3882 28.0606 15.1564 24.2161 13.3909ZM10.5854 32.3447C11.9501 28.7305 13.7975 25.3162 16.0443 22.1683C17.7585 26.049 20.1718 29.5133 23.2341 32.478C21.0206 32.0783 18.7738 31.8784 16.5269 31.8784C14.5464 31.8784 12.5492 32.0449 10.5854 32.3447ZM71.0165 20.0198C71.3161 18.6707 71.4659 17.3049 71.4659 15.9392C71.4659 12.2917 70.4174 8.77738 68.4202 5.76276C73.28 7.52823 77.757 10.0932 81.768 13.3909C77.9234 15.1564 74.3118 17.3882 71.0165 20.0198Z" fill="currentColor"/>
<path d="M11.7334 119.351H4.31057L2.84597 122.799H0L6.69053 107.926H9.40336L16.1105 122.799H13.2146L11.7334 119.351ZM10.818 117.186L8.02198 110.691L5.24258 117.186H10.818Z" fill="currentColor"/>
<path d="M11.7334 119.351H4.31057L2.84597 122.799H0L6.69053 107.926H9.40336L16.1105 122.799H13.2146L11.7334 119.351ZM10.818 117.186L8.02198 110.691L5.24258 117.186H10.818Z" fill="currentColor"/>
<path d="M20.9707 115.356C20.9707 110.925 24.3659 107.711 28.9261 107.711C31.3394 107.711 33.4197 108.577 34.8011 110.193L33.0203 111.875C31.9385 110.709 30.6071 110.126 29.0592 110.126C25.9803 110.126 23.7501 112.291 23.7501 115.356C23.7501 118.42 25.9803 120.586 29.0592 120.586C30.6071 120.586 31.9385 120.019 33.0203 118.82L34.8011 120.519C33.4197 122.135 31.3394 123.001 28.9095 123.001C24.3659 123.001 20.9707 119.803 20.9707 115.356Z" fill="currentColor"/>
<path d="M20.9707 115.356C20.9707 110.925 24.3659 107.711 28.9261 107.711C31.3394 107.711 33.4197 108.577 34.8011 110.193L33.0203 111.875C31.9385 110.709 30.6071 110.126 29.0592 110.126C25.9803 110.126 23.7501 112.291 23.7501 115.356C23.7501 118.42 25.9803 120.586 29.0592 120.586C30.6071 120.586 31.9385 120.019 33.0203 118.82L34.8011 120.519C33.4197 122.135 31.3394 123.001 28.9095 123.001C24.3659 123.001 20.9707 119.803 20.9707 115.356Z" fill="currentColor"/>
<path d="M51.0107 119.351H43.5879L42.1233 122.799H39.2773L45.9679 107.926H48.6807L55.3879 122.799H52.5086L51.0107 119.351ZM50.0954 117.186L47.2993 110.691L44.5199 117.186H50.0954Z" fill="currentColor"/>
<path d="M51.0107 119.351H43.5879L42.1233 122.799H39.2773L45.9679 107.926H48.6807L55.3879 122.799H52.5086L51.0107 119.351ZM50.0954 117.186L47.2993 110.691L44.5199 117.186H50.0954Z" fill="currentColor"/>
<path d="M60.248 115.356C60.248 110.925 63.6432 107.711 68.2034 107.711C70.6167 107.711 72.6971 108.577 74.0784 110.193L72.2976 111.875C71.2158 110.709 69.8844 110.126 68.3366 110.126C65.2576 110.126 63.0274 112.291 63.0274 115.356C63.0274 118.42 65.2576 120.586 68.3366 120.586C69.8844 120.586 71.2158 120.019 72.2976 118.82L74.0784 120.519C72.6971 122.135 70.6167 123.001 68.1868 123.001C63.6432 123.001 60.248 119.803 60.248 115.356Z" fill="currentColor"/>
<path d="M60.248 115.356C60.248 110.925 63.6432 107.711 68.2034 107.711C70.6167 107.711 72.6971 108.577 74.0784 110.193L72.2976 111.875C71.2158 110.709 69.8844 110.126 68.3366 110.126C65.2576 110.126 63.0274 112.291 63.0274 115.356C63.0274 118.42 65.2576 120.586 68.3366 120.586C69.8844 120.586 71.2158 120.019 72.2976 118.82L74.0784 120.519C72.6971 122.135 70.6167 123.001 68.1868 123.001C63.6432 123.001 60.248 119.803 60.248 115.356Z" fill="currentColor"/>
<path d="M80.9688 107.926H83.7315V122.799H80.9688V107.926Z" fill="currentColor"/>
<path d="M80.9688 107.926H83.7315V122.799H80.9688V107.926Z" fill="currentColor"/>
<path d="M101.622 119.351H94.1992L92.7347 122.799H89.8887L96.5792 107.926H99.292L105.999 122.799H103.12L101.622 119.351ZM100.707 117.186L97.9107 110.691L95.1313 117.186H100.707Z" fill="currentColor"/>
<path d="M101.622 119.351H94.1992L92.7347 122.799H89.8887L96.5792 107.926H99.292L105.999 122.799H103.12L101.622 119.351ZM100.707 117.186L97.9107 110.691L95.1313 117.186H100.707Z" fill="currentColor"/>
</svg>
