<svg width="327" height="338" viewBox="0 0 327 338" fill="none" xmlns="http://www.w3.org/2000/svg">
<path d="M92.0961 303.993C70.9276 297.312 52.5445 283.95 39.175 266.135C25.2484 248.876 16.3354 227.72 11.8789 206.564C2.40877 163.695 8.53646 116.373 30.819 77.9578C41.9603 58.472 57.0011 41.7699 75.3842 28.4082C93.2102 15.0466 114.379 6.13878 136.661 2.24162C158.944 -1.6555 181.783 -0.542035 203.509 6.13881C225.234 12.8196 244.732 23.9544 261.444 39.543C294.867 69.6067 314.365 113.589 316.593 158.685C319.378 203.223 304.895 249.433 275.37 283.95C260.887 301.209 242.503 315.127 221.892 324.592C201.281 334.056 178.441 338.51 155.601 337.954C132.762 337.397 110.479 331.829 89.8678 321.808C69.2565 311.787 51.4304 297.869 36.9468 280.053C22.4631 262.794 11.8788 242.195 5.75114 219.926C-0.376575 198.213 -1.49068 174.83 1.8517 152.56C8.53649 108.022 35.8326 66.823 74.2701 42.8834C93.2102 30.6352 114.936 22.8409 137.218 19.5005C159.501 16.1601 182.341 17.8303 204.066 22.2842C225.792 27.2948 246.96 35.6458 265.343 49.0075C283.726 62.3692 298.767 79.628 309.351 99.6705C319.935 119.713 325.506 141.982 326.62 164.252C328.291 186.521 324.392 209.348 316.036 229.947C307.68 250.546 294.31 269.475 277.041 283.95C259.772 298.425 239.718 309.003 217.993 314.014C196.267 319.025 173.427 320.138 151.702 315.684C129.976 311.23 109.365 301.766 91.539 288.404C73.713 275.042 59.2293 257.784 48.6451 238.855C38.0609 219.369 31.9332 197.656 31.9332 175.943C31.9332 175.943 31.9332 175.387 32.4902 175.387C32.4902 175.387 33.0473 175.387 33.0473 175.943C33.0473 197.656 39.732 219.369 50.3163 238.298C60.9005 257.227 75.9412 273.929 93.2102 287.291C110.479 300.096 131.091 309.56 152.816 314.014C174.542 317.911 196.824 316.798 217.993 311.787C239.161 306.776 259.215 296.198 275.927 281.723C292.639 267.248 305.452 248.876 313.808 228.833C322.164 208.791 325.506 186.521 323.835 164.809C322.164 143.096 316.593 121.383 306.566 101.897C296.539 82.4117 281.498 65.7096 263.672 52.9047C245.846 40.0997 225.234 31.7487 204.066 27.2948C182.898 22.8409 160.615 21.7274 138.889 24.5111C117.164 27.8515 96.5526 35.6458 78.1695 47.3373C41.4033 70.7202 15.2213 110.805 9.09355 153.674C5.75117 175.387 6.86528 197.656 12.993 218.255C18.5636 239.411 29.1478 258.897 43.0744 275.599C57.001 292.301 74.27 306.22 94.3243 315.684C113.822 325.149 135.547 330.716 157.273 331.273C178.998 331.829 201.281 327.932 220.778 318.468C240.832 309.56 258.101 295.642 272.585 278.94C300.995 246.092 315.479 200.996 312.694 157.571C310.465 114.146 291.525 71.2769 259.215 41.7699C243.06 26.7381 223.563 15.6033 202.952 9.47924C182.341 3.35512 159.501 1.68492 138.332 5.58208C116.607 9.47923 95.9956 18.387 78.7266 31.1919C60.9005 43.9969 46.4168 60.699 35.2756 79.628C12.993 117.486 6.30818 163.695 15.2212 206.007C19.6777 227.163 28.5908 247.762 41.4032 265.578C54.7728 282.837 73.1559 296.198 93.7673 303.436C92.6532 303.436 92.6531 303.436 92.0961 303.993C92.6531 303.436 92.6531 303.993 92.0961 303.993Z" fill="currentColor"/>
</svg>
