<svg width="133" height="100" viewBox="0 0 133 100" fill="none" xmlns="http://www.w3.org/2000/svg">
<path d="M11.2935 91.6647H14.8698V97.3229C13.2887 99.0959 11.1053 99.9635 8.28191 99.9635C5.94792 99.9635 3.95273 99.1713 2.37164 97.6247C0.790546 96.0781 0 94.1166 0 91.7402C0 89.3637 0.828191 87.4022 2.44693 85.8179C4.06567 84.2336 6.02321 83.4414 8.31956 83.4414C10.6159 83.4414 12.6111 84.1958 14.3051 85.7047L12.4605 88.3829C11.7453 87.7417 11.1053 87.3267 10.503 87.1004C9.90065 86.8741 9.26069 86.7609 8.54543 86.7609C7.19021 86.7609 6.06086 87.2136 5.11973 88.1566C4.1786 89.0619 3.72686 90.3067 3.72686 91.8156C3.72686 93.3245 4.1786 94.5315 5.04444 95.4369C5.94792 96.3422 7.00198 96.7948 8.24427 96.7948C9.48656 96.7948 10.503 96.5685 11.3312 96.0781V91.6647H11.2935Z" fill="currentColor"/>
<path d="M11.2935 91.6647H14.8698V97.3229C13.2887 99.0959 11.1053 99.9635 8.28191 99.9635C5.94792 99.9635 3.95273 99.1713 2.37164 97.6247C0.790546 96.0781 0 94.1166 0 91.7402C0 89.3637 0.828191 87.4022 2.44693 85.8179C4.06567 84.2336 6.02321 83.4414 8.31956 83.4414C10.6159 83.4414 12.6111 84.1958 14.3051 85.7047L12.4605 88.3829C11.7453 87.7417 11.1053 87.3267 10.503 87.1004C9.90065 86.8741 9.26069 86.7609 8.54543 86.7609C7.19021 86.7609 6.06086 87.2136 5.11973 88.1566C4.1786 89.0619 3.72686 90.3067 3.72686 91.8156C3.72686 93.3245 4.1786 94.5315 5.04444 95.4369C5.94792 96.3422 7.00198 96.7948 8.24427 96.7948C9.48656 96.7948 10.503 96.5685 11.3312 96.0781V91.6647H11.2935Z" fill="currentColor"/>
<path d="M36.139 99.8123L34.6709 96.3419H27.9324L26.4643 99.8123H22.6621L29.5512 83.8184H33.0145L39.9035 99.8123H36.139ZM31.3205 88.5713L29.3253 93.211H33.3157L31.3205 88.5713Z" fill="currentColor"/>
<path d="M36.139 99.8123L34.6709 96.3419H27.9324L26.4643 99.8123H22.6621L29.5512 83.8184H33.0145L39.9035 99.8123H36.139ZM31.3205 88.5713L29.3253 93.211H33.3157L31.3205 88.5713Z" fill="currentColor"/>
<path d="M61.55 89.1385C61.55 91.7035 60.5336 93.3633 58.5008 94.1177L62.5288 99.8514H58.162L54.6234 94.759H52.1388V99.8514H48.5625V83.8574H54.6234C57.1079 83.8574 58.8772 84.2724 59.9313 85.1022C61.023 85.9321 61.55 87.2524 61.55 89.1385ZM57.2585 91.0245C57.7103 90.6096 57.9361 90.0061 57.9361 89.1385C57.9361 88.2709 57.7103 87.6673 57.2585 87.3655C56.8068 87.0638 56.0162 86.8752 54.8492 86.8752H52.1764V91.6281H54.7739C55.9786 91.6281 56.8068 91.4395 57.2585 91.0245Z" fill="currentColor"/>
<path d="M61.55 89.1385C61.55 91.7035 60.5336 93.3633 58.5008 94.1177L62.5288 99.8514H58.162L54.6234 94.759H52.1388V99.8514H48.5625V83.8574H54.6234C57.1079 83.8574 58.8772 84.2724 59.9313 85.1022C61.023 85.9321 61.55 87.2524 61.55 89.1385ZM57.2585 91.0245C57.7103 90.6096 57.9361 90.0061 57.9361 89.1385C57.9361 88.2709 57.7103 87.6673 57.2585 87.3655C56.8068 87.0638 56.0162 86.8752 54.8492 86.8752H52.1764V91.6281H54.7739C55.9786 91.6281 56.8068 91.4395 57.2585 91.0245Z" fill="currentColor"/>
<path d="M84.2492 85.9308C85.755 87.3265 86.5455 89.2503 86.5455 91.7399C86.5455 94.2295 85.7926 96.191 84.3245 97.6245C82.8563 99.0579 80.56 99.8123 77.5484 99.8123H72.0898V83.8184H77.7366C80.56 83.8184 82.7434 84.5351 84.2492 85.9308ZM81.6517 95.4366C82.5175 94.6067 82.9693 93.3996 82.9693 91.8531C82.9693 90.2687 82.5175 89.0617 81.6517 88.2318C80.7858 87.4019 79.4306 86.9493 77.6237 86.9493H75.6285V96.6814H77.8872C79.5059 96.6437 80.7482 96.2288 81.6517 95.4366Z" fill="currentColor"/>
<path d="M84.2492 85.9308C85.755 87.3265 86.5455 89.2503 86.5455 91.7399C86.5455 94.2295 85.7926 96.191 84.3245 97.6245C82.8563 99.0579 80.56 99.8123 77.5484 99.8123H72.0898V83.8184H77.7366C80.56 83.8184 82.7434 84.5351 84.2492 85.9308ZM81.6517 95.4366C82.5175 94.6067 82.9693 93.3996 82.9693 91.8531C82.9693 90.2687 82.5175 89.0617 81.6517 88.2318C80.7858 87.4019 79.4306 86.9493 77.6237 86.9493H75.6285V96.6814H77.8872C79.5059 96.6437 80.7482 96.2288 81.6517 95.4366Z" fill="currentColor"/>
<path d="M107.966 83.8184V86.987H100.023V90.2688H107.176V93.3242H100.023V96.6437H108.23V99.8123H96.4844V83.8184H107.966Z" fill="currentColor"/>
<path d="M107.966 83.8184V86.987H100.023V90.2688H107.176V93.3242H100.023V96.6437H108.23V99.8123H96.4844V83.8184H107.966Z" fill="currentColor"/>
<path d="M129.423 83.8184H132.999V99.8123H129.423L121.818 89.7784V99.8123H118.242V83.8184H121.593L129.423 94.1163V83.8184Z" fill="currentColor"/>
<path d="M129.423 83.8184H132.999V99.8123H129.423L121.818 89.7784V99.8123H118.242V83.8184H121.593L129.423 94.1163V83.8184Z" fill="currentColor"/>
<path d="M93.8084 37.6084C93.8837 35.8355 93.7707 34.1758 93.5449 32.5915C97.6858 32.1765 100.434 32.2897 102.73 32.3274L102.241 29.3097C100.81 21.4259 96.4059 14.0702 90.0815 8.71369C83.7572 3.39495 75.5129 0 66.4404 0C56.728 0 47.7685 3.80988 41.1429 10.1471C35.7597 15.315 31.9199 22.1426 30.4894 29.951L30.0376 32.3274C32.7104 32.2897 35.3456 32.1765 39.2983 32.5915C39.0725 34.2512 38.9595 35.9487 39.0348 37.6084C37.2655 37.533 31.7317 37.6084 30 37.6084C30 56.0166 45.698 73.2177 66.1769 73.1799C81.3102 73.1799 95.9541 63.7872 101.074 48.3591C102.58 43.7571 102.768 40.2867 102.994 37.5707C101.488 37.6084 95.5401 37.533 93.8084 37.6084ZM66.4404 69.2569C50.4036 69.2569 36.6632 57.2614 34.2539 41.6069C36.1361 41.6069 37.7925 41.6069 39.4866 41.6447C41.03 50.0189 46.4509 57.2991 54.0552 61.1467C58.1962 63.2214 61.3207 63.5986 64.3699 64.1267C63.9935 60.7318 63.617 55.149 60.229 49.453C57.1421 44.2475 52.2482 40.3621 45.5474 38.5892C45.6603 39.9095 45.9239 41.6069 46.4885 43.0404C52.0977 45.0396 57.5938 49.4908 59.6643 59.1098C50.9683 56.4693 43.8534 48.6986 43.0628 38.0611C42.9499 36.4768 43.0252 34.817 43.2887 33.195C54.6199 35.8733 59.589 42.0596 59.589 42.0596C56.9539 34.2889 57.255 30.894 57.9703 27.7631C63.1277 31.4975 65.0476 35.232 66.4781 37.5707C67.8709 35.232 69.1509 32.6669 72.7648 29.4229C72.5389 28.3289 72.1248 26.7823 71.4096 25.3112C69.2262 27.0841 67.5321 28.9325 66.4404 30.3282C65.5746 29.272 63.0524 25.9147 59.2502 23.8401C59.2502 23.8401 57.4056 22.6707 55.7492 21.8785C52.06 20.0679 49.5001 19.5398 45.2463 19.2003C44.3428 20.3697 42.6111 22.5575 41.1053 26.1034C42.2723 26.2542 43.5522 26.4806 45.0957 26.8955C45.6603 25.6884 46.3003 24.519 47.0909 23.3874C49.8013 23.7269 52.2106 24.5568 54.3564 25.613C53.754 27.8008 53.4529 30.0641 53.4905 32.3274C47.4673 29.2342 39.5618 28.5175 34.8939 28.4044C38.5831 14.1456 51.4953 4.03621 66.4028 4.03621C81.2349 4.03621 94.1848 14.1833 97.9117 28.4044C96.4435 28.4421 94.6366 28.5553 92.6414 28.7439C91.5873 25.2735 89.818 22.1426 87.484 19.1249C83.7572 19.3889 80.4444 20.0679 76.981 21.7276C74.3835 16.258 70.619 13.014 66.3651 10.0717C62.6759 12.6367 59.4384 15.3527 56.9915 19.4644C58.1585 20.0679 59.4384 20.8978 60.3796 21.5768C61.7348 19.3512 63.6547 17.0879 66.4028 14.9755C74.7223 21.3504 77.4704 31.1203 73.2542 42.0973C73.2542 42.0973 76.9058 36.175 87.2205 33.7231C87.0323 32.6292 86.7311 31.1958 86.1664 29.8755C83.7948 30.4413 81.4232 31.2335 79.2774 32.3274C79.315 30.0264 79.0139 27.7254 78.3739 25.4998C80.482 24.4436 82.8913 23.6137 85.6018 23.2742C88.9522 28.1026 90.0439 33.1196 89.7427 38.0611C79.0515 39.8717 71.3719 46.8502 69.0379 59.2607C68.5862 61.7503 68.6991 61.109 68.4733 64.1267C71.4849 63.5986 78.2986 62.9197 84.9241 56.8088C88.5757 53.4138 91.3238 49.0758 92.7167 44.172C91.3238 44.2852 89.5921 44.5492 88.1993 45.115C85.6018 51.7541 80.0303 56.9974 73.1412 59.1098C74.76 51.6409 78.5998 46.6994 84.0207 44.0211C88.8016 41.6447 94.3354 41.4938 98.5893 41.6069C96.2177 57.4877 82.7031 69.2569 66.4404 69.2569Z" fill="currentColor"/>
<path d="M93.8084 37.6084C93.8837 35.8355 93.7707 34.1758 93.5449 32.5915C97.6858 32.1765 100.434 32.2897 102.73 32.3274L102.241 29.3097C100.81 21.4259 96.4059 14.0702 90.0815 8.71369C83.7572 3.39495 75.5129 0 66.4404 0C56.728 0 47.7685 3.80988 41.1429 10.1471C35.7597 15.315 31.9199 22.1426 30.4894 29.951L30.0376 32.3274C32.7104 32.2897 35.3456 32.1765 39.2983 32.5915C39.0725 34.2512 38.9595 35.9487 39.0348 37.6084C37.2655 37.533 31.7317 37.6084 30 37.6084C30 56.0166 45.698 73.2177 66.1769 73.1799C81.3102 73.1799 95.9541 63.7872 101.074 48.3591C102.58 43.7571 102.768 40.2867 102.994 37.5707C101.488 37.6084 95.5401 37.533 93.8084 37.6084ZM66.4404 69.2569C50.4036 69.2569 36.6632 57.2614 34.2539 41.6069C36.1361 41.6069 37.7925 41.6069 39.4866 41.6447C41.03 50.0189 46.4509 57.2991 54.0552 61.1467C58.1962 63.2214 61.3207 63.5986 64.3699 64.1267C63.9935 60.7318 63.617 55.149 60.229 49.453C57.1421 44.2475 52.2482 40.3621 45.5474 38.5892C45.6603 39.9095 45.9239 41.6069 46.4885 43.0404C52.0977 45.0396 57.5938 49.4908 59.6643 59.1098C50.9683 56.4693 43.8534 48.6986 43.0628 38.0611C42.9499 36.4768 43.0252 34.817 43.2887 33.195C54.6199 35.8733 59.589 42.0596 59.589 42.0596C56.9539 34.2889 57.255 30.894 57.9703 27.7631C63.1277 31.4975 65.0476 35.232 66.4781 37.5707C67.8709 35.232 69.1509 32.6669 72.7648 29.4229C72.5389 28.3289 72.1248 26.7823 71.4096 25.3112C69.2262 27.0841 67.5321 28.9325 66.4404 30.3282C65.5746 29.272 63.0524 25.9147 59.2502 23.8401C59.2502 23.8401 57.4056 22.6707 55.7492 21.8785C52.06 20.0679 49.5001 19.5398 45.2463 19.2003C44.3428 20.3697 42.6111 22.5575 41.1053 26.1034C42.2723 26.2542 43.5522 26.4806 45.0957 26.8955C45.6603 25.6884 46.3003 24.519 47.0909 23.3874C49.8013 23.7269 52.2106 24.5568 54.3564 25.613C53.754 27.8008 53.4529 30.0641 53.4905 32.3274C47.4673 29.2342 39.5618 28.5175 34.8939 28.4044C38.5831 14.1456 51.4953 4.03621 66.4028 4.03621C81.2349 4.03621 94.1848 14.1833 97.9117 28.4044C96.4435 28.4421 94.6366 28.5553 92.6414 28.7439C91.5873 25.2735 89.818 22.1426 87.484 19.1249C83.7572 19.3889 80.4444 20.0679 76.981 21.7276C74.3835 16.258 70.619 13.014 66.3651 10.0717C62.6759 12.6367 59.4384 15.3527 56.9915 19.4644C58.1585 20.0679 59.4384 20.8978 60.3796 21.5768C61.7348 19.3512 63.6547 17.0879 66.4028 14.9755C74.7223 21.3504 77.4704 31.1203 73.2542 42.0973C73.2542 42.0973 76.9058 36.175 87.2205 33.7231C87.0323 32.6292 86.7311 31.1958 86.1664 29.8755C83.7948 30.4413 81.4232 31.2335 79.2774 32.3274C79.315 30.0264 79.0139 27.7254 78.3739 25.4998C80.482 24.4436 82.8913 23.6137 85.6018 23.2742C88.9522 28.1026 90.0439 33.1196 89.7427 38.0611C79.0515 39.8717 71.3719 46.8502 69.0379 59.2607C68.5862 61.7503 68.6991 61.109 68.4733 64.1267C71.4849 63.5986 78.2986 62.9197 84.9241 56.8088C88.5757 53.4138 91.3238 49.0758 92.7167 44.172C91.3238 44.2852 89.5921 44.5492 88.1993 45.115C85.6018 51.7541 80.0303 56.9974 73.1412 59.1098C74.76 51.6409 78.5998 46.6994 84.0207 44.0211C88.8016 41.6447 94.3354 41.4938 98.5893 41.6069C96.2177 57.4877 82.7031 69.2569 66.4404 69.2569Z" fill="currentColor"/>
</svg>
