<svg width="333" height="343" viewBox="0 0 333 343" fill="none" xmlns="http://www.w3.org/2000/svg">
<path d="M313.492 258.856C304.017 269.99 294.541 280.567 282.836 290.03C271.689 298.937 259.427 307.287 246.05 313.411C219.853 325.658 190.312 332.338 160.771 330.668C131.231 329.554 102.247 321.204 77.1653 305.617C51.5261 290.587 30.9032 268.32 17.5263 242.156C10.8378 229.352 5.82146 214.878 3.03459 200.961C1.36247 193.725 0.805096 186.488 0.247722 179.251C0.247722 172.014 -0.309652 164.777 0.247722 157.54C0.805096 143.067 4.14931 128.593 8.05092 114.676C10.8378 107.996 12.5099 100.759 16.4115 94.6356C18.0837 91.2955 19.1985 87.9554 21.428 85.172L27.0017 75.7084C35.3623 63.4615 44.2802 52.3279 55.4277 42.8643C60.4441 37.8542 66.5752 33.4008 72.7063 29.504C75.4932 27.2773 78.8374 25.6073 82.1817 23.9372L86.6407 21.1538C88.3128 20.0405 89.9849 19.4838 91.657 18.9271L101.69 13.917L111.723 10.0203L116.739 8.3502L121.755 6.68014L132.345 3.89674L142.935 2.22673L148.509 1.11334L154.083 0.556671L165.23 0C169.132 0 172.476 0.556671 176.378 0.556671C205.919 1.67003 234.345 12.2469 258.869 28.3907C282.836 45.0911 302.902 67.9149 315.721 94.6356C322.41 107.996 326.311 121.913 329.656 136.387C330.77 143.623 331.885 150.86 332.443 158.097C332.443 161.994 333 165.334 333 169.231L332.443 180.364C331.328 194.838 329.098 209.868 324.082 223.785C321.852 231.022 319.066 237.702 315.721 244.382C312.377 251.063 309.033 257.743 304.574 263.31C296.213 275.557 286.738 286.69 275.59 296.71C264.443 306.174 252.738 315.081 239.361 321.761C226.542 328.441 212.607 333.451 198.115 337.348C183.624 340.688 169.132 342.915 154.64 342.915C140.149 343.471 125.099 341.245 111.165 337.905C97.2308 334.565 83.2964 329.554 70.4768 321.761C57.6572 314.524 46.5098 305.061 36.477 294.484C27.0017 283.35 18.641 271.103 12.5099 258.299V257.743H13.0673C19.7558 270.546 28.1164 282.237 37.5918 292.814C47.6245 303.39 59.3294 311.741 71.5916 318.978C83.8538 326.214 97.7882 330.668 111.723 334.008C125.657 337.348 140.149 338.461 154.64 337.905C212.05 336.235 268.345 306.731 299.558 259.413C303.459 253.846 306.803 247.166 310.148 241.042C312.934 234.362 316.279 228.239 317.951 221.002C322.41 207.642 324.639 193.168 325.754 179.251L326.312 168.674C326.312 165.334 326.311 161.437 325.754 158.097C325.754 150.86 324.639 144.18 323.525 136.943C320.738 123.026 316.836 109.109 310.705 96.3056C299 70.1417 279.492 47.8744 256.082 31.7307C232.673 15.587 204.804 5.0101 175.821 3.89674C118.411 -1.11338 59.3293 28.9474 28.6737 77.3785L23.1 86.842C21.4279 90.1821 19.7558 93.5222 18.0837 96.3056C14.7394 102.429 12.51 109.666 10.2805 116.346C6.37885 130.263 3.59191 144.18 3.59191 158.654C3.03454 165.891 3.59195 173.127 4.14932 180.364C5.26407 187.601 5.82148 194.838 7.4936 201.518C10.2805 215.435 15.2968 229.352 21.9853 241.599C48.1819 292.814 104.477 325.101 161.329 327.328C189.755 328.998 218.738 323.431 244.935 311.741C257.754 305.617 270.574 298.38 281.722 289.473C293.426 279.453 303.459 269.433 313.492 258.856C312.935 258.299 312.935 258.299 313.492 258.856C313.492 258.856 313.492 258.299 313.492 258.856Z" fill="currentColor"/>
</svg>
