<svg width="327" height="338" viewBox="0 0 327 338" fill="none" xmlns="http://www.w3.org/2000/svg">
<path d="M234.904 34.0073C256.072 40.6881 274.455 54.0498 287.825 71.8654C301.752 89.1242 310.665 110.28 315.121 131.436C324.591 174.305 318.464 221.627 296.181 260.042C285.04 279.528 269.999 296.23 251.616 309.592C233.79 322.953 212.621 331.861 190.339 335.758C168.056 339.656 145.217 338.542 123.491 331.861C101.766 325.18 82.2683 314.046 65.5564 298.457C32.1325 268.393 12.6353 224.411 10.407 179.315C7.62172 134.777 22.1054 88.5675 51.6298 54.0498C66.1135 36.791 84.4966 22.8726 105.108 13.4081C125.719 3.94355 148.559 -0.510342 171.399 0.0463947C194.238 0.603131 216.521 6.1705 237.132 16.1917C257.743 26.213 275.57 40.1314 290.053 57.947C304.537 75.2058 315.121 95.805 321.249 118.074C327.377 139.787 328.491 163.17 325.148 185.44C318.464 229.979 291.167 271.177 252.73 295.117C233.79 307.365 212.064 315.159 189.782 318.5C167.499 321.84 144.659 320.17 122.934 315.716C101.208 310.705 80.04 302.354 61.6569 288.993C43.2738 275.631 28.2331 258.372 17.6489 238.33C7.06467 218.287 1.49399 196.018 0.379865 173.748C-1.29133 151.479 2.60813 128.652 10.9641 108.053C19.3201 87.454 32.6896 68.525 49.9586 54.0498C67.2276 39.5747 87.2819 28.9967 109.007 23.9861C130.733 18.9754 153.573 17.862 175.298 22.3158C197.024 26.7697 217.635 36.2343 235.461 49.5959C253.287 62.9576 267.771 80.2164 278.355 99.1455C288.939 118.631 295.067 140.344 295.067 162.057C295.067 162.057 295.067 162.613 294.51 162.613C294.51 162.613 293.953 162.613 293.953 162.057C293.953 140.344 287.268 118.631 276.684 99.7022C266.1 80.7732 251.059 64.0711 233.79 50.7094C216.521 37.9045 195.909 28.4399 174.184 23.9861C152.458 20.0889 130.176 21.2024 109.007 26.213C87.8389 31.2236 67.7847 41.8016 51.0727 56.2768C34.3608 70.7519 21.5483 89.1242 13.1924 109.167C4.8364 129.209 1.49399 151.479 3.16519 173.191C4.83638 194.904 10.4071 216.617 20.4342 236.103C30.4614 255.588 45.5021 272.29 63.3281 285.095C81.1542 297.9 101.766 306.251 122.934 310.705C144.102 315.159 166.385 316.273 188.111 313.489C209.836 310.149 230.447 302.354 248.831 290.663C285.597 267.28 311.779 227.195 317.906 184.326C321.249 162.613 320.135 140.344 314.007 119.745C308.436 98.5887 297.852 79.103 283.926 62.4009C269.999 45.6988 252.73 31.7804 232.676 22.3158C213.178 12.8513 191.453 7.28397 169.727 6.72723C148.002 6.17049 125.719 10.0676 106.222 19.5322C86.1677 28.4399 68.8988 42.3584 54.4151 59.0604C26.0048 91.9079 11.5211 137.004 14.3065 180.429C16.5347 223.854 35.4749 266.723 67.7847 296.23C83.9395 311.262 103.437 322.397 124.048 328.521C144.66 334.645 167.499 336.315 188.668 332.418C210.393 328.521 231.004 319.613 248.273 306.808C266.099 294.003 280.583 277.301 291.724 258.372C314.007 220.514 320.692 174.305 311.779 131.993C307.322 110.837 298.409 90.2377 285.597 72.4221C272.227 55.1633 253.844 41.8016 233.233 34.564C234.347 34.564 234.347 34.564 234.904 34.0073C234.347 34.564 234.347 34.0073 234.904 34.0073Z" fill="currentColor"/>
</svg>
