<svg width="338" height="347" viewBox="0 0 338 347" fill="none" xmlns="http://www.w3.org/2000/svg">
<path d="M0 141.266C9.48807 93.2686 41.301 50.8526 84.2764 27.4122C126.694 3.41366 180.273 -0.493081 226.039 16.2501C272.364 32.9932 309.758 70.9444 327.059 116.709C344.919 162.474 340.454 216.052 317.013 258.468C293.572 301.442 250.597 333.254 202.598 343.3C178.599 348.323 153.484 348.323 129.484 342.742C105.485 337.161 83.1602 325.44 64.7421 309.255C46.3241 293.07 32.3711 271.862 23.4411 248.98C14.5112 226.098 10.0462 201.541 10.6043 176.984C11.1624 127.871 31.2548 79.316 66.4165 45.2716C84.2764 28.5284 105.485 14.5758 128.368 7.32039C151.809 -0.49308 176.925 -2.1674 200.924 2.85555C224.923 7.32039 247.806 18.4825 266.782 34.1095C285.758 49.7364 300.828 69.2701 311.99 91.5943C333.199 135.127 337.106 188.705 317.571 233.911C307.525 256.235 291.898 275.769 272.922 290.838C253.945 305.907 231.062 316.511 207.621 322.65C184.18 328.789 159.065 329.347 135.066 324.882C111.066 320.976 87.6251 311.488 68.0909 296.977C47.9985 283.024 32.3711 263.491 21.2086 241.725C10.6043 219.959 5.0231 195.402 5.58122 171.403C5.58122 159.125 7.25559 147.405 10.0462 135.127C12.8368 123.406 18.418 112.244 25.1155 102.198C38.5104 81.5484 58.0447 65.9215 79.2533 54.2012C100.462 42.481 123.903 35.2257 147.902 31.877C171.902 28.5284 196.459 28.5284 219.9 33.5513C196.459 28.5284 171.902 28.5284 147.902 32.4351C123.903 36.3419 101.02 43.5972 79.8114 55.3175C58.6028 67.0377 39.6267 82.6646 26.7899 102.756C13.3949 122.848 8.37183 147.405 7.81371 170.845C7.81371 194.844 12.8368 218.842 23.4411 240.05C34.0454 261.258 49.6729 280.234 69.2071 294.187C88.7414 308.139 111.624 317.069 135.066 320.976C158.507 324.882 183.064 324.324 205.947 318.185C229.388 312.604 251.155 302 269.573 286.931C287.991 271.862 303.618 252.887 313.106 231.121C322.594 209.355 325.943 184.798 324.827 161.357C323.711 137.359 317.571 113.919 306.967 92.7105C296.363 71.5025 281.293 51.9688 262.875 37.4581C245.016 22.9473 223.249 11.7852 199.808 7.8785C176.367 3.41366 152.367 5.08797 129.484 12.9014C107.159 20.1568 86.5089 33.5513 69.2071 49.7364C35.1617 83.2227 15.6274 130.104 15.0693 177.543C15.0693 201.541 18.9761 224.981 27.9061 247.306C36.836 269.072 50.231 289.722 68.0909 305.349C85.3927 321.534 107.159 332.696 130.042 337.719C152.925 342.742 177.483 343.3 200.924 338.277C247.806 328.789 289.107 297.535 311.99 255.677C334.873 213.819 339.338 162.474 322.036 117.825C305.851 73.1768 269.015 36.3419 224.365 20.1568C179.715 3.41366 127.81 6.76229 85.9508 30.2027C44.0916 53.085 12.8368 94.9429 2.79061 141.824C2.79061 142.382 1.67437 142.94 1.11624 142.94C0.558122 142.94 0 141.824 0 141.266Z" fill="currentColor"/>
</svg>
