<svg width="247" height="244" viewBox="0 0 247 244" fill="none" xmlns="http://www.w3.org/2000/svg">
<path d="M112.183 1.41627C146.731 -1.68742 182.32 11.4226 206.848 36.033C231.645 60.1518 245.001 95.8824 242.749 130.406C240.608 165.309 222.256 198.356 194.576 219.269C167.008 240.563 129.666 248.202 96.1284 240.685C61.7202 233.011 31.4964 210.069 15.0775 179.366C6.86808 164.014 1.853 146.9 0.857727 129.434C-0.137531 111.968 3.37816 94.4195 10.7115 78.6427C18.0449 62.8659 29.687 49.1301 43.4713 38.4832C57.2555 27.8364 73.0704 19.8982 89.8883 15.3828C123.413 5.97171 160.458 9.98257 190.64 27.1546C205.597 35.9865 219.325 47.6565 228.83 61.8026C238.826 76.2177 244.981 92.9977 246.356 110.352C248.11 127.596 244.706 145.525 238.243 161.459C231.401 177.505 221.121 191.668 208.162 203.725C182.781 226.855 147.111 240.199 112.455 235.901C95.2614 233.506 78.8517 226.752 64.8108 216.825C50.77 206.899 38.9865 193.421 30.1291 178.672C21.2718 163.923 15.877 146.92 14.1224 129.677C11.988 112.545 13.762 94.6803 19.7334 78.4767C25.2137 62.004 35.3824 47.4611 47.9615 35.5155C60.7635 24.3306 76.3555 15.6319 92.7937 11.2277C101.147 8.77986 109.455 7.58419 118.365 7.03786C126.896 6.6028 135.604 8.18054 143.776 10.7414C160.5 15.7519 175.032 25.9472 187.24 38.0623C199.449 50.1773 209.065 64.7037 216.136 80.3893C223.206 96.0749 228.11 112.808 229.373 129.783C228.11 112.808 223.206 96.0749 215.756 80.5006C208.306 64.9263 198.801 50.7802 186.592 38.6651C174.384 26.55 159.963 16.7351 143.731 11.9936C127.387 6.87184 109.678 8.3448 93.6192 12.6377C77.2924 17.4221 61.9686 25.6293 49.6578 37.0833C37.347 48.5372 27.5579 62.9689 21.9662 79.0613C16.3745 95.1536 14.8688 112.526 16.8917 129.278C18.9145 146.03 24.1979 162.652 32.9438 177.021C41.4215 191.881 52.982 204.599 66.9114 214.145C80.8409 223.691 96.8709 230.556 113.574 232.682C130.276 234.808 147.651 232.194 163.375 226.76C179.479 221.215 194.2 212.359 206.511 200.905C218.822 189.451 229.102 175.288 235.297 159.845C241.602 144.782 244.47 127.836 242.827 110.973C241.184 94.1104 235.252 78.091 225.367 64.0562C215.974 50.2904 202.737 38.8894 188.272 30.3266C158.692 13.8039 122.897 9.83953 90.5117 18.9169C74.1849 23.7013 59.0179 31.0366 45.6134 41.5722C32.5885 51.9965 21.2146 65.2407 14.1495 80.526C6.59324 95.5422 3.3458 112.599 4.49786 129.193C5.64993 145.787 10.1739 162.632 18.2719 177.604C34.0881 207.658 63.5979 229.57 96.6442 236.817C129.69 244.065 165.514 236.871 192.434 216.18C219.578 196.25 237.282 163.806 239.377 130.155C241.852 96.3922 229.21 61.6913 204.904 37.8415C180.867 13.5001 146.26 0.928219 112.36 3.42907C111.98 3.54034 111.378 2.89099 111.266 2.51068C111.155 2.13038 111.803 1.52754 112.183 1.41627Z" fill="currentColor"/>
</svg>
