<svg width="31" height="31" viewBox="0 0 31 31" fill="none" xmlns="http://www.w3.org/2000/svg">
<path d="M16.5771 0.04972C16.2772 0.0673611 15.9773 0.0938237 15.6685 0.129108C14.7776 0.199676 13.9131 0.305532 13.031 0.429027C12.7135 0.473131 12.4047 0.508415 12.0784 0.543699C11.4168 0.614267 10.7993 0.781868 10.1907 0.993572C9.89074 1.09943 9.59082 1.2141 9.29091 1.33759C7.14739 2.08738 5.28615 3.34879 3.69836 5.02479C3.36316 5.36881 3.07207 5.73047 2.81626 6.10978C1.1579 9.40885 -0.218181 13.1666 0.0288087 16.8891C0.0640929 17.3566 0.117019 17.8153 0.20523 18.2828C0.425756 19.9059 0.981482 21.4319 1.7842 22.8168C2.04883 23.2755 2.34874 23.7254 2.67512 24.1488C5.65664 27.8889 10.3406 30.5353 15.2098 30.0325C15.5362 30.0148 15.8626 29.9972 16.189 29.9619C16.8417 29.9001 17.4857 29.8119 18.1296 29.6973C18.4119 29.6443 18.6853 29.5914 18.9588 29.5297C19.0999 29.4944 19.241 29.4679 19.3822 29.4326C19.391 29.4326 19.3998 29.4326 19.3998 29.4238C19.8673 29.3179 20.326 29.1856 20.7847 29.0357C20.9259 28.9916 21.067 28.9386 21.2081 28.8857C21.6845 28.7093 22.152 28.5064 22.6107 28.2771C22.7342 28.2153 22.8665 28.1447 22.99 28.083C23.6869 27.7125 24.3484 27.2803 24.9747 26.8039C25.0982 26.7069 25.2217 26.6099 25.3452 26.5129C26.2097 25.8072 26.9859 25.0045 27.6563 24.1224C27.8416 23.8754 28.0268 23.6196 28.1944 23.3637C28.9266 22.2435 29.4911 21.0173 29.8351 19.7206C29.9145 19.3678 29.9851 19.015 30.0292 18.6621C30.0998 18.274 30.1174 17.8859 30.1086 17.4977C30.0821 16.7039 30.0645 15.9188 30.038 15.1337C30.0292 14.7456 30.0204 14.3486 30.0027 13.9605C30.0292 13.4842 30.038 12.999 30.0204 12.505C30.0027 12.0111 29.9586 11.5083 29.888 11.0231C29.6499 9.74405 29.2265 8.48264 28.6266 7.30944C28.4855 7.03599 28.3355 6.77136 28.1856 6.50672C27.6299 5.58052 26.9683 4.72487 26.2185 3.97508C26.0685 3.82513 25.9186 3.68399 25.7686 3.55167C25.2923 3.12826 24.7895 2.74014 24.2514 2.39612C24.1103 2.30791 23.9691 2.2197 23.828 2.14031C23.1841 1.77865 22.5048 1.47873 21.7903 1.24938C21.6404 1.20528 21.4992 1.16117 21.3493 1.11707C21.0405 1.03768 20.7318 0.967109 20.4142 0.914184C20.229 0.852435 20.0526 0.790689 19.8673 0.720119C19.735 0.676015 19.6115 0.623088 19.4792 0.578982C19.4704 0.570161 19.4527 0.570163 19.4439 0.561341C18.5177 0.190858 17.5915 -0.126702 16.5771 0.04972Z" fill="currentColor"/>
</svg>
