<svg width="80" height="80" viewBox="0 0 80 80" fill="none" xmlns="http://www.w3.org/2000/svg">
<rect x="79.5" y="79.5" width="79" height="79" rx="39.5" transform="rotate(180 79.5 79.5)" stroke="#D89477"/>
<path d="M49.3957 37.3763L42.8393 31.1066C39.9021 28.2978 35.14 28.2978 32.2029 31.1066C29.2657 33.9153 29.2657 38.4692 32.2029 41.2779L40.7872 49.4869C42.8914 51.4991 46.3009 51.5051 48.4129 49.5005C50.518 47.5022 50.5306 44.2504 48.441 42.2373C48.4364 42.2328 45.5628 39.4849 39.8203 33.9935C38.5505 32.7792 36.4917 32.7792 35.2219 33.9935C33.952 35.2078 33.952 37.1766 35.2219 38.391L41.7783 44.6607L43.3884 43.121L36.832 36.8512C36.4514 36.4873 36.4514 35.8972 36.832 35.5332C37.2126 35.1693 37.8296 35.1693 38.2102 35.5332L46.8168 43.7636C48.0286 44.9309 48.0213 46.804 46.8087 47.955C45.587 49.1147 43.6146 49.1112 42.3973 47.9472L33.813 39.7382C31.7651 37.7798 31.7651 34.6047 33.813 32.6463C35.8609 30.6879 39.1813 30.6879 41.2292 32.6463L47.7856 38.916L49.3957 37.3763Z" fill="#D89477"/>
</svg>
