<svg width="56" height="56" viewBox="0 0 56 56" fill="none" xmlns="http://www.w3.org/2000/svg">
<path d="M32.5805 53.9685C31.5152 53.9685 30.4505 53.7764 29.4458 53.3937C27.8684 52.7927 26.1316 52.7929 24.5547 53.3937C22.6842 54.1062 20.6055 54.1581 18.702 53.5395C16.7984 52.921 15.1473 51.6573 14.0528 49.9814C13.13 48.5683 11.7249 47.5474 10.0959 47.1065C7.43274 46.3856 5.23434 44.424 4.21484 41.859L6.00981 41.1456C6.80575 43.148 8.52177 44.6793 10.6003 45.2419C12.6873 45.8068 14.4877 47.1149 15.6698 48.9252C17.4231 51.6101 20.8706 52.73 23.867 51.5887C25.8871 50.8192 28.1126 50.819 30.1333 51.5887C33.1296 52.7303 36.5771 51.6102 38.3303 48.9253C39.5125 47.115 41.3128 45.8069 43.4 45.242C46.495 44.4042 48.6256 41.4717 48.466 38.2691C48.3584 36.1096 49.046 33.9931 50.4024 32.3095C52.4141 29.8123 52.4141 26.1877 50.4024 23.6905C50.0358 23.2355 49.7133 22.7411 49.4438 22.2206C49.3728 22.0835 49.2272 22.011 49.0803 22.0394C47.9146 22.2661 46.7168 22.3811 45.5198 22.3811C40.5117 22.3811 35.8182 20.4159 32.3036 16.8475L33.68 15.4922C36.8284 18.689 41.0334 20.4495 45.5198 20.4495C46.5933 20.4495 47.6671 20.3465 48.7116 20.1435C49.7069 19.9497 50.6907 20.4278 51.1592 21.3324C51.3695 21.7383 51.6209 22.124 51.9067 22.4787C53.1625 24.0375 53.8541 25.9984 53.8541 28C53.8541 30.0016 53.1625 31.9625 51.9068 33.5213C50.8481 34.8354 50.3112 36.4874 50.3954 38.1729C50.495 40.1721 49.902 42.1649 48.7254 43.7843C47.5488 45.4037 45.8369 46.5836 43.9046 47.1064C42.2758 47.5473 40.8705 48.5683 39.9476 49.9812C38.8533 51.6572 37.2021 52.9208 35.2984 53.5395C34.4172 53.8259 33.4986 53.9685 32.5805 53.9685Z" fill="#D89477"/>
<path d="M3.66146 39.7005C3.59875 39.1962 3.57982 38.6821 3.60532 38.1726C3.68928 36.4872 3.15242 34.8352 2.09378 33.5211C0.838122 31.9624 0.146484 30.0015 0.146484 27.9998C0.146484 25.9982 0.838122 24.0373 2.09378 22.4786C3.15255 21.1643 3.68941 19.5124 3.60532 17.8269C3.50552 15.8277 4.09852 13.8349 5.27511 12.2155C6.45171 10.5961 8.16374 9.41624 10.0958 8.8933C11.7248 8.45251 13.13 7.43147 14.0529 6.01845C15.1473 4.34247 16.7985 3.07883 18.7021 2.46033C20.6055 1.84171 22.6843 1.89347 24.5548 2.6061C25.2673 2.87755 26.0161 3.02732 26.78 3.05127C27.9302 3.08745 28.8636 3.97611 28.9511 5.11833C29.203 8.4077 30.4175 11.5177 32.463 14.1121L30.9462 15.308C28.6624 12.4114 27.3064 8.93888 27.0251 5.2659C27.0132 5.11176 26.879 4.98685 26.7195 4.98183C25.7404 4.95118 24.7808 4.75918 23.8672 4.41111C20.8705 3.26954 17.4233 4.38973 15.67 7.07451C14.4879 8.88493 12.6875 10.1929 10.6005 10.7578C7.50533 11.5955 5.37478 14.528 5.53446 17.7306C5.64211 19.8901 4.95447 22.0066 3.59811 23.6902C1.58642 26.1873 1.58642 29.812 3.59811 32.3092C4.95447 33.9928 5.64211 36.1093 5.53446 38.2688C5.51463 38.6671 5.52931 39.0685 5.57824 39.4621L3.66146 39.7005Z" fill="#D89477"/>
<path d="M21.4434 21.2149C19.0762 21.2149 17.1504 19.2891 17.1504 16.9219C17.1504 14.5547 19.0762 12.6289 21.4434 12.6289C23.8106 12.6289 25.7364 14.5547 25.7364 16.9219C25.7364 19.2891 23.8106 21.2149 21.4434 21.2149ZM21.4434 14.5605C20.1414 14.5605 19.082 15.6199 19.082 16.9219C19.082 18.2239 20.1414 19.2834 21.4434 19.2834C22.7454 19.2834 23.8048 18.2239 23.8048 16.9219C23.8048 15.6199 22.7456 14.5605 21.4434 14.5605Z" fill="#D89477"/>
<path d="M51.5586 15.8497C49.1914 15.8497 47.2656 13.9239 47.2656 11.5567C47.2656 9.18947 49.1914 7.26367 51.5586 7.26367C53.9259 7.26367 55.8517 9.18947 55.8517 11.5567H53.9201C53.9201 10.2547 52.8607 9.19526 51.5586 9.19526C50.2566 9.19526 49.1972 10.2547 49.1972 11.5567C49.1972 12.8587 50.2566 13.9181 51.5586 13.9181C52.3462 13.9181 53.0794 13.5273 53.5198 12.8726L55.1224 13.9508C54.3225 15.1398 52.9902 15.8497 51.5586 15.8497Z" fill="#D89477"/>
<path d="M36.6426 34.2247C34.2754 34.2247 32.3496 32.2989 32.3496 29.9317C32.3496 27.5645 34.2754 25.6387 36.6426 25.6387C39.0099 25.6387 40.9357 27.5645 40.9357 29.9317C40.9357 32.2989 39.0097 34.2247 36.6426 34.2247ZM36.6426 27.5704C35.3406 27.5704 34.2812 28.6298 34.2812 29.9318C34.2812 31.2338 35.3406 32.2932 36.6426 32.2932C37.9447 32.2932 39.0041 31.2338 39.0041 29.9318C39.0041 28.6298 37.9447 27.5704 36.6426 27.5704Z" fill="#D89477"/>
<path d="M18.1153 39.6954C15.7481 39.6954 13.8223 37.7696 13.8223 35.4024C13.8223 33.0352 15.7481 31.1094 18.1153 31.1094C20.4825 31.1094 22.4083 33.0352 22.4083 35.4024C22.4083 37.7696 20.4824 39.6954 18.1153 39.6954ZM18.1153 33.041C16.8133 33.041 15.7539 34.1004 15.7539 35.4024C15.7539 36.7044 16.8133 37.7638 18.1153 37.7638C19.4173 37.7638 20.4767 36.7044 20.4767 35.4024C20.4767 34.1004 19.4173 33.041 18.1153 33.041Z" fill="#D89477"/>
<path d="M11.6055 23.7266H13.5371V25.6582H11.6055V23.7266Z" fill="#D89477"/>
<path d="M30.8555 42.4785H32.7871V44.4101H30.8555V42.4785Z" fill="#D89477"/>
<path d="M32.8477 0H34.7793V1.93159H32.8477V0Z" fill="#D89477"/>
<path d="M38.5742 9.65039H40.5058V11.582H38.5742V9.65039Z" fill="#D89477"/>
<path d="M9.59961 54.0684H11.5312V55.9999H9.59961V54.0684Z" fill="#D89477"/>
</svg>
