<svg width="210" height="205" viewBox="0 0 210 205" fill="none" xmlns="http://www.w3.org/2000/svg">
<path d="M0.659454 34.7506C3.72099 37.2871 6.84032 39.7948 9.93074 42.3024C11.4326 43.4842 12.9056 44.6948 14.4075 45.8765C15.6206 46.8565 16.6603 47.8942 18.1333 48.2689C18.6821 48.9895 19.5486 49.4506 20.675 49.1048C22.9567 48.4418 25.2384 47.7212 27.5201 47.0583C28.2133 46.8565 28.6177 46.453 28.791 45.963L32.2569 49.2489C36.878 53.6301 41.5281 58.0112 46.1782 62.3924C38.2355 73.6912 33.6721 87.4112 33.8165 101.333C34.0187 121.711 45.976 141.196 62.9589 152.495C58.6265 157.539 54.3519 162.641 50.1351 167.771C49.7596 167.541 49.2397 167.483 48.6621 167.714C45.0807 169.039 41.557 171.057 38.2355 172.902C38.0045 173.017 37.8312 173.161 37.6868 173.334C37.6001 173.392 37.5134 173.478 37.4268 173.565C32.2568 179.387 29.282 186.939 24.0542 192.646C21.5992 195.327 26.4226 198.497 27.9245 194.894C27.9245 194.865 27.9534 194.837 27.9534 194.808C29.4264 194.029 30.8416 193.107 32.2569 192.214C33.1522 191.666 34.1631 191.147 35.1162 190.542C35.2606 190.628 35.4339 190.715 35.6072 190.772C35.4917 195.038 35.3473 199.304 35.2895 203.599C35.2606 204.982 36.7336 205.328 37.6001 204.694C37.6868 204.694 37.7734 204.665 37.8312 204.637C39.7374 203.858 40.4306 202.475 41.5859 200.803C42.9434 198.814 44.3008 196.797 45.6294 194.808C46.958 192.79 48.3155 190.801 49.6441 188.784C50.8283 187.025 52.3879 185.296 52.7923 183.163C52.7923 183.105 52.7923 183.048 52.7923 183.019C52.9078 182.99 53.0522 182.932 53.1966 182.875C54.0342 182.5 54.2364 181.462 54.092 180.655C53.7743 178.782 53.4566 176.908 53.1389 175.035C52.9367 173.911 52.85 172.729 52.5323 171.605C57.0669 165.927 61.6014 160.219 66.0204 154.426C70.5839 157.107 75.465 159.182 80.5194 160.565C106.34 167.541 136.551 154.599 150.039 131.569C155.643 123.325 158.964 113.814 159.802 103.61C160.928 89.9477 157.78 75.4207 150.328 63.8048C147.238 58.9912 143.397 54.6965 139.035 51.0071C141.606 47.3753 144.205 43.7436 146.776 40.1407C148.075 38.3248 149.375 36.5089 150.675 34.693C152.292 34.7795 154.083 34.4336 155.498 34.3471C157.982 34.203 160.726 34.5777 162.661 32.8771C162.69 32.8483 162.719 32.7907 162.777 32.7618C164.856 31.5513 165.896 28.6401 167.08 26.6512C168.9 23.5671 170.719 20.483 172.654 17.4854C173.896 15.5542 171.528 13.6806 169.708 14.5453C167.687 15.5542 165.665 16.563 163.614 17.5718C162.748 18.0042 161.881 18.3501 161.13 18.7536C161.824 13.2195 162.69 7.6277 163.008 2.03593C163.123 -0.212296 160.148 -0.644639 159.051 0.969481C156.914 4.14006 154.805 7.28184 152.668 10.4524C150.762 13.306 148.075 16.2748 147.065 19.5607C146.978 19.8489 147.007 20.166 147.151 20.4254C147.036 22.4142 146.891 24.3742 146.805 26.363C146.718 28.2942 146.4 30.3695 146.92 32.243L143.599 37.0565C140.97 40.8612 138.371 44.6371 135.743 48.413C119.395 36.3648 96.9824 32.0124 77.7756 38.3536C66.3382 42.1295 56.4604 49.3065 48.9509 58.5012C44.6763 54.3218 40.4017 50.1424 36.1271 45.963L32.1702 42.1006C32.1125 40.9765 31.8525 39.8524 31.6503 38.7571C31.3037 36.8836 30.9572 34.9812 30.4373 33.1365C30.1773 32.3006 29.5708 31.8971 28.9643 31.8683C28.8487 31.6665 28.7043 31.4648 28.531 31.2918C25.0651 28.2942 21.9747 24.7489 18.1333 22.2701C18.0756 21.953 17.9889 21.6071 17.9312 21.2901C17.4979 19.3589 14.2053 19.7336 14.4075 21.78C14.6963 24.5759 15.1296 27.6601 15.9383 30.4848C11.4615 30.4848 7.07137 30.1965 2.59459 30.6577C1.98805 30.7153 1.58369 31.1477 1.43929 31.6377C0.226227 32.0989 -0.669144 33.6553 0.659454 34.7506ZM34.423 186.881C34.3075 187.025 34.2209 187.169 34.1342 187.314C32.9211 188.005 31.7658 189.014 30.6972 189.764C31.7658 188.092 32.8923 186.478 33.8743 184.864C35.4917 182.212 37.1957 179.647 38.5821 176.879C39.1309 177.11 39.7663 177.11 40.4595 176.793C41.7303 176.159 43.03 175.525 44.3297 174.833C41.0371 178.839 37.7156 182.875 34.423 186.881ZM47.449 186.362C45.976 188.294 44.5319 190.225 43.0589 192.156C41.5859 194.087 40.1418 196.018 38.6976 197.949C38.6687 198.007 38.611 198.065 38.5821 198.122C38.7554 195.298 38.9576 192.444 39.102 189.619C39.1309 189.245 39.0442 188.928 38.8709 188.668C42.4523 184.201 46.0627 179.733 49.673 175.265C49.673 175.352 49.7018 175.438 49.7018 175.525C49.8751 177.427 50.0773 179.301 50.2506 181.203C50.2795 181.635 50.4528 182.125 50.7416 182.5C49.3841 183.48 48.4599 185.008 47.449 186.362ZM159.34 22.9907C159.686 23.3654 160.177 23.6248 160.755 23.6824C162.748 23.8554 164.105 22.7601 165.752 21.7801C165.203 22.8177 164.625 23.8554 164.076 24.893C163.268 26.4207 161.939 28.1501 161.333 29.9371C159.34 29.4471 157.087 30.1965 155.065 30.5136C154.632 30.5712 154.141 30.6289 153.65 30.6865C153.679 30.6577 153.679 30.6289 153.708 30.6289C155.441 28.2365 157.78 25.6712 159.34 22.9907ZM150.559 26.9683C150.79 24.5471 150.993 22.1259 151.195 19.7048C151.224 19.5318 151.195 19.3589 151.137 19.1859C152.87 17.2548 154.256 14.8624 155.758 12.8448C156.423 11.9512 157.058 11.0865 157.722 10.193C157.376 13.0177 157.087 15.8424 156.769 18.6671C154.199 20.8289 152.437 24.4895 150.559 27.2565C150.531 27.1412 150.531 27.0548 150.559 26.9683ZM133.952 58.3283C135.078 59.3083 136.176 60.3171 137.245 61.3836C157.116 81.6465 157.318 115.514 139.988 137.564C139.902 137.679 139.815 137.795 139.757 137.91C127.396 150.737 109.922 157.971 91.3503 156.098C83.812 155.348 76.6203 152.898 70.1217 149.18C72.519 146.096 74.9451 143.012 77.4001 139.928C79.9129 141.196 82.5701 142.234 85.285 142.954C103.741 147.941 125.316 138.688 134.963 122.259C138.978 116.379 141.346 109.577 141.952 102.284C142.761 92.513 140.508 82.1365 135.194 73.8642C133.345 70.953 131.093 68.3301 128.58 65.9954C130.139 63.7759 131.699 61.5565 133.259 59.3371C133.461 59.0489 133.692 58.6742 133.952 58.3283ZM89.473 98.6524C85.5161 94.473 81.4437 90.3512 77.3424 86.2583C79.653 82.886 82.8012 80.0901 86.4981 78.2453C94.8162 74.0659 105.532 75.9107 112.492 81.9348C109.315 86.633 106.196 91.3889 103.25 96.2312C102.499 97.4418 104.347 98.9407 105.272 97.7877C108.709 93.5218 112.001 89.1695 115.236 84.7306C122.197 93.3489 121.85 106.464 115.005 115.168C114.976 115.226 114.947 115.255 114.918 115.312C109.72 120.702 102.383 123.729 94.5852 122.951C93.4299 122.835 92.3035 122.634 91.2059 122.317C93.0255 119.953 94.8162 117.589 96.607 115.197C97.1268 114.477 95.9715 113.583 95.3939 114.246C93.2277 116.667 91.1193 119.117 89.0109 121.596C81.3281 118.656 75.2339 111.623 73.5876 103.581C72.6345 98.8542 73.3566 94.0695 75.3206 89.8324C79.3064 93.5218 83.2922 97.1536 87.3935 100.728C88.8087 102.054 90.8305 100.065 89.473 98.6524ZM89.4441 124.68C89.6463 124.738 89.8773 124.824 90.0795 124.882C100.939 127.793 113.619 122.374 119.28 112.718C121.619 109.259 123.034 105.253 123.381 100.987C123.872 95.2512 122.515 89.1407 119.395 84.2695C118.818 83.3759 118.182 82.5112 117.489 81.7042C119.973 78.2453 122.399 74.7865 124.854 71.2989C125.143 71.5871 125.461 71.8754 125.749 72.1636C139.96 86.633 140.104 110.845 127.713 126.582C127.656 126.669 127.598 126.755 127.54 126.842C118.702 136.008 106.225 141.167 92.9678 139.841C88.5487 139.409 84.303 138.141 80.375 136.238C83.3788 132.376 86.4403 128.542 89.4441 124.68ZM114.63 78.8506C107.698 72.9995 97.5601 70.7224 88.9531 73.5471C83.2922 75.4207 78.5265 79.283 75.2628 84.1542C72.0569 80.9836 68.8509 77.8418 65.6161 74.7001C69.3131 70.146 73.9342 66.3412 79.2197 63.6895C92.7367 56.9159 109.951 59.4524 121.792 68.6183C119.366 72.0483 116.998 75.4495 114.63 78.8506ZM73.1544 87.9012C71.3637 91.6771 70.3817 95.8277 70.4395 100.007C70.555 110.239 77.689 119.953 87.1046 123.873C83.9853 127.534 80.9238 131.223 77.8334 134.912C67.4357 129.004 59.5508 118.569 57.1535 106.867C55.1029 96.8654 57.5579 86.6618 62.9878 78.3318C66.367 81.5312 69.7463 84.7306 73.1544 87.9012ZM72.1147 49.6236C90.6861 40.2848 114.254 43.5707 130.775 55.8207C130.515 56.1954 130.255 56.57 129.995 56.9448C128.493 59.1353 126.962 61.2971 125.432 63.4877C113.705 54.4948 97.329 51.1801 83.321 55.763C74.7141 58.5877 67.349 64.1506 61.9191 71.1836C59.3486 68.6759 56.7781 66.1683 54.2075 63.6606C59.2042 57.8959 65.2695 53.0536 72.1147 49.6236ZM51.3193 67.2924C54.0054 69.8001 56.6625 72.3365 59.3486 74.873C54.4963 82.5401 51.7525 91.5618 51.8392 100.699C52.0125 116.091 61.5148 130.762 74.7718 138.573C72.2879 141.571 69.7752 144.539 67.2624 147.479C54.1786 138.977 44.3586 125.285 41.2393 110.009C38.1778 94.8765 42.4235 79.4271 51.3193 67.2924ZM27.4335 35.8171C27.5779 36.5089 27.7512 37.2294 27.9245 37.9212C27.6357 37.633 27.3468 37.3447 27.058 37.0565C26.6826 36.6818 26.2782 36.2783 25.8738 35.8171C26.3937 35.9901 26.9136 35.9612 27.4335 35.8171ZM21.657 31.6953C20.9061 31.1477 20.0974 30.6865 19.2598 30.4559C19.2309 29.9659 19.202 29.4759 19.1731 28.9571C20.0107 29.8795 20.8483 30.773 21.657 31.6953ZM16.0538 35.5289C16.6315 35.6154 17.1514 35.5577 17.5846 35.4136C19.1154 37.4889 21.6281 39.1895 23.3322 40.8036L26.0471 43.3689C23.8232 43.6859 21.5704 43.9453 19.3464 44.2624C19.0576 44.2912 18.7976 44.3777 18.5666 44.5218C16.8625 42.6483 14.3208 41.0918 12.5879 39.6506C10.2773 37.7195 7.96672 35.8171 5.62724 33.9148C9.06425 34.5777 12.5301 34.9524 16.0538 35.5289Z" fill="currentColor"/>
<path fill-rule="evenodd" clip-rule="evenodd" d="M185.297 166.057C184.644 169.452 184.097 172.856 183.621 176.277C191.646 175.325 199.715 183.13 196.796 191.296C195.024 196.287 191.038 200.494 185.191 200.449C182.157 200.432 175.429 197.689 176.928 193.853C177.404 192.636 180.394 193.862 180.782 194.682C180.862 194.855 180.942 195.04 181.025 195.232C181.691 196.764 182.524 198.683 184.759 197.883C186.046 197.425 187.246 196.79 188.216 195.846C190.129 193.985 191.646 191.675 192.193 189.091C193.26 184.082 189.794 175.069 183.048 179.593C182.087 180.237 178.621 179.629 178.78 178.165C179.706 169.531 181.064 159.91 184.988 151.991C185.394 151.162 188.066 151.885 187.951 152.802C187.944 152.859 187.937 152.915 187.93 152.972C190.736 152.277 193.64 151.979 196.523 151.876C196.63 151.872 196.737 151.868 196.845 151.865C200.665 151.726 204.836 151.574 208.499 152.732C209.063 152.908 210.994 154.16 209.354 154.354C207.462 154.562 205.514 154.391 203.567 154.22C202.129 154.093 200.69 153.966 199.274 153.993C196.074 154.048 192.907 154.336 189.734 154.624C189.043 154.686 188.352 154.749 187.66 154.809C187.299 156.987 186.808 159.156 186.317 161.323C185.96 162.901 185.603 164.478 185.297 166.057Z" fill="currentColor"/>
<path d="M161.828 151.39C159.307 154.683 155.796 157.434 152.81 160.292C150.13 162.866 146.934 165.466 145.043 168.715C144.684 169.327 146.68 169.629 147.031 169.425C152.232 166.389 156.251 161.685 160.638 157.505C159.762 163.567 159.377 169.771 158.72 175.806C158.3 179.658 157.888 183.518 157.468 187.37C157.056 191.115 155.901 195.748 156.908 199.414C157.249 200.656 160.629 201.686 161.329 200.425C163.046 197.328 162.713 192.509 163.063 189.003C163.457 185.134 163.764 181.255 164.114 177.386C164.849 169.291 166.075 161.02 165.996 152.89C165.996 151.594 162.643 150.343 161.828 151.39Z" fill="currentColor"/>
</svg>
