<svg width="254" height="202" viewBox="0 0 254 202" fill="none" xmlns="http://www.w3.org/2000/svg">
<path d="M253.911 65.7955C253.896 65.102 253.47 64.4689 252.558 64.4538C249.821 64.3935 247.1 64.3332 244.364 64.3181C243.041 64.303 241.718 64.303 240.396 64.3181C239.438 64.3332 238.404 64.2427 237.462 64.4387C237.249 63.7 236.93 62.9764 236.671 62.2528C236.185 60.8358 235.698 59.4338 235.212 58.0168C234.269 55.2731 233.327 52.5295 232.384 49.7858C231.913 48.3989 230.073 49.0472 229.815 50.1929C229.268 52.7255 228.736 55.2581 228.219 57.7907C227.763 60.0067 227.124 62.283 226.881 64.5442C224.357 64.5744 221.834 64.6196 219.31 64.6498C218.048 64.6648 216.802 64.6799 215.54 64.7101C214.749 64.7251 213.928 64.695 213.138 64.8005C211.633 64.0468 210.112 66.3382 211.587 67.514C214.901 70.1521 218.337 72.6546 221.773 75.1419C220.359 80.373 218.976 85.619 217.592 90.8651C217.212 92.2973 218.717 93.6842 220.055 92.6289C222.457 90.7144 224.859 88.7999 227.261 86.8703C228.386 85.9658 229.511 85.0462 230.621 84.1266C230.864 83.9156 231.122 83.7196 231.381 83.5086C232.247 84.3377 233.342 84.9557 234.33 85.6341C235.44 86.4029 236.55 87.1567 237.675 87.9104C239.985 89.4632 242.296 91.031 244.607 92.5837C245.656 93.2771 247.541 92.4631 247.146 91.046C245.823 86.2974 244.561 81.5488 242.95 76.8906C243.452 76.4836 243.908 76.0163 244.394 75.564C245.504 74.554 246.614 73.544 247.723 72.549C249.609 70.8305 251.494 69.1421 253.227 67.2879C253.424 67.1522 253.576 66.9713 253.698 66.7753C253.728 66.7452 253.759 66.7 253.789 66.6698C254.017 66.3532 254.033 66.0517 253.911 65.7955ZM245.747 70.5742C244.668 71.4787 243.588 72.3832 242.509 73.2877C241.521 74.1168 240.35 74.8103 239.849 76.0314C239.529 76.8002 240.183 77.8404 241.034 77.7801C241.566 81.0513 242.281 84.2774 243.011 87.5185C241.886 86.7195 240.776 85.9205 239.651 85.1366C238.556 84.3527 237.447 83.5839 236.337 82.8151C235.425 82.182 234.513 81.4282 233.524 80.8855C233.692 80.2976 233.144 79.6946 232.521 79.8001C231.138 80.0413 230.089 80.9458 228.994 81.7599C227.763 82.6794 226.531 83.599 225.315 84.5487C224.129 85.4683 222.943 86.3879 221.742 87.3074C222.761 83.5688 223.764 79.8303 224.752 76.0917C224.905 75.5037 224.752 74.9912 224.433 74.6143C224.403 74.3279 224.266 74.0264 223.992 73.7852C221.393 71.5541 218.793 69.323 216.133 67.1522C217.166 67.1673 218.215 67.1673 219.249 67.1824L227.063 67.2728C227.808 67.2879 228.295 66.8055 228.477 66.2477C228.584 66.1573 228.675 66.0216 228.736 65.8558C229.663 63.4588 230.089 60.8056 230.666 58.3032C230.91 57.2781 231.153 56.253 231.381 55.2279C231.791 56.4339 232.202 57.655 232.597 58.861C233.053 60.1876 233.494 61.5292 233.95 62.8558C234.376 64.1071 234.589 65.5392 235.409 66.5944C235.805 67.107 236.626 67.1522 237.158 66.8356C238.237 67.1824 239.484 67.0919 240.594 67.1673C241.825 67.2427 243.056 67.2879 244.288 67.3331C246.021 67.3934 247.769 67.4386 249.502 67.4839C248.24 68.4788 246.994 69.5341 245.747 70.5742Z" fill="currentColor"/>
<path d="M43.9109 65.7955C43.8957 65.102 43.47 64.4689 42.5579 64.4538C39.8214 64.3935 37.1002 64.3332 34.3637 64.3181C33.0411 64.303 31.7185 64.303 30.3959 64.3181C29.4381 64.3332 28.4044 64.2427 27.4618 64.4387C27.249 63.7 26.9297 62.9764 26.6713 62.2528C26.1848 60.8358 25.6983 59.4338 25.2118 58.0168C24.2693 55.2731 23.3267 52.5295 22.3841 49.7858C21.9129 48.3989 20.0734 49.0472 19.8149 50.1929C19.2676 52.7255 18.7355 55.2581 18.2187 57.7907C17.7626 60.0067 17.1241 62.283 16.8808 64.5442C14.3572 64.5744 11.8336 64.6196 9.30998 64.6498C8.04817 64.6648 6.80157 64.6799 5.53976 64.7101C4.74922 64.7251 3.92829 64.695 3.13776 64.8005C1.63271 64.0468 0.112455 66.3382 1.5871 67.514C4.90125 70.1521 8.33702 72.6546 11.7728 75.1419C10.359 80.373 8.97553 85.619 7.5921 90.8651C7.21203 92.2973 8.71709 93.6842 10.0549 92.6289C12.4569 90.7144 14.8589 88.7999 17.2609 86.8703C18.3859 85.9658 19.5109 85.0462 20.6207 84.1266C20.8639 83.9156 21.1223 83.7196 21.3808 83.5086C22.2473 84.3377 23.3419 84.9557 24.3301 85.6341C25.4399 86.4029 26.5496 87.1567 27.6746 87.9104C29.9854 89.4632 32.2962 91.031 34.607 92.5837C35.656 93.2771 37.5411 92.4631 37.1458 91.046C35.8232 86.2974 34.5614 81.5488 32.9499 76.8906C33.4516 76.4836 33.9077 76.0163 34.3941 75.564C35.5039 74.554 36.6137 73.544 37.7235 72.549C39.6086 70.8305 41.4937 69.1421 43.2268 67.2879C43.4244 67.1522 43.5765 66.9713 43.6981 66.7753C43.7285 66.7452 43.7589 66.7 43.7893 66.6698C44.0173 66.3532 44.0325 66.0517 43.9109 65.7955ZM35.7472 70.5742C34.6678 71.4787 33.5884 72.3832 32.509 73.2877C31.5209 74.1168 30.3503 74.8103 29.8486 76.0314C29.5293 76.8002 30.183 77.8404 31.0344 77.7801C31.5665 81.0513 32.281 84.2774 33.0107 87.5185C31.8857 86.7195 30.7759 85.9205 29.651 85.1366C28.5564 84.3527 27.4466 83.5839 26.3368 82.8151C25.4247 82.182 24.5125 81.4282 23.5243 80.8855C23.6916 80.2976 23.1443 79.6946 22.521 79.8001C21.1375 80.0413 20.0886 80.9458 18.994 81.7599C17.7626 82.6794 16.5312 83.599 15.315 84.5487C14.1292 85.4683 12.9434 86.3879 11.7424 87.3074C12.761 83.5688 13.7643 79.8303 14.7525 76.0917C14.9045 75.5037 14.7525 74.9912 14.4332 74.6143C14.4028 74.3279 14.266 74.0264 13.9924 73.7852C11.3927 71.5541 8.79309 69.323 6.13265 67.1522C7.16642 67.1673 8.21539 67.1673 9.24917 67.1824L17.0633 67.2728C17.8082 67.2879 18.2947 66.8055 18.4771 66.2477C18.5835 66.1573 18.6747 66.0216 18.7355 65.8558C19.6629 63.4588 20.0886 60.8056 20.6663 58.3032C20.9095 57.2781 21.1527 56.253 21.3808 55.2279C21.7913 56.4339 22.2017 57.655 22.597 58.861C23.0531 60.1876 23.4939 61.5292 23.95 62.8558C24.3757 64.1071 24.5885 65.5392 25.4095 66.5944C25.8047 67.107 26.6257 67.1522 27.1577 66.8356C28.2371 67.1824 29.4837 67.0919 30.5935 67.1673C31.8249 67.2427 33.0563 67.2879 34.2877 67.3331C36.0208 67.3934 37.7691 67.4386 39.5022 67.4839C38.2404 68.4788 36.9938 69.5341 35.7472 70.5742Z" fill="currentColor"/>
<path d="M170.834 61.3544C170.803 59.9359 169.942 58.6409 168.096 58.61C162.56 58.4867 157.054 58.3633 151.517 58.3325C148.841 58.3017 146.165 58.3017 143.489 58.3325C141.552 58.3633 139.46 58.1783 137.553 58.5792C137.122 57.0683 136.476 55.5882 135.954 54.1081C134.969 51.2096 133.985 48.3419 133.001 45.4434C131.094 39.8314 129.187 34.2194 127.28 28.6074C126.326 25.7706 122.604 27.0965 122.081 29.44C120.974 34.6203 119.898 39.8006 118.852 44.9809C117.929 49.5136 116.637 54.1697 116.145 58.795C111.039 58.8567 105.933 58.9492 100.827 59.0109C98.2742 59.0417 95.752 59.0725 93.1991 59.1342C91.5996 59.165 89.9387 59.1034 88.3392 59.3192C85.2941 57.7775 82.2183 62.4644 85.2018 64.8696C91.9072 70.2657 98.8587 75.3844 105.81 80.4722C102.95 91.172 100.151 101.903 97.3515 112.633C96.5825 115.563 99.6276 118.399 102.334 116.241C107.194 112.325 112.054 108.409 116.914 104.462C119.19 102.612 121.466 100.731 123.712 98.8499C124.204 98.4182 124.727 98.0174 125.25 97.5857C127.003 99.2816 129.217 100.546 131.217 101.933C133.462 103.506 135.707 105.048 137.984 106.59C142.659 109.766 147.334 112.972 152.009 116.148C154.132 117.567 157.946 115.902 157.146 113.003C154.47 103.29 151.917 93.5771 148.657 84.049C149.672 83.2165 150.595 82.2606 151.579 81.3355C153.824 79.2696 156.07 77.2036 158.315 75.1685C162.129 71.6533 165.943 68.1998 169.45 64.407C169.849 64.1295 170.157 63.7595 170.403 63.3586C170.465 63.297 170.526 63.2044 170.588 63.1428C171.049 62.4952 171.08 61.8786 170.834 61.3544ZM154.286 71.1599C152.102 73.01 149.918 74.8601 147.734 76.7102C145.735 78.4062 143.366 79.8246 142.351 82.3223C141.705 83.8949 143.028 86.0225 144.75 85.8991C145.827 92.5904 147.273 99.1891 148.749 105.819C146.473 104.184 144.228 102.55 141.951 100.947C139.737 99.3433 137.491 97.7707 135.246 96.1981C133.401 94.903 131.555 93.3612 129.556 92.2512C129.894 91.0486 128.787 89.8152 127.526 90.0311C124.727 90.5244 122.604 92.3745 120.39 94.0396C117.898 95.9206 115.407 97.8015 112.946 99.7441C110.547 101.625 108.148 103.506 105.718 105.387C107.779 97.7398 109.809 90.0927 111.808 82.4456C112.116 81.243 111.808 80.1946 111.162 79.4238C111.101 78.8379 110.824 78.2212 110.27 77.7278C105.01 73.1642 99.7507 68.6006 94.3679 64.1603C96.4595 64.1912 98.5818 64.1912 100.673 64.222L116.422 64.407C117.929 64.4379 118.913 63.4511 119.282 62.3102C119.498 62.1252 119.682 61.8477 119.805 61.5085C121.682 56.6057 122.543 51.1787 123.712 46.0601C124.204 43.9633 124.696 41.8665 125.157 39.7697C125.988 42.2365 126.818 44.7342 127.618 47.201C128.541 49.9145 129.433 52.6588 130.355 55.3723C131.217 57.9316 131.647 60.861 133.308 63.0195C134.108 64.0679 135.769 64.1604 136.846 63.5128C139.029 64.222 141.552 64.037 143.797 64.1912C146.288 64.3453 148.78 64.4378 151.271 64.5304C154.778 64.6537 158.315 64.7462 161.821 64.8387C159.33 66.8738 156.839 69.0015 154.286 71.1599Z" fill="currentColor"/>
<path d="M194.504 45.7977C189.245 31.3267 179.037 18.8878 165.968 10.7902C159.603 6.84912 152.715 3.77016 145.458 1.9228C138.17 0.0754356 130.913 -0.29403 123.441 0.198601C119.658 0.444916 115.907 0.937539 112.217 1.76885C111.048 2.01517 110.556 3.00044 110.618 3.89333C85.7721 9.31226 65.2619 29.0175 58.5277 54.2956C54.6839 68.7666 55.0837 84.2229 60.5264 98.2628C65.8461 111.933 75.7169 123.787 87.8631 131.916C96.0733 137.427 105.206 141.122 114.8 142.846C114.277 147.618 114.769 152.729 114.923 157.502C115.015 160.026 115.138 162.582 115.261 165.107C115.384 168.062 115.876 170.772 116.276 173.697C116.307 173.851 116.522 173.851 116.522 173.697C116.768 170.772 117.168 168.032 117.168 165.076C117.168 162.551 117.198 159.996 117.168 157.471C117.137 152.822 117.383 147.834 116.737 143.185C120.858 143.831 125.04 144.108 129.252 143.985C137.647 143.77 146.011 141.891 153.822 138.689C153.668 142.292 154.221 146.171 154.375 149.65L155.021 163.967C155.359 171.264 155.759 178.562 155.943 185.859C151.823 181.671 147.733 177.422 143.52 173.297C143.52 171.388 143.274 169.448 143.151 167.601C142.998 165.107 142.844 162.613 142.69 160.119C142.352 154.915 142.567 149.188 141.245 144.139C140.937 142.969 139.215 142.877 139.062 144.201C138.416 149.158 139.308 154.577 139.615 159.534C139.769 162.028 139.923 164.522 140.107 167.016C140.169 168.032 140.199 169.109 140.261 170.156C138.324 168.309 136.386 166.461 134.418 164.676C133.065 163.444 131.343 163.844 130.206 164.922C129.99 164.706 129.714 164.552 129.468 164.46C127.746 163.783 126.085 164.983 125.778 166.708C125.655 167.293 125.439 167.878 125.163 168.432C124.086 168.278 122.979 168.647 122.211 169.817C120.396 172.588 118.459 175.298 116.491 177.977C116.46 177.084 116.46 176.222 116.46 175.329C116.46 174.959 115.907 174.898 115.907 175.267C115.876 176.252 115.876 177.268 115.845 178.254C115.845 178.469 115.815 178.715 115.784 178.931C112.555 183.272 109.173 187.552 105.821 191.801C105.421 184.258 105.022 176.714 104.191 169.232C103.115 159.441 101.824 149.589 101.024 139.767C100.993 139.213 100.04 139.213 100.04 139.798C100.225 149.804 99.917 159.903 99.794 169.879C99.671 179.824 100.348 189.83 100.747 199.745C100.84 202.331 104.376 202.639 105.729 200.945C112.955 191.893 119.966 182.379 127.807 173.882C128.422 173.204 128.668 172.465 128.607 171.757C128.637 171.726 128.637 171.696 128.668 171.665C129.068 171.018 129.437 170.372 129.867 169.725C138.57 178.777 148.102 187.152 157.266 195.742C159.357 197.682 162.247 195.126 162.032 192.817C161.14 183.303 160.802 173.758 160.341 164.214C160.095 159.441 159.879 154.669 159.633 149.897C159.418 145.617 159.726 140.66 158.772 136.411C163.077 134.286 167.167 131.731 170.98 128.867C196.349 109.809 205.266 75.4171 194.504 45.7977ZM174.855 117.014C155.82 136.873 125.593 143.77 100.378 132.285C75.2249 120.801 59.1119 94.5681 61.9102 66.8269C63.2939 53.1256 68.7674 39.9477 77.7156 29.4793C87.5863 17.9333 102.008 10.3591 116.922 7.92673C120.796 7.31094 124.732 6.81832 128.668 6.75674C129.714 6.75674 130.421 6.11017 130.759 5.34043C151.946 7.7728 172.702 20.1501 183.218 38.4082C197.394 63.1629 194.842 96.1384 174.855 117.014Z" fill="currentColor"/>
</svg>
