<svg width="362" height="328" viewBox="0 0 362 328" fill="none" xmlns="http://www.w3.org/2000/svg">
<g clip-path="url(#clip0_303_520)">
<path d="M69.745 249.114C69.3666 249.198 69.4344 249.8 69.8127 249.715C70.1911 249.631 70.1234 249.03 69.745 249.114Z" fill="currentColor"/>
<path d="M258.012 219.184C251.897 216.691 245.238 215.222 238.92 213.303C225.629 209.302 212.439 205.058 199.079 201.337C199.007 201.309 198.918 201.307 198.85 201.3C198.477 201.009 197.984 200.876 197.414 201.091C161.941 213.305 126.492 225.623 91.1105 238.147C86.2429 239.869 81.3753 241.592 76.5123 243.335C73.9547 244.235 71.4158 245.219 68.8675 246.16C66.3146 247.081 63.6612 247.848 61.2811 249.149C61.1806 249.193 61.1316 249.27 61.1082 249.363C61.9514 249.286 62.8086 249.271 63.6635 249.345C67.3026 248.447 70.8996 246.963 74.4499 245.865C78.9858 244.436 83.4938 242.882 88.0111 241.37C96.9288 238.416 105.826 235.466 114.734 232.47C132.656 226.454 150.573 220.417 168.451 214.3C177.245 211.285 186.06 208.266 194.854 205.251C194.933 205.608 195.16 205.932 195.608 206.162C198.439 207.58 201.375 208.777 204.339 209.901C202.51 210.705 200.714 211.655 198.916 212.496C198.677 212.615 198.418 212.739 198.175 212.837C196.636 211.968 195.101 211.121 193.534 210.324C193.111 210.11 192.724 210.747 193.118 211.033C194.282 211.898 195.461 212.736 196.657 213.549C194.838 214.395 193.023 215.261 191.203 216.107C190.425 216.478 189.643 216.829 188.886 217.195C187.854 216.324 186.775 215.441 185.551 214.899C185.039 214.682 184.6 215.286 184.897 215.727C185.506 216.582 186.307 217.307 187.125 218.006C184.586 219.188 182.068 220.365 179.529 221.547C178.941 221.083 178.352 220.62 177.763 220.156C177.45 219.939 176.986 220.329 177.254 220.644C177.665 221.103 178.076 221.562 178.509 222.016C177.471 222.512 176.409 222.99 175.372 223.486C170.214 225.889 165.102 228.393 159.979 230.855C154.899 233.307 149.254 235.401 144.613 238.636C144.192 238.928 144.601 239.476 145.017 239.361C150.536 237.89 155.866 234.876 161.084 232.547C166.403 230.173 171.726 227.821 177.009 225.39C178.109 224.88 179.23 224.367 180.33 223.857C181.944 225.458 183.628 226.977 185.28 228.548C185.336 228.602 185.366 228.639 185.422 228.692C164.459 237.896 143.431 247.004 122.547 256.367C113.48 260.434 104.263 264.225 95.5182 268.947C95.1842 269.132 95.364 269.642 95.7331 269.516C104.095 266.641 112.144 262.955 120.26 259.475C128.377 255.994 136.494 252.513 144.61 249.032C158.83 242.938 172.872 236.442 187.053 230.268C187.807 230.981 188.583 231.689 189.353 232.376C189.848 232.817 190.311 233.308 190.785 233.753C184.715 236.514 178.665 239.271 172.585 241.99C154.392 250.158 136.094 258.152 118.044 266.664C107.76 271.508 97.1439 275.853 87.0676 281.136C87.0769 280.98 87.0653 280.828 87.0022 280.644C85.846 277.928 83.7905 275.434 82.2373 272.917C80.6186 270.304 78.9579 267.7 77.3439 265.108C75.7042 262.5 74.0692 259.913 72.3921 257.335C70.6707 254.657 69.0684 251.82 66.9102 249.459C66.4734 248.984 65.6115 249.374 65.8918 250.038C67.041 252.822 68.7718 255.344 70.3344 257.903C71.8573 260.383 73.4012 262.859 74.9661 265.329C75.2651 265.483 75.5407 265.73 75.7556 266.101C76.3139 267.122 76.8511 268.147 77.3883 269.173C78.3109 270.641 79.2289 272.089 80.1468 273.536C81.0204 274.884 81.9103 276.205 82.7675 277.578C83.6201 278.93 84.3068 280.429 85.3462 281.629C85.6405 281.96 86.0516 282.023 86.4042 281.922C86.3225 282.447 86.7523 282.99 87.4063 282.756C96.8613 279.242 105.971 274.769 115.281 270.803C124.591 266.836 133.826 262.732 143.062 258.627C161.299 250.559 179.443 242.269 197.72 234.28C199.792 233.378 201.842 232.481 203.914 231.58C204.19 231.628 204.465 231.479 204.638 231.264C212.841 227.676 221.065 224.083 229.268 220.495C231.256 219.612 230.418 216.737 228.668 216.708C223.894 213.697 218.606 212.341 213.411 210.216C208.361 208.147 203.281 205.842 198.058 204.185C198.243 204.122 198.427 204.059 198.612 203.996C198.633 203.991 198.67 203.961 198.691 203.956C209.571 207.635 220.554 210.982 231.508 214.402C237.172 216.159 242.804 217.966 248.456 219.77C250.808 220.523 253.21 221.2 255.517 222.052C257.463 222.764 259.841 223.732 260.92 225.606C262.814 228.863 259.546 232.123 256.811 234.208C256.816 234.229 256.842 234.245 256.846 234.266C251.479 237.113 246.305 240.335 241.092 243.477C234.886 247.216 228.645 250.896 222.395 254.533C209.805 261.807 197.12 268.948 184.311 275.83C171.56 282.677 158.69 289.286 145.676 295.641C139.171 298.829 132.647 301.933 126.088 304.979C120.349 307.644 113.954 311.623 107.449 311.838C102.806 311.99 99.5451 309.236 97.1931 305.708C92.4632 301.607 88.74 296.181 85.4186 290.775C84.7926 289.747 84.1667 288.719 83.557 287.666C83.4169 287.433 83.2767 287.2 83.1366 286.966C83.0315 286.792 82.931 286.638 82.847 286.458C79.1892 280.335 75.9285 274.013 72.551 267.761C72.4763 267.624 72.4226 267.481 72.3899 267.334C71.3388 265.784 70.283 264.213 69.2319 262.664C68.3117 261.305 67.4194 259.873 66.5061 258.447C65.6092 256.995 64.6492 255.557 63.5327 254.308C63.507 254.291 63.4767 254.254 63.451 254.238C63.117 253.827 62.7666 253.443 62.3999 253.084C61.9468 252.634 61.0756 252.983 61.3395 253.673C61.5007 254.099 61.7085 254.537 61.9118 254.955C61.9258 255.018 61.9445 255.102 61.9631 255.186C62.8881 257.557 64.3993 259.687 65.6957 261.843C67.0971 264.174 68.5032 266.526 69.9093 268.878C72.7169 273.561 75.4287 278.309 78.2993 282.978C80.3477 286.332 82.4172 289.681 84.4656 293.036C84.6455 293.348 84.83 293.681 85.0099 293.994C86.0493 295.789 87.0303 297.817 88.378 299.411L90.938 303.576C91.9143 305.187 92.893 307.105 94.1216 308.66C95.9271 311.319 98.1811 313.615 101.175 314.974C107.003 317.663 113.443 315.569 118.962 313.107C125.745 310.077 132.439 306.847 139.133 303.617C165.952 290.687 192.418 276.866 218.097 261.789C225.356 257.53 232.555 253.197 239.735 248.779C246.023 244.913 252.383 241.074 258.299 236.629C261.137 235.007 263.861 232.969 264.879 229.813C266.418 224.735 262.307 220.937 258.012 219.184ZM192.478 218.268C194.679 217.249 196.982 216.296 199.28 215.322C201.504 216.787 203.76 218.201 206.033 219.589C202.94 220.96 199.869 222.327 196.776 223.698C196.153 223.176 195.508 222.659 194.884 222.137C193.611 221.077 192.313 220.001 191.002 218.971C191.5 218.728 191.976 218.49 192.478 218.268ZM186.457 227.691C184.829 226.226 183.217 224.734 181.573 223.294C184.133 222.108 186.698 220.942 189.258 219.756C190.755 221.03 192.285 222.253 193.798 223.502C194.202 223.831 194.606 224.159 195.01 224.488C192.299 225.686 189.587 226.884 186.87 228.062C186.733 227.938 186.595 227.815 186.457 227.691ZM192.345 233.032C191.871 232.587 191.355 232.151 190.86 231.711C190.105 230.998 189.33 230.289 188.58 229.597C189.97 229.001 191.355 228.385 192.749 227.81C194.139 227.214 195.529 226.619 196.898 226.028C198.192 227.083 199.507 228.134 200.801 229.189C197.977 230.479 195.169 231.742 192.345 233.032ZM202.461 228.423C201.188 227.363 199.915 226.303 198.647 225.264C201.887 223.86 205.147 222.451 208.392 221.068C209.826 221.96 211.281 222.848 212.694 223.744C209.289 225.295 205.888 226.867 202.461 228.423ZM225.412 217.94C221.785 219.584 218.183 221.245 214.56 222.91C214.5 222.836 214.439 222.761 214.341 222.717C213.014 221.911 211.657 221.068 210.326 220.241C213.565 218.837 216.81 217.454 220.033 216.076C221.796 216.763 223.576 217.424 225.412 217.94ZM212.225 212.815C213.813 213.408 215.347 214.058 216.887 214.728C213.92 216.071 210.933 217.419 207.962 218.741C205.68 217.311 203.403 215.902 201.093 214.544C203.382 213.528 205.631 212.433 207.733 211.172C209.24 211.695 210.73 212.244 212.225 212.815Z" fill="currentColor"/>
<path d="M170.441 271.011C168.285 272.129 165.706 273.232 163.929 274.861C163.891 274.891 163.859 274.943 163.821 274.973C159.624 271.084 155.614 267.043 151.4 263.18C150.982 262.789 150.29 263.449 150.676 263.892C154.609 268.478 158.778 272.836 162.733 277.418C163.625 278.453 164.952 277.673 165.015 276.668C167.351 276.059 169.637 274.537 171.753 273.339C174.108 272.022 176.453 270.663 178.817 269.388C183.402 266.892 188.101 264.612 192.73 262.216C194.489 261.296 193.448 258.995 191.77 259.391C191.154 258.801 190.371 258.359 189.638 257.839C188.412 256.989 187.202 256.113 186.034 255.228C183.668 253.42 181.134 251.848 178.702 250.142C177.163 249.076 175.397 251.451 176.95 252.382C179.492 253.887 181.96 255.562 184.541 256.948C185.845 257.648 187.132 258.375 188.423 259.123C189.01 259.477 189.584 259.877 190.187 260.206C185.875 262.641 181.603 265.156 177.226 267.496C174.979 268.701 172.697 269.848 170.441 271.011Z" fill="currentColor"/>
<path d="M123.223 302.71C118.635 304.7 113.861 306.446 109.433 308.753C109.136 308.907 109.297 309.334 109.629 309.238C113.882 307.829 117.953 305.799 122.025 303.968C125.995 302.181 129.996 300.431 133.976 298.686C142.074 295.122 150.084 291.356 158.013 287.433C173.656 279.7 189.45 271.955 204.48 263.059C213.12 257.964 221.774 252.932 230.173 247.45C230.21 247.42 230.171 247.341 230.133 247.371C214.687 255.985 199.376 264.812 183.741 273.072C168.323 281.217 152.671 288.908 136.91 296.403C132.36 298.562 127.831 300.715 123.223 302.71Z" fill="currentColor"/>
<path d="M298.752 11.4092C299.056 9.4035 299.556 6.89156 299.273 4.92823C299.535 4.5176 299.584 4.04417 299.208 3.84157C299.13 3.79266 299.058 3.76472 298.965 3.74147C298.925 3.66222 298.906 3.57828 298.867 3.49902C298.668 3.10273 298.192 3.14273 297.766 3.41356C295.816 3.07688 293.286 3.50787 291.268 3.75891C288.585 4.09207 285.838 4.63748 283.096 5.4021C277.544 6.9244 271.912 9.27928 266.519 12.3079C262.261 14.6874 258.132 17.5449 254.254 20.7426C254.322 20.5514 254.254 20.3462 254.131 20.2857C253.652 20.0178 253.044 20.0649 252.39 20.2986C249.328 17.7427 244.257 17.2638 239.579 17.9529C234.155 18.7639 228.494 21.2797 223.523 25.1172C219.742 28.0514 213.968 33.8297 218.945 36.0694C221.62 37.28 224.71 37.9796 227.531 38.9593C230.348 39.9179 233.144 40.8813 235.945 41.8656C234.877 42.9182 234.263 44.4204 234.251 45.6564C234.219 48.0864 235.499 50.2682 236.297 52.2707C236.797 53.525 237.297 54.7792 237.818 56.0288C238.224 57.0616 238.421 58.3393 239.453 58.8143C239.897 59.0238 240.647 58.7248 240.831 58.067C241.2 56.5533 240.399 55.4322 239.934 54.2362C239.411 52.8771 238.888 51.5179 238.369 50.1797C237.865 48.9045 237.201 47.7087 236.776 46.3938C236.55 45.6733 236.248 44.6172 236.858 43.6886C237.157 43.2476 237.519 42.9908 237.872 42.8903C238.519 45.1028 239.71 47.0842 240.64 49.0796C241.312 50.5157 241.985 51.9517 242.658 53.3877C243.202 54.5439 243.442 56.1202 244.9 56.3243C245.07 57.784 246.635 58.0743 247.78 58.6565C249.198 59.376 250.636 60.0908 252.05 60.7894C254.014 61.7837 255.988 63.0182 258.174 63.7208C258.076 64.073 257.8 64.4207 257.359 64.7171C256.408 65.3032 255.362 64.9635 254.647 64.7262C253.332 64.2701 252.138 63.5667 250.893 63.029C249.55 62.447 248.217 61.907 246.853 61.3296C245.664 60.8455 244.568 59.9881 243.034 60.3297C242.361 60.4795 242.043 61.233 242.251 61.6712C242.704 62.7156 243.968 62.9409 244.996 63.3949C246.241 63.9326 247.486 64.4704 248.731 65.0081C250.709 65.8672 252.883 67.2111 255.317 67.2419C256.555 67.2526 258.09 66.7128 259.178 65.6556C260.075 68.4953 260.967 71.314 261.864 74.1537C262.766 77.0144 263.39 80.1132 264.52 82.8128C266.634 87.8483 272.576 82.2307 275.619 78.5579C279.614 73.7043 282.274 68.1125 283.231 62.7015C284.049 58.0486 283.708 52.9488 281.204 49.8281C281.456 49.1773 281.519 48.5686 281.255 48.0767C281.181 47.9392 280.989 47.8717 280.805 47.9348C284.112 44.1592 287.092 40.1039 289.58 35.9161C292.745 30.6084 295.258 25.0494 296.923 19.547C297.731 16.8342 298.357 14.096 298.752 11.4092ZM237.143 38.2291C232.871 36.9777 228.599 35.7263 224.381 34.4189C223.241 34.056 222.014 33.8004 220.94 33.3348C219.751 32.8506 219.739 32.1044 220.76 30.842C222.316 28.9099 224.514 27.1873 226.515 25.7726C230.939 22.6514 235.91 20.5978 240.567 20.1116C244.271 19.7054 247.345 20.4307 250.447 21.2819C249.889 21.6484 249.361 22.0522 248.924 22.3697C246.92 23.873 245.04 25.6351 243.386 27.5229C240.817 30.4515 237.974 34.6302 237.143 38.2291ZM249.868 24.6264C249.686 24.7991 249.503 24.9718 249.342 25.1398C246.909 27.4876 244.638 29.9752 242.471 32.5281C243.335 31.2565 244.293 30.0081 245.332 28.8297C246.71 27.2896 248.226 25.8729 249.868 24.6264ZM246.934 54.4618C246.904 54.4246 246.874 54.3873 246.843 54.35C248.397 53.2994 249.623 51.771 250.907 50.4059C252.526 48.658 254.124 46.9148 255.747 45.1879C257.279 43.5473 258.786 41.8905 260.318 40.2499C261.135 39.3632 261.948 38.4554 262.822 37.6222C263.53 36.9361 266.846 34.7882 266.066 37.2303C265.861 37.8928 264.723 38.8288 264.235 39.3119C263.366 40.166 262.518 41.0155 261.649 41.8697C260.024 43.487 258.393 45.0833 256.768 46.7006C255.051 48.4042 253.313 50.1125 251.596 51.8162C250.91 52.4976 250.232 53.2211 249.511 53.8443C249.163 54.164 248.707 54.5958 248.268 54.8036C247.862 54.5638 247.437 54.4381 246.934 54.4618ZM281.013 61.6538C280.394 66.3066 278.221 71.2171 274.972 75.5524C273.51 77.5077 271.719 79.6685 269.736 81.1671C268.435 82.1615 267.694 82.1061 267.23 80.9101C266.809 79.8144 266.559 78.5926 266.235 77.4315C265.041 73.1602 263.885 68.8586 262.75 64.5522C266.384 63.8312 270.651 61.0972 273.632 58.6278C275.57 57.0289 277.394 55.2132 278.941 53.2392C279.265 52.8145 279.681 52.3035 280.067 51.7552C280.872 54.8795 281.512 57.9526 281.013 61.6538ZM268.638 59.3871C271.263 57.305 273.818 55.1063 276.227 52.7422C276.409 52.5695 276.57 52.4014 276.752 52.2287C275.451 53.8178 273.996 55.309 272.419 56.6511C271.224 57.6221 269.951 58.5442 268.638 59.3871ZM294.317 19.5326C292.784 24.7411 290.526 29.9571 287.515 34.9662C284.105 40.6588 279.805 46.021 274.914 50.8099C272.361 53.3164 269.624 55.6878 266.779 57.7747C265.394 58.7878 263.957 59.7684 262.528 60.6813C261.965 61.0268 261.371 61.3351 260.834 61.6969C258.961 60.0216 256.359 59.0372 254.112 57.8635C252.711 57.1183 251.293 56.3988 249.875 55.6793C249.849 55.663 249.824 55.6467 249.798 55.6304C250.193 55.3222 250.583 54.9931 250.91 54.6781C253.808 51.9405 256.56 49.0374 259.377 46.2299C261.796 43.8191 264.576 41.4384 266.729 38.8226C268.014 37.2592 268.64 35.3138 267.269 34.4077C265.569 33.3106 263.142 34.7979 261.446 36.4969C258.683 39.2484 256.102 42.2236 253.446 45.0613C252.183 46.4218 250.914 47.7614 249.672 49.1172C248.565 50.2887 247.327 51.4673 246.404 52.7739C246.161 52.2773 245.86 51.8158 245.622 51.3403C244.928 49.909 244.239 48.4986 243.545 47.0673C242.445 44.8014 241.511 42.1903 239.894 40.2816C240.263 39.7589 240.572 39.1617 240.957 38.6134C241.919 37.1878 242.933 35.7949 243.998 34.4345C246.177 31.6368 248.63 28.9765 251.188 26.491C256.109 21.7393 261.61 17.6076 267.39 14.3384C272.487 11.4639 277.752 9.34486 283.023 7.95103C283.418 7.84113 283.839 7.74753 284.238 7.65862C285.347 9.57003 287.249 10.9748 288.772 12.4638C290.769 14.3979 292.418 16.6517 294.44 18.602C294.471 18.6393 294.517 18.6509 294.548 18.6882C294.473 18.9471 294.408 19.248 294.317 19.5326ZM290.192 10.9143C289.096 9.6605 288.069 8.21543 286.777 7.07138C288.211 6.77414 289.659 6.53986 291.075 6.3569C292.836 6.14104 294.739 6.26787 296.601 6.00762C296.286 7.8618 296.381 9.77862 296.106 11.5138C295.884 12.9948 295.578 14.4945 295.225 15.9826C293.593 14.2978 291.764 12.7227 290.192 10.9143Z" fill="currentColor"/>
<path d="M286.529 12.3026C284.978 11.0841 282.72 10.5518 280.48 10.8963C275.154 11.7514 269.808 16.7739 268.362 22.0733C266.888 27.445 269.212 32.2355 273.744 33.5613C278.576 34.9523 284.799 32.1795 288.405 26.7736C290.374 23.8244 291.226 20.6173 290.757 17.8146C290.346 15.3733 288.877 13.0354 286.529 12.3026ZM287.996 19.4864C288.169 22.0468 287.302 24.9927 285.256 27.4965C280.91 32.847 273.961 32.4558 271.441 28.7661C268.825 24.9436 270.744 18.5035 276.063 14.7427C278.714 12.8751 281.542 12.2014 283.855 13.0741C286.043 13.8864 287.027 15.8259 287.552 18.0875C287.58 18.2134 287.683 18.2786 287.814 18.2715C287.898 18.6493 287.966 19.0526 287.996 19.4864Z" fill="currentColor"/>
<path d="M251.073 72.1521C247.908 75.2794 245.404 79.2946 242.963 83.0976C242.62 81.6544 242.251 80.1948 241.991 78.7328C241.804 77.6952 240.592 77.5026 240.025 78.4218C237.49 82.598 233.851 86.0731 229.624 88.4899C230.556 85.4412 230.229 82.1884 228.748 79.3024C228.435 78.6894 227.449 78.6225 226.921 79.0263C219.022 85.1677 211.223 91.463 203.354 97.6417C209.733 89.9226 216.245 82.3061 222.572 74.5545C222.988 74.0434 222.915 73.0244 222.313 72.6961C219.389 71.0565 216.083 70.5809 212.954 71.3878C215.462 67.1953 219.024 63.6714 223.303 61.2872C224.247 60.7688 224.076 59.5073 223.011 59.2819C221.526 58.9518 220.038 58.5122 218.576 58.0889C222.472 55.768 226.603 53.4165 229.803 50.3476C230.259 49.9158 229.871 49.1652 229.238 49.3942C224.034 51.1914 219.15 54.7234 214.462 57.551C213.353 58.2164 214.156 59.6453 215.112 59.8731C216.742 60.259 218.386 60.5096 220.019 60.8069C215.299 63.884 211.625 68.0937 209.193 73.3262C208.773 74.2127 209.875 75.3988 210.798 74.8851C213.465 73.3883 216.581 73.1131 219.384 74.2071C211.938 82.9786 204.702 91.9016 197.199 100.62C196.662 99.9904 196.113 99.4078 195.501 98.8392C191.626 95.2089 185.904 93.4875 180.746 95.0981C176.105 96.5498 172.866 100.927 172.894 105.81C172.941 111.57 178.109 115.265 183.58 115.06C188.898 114.867 192.857 111.541 195.637 107.377C195.973 107.103 196.326 106.805 196.662 106.532C205.085 122.166 198.706 143.166 184.561 153.164C182.16 154.866 179.537 156.265 176.785 157.384C173.77 151.272 170.759 145.181 167.781 139.038C165.448 134.206 163.131 129.347 160.76 124.545C159.118 121.233 157.301 117.827 154.39 115.458C151.209 112.862 147.213 112.452 143.305 113.234C138.388 114.241 133.572 115.996 128.774 117.438C107.573 123.788 86.4021 130.175 65.2452 136.624C54.7905 139.811 44.3265 142.955 33.8578 146.079C30.0085 147.222 25.0147 147.981 22.1325 151.089C19.5982 153.878 19.8575 157.719 20.8338 161.113C22.4408 166.746 24.9354 172.204 27.0376 177.682C29.2122 183.387 31.3914 189.113 33.566 194.818C35.7406 200.522 37.9199 206.248 40.0944 211.953C42.3181 217.779 44.3455 223.715 46.9755 229.384C47.3656 230.244 48.6222 229.744 48.3536 228.835C45.4316 218.98 41.3277 209.366 37.7306 199.749C34.1196 190.069 30.5132 180.41 26.9021 170.731C25.3558 166.56 22.9874 162.066 22.588 157.595C22.0951 152.309 26.6357 150.704 30.8587 149.455C40.8112 146.491 50.759 143.505 60.7256 140.604C80.6796 134.796 100.613 128.993 120.543 123.081C125.53 121.596 130.5 120.137 135.487 118.653C139.689 117.409 144.797 115.082 149.24 116.208C152.982 117.159 155.287 120.676 156.969 123.869C159.218 128.126 161.197 132.553 163.287 136.889C166.744 144.092 170.18 151.3 173.574 158.518C172.457 158.854 171.327 159.128 170.208 159.355C170.103 159.378 169.993 159.381 169.888 159.404C166.786 152.805 163.659 146.189 160.557 139.589C158.557 135.365 156.756 130.943 154.439 126.877C152.662 123.749 150.181 120.932 146.547 120.067C142.674 119.123 138.587 120.385 134.903 121.58C129.982 123.16 125.07 124.782 120.158 126.404C100.115 133.002 80.0583 139.538 60.0062 146.094C54.968 147.744 49.9089 149.399 44.8707 151.049C40.9234 152.346 36.5509 153.32 32.9469 155.466C24.8419 160.287 29.2658 169.257 31.973 175.967C36.3175 186.761 40.7881 197.527 45.1326 208.32C47.3539 213.839 49.5798 219.378 51.8432 224.887C54.1065 230.395 56.2367 236 59.0186 241.261C59.2078 241.616 59.6936 241.419 59.5885 241.046C56.7809 231.606 52.649 222.461 49.0286 213.334C45.3731 204.148 41.8228 194.94 38.1463 185.759C36.3431 181.227 34.5236 176.721 32.7204 172.188C31.2932 168.652 29.072 164.125 30.8961 160.327C32.704 156.555 37.6183 155.439 41.2387 154.258C46.0339 152.706 50.8245 151.133 55.5987 149.586C74.2377 143.52 92.8721 137.434 111.52 131.41C116.316 129.858 121.111 128.306 125.906 126.754C130.433 125.284 134.973 123.48 139.636 122.42C143.924 121.466 147.925 122.095 150.648 125.805C153.215 129.308 154.792 133.714 156.633 137.622C160.101 144.976 163.57 152.331 167.038 159.686C165.908 159.762 164.773 159.816 163.67 159.819C161.685 159.821 159.772 159.454 157.794 159.388C155.726 159.319 153.687 159.377 151.625 159.329C147.673 159.218 143.798 159.156 139.881 159.697C133.635 160.581 127.724 162.866 123.19 167.377C119.236 171.319 116.5 176.773 117.302 182.453C118.156 188.672 125.977 198.428 119.939 204.111C118.542 202.594 116.69 201.509 114.676 201.186C114.104 201.093 113.814 201.973 114.394 202.196C118.035 203.588 120.172 206.35 120.562 210.183C120.618 210.633 120.964 210.997 121.422 211.071C121.515 211.094 121.604 211.096 121.688 211.078C122.235 210.956 122.632 210.559 122.59 209.974C122.51 208.824 122.2 207.726 121.705 206.691C123.115 205.694 124.697 205.364 126.145 206.716C127.037 207.552 128.406 206.169 127.647 205.236C126.722 204.055 124.86 203.522 123.209 203.735C125.414 199.963 124.423 194.92 122.779 190.903C121.37 187.45 119.476 183.996 119.446 180.192C119.415 176.983 120.649 173.802 122.601 171.275C126.864 165.744 133.392 163.058 140.159 162.234C144.305 161.73 148.612 161.652 152.807 161.863C154.57 161.955 156.331 162.136 158.086 162.186C161.496 162.638 164.932 162.71 168.295 162.358C170.883 167.838 173.476 173.34 176.064 178.82C175.903 178.79 175.725 178.786 175.547 178.781C176.045 179.529 176.4 180.331 176.839 181.114C176.909 181.033 176.979 180.951 177.024 180.853C179.77 186.651 182.501 192.474 185.227 198.276C185.939 199.792 188.399 198.848 187.661 197.316C182.116 185.49 176.559 173.711 171.002 161.931C172.256 161.718 173.497 161.442 174.728 161.124C180.392 173.188 186.014 185.261 191.636 197.334C189.326 198.157 187.011 198.958 184.701 199.781C183.199 194.917 176.97 193.992 172.672 195.896C172.649 195.791 172.626 195.686 172.595 195.648C172.413 195.226 172.168 194.818 171.927 194.432C171.25 193.371 170.407 192.457 169.386 191.738C167.611 190.503 165.623 190.197 163.558 190.634C163.773 188.626 163.061 186.516 161.44 185.181C159.578 183.658 157.158 183.69 155.056 184.554C155.178 178.955 149.158 174.018 143.55 175.685C137.942 177.352 136.429 185.023 140.86 188.375C139.545 189.505 138.178 190.602 136.833 191.694C136.247 189.16 134.303 186.972 131.615 186.491C128.214 185.883 124.157 188.372 124.197 192.019C124.215 192.896 125.554 193.258 126.012 192.54C127.165 190.785 128.546 188.958 130.917 189.201C133.329 189.435 134.689 191.974 134.296 194.175C134.095 195.255 135.488 196.157 136.359 195.412C138.807 193.325 141.215 191.159 143.749 189.164C144.501 188.578 144.354 187.421 143.492 187.018C139.024 184.886 140.635 178.646 145.204 177.96C147.465 177.611 149.64 178.558 150.938 180.427C152.419 182.52 152.228 184.633 152.169 187.047C152.146 188.33 153.923 188.286 154.407 187.386C155.523 185.265 158.656 185.361 160.23 186.882C161.636 188.243 161.732 190.358 160.868 192.026C159.837 191.264 158.618 190.743 157.334 190.522C156.689 190.402 156.198 191.37 156.81 191.74C158.969 193.11 160.295 195.105 161.508 197.28C162.096 198.338 163.951 198.145 163.769 196.732C163.612 195.534 163.129 194.452 162.442 193.548C162.879 193.032 163.427 192.624 164.016 192.294C164.025 192.138 164.06 191.998 164.117 191.854L164.096 191.858C164.096 191.858 164.112 191.833 164.107 191.812C166.842 192.106 170.479 194.468 170.306 197.457C168.935 199.128 171.257 201.827 172.887 200.231C174.319 198.833 176.148 198.029 178.185 198.457C179.738 198.794 180.567 199.842 181.564 200.854C150.371 211.872 119.187 222.933 88.1053 234.257C83.247 236.022 78.4214 237.933 73.5958 239.844C72.2388 240.388 70.8934 240.886 69.5317 241.41C70.0525 241.073 70.3819 240.471 70.0759 239.791C68.212 235.581 65.3016 230.832 67.2496 226.104C68.0414 224.21 69.7091 222.385 71.8837 222.341C73.7709 222.296 75.6582 223.439 76.2024 225.19C76.2538 225.619 76.3005 226.027 76.415 226.442C76.7747 227.86 78.711 227.341 78.7974 226.044C78.8465 225.174 78.69 224.372 78.391 223.624C78.447 219.118 84.0527 216.351 87.7035 220.163C88.8527 221.361 90.7446 219.354 89.4786 218.226C85.001 214.267 88.8853 206.245 94.8484 208.948C94.8998 208.98 94.9465 208.992 95.0143 208.999C94.8181 210.496 95.0493 212.031 95.7804 213.432C96.5068 214.812 98.4688 213.714 98.1652 212.35C97.4668 209.312 97.5438 206.388 99.6016 203.837C100.034 203.3 99.4241 202.445 98.7911 202.872C97.5625 203.696 96.5815 204.84 95.9252 206.153C92.3305 203.584 90.6441 198.189 93.6221 194.42C96.8921 190.279 103.738 191.001 106.623 195.138C107.242 196.036 108.697 195.139 108.073 194.221C105.389 190.193 110.059 186.489 113.826 188.843C114.52 189.284 115.27 188.192 114.646 187.67C110.689 184.366 105.857 187.732 105.7 191.886C101.631 189.069 95.5047 189.2 92.0758 193.025C88.911 196.548 88.89 202.5 91.6788 206.306C89.4762 206.818 87.4722 208.123 86.267 210.043C85.0501 212.01 84.8632 214.342 85.5079 216.445C83.5576 216.108 81.4975 216.369 79.8391 217.443C78.3723 218.386 77.3212 219.809 76.7303 221.417C76.1323 220.911 75.4223 220.496 74.6772 220.222C71.9047 219.165 69.0224 219.895 66.9506 221.986C61.7139 227.204 64.323 235.455 67.3571 241.057C67.6561 241.607 68.226 241.788 68.7866 241.73C67.8523 242.092 66.9133 242.433 66.0001 242.79C63.6573 243.664 61.1931 244.389 59.063 245.722C58.5211 246.063 58.9275 246.898 59.5091 246.834C63.8115 246.339 68.1186 244.279 72.2388 242.965C76.7958 241.532 81.3527 240.099 85.9261 238.641C94.8882 235.787 103.776 232.597 112.67 229.538C130.216 223.517 147.739 217.392 165.27 211.309C174.877 207.981 184.449 204.594 194.046 201.224C195.784 202.093 198.391 200.522 197.319 198.382C190.921 185.6 184.503 172.823 178.142 160.011C181.081 158.939 183.923 157.535 186.623 155.789C195.861 149.812 201.806 140.141 203.641 129.359C205.038 121.163 204.125 111.412 199.717 104.001C208.794 96.6069 218.057 89.457 227.164 82.0997C228.127 84.8367 227.706 87.9036 226.122 90.5027C225.571 91.3962 226.697 92.4891 227.58 92.0943C232.819 89.7607 237.124 86.2035 240.354 81.5861C240.557 83.1927 240.744 84.825 241.052 86.4082C241.237 87.3361 242.61 88.1536 243.318 87.0711C246.291 82.4888 250 77.7427 251.984 72.6761C252.233 72.1139 251.528 71.7204 251.073 72.1521ZM193.156 105.352C193 105.541 192.89 105.742 192.843 105.928C190.414 108.297 187.609 110.463 184.308 110.801C180.363 111.217 176.689 108.886 177.168 104.594C177.677 100.142 181.805 97.7698 186.049 98.3006C189.632 98.7364 192.582 100.789 194.756 103.52C194.207 104.127 193.684 104.75 193.156 105.352Z" fill="currentColor"/>
<path d="M209.393 136.073C209.311 141.554 206.494 147.136 201.622 149.829C200.169 150.637 201.281 152.658 202.75 151.824C208.321 148.602 211.694 142.345 210.624 135.953C210.467 135.151 209.398 135.301 209.393 136.073Z" fill="currentColor"/>
<path d="M211.215 154.564C211.129 154.87 211.215 155.159 211.514 155.313C213.339 156.272 215.749 153.225 216.522 151.841C217.734 149.655 217.973 147.157 217.263 144.761C216.94 143.709 215.429 144.354 215.679 145.378C216.191 147.378 215.742 149.526 214.553 151.222C214.07 151.925 213.488 152.583 212.806 153.087C212.166 153.582 211.451 153.741 211.215 154.564Z" fill="currentColor"/>
<path d="M85.5612 188.043C88.5977 191.178 93.9348 190.276 96.2355 186.834C98.382 188.251 101.297 187.668 102.677 185.246C103.866 183.153 103.273 180.687 101.701 179.076C104.525 176.399 104.221 171.467 100.512 169.474C96.8543 167.513 92.949 169.792 92.0031 173.373C90.8259 171.851 88.5836 171.491 87.0163 172.875C85.5238 174.198 85.5355 176.332 86.5188 177.875C83.5081 180.307 82.7233 185.107 85.5612 188.043ZM88.4621 178.874C89.0087 178.554 88.9106 177.717 88.4808 177.372C87.4835 176.559 87.2055 174.815 88.3827 173.958C89.3684 173.232 90.9076 173.506 91.8349 174.203C91.7999 174.541 91.7648 174.879 91.7765 175.229C91.7975 176.612 93.9254 176.358 93.909 174.997C93.874 171.965 97.1019 170.013 99.7016 171.681C102.28 173.353 101.626 176.758 99.1854 178.183C98.4053 178.643 98.7417 179.757 99.4167 180.113C100.912 180.882 101.692 182.801 100.841 184.333C100.101 185.665 98.2068 186.175 96.6933 185.918C96.7119 185.01 95.2941 184.291 94.7312 185.231C93.192 187.732 89.3755 188.824 87.0934 186.601C84.7507 184.303 85.8835 180.373 88.4621 178.874Z" fill="currentColor"/>
<path d="M146.054 197.438C144.823 197.954 144.131 199.606 143.466 200.679C142.702 201.906 144.267 203.188 145.257 202.086C145.699 201.591 146.14 201.097 146.602 200.597C147.06 200.077 147.6 199.428 147.665 198.731C147.752 197.831 146.92 197.069 146.054 197.438Z" fill="currentColor"/>
<path d="M148.834 207.744C149.647 206.836 150.81 205.916 151.067 204.692C151.172 204.272 150.689 203.983 150.319 204.109C149.128 204.507 148.294 205.815 147.503 206.719C146.818 207.51 148.124 208.518 148.834 207.744Z" fill="currentColor"/>
<path d="M117.336 164.077C117.595 165.143 118.864 165.389 119.412 164.386C120.202 162.976 120.326 161.649 121.748 160.606C122.888 159.78 124.789 159.202 126.223 159.301C127.141 159.361 127.646 158.06 126.679 157.68C125.614 157.257 124.813 156.928 123.626 157.149C122.482 157.359 121.372 157.827 120.419 158.501C118.88 159.615 116.852 162.004 117.336 164.077Z" fill="currentColor"/>
<path d="M119.471 153.448C118.17 153.055 116.589 153.187 115.591 154.158C114.44 155.229 113.688 157.004 114.835 158.291C115.337 158.862 116.168 158.831 116.572 158.168C116.61 158.138 116.647 158.108 116.68 158.056C116.745 157.954 116.79 157.856 116.86 157.774C116.916 157.629 117.042 157.205 117.103 157.081C117.194 156.797 117.268 156.538 117.432 156.281C117.78 155.763 118.32 155.114 119.009 155.137C119.901 155.181 120.534 153.762 119.471 153.448Z" fill="currentColor"/>
<path d="M65.0814 190.995C65.4434 190.738 65.1048 190.108 64.6867 190.312C62.7877 191.197 61.7483 193.168 62.2529 195.236C62.7714 197.367 64.8082 198.588 66.9337 198.423C69.1269 198.265 70.9254 196.631 71.0726 194.418C71.2104 192.758 70.1219 189.058 67.9006 189.486C67.2443 189.61 66.6674 190.289 66.9944 190.965C67.3167 191.62 67.6881 191.802 68.2837 192.198C68.8746 192.573 69.1479 193.107 69.2554 193.788C69.4936 195.254 68.4542 196.433 67.0528 196.679C63.6987 197.271 62.6313 192.773 65.0814 190.995Z" fill="currentColor"/>
<path d="M158.197 172.402C157.659 172.367 157.195 172.36 156.884 171.857C156.524 171.232 155.368 171.688 155.527 172.401C155.845 173.828 157.391 174.827 158.813 174.18C159.416 173.914 159.946 173.422 160.208 172.813C160.453 172.23 160.369 171.654 160.327 171.068C160.521 170.056 159.523 169.045 158.547 168.822C157.898 168.68 157.237 169.179 157.059 169.77C156.879 170.448 157.188 171.04 157.811 171.364C157.914 171.429 158.038 171.49 158.136 171.534C158.136 171.534 158.47 171.746 158.285 171.611C158.388 171.676 158.491 171.741 158.573 171.811C158.582 171.853 158.591 171.895 158.58 171.942C158.568 171.989 158.561 172.056 158.549 172.103C158.51 172.222 158.456 172.278 158.365 172.364C158.232 172.46 158.211 172.465 158.323 172.373C158.323 172.373 158.26 172.388 158.197 172.402Z" fill="currentColor"/>
<path d="M311.816 38.2789C311.306 37.9738 310.893 37.2069 310.428 36.8038C309.907 36.3471 309.342 35.9884 308.723 35.6857C307.476 35.0383 306.137 34.6756 304.762 34.5413C304.313 34.509 304.196 35.1737 304.65 35.227C305.899 35.3893 307.107 35.7592 308.235 36.367C308.961 36.7559 310.44 37.55 311.045 38.3844C309.842 38.6302 308.272 38.5171 307.471 37.5942C305.397 35.2148 302.893 39.4283 305.39 40.2379C307.742 40.9917 310.279 40.8896 311.972 38.8828C312.145 38.6681 312.016 38.3883 311.816 38.2789Z" fill="currentColor"/>
<path d="M300.574 48.9305C299.444 48.8077 299.241 50.3727 300.315 50.64C301.177 50.8446 302.107 51.0561 302.824 51.6013C303.141 51.8389 303.889 52.6196 303.625 53.1188C303.531 53.2938 303.174 53.1751 303.029 53.1193C302.91 53.0797 302.791 53.0401 302.672 53.0006C302.646 52.9843 302.62 52.968 302.595 52.9517C302.298 52.7094 302.06 52.432 301.682 52.318C301.112 52.1366 300.348 52.1745 299.988 52.7391C298.991 54.3046 300.264 55.9594 301.84 56.4013C303.23 56.7967 304.898 56.1611 305.662 54.9339C306.491 53.604 306.145 51.853 305.145 50.732C303.973 49.4293 302.251 49.1298 300.574 48.9305Z" fill="currentColor"/>
</g>
<defs>
<clipPath id="clip0_303_520">
<rect width="310.916" height="265.675" fill="white" transform="translate(0.128906 68.3086) rotate(-12.5504)"/>
</clipPath>
</defs>
</svg>
