<svg width="203" height="194" viewBox="0 0 203 194" fill="none" xmlns="http://www.w3.org/2000/svg">
<path d="M4.43656 70.3174C4.15475 70.5523 3.96688 70.8811 4.03733 71.3272C4.3661 73.7461 4.97668 76.1414 5.63422 78.5368C6.62054 85.7697 7.48944 93.0262 8.21743 100.306C10.0961 118.647 11.5286 136.917 11.787 155.352C11.5052 156.738 12.468 158.452 14.2762 158.147C15.3095 157.959 16.3663 157.794 17.3996 157.63C17.564 158.452 17.7284 159.274 17.9397 160.072C18.3154 161.575 20.6638 161.246 20.3585 159.697C20.1941 158.875 20.0063 158.053 19.7949 157.231C27.2862 156.01 34.801 154.906 42.3393 153.92C44.4059 154.154 46.5899 153.779 48.7269 153.098C53.3297 152.534 57.9325 152.017 62.5353 151.548C59.459 152.182 56.4061 152.839 53.3297 153.497C47.5292 154.742 41.7287 155.986 35.9517 157.254C33.0632 157.888 30.1512 158.522 27.2627 159.133C24.4917 159.744 21.4858 160.049 18.9965 161.434C18.4798 161.716 18.5503 162.538 19.1843 162.609C21.5092 162.867 23.8576 162.303 26.159 161.834C26.0886 162.914 26.253 163.994 26.5113 165.027C26.5817 165.309 26.6287 165.638 26.6991 165.967C26.5582 166.436 26.6991 167 27.1688 167.188C27.3567 167.446 27.5915 167.681 27.9438 167.798C28.296 167.916 28.5778 167.798 28.8127 167.54C28.9066 167.423 28.977 167.305 29.0475 167.188C33.7912 166.859 38.5349 165.38 43.1377 164.37C48.7504 163.149 54.3395 161.81 59.9286 160.472C70.9425 157.818 82.0268 155.352 92.9468 152.44C94.7081 151.97 94.3558 149.223 92.5006 149.575C81.4163 151.806 70.4024 154.53 59.3885 157.043C53.9638 158.288 48.5155 159.532 43.1143 160.871C38.394 162.045 33.2511 162.843 28.7188 164.675C28.6718 164.511 28.6013 164.37 28.5543 164.229C28.2725 163.313 27.8733 162.397 27.3332 161.599C30.1747 161.059 33.0163 160.542 35.8578 160.002C41.8461 158.875 47.8345 157.724 53.8228 156.597C59.6468 155.493 65.4473 154.342 71.2713 153.215C74.1833 152.651 77.0718 152.041 79.9837 151.407C82.7313 150.82 85.7373 150.491 88.3205 149.364C89.7999 149.27 91.3029 149.176 92.7824 149.105C92.5475 148.119 92.3597 147.133 92.2423 146.123C87.9682 146.428 83.6942 146.734 79.4436 147.015C71.7645 147.532 64.0852 148.119 56.4061 148.824C56.3591 148.26 55.7016 147.673 55.0675 147.978C54.2221 148.377 53.3297 148.8 52.3903 149.199C48.539 149.552 44.6642 149.951 40.8129 150.35C40.5546 150.209 40.2962 150.045 40.0614 149.857C40.1553 148.894 39.6152 147.79 38.3706 147.485C38.2297 147.462 38.1122 147.415 37.9713 147.368C37.8774 147.203 37.7835 147.015 37.6895 146.827C36.2101 143.634 36.4919 140.393 37.9244 137.598C40.1553 140.111 42.3158 142.741 44.7347 145.066C44.946 145.254 45.1574 145.395 45.3922 145.489C45.4627 146.334 46.0028 147.062 47.083 147.062C50.3708 146.992 54.0577 145.09 56.8053 143.328C59.4824 141.591 61.5255 139.195 62.324 136.072C62.8171 134.193 62.7702 132.455 62.3005 130.906C63.2398 128.44 62.3005 125.222 61.1028 123.015C59.4589 119.986 56.9462 117.614 54.0342 115.852C47.6936 111.978 41.0712 108.972 35.1533 104.416C23.6932 95.6094 14.5111 83.7736 8.78105 70.4583C16.6246 68.8145 24.3273 65.8555 32.0065 63.6481C40.7424 61.1353 49.5253 58.7869 58.3552 56.6029C75.6627 52.3289 93.1581 48.7124 110.771 45.8474C120.564 44.2505 130.427 43.0058 140.267 41.7142C140.689 55.4053 141.135 69.1198 141.582 82.8108C142.521 82.8108 143.46 82.8108 144.423 82.8343C143.906 68.9789 143.366 55.1235 142.756 41.268V41.0332C144.4 41.6908 146.044 42.3483 147.711 42.9824C147.147 56.2742 147.359 69.5894 147.359 82.9047C147.828 82.9282 148.298 82.9517 148.768 82.9752C148.862 69.7773 149.167 56.556 148.721 43.3816C149.613 43.7338 150.529 44.0626 151.421 44.3679C150.952 57.284 150.928 70.2 150.858 83.1161C151.445 83.163 152.032 83.2335 152.595 83.3039C152.642 70.4349 152.713 57.5658 152.361 44.6967C153.582 45.1194 154.803 45.4951 156.048 45.8474C155.695 58.4581 155.367 71.0689 155.014 83.6797C156.024 83.8676 157.057 84.0789 158.044 84.3372C158.302 71.2568 158.537 58.1529 158.795 45.0724C158.842 44.8845 158.842 44.6967 158.795 44.5088C158.913 38.3326 159.03 32.1564 159.147 25.9566C159.171 24.9234 158.161 24.4067 157.386 24.5946C157.198 24.3832 156.893 24.1954 156.517 24.1014C149.637 22.5515 144.846 17.4555 142.239 11.0914C142.004 10.5513 141.37 10.4809 140.948 10.7627C140.736 10.6218 140.454 10.5748 140.22 10.5983C130.098 11.6316 120 12.8997 109.949 14.4496C110.09 14.1208 110.137 13.7216 110.113 13.2989C109.714 7.94462 105.91 3.90541 101.33 1.48659C96.7746 -0.908753 91.3968 -0.298176 87.1698 2.51987C82.5435 5.59624 80.4534 10.7392 80.9231 16.1874C81.017 17.3616 81.2519 18.5123 81.5572 19.6395C68.829 22.3167 56.1947 25.5105 43.7014 29.2679C43.9362 28.9391 44.1241 28.5399 44.218 28.0467C45.2748 22.1288 41.7522 15.6473 36.6328 12.7353C31.3489 9.72938 24.3273 10.293 19.6305 14.2148C11.8809 20.6963 12.5619 30.1602 15.8731 38.6614C10.8006 40.5401 5.77513 42.5362 0.796578 44.6497C0.279936 44.8611 -0.0958158 45.5186 0.0216029 46.0822C1.71243 54.1137 3.19192 62.1921 4.43656 70.3174ZM13.9475 153.638C13.7831 136.048 13.0786 118.365 11.2703 100.87C11.1999 100.142 11.1059 99.4138 11.0355 98.6858C12.9612 105.966 14.8868 113.246 16.8125 120.526C18.6677 127.5 20.1002 134.992 23.9046 141.215C26.4643 145.418 30.48 149.481 35.3177 150.984C28.1786 151.783 21.0396 152.651 13.9475 153.638ZM55.7251 139.735C54.3395 140.745 52.6721 141.544 51.0048 141.966C49.7367 142.295 48.5625 142.389 47.3883 142.835C45.3452 140.017 42.9264 137.41 40.672 134.733C40.5311 134.569 40.3902 134.452 40.2258 134.358C40.9538 133.606 41.7522 132.902 42.6446 132.291C46.3081 129.731 57.8386 124.941 59.2476 132.315C59.7877 135.273 58.003 138.092 55.7251 139.735ZM28.6013 104.416C33.6738 108.784 39.2629 112.612 45.2278 115.688C48.7034 117.473 52.2964 118.952 55.4432 121.324C57.0401 122.522 58.2848 123.954 59.1302 125.763C59.3181 126.185 59.459 126.584 59.5529 126.96C57.8855 125.645 55.6311 124.917 53.0479 124.988C46.5429 125.222 39.3334 128.745 35.623 134.17C33.3685 137.481 32.5231 141.732 33.4625 145.559C23.294 139.688 21.2039 125.152 18.3154 114.467C16.2958 107.046 14.2762 99.6252 12.2331 92.1808C11.2468 88.5643 10.4014 84.8304 9.43859 81.1434C14.4406 89.9029 20.8752 97.7465 28.6013 104.416ZM155.836 26.8725C156.095 26.943 156.306 26.943 156.517 26.9195C156.376 32.2268 156.235 37.5341 156.095 42.8415C154.826 42.3483 153.535 41.9256 152.243 41.5029C152.243 41.1976 152.22 40.8923 152.22 40.587C152.196 40.1878 151.539 40.2113 151.515 40.6105C151.515 40.8219 151.492 41.0567 151.492 41.268C148.556 40.3522 145.55 39.5537 142.615 38.7083C142.263 30.7238 141.91 22.7159 141.535 14.7314C143.953 20.7198 149.566 25.2521 155.836 26.8725ZM87.8038 5.59624C90.9272 2.9191 95.4595 2.02671 99.2874 3.71754C103.374 5.52579 105.017 9.87029 105.182 14.0739C105.205 14.5201 105.323 14.8723 105.487 15.1541C98.4654 16.2813 91.4908 17.573 84.5396 18.982C84.4926 18.7706 84.4222 18.5593 84.3752 18.3479C83.2715 13.7451 84.0464 8.81352 87.8038 5.59624ZM20.5699 19.7569C23.3175 16.0465 28.2021 14.5201 32.5701 16.0935C37.5016 17.8548 39.3099 22.5985 38.9342 27.4596C38.8168 28.9391 39.6622 29.8549 40.7189 30.1837C37.3608 31.217 34.0261 32.2973 30.6914 33.401C26.8635 34.6926 23.0357 36.0312 19.2078 37.4167C17.2352 31.4049 16.6246 25.0877 20.5699 19.7569ZM16.9769 41.315C17.8692 43.2642 18.8791 45.1429 19.9358 46.8807C19.9123 46.9981 19.8889 47.139 19.8889 47.2564C19.8184 48.3132 20.0532 49.4639 20.7812 50.2858C21.4388 51.0138 22.4486 51.7418 23.4819 51.7418C23.9985 51.8122 24.4682 51.7653 24.9614 51.6009H25.0318C25.5484 51.5304 25.9946 51.3661 26.3939 51.0608C26.6991 50.9199 26.934 50.732 27.1218 50.4502C27.3802 50.2388 27.568 49.9805 27.6855 49.6987C27.8733 49.4404 27.9907 49.1351 28.0377 48.8063C28.1551 48.501 28.2021 48.1723 28.1317 47.8435C28.1786 47.5147 28.1082 47.186 27.9673 46.8572C27.9203 46.6458 27.8498 46.4345 27.7324 46.2466C27.5915 45.8239 27.3802 45.4482 27.0749 45.0959C26.4173 44.3679 25.4075 43.6399 24.3743 43.6399C23.8106 43.546 23.2705 43.6164 22.7539 43.8278C22.4721 43.8982 22.1903 43.9922 21.9554 44.1331C21.3683 42.8415 20.7577 41.4794 20.2176 40.1173C40.5545 32.8139 61.2202 26.6846 82.2382 21.847C82.6609 22.9742 83.1541 24.0779 83.6942 25.1347C84.5866 26.8725 85.6903 29.2913 87.1933 30.9117C87.1933 30.9352 87.1698 30.9822 87.1698 31.0057C87.0758 31.6162 87.1463 32.1798 87.3576 32.7435C87.4751 33.3071 87.7334 33.8237 88.1326 34.2699C88.8606 35.1623 89.9174 35.6789 91.0446 35.8433C92.2188 36.0312 93.393 35.5615 94.3088 34.8805C94.8959 34.3873 95.3421 33.8002 95.6239 33.0722C95.9057 32.3442 95.9996 31.5693 95.8587 30.7943C95.7413 30.4186 95.6239 30.0193 95.5065 29.6436C95.2951 29.1035 94.9664 28.6573 94.5202 28.3285C94.1444 27.9058 93.6982 27.6005 93.1581 27.4126C92.9702 27.3422 92.7589 27.2952 92.571 27.2717C92.0074 27.0839 91.4438 27.0369 90.8332 27.1543C90.1287 27.2717 89.4947 27.5301 88.931 27.9528C88.3909 27.0839 87.7804 26.2385 87.3107 25.44C86.5357 24.0545 85.8077 22.6454 85.2206 21.166C93.1816 19.3812 101.166 17.7843 109.221 16.3988C119.155 14.6845 129.3 13.5572 139.351 12.6883C139.585 21.2599 139.844 29.8549 140.102 38.4265C104.501 42.9354 69.0168 50.8024 34.5192 60.6421C25.7833 63.1314 16.3428 65.2919 8.02957 69.0963C7.67731 68.6971 7.20763 68.5092 6.71447 68.4857C5.49331 61.1823 4.15475 53.9258 2.7927 46.6458C7.51293 44.8376 12.2332 43.0528 16.9769 41.315Z" fill="currentColor"/>
<path d="M174.622 169.207C176.595 167.399 178.403 165.403 179.977 163.266C185.683 155.423 189.981 146.546 190.215 136.636C190.333 131.68 189.487 126.819 187.867 122.193C188.924 123.109 191.037 122.757 191.413 121.277C192.799 115.688 197.73 112.33 200.689 107.657C204.071 102.373 203.766 96.22 199.609 91.4293C195.382 86.5682 188.712 80.5798 181.808 81.2844C174.34 82.0358 170.09 88.7757 167.788 95.2807C167.131 97.1124 169.127 98.2866 170.442 97.5821C171.358 98.9441 172.297 100.306 173.237 101.668C168.986 98.2866 164.148 95.6564 158.912 94.1065C158.747 93.9186 158.559 93.7307 158.278 93.6133C145.244 87.6484 129.651 89.9498 117.721 97.629C118.754 96.5018 119.788 95.3746 120.821 94.2709C121.572 93.4489 121.338 92.0399 120.727 91.2415C117.486 86.9439 113.142 82.0828 107.271 82.2002C101.423 82.3176 96.6092 87.3901 92.7579 91.2415C88.6013 95.3746 84.6795 100.4 84.9143 106.6C85.1022 111.719 88.7657 116.627 94.026 117.214C94.8715 117.308 95.4585 117.003 95.8343 116.51C95.6934 116.745 95.576 117.003 95.4351 117.261C94.848 118.412 96.3979 119.117 97.2433 118.577C99.169 117.332 100.907 115.805 102.551 114.162C98.8872 121.16 97.0319 129.003 97.2668 136.964C97.5486 146.499 101.189 155.634 106.895 163.243C109.173 166.272 111.827 169.09 114.762 171.532C114.081 174.35 113.87 177.38 113.494 180.198C112.977 183.861 112.484 187.501 111.968 191.165C111.709 192.997 114.222 193.912 115.279 192.456C118.66 187.736 122.042 182.992 125.4 178.272C126.668 178.836 127.96 179.376 129.275 179.799C137.87 182.687 149.095 183.298 157.62 179.775C160.508 178.577 163.374 177.168 166.121 175.525C167.272 177.896 169.174 179.916 170.818 181.936C172.65 184.19 174.528 186.421 176.407 188.652C177.722 190.249 180.845 189.122 180.305 186.914C178.826 180.902 177.511 174.656 174.622 169.207ZM172.415 95.8678C172.227 95.6564 172.039 95.5155 171.828 95.445C174.2 90.1142 177.628 82.8343 184.626 85.8872C189.675 88.0946 195.523 92.627 198.27 97.4412C200.901 102.067 197.167 106.06 194.09 109.277C192.047 111.414 190.075 113.528 188.689 115.993C183.335 109.253 177.98 102.467 172.415 95.8678ZM96.0691 116.111C96.5388 115.007 96.0691 113.457 94.5192 113.128C90.1982 112.236 88.3899 107.868 89.1179 103.805C89.9868 98.9676 93.5564 95.3511 97.0789 92.2043C100.038 89.5741 103.56 86.1455 107.905 86.9909C111.122 87.6015 113.541 90.2082 115.608 92.7209C112.249 96.5723 108.891 100.424 105.51 104.275C102.198 108.079 98.5584 111.719 96.0691 116.111ZM116.617 184.19C116.782 182.992 116.946 181.771 117.111 180.574C117.392 178.437 117.815 176.229 118.05 174.022C119.341 174.938 120.68 175.759 122.066 176.534C120.234 179.094 118.426 181.63 116.617 184.19ZM163.092 174.562C148.367 180.55 130.849 179.54 118.167 169.912C117.979 169.395 117.463 169.02 116.899 168.902C115.913 168.08 114.95 167.211 114.034 166.296C101.329 153.45 97.9713 134.24 105.228 117.731C109.384 108.291 116.876 100.658 126.387 96.6427C134.23 93.3315 142.825 92.9793 150.998 94.858C151.092 95.3511 151.397 95.7738 152.007 95.9147C168.329 99.9774 182.348 113.105 184.885 130.107C186.857 143.352 183.17 158.123 173.706 167.517C173.636 167.446 173.495 167.446 173.495 167.564C173.495 167.634 173.495 167.681 173.472 167.751C170.536 170.617 167.084 172.941 163.092 174.562ZM169.151 173.552C170.583 172.566 171.992 171.509 173.307 170.358C173.284 173.223 173.612 176.088 174.106 178.93C172.579 177.075 171.053 175.055 169.151 173.552Z" fill="currentColor"/>
<path d="M167.367 110.1C162.153 113.834 157.01 117.615 151.961 121.583C150.646 122.617 152.055 125.082 153.558 124.166C155.695 122.875 157.785 121.56 159.875 120.221C153.746 128.3 147.593 136.378 141.535 144.527C139.022 138.374 136.486 132.245 133.785 126.163C135.241 126.82 136.814 127.337 138.435 127.666C140.736 128.135 141.112 124.519 138.834 124.049C134.724 123.204 131.366 120.902 128.877 117.544C127.773 116.065 125.378 117.239 125.66 119C126.082 121.607 126.505 124.213 126.928 126.82C127.303 129.192 127.491 131.658 128.595 133.818C129.159 134.899 130.662 134.64 130.873 133.466C131.296 131.071 130.732 128.652 130.38 126.28C130.38 126.21 130.356 126.116 130.356 126.045C133.127 133.912 136.157 141.685 139.186 149.482C139.75 150.961 141.793 150.985 142.662 149.834C150.13 140.135 157.457 130.343 164.83 120.55C164.713 121.114 164.596 121.701 164.502 122.264C163.938 125.27 162.459 128.981 163.562 131.94C164.102 133.349 165.887 133.208 166.733 132.268C168.705 130.014 168.635 125.669 169.128 122.804C169.762 119.235 170.349 115.689 170.936 112.119C171.265 110.029 168.823 109.043 167.367 110.1Z" fill="currentColor"/>
<path d="M161.497 162.138C159.806 162.091 158.467 163.101 157.082 163.97C155.508 164.933 153.958 165.919 152.385 166.882C150.812 167.868 152.502 170.592 154.123 169.653C155.72 168.737 157.317 167.821 158.913 166.882C160.322 166.06 161.825 165.356 162.553 163.853C162.906 163.172 162.295 162.162 161.497 162.138Z" fill="currentColor"/>
<path d="M153.466 161.575C154.171 160.965 154.899 160.378 155.58 159.767C156.261 159.156 157.012 157.818 156.308 156.949C155.65 156.127 154.241 156.55 153.513 157.066C152.738 157.63 152.01 158.288 151.259 158.898C149.544 160.307 151.775 163.031 153.466 161.575Z" fill="currentColor"/>
<path d="M26.0409 69.8246C24.2561 70.717 22.9175 72.4783 21.532 73.8873C20.029 75.4607 18.5261 77.0107 17.0231 78.5841C15.708 79.9461 17.5867 82.271 18.9018 80.8855L23.622 75.9069C24.9841 74.4744 26.6749 73.0419 27.4968 71.1867C27.8961 70.3648 26.8863 69.4019 26.0409 69.8246Z" fill="currentColor"/>
<path d="M29.588 85.6757C30.1986 84.7364 30.8562 83.797 31.4198 82.8107C31.9364 81.8948 32.6644 80.7441 32.3826 79.6404C32.2182 79.0298 31.7251 78.5836 31.0675 78.6776C29.9403 78.8419 29.1653 79.8517 28.5078 80.6972C27.8267 81.5895 27.2162 82.5524 26.5821 83.4917C25.2435 85.4878 28.2729 87.6953 29.588 85.6757Z" fill="currentColor"/>
<path d="M34.4028 94.3651C35.2013 93.6841 36.0232 93.0265 36.7512 92.2516C37.08 91.8993 37.3618 91.5471 37.5496 91.1243C37.7845 90.6312 38.0663 90.2085 38.1367 89.5979C38.2072 88.8464 37.6436 88.001 36.8217 87.954C34.6846 87.8601 33.0407 89.504 31.5143 90.8425C30.5984 91.641 30.4106 93.0735 31.1856 94.0363C31.984 94.9757 33.4635 95.1401 34.4028 94.3651Z" fill="currentColor"/>
<path d="M134.888 74.8735C135.053 76.8696 137.965 76.306 137.894 74.4038C137.636 65.1043 136.579 55.7577 135.569 46.5286C135.475 45.7771 134.254 45.7537 134.184 46.5051C134.113 46.5051 134.066 46.5051 133.996 46.5286C103.89 52.9162 73.5958 58.7636 43.795 66.4663C43.3253 66.5837 43.4192 67.3352 43.9124 67.2413C74.1829 62.2158 104.148 55.288 134.16 48.924C134.16 57.566 134.184 66.2784 134.888 74.8735Z" fill="currentColor"/>
</svg>
