<svg width="208" height="73" viewBox="0 0 208 73" fill="none" xmlns="http://www.w3.org/2000/svg">
<path d="M206.685 15.1531C206.986 15.4539 207.888 15.3537 207.487 14.8522C207.287 14.6516 206.886 14.7519 206.685 14.9525C206.585 14.9525 206.585 15.0528 206.685 15.1531ZM207.487 10.5397C206.485 10.0382 205.482 7.83179 206.585 7.23004C207.788 6.62829 208.389 9.53676 207.688 10.5397C207.688 10.5397 207.587 10.5397 207.487 10.5397ZM207.387 11.5426C207.387 11.342 207.387 11.1414 207.487 11.0411C207.587 11.0411 207.688 11.0411 207.788 11.1414C207.888 11.2417 207.788 11.5426 207.587 11.6429L207.387 11.5426ZM188.642 1.61371C188.441 0.811375 190.847 0.711108 190.947 1.01198C191.148 1.31286 188.742 1.81429 188.642 1.61371ZM201.974 27.0878C201.673 27.2884 201.372 26.9875 201.372 26.5863C201.372 26.486 201.473 26.2854 201.473 26.0849C201.673 26.486 202.475 26.7869 201.974 27.0878ZM196.059 31.5006C196.16 31.6009 196.26 31.6009 196.36 31.6009C196.46 31.7012 196.661 31.8015 196.561 31.9018C196.46 32.2026 195.959 32.1023 195.859 31.9018C195.859 31.9018 195.859 31.9017 195.859 31.8015C195.959 31.8015 196.059 31.7012 196.059 31.5006ZM186.637 43.5356C186.837 43.5356 187.038 43.6359 187.238 43.8364C186.937 43.9367 186.737 43.9367 186.637 43.5356ZM197.363 32.1024C197.463 32.2026 197.363 32.4032 197.363 32.6038C197.363 32.6038 197.062 32.7041 196.962 32.6038C196.861 32.5035 196.761 32.3029 196.861 32.2026C196.962 31.9017 197.262 32.0021 197.363 32.1024ZM182.126 52.6621C182.226 52.6621 182.226 52.8627 182.126 52.8627C182.026 52.963 181.925 53.0633 181.825 52.963C181.725 52.963 181.725 52.7624 181.825 52.7624C181.925 52.6621 182.026 52.6621 182.126 52.6621ZM182.126 51.258C182.126 50.9571 182.326 50.6563 182.627 50.8568C182.928 51.0574 182.627 51.3583 182.326 51.3583C182.226 51.3583 182.126 51.258 182.126 51.258ZM181.625 53.665C182.026 54.1665 180.823 55.8714 180.321 55.0691C179.82 54.4674 181.224 53.1636 181.625 53.665ZM190.145 38.4207C190.145 38.3204 190.145 38.3204 190.145 38.2201C190.346 38.1198 190.646 38.1198 190.847 38.3204C190.947 38.4207 190.847 38.521 190.747 38.6213C190.546 38.7216 190.245 38.6213 190.145 38.4207ZM206.384 16.4569C206.485 16.3566 206.685 16.2563 206.785 16.3566C206.886 16.5572 206.685 16.6574 206.685 16.7577C206.585 16.7577 206.485 16.7577 206.384 16.7577C206.284 16.7577 206.284 16.5572 206.384 16.4569ZM190.546 39.9251C190.546 39.8248 190.546 39.7245 190.546 39.7245C190.747 39.5239 191.148 39.5239 191.248 39.7245C191.348 39.8248 191.348 39.9251 191.248 40.0254C191.148 40.1257 190.747 40.1257 190.546 39.9251ZM203.878 20.3682C204.079 20.0674 204.279 19.6662 204.279 19.265C204.279 19.1647 204.179 19.1647 204.179 19.1647C204.38 18.1618 204.48 16.4569 205.582 16.6574C206.585 16.858 204.68 18.7636 205.382 19.3653C205.582 19.5659 206.084 18.9641 206.284 19.265C207.186 20.1676 205.482 21.7723 204.48 22.0732C203.277 22.3741 203.277 21.2709 203.878 20.3682ZM50.3075 55.9717C49.6058 55.5706 50.0068 54.6679 50.3075 54.2668C50.4078 54.1665 50.508 54.1665 50.6082 54.1665C51.0092 54.3671 51.1094 54.9688 51.2097 55.37C51.2097 55.4703 50.8087 56.1723 50.3075 55.9717ZM50.8087 57.1752C50.2073 57.777 49.1046 57.5764 48.5031 56.6738C48.3026 56.4732 48.5031 56.072 48.4029 55.7711C48.3026 55.37 48.3027 54.7682 48.8039 55.0691C49.2048 55.2697 48.8039 55.9717 49.0043 56.2726C49.4053 56.8743 51.5104 56.4732 50.8087 57.1752ZM45.6964 53.5647C46.2978 53.5647 46.4983 54.3671 46.8993 54.7682C46.9995 54.8685 46.8993 55.37 46.8993 55.37C46.6988 55.4703 46.2978 55.4703 46.1976 55.37C45.6964 54.9688 45.1951 54.3671 45.4959 53.8656C45.4959 53.665 45.5961 53.4645 45.6964 53.5647ZM39.3811 60.886C39.2809 61.7886 37.276 61.1869 37.7772 60.3846C38.078 59.6825 39.3811 60.2843 39.3811 60.886ZM41.8872 56.2726C42.3884 56.2726 42.9898 56.4732 43.2906 56.9747C43.6915 57.5764 42.6891 58.479 43.3908 59.2813C43.491 59.3816 43.2905 59.8831 43.0901 59.9834C42.8896 60.0837 42.5888 59.8831 42.3884 59.7828C42.1879 59.5822 41.6867 59.3816 41.7869 58.8802C41.7869 58.1781 42.2881 57.8773 41.7869 57.2755C41.386 56.8743 41.3859 56.2726 41.8872 56.2726ZM39.7821 55.7711C39.7821 55.6708 39.8823 55.6709 39.9825 55.6709C40.183 55.8715 40.2833 56.3729 40.0828 56.5735C40.0828 56.6738 39.8823 56.6738 39.8823 56.5735C39.5816 56.4732 39.5816 55.9717 39.7821 55.7711ZM39.4813 51.9601C39.5816 51.4586 39.8823 51.0575 40.0828 50.6563C40.183 50.556 40.6843 50.2551 40.985 50.556C41.3859 50.9572 40.7845 51.4586 40.6843 51.8598C40.584 52.1607 40.7845 52.7624 40.3835 52.963C39.9825 53.0633 39.3811 52.5618 39.4813 51.9601ZM38.9801 59.3816C38.8799 60.184 37.5768 59.6825 37.677 59.0808C37.5768 58.7799 38.9801 58.9805 38.9801 59.3816ZM47.3002 60.9863C47.3002 60.9863 47.4005 61.0866 47.3002 61.1869C47.0998 61.4878 46.4983 61.4878 46.1976 61.1869L46.1976 61.0866C46.4983 60.7857 47.0998 60.7857 47.3002 60.9863ZM35.3714 52.7624C35.3714 52.3612 35.8726 52.5618 35.9729 52.5618C36.0731 52.6621 36.2736 52.7624 36.2736 52.963C36.2736 53.0633 36.0731 53.1636 35.9729 53.0633C35.7724 53.0633 35.2712 53.1636 35.3714 52.7624ZM36.8751 55.4703C37.7772 55.1694 39.0804 55.37 39.3811 56.2726C39.7821 57.3758 40.4838 58.6796 39.2809 59.0808C38.9802 59.1811 38.2784 57.0749 37.677 56.5735C37.5768 56.4732 37.4765 56.5735 37.3763 56.5735C36.8751 56.9747 37.4765 58.1781 36.8751 58.479C36.5743 58.5793 36.1734 58.1782 36.2736 58.0779C36.3739 57.1752 35.8726 55.6709 36.8751 55.4703ZM42.3884 55.5706C42.3884 55.37 41.5864 55.0691 41.9874 54.668C42.3884 54.1665 43.1903 54.5677 43.3908 54.9688C43.5913 55.2697 42.9898 55.5706 43.3908 55.9717C44.3932 56.7741 44.9947 55.5706 45.5961 56.2726C45.9971 56.7741 46.2978 57.777 45.6964 58.1782C44.9947 58.6796 44.0925 57.8773 43.892 56.9747C43.7918 55.9717 42.5888 56.3729 42.3884 55.5706ZM46.398 62.8918C47.0997 62.9921 47.601 63.7945 47.601 64.3962C47.601 64.4965 47.5007 64.6971 47.4005 64.6971C46.6988 64.998 45.0949 65.0983 45.1952 64.2959C45.1952 63.3933 45.5961 62.7916 46.398 62.8918ZM46.0973 65.3991C46.5985 65.0983 46.8993 65.7 46.799 66.2015C46.6988 66.3018 46.3981 66.5023 46.2978 66.5023C45.5961 66.2015 45.6964 65.5997 46.0973 65.3991ZM31.061 59.7828C31.2615 60.184 30.9608 60.6854 30.5598 60.7857C29.9584 60.9863 28.8557 60.184 29.5574 59.5822C29.9584 59.2814 30.7603 59.1811 31.061 59.7828ZM42.3884 60.7857C42.4886 60.886 42.3884 60.9863 42.3884 61.0866C42.1879 61.1869 41.8872 61.1869 41.7869 61.0866C41.6867 60.9863 41.6867 60.7857 41.7869 60.7857C41.8872 60.5851 42.1879 60.5851 42.3884 60.7857ZM41.8872 69.7117C42.0876 69.7117 42.1879 69.9123 42.2881 70.0125L42.1879 70.2131C41.9874 70.2131 41.7869 70.2131 41.6867 70.0125C41.6867 69.9123 41.7869 69.812 41.8872 69.7117ZM43.1903 65.0983C43.2906 65.0983 43.3908 65.0983 43.3908 65.1986C43.491 65.3991 43.491 65.8003 43.2906 65.9006C43.1903 66.0009 42.9898 65.9006 42.8896 65.8003C42.8896 65.4994 42.9898 65.1986 43.1903 65.0983ZM41.6867 67.2044C41.6867 67.1041 41.6867 67.1041 41.6867 67.0038C41.8872 66.9035 42.1879 66.9035 42.2881 67.1041C42.2881 67.2044 42.2881 67.3047 42.1879 67.3047C42.0877 67.405 41.7869 67.3047 41.6867 67.2044ZM29.4571 56.3729C29.5574 56.2726 29.7579 56.2726 29.7579 56.2726C30.8605 56.7741 30.7603 56.6738 30.9608 55.5706C31.1613 54.7682 30.0586 54.1665 30.4596 53.665C30.66 53.3642 31.061 53.665 31.3617 53.665C32.3642 53.7653 33.2664 54.0662 34.2688 54.0662C35.4717 54.1665 35.4717 54.0662 35.4717 55.1694C35.4717 55.4703 35.6722 55.7712 35.4717 55.9717C34.77 56.7741 34.2688 53.7653 33.6673 54.4674C33.0659 55.1694 34.1685 55.7711 33.5671 56.3729C33.0659 56.7741 32.8654 57.5764 32.3642 57.777C31.863 57.9776 31.3617 57.5764 30.8605 57.4761C30.3593 57.2755 28.9559 57.1752 29.4571 56.3729ZM14.3206 51.6592C14.5211 51.7595 14.4208 52.1607 14.5211 52.3612C14.5211 52.3612 14.3206 52.5618 14.2204 52.4615C14.0199 52.3612 13.9196 51.9601 14.0199 51.6592C14.0199 51.6592 14.2203 51.6592 14.3206 51.6592ZM8.80727 48.4499C9.40873 48.4499 9.60921 49.3525 9.40873 49.7537C8.80727 50.556 7.50412 48.4499 8.80727 48.4499ZM28.555 51.258C28.2542 50.9571 28.154 50.3554 28.3545 50.0545C28.6552 49.5531 29.1564 50.0545 29.1564 50.4557C29.2567 50.9572 29.0562 51.7595 28.555 51.258ZM12.015 52.7624C12.7167 52.7624 14.0199 53.1636 13.8194 53.8656C13.7191 54.2668 13.0174 54.2668 12.5162 54.0662C12.1153 53.8656 11.6141 53.3642 11.7143 52.8627C11.8145 52.7624 11.9148 52.7624 12.015 52.7624ZM11.7143 48.4499C12.1153 49.0516 11.7143 49.9543 11.3133 50.1548C10.8121 50.4557 11.0126 49.5531 10.9124 49.1519C10.8121 48.8511 10.0102 48.5502 10.3109 48.149C10.5114 47.8481 11.4136 48.0487 11.7143 48.4499ZM1.18889 46.444C1.99083 45.742 3.59468 46.3437 3.89542 47.3467C3.99566 47.7478 3.99566 48.7507 3.3942 48.7507C2.69251 48.7507 3.09349 47.5472 2.69252 47.2464C2.19132 47.0458 0.386967 47.2464 1.18889 46.444ZM2.79274 49.5531L2.69252 49.7537C2.49204 49.7537 2.09107 49.854 1.99082 49.6534C1.89058 49.5531 1.99083 49.3525 2.09107 49.2522C2.3918 49.2522 2.59226 49.4528 2.79274 49.5531ZM2.89299 50.2551C3.29396 50.4557 3.3942 51.6592 2.79274 51.7595C1.69008 52.1606 2.1913 49.8539 2.89299 50.2551ZM6.60196 49.9542C6.90268 49.854 7.00293 50.1548 7.20342 50.2551C7.50415 50.4557 8.00534 50.556 7.90509 51.1578C7.70461 51.9601 8.80727 51.258 8.80727 51.9601C8.80727 52.1607 8.80729 52.5618 8.50655 52.6621C7.80486 52.7624 7.60439 51.7595 7.20342 51.4586C6.70221 51.0575 5.69979 50.1548 6.60196 49.9542ZM24.846 51.1578C23.9438 50.1548 20.3351 50.6563 20.7361 49.6534C20.9366 49.0516 22.0392 49.7537 22.5404 49.8539C23.0417 49.9542 23.5429 50.3554 23.9438 50.1548C25.247 49.7537 26.6504 50.1548 26.9511 51.258C27.1516 51.9601 25.5477 52.1607 25.648 52.8627C25.7482 53.4644 27.1516 53.0633 27.0513 53.5647C27.0513 54.1665 25.7482 53.5647 25.7482 53.9659C25.7482 54.9688 27.753 54.9688 27.4523 55.7711C27.0513 56.9746 26.0489 54.2668 25.7482 55.0691C25.648 55.37 26.3496 55.4703 26.1492 55.7711C25.3472 56.9746 24.2446 54.9688 24.5453 54.1665C24.846 53.1636 25.5477 51.8598 24.846 51.1578ZM27.1516 52.1607C27.3521 51.8598 27.9535 51.3583 28.4547 51.7595C28.9559 52.2609 27.753 52.963 27.9535 53.4644C28.0537 53.8656 28.8557 53.665 28.9559 54.0662C28.9559 54.1665 28.8557 54.3671 28.7555 54.3671C27.6528 54.6679 26.6504 53.0633 27.1516 52.1607ZM28.9559 62.1898C28.9559 62.2901 28.9559 62.3904 28.8557 62.4907C28.6552 62.591 28.3545 62.3904 28.2542 62.1898C28.2542 62.1898 28.2542 62.0895 28.3545 62.0895C28.4547 61.9892 28.8557 61.9892 28.9559 62.1898ZM19.032 54.5677C19.7337 53.7653 21.3375 56.5735 19.8339 56.5735C19.1322 56.5735 19.5332 55.6709 19.4329 55.37C19.3327 55.0691 18.8315 54.8685 19.032 54.5677ZM20.1346 52.7624C19.8339 52.4615 19.6334 51.8598 19.7337 51.3583C19.9342 50.8569 21.4378 50.7566 21.4378 51.0575C21.4378 51.4586 20.6359 51.3583 20.6359 51.6592C20.5356 52.261 21.2373 52.8627 21.939 52.6621C22.2397 52.5618 21.939 51.258 22.6407 51.3583C23.4426 51.4586 23.5429 52.6621 23.1419 53.2639C22.7409 53.8656 21.939 53.1636 21.4378 53.2639C20.7361 53.665 20.4354 53.0633 20.1346 52.7624ZM13.9196 48.9513C14.5211 47.7478 16.7264 48.6505 17.2276 49.6534C17.5284 50.3554 16.2252 50.8569 16.3254 51.4586C16.4257 52.2609 18.23 52.1607 18.1298 53.0633C18.0296 53.665 17.3278 53.9659 16.8266 53.7653C15.9245 53.4644 16.125 51.8598 15.5235 51.1578C14.922 50.556 13.5187 49.854 13.9196 48.9513ZM19.4329 53.4644C19.8339 53.1636 21.0368 53.3642 21.0368 54.1665C20.9366 55.0691 18.7312 53.9659 19.4329 53.4644ZM46.4983 58.5793C46.799 58.0779 47.9017 58.2784 48.1022 58.7799C48.3026 59.6825 45.8968 59.6825 46.4983 58.5793ZM6.80243 49.6534C6.5017 49.6534 6.60196 49.2522 6.60196 49.1519C6.60196 49.0516 6.60196 48.851 6.70221 48.851C6.80245 48.851 6.90268 48.9513 7.00292 49.0516C6.90268 49.1519 7.2034 49.5531 6.80243 49.6534ZM42.0877 52.3612C42.2881 51.258 41.5864 50.6563 42.2881 50.4557C42.5889 50.3554 42.9898 50.8569 42.9898 50.9572C42.8896 51.7595 44.3932 51.9601 44.0925 52.963C43.6915 54.1665 41.8872 53.2639 42.0877 52.3612ZM47.5007 52.0604C47.601 52.5618 47.0998 53.0633 46.799 53.1636C46.3981 53.3642 45.7966 53.4644 45.3956 53.2639C44.9946 53.0633 44.5937 52.5618 44.4934 52.0604C44.3932 51.7595 44.293 50.8569 44.7942 50.7566C45.2954 50.6563 45.2954 51.6592 45.4959 51.7595C45.9971 51.8598 46.0973 51.3583 46.2978 50.9572C46.3981 50.7566 46.799 50.2551 47.2 50.556C48.0019 51.1577 47.4005 51.3583 47.5007 52.0604ZM35.2712 51.258C35.3714 50.7566 36.2736 51.3583 36.4741 51.1578C36.7748 50.9572 36.7748 50.4557 36.8751 50.4557C37.0755 50.4557 37.3763 50.556 37.5768 50.7566C37.8775 51.0574 38.2784 51.4586 38.1782 51.8598C37.9777 52.6621 34.8702 52.4615 35.2712 51.258ZM33.6673 52.5618C32.9656 52.261 31.9632 52.0604 31.7627 51.3583C31.7627 51.258 31.863 51.1577 31.863 51.0575C32.7651 50.4557 34.369 51.258 34.4692 52.1607C34.6697 52.5618 33.8678 52.6621 33.6673 52.5618ZM38.7797 55.2697C37.9777 55.37 37.677 53.9659 37.9777 53.4644C38.5792 52.6621 40.4838 54.9688 38.7797 55.2697ZM29.7579 51.1578C30.2591 50.7566 31.3617 51.4586 31.1613 51.9601C30.9608 53.1636 29.0562 51.6592 29.7579 51.1578ZM52.4126 66.402C52.4126 66.5023 52.5128 66.7029 52.3124 66.8032C52.0116 66.9035 51.3099 66.9035 51.3099 66.402C51.2097 65.4994 52.2121 66.0009 52.4126 66.402ZM51.8111 64.998C51.4102 64.6971 51.6106 63.995 52.1119 63.7945C52.2121 63.7945 52.4126 63.7945 52.4126 63.7945C52.613 64.0953 52.6131 64.6971 52.3124 64.998C52.2121 65.0983 51.9114 65.0983 51.8111 64.998ZM54.5177 62.1898C54.7181 62.7916 53.3147 62.6913 53.6155 62.0895C53.7157 61.7886 54.4174 61.7887 54.5177 62.1898ZM49.4053 57.5764C49.6058 57.4761 50.0068 57.4761 50.107 57.6767C50.107 57.777 50.107 57.8773 50.107 57.8773C49.9065 57.9776 49.5055 57.8773 49.4053 57.777C49.3051 57.777 49.4053 57.6767 49.4053 57.5764ZM49.1046 59.8831C49.2048 59.5822 48.7036 59.2814 48.8039 59.0808C49.9065 58.1782 50.2073 61.0866 48.6034 60.886C47.7012 60.6854 49.0044 60.184 49.1046 59.8831ZM49.5055 66.2015C49.5055 66.2015 49.5055 66.3018 49.5055 66.2015C49.3051 66.5024 48.8039 66.5024 48.6034 66.2015L48.6034 66.1012C48.8039 66.0009 49.3051 66.0009 49.5055 66.2015ZM66.8474 51.5589C66.246 50.2551 69.153 50.3554 68.752 51.3583C68.4513 52.0604 67.1482 52.261 66.8474 51.5589ZM86.2944 52.5618C86.4949 52.7624 86.3946 53.0633 86.2944 53.1636C86.2944 53.3642 86.0939 53.5647 85.9936 53.5647C84.6905 53.9659 84.1893 52.7624 84.7908 52.2609C85.0915 52.0603 85.8934 52.1607 86.2944 52.5618ZM86.7956 49.6534C85.8934 50.3554 87.8983 50.0545 87.8983 50.556C87.8983 51.258 86.8958 51.1577 86.3946 51.3583C85.8934 51.5589 85.4924 51.4586 85.0915 51.0575C84.9912 50.8569 84.6905 50.7566 84.6905 50.4557C84.7908 50.0545 85.6929 50.2551 85.6929 49.8539C85.6929 49.4528 84.9912 49.6534 84.891 49.3525C84.6905 48.149 86.5951 48.4499 87.3971 48.4499C87.9985 48.4499 88.7002 49.1519 88.199 49.7536C87.9985 50.1548 87.1966 49.3525 86.7956 49.6534ZM73.6639 54.0662C73.3632 53.8656 73.0624 53.4645 73.2629 53.0633C74.0649 51.4586 76.0697 53.1636 75.2678 53.9659C74.8668 54.2668 74.1651 54.3671 73.6639 54.0662ZM78.0745 51.1577C77.3728 51.3583 75.6687 52.0604 75.5685 50.9572C75.4682 49.9542 76.9719 50.0545 77.6736 49.7536C78.0745 49.5531 78.5757 49.5531 78.676 50.1548C78.8765 50.6563 78.676 51.0575 78.0745 51.1577ZM76.7714 53.1636C77.3729 53.7653 77.0721 55.0691 76.4707 55.5706C75.8692 56.072 75.6687 55.0691 75.6687 54.4674C75.6687 53.7653 76.0697 52.4615 76.7714 53.1636ZM84.1893 54.4674C83.7883 54.5676 83.5878 54.1665 83.5878 53.9659C83.5878 53.7653 83.7883 53.665 83.8886 53.665C83.9888 53.665 84.1893 53.8656 84.2895 53.9659C84.3898 53.9659 84.49 54.3671 84.1893 54.4674ZM99.9273 50.4557C99.7268 50.2551 99.8271 49.9542 99.8271 49.7536C99.8271 49.7536 100.028 49.6534 100.128 49.6534C100.328 49.7537 100.328 50.1548 100.228 50.3554C100.228 50.4557 100.028 50.556 99.9273 50.4557ZM103.436 47.3467C102.935 47.7478 102.032 47.7478 101.531 47.3467C101.13 47.0458 101.13 46.3437 101.331 45.9426C101.832 45.04 105.842 45.6417 103.436 47.3467ZM98.5239 49.0516C98.3234 49.854 99.8271 50.2551 99.6266 50.9572C99.3258 52.0604 97.9225 50.9571 97.722 50.2551C97.4213 49.0516 97.5215 48.6505 97.8222 48.0487C97.9225 47.7478 98.123 47.2464 98.3234 46.6446C98.4237 46.3438 98.7244 46.0429 99.0251 46.0429C99.4261 46.0429 100.028 45.9426 100.228 46.2434C100.93 47.2464 98.8246 47.8481 98.5239 49.0516ZM90.2038 49.7536C90.0033 49.7536 90.0033 49.3525 90.0033 49.1519C90.0033 49.0516 90.0033 48.851 90.2038 48.7507C90.3041 48.7507 90.5045 48.7507 90.5045 48.851C90.6048 49.2522 90.5046 49.7536 90.2038 49.7536ZM96.5191 48.149C96.1181 48.149 95.7171 47.5473 95.9176 47.1461C96.1181 46.8452 96.8198 46.8452 97.0203 47.1461C97.321 47.5473 96.8198 48.149 96.5191 48.149ZM59.5298 60.0837C59.9307 60.4849 59.8305 61.8889 59.1288 61.5881C58.6276 61.3875 58.7278 60.3846 59.1288 60.0837C59.229 59.9834 59.4295 59.9834 59.5298 60.0837ZM55.8208 50.9572C56.1215 50.4557 57.0237 50.556 57.4247 50.9572C57.8256 51.3583 57.8256 52.0604 57.4247 52.4615C56.6227 53.0633 55.4199 51.5589 55.8208 50.9572ZM54.7181 51.7595C54.0165 51.8598 52.0116 52.0604 52.6131 50.9572C53.014 50.2551 54.5176 50.2551 54.9186 50.9572C55.2193 51.258 54.8184 51.6592 54.7181 51.7595ZM60.2315 65.4994C59.7303 66.0009 58.4271 65.3991 58.4271 64.6971C58.4271 63.5939 61.1336 64.5968 60.2315 65.4994ZM73.2629 51.5589C72.862 51.6592 72.1603 51.0575 72.3608 50.556C72.5612 50.0545 73.3632 50.0545 73.5636 50.3554C73.9646 50.7566 73.7641 51.4586 73.2629 51.5589ZM75.1675 52.1607C75.0673 52.1607 74.8668 52.0604 74.8668 51.9601C74.8668 51.8598 75.0673 51.7595 75.0673 51.7595C75.1675 51.7595 75.368 51.8598 75.368 51.9601C75.2678 52.0604 75.2678 52.1607 75.1675 52.1607ZM72.862 54.1665C73.1627 54.0662 73.5636 54.3671 73.6639 54.668C73.7641 55.0691 73.7641 55.7711 73.0624 55.9717C72.461 56.072 72.06 55.4703 72.06 55.0691C72.1603 54.4674 72.5612 54.2668 72.862 54.1665ZM60.4319 59.5822C59.5297 59.7828 58.5273 58.0779 59.1288 57.1752C59.4295 56.7741 60.031 56.8744 60.3317 57.0749C61.3341 57.4761 61.3341 59.3817 60.4319 59.5822ZM75.0673 72.5198C74.967 73.1216 74.0649 73.1216 73.6639 72.7204C73.4634 72.5198 73.3632 72.5198 73.5637 72.219C73.9646 71.1158 75.1675 71.8178 75.0673 72.5198ZM72.6615 69.9122C72.7617 69.3105 72.5612 68.4079 73.1627 68.2073C73.8644 67.9064 73.8644 68.5082 74.3656 68.3076C75.368 67.8061 75.8692 68.9093 77.0721 69.0096C77.5733 69.0096 77.8741 68.4079 78.1748 69.1099C78.3753 69.6114 78.0745 70.2131 77.5733 70.3134C75.9695 70.7146 73.6639 72.0184 72.5612 70.6143C72.3607 70.3134 72.6615 70.1128 72.6615 69.9122ZM72.2605 71.8178C72.3608 71.9181 72.6615 72.0184 72.6615 72.1187C72.6615 72.219 72.461 72.3192 72.3608 72.3192C72.2605 72.3192 71.8595 72.3192 71.8595 72.0184C71.8595 71.7175 72.1603 71.8178 72.2605 71.8178ZM71.7593 61.1869C72.06 61.1869 71.9598 60.4848 72.3608 60.3846C73.0625 60.2843 72.461 61.1869 72.5612 61.5881C72.6615 61.9892 73.1627 62.2901 72.9622 62.7915C72.9622 62.8918 72.3608 62.8919 72.2605 63.1927C72.1603 63.4936 72.461 63.8948 72.6615 64.0953C73.2629 64.7974 74.7665 63.3933 75.0673 64.4965C75.1675 64.998 75.368 66.1012 74.7666 66.3017C74.3656 66.5023 74.1651 65.3991 73.7641 65.3991C73.4634 65.3991 73.0624 65.8003 73.2629 66.2015C73.4634 66.9035 74.4658 67.2044 75.1675 67.0038C75.5685 66.9035 75.368 65.9006 75.9694 65.9006C76.5709 65.9006 76.3704 67.1041 76.8716 67.0038C77.9743 67.0038 78.0745 65.2989 77.7738 64.1956C77.7738 64.0954 77.7738 63.7945 77.8741 63.6942C78.1748 62.9921 78.3752 62.2901 78.9767 61.5881C79.1772 61.3875 80.4803 61.9892 80.0794 61.2872C79.7786 60.5851 78.0745 61.2872 77.7738 60.4848C77.3729 59.2814 79.8789 60.6854 80.1796 59.7828C80.3801 59.2813 80.4803 58.5793 80.0794 58.2784C79.7786 57.9776 79.1772 58.0779 78.7763 58.0779C77.9743 58.0779 77.3729 57.8773 77.1724 56.9746C76.9719 56.1723 75.8692 55.5706 75.1675 56.5735C74.6663 57.2755 76.2702 57.9776 75.9694 59.0808C75.5685 60.886 74.8668 58.8802 73.6639 56.9746C73.1627 56.1723 72.1603 54.8685 71.1578 55.2697C70.8571 55.4703 71.2581 55.9717 71.0576 56.1723C70.8571 56.3729 70.4562 56.3729 70.2557 56.1723C69.7545 55.6709 70.5564 54.668 70.1554 54.1665C69.7544 53.665 68.9525 53.5647 68.4513 53.8656C67.9501 54.1665 69.4537 54.4674 68.8523 55.0691C68.3511 55.5706 69.4537 55.8715 69.0528 56.1723C68.8523 56.3729 68.4513 56.3729 68.2508 56.5735C67.5491 57.777 67.8499 58.7799 67.2484 60.3846C67.1482 60.6854 67.5491 60.9863 67.4489 61.2872C67.3486 62.591 67.8499 63.293 68.1506 64.8977C68.2508 65.1985 67.6494 65.4994 67.8499 65.8003C67.9501 66.1012 68.4513 66.2015 68.6518 66.1012C69.4537 65.8003 69.554 64.7974 69.9549 64.1956C70.1554 63.9951 70.1554 63.4936 70.4561 63.5939C71.0576 63.6942 70.6566 63.5939 70.3559 64.2959C70.2557 64.4965 70.1554 64.5968 70.2557 64.6971C70.6566 65.0983 70.9574 65.0983 71.1578 64.4965C71.2581 64.1956 71.4586 63.7945 71.4586 63.5939C70.9573 61.5881 68.752 59.5822 70.2557 58.3787C71.2581 56.9746 70.4562 61.2872 71.7593 61.1869ZM75.368 62.2901C75.5685 62.1898 75.8692 62.2901 75.9694 62.4907C75.9694 62.591 75.9695 62.6913 75.8692 62.6913C75.6688 62.7916 75.368 62.6913 75.2678 62.4907L75.368 62.2901ZM74.967 60.2843C75.8692 60.184 75.4683 61.4878 74.7666 61.1869C74.2654 61.0866 74.3656 60.3845 74.967 60.2843ZM73.1627 61.6884C73.1627 61.3875 73.4634 61.3875 73.5636 61.3875C73.6639 61.3875 73.7642 61.4878 73.8644 61.6884C73.8644 61.7887 73.7641 61.9892 73.6639 61.9892C73.4634 61.8889 73.1627 61.8889 73.1627 61.6884ZM79.1772 69.0096C79.077 69.9123 80.3801 69.6114 80.4803 70.2131C80.4803 70.4137 80.0794 70.514 80.1796 70.7146C80.1796 70.8149 80.2799 70.8149 80.3801 70.9152C82.1845 72.219 82.0842 72.219 83.9888 70.9152C84.3898 70.6143 84.9912 70.3134 85.4924 70.3134C86.8958 70.3134 88.2992 70.1128 89.8029 70.4137C90.9055 70.6143 90.4043 70.0126 91.4067 69.2102C91.9079 68.8091 92.6096 69.0096 93.2111 69.7117C94.013 70.6143 96.1181 69.6114 96.4188 68.3076C96.4188 68.107 96.3186 67.8061 96.4188 67.6056C96.5191 67.0038 96.8198 66.7029 97.5215 66.9035C97.9225 67.0038 98.4237 66.8032 98.6242 67.2044C98.8246 67.6056 97.5215 68.0067 97.9225 68.5082C98.2232 69.0096 98.9249 68.7088 99.3259 68.6085C100.228 68.5082 101.03 68.3076 101.932 68.107C102.433 68.0067 102.634 67.7059 102.634 67.2044C102.634 66.8032 102.133 66.5023 102.333 66.0009C102.433 65.7 102.935 65.8003 103.235 65.7C103.737 65.5997 104.238 65.7 104.639 65.4994C105.842 64.998 106.844 65.2988 107.746 66.1012C108.247 66.5023 108.548 66.3018 109.049 66.1012C110.553 65.3991 112.057 64.8977 113.66 64.6971C114.162 64.5968 114.663 64.3962 114.964 64.0953C115.365 63.6942 115.766 63.4936 116.367 63.6942C117.77 63.9951 117.971 62.4907 119.575 61.9892C119.976 61.8889 120.276 62.7916 120.778 62.591C122.081 62.1898 123.284 62.6913 123.685 61.4878C123.785 61.1869 123.083 60.6854 123.484 60.3845C123.685 60.184 123.985 60.5851 124.086 60.6854C124.988 61.3875 125.589 61.3875 126.291 60.4848C126.491 60.2843 126.592 59.9834 126.792 59.7828C126.993 59.5822 127.093 59.2814 127.293 59.1811C127.895 58.8802 128.196 60.184 128.998 59.7828C129.799 59.3816 130.702 59.181 131.103 58.2784C131.203 58.0778 131.303 57.6767 131.604 57.5764C132.005 57.3758 132.406 57.5764 132.807 57.6767C133.408 57.777 133.809 57.6767 134.11 57.1752C134.511 56.5735 135.213 56.4732 135.914 56.6738C137.117 56.9747 138.019 56.5735 138.721 55.5706C139.322 54.7682 140.124 54.3671 141.127 54.5677C141.929 54.7682 142.43 54.5676 142.831 53.8656C143.132 53.4644 143.533 53.2638 144.034 53.3641C145.337 53.5647 145.337 53.4644 145.738 52.3612C145.738 52.2609 145.838 52.1607 145.938 52.1607C146.44 52.0604 146.941 52.7624 147.342 52.6621C147.643 52.5618 147.643 51.6592 148.244 51.3583C148.444 51.258 148.845 51.258 149.046 51.3583C150.149 51.7595 150.85 51.0574 151.552 50.4557C151.853 50.1548 152.153 49.7536 152.454 49.7536C154.158 49.4528 155.461 48.2493 157.065 47.7478C157.166 47.7478 157.366 47.6475 157.366 47.5472C157.466 46.3437 158.569 46.3437 159.271 45.8423C159.772 45.4411 161.175 45.5414 160.975 44.7391C160.874 44.2376 159.972 44.8394 159.772 44.5385C159.371 43.9367 160.674 43.7362 161.175 43.4353C161.977 43.0341 162.98 42.633 163.481 41.9309C163.882 41.4295 164.383 41.63 164.583 41.3292C165.385 40.3262 164.684 40.1257 165.987 40.0254C166.488 40.0254 166.889 39.9251 166.889 39.223C166.889 38.9222 167.089 38.6213 167.29 38.4207C167.591 38.1198 168.493 38.1198 168.393 37.6184C168.292 36.6155 167.891 36.4149 167.791 36.2143C167.49 35.7128 168.393 35.6125 168.693 35.2114C168.894 34.9105 168.593 34.3088 168.994 33.9076C169.395 33.5064 170.397 32.9047 170.999 33.3058C171.4 33.6067 170.798 34.4091 171.3 34.6096C174.407 36.0137 179.119 32.5035 179.92 29.2942C179.92 29.1939 179.82 29.0936 179.72 28.9933C178.818 28.6924 178.116 30.598 177.013 30.3974C176.713 30.3974 176.412 29.9962 176.312 29.6953C176.212 29.3945 176.512 29.2942 176.512 29.2942C177.414 28.6924 178.417 28.0907 179.319 27.3886C179.92 26.9875 180.422 26.486 180.923 26.0849C181.825 25.4831 182.727 24.8813 183.629 24.2796C183.429 24.8813 183.329 25.3828 182.727 25.784C182.326 26.0848 182.928 26.3857 182.527 27.188C182.226 27.8901 181.424 27.4889 181.224 28.0907C181.123 28.2913 181.424 28.5921 181.224 28.7927C181.224 28.7927 181.023 28.6924 180.923 28.7927C180.522 29.2942 181.524 30.0965 180.021 30.9991C179.92 30.9991 179.82 30.9991 179.72 30.9991C179.62 30.9991 179.519 30.7985 179.419 30.7985C179.018 30.8988 178.918 31.5006 178.718 31.9018C178.617 32.002 178.718 32.3029 178.818 32.4032C179.018 32.5035 179.219 32.6038 179.419 32.5035C179.62 32.4032 179.82 32.1023 180.021 31.9018C180.321 31.6009 180.722 31.4003 181.023 30.8988C181.123 30.7986 181.123 30.3974 181.324 30.2971C181.524 30.1968 182.427 30.1968 182.226 30.598C179.419 35.6126 175.61 39.7245 164.984 57.3758C164.684 57.777 165.686 58.3787 165.085 58.6796C164.784 58.7799 164.483 58.6796 164.182 58.7799C163.982 58.9805 163.882 59.2813 163.681 59.5822C163.381 60.0837 163.08 60.5851 162.679 60.9863C162.278 61.3875 161.877 62.0895 161.877 62.591C161.877 63.5939 159.972 64.1956 161.977 65.3991C162.779 65.9006 163.28 64.1956 163.781 63.4936C164.182 62.9921 164.984 62.3904 164.684 61.7886C164.182 60.5851 162.879 59.5822 164.082 59.9834C164.583 60.184 163.882 61.0866 164.483 61.1869C164.884 61.1869 165.486 60.5851 165.887 60.886C166.689 61.588 164.984 62.4907 164.583 63.293C164.182 64.0953 163.08 64.8977 163.481 65.8003C163.581 66.1012 164.082 66.3018 164.483 66.1012C165.887 65.7 166.288 63.7945 166.989 62.4907C167.39 61.6883 168.192 61.588 168.693 60.9863C168.894 60.7857 168.693 60.3846 168.794 60.0837C168.794 59.9834 168.894 59.6825 168.994 59.6825C169.696 59.5822 169.696 58.479 170.397 58.3787C170.598 58.3787 170.899 58.479 170.999 58.5793C171.099 58.6796 170.999 58.8802 170.899 58.8802C170.598 59.181 170.297 59.4819 169.997 59.7828C169.796 59.9834 169.495 60.0837 169.796 60.4848C169.896 60.5851 169.596 60.886 169.495 61.0866C168.794 62.0895 168.092 63.0924 167.39 63.995C167.19 64.2959 166.488 64.5968 166.689 64.998C166.889 65.3991 167.39 65.0983 167.791 65.0983C167.992 65.0983 168.192 65.0982 168.393 64.8977C168.894 64.4965 169.395 64.0953 169.696 63.4936C169.796 63.293 170.097 63.0924 170.297 62.8918C170.397 62.7915 170.397 62.6913 170.297 62.4907C170.899 62.6913 171.3 61.8889 171.801 61.4878C171.901 61.3875 172.102 61.1869 172.102 61.0866C171.901 60.5851 172.603 60.9863 172.503 60.6854C172.402 59.1811 173.204 57.6767 174.407 57.8773C174.708 57.8773 174.808 58.2784 174.708 58.479L174.708 58.5793C174.808 58.7799 175.41 58.1781 175.71 57.9776C176.111 57.6767 176.312 57.3758 176.512 56.9746C176.813 56.3729 177.114 55.37 177.916 55.2697C178.317 55.2697 178.317 55.8714 178.517 55.8714C179.219 55.8714 178.417 55.4703 178.417 54.5676C178.417 54.2668 178.617 53.8656 179.018 53.7653C179.419 53.665 179.72 54.3671 180.121 54.1665C180.923 53.7653 181.023 52.8627 181.725 51.6592C181.925 51.3583 181.424 51.1577 181.524 50.8568C181.625 50.6563 181.925 50.6563 182.026 50.4557C182.427 49.4528 182.627 50.1548 183.429 48.5502C183.73 47.8481 183.73 47.4469 184.331 47.2463C184.632 47.1461 184.832 47.0458 184.933 46.8452C184.832 47.0458 184.832 47.1461 184.933 47.3466C185.233 47.9484 186.436 47.8481 186.737 47.3466C186.837 47.2464 186.436 47.1461 186.436 46.9455C186.637 46.0429 187.739 45.8423 188.04 44.9397C188.14 44.4382 188.642 43.9367 189.243 43.8364C190.245 43.7362 190.446 43.4353 190.546 42.4324C190.546 42.0312 190.747 41.7303 190.847 41.4295C190.947 41.0283 191.448 40.5268 191.148 40.1257C190.747 39.6242 190.245 40.5268 189.844 40.7274C189.644 40.928 189.443 41.1286 189.143 41.2289C188.541 41.4294 188.241 41.9309 188.04 42.4324C187.94 42.8335 187.639 43.2347 187.338 43.335C187.539 43.5356 187.739 43.8365 187.639 44.1373C187.338 45.04 185.534 43.7362 186.436 43.1344C186.536 43.1344 186.536 43.0341 186.637 43.0341C186.637 42.9338 186.637 42.8335 186.637 42.7332C186.637 42.5326 186.837 42.5327 187.038 42.4324C187.84 42.2318 188.341 41.63 188.742 40.928C189.042 40.5268 189.443 40.2259 189.644 39.8248C189.945 39.3233 190.446 38.7216 190.245 38.2201C190.145 38.0195 189.844 38.0195 189.744 37.9192C189.544 36.816 190.346 37.4178 191.348 37.1169C191.749 37.0166 191.849 36.4149 192.25 36.3146C192.751 36.2143 192.551 36.816 192.35 37.0166C192.15 37.3175 191.549 37.5181 191.749 37.819C191.849 38.0195 192.15 37.9192 192.25 37.9192C192.751 37.7187 193.052 37.6184 193.553 37.9192C194.055 38.2201 194.957 37.5181 195.057 36.7157C195.157 36.0137 195.358 35.6125 196.16 35.412C196.661 35.2114 196.861 34.7099 196.861 34.1082C196.861 33.6067 197.062 33.005 196.661 32.7041C196.26 32.4032 195.759 32.7041 195.358 32.7041C194.957 32.7041 194.857 33.005 194.656 33.3058C194.355 33.9076 194.055 34.5093 193.654 35.0108C193.453 35.2114 193.353 35.6125 193.052 35.7128C192.952 35.7128 192.952 35.6126 192.852 35.6126C192.651 34.6096 193.854 33.9076 194.355 33.005C194.456 32.8044 194.656 32.5035 194.756 32.3029C194.857 31.8015 195.458 31.7012 195.759 31.5006C195.759 31.3 195.959 31.1997 196.059 31.0994C196.16 31.1997 196.26 31.1997 196.36 31.1997C196.561 31.1997 196.962 31.1997 197.162 31.3C197.663 31.6009 197.964 31.4003 198.165 30.9991C198.866 29.9962 199.568 28.893 200.27 27.7898C200.671 27.0878 200.47 25.1822 201.272 25.4831C201.272 25.5834 201.372 25.5834 201.372 25.6837C201.372 25.5834 201.372 25.5834 201.272 25.4831C201.873 25.8843 202.675 24.8813 203.277 24.3799C203.878 23.7781 204.279 22.4743 203.778 21.672C203.377 20.97 202.675 22.3741 202.074 22.2738C201.473 22.0732 201.673 21.2709 201.773 20.5688C201.873 19.9671 202.375 19.6662 202.475 19.1647C202.675 18.6633 202.976 18.1618 203.277 17.6603C203.678 16.7577 203.979 15.7548 204.38 14.8522C204.48 14.451 204.981 14.1501 204.981 13.6487C204.981 13.1472 204.58 12.7461 204.981 12.2446C205.081 12.1443 205.181 11.8434 205.081 11.7432C204.78 11.2417 205.081 10.8405 205.282 10.4394C205.683 9.33617 205.783 8.13267 205.883 6.92917L205.883 6.82888C205.081 5.62538 205.883 2.41605 204.279 2.81722C203.477 3.0178 204.58 4.52218 204.179 5.02364C203.878 5.42481 203.578 5.02362 203.477 4.72275C203.177 4.02071 202.876 3.31866 202.575 2.61662C202.575 2.51633 202.575 2.41606 202.475 2.41606C201.473 2.01489 201.072 0.811374 199.869 0.610791C199.468 0.610791 199.167 0.209625 198.766 0.109334C198.165 -0.0912494 196.561 0.0090484 195.759 0.209631C195.458 0.309923 195.157 0.309923 194.857 0.209632C193.754 0.00904865 192.651 0.10934 191.549 0.209632C190.747 0.309923 191.749 0.911679 191.849 1.31284L191.849 1.41314C191.649 1.51343 191.248 1.41314 191.248 1.41314C191.148 0.711102 189.243 1.31283 189.143 1.61371C189.143 1.61371 188.441 1.61371 188.14 1.714C185.534 2.11517 187.138 1.01196 184.632 1.71401C168.693 6.22712 140.926 16.0557 140.124 16.6574C138.721 17.6604 143.533 23.8784 152.153 22.1735C152.554 22.0732 152.855 21.7723 152.955 21.2709C153.056 20.97 154.259 20.6691 154.659 20.8697C154.76 20.8697 154.96 20.97 154.96 20.97C155.261 20.1677 155.963 20.4685 156.564 20.2679C157.466 19.8668 158.469 19.4656 159.371 19.0645C160.073 18.7636 160.674 18.3624 161.376 18.1618C161.877 17.9612 162.278 17.4598 162.879 17.5601C162.98 17.5601 162.98 17.4598 163.08 17.5601C164.082 17.861 164.684 17.2592 165.385 16.858C165.486 16.7577 165.686 16.858 165.786 16.858C166.187 16.5572 165.887 15.3537 166.488 15.454C166.989 15.5542 166.689 16.2563 167.089 16.0557C167.39 15.9554 167.691 15.9554 167.992 15.8551C168.794 15.5542 169.596 15.2534 170.397 14.8522C170.698 14.7519 170.798 14.2504 171.099 14.2504C171.6 14.1502 172.102 14.0499 172.603 13.8493C173.906 13.3478 175.209 12.7461 176.512 12.2446C177.214 11.9437 177.916 11.7432 178.517 11.5426C179.119 11.342 179.72 11.1414 179.219 10.5397C178.918 10.2388 177.615 11.342 177.815 10.5397C177.916 9.93793 178.617 9.53675 179.419 9.83763C179.519 9.83763 179.62 9.83762 179.72 9.73733C180.622 9.13558 181.625 8.73441 182.727 8.73441C183.73 8.73441 184.632 8.43354 185.634 8.23295C186.035 8.13266 187.238 7.93207 187.038 8.63411C186.937 8.8347 186.837 9.03528 186.536 9.13557C186.336 9.03528 186.035 9.13558 185.835 9.33617C184.532 9.43646 182.627 9.03528 182.827 10.1385C182.928 10.7402 183.83 10.1385 184.231 10.0382C184.532 10.0382 184.732 9.9379 185.033 10.1385C184.131 11.6429 182.727 12.044 181.625 13.3478C181.324 13.749 180.321 14.6516 180.121 14.0499C180.021 13.749 180.522 13.5484 180.422 13.3478C180.422 13.2475 180.221 13.2475 180.221 13.3478C178.718 14.2505 177.214 15.1531 175.911 16.2563C174.608 17.2592 172.803 17.4598 171.5 18.563C170.999 18.9642 170.498 19.1647 170.598 19.9671C170.598 20.0674 170.397 20.6691 170.097 20.5688C169.596 20.4685 170.397 19.1647 169.997 19.3653C168.794 19.9671 167.791 20.5688 167.19 20.8697C161.376 23.7781 149.647 29.4948 146.841 30.598C145.738 30.9991 143.934 31.7012 144.134 32.4032C144.234 32.9047 144.735 32.3029 145.237 32.6038C146.339 33.4061 145.437 34.7099 144.134 34.5093C143.733 34.5093 143.432 34.0079 143.332 33.8073C143.132 33.4061 143.432 33.1053 143.533 32.8044C143.533 32.5035 143.833 32.4032 143.533 32.2026C143.232 31.9018 142.731 32.1023 142.33 32.2026C134.812 35.2114 116.066 41.1286 114.563 41.5298C112.658 42.0312 111.455 42.3321 111.255 42.9338C111.054 43.4353 111.555 44.037 112.157 44.3379C112.959 44.6388 113.159 42.633 114.262 42.4324C114.362 42.4324 114.462 42.5327 114.462 42.633C114.563 42.9338 114.262 43.2347 114.262 43.5356C114.162 44.2376 114.663 44.5385 115.264 44.3379C116.367 43.9367 117.269 43.335 117.47 42.1315C117.57 41.2289 118.572 41.3292 119.074 41.0283C119.274 40.928 119.775 41.1286 119.976 41.4295C119.976 41.5298 119.976 41.63 119.976 41.7303C119.675 42.0312 118.372 41.4294 118.472 42.2318C118.472 42.9338 120.778 42.4324 121.479 41.7303C122.081 41.1286 121.479 40.8277 121.981 40.2259C122.783 39.223 124.386 40.5268 124.286 41.5298C124.186 42.633 122.582 42.4324 121.58 42.633C120.677 42.8336 118.572 42.7332 118.773 43.9367C118.973 44.7391 120.176 43.6359 120.477 43.9367C120.978 44.5385 120.076 45.0399 119.374 44.8394C118.973 44.7391 118.773 44.7391 118.472 45.04C117.77 45.6417 117.57 44.5385 116.968 44.4382C116.467 44.3379 115.966 44.6388 115.465 44.8394C114.162 45.2405 115.064 45.6417 114.262 46.7449C114.061 47.0458 113.56 46.8452 113.159 46.9455C112.859 47.0458 112.458 47.0458 112.257 47.2464C111.756 48.0487 111.956 49.0516 111.355 48.2493C111.054 47.8481 111.555 47.447 111.956 47.0458C112.257 46.8452 112.758 46.5443 112.458 46.1432C111.756 45.3408 112.257 46.8452 110.653 47.5472C110.553 47.6475 110.352 47.4469 110.252 47.3467C110.152 46.9455 109.952 46.5443 109.45 46.7449C108.949 46.8452 108.849 47.2464 108.949 47.7478C109.049 47.8481 108.949 48.2493 108.849 48.2493C108.147 48.4499 108.348 49.1519 108.047 49.6534C107.947 49.7537 107.746 50.2551 107.445 50.0545C106.944 49.7537 107.546 49.1519 107.546 48.851C107.546 48.4499 107.846 47.9484 107.445 47.6475C107.044 47.3467 106.343 48.0487 105.741 47.8481C105.441 47.6475 105.04 47.2464 105.14 46.7449C105.34 45.742 106.343 47.0458 107.445 46.9455C108.348 46.9455 108.648 45.6417 109.15 44.9397C109.35 44.7391 109.45 44.2376 109.35 44.037C109.15 43.7362 108.648 43.6359 108.348 43.4353C108.247 43.4353 108.147 43.4353 108.047 43.4353C106.744 44.037 104.438 45.1402 104.639 45.3408C104.939 45.6417 104.639 46.2434 104.639 46.7449C104.538 48.2493 104.338 47.7478 103.035 48.5502C102.333 48.9513 101.932 48.9513 101.331 50.1548C100.93 50.7566 103.436 50.0545 102.834 50.9572C102.433 51.6592 101.331 51.5589 100.629 51.7595C100.328 51.8598 100.128 51.9601 99.8271 51.9601C99.2256 51.9601 98.4237 51.5589 97.9225 51.9601C97.4213 52.3612 98.1229 53.3642 97.5215 53.665C96.7195 53.9659 95.7171 53.4644 95.6169 52.4615C95.5166 51.5589 96.4188 51.0574 96.0178 50.3554C95.7171 49.7536 96.3186 49.0516 95.5166 48.6505C95.3162 48.5502 95.3162 48.0487 95.2159 47.7478C94.9152 46.9455 94.6145 46.8452 93.9128 47.0458C93.7123 47.1461 93.6121 47.2464 93.4116 47.2464C93.2111 47.3466 92.7099 47.0458 92.6096 47.447C92.5094 47.9484 93.5118 47.7478 93.612 48.0487C94.1133 49.0516 94.5142 48.6504 94.7147 49.8539C94.7147 50.0545 94.3137 50.1548 94.2135 50.2551C94.1133 50.3554 93.7123 50.3554 93.7123 50.556C93.8125 51.0575 95.0154 50.4557 95.3162 50.9572C95.5167 51.4586 94.9152 51.7595 94.7147 51.8598C94.013 52.1606 93.2111 52.0604 92.6096 51.6592C91.8077 51.1577 92.5094 50.6563 92.6096 49.4528C92.6096 48.6505 92.5094 47.7478 91.8077 47.3467C91.507 47.1461 90.8053 46.9455 90.5045 47.447C90.0033 48.2493 91.9079 48.9513 91.6072 49.9542C91.4067 50.556 90.5046 50.6563 89.9031 50.9572C89.3017 51.258 89.9031 50.9571 89.6024 51.7595C89.2014 52.5618 87.798 52.0604 87.2968 52.6621C87.1966 52.7624 87.2968 52.8627 87.2968 52.963C87.798 53.4644 88.9007 52.5618 89.5021 52.963C89.6024 53.0633 89.6024 53.1636 89.6024 53.1636C89.4019 53.5647 88.9007 53.665 88.4997 53.7653C87.5975 53.9659 87.2968 54.5676 87.1966 55.37C87.0963 56.4732 86.8958 56.3729 85.7932 55.9717C84.6905 55.5706 83.9888 55.9717 82.1845 55.6709C81.7835 55.5706 81.6833 54.9688 81.7835 54.7682C82.0842 53.7653 81.6833 53.2639 80.7811 52.963C80.6808 52.963 80.2799 52.6621 80.4803 52.3612C80.6808 51.8598 81.4828 52.2609 81.7835 51.9601C82.5854 51.258 81.7835 49.9542 81.0818 49.5531C80.0794 48.851 79.8789 49.7537 79.9791 50.9572C79.9791 51.258 79.8789 51.5589 79.7787 51.8598C79.6784 52.2609 79.4779 52.5618 79.4779 52.963C79.3777 53.665 79.1772 54.4674 80.4803 54.3671C80.7811 54.3671 81.2823 54.7682 81.2823 55.0691C81.3825 56.1723 80.0794 54.8685 79.5782 55.0691C78.9767 55.2697 78.7762 54.5677 78.1748 54.5677C77.1724 54.5677 77.2726 56.3729 78.0745 56.8743C78.275 57.0749 78.676 57.0749 78.9767 57.0749C79.5782 57.1752 80.2799 56.7741 80.6808 57.3758C81.182 58.1781 81.4828 59.0808 81.7835 59.9834C81.8837 60.2843 81.182 60.5851 81.182 60.9863C81.182 61.0866 81.6833 60.9863 81.7835 61.3875C81.8837 61.9892 80.5806 62.2901 80.6808 62.7915C80.6808 63.0924 81.2823 63.1927 81.6832 63.3933C82.0842 63.5939 82.4852 64.1956 82.8862 63.9951C83.8886 63.6942 83.1869 61.4878 84.1893 61.3875C85.3922 61.3875 85.3922 62.2901 86.4949 63.3933C86.7956 63.6942 86.7956 64.5968 86.1941 64.7974C85.6929 64.8977 85.8934 63.5939 85.292 63.6942C84.7908 63.7945 85.0915 64.3962 85.0915 64.5968C84.891 65.0983 85.3922 64.998 85.5927 65.1986C85.6929 65.2989 85.4924 65.7 85.5927 66.0009C85.6929 66.2015 86.1942 66.2015 86.2944 66.5023C86.2944 67.3047 85.3922 66.8032 84.3898 67.5053C83.5879 68.107 83.5878 66.7029 83.5878 66.1012C83.5878 65.5997 83.4876 64.7974 82.8862 64.3962C82.6857 64.2959 82.2847 64.3962 81.7835 64.3962C81.3825 64.3962 80.8813 64.1956 80.5806 64.4965C80.2799 64.7974 79.9791 65.2989 80.3801 65.7C80.6808 66.0009 80.9816 65.2988 81.2823 65.4994C81.6833 65.8003 81.984 66.6026 81.6832 67.1041C80.6808 68.5082 79.3777 67.9064 79.1772 69.0096ZM84.7908 60.184C83.6881 60.3846 83.6881 56.8744 84.3898 57.0749C85.292 57.3758 85.9937 59.9834 84.7908 60.184ZM175.811 12.0441C175.71 12.2446 175.41 12.3449 175.209 12.3449C174.908 12.2446 174.507 11.8435 174.708 11.4423C174.908 11.0411 175.51 11.1414 175.811 11.342C175.911 11.5426 175.911 11.9438 175.811 12.0441ZM182.928 7.53093C181.725 7.63122 180.622 8.63414 180.422 8.03239C180.221 7.43064 180.722 7.53092 181.524 7.33034C182.026 7.23004 182.427 7.53093 182.928 7.53093ZM183.228 7.53093C183.629 7.43064 184.231 6.62828 184.431 7.12974C184.732 7.73149 183.93 7.53093 183.228 7.53093ZM201.172 6.32742C201.172 6.32742 201.272 6.22713 201.272 6.32742C201.372 6.42771 201.473 6.528 201.473 6.72858C201.473 6.82887 201.372 6.82888 201.272 6.82888C201.172 6.72859 201.072 6.42771 201.172 6.32742ZM201.372 4.22129C202.675 4.121 202.174 5.62538 201.773 5.82596C201.473 5.92625 201.172 5.72568 201.072 5.4248C200.871 5.12393 200.971 4.22129 201.372 4.22129ZM198.265 2.31576C197.764 2.61663 197.663 1.41315 198.064 1.51344C198.365 1.61373 198.666 2.11518 198.265 2.31576ZM200.57 2.71692C200.37 3.21838 198.966 3.2184 198.966 2.0149C198.966 1.11227 201.072 1.51342 200.57 2.71692ZM199.468 3.61954C199.768 3.51924 199.869 3.61955 200.069 3.92043C200.069 4.3216 198.766 3.92041 199.468 3.61954ZM200.37 5.22421C199.969 5.52508 199.668 4.12102 200.27 4.52218C200.37 4.82306 200.671 5.12392 200.37 5.22421ZM199.167 5.72566C199.367 5.62537 199.468 6.22712 199.668 6.12682C199.869 6.12682 199.668 5.52508 199.869 5.62537C200.069 5.62537 199.969 5.92627 199.969 6.02656C199.969 6.42772 199.768 6.82887 200.169 7.23004C200.57 7.6312 200.27 8.53385 199.668 8.53385C198.666 8.33326 198.265 6.12683 199.167 5.72566ZM197.262 3.71983C197.964 2.81721 199.568 5.62537 198.565 6.12682C197.563 6.52799 196.661 4.52217 197.262 3.71983ZM196.561 5.02364C196.561 5.02364 196.661 5.02364 196.761 5.02364C196.761 5.12393 196.861 5.22421 196.861 5.22421C196.861 5.3245 196.661 5.3245 196.561 5.22421C196.46 5.22421 196.46 5.12393 196.561 5.02364ZM192.551 1.8143C192.551 0.510513 196.46 1.21254 196.16 2.11516C195.759 3.21837 192.551 3.11809 192.551 1.8143ZM190.947 36.816C191.047 36.7157 191.148 36.816 191.148 36.816C191.148 36.816 191.148 36.9163 191.148 37.0166L191.047 37.1169C190.847 37.0166 190.847 36.816 190.947 36.816ZM168.894 62.9921C168.894 63.1927 168.693 63.3933 168.493 63.3933C168.393 63.3933 168.393 63.293 168.393 63.293C168.393 63.0924 168.593 62.8918 168.794 62.7915C168.794 62.8918 168.894 62.9921 168.894 62.9921ZM169.896 62.591C169.596 62.4907 169.094 62.6912 168.994 62.2901C168.894 61.6883 169.997 60.3846 170.397 61.1869C170.698 61.6884 169.796 62.2901 169.896 62.591ZM163.381 61.7886C163.481 62.0895 162.98 62.0895 162.879 62.1898C162.779 62.2901 162.779 62.8918 162.478 62.6913C161.476 62.2901 163.28 61.0866 163.381 61.7886ZM166.689 59.7828C166.689 59.8831 166.689 60.0837 166.588 60.0837L166.488 59.9834C166.488 59.8831 166.488 59.6825 166.588 59.6825C166.588 59.7828 166.689 59.7828 166.689 59.7828ZM167.19 55.2697C167.089 55.2697 166.989 55.2697 166.989 55.1694C166.989 55.1694 166.889 55.0691 166.989 54.9688C166.989 54.8685 167.19 54.8685 167.29 54.9688C167.29 55.0691 167.29 55.1694 167.19 55.2697ZM171.199 57.9776C171.099 57.9776 171.099 57.9775 170.999 57.8773C170.899 57.777 170.899 57.5764 170.999 57.5764C171.099 57.4761 171.3 57.0749 171.5 57.3758C171.701 57.5764 171.3 57.8773 171.199 57.9776ZM174.708 56.5735C174.708 56.2726 175.009 55.7711 175.41 55.9717C175.911 56.1723 175.209 56.8743 174.908 56.774C174.808 56.774 174.708 56.6738 174.708 56.5735ZM172.904 55.6709C172.803 55.7712 172.603 55.7712 172.503 55.6709C172.503 55.6709 172.402 55.5706 172.503 55.4703C172.603 55.37 172.703 55.37 172.803 55.37C172.803 55.4703 172.904 55.6709 172.904 55.6709ZM173.004 54.3671C172.904 54.5676 173.505 54.8685 173.304 55.0691C172.904 55.4703 172.703 54.8685 173.004 54.3671ZM173.204 49.1519C173.104 49.1519 173.004 49.1519 173.004 49.0516C172.904 48.851 173.104 48.6504 173.304 48.5502C173.405 48.5502 173.505 48.5502 173.505 48.6505C173.405 48.851 173.304 49.1519 173.204 49.1519ZM173.004 54.3671C173.104 54.1665 173.304 53.9659 173.505 54.0662C174.006 54.2668 173.405 53.9659 173.004 54.3671ZM174.207 53.0633C173.705 52.4615 175.009 51.0574 175.51 51.3583C176.713 52.0603 174.808 53.8656 174.207 53.0633ZM176.312 50.6563C175.811 50.556 176.612 49.3525 176.913 49.9542C177.114 50.1548 176.713 50.6563 176.312 50.6563ZM179.92 51.3583C179.82 51.5589 179.62 51.4586 179.419 51.5589C179.319 51.5589 179.219 51.4586 179.219 51.5589C179.119 51.7595 179.62 52.0603 179.419 52.2609C179.219 52.4615 179.018 51.9601 178.918 52.0604C178.718 52.1607 179.018 52.6621 178.818 52.7624C178.517 52.963 178.116 52.6621 178.016 52.4615C177.916 51.9601 178.417 51.4586 178.918 51.1577C179.018 51.0575 179.319 51.0575 179.62 51.1577C179.72 50.9572 179.92 51.1577 179.92 51.3583ZM180.321 44.7391C180.221 44.8394 180.021 44.9397 179.92 44.8394C179.82 44.7391 179.82 44.6388 179.82 44.5385C179.92 44.4382 180.121 44.3379 180.221 44.4382C180.321 44.5385 180.422 44.6388 180.321 44.7391ZM181.023 49.6534C181.123 50.0545 180.722 50.6563 180.321 50.6563C180.221 50.6563 180.221 50.6563 180.221 50.556C180.121 50.1548 180.522 49.5531 180.923 49.5531C180.923 49.5531 180.923 49.6534 181.023 49.6534ZM179.72 31.5006C179.82 31.8015 179.419 32.0021 179.119 32.0021C179.119 32.0021 179.018 32.002 179.018 31.9018C179.018 31.7012 179.219 31.5006 179.319 31.4003C179.419 31.4003 179.62 31.3 179.72 31.5006ZM182.326 47.2463C182.928 47.2463 182.226 48.2493 182.026 48.0487C181.925 47.9484 181.925 47.2463 182.326 47.2463ZM182.827 29.4948C182.827 29.7956 182.226 30.4977 182.126 29.8959C182.126 29.5951 182.427 29.2942 182.727 29.3945L182.827 29.4948ZM176.813 20.1676C177.114 21.2708 175.209 23.1764 174.106 21.5717C173.104 19.8668 176.512 19.265 176.813 20.1676ZM174.708 18.7636C174.407 18.1618 178.417 14.9525 178.718 15.9554C179.018 17.0586 175.51 20.1676 174.708 18.7636ZM178.818 23.7781C179.72 23.2767 180.923 22.9758 181.725 22.2738C182.326 21.672 183.028 20.4685 183.429 21.0703C183.83 21.672 182.427 22.3741 181.625 22.7752C180.021 23.4773 177.815 25.5834 177.414 24.9816C177.214 24.3799 178.317 24.079 178.818 23.7781ZM187.539 11.2417C185.935 13.8493 183.429 14.451 181.023 16.2563C180.823 16.4569 180.121 16.9583 180.021 16.6574C179.319 14.9525 187.639 13.0469 186.837 9.73733C187.138 9.63704 187.739 9.83764 187.94 10.0382C188.14 10.5397 187.739 10.9408 187.539 11.2417ZM185.334 17.8609C184.532 18.0615 184.131 18.6633 184.03 19.4656C184.03 19.5659 184.03 19.7665 183.93 19.8668C183.529 20.0674 183.028 19.7665 182.827 19.8668C182.326 20.1677 182.427 20.8697 182.126 20.8697C181.524 20.97 181.123 21.3711 180.622 21.672C180.321 21.8726 179.62 22.3741 179.419 21.8726C177.615 18.2621 184.331 14.6516 188.04 14.0499C188.14 14.0499 188.241 14.0499 188.241 14.1501C188.341 14.3507 188.14 14.8522 188.04 14.8522C187.138 14.8522 187.238 15.5542 187.038 16.156C186.737 16.9583 186.236 17.6604 185.334 17.8609ZM185.033 46.8452C185.233 46.5443 185.334 46.1431 185.434 45.8423C185.534 45.6417 185.133 45.3408 185.334 45.2405C185.434 45.1402 185.634 45.3408 185.735 45.4411C186.236 45.6417 186.236 45.742 185.935 46.1432C185.735 46.3437 185.334 46.5443 185.033 46.8452ZM177.214 26.7869C177.214 26.6866 177.013 26.486 177.013 26.3857C177.214 26.0848 177.515 25.8843 177.815 25.6837C179.62 24.5805 181.424 23.5776 183.228 22.4744C183.529 22.2738 183.73 22.0732 184.03 21.8726C184.632 21.4714 185.233 20.268 185.735 20.5688C185.434 21.3712 185.033 22.0732 184.632 22.7752C183.429 23.4773 181.825 24.079 180.923 24.5805C180.221 24.9817 179.62 25.5834 178.818 25.784C178.116 25.9846 177.715 26.1851 177.815 26.7869C177.916 27.3886 177.916 27.6895 177.414 27.4889C177.013 27.3886 177.214 26.9875 177.214 26.7869ZM175.009 27.9904C174.708 27.3886 176.111 26.8872 176.312 27.3886C176.512 27.7898 175.41 28.6924 175.009 27.9904ZM173.605 32.2026C174.307 31.6009 175.911 29.6954 176.312 30.598C176.713 31.7012 174.908 31.9018 174.006 32.5035C173.304 33.005 172.202 33.9076 171.701 33.3058C170.999 32.5035 173.004 32.7041 173.605 32.2026ZM172.904 30.0965C172.503 29.7956 172.803 28.893 173.304 28.7927C173.605 28.6924 174.006 29.1939 174.006 29.5951C173.906 29.9962 173.204 30.3974 172.904 30.0965ZM173.405 25.784C174.207 25.2825 175.009 24.7811 175.811 24.3799C176.612 24.079 177.916 22.2738 178.116 23.377C178.317 24.3799 175.71 24.079 175.51 25.1822C175.41 25.3828 175.71 25.4831 175.71 25.5834C175.811 25.6837 175.911 25.784 175.911 25.8843C175.71 27.3886 171.901 29.1939 171.6 28.4919C171.199 27.6895 173.806 27.188 173.505 26.6866C173.104 26.1851 171.801 28.0907 171.199 27.3886C170.498 26.5863 172.703 26.2854 173.405 25.784ZM171.701 23.0761C172.402 24.079 170.798 25.0819 170.197 23.8784C169.896 23.1764 171.3 22.5747 171.701 23.0761ZM168.894 28.9933C169.195 29.9962 167.39 31.3 166.388 30.7985C165.085 30.1968 168.292 27.1881 168.894 28.9933ZM166.388 26.5863C167.29 25.784 167.791 24.2796 168.092 25.6837C168.192 26.486 167.089 26.8872 166.588 27.188C165.987 27.4889 165.185 28.0907 164.684 27.6895C163.882 26.7869 165.486 27.2884 166.388 26.5863ZM166.989 22.7752C167.691 24.1793 164.383 25.0819 164.182 23.9787C163.982 22.9758 166.488 21.7723 166.989 22.7752ZM160.574 29.5951C160.674 29.2942 161.075 29.0936 161.275 29.1939C161.376 29.1939 161.376 29.2942 161.376 29.3945C161.376 29.6953 160.975 29.8959 160.774 29.8959C160.674 29.8959 160.474 29.6954 160.574 29.5951ZM156.464 29.6953C156.163 29.8959 155.562 30.2971 155.261 29.8959C154.76 29.1939 155.862 28.4919 156.464 27.9904C156.865 27.6895 157.466 27.1881 158.068 27.2883C159.07 27.4889 158.569 27.7898 159.17 27.188C159.872 26.486 160.975 26.9875 161.275 26.3857C161.376 25.9846 160.774 25.8843 160.874 25.5834C161.075 25.1822 161.676 24.9817 162.077 25.0819C162.478 25.1822 162.579 25.6837 162.579 25.8843C162.579 26.0849 162.478 26.1851 162.378 26.1851C160.373 27.3886 158.469 28.5921 156.464 29.6953ZM155.361 44.8394C157.065 44.6388 155.762 47.5472 155.06 46.9455C154.559 46.444 154.659 44.9397 155.361 44.8394ZM151.953 43.6359C152.354 43.6359 152.354 44.1373 152.354 44.2376C152.354 44.4382 152.153 44.6388 151.953 44.6388C151.752 44.6388 151.452 44.5385 151.452 44.3379C151.452 44.1373 151.552 43.6359 151.953 43.6359ZM147.542 31.7012C147.643 31.6009 147.743 31.6009 147.843 31.7012C149.447 32.5035 150.75 31.6009 152.053 30.9991C152.254 30.8989 152.354 30.598 152.354 30.3974C152.454 29.5951 152.855 29.3945 153.557 29.6953C153.958 29.7956 154.459 29.6954 154.76 29.9962C154.86 30.0965 154.86 30.2971 154.76 30.3974C153.557 32.5035 150.449 32.3029 148.244 33.3058C148.043 33.4061 147.843 33.5064 147.542 33.5064C147.442 33.5064 147.242 33.5064 147.141 33.4061C146.841 32.8044 147.041 32.002 147.542 31.7012ZM145.136 48.3496C145.237 48.0487 145.537 47.1461 146.139 47.4469C146.841 47.8481 146.139 48.7507 145.838 48.9513C145.337 49.3525 144.936 48.7507 145.136 48.3496ZM144.335 35.3117L144.535 35.3117C144.535 35.5123 144.735 35.8131 144.535 35.9134C144.435 36.0137 144.234 36.0137 144.134 35.9134C144.134 35.8131 144.335 35.5123 144.335 35.3117ZM142.43 49.3525C142.43 49.3525 142.53 49.2522 142.53 49.3525C142.831 49.4528 142.931 49.9542 142.831 50.2551C142.831 50.3554 142.63 50.3554 142.53 50.3554C142.33 50.0545 142.33 49.6534 142.43 49.3525ZM140.024 37.7187C139.924 37.5181 139.824 37.3175 139.824 37.1169C139.824 36.9163 140.024 36.7158 139.924 36.6155C139.824 36.4149 139.423 36.7158 139.322 36.5152C138.52 35.9134 140.124 35.7128 140.225 35.3117C140.325 34.9105 140.024 34.5093 140.225 34.3088C140.325 34.2085 140.425 34.2085 140.525 34.2085C141.027 34.5093 141.227 35.3117 141.027 35.9134C140.826 36.3146 140.325 36.2143 140.325 36.6155C140.325 36.8161 140.425 36.8161 140.525 37.0166C140.626 37.1169 140.626 37.4178 140.525 37.6184C140.425 37.7187 140.024 37.8189 140.024 37.7187ZM139.122 51.258C139.322 51.0574 139.623 51.0574 139.824 51.258C139.824 51.258 139.924 51.4586 139.824 51.4586C139.623 51.6592 139.322 51.6592 139.122 51.5589C139.022 51.4586 139.022 51.258 139.122 51.258ZM135.914 52.8627C135.914 52.6621 136.215 52.5618 136.315 52.4615L136.516 52.5618C136.516 52.7624 136.315 53.0633 136.115 53.0633C136.014 52.963 135.914 52.963 135.914 52.8627ZM136.115 35.5123C136.616 35.6126 137.017 36.4149 136.917 37.0166C136.816 37.4178 136.215 37.4178 136.315 37.9193C136.415 38.4207 137.017 38.7216 136.616 39.1228C135.914 39.7245 136.315 38.3204 136.014 38.0196C135.814 37.819 135.513 38.2201 135.313 38.1198C133.809 37.0166 134.812 35.2114 136.115 35.5123ZM124.587 53.665C125.289 53.4645 125.589 54.2668 125.489 54.7682C125.389 54.9688 125.088 55.37 124.687 55.1694C124.086 54.7682 123.885 53.8656 124.587 53.665ZM129.699 42.2318C129.699 42.1315 129.799 41.9309 129.9 41.9309C130.1 41.9309 130.2 42.2318 130.301 42.4324L130.2 42.633C130.1 42.633 129.799 42.4324 129.699 42.2318ZM126.391 39.1228C126.993 39.1228 127.093 40.5268 127.795 40.4265C128.797 40.226 128.797 39.3233 129.599 39.223C130 39.223 130.401 39.0225 130.802 38.8219C131.403 38.3204 132.606 37.7187 132.907 38.4207C133.107 38.8219 132.305 39.1228 132.005 39.1228C130.702 39.1228 129.499 39.5239 128.897 40.5268C128.597 41.0283 129.198 42.0312 128.396 42.0312C127.694 42.0312 127.694 41.63 126.592 41.2289C125.99 40.928 125.289 39.1228 126.391 39.1228ZM125.188 52.963C124.587 52.5618 124.787 51.0574 125.389 50.9572C126.892 50.556 126.09 53.665 125.188 52.963ZM126.09 55.6709C126.792 56.5735 124.487 58.479 123.885 56.9746C123.584 56.072 125.489 54.8685 126.09 55.6709ZM123.083 43.2347C123.284 43.6359 122.883 44.2376 122.582 44.2376C121.68 44.3379 122.582 42.3321 123.083 43.2347ZM119.775 55.1694C119.875 55.5706 119.475 56.2726 118.973 56.072C118.171 55.8714 119.474 54.4674 119.775 55.1694ZM120.577 52.4615C120.477 52.5618 120.377 52.4615 120.276 52.4615C119.875 52.1606 119.474 51.5589 119.675 51.0574C119.775 50.6563 120.477 49.9542 120.978 50.3554C121.78 50.8569 121.078 52.0604 120.577 52.4615ZM119.675 60.9863C119.675 61.4878 118.572 61.7886 118.272 61.2872C117.871 60.6854 119.775 60.0837 119.675 60.9863ZM118.071 58.7799C117.971 58.0778 118.572 58.1781 119.074 57.9776C118.873 58.5793 119.775 58.6796 120.176 58.3787C120.577 58.1781 120.377 57.6767 120.878 57.8773C121.68 58.1781 120.677 58.479 120.377 58.7799C119.875 59.3816 119.575 59.0808 119.174 59.1811C118.773 59.1811 118.171 59.4819 118.071 58.7799ZM116.367 56.3729C116.968 56.6738 117.069 58.5793 116.066 58.3787C114.863 58.1781 115.365 55.8714 116.367 56.3729ZM112.859 58.0779C113.56 57.5764 113.961 59.3816 113.159 59.2813C112.658 59.2813 112.558 58.2784 112.859 58.0779ZM110.653 62.591C110.152 62.6913 109.751 62.0895 109.651 61.6884C109.551 61.1869 110.352 60.7857 110.252 60.2843C110.152 59.4819 109.951 59.2814 109.551 58.0779C109.45 57.6767 109.952 57.2755 110.152 57.1752C110.753 57.0749 111.656 57.4761 111.656 58.0779C111.656 58.5793 110.753 58.479 110.553 58.6796C110.152 59.1811 110.352 59.8831 110.753 60.2843C111.255 60.886 111.355 60.6854 111.355 61.1869C111.455 61.7886 111.154 62.4907 110.653 62.591ZM110.753 64.1956C110.653 64.6971 109.751 64.8977 109.551 64.5968C109.25 64.2959 110.854 63.293 110.753 64.1956ZM105.942 50.1548C105.24 50.6563 105.04 49.9542 104.839 49.4528C104.839 49.3525 104.538 49.4528 104.438 49.3525C104.137 49.3525 103.837 49.3525 103.636 49.1519C103.536 49.0516 103.536 48.851 103.636 48.851C104.338 48.149 105.942 47.8481 106.543 48.6505C106.944 49.2522 106.343 49.9543 105.942 50.1548ZM108.047 52.8627C108.047 52.8627 108.047 53.0633 107.947 53.0633C107.746 53.1636 107.445 52.963 107.345 52.7624C107.345 52.6621 107.345 52.5618 107.445 52.5618C107.646 52.4615 107.846 52.7624 108.047 52.8627ZM108.849 56.1723C108.749 56.3729 108.348 56.5735 108.147 56.4732C108.047 56.3729 108.047 56.1723 108.047 56.072C108.247 55.9717 108.448 55.6708 108.749 55.7711C108.849 55.7711 108.849 56.072 108.849 56.1723ZM108.749 57.1752C108.849 57.1752 109.15 57.0749 109.25 57.2755C109.25 57.2755 109.35 57.3758 109.25 57.4761C109.049 57.777 108.348 57.3758 108.047 57.8773C107.746 58.479 109.15 59.1811 108.749 59.8831C108.648 60.184 108.147 60.3846 107.846 60.184C106.042 59.1811 107.646 57.4761 108.749 57.1752ZM103.737 61.2872C103.636 60.0837 103.436 58.479 104.639 57.8773C105.942 57.1752 106.042 59.6825 105.842 60.5851C105.641 61.1869 104.137 61.0866 104.739 61.6884C105.24 62.1898 106.543 61.5881 106.844 62.1898C107.044 62.6913 106.443 63.1927 106.243 63.293C105.741 63.4936 105.24 63.0924 104.839 62.9921C104.438 62.7916 104.037 62.591 103.636 62.2901C103.235 61.8889 103.737 61.4877 103.737 61.2872ZM103.737 50.3554C104.538 50.3554 104.538 51.7595 104.939 52.5618C105.24 53.1636 105.24 53.1636 105.541 53.9659C105.842 54.5676 107.044 53.9659 106.944 54.7682C106.844 56.2726 105.741 55.4703 105.04 54.2668C104.037 52.4615 102.734 50.2551 103.737 50.3554ZM102.133 61.2872C101.732 61.3875 101.331 60.6854 101.531 60.2843C101.631 59.8831 102.233 59.5822 102.634 59.8831C103.035 60.3845 102.634 61.2872 102.133 61.2872ZM99.7268 61.6884C99.2256 60.886 99.4261 59.0808 100.328 59.4819C101.03 59.7828 100.429 60.7857 100.328 61.3875C100.228 61.9892 100.429 62.4907 100.93 62.7915C101.331 62.9921 101.932 63.0924 102.032 63.4936C102.032 63.5939 102.032 63.5939 101.932 63.6942C101.732 63.7945 101.431 63.5939 101.23 63.4936C100.93 63.3933 100.529 63.0924 100.228 63.0924C99.2256 62.9921 99.2256 63.0924 99.5263 62.1898C99.7268 61.9892 99.8271 61.7886 99.7268 61.6884ZM87.6978 60.6854C87.6978 60.6854 87.8983 61.1869 87.798 61.3875C87.6978 61.6883 87.5975 62.0895 87.1966 62.0895C86.6953 62.0895 85.8934 61.5881 86.1941 60.886C86.3946 60.2843 87.2968 60.7857 87.6978 60.6854ZM93.0106 53.9659C92.6096 54.6679 91.106 54.2668 91.0057 53.5647C90.9055 52.6621 93.4116 53.1636 93.0106 53.9659ZM97.5215 59.9834C97.2208 60.5851 96.4188 60.184 96.2183 59.5822C96.0179 58.9805 95.9176 58.2784 96.0179 57.6767C96.1181 56.5735 96.5191 55.5706 96.7196 54.4674C96.7196 54.3671 97.0203 54.1665 97.2208 54.3671C97.5215 54.5676 97.321 54.9688 97.321 55.1694C97.321 56.1723 97.2208 56.8744 97.1205 58.0779C97.1205 59.1811 97.9225 59.3816 97.5215 59.9834ZM97.321 64.3962C97.5215 63.4936 99.0251 63.7945 99.1254 64.4965C99.2256 64.998 98.6241 65.3991 98.0227 65.1986C97.8222 65.1986 97.2208 64.8977 97.321 64.3962ZM92.8101 59.8831C92.8101 59.6825 92.9103 58.7799 93.5118 58.8802C94.5142 59.0808 94.3137 60.3846 95.1157 60.6854C95.3162 60.7857 95.6169 60.9863 95.8174 60.9863C96.1181 61.0866 96.2183 60.886 96.6193 60.9863C97.0203 61.1869 97.2208 61.6884 97.2208 62.0895C97.1205 62.7916 97.0203 62.7916 96.9201 63.9951C96.9201 64.3962 96.1181 64.1956 96.1181 64.4965C96.0179 64.7974 96.5191 64.998 96.4188 65.1986C96.2184 65.5997 95.7171 65.1985 95.6169 64.998C95.3162 64.2959 95.2159 63.5939 95.5166 62.8918C95.7171 62.3904 96.3186 61.6883 95.7171 61.3875C95.4164 61.1869 95.0154 60.9863 94.7147 61.2872C93.6121 62.2901 95.2159 64.7974 93.9128 65.2988C92.6096 65.8003 93.2111 63.3933 93.0106 62.3904C92.7099 61.6883 92.5094 60.886 92.8101 59.8831ZM92.0082 68.4079C91.9079 68.809 91.106 68.9093 90.9055 68.6085C90.6048 67.9064 92.1084 67.8061 92.0082 68.4079ZM89.6024 65.3991C89.6024 65.2988 89.9031 64.7974 90.3041 64.998C91.0058 65.3991 91.106 66.9035 90.3041 67.3047C89.3016 67.8061 89.6024 65.9006 89.6024 65.3991ZM88.7002 55.2697C89.5021 54.2668 91.7075 54.6679 92.4092 55.7711C92.8101 56.3729 92.8101 58.479 91.6072 58.1782C90.8053 57.9776 91.507 56.4732 90.9055 56.1723C90.4043 55.8715 89.8029 56.8744 89.2014 56.5735C88.8004 56.3729 88.3995 55.5706 88.7002 55.2697ZM86.6953 59.2813C87.0963 58.7799 89.2014 58.479 88.5999 59.5822C88.199 60.2843 85.9937 60.0837 86.6953 59.2813ZM87.3971 67.7059C87.2968 67.7059 87.0963 67.6055 87.0963 67.5053C87.0963 66.7029 86.2944 65.4994 87.0963 64.998C88.0987 64.4965 89.1012 67.1041 87.3971 67.7059ZM87.4973 69.3105C87.4973 70.1128 83.8886 70.2131 83.6881 69.7117C82.9864 68.4079 87.4973 67.9064 87.4973 69.3105ZM68.752 67.7059C69.4537 68.2073 68.5515 68.7087 68.0503 68.809C67.9501 68.809 67.5491 68.3076 67.5491 68.2073C67.6494 67.3047 68.3511 67.405 68.752 67.7059ZM69.3535 69.1099C69.2533 67.8061 69.4537 66.2015 70.6566 66.0009C71.659 65.8003 71.1578 67.6055 71.1578 68.3076C71.0576 69.4108 69.3535 70.514 69.3535 69.1099ZM70.5564 71.8178C71.3583 72.6201 69.9549 73.3222 69.153 72.7204C68.752 72.4196 67.8498 72.2189 68.0503 71.8178C68.2508 71.0154 69.9549 71.216 70.5564 71.8178ZM70.0552 70.7146C69.9549 70.6143 69.9549 70.3134 70.0552 70.3134C70.2557 70.2131 70.5564 70.0125 70.7569 70.1128C70.8571 70.2131 70.9574 70.4137 70.8571 70.514C70.6566 70.7146 70.2557 70.8149 70.0552 70.7146ZM170.397 34.7099C170.899 35.2114 169.796 35.6125 169.295 35.8131C166.689 36.816 169.696 34.0079 170.397 34.7099ZM69.0528 66.8032C69.153 66.9035 69.0527 67.1041 68.9525 67.1041C68.351 67.3047 66.4465 67.3047 67.3487 66.402C67.7496 66.0009 68.752 66.3017 69.0528 66.8032ZM50.6082 60.2843C50.9089 61.1869 52.3123 60.5851 53.1143 60.7857C53.9162 60.9863 54.6179 62.1898 55.4198 61.7886C57.8256 60.7857 58.3268 55.8714 55.921 54.5677C55.2193 54.1665 54.3172 54.8685 54.1167 55.7711C54.0165 56.1723 55.0189 55.7712 55.1191 56.1723C55.1191 56.1723 55.1191 56.2726 55.1191 56.3729C54.5177 56.8743 53.1143 55.8714 52.5128 56.5735C51.9114 57.3758 53.5152 58.6796 53.014 59.5822C52.6131 60.184 50.107 59.0808 50.6082 60.2843ZM53.415 57.777C53.5152 57.2755 54.2169 57.777 54.2169 57.777C54.3172 58.3787 56.0213 59.5822 54.8184 59.7828C53.816 59.8831 53.3147 58.2784 53.415 57.777ZM56.5225 66.7029C56.4222 66.9035 56.1215 67.0038 55.921 66.9035C55.8208 66.9035 55.7206 66.7029 55.8208 66.6026C55.9211 66.4021 56.2218 66.5023 56.4222 66.5023C56.4222 66.5023 56.5225 66.6026 56.5225 66.7029ZM56.9235 64.998C56.8232 65.0983 56.723 65.0983 56.6227 64.998C56.0213 64.6971 56.0213 63.4936 56.8232 63.7945C57.2242 63.8948 57.1239 64.6971 56.9235 64.998ZM60.4319 70.514C60.6324 70.1128 59.63 70.0126 59.7303 69.7117C59.8305 69.3105 60.4319 69.5111 60.5322 69.2102C60.8329 68.107 58.2266 69.1099 58.0261 68.107C57.9259 67.5053 58.8281 67.5052 58.9283 67.3047C59.1288 66.9035 58.9283 66.5023 59.1288 66.3017C59.229 66.2015 59.3293 66.2015 59.4295 66.2015C60.4319 66.8032 60.6324 67.0038 61.5346 67.8061C62.2363 68.4079 60.7327 69.6114 61.2339 70.3134C61.3341 70.514 61.6349 70.4137 61.8353 70.514C61.9356 70.6143 62.3366 70.6143 62.3366 70.8149C62.2363 72.1187 55.5201 72.0184 55.921 70.514C56.0213 68.9093 59.7302 72.0184 60.4319 70.514ZM66.0455 66.7029C66.1457 66.8032 66.0455 66.9035 65.9452 67.0038C65.6445 67.3047 64.9428 67.2044 64.7424 66.9035C64.7424 66.8032 64.7424 66.7029 64.7424 66.7029C65.0431 66.4021 65.7448 66.4021 66.0455 66.7029ZM64.8426 65.5997C64.8426 65.0983 65.7448 65.3991 65.9452 64.998C66.3462 64.2959 64.6421 62.7915 65.6445 62.2901C66.9477 61.4878 66.6469 64.0953 66.6469 64.8977C66.6469 65.9006 64.9428 66.9035 64.8426 65.5997ZM62.4368 64.2959C63.2387 64.998 65.2436 64.3962 64.9428 62.8918C64.8426 62.591 64.1409 62.2901 64.2411 61.8889C64.3414 61.4878 65.0431 61.6883 65.0431 61.3875C65.0431 61.1869 64.7423 61.1869 64.6421 60.9863C64.6421 60.886 64.6421 60.7857 64.6421 60.6854C65.3438 60.0837 65.6445 59.3816 65.2436 58.479C65.0431 57.9776 65.7448 57.2755 65.3438 56.7741C64.7424 56.072 61.8353 56.3729 62.7375 55.2697C63.339 54.5676 64.8426 56.6738 65.1433 55.9717C65.845 54.4674 63.1385 55.37 63.5394 54.3671C63.9404 53.2639 66.246 54.8685 66.7472 53.9659C67.2484 53.1636 66.4464 52.1606 65.444 51.8598C65.3438 51.8598 65.2436 51.7595 65.2436 51.7595C64.5419 51.0574 64.8426 51.6592 63.8402 51.8598C63.0382 51.9601 62.4368 50.1548 61.6348 50.556C60.031 51.4586 61.8353 52.6621 63.4392 52.6621C63.9404 52.6621 65.1433 52.4615 65.2436 53.2638C65.4441 54.5676 62.6373 52.963 62.1361 53.8656C62.0358 54.1665 62.4368 54.3671 62.3366 54.668C62.0358 55.5706 59.7303 53.9659 59.7303 55.2697C59.7303 56.3729 60.2315 55.1694 61.2339 55.5706C62.3366 56.072 62.1361 57.8773 61.6348 58.7799C61.2339 59.4819 61.5346 59.0808 60.3317 60.3846C59.3293 61.3875 63.1385 61.2872 61.9356 61.9892C61.5346 62.1898 61.3341 61.7886 60.8329 61.8889C60.2315 61.9892 60.1312 62.0895 60.1312 62.4907C60.3317 63.5939 61.4343 63.3933 62.4368 64.2959ZM62.6373 59.6825C62.6373 58.8802 63.4392 59.6825 63.6397 59.9834C63.6397 59.9834 63.6397 60.184 63.4392 60.2843C63.1385 60.3845 62.6373 60.184 62.6373 59.6825ZM67.1482 70.3134C67.2484 70.4137 67.3487 70.6143 67.3487 70.7146C67.3487 70.7146 67.1482 70.9152 67.0479 70.9152C66.9477 70.9152 66.5467 70.9152 66.5467 70.6143C66.5467 70.2131 67.0479 70.2131 67.1482 70.3134ZM56.322 62.3904L56.5225 62.1898C56.723 62.2901 57.0237 62.3904 57.0237 62.6913C57.0237 62.7916 56.9235 62.8918 56.8232 62.8918C56.6228 62.8918 56.5225 62.591 56.322 62.3904ZM180.121 55.5706C181.023 55.9717 179.419 58.0778 178.718 57.5764C178.016 56.9746 179.419 55.2697 180.121 55.5706ZM160.774 66.8032C160.874 66.8032 160.774 67.0038 160.774 67.0038C160.774 67.1041 160.574 67.2044 160.474 67.1041C160.373 67.0038 160.574 66.9035 160.574 66.8032C160.674 66.8032 160.774 66.8032 160.774 66.8032ZM171.199 67.7058C171.199 68.107 170.598 68.107 170.397 68.0067C170.197 67.7058 171.3 67.0038 171.199 67.7058ZM167.791 65.8003C167.791 65.8003 167.791 65.9006 167.791 66.0009C167.691 66.0009 167.591 66.0009 167.591 66.0009C167.591 66.0009 167.591 65.8003 167.691 65.8003C167.591 65.5997 167.691 65.7 167.791 65.8003ZM166.989 66.3017C167.089 66.402 166.989 66.6026 166.889 66.7029C166.889 66.7029 166.789 66.7029 166.689 66.7029C166.588 66.6026 166.689 66.5023 166.789 66.402C166.789 66.3017 166.989 66.2014 166.989 66.3017ZM166.288 66.9035C166.388 66.9035 166.288 67.1041 166.288 67.1041C166.187 67.1041 166.087 67.2044 166.087 67.2044C165.987 67.2044 166.087 67.0038 166.087 67.0038C166.187 66.9035 166.288 66.8032 166.288 66.9035ZM174.808 59.0808C174.808 59.5822 174.207 60.0837 173.705 59.9834C173.405 59.8831 173.304 59.4819 173.304 59.2813C173.405 58.8802 174.307 58.8802 174.407 58.6796C174.608 58.8802 174.808 58.9805 174.808 59.0808ZM175.009 40.6271C175.109 40.6271 175.109 40.7274 175.109 40.8277C175.109 40.928 175.009 41.0283 174.908 41.1286C174.808 41.1286 174.608 41.2289 174.507 41.1286L174.507 41.0283C174.608 40.7274 174.808 40.5268 175.009 40.6271ZM175.209 38.1198L175.309 38.2201C175.309 38.4207 175.109 38.8219 174.908 38.8219C174.708 38.8219 174.507 38.7216 174.507 38.4207C174.507 38.2201 175.009 38.1198 175.209 38.1198ZM178.417 33.8073C179.018 34.5093 177.715 36.0137 176.813 35.9134C176.713 35.9134 176.713 35.7128 176.813 35.6126C177.214 35.0108 177.615 34.409 178.016 33.9076C178.116 33.9076 178.317 33.707 178.417 33.8073ZM164.884 54.1665C164.884 54.2668 164.784 54.4673 164.684 54.4673L164.583 54.4673C164.583 54.3671 164.583 54.1665 164.784 54.0662C164.784 54.0662 164.884 54.0662 164.884 54.1665ZM167.39 49.3525C167.49 49.4528 167.29 49.6534 167.19 49.6534C167.089 49.6534 167.089 49.5531 167.089 49.4528C167.089 49.3525 167.39 49.2522 167.39 49.3525ZM172.803 38.1198C172.803 38.1198 172.904 38.1198 172.803 38.1198C172.904 38.4207 172.803 38.6213 172.603 38.7216C172.503 38.7216 172.402 38.6213 172.402 38.6213C172.402 38.3204 172.603 38.1198 172.803 38.1198ZM173.505 40.928C173.505 40.928 173.505 41.0283 173.405 41.0283C173.405 41.0283 173.304 41.0283 173.304 40.928L173.304 40.8277C173.405 40.928 173.505 40.928 173.505 40.928ZM178.016 58.8802C178.216 59.0808 177.916 59.181 177.916 59.2813C177.916 59.3816 177.715 59.3816 177.715 59.3816C177.615 59.2813 177.615 59.1811 177.715 59.0808C177.615 58.8802 177.815 58.6796 178.016 58.8802ZM172.202 62.1898C172.302 62.591 171.5 62.7915 171.4 62.3904C171.3 61.9892 172.102 61.7886 172.202 62.1898ZM173.004 67.3047C173.104 67.8061 172.102 67.5053 172.402 67.2044C172.503 67.0038 172.904 67.1041 173.004 67.3047ZM173.204 66.5023L173.304 66.6026C173.304 66.7029 173.204 66.6026 173.104 66.6026L173.004 66.5023C173.104 66.5023 173.204 66.5023 173.204 66.5023ZM172.503 61.3875C172.603 61.2872 172.703 61.2872 172.803 61.3875C172.904 61.4878 172.803 61.5881 172.803 61.5881C172.803 61.5881 172.703 61.6883 172.603 61.5881C172.603 61.5881 172.402 61.4878 172.503 61.3875ZM176.512 60.6854C176.612 60.6854 176.612 60.886 176.512 60.886C176.512 60.886 176.412 60.886 176.312 60.886C176.312 60.886 176.312 60.7857 176.312 60.6854C176.312 60.7857 176.412 60.6854 176.512 60.6854ZM175.209 63.6942C175.309 63.293 176.111 63.7945 175.71 64.0953C175.51 64.1956 175.109 63.8948 175.209 63.6942ZM174.908 63.995C175.109 63.995 175.41 64.0953 175.51 64.3962C175.51 64.4965 175.41 64.5968 175.41 64.5968C175.209 64.5968 174.908 64.3962 174.808 64.1956C174.808 64.0953 174.808 63.995 174.908 63.995ZM172.904 65.1986C173.004 64.5968 174.106 64.2959 174.407 64.7974C175.009 65.7 172.803 66.1012 172.904 65.1986Z" fill="currentColor"/>
</svg>
