<svg width="128" height="90" viewBox="0 0 128 90" fill="none" xmlns="http://www.w3.org/2000/svg">
<path d="M19.8265 13.1921C19.7196 13.2187 19.6128 13.2454 19.5862 13.1385C19.426 12.9515 19.2662 12.3106 19.6668 12.0972C20.2009 11.9639 20.1203 13.0053 19.8265 13.1921ZM19.9611 11.0025C19.7741 11.1626 19.7739 11.6166 20.0408 11.7769C20.1743 11.8571 20.2811 11.8305 20.3613 11.697C20.5216 11.43 20.4417 11.1096 20.1747 10.9492C20.1747 10.9492 20.0679 10.9759 19.9611 11.0025ZM27.0326 20.2452C27.3264 20.0585 27.4601 19.6847 27.4604 19.2307C27.4071 19.0171 27.354 18.3495 26.9267 18.4561C26.2858 18.616 26.4721 19.8177 26.7923 20.1917C26.819 20.2985 26.9258 20.2719 27.0326 20.2452ZM16.8324 19.8395C16.7789 20.0798 16.7253 20.3201 16.8588 20.4003C16.9923 20.4804 17.3127 20.4005 17.3127 20.4005C17.3663 20.1602 17.5266 19.8933 17.3932 19.8131C17.233 19.6261 16.8324 19.8395 16.8324 19.8395ZM68.2074 74.3123C68.1541 74.0986 67.5936 73.6711 67.4332 73.9381C67.2729 74.205 67.8067 74.5257 68.0204 74.4724C68.1272 74.4457 68.234 74.4191 68.2074 74.3123ZM26.4677 28.4427C26.2543 28.042 25.3999 27.8013 25.2662 28.175C24.999 28.4686 25.5327 29.2433 25.9866 29.2435C26.3071 29.1635 26.521 28.6563 26.4677 28.4427ZM24.3967 5.13019C23.8626 5.26343 23.8619 6.62527 24.476 6.8125C25.1167 7.10655 25.2247 4.81018 24.3967 5.13019ZM26.5568 10.6053C25.275 10.9251 25.1934 13.7823 26.3414 14.2902C26.4748 14.3704 26.7154 13.9699 26.7955 13.8365C27.0896 13.1958 27.3046 10.4188 26.5568 10.6053ZM72.2871 85.663C72.4206 85.7432 72.6875 85.9035 72.7677 85.77C72.8479 85.6366 72.7946 85.4229 72.6611 85.3427C72.5277 85.2626 72.2607 85.1022 72.1004 85.3691C72.127 85.476 72.1803 85.6896 72.2871 85.663ZM71.0882 80.402C70.8479 80.3484 70.3939 80.3482 70.367 80.6953C70.3402 81.0424 72.8768 81.2039 71.0882 80.402ZM70.4433 88.2789C68.9214 88.0912 50.6871 80.9524 26.5467 83.3434C18.9093 84.1139 4.32816 87.0705 1.47378 81.5416C-1.86073 74.9977 4.95605 60.021 9.66229 47.0459C12.4432 39.5439 14.9863 26.9949 15.2268 26.5945C15.5209 25.9538 16.0812 26.8352 16.5353 26.3815C16.8025 26.0879 17.0697 25.7943 17.3102 25.3939C17.4706 25.127 17.364 24.6997 17.3107 24.486C17.0173 23.7649 17.605 23.3914 17.8457 22.537C17.8992 22.2967 17.6323 22.1363 17.579 21.9227C17.5524 21.8159 17.5524 21.8159 17.5524 21.8159C18.4074 20.6948 18.3013 19.3596 18.6757 18.1315C18.9167 16.8232 19.1577 15.5149 19.3987 14.2066C19.3721 14.0997 19.4256 13.8594 19.6659 13.913C20.4403 13.8332 19.6119 15.0611 19.6117 15.5151C19.6381 16.0759 19.3704 17.2773 19.8244 17.2776C20.305 17.3846 20.3868 14.0735 20.8148 12.6051C21.2427 11.1367 20.2563 8.09207 21.7516 8.17294C22.793 8.25358 21.0819 12.3115 21.9096 12.4454C22.8708 12.6596 22.6583 10.4431 22.8463 8.46723C22.8998 8.22693 23.2203 8.14698 23.1936 8.04015C23.2205 7.69303 22.7934 7.34569 22.8469 7.10539C22.8203 6.99857 22.9271 6.97192 23.0339 6.94527C23.3811 6.97215 23.7548 7.10586 23.9416 7.39968C24.5819 8.60162 22.4176 11.2975 23.9928 11.6988C25.0875 11.9931 23.7006 8.70798 24.7151 9.13574C26.3703 9.85755 23.4047 12.9803 24.4989 14.1824C24.5256 14.2893 24.6324 14.2626 24.7392 14.236C25.0331 14.0492 24.4461 13.0609 25.0069 13.0345C25.4608 13.0347 25.2736 13.6488 25.3269 13.8624C25.4335 14.2897 25.2196 14.797 25.7002 14.904C25.8337 14.9842 25.807 14.8774 25.8872 14.7439C25.994 14.7172 26.1275 14.7974 26.2343 14.7708C26.3678 14.8509 26.5279 15.0379 26.4477 15.1714C26.3942 15.4117 26.2338 15.6787 26.207 16.0258C26.2867 16.8002 26.9805 17.7618 26.5529 18.3224C26.2056 18.7495 25.4047 18.2684 25.1109 18.4552C24.7103 18.6686 24.8702 19.3095 25.2173 19.3364C25.4576 19.3899 25.5913 19.0162 25.8049 18.9629C26.2589 18.9631 25.5908 19.9241 26.3113 20.9925C26.4714 21.1795 26.685 21.1262 26.9253 21.1798C27.0588 21.2599 27.566 21.4738 27.3255 21.8742C27.1651 22.1412 26.5513 21.5 26.2841 21.7936C25.9903 21.9804 26.2037 22.381 26.257 22.5947C26.4169 23.2356 26.4167 23.6895 26.1226 24.3303C25.7751 25.2113 26.4422 26.0661 26.7622 26.8941C26.8155 27.1077 27.2692 27.5619 26.9754 27.7486C26.5747 27.9621 26.1481 26.7068 25.5338 26.9735C24.2251 27.6404 25.4525 29.3767 25.3988 30.071C25.3183 30.6584 25.9055 31.1927 26.4661 31.6203C26.733 31.7806 27.3204 31.861 27.2134 32.3416C27.0797 32.7154 26.4123 32.3145 26.3854 32.6616C26.305 33.2491 27.079 34.0772 27.6933 33.8105C28.6281 33.4639 27.4273 31.8344 28.0951 31.3274C28.2019 31.3007 28.3087 31.2741 28.3354 31.3809C28.7891 31.8351 28.4149 32.6093 28.3345 33.1967C28.2538 34.238 28.1998 35.3862 28.226 36.4009C28.2518 38.3235 27.9037 40.1124 27.5823 42.0082C26.9129 45.6928 27.1258 47.0013 27.8467 47.1619C29.6623 47.6168 37.2227 40.6245 38.8255 39.3169C51.4076 29.2564 64.4151 22.7208 65.4833 22.4543C65.5901 22.4277 65.697 22.401 65.8038 22.3744C66.1509 22.4013 66.7117 22.3749 66.8183 22.8022C66.8449 22.909 66.1238 23.2023 66.444 23.5763C67.0579 24.2175 67.8066 22.2152 68.3404 22.5359C68.8743 22.8566 67.0583 23.3096 67.4854 23.657C67.779 23.9241 68.1263 23.4971 68.3133 23.337C69.1146 22.9101 68.9809 23.2839 69.6752 23.3377C70.9302 23.365 71.7852 22.2439 72.907 21.7371C73.1207 21.6838 73.4411 21.6039 73.6814 21.6574C74.6426 21.8715 75.6578 20.9374 74.6433 20.5097C74.0292 20.3225 73.5482 21.1233 72.9339 21.39C72.8271 21.4167 72.6401 21.5768 72.5066 21.4966C72.2663 21.4431 72.026 21.3896 71.9994 21.2827C71.9461 21.0691 72.1331 20.909 72.2132 20.7755C72.6139 20.5621 73.148 20.4288 73.5486 20.2154C73.9493 20.002 74.2966 19.5749 74.9642 19.5219C75.0711 19.4952 75.4182 19.5221 75.5783 19.7091C75.7384 19.8961 75.6314 20.3767 75.7915 20.5637C76.352 20.9912 76.913 20.5108 77.2071 19.8701C77.3674 19.6032 77.9817 19.3365 77.7683 18.9358C77.5816 18.642 76.6732 19.5494 76.4331 19.042C75.5528 17.3325 78.9714 16.0258 80.8141 15.6796C81.3482 15.5464 82.0686 16.6149 82.6563 16.2413C82.8699 16.188 82.6032 15.5737 83.0571 15.574C83.164 15.5473 83.4309 15.7077 83.4842 15.9213C83.5642 16.2418 83.2703 16.4286 83.3236 16.6422C83.5368 17.4968 84.0705 18.2714 85.0317 18.4856C85.272 18.5391 85.646 18.2188 85.9398 18.0321C86.1268 17.872 86.2605 17.4982 86.2072 17.2845C86.1272 16.9641 85.7801 16.9372 85.4863 17.124C85.3795 17.1506 85.1925 17.3107 85.059 17.2306C84.9255 17.1504 84.8989 17.0435 84.8989 17.0435C85.3264 16.483 85.6471 15.9491 86.0746 15.3886C86.0746 15.3886 86.1548 15.2551 86.2883 15.3353C87.2228 15.4426 88.1309 14.9891 89.0386 15.4435C89.439 15.684 90.7744 15.1239 90.8815 14.6433C90.8549 14.5365 90.9084 14.2962 90.6947 14.3495C90.0807 14.1623 88.7184 15.0695 88.8256 14.1349C88.8792 13.8947 89.173 13.7079 89.3065 13.7881C90.1875 14.1356 90.802 13.415 91.5498 13.2284C92.2975 13.0419 92.9385 12.882 93.4995 12.4016C93.7667 12.1081 94.3277 11.6277 93.7136 11.4405C93.2064 11.2266 92.4581 12.321 91.8976 11.8935C91.2302 11.4926 92.2721 10.6653 92.8062 10.5321C93.5273 10.2387 94.3546 11.2806 95.049 10.8804C96.064 10.4002 96.7587 9.54612 97.3465 8.71863C97.5069 8.45169 97.9342 8.34509 98.3613 8.69244C98.6548 8.95962 98.4945 9.22657 98.3608 9.60034C98.2806 9.73381 98.3339 9.94746 98.1203 10.0008C97.7998 10.0807 97.5597 9.57323 97.3461 9.62653C96.999 9.59965 97.7732 9.97387 97.4256 10.8549C97.3185 11.3355 96.117 11.0678 96.1434 11.6286C96.1967 11.8423 96.4104 11.789 96.5172 11.7623C96.8643 11.7892 97.2381 11.9229 97.3181 12.2434C97.3178 12.6973 96.9707 12.6704 96.6502 12.7504C96.1161 12.8836 95.4219 12.8299 94.9943 13.3904C94.3263 14.3514 93.8455 14.6983 92.9909 14.9114C92.4567 15.0447 91.8158 15.2046 91.6019 15.7118C91.388 16.2191 91.0405 17.1001 91.601 17.5276C91.868 17.6879 92.1085 17.2875 92.3221 17.2342C92.8027 17.3413 91.4673 17.9014 91.4668 18.8092C91.5201 19.0229 91.9474 18.9163 92.0007 19.13C92.0805 19.9044 89.3304 19.3422 90.0774 20.5175C90.2909 20.9182 92.1066 20.9191 89.9433 21.7992C89.4358 22.0392 88.7413 22.4394 88.3143 22.0921C87.6469 21.6912 88.1011 21.2375 88.7689 20.7305C89.0627 20.5437 90.0241 20.3039 89.5704 19.8497C89.2502 19.4757 88.5291 19.7691 88.0485 19.662C87.915 19.5818 87.8351 19.2614 87.5948 19.2078C87.2743 19.2878 87.541 19.9021 87.2472 20.0888C87.0602 20.249 86.4996 19.8214 86.3659 20.1952C86.2858 20.3287 86.4459 20.5157 86.4459 20.5157C86.5793 20.5959 86.8197 20.6494 86.9531 20.7296C87.0866 20.8097 87.6207 20.6765 87.5672 20.9168C87.487 21.0503 87.2734 21.1036 87.1399 21.0234C86.6859 21.0231 86.3655 21.1031 86.0983 21.3967C86.0181 21.5302 85.8045 21.5835 85.5908 21.6368C84.8431 21.8233 83.9885 22.0365 83.2673 22.3298C82.8667 22.5433 82.2257 22.7032 82.2255 23.1571C82.1185 23.6377 82.8127 23.6915 83.1867 23.3712C83.4539 23.0776 83.4541 22.6237 83.8814 22.5171C84.2019 22.4371 84.8159 22.6244 84.8157 23.0783C84.8688 23.7459 83.3468 23.5582 83.4801 24.0923C83.5867 24.5196 83.8805 24.3329 84.6813 24.8139C85.2152 25.1346 85.6696 24.2269 86.2037 24.0937C86.8447 23.9338 87.5658 23.6405 88.1801 23.3737C88.7944 23.107 89.0611 23.7213 89.4884 23.6147C91.4912 23.4555 91.3848 22.5743 92.2929 22.1208C92.3998 22.0942 92.7735 22.2279 92.907 22.308C93.1473 22.3616 93.6012 22.3618 93.8149 22.3085C94.2957 21.9616 94.8032 21.7215 95.2574 21.2678C95.7115 20.8141 96.7531 20.4408 96.9399 20.7346C97.2335 21.0018 96.4857 21.1883 96.3789 21.215C95.2838 21.8286 92.0248 24.2302 91.2238 24.2031C90.1824 24.1224 88.5265 24.7625 88.3129 24.8158C87.9924 24.8957 87.6186 24.762 87.4849 25.1358C87.5116 25.2426 87.2979 25.2959 87.1911 25.3225C86.283 25.776 85.028 25.7487 84.3333 26.6028C84.1729 26.8698 84.7066 27.6444 84.2793 27.751C83.9855 27.9378 83.9324 27.2702 83.6921 27.2167C83.4518 27.1631 83.2377 28.1243 82.8373 27.8838C82.5437 27.6166 83.2382 27.2164 83.078 27.0294C81.5299 25.827 78.5381 27.935 78.0833 29.7506C77.9227 30.4715 79.4713 30.766 79.3107 31.4868C78.9898 32.4747 76.4531 32.3132 76.9332 33.3281C77.2266 34.0493 78.1616 33.2486 78.7226 32.7683C79.4706 32.1278 80.2452 31.5941 80.6997 30.6865C80.7798 30.553 81.1003 30.4731 81.2071 30.4464C81.5276 30.3665 82.1417 30.5537 82.2754 30.1799C82.5159 29.7795 81.5816 29.2183 81.9023 28.6844C82.5168 27.9637 83.8249 28.6587 84.6528 28.3387C85.2671 28.0719 87.3503 27.3253 87.0034 26.8445C86.8166 26.5507 86.4693 26.9777 86.2557 27.031C86.0154 26.9775 85.6147 27.1909 85.5348 26.8704C85.0815 25.5084 86.4695 26.5238 87.8045 26.8716C88.1516 26.8985 88.3921 26.4981 88.5791 26.3379C89.167 25.5105 89.8615 25.1103 90.3152 25.5645C91.0625 26.2858 88.0448 26.9251 88.6853 27.6731C89.0588 28.2608 90.2346 26.6058 90.6348 27.3003C90.8482 27.7009 90.7411 28.1815 90.7142 28.5286C90.7407 29.0894 90.4735 29.383 89.8328 29.089C88.6848 28.581 88.2575 28.6876 87.7496 29.8356C87.5892 30.1025 87.4289 30.3695 87.2952 30.7432C87.1348 31.0102 86.8676 31.3038 86.9476 31.6242C87.054 32.5055 88.3898 31.0375 88.6566 31.6518C88.8167 31.8388 88.4427 32.1591 88.3358 32.1857C87.668 32.6927 87.0269 33.3066 86.1723 33.5197C85.6381 33.653 85.3705 34.8544 84.7298 34.5604C84.0891 34.2663 85.1842 33.6528 84.8109 32.6112C84.5977 31.7566 83.2088 32.5569 82.5409 33.0639C82.4608 33.1974 82.2471 33.2507 82.1136 33.1705C81.4996 32.9833 81.1522 33.4104 80.6714 33.7573C79.763 34.6647 79.9236 33.9438 78.7757 33.4359C78.1349 33.1418 77.4402 33.996 76.9059 34.5832C76.5585 35.0102 75.8641 35.4104 75.5974 34.7961C75.4372 34.6091 75.6778 34.2087 75.6245 33.995C75.3844 33.4876 72.6067 34.6344 73.5142 35.5427C73.8078 35.8099 74.0485 34.9555 74.3155 35.1159C74.4489 35.1961 74.2886 35.463 74.4487 35.65C74.689 35.7035 75.0097 35.1696 75.1965 35.4635C75.3566 35.6505 75.1696 35.8106 75.0894 35.9441C74.5551 36.5312 74.021 36.6645 73.4871 36.3438C73.3536 36.2636 73.3269 36.1568 73.2201 36.1834C72.8996 36.2634 72.6325 36.557 72.5789 36.7973C72.4988 36.9307 72.5254 37.0376 72.5254 37.0376C72.7386 37.8921 72.3646 38.2124 71.5102 37.9716C71.0296 37.8646 70.2821 37.5972 70.3352 38.2648C70.4149 39.0392 71.7237 38.3723 72.3111 38.4527C72.8985 38.5331 73.9938 37.4656 74.2872 38.1867C74.6339 39.1215 72.7912 39.4676 71.723 39.7341C71.082 39.894 70.4411 40.0539 69.9074 39.2793C69.5605 38.7985 69.1332 38.905 68.6524 39.2519C68.3586 39.4387 68.1449 39.492 67.8511 39.6788C67.6641 39.8389 67.4771 39.999 67.2901 40.1591C67.1833 40.1858 67.3967 40.5864 67.5035 40.5598C67.7172 40.5065 68.0643 40.5333 68.2513 40.3732C68.9191 39.8662 69.7204 39.4394 69.7466 40.4541C69.8796 41.4422 68.3579 40.8005 67.3429 41.2807C67.0491 41.4674 67.2892 41.9749 67.1022 42.135C66.2207 42.6953 66.6218 41.574 66.1683 40.6659C66.1417 40.5591 65.9014 40.5055 65.7946 40.5322C65.047 40.2648 64.7532 40.4516 64.8329 41.226C64.9129 41.5464 64.5655 41.9735 64.7789 42.3742C65.0992 42.7482 66.0073 42.2947 66.4344 42.642C67.1817 43.3634 64.6446 44.1098 65.2584 44.7509C65.3919 44.8311 65.5789 44.671 65.7123 44.7512C65.8192 44.7245 66.2198 44.5111 66.2997 44.8316C66.6464 45.7663 64.2965 45.8987 64.483 46.6464C64.5896 47.0737 65.2308 46.4599 65.5513 46.38C66.0588 46.1399 66.6198 45.6595 67.2605 45.9536C67.5008 46.0071 67.8748 45.6869 68.1417 45.8472C68.6223 45.9543 68.6487 46.515 68.3815 46.8086C68.2212 47.0756 67.6338 46.9952 67.527 47.0218C66.9127 47.2885 66.5387 47.6088 66.1647 47.929C65.7907 48.2493 65.5501 48.6497 65.3362 49.1569C65.0957 49.5573 64.7217 49.8776 64.5611 50.5985C64.5878 50.7053 65.0415 51.1595 64.6675 51.4797C63.8127 52.1468 62.9585 51.4521 62.344 52.1728C62.157 52.3329 61.8899 52.6265 61.5427 52.5997C61.4359 52.6263 61.4093 52.5195 61.3826 52.4126C61.3293 52.199 61.73 51.9856 61.7835 51.7453C61.9172 51.3715 62.1577 50.9711 61.8375 50.5971C61.6774 50.4101 61.5708 49.9828 61.7578 49.8227C61.9448 49.6626 62.2921 49.2355 62.6925 49.476C63.0929 49.7166 62.2381 50.3837 62.6385 50.6242C63.2793 50.9183 63.974 50.0641 64.081 49.5835C64.1881 49.1029 64.0282 48.462 63.6544 48.3283C63.2806 48.1946 62.8798 48.862 62.3723 49.102C62.1853 49.2622 61.945 49.2086 61.6245 49.2886C61.4109 49.3419 61.0638 49.315 60.9836 49.4485C60.2356 50.0889 59.8889 49.1542 58.794 49.3138C58.3401 49.3136 58.2863 50.0078 58.1526 50.3816C57.9654 50.9957 57.5647 51.2091 57.1374 51.3157C56.1494 51.4487 55.3212 52.2227 55.6412 53.0506C56.0145 54.0922 57.5112 51.4494 58.125 52.0906C58.2852 52.2776 58.1248 52.5445 58.0446 52.678C57.2165 53.4519 56.5484 54.4129 55.5335 54.893C55.1328 55.1064 54.8121 55.6403 54.5449 55.9339C54.1709 56.2542 53.2626 57.1616 53.0761 56.4138C52.6761 55.2654 55.6136 54.7596 55.2134 54.0651C55.0533 53.8781 54.1721 53.9844 53.8247 54.4115C53.2904 54.9987 52.943 55.4258 52.3554 55.7993C51.7677 56.1728 51.073 57.027 51.1261 57.6946C51.0992 58.0417 51.286 58.3355 51.2858 58.7894C51.2855 59.2434 51.0184 59.537 50.5911 59.6436C50.1638 59.7502 50.2975 59.3764 49.9237 59.2427C49.1762 58.9753 48.5614 60.1499 48.0004 60.6303C47.4661 61.2175 47.0652 61.8848 46.6377 62.4454C46.13 63.1394 45.9158 64.1006 46.3962 64.6616C46.583 64.9554 47.1973 64.6887 47.3574 64.8757C47.7043 65.3565 46.7426 66.0503 47.0895 66.5311C47.4098 66.9051 47.8639 66.4514 48.1042 66.5049C48.478 66.6386 48.7711 67.8137 48.6108 68.0806C48.5306 68.2141 48.3436 68.3742 48.3703 68.4811C48.8771 69.6028 50.6931 69.1498 51.8144 69.5509C53.176 70.0055 54.5911 70.2199 55.9527 70.6745C57.7949 71.2362 59.5569 71.9314 61.319 72.6265C63.1878 73.295 65.6707 74.1508 66.2046 74.4715C66.3381 74.5517 66.4982 74.7386 66.418 74.8721C65.9905 75.4327 60.9718 72.5996 60.8912 73.641C60.8377 73.8813 61.3984 73.8549 61.6654 74.0152C62.84 74.63 63.8542 75.5117 65.0824 75.8861C65.4561 76.0198 65.7764 76.3939 65.5092 76.6875C64.868 77.3013 64.3346 76.0727 63.48 76.2859C62.8391 76.4458 61.5579 75.4037 61.3973 76.1246C60.9158 77.8333 64.6275 77.7017 66.1492 78.3433C68.285 79.1722 70.501 79.8676 72.7438 80.2159C73.3312 80.2963 74.7733 80.1635 74.6127 80.8844C74.5589 81.5786 70.2607 79.8141 70.1001 80.535C70.0466 80.7753 70.5272 80.8823 70.447 81.0158C70.3668 81.1493 70.1532 81.2026 69.9395 81.2559C69.5924 81.229 69.1656 80.4277 68.925 80.8281C68.0698 82.4031 73.1966 82.4858 73.0361 83.2067C72.9825 83.447 71.5141 83.019 70.8199 82.9653C70.3393 82.8582 66.4941 82.9097 65.6397 82.6689C65.6397 82.6689 65.1591 82.5619 65.239 82.8823C65.3454 83.7636 66.7075 83.3103 67.3215 83.4976C68.7633 83.8187 70.1249 84.2733 71.5134 84.3809C72.2076 84.4346 74.4236 85.13 74.3432 85.7174C74.3163 86.0646 72.6343 85.6899 72.2605 85.5562C71.8601 85.3156 71.3795 85.2086 71.0057 85.0749C70.3916 84.8876 69.8309 84.9141 69.2168 84.7268C68.2023 84.2991 66.5469 84.0312 65.7456 84.458C65.5319 84.5113 65.5051 84.8585 65.6385 84.9386C67.3204 85.7673 70.3914 85.3416 70.3643 86.1427C70.3374 86.4898 70.017 86.5697 70.0703 86.7834C70.0967 87.3441 70.8977 87.3712 71.0576 88.0122C71.1909 88.5463 69.4022 87.7443 69.829 88.5456C70.0158 88.8395 70.8704 88.6263 70.977 89.0535C71.6714 88.6534 70.8171 88.4126 70.4433 88.2789ZM85.7989 32.4781C85.7721 32.8253 86.1458 32.959 86.3861 33.0125C86.493 32.9858 86.5731 32.8524 86.5731 32.8524C86.6 32.5053 85.8794 31.8907 85.7989 32.4781ZM82.0953 16.7217C81.8014 16.9085 81.6409 17.6293 82.1215 17.7364C82.5219 17.9769 82.9494 17.4164 82.8695 17.0959C82.8963 16.7488 82.3891 16.5349 82.0953 16.7217ZM80.92 17.4688C81.0534 17.5489 81.2138 17.282 81.4274 17.2287L81.3742 17.0151C81.1605 17.0684 80.8936 16.908 80.84 17.1483C80.7332 17.175 80.8933 17.3619 80.92 17.4688ZM78.4341 22.5143C78.7543 22.8883 79.4221 22.3813 79.4757 22.141C79.3424 21.6069 77.9537 21.9533 78.4341 22.5143ZM79.5025 21.7939C79.9562 22.2481 80.6245 20.8332 79.9303 20.7794C79.6098 20.8594 79.3158 21.5001 79.5025 21.7939ZM77.6601 21.6861C77.4203 20.7247 75.4439 21.4447 75.5236 22.2191C75.6566 23.2072 77.8733 22.5407 77.6601 21.6861ZM83.6682 21.6625C84.1222 21.6627 84.977 20.9956 84.7369 20.4881C84.5501 20.1943 84.3096 20.5947 84.1762 20.5145C83.9359 20.461 83.5887 20.4341 83.4286 20.2471C83.2951 20.1669 83.5357 19.7665 83.6158 19.633C83.7762 19.3661 84.2837 19.126 84.0969 18.8322C83.8302 18.2179 83.0555 18.7516 82.815 19.152C82.6547 19.419 82.4144 19.3654 82.0406 19.2317C81.3197 19.0711 81.8008 18.2703 81.3737 17.9229C80.8131 17.4954 79.5581 17.4681 79.2374 18.002C78.6227 19.1766 79.237 18.9099 79.2365 19.8178C79.183 20.0581 79.5834 20.2986 79.8237 20.3521C80.064 20.4056 80.1977 20.0319 80.3312 20.112C80.5981 20.2724 80.3576 20.6728 80.4911 20.753C80.9714 21.314 81.7989 21.9019 82.2531 21.4481C82.8943 20.8343 81.9067 20.0594 82.761 20.3002C83.1881 20.6475 83.1075 21.6889 83.6682 21.6625ZM81.5565 25.9338C81.7169 25.6669 81.3967 25.2929 81.2632 25.2127C81.0229 25.1592 80.8625 25.4261 80.5687 25.6129C80.5687 25.6129 80.4885 25.7464 80.622 25.8266C80.7821 26.0136 81.2894 26.2274 81.5565 25.9338ZM71.2185 34.0729C72.2598 34.1535 72.4209 32.5248 73.3557 32.1781C74.1836 31.8581 75.6532 30.0163 76.0531 31.1648C76.1331 31.4852 75.3587 31.5649 75.5454 31.8588C76.3993 33.0074 78.4563 31.2461 77.6824 30.4179C77.3355 29.9371 76.6939 31.4588 76.3203 30.8712C75.9468 30.2835 77.3086 30.2842 77.202 29.8569C77.0688 29.3228 76.3479 29.1622 75.9741 29.0285C74.5057 28.6005 72.4492 29.454 72.3416 30.8425C72.3681 31.4032 73.196 31.0832 73.57 30.763C73.8638 30.5762 74.1576 30.3894 74.4781 30.3095C74.6918 30.2562 75.0389 30.2831 75.0922 30.4967C75.4653 31.9923 72.7418 31.5369 71.5668 31.8301C71.4599 31.8567 71.3265 31.7765 71.2998 31.6697C71.2732 31.5629 71.4066 31.6431 71.4868 31.5096C71.4868 31.5096 71.5936 31.4829 71.567 31.3761C71.567 31.3761 71.6472 31.2426 71.6205 31.1358C71.2201 30.8953 70.7926 31.4558 70.552 31.8563C70.365 32.0164 70.8188 32.4705 70.5782 32.871C70.3111 33.1646 69.5369 32.7903 69.2963 33.1907C68.762 33.7779 67.8008 33.5638 67.7737 34.3649C67.8001 34.9257 68.6547 34.7125 69.0554 34.4991C69.3492 34.3123 69.643 34.1255 69.9368 33.9387C70.4443 33.6987 70.6577 34.0993 71.2185 34.0729ZM85.0252 31.196C85.0252 31.196 84.945 31.3295 85.0785 31.4097C85.212 31.4899 85.4523 31.5434 85.5325 31.4099C85.5325 31.4099 85.6126 31.2764 85.4792 31.1963C85.319 31.0093 85.1054 31.0625 85.0252 31.196ZM82.1674 32.4763C82.7548 32.5567 84.3838 32.2638 84.4911 31.3293C84.7321 30.021 83.5837 30.4209 82.8359 30.6074C81.9813 30.8206 81.2333 31.4611 80.6188 32.1818C80.5386 32.3153 80.3516 32.4754 80.5117 32.6624C80.9654 33.1166 81.6868 32.3692 82.1674 32.4763ZM23.6439 15.3035C23.4302 15.3568 23.2699 15.6238 23.2965 15.7306C23.3496 16.3982 24.0971 16.6656 24.5777 16.7726C25.5123 16.8799 26.2607 15.3315 25.3528 15.3311C25.0057 15.3042 25.3257 16.1322 25.0052 16.2121C24.5779 16.3187 24.6317 15.6244 24.4982 15.5443C24.2046 15.2771 23.8575 15.2502 23.6439 15.3035ZM21.4015 14.0474C21.4013 14.5013 21.027 15.2755 21.4008 15.4092C22.2818 15.7568 22.39 13.0064 22.0162 12.8727C21.3486 12.9258 21.4284 13.7002 21.4015 14.0474ZM20.8389 17.7053C20.8655 17.8122 20.8653 18.2661 21.0789 18.2128C21.7199 18.0529 21.5869 17.0649 21.6939 16.5843C21.7208 16.2371 21.8545 15.8634 21.4006 15.8631C21.2937 15.8898 21.1067 16.0499 21.1334 16.1567C21.053 16.7442 20.8124 17.1446 20.8389 17.7053ZM19.6367 18.7995C19.8237 18.6394 19.8242 17.7315 19.2365 18.1051C18.9427 18.2918 19.1828 18.7993 19.3162 18.8795C19.3162 18.8795 19.5299 18.8262 19.6367 18.7995ZM24.7096 20.0304C24.5226 20.1905 24.4419 21.2319 24.9494 20.9918C25.2432 20.8051 25.2168 20.2443 24.9499 20.0839C25.03 19.9505 24.7898 19.897 24.7096 20.0304ZM18.8611 21.149C19.1281 21.3093 19.6355 21.0693 19.6358 20.6153C19.6627 20.2682 19.1288 19.9475 18.7281 20.1609C18.4609 20.4545 18.6208 21.0954 18.8611 21.149ZM19.2347 21.7366C19.2882 21.4963 19.0212 21.336 18.9144 21.3626C18.5138 21.576 18.9942 22.137 19.2347 21.7366ZM20.8099 22.138C21.1037 21.9512 21.0507 21.2836 20.7571 21.0164C20.7304 20.9096 20.5168 20.9629 20.41 20.9895C19.7957 21.2563 20.3024 22.378 20.8099 22.138ZM27.2109 37.335C27.478 37.0414 27.3448 36.5073 27.3717 36.1602C27.5054 35.7864 27.7459 35.386 27.6127 34.8519C27.5327 34.5314 27.2394 33.8103 26.8121 33.9169C26.4916 33.9968 26.9719 34.5578 26.8651 34.5845C26.1171 35.225 26.6774 36.1064 26.5168 36.8273C26.4098 37.3079 26.8369 37.6553 27.2109 37.335ZM26.5681 41.1265C26.6749 41.0998 27.1291 40.6461 26.7287 40.4056C26.4617 40.2452 26.2212 40.6456 26.141 40.7791C26.0608 40.9126 26.1141 41.1262 26.2476 41.2064C26.2476 41.2064 26.4879 41.2599 26.5681 41.1265ZM62.6404 46.9926C62.3468 46.7255 63.0948 46.085 62.721 45.9513C61.7601 45.2832 59.4092 47.2313 60.2365 48.2732C61.1972 49.3952 64.6967 46.5931 64.7502 46.3528C64.8304 46.2194 64.6703 46.0324 64.5901 46.1659C64.2963 46.3526 64.0025 46.5394 63.7086 46.7262C63.4683 46.6726 63.0408 47.2332 62.6404 46.9926ZM72.1521 35.996L72.1788 36.1028C72.419 36.1563 72.8464 36.0497 72.8732 35.7026C72.9536 35.1152 72.2056 35.7557 72.1521 35.996ZM60.8905 75.0029L60.9707 74.8694C60.8106 74.6824 60.33 74.5753 60.143 74.7354C60.0361 74.7621 60.0628 74.8689 60.0894 74.9757C60.2496 75.1627 60.7035 75.163 60.8905 75.0029ZM68.175 85.5541C68.3087 85.1803 67.9616 85.1534 67.6946 84.9931C67.0272 84.5922 65.9057 84.6451 65.772 85.0188C65.5581 85.5261 68.0679 86.0347 68.175 85.5541ZM70.3912 85.7955C70.3914 85.3416 68.5223 85.127 68.6556 85.6611C68.7622 86.0884 69.4298 86.0354 70.0172 86.1158C69.9905 86.009 70.4178 85.9023 70.3912 85.7955ZM117.32 9.63665C117.106 9.68995 116.839 9.98355 116.865 10.0904C116.972 10.5177 117.266 10.3309 117.48 10.2776C117.8 10.1977 117.96 9.9307 118.174 9.8774C118.601 9.77081 119.029 9.21027 119.429 9.90474C119.456 10.0116 119.829 10.1453 120.177 10.1722C120.871 10.2259 121.458 9.85238 121.753 9.21166C121.913 8.94472 122.127 8.89142 122.42 8.70465C123.195 8.17099 123.649 8.17121 123.009 6.96926C122.982 6.86244 122.982 6.86244 122.955 6.75562C122.582 6.62192 122.314 7.36947 121.78 7.50271C121.78 7.50271 121.433 7.47582 121.112 7.55577C120.472 7.71566 119.644 7.58173 119.19 8.03544C119.109 8.16891 119.136 8.27574 119.056 8.40921C118.548 9.10322 118.094 9.55694 117.32 9.63665ZM120.976 12.469C120.843 12.8428 120.015 12.7088 119.881 13.0826C119.908 13.1894 119.935 13.2962 119.935 13.2962C120.202 13.4566 120.629 13.35 120.816 13.1899C121.377 12.7095 122.846 12.6836 122.632 11.829C122.526 11.4017 122.019 11.1878 121.565 11.1876C120.55 11.2137 121.217 11.6146 120.976 12.469ZM123.995 9.55992C123.168 9.42599 121.592 9.93254 122.286 10.8942C122.793 11.562 123.194 10.8947 123.781 10.5211C124.075 10.3343 124.342 10.0408 124.689 10.0676C125.704 10.0414 126.345 9.42761 127.147 9.00078C127.44 8.81401 128.215 8.73428 127.895 8.36028C127.281 7.71911 126.266 8.65319 125.892 8.97343C125.384 9.66745 124.823 9.69386 123.995 9.55992ZM113.928 9.68834C114.035 9.66169 114.169 9.28791 114.035 9.20774C113.902 9.12756 113.635 9.42116 113.688 9.63481C113.688 9.63481 113.822 9.71499 113.928 9.68834ZM94.4864 14.5384C94.2461 14.4848 93.7922 14.4846 93.8455 14.6983C93.9247 16.3806 96.0883 15.0465 97.1834 14.4329C97.7977 14.1662 98.1986 13.4988 97.6647 13.1781C97.4244 13.1246 97.2374 13.2847 97.0504 13.4448C96.2222 14.2188 95.4209 14.6456 94.4864 14.5384ZM123.704 5.66119C123.517 5.82131 123.41 6.30191 123.65 6.35544C123.89 6.40896 124.131 6.00855 123.971 5.82155C124.024 5.58125 123.784 5.52771 123.704 5.66119ZM114.091 5.33589C113.717 5.20218 113.45 5.94973 113.717 6.11008C114.09 6.24378 114.571 5.44294 114.091 5.33589ZM107.493 10.2725C107.119 9.68488 104.582 10.8852 104.368 11.3925C104.234 11.7662 104.715 11.8733 105.035 11.7933C105.756 11.5 106.371 11.2333 107.092 10.9399C107.279 10.7798 107.68 10.5663 107.493 10.2725ZM113.396 6.19002C111.607 5.38804 109.311 5.28005 109.284 6.98901C109.283 7.44295 110.218 7.55024 110.218 8.00419C110.137 8.59161 109.069 8.40415 108.855 8.91139C108.775 9.04486 109.176 9.28539 108.989 9.44551C108.828 9.71245 108.294 9.39175 108.081 9.44505C107.867 9.49835 107.707 9.76529 107.76 9.97894C107.787 10.0858 108.08 10.3529 108.214 10.4331C108.561 10.46 109.068 10.2199 109.309 10.2735C110.029 10.434 109.976 9.76643 110.484 9.52637C110.804 9.44642 110.911 9.87373 110.911 9.87373C111.498 9.95413 111.659 9.23324 112.113 9.23347C113.929 9.23439 114.356 8.67385 114.356 8.67385C114.863 8.88773 114.703 10.0626 115.157 10.0628C116.145 9.92978 116.092 8.80824 116.786 8.862C117.587 8.88911 118.228 8.72923 118.789 8.24886C118.896 8.22222 119.163 7.92862 119.243 7.79515C119.751 7.10113 120.685 7.20842 121.38 7.26218C121.487 7.23553 121.834 7.2624 121.887 7.0221C121.994 6.54151 121.46 6.22081 121.113 6.19393C120.739 6.06023 120.365 6.83441 119.965 6.59388C119.831 6.51371 119.885 6.27342 119.858 6.16659C119.805 5.95295 119.885 5.81948 119.752 5.7393C118.924 5.15143 119.378 6.05954 118.656 6.80685C118.496 7.0738 117.989 6.85992 117.695 7.04669C117.401 7.23346 117.347 7.9277 116.867 7.82064C116.386 7.71359 116.44 7.01935 116.6 6.7524C116.841 6.35198 118.016 6.51279 117.642 5.92515C117.268 5.3375 116.201 4.24214 115.64 5.17645C115.319 5.71034 115.505 6.45811 116.093 6.99246C116.226 7.07264 116.306 7.39311 116.226 7.52658L116.119 7.55323C115.612 7.33935 115.826 6.37817 115.319 6.16429C114.945 6.03059 114.811 6.40436 114.598 6.45766C114.117 6.35061 113.53 6.2702 113.396 6.19002ZM79.2002 38.7766C79.6541 38.7768 79.7346 38.1894 79.6813 37.9758C79.5747 37.5485 78.7203 37.3077 78.6132 37.7883C78.5864 38.1354 78.7462 38.7764 79.2002 38.7766ZM61.1685 53.3738C61.5423 53.5075 61.9432 52.8402 61.7564 52.5464C61.463 51.8252 60.5811 53.2934 61.1685 53.3738ZM53.2624 57.6156C53.0489 57.2149 52.2212 57.081 52.0074 57.5882C51.5263 58.389 53.7158 58.5237 53.2624 57.6156ZM76.2353 40.5375C76.2353 40.5375 76.2888 40.2972 76.2622 40.1904C76.2355 40.0835 76.0488 39.7897 75.8351 39.843C75.4345 40.0564 75.7547 40.4304 75.7814 40.5373C75.9148 40.6174 76.1285 40.5642 76.2353 40.5375ZM56.6008 56.4423C56.2275 55.4007 53.6899 57.055 54.357 57.9098C55.0242 58.7647 56.9208 57.2703 56.6008 56.4423ZM70.7597 43.6055C70.1989 43.632 70.626 43.9793 70.6258 44.4332C70.6522 44.994 69.0767 45.0466 69.5837 45.7144C69.904 46.0884 70.3581 45.6347 70.6253 45.3411C70.8123 45.181 71.0795 44.8874 71.2931 44.8341C72.1744 44.7277 72.522 43.8468 73.3499 43.5267C73.6704 43.4468 73.9376 43.1532 74.2047 42.8596C74.4719 42.566 75.1397 42.059 74.499 41.7649C73.7515 41.4975 72.9499 42.3783 72.2555 42.7785C71.748 43.0186 71.4273 43.5525 70.7597 43.6055ZM73.1358 44.4879C72.9221 44.5412 72.7618 44.8081 72.5748 44.9683C72.281 45.155 71.9872 45.3418 71.6933 45.5286C71.1859 45.7687 70.6517 45.9019 70.1976 46.3556C69.4496 46.9961 67.7937 47.6361 68.2205 48.4374C68.8874 49.7462 76.4205 44.0089 75.8335 43.0206C75.2732 42.1392 74.338 43.3937 73.8838 43.8474C73.7501 44.2212 73.5631 44.3813 73.1358 44.4879ZM52.8622 56.9211C53.0758 56.8678 53.2628 56.7077 53.2095 56.494C53.1829 56.3872 53.0494 56.307 52.9426 56.3337C52.7289 56.387 52.5686 56.6539 52.6219 56.8675C52.7287 56.8409 52.7554 56.9477 52.8622 56.9211ZM51.9508 63.7298C51.8973 63.9701 51.4165 64.317 51.7101 64.5842C51.977 64.7445 52.1374 64.4776 52.2175 64.3441C53.3931 63.1431 54.5686 61.9421 55.4505 60.4739C55.5307 60.3404 55.6109 60.2069 55.4774 60.1267C55.3173 59.9397 54.9433 60.26 54.7832 60.073C54.623 59.886 54.997 59.5657 54.8636 59.4856C54.8369 59.3787 54.7035 59.2986 54.6233 59.432C53.3409 60.6597 52.8061 62.1548 51.9508 63.7298ZM48.9062 64.7162C48.6391 65.0098 48.7457 65.4371 49.0928 65.464C49.1996 65.4374 49.3331 65.5176 49.4132 65.3841C49.6002 65.224 49.3067 64.9568 49.2267 64.6363C49.1199 64.6629 48.8796 64.6094 48.9062 64.7162ZM119.481 12.3881C119.294 12.0943 118.947 12.0674 118.707 12.0139C117.719 12.1469 117.158 13.0812 116.677 13.8821C116.516 14.149 116.009 14.843 116.409 15.0835C117.61 15.8051 120.308 13.8839 119.481 12.3881ZM48.5334 62.7668C48.2931 62.7132 47.9457 63.1403 47.999 63.354C48.2391 63.8614 49.0941 62.7404 48.5334 62.7668ZM52.5139 59.1639C51.2584 60.0445 51.4188 59.7775 50.4838 60.5781C50.1098 60.8984 50.8038 61.4061 51.0707 61.5664C51.8982 62.1543 52.059 60.9795 52.4064 60.5524C52.5934 60.3923 52.5401 60.1786 52.8606 60.0987C53.6083 59.9121 54.7037 58.8446 54.3035 58.1501C53.9566 57.6693 53.4489 58.3633 53.1817 58.6569C52.8879 58.8437 52.7275 59.1106 52.5139 59.1639ZM49.0418 60.7109C49.362 61.0849 50.3503 60.498 50.1102 59.9905C49.7367 59.4028 48.5881 60.2567 49.0418 60.7109ZM50.2428 61.8864C49.869 61.7527 49.4684 61.9662 49.6551 62.26C49.7351 62.5805 50.2692 62.4472 50.4296 62.1803C50.4296 62.1803 50.2694 61.9932 50.2428 61.8864ZM51.3891 65.572C51.496 65.5453 51.6563 65.2784 51.5228 65.1982C51.4962 65.0914 51.2825 65.1447 51.1757 65.1713C51.0689 65.198 50.9887 65.3315 51.0154 65.4383C51.1488 65.5185 51.2823 65.5986 51.3891 65.572ZM100.839 19.9889C100.732 20.0156 100.652 20.149 100.785 20.2292C100.812 20.336 101.026 20.2828 101.132 20.2561C101.132 20.2561 101.319 20.096 101.159 19.909C101.026 19.8288 100.919 19.8555 100.839 19.9889ZM105.405 20.0981C104.711 19.5904 105.379 18.6294 106.287 18.1759C106.394 18.1493 106.661 17.8557 106.634 17.7488C106.261 17.1612 103.697 18.2547 104.15 19.1628C104.577 19.9641 104.844 19.6705 104.951 20.5518C104.977 21.1125 104.39 21.4861 103.989 21.6995C102.947 22.0728 102.066 23.087 102.092 24.1018C102.118 24.2086 102.172 24.4222 102.412 24.4758C102.893 24.5828 103.267 23.8086 103.747 23.9157C104.442 23.9695 104.389 23.3019 104.896 23.0618C105.11 23.0085 105.19 22.875 105.43 22.9286C106.151 23.0891 106.952 22.6623 106.686 22.048C106.446 21.5405 105.244 22.1808 105.191 21.5132C105.084 21.0859 105.858 21.0062 106.152 20.8194C106.446 20.6326 106.767 20.5527 106.954 20.3926C107.728 19.8589 108.369 19.2451 109.357 19.1121C109.678 19.0321 110.159 18.6852 109.625 18.3645C108.103 17.7229 106.633 20.9265 105.405 20.0981ZM108.851 17.0824C108.424 16.735 107.596 17.509 107.703 17.9363C108.129 18.7376 109.278 17.4297 108.851 17.0824ZM101.773 20.5502C101.906 21.0843 103.108 20.898 103.055 20.2304C102.895 19.5894 101.64 20.016 101.773 20.5502ZM113.284 16.2035C112.777 15.9896 112.403 15.8559 111.896 16.0959C111.495 16.3094 110.694 16.2823 110.587 16.7628C110.533 17.0031 110.667 17.5373 111.121 17.5375C111.788 17.4844 111.842 16.7902 112.323 16.8972C112.67 16.9241 112.91 16.9776 113.23 16.8977C113.337 16.8711 113.524 16.7109 113.604 16.5775C113.578 16.4706 113.418 16.2836 113.284 16.2035ZM112.164 14.4405C111.95 14.4938 112.03 14.8143 112.083 15.0279C112.083 15.0279 112.35 15.1883 112.43 15.0548C112.511 14.9213 112.591 14.7879 112.564 14.681C112.431 14.6009 112.244 14.307 112.164 14.4405ZM81.2574 36.5613C81.631 37.149 82.3526 35.9478 81.9521 35.7072C81.8187 35.627 81.6583 35.894 81.5781 36.0274C81.498 36.1609 81.0973 36.3743 81.2574 36.5613ZM115.822 14.0952C115.689 14.0151 115.341 13.9882 115.128 14.0415C114.487 14.6553 112.937 15.7226 114.005 16.364C114.165 16.551 114.566 16.3376 114.646 16.2041C115.1 15.7504 115.528 15.1899 115.848 14.656C115.955 14.6294 115.956 14.1754 115.822 14.0952ZM91.3561 26.553C91.2493 26.5796 91.1425 26.6063 91.0889 26.8466C90.9015 27.9146 92.5036 27.9688 92.9578 27.5151C94.1333 26.314 92.6382 25.7792 91.3561 26.553ZM95.3879 27.2493C95.3077 27.3828 95.2275 27.5162 95.1473 27.6497C94.8 28.0768 94.5594 28.4772 94.7995 28.9847C95.0129 29.3853 94.7191 29.5721 94.2385 29.465C94.105 29.3848 93.9449 29.1978 93.7579 29.358C93.1703 29.7315 93.7841 30.3727 94.2647 30.4797C94.7453 30.5868 95.1992 30.587 95.5199 30.0531C95.7605 29.6527 96.1611 29.4393 96.5618 29.2259C96.9624 29.0125 97.817 28.7993 97.4168 28.1048C97.23 27.811 96.6426 27.7306 96.5627 27.4101C96.3762 26.6623 96.857 26.3154 96.59 26.1551C96.2163 26.0214 95.5218 26.4216 95.3079 26.9288C95.4414 27.009 95.3612 27.1425 95.3879 27.2493ZM80.4299 35.9735C80.67 36.4809 81.5251 35.3599 81.0445 35.2528C80.6707 35.1191 80.35 35.653 80.4299 35.9735ZM93.3037 29.8117C92.3697 28.7965 91.3543 30.1845 91.9414 30.7189C92.8222 31.5204 93.9176 30.4529 93.3037 29.8117ZM99.982 24.7416C100.089 24.7149 100.169 24.5814 100.036 24.5013C100.009 24.3944 99.8754 24.3143 99.6884 24.4744C99.5816 24.501 99.6349 24.7147 99.6615 24.8215C99.795 24.9017 99.9018 24.875 99.982 24.7416ZM89.7788 30.2371C89.3517 29.8898 88.844 30.5838 88.8171 30.9309C88.8438 31.0377 88.8704 31.1446 89.0039 31.2247C89.3777 31.3584 90.3393 30.6647 89.7788 30.2371ZM94.1602 25.9669C94.2936 26.0471 94.5073 25.9938 94.5875 25.8603C94.6943 25.8337 95.1216 25.7271 94.9615 25.5401C94.8282 25.006 93.8399 25.5929 94.1602 25.9669ZM67.1812 44.2713C67.555 44.405 67.9554 44.6455 68.2492 44.4587C68.6232 44.1385 68.5968 43.5777 68.3032 43.3105C68.1164 43.0167 67.4755 43.1766 67.1548 43.7105C67.0746 43.844 67.0744 44.2979 67.1812 44.2713ZM88.6125 13.2804C88.3191 12.5592 87.0636 13.4398 87.3303 14.0541C87.6772 14.5349 88.7457 13.8145 88.6125 13.2804ZM89.5677 25.297C89.8615 25.1103 90.3154 25.1105 90.2355 24.79C90.1822 24.5764 89.8884 24.7631 89.7549 24.683C89.5412 24.7363 89.1675 24.6026 89.0071 24.8695C88.74 25.1631 89.0602 25.5371 89.5677 25.297ZM89.8149 11.7322C89.4142 11.9456 89.6809 12.5599 89.227 12.5597C89.1202 12.5863 88.8263 12.7731 88.7728 13.0134C88.9591 14.2151 91.0692 13.1214 90.9628 12.2401C91.0432 11.6527 90.2155 11.5188 89.8149 11.7322ZM91.5171 24.9242C91.6508 24.5504 90.93 24.3898 90.9031 24.737C90.8496 24.9773 91.4101 25.4048 91.5171 24.9242ZM78.2508 15.4113C78.1706 15.5448 78.2239 15.7584 78.3573 15.8386C78.3573 15.8386 78.4642 15.812 78.571 15.7853C78.6512 15.6518 78.5979 15.4382 78.4644 15.358C78.3576 15.3847 78.2508 15.4113 78.2508 15.4113ZM73.3892 18.6666C73.6293 19.174 74.0568 18.6135 74.2172 18.3466C74.4042 18.1864 75.0182 18.3737 75.1519 17.9999C75.2055 17.7596 75.7129 17.5195 75.2323 17.4125C74.4046 17.2786 73.2826 18.2393 73.3892 18.6666ZM89.7025 22.6535C90.3694 23.9623 92.6134 22.0409 92.3203 20.8658C92.267 20.6521 91.7062 20.6786 91.626 20.812C91.3589 21.1056 91.4388 21.4261 91.2518 21.5862C90.5571 22.4404 89.4092 21.9324 89.7025 22.6535ZM92.1579 25.2182C92.1845 25.3251 92.2913 25.2984 92.3982 25.2718C92.9056 25.0317 93.9208 24.0976 93.2801 23.8036C92.8797 23.563 92.5321 24.4441 92.2649 24.7377C92.0779 24.8978 92.0244 25.1381 92.1579 25.2182ZM84.4098 33.7325C83.6358 32.9043 81.4724 33.7844 81.6055 34.7724C81.9785 36.268 85.4507 34.721 84.4098 33.7325ZM80.0054 30.6327C80.0054 30.6327 80.1924 30.4726 80.1658 30.3658C80.1391 30.259 79.9255 30.3122 79.9255 30.3122C79.8186 30.3389 79.7385 30.4724 79.7651 30.5792C79.7918 30.686 80.0054 30.6327 80.0054 30.6327ZM94.295 23.3234C94.2149 23.4569 94.3483 23.5371 94.375 23.6439C94.6686 23.9111 95.817 23.5111 95.2298 22.9768C94.9096 22.6028 94.3486 23.0831 94.295 23.3234ZM87.8068 22.3321C87.807 21.8782 86.8192 21.5573 86.7121 22.0379C86.4714 22.8922 87.8865 23.1066 87.8068 22.3321ZM88.2858 25.6168C88.1789 25.6435 88.2056 25.7503 88.2322 25.8571C88.2322 25.8571 88.3391 25.8305 88.4459 25.8038C88.4192 25.697 88.5261 25.6703 88.4994 25.5635C88.366 25.4833 88.2591 25.51 88.2858 25.6168ZM59.8618 49.9552C59.2477 49.768 58.6596 51.0494 59.2737 51.2367C60.1813 51.6911 60.6093 50.2226 59.8618 49.9552ZM67.7002 21.3339C67.7804 21.2005 67.8606 21.067 67.7271 20.9868C67.7004 20.88 67.4868 20.9333 67.4868 20.9333C67.4066 21.0668 67.2196 21.2269 67.3531 21.3071C67.5398 21.6009 67.7268 21.4408 67.7002 21.3339ZM98.2234 17.2372C98.3302 17.2106 98.5172 17.0505 98.5974 16.917C98.6776 16.7835 98.5175 16.5965 98.5175 16.5965C98.2772 16.543 97.9301 16.5161 97.7164 16.5694C97.3693 16.5425 96.7816 16.9161 97.1019 17.2901C97.3688 17.4504 97.8763 17.2103 98.2234 17.2372ZM72.6146 19.2002C72.5879 19.0934 72.3476 19.0399 72.2408 19.0665C72.134 19.0932 72.1606 19.2 72.1873 19.3068C72.2139 19.4137 72.4276 19.3604 72.561 19.4405C72.561 19.4405 72.6412 19.3071 72.6146 19.2002ZM70.4243 20.4274C70.7981 20.5611 71.4124 20.2944 71.5461 19.9207C71.5194 19.8138 71.4928 19.707 71.4928 19.707C71.119 19.5733 70.4781 19.7332 70.3444 20.107C70.2376 20.1336 70.2909 20.3473 70.4243 20.4274ZM67.9134 22.1885C68.0202 22.1619 68.1004 22.0284 68.0737 21.9216C68.0471 21.8148 67.887 21.6278 67.8068 21.7613C67.7 21.7879 67.7533 22.0016 67.7799 22.1084C67.8066 22.2152 67.9134 22.1885 67.9134 22.1885ZM95.4196 17.3693C95.0189 17.5827 94.2447 17.2085 94.0309 17.7157C93.6031 18.7302 95.1522 18.1169 95.6863 17.9836C96.4074 17.6903 97.1556 16.5958 96.3013 16.3551C95.9008 16.1145 95.8202 17.1559 95.4196 17.3693ZM100.926 6.23709C100.792 6.15692 100.579 6.21021 100.499 6.34369C100.258 6.7441 100.391 7.27824 100.845 7.27847C101.273 7.17187 101.22 6.50427 100.926 6.23709ZM94.9971 7.94307C94.9971 7.94307 95.2374 7.9966 95.2108 7.88977C95.3176 7.86312 95.5046 7.703 95.3445 7.516C95.1843 7.329 94.8905 7.51577 94.9172 7.62259C94.9172 7.62259 94.9705 7.83624 94.9971 7.94307ZM94.6498 8.37012C94.9705 7.83623 94.0628 7.38184 93.8489 7.88908C93.7152 8.26285 94.3826 8.66372 94.6498 8.37012ZM95.8512 8.63776C96.0114 8.82476 96.2517 8.8783 96.4387 8.71818C96.5455 8.69153 96.5188 8.58469 96.4922 8.47787C96.3321 8.29087 96.0918 8.23734 95.9048 8.39747C95.9048 8.39747 95.8246 8.53093 95.8512 8.63776ZM99.1897 7.46455C99.2698 7.33108 99.3234 7.09077 99.2967 6.98394C99.2701 6.87712 99.0298 6.8236 98.8428 6.98372C98.7626 7.1172 98.8159 7.33084 98.8425 7.43766L99.1897 7.46455ZM110.459 5.33404C110.673 4.8268 109.231 4.95959 109.578 5.44041C109.765 5.73424 110.299 5.60099 110.459 5.33404ZM108.83 5.62695C108.456 5.9472 107.949 6.18725 107.708 6.58767C107.468 6.98809 107.921 7.44227 108.242 7.36232C108.776 7.22908 109.284 6.53507 109.15 6.00095C109.124 5.89412 108.83 5.62695 108.83 5.62695ZM107.068 4.93179C107.068 5.38574 107.735 6.24056 108.109 5.46637C108.27 5.19942 108.243 4.63864 107.87 4.50494C107.603 4.34459 107.068 4.47785 107.068 4.93179ZM106.8 7.04115C106.507 6.77398 106.132 7.54818 105.892 7.49465C105.278 7.30742 104.877 7.52083 104.37 7.7609C103.889 8.10779 102.928 7.89367 102.874 8.58792C102.9 9.14868 103.782 9.04233 103.862 9.3628C103.915 9.57645 103.888 9.92356 103.701 10.0837C103.087 10.3504 102.553 9.57576 101.966 9.49535C101.832 9.41518 101.592 9.36165 101.538 9.60195C101.485 9.84224 102.419 9.94953 102.179 10.3499C101.938 10.7504 101.378 10.3228 101.378 10.3228C101.138 9.81537 100.737 10.0288 100.523 10.0821C100.123 10.2955 99.9089 10.8027 99.3482 10.8292C98.4936 11.0424 96.8914 10.9881 97.265 11.5758C97.6385 12.1634 98.5999 11.9236 98.3594 12.324C97.1832 14.8869 99.4267 13.8733 99.9071 14.4343C100.041 14.5145 100.308 14.6748 100.414 14.6482C100.521 14.6215 100.788 14.3279 100.762 14.2211C100.522 13.7136 100.789 12.9661 100.228 12.5386C99.7748 12.0844 99.6951 11.31 100.389 11.3637C101.404 11.3376 102.045 11.1777 102.953 11.1781C104.181 11.0986 105.036 10.4315 106.291 10.0049C106.906 9.73817 107.333 9.17764 108.001 9.12458C108.214 9.07128 108.535 8.99134 108.588 8.75104C108.722 8.37727 108.054 8.43034 107.761 8.16316C107.36 7.92264 106.986 8.24288 106.666 7.86888C106.56 7.44158 107.04 7.09468 106.8 7.04115ZM94.5921 16.7814C94.9925 17.022 96.0341 16.6487 95.6605 16.061C95.2071 15.1529 93.8981 16.2737 94.5921 16.7814ZM101.352 7.94629C101.272 8.07976 101.406 8.15993 101.512 8.13328C101.726 8.07999 101.966 8.13351 102.047 8.00004C102.127 7.86657 101.993 7.7864 101.993 7.7864C101.726 7.62604 101.406 7.70599 101.352 7.94629ZM92.0825 15.8189C92.2959 16.2195 93.2307 15.8729 92.9906 15.3654C92.7772 14.9647 91.8425 15.3114 92.0825 15.8189ZM66.3379 22.2411C66.6048 22.4015 67.1925 22.028 67.0859 21.6007C66.8192 20.9864 66.071 22.0808 66.3379 22.2411ZM85.4335 16.0024C85.5938 15.7355 85.407 15.4416 85.4606 15.2013C85.7546 14.5606 87.1165 14.5613 86.9299 13.8136C86.77 13.1726 85.8617 14.08 85.4877 14.4003C84.9 14.7738 83.9386 15.0137 83.8849 15.7079C83.9379 16.3755 85.2998 16.3762 85.4335 16.0024ZM99.5317 17.4782C99.7454 17.4249 99.9859 17.0245 99.8258 16.8375C99.3721 16.3833 99.3181 17.5315 99.5317 17.4782ZM102.418 13.5811C102.444 13.234 103.593 13.288 103.353 12.7805C103.139 12.3798 102.658 12.7267 102.578 12.8602C102.284 13.047 102.097 13.2071 101.937 13.474C101.803 13.8478 101.803 14.3017 101.536 14.5953C101.269 14.8889 100.735 15.0222 100.334 15.2356C99.8531 15.5825 99.0787 15.6622 98.8915 16.2763C98.8113 16.4097 98.8912 16.7302 99.1315 16.7837C99.6121 16.8908 99.826 16.3836 100.227 16.1701C100.627 15.9567 101.108 15.6098 101.509 15.3964C102.016 15.1563 102.55 15.0231 102.871 14.4892C102.951 14.3557 103.298 14.3826 103.485 14.2225C103.699 14.1692 104.019 14.0893 104.073 13.849C104.127 13.1547 102.364 14.2753 102.418 13.5811ZM110.486 4.53298C110.567 4.3995 110.54 4.29268 110.513 4.18585C110.513 4.18585 110.353 3.99886 110.166 4.15898C110.086 4.29246 110.139 4.5061 110.166 4.61292C110.273 4.58628 110.486 4.53298 110.486 4.53298ZM92.5342 20.3585C92.4007 20.2784 91.3591 20.6517 91.1723 20.3579C91.1457 20.251 91.119 20.1442 91.2259 20.1176C91.5732 19.6905 92.321 19.504 92.8284 19.2639C93.3626 19.1307 94.004 18.0629 94.5912 18.5972C94.8581 18.7576 94.3773 19.1045 94.4039 19.2113C94.4306 19.3181 94.5374 19.2915 94.5374 19.2915C95.1783 19.1316 95.7926 18.8648 96.3803 18.4913C97.2884 18.0378 99.7451 17.8789 101.294 16.8115C101.882 16.438 104.073 13.849 104.073 13.849C104.34 13.5554 104.234 13.1281 104.554 13.0481C105.168 12.7814 105.943 13.1556 106.557 12.435C106.744 12.2749 107.065 12.1949 107.198 12.2751C107.812 12.4623 108.213 12.2489 108.72 12.0088C109.014 11.8221 109.441 11.7155 109.762 11.6355C109.869 11.6089 110.002 11.6891 110.082 11.5556C110.617 10.5144 111.925 10.7554 112.673 10.1149C113.341 9.60792 114.035 10.1156 114.703 10.0626C114.943 10.1161 115.931 10.437 115.743 11.0511C115.556 11.6652 114.569 10.8903 114.328 11.2907C113.874 12.1984 113.206 12.2514 113.366 12.8924C113.446 13.2128 114.14 13.2666 114.007 13.6404C113.98 13.9875 113.525 14.4412 113.152 14.3075C112.805 14.2806 113.018 13.7734 112.751 13.613C112.618 13.5329 112.538 13.6663 112.431 13.693C112.111 13.7729 111.924 13.9331 111.603 14.013C110.561 14.3863 110.882 13.8524 110.215 12.9976C109.868 12.5168 108.853 12.9969 109.013 13.6378C109.093 13.9583 109.681 13.5848 109.734 13.7984C110.268 14.5731 108.157 16.5747 107.464 15.1591C107.224 14.6516 108.692 14.6257 108.532 13.9847C108.346 13.237 107.144 13.8772 106.716 14.4377C106.449 14.7313 106.155 14.9181 105.782 14.7844C105.274 14.5705 105.007 14.8641 104.74 15.1577C104.393 15.5848 103.725 16.0918 103.858 16.6259C104.071 17.0266 104.793 16.7332 105.086 17.0004C105.246 17.1874 103.11 18.1743 103.056 17.5067C103.003 17.2931 103.644 17.1332 103.457 16.8393C103.377 16.5189 102.95 16.6255 102.736 16.6788C101.909 16.9988 101.214 17.399 100.52 17.7991C100.413 17.8258 99.9319 18.1727 100.119 18.4665C100.439 18.8405 100.813 18.0663 101.16 18.0932L101.294 18.1734C101.32 18.7341 100.652 19.2412 100.305 19.6682C100.038 19.9618 100.011 20.3089 99.9841 20.6561C99.9569 21.4571 99.6094 22.3381 98.7814 22.6581C98.0603 22.9515 97.3121 24.0459 96.6181 23.5382C95.8439 23.164 97.2861 22.5773 97.5533 22.2837C97.9006 21.8566 98.8621 21.6168 98.622 21.1093C98.5687 20.8957 98.1947 21.2159 98.0612 21.1357C97.5273 20.815 98.0086 19.5602 97.3945 19.373C97.0208 19.2393 96.7802 19.6397 96.5932 19.7998C96.1124 20.1467 95.7118 20.3602 95.0442 20.4132C94.6971 20.3864 94.4299 20.6799 94.2429 20.8401C93.7352 21.5341 93.5486 20.7863 92.5342 20.3585ZM112.191 12.7316C111.844 12.7047 111.363 13.0516 111.336 13.3987C111.363 13.5055 111.39 13.6123 111.496 13.5857C111.844 13.6126 112.324 13.2657 112.351 12.9186C112.458 12.8919 112.325 12.8117 112.191 12.7316ZM112.142 3.439C112.249 3.41235 112.303 3.17207 112.169 3.09189C112.143 2.98507 111.876 2.8247 111.796 2.95818C111.609 3.1183 111.769 3.30531 111.795 3.41213C111.929 3.49231 112.062 3.57247 112.142 3.439ZM108.992 2.18239C109.019 1.83527 108.565 1.83504 108.432 1.75487C107.951 1.64781 107.364 1.5674 107.123 1.96782C106.963 2.23476 107.416 2.68893 107.683 2.84928C108.244 2.82286 108.992 2.63634 108.992 2.18239ZM110.034 1.35514C110.034 1.35514 110.274 1.40866 110.381 1.38201C110.461 1.24853 110.648 1.08841 110.515 1.00823C110.488 0.90141 110.114 0.767711 109.927 0.927832C109.821 0.954481 109.981 1.14149 110.034 1.35514Z" fill="currentColor"/>
</svg>
