<svg width="175" height="56" viewBox="0 0 175 56" fill="none" xmlns="http://www.w3.org/2000/svg">
<path d="M80.201 0.00866496C64.5222 1.73703 48.9669 4.82341 34.2757 10.6258C23.2882 14.9467 8.72055 20.996 2.3009 31.4897C-12.8841 55.9338 51.6829 55.6868 61.8062 55.3165C93.2872 54.2054 125.262 50.7486 154.521 38.6501C161.434 35.8106 171.187 31.4897 173.903 23.9589C176.866 15.9344 168.965 10.5023 162.422 8.15669C150.447 3.95922 136.62 4.32959 124.151 4.69995C103.164 5.19377 82.5466 8.28015 61.9296 11.2431C60.6951 11.3665 61.3124 13.2183 62.4235 12.9714C88.9663 9.26779 115.879 5.31723 142.793 6.79869C151.434 7.29251 165.385 7.90978 170.94 15.9344C177.483 25.3169 162.916 32.8477 156.002 35.9341C133.41 46.1808 107.608 50.6252 83.0404 52.477C69.09 53.5881 55.0162 54.3288 41.0657 53.5881C34.1523 53.2177 27.2388 52.2301 20.5722 50.7486C14.5229 49.5141 3.53544 46.6746 1.80708 39.6377C-0.168203 31.7366 10.202 24.9466 15.634 21.4898C22.1771 17.2924 29.2141 13.9591 36.4979 11.1196C50.5718 5.81105 65.3864 2.84813 80.201 1.24321C81.0651 1.11976 81.0651 -0.11479 80.201 0.00866496Z" fill="#953600"/>
<path d="M80.201 0.00866496C64.5222 1.73703 48.9669 4.82341 34.2757 10.6258C23.2882 14.9467 8.72055 20.996 2.3009 31.4897C-12.8841 55.9338 51.6829 55.6868 61.8062 55.3165C93.2872 54.2054 125.262 50.7486 154.521 38.6501C161.434 35.8106 171.187 31.4897 173.903 23.9589C176.866 15.9344 168.965 10.5023 162.422 8.15669C150.447 3.95922 136.62 4.32959 124.151 4.69995C103.164 5.19377 82.5466 8.28015 61.9296 11.2431C60.6951 11.3665 61.3124 13.2183 62.4235 12.9714C88.9663 9.26779 115.879 5.31723 142.793 6.79869C151.434 7.29251 165.385 7.90978 170.94 15.9344C177.483 25.3169 162.916 32.8477 156.002 35.9341C133.41 46.1808 107.608 50.6252 83.0404 52.477C69.09 53.5881 55.0162 54.3288 41.0657 53.5881C34.1523 53.2177 27.2388 52.2301 20.5722 50.7486C14.5229 49.5141 3.53544 46.6746 1.80708 39.6377C-0.168203 31.7366 10.202 24.9466 15.634 21.4898C22.1771 17.2924 29.2141 13.9591 36.4979 11.1196C50.5718 5.81105 65.3864 2.84813 80.201 1.24321C81.0651 1.11976 81.0651 -0.11479 80.201 0.00866496Z" fill="#CA2400"/>
<path d="M80.201 0.00866496C64.5222 1.73703 48.9669 4.82341 34.2757 10.6258C23.2882 14.9467 8.72055 20.996 2.3009 31.4897C-12.8841 55.9338 51.6829 55.6868 61.8062 55.3165C93.2872 54.2054 125.262 50.7486 154.521 38.6501C161.434 35.8106 171.187 31.4897 173.903 23.9589C176.866 15.9344 168.965 10.5023 162.422 8.15669C150.447 3.95922 136.62 4.32959 124.151 4.69995C103.164 5.19377 82.5466 8.28015 61.9296 11.2431C60.6951 11.3665 61.3124 13.2183 62.4235 12.9714C88.9663 9.26779 115.879 5.31723 142.793 6.79869C151.434 7.29251 165.385 7.90978 170.94 15.9344C177.483 25.3169 162.916 32.8477 156.002 35.9341C133.41 46.1808 107.608 50.6252 83.0404 52.477C69.09 53.5881 55.0162 54.3288 41.0657 53.5881C34.1523 53.2177 27.2388 52.2301 20.5722 50.7486C14.5229 49.5141 3.53544 46.6746 1.80708 39.6377C-0.168203 31.7366 10.202 24.9466 15.634 21.4898C22.1771 17.2924 29.2141 13.9591 36.4979 11.1196C50.5718 5.81105 65.3864 2.84813 80.201 1.24321C81.0651 1.11976 81.0651 -0.11479 80.201 0.00866496Z" fill="#D89477"/>
</svg>
