<svg width="24" height="24" viewBox="0 0 24 24" fill="none" xmlns="http://www.w3.org/2000/svg">
<path fill-rule="evenodd" clip-rule="evenodd" d="M22.9517 6.76476C22.8956 5.53953 22.701 4.70281 22.4165 3.97076C22.1276 3.20271 21.6744 2.50702 21.0889 1.93199C20.514 1.34642 19.8181 0.893105 19.0501 0.604009C18.3179 0.319656 17.4813 0.125228 16.2561 0.0695515C15.0286 0.0133483 14.6364 0 11.5104 0C8.38447 0 7.99228 0.0133483 6.76476 0.0692002C5.53953 0.125228 4.70298 0.319832 3.97076 0.604361C3.20271 0.89328 2.50702 1.34642 1.93199 1.93199C1.34642 2.50684 0.893105 3.20253 0.604009 3.97058C0.319656 4.70281 0.125228 5.53953 0.0695515 6.76459C0.0133483 7.99228 0 8.3843 0 11.5103C0 14.6364 0.0133483 15.0286 0.0695515 16.2561C0.125403 17.4811 0.320007 18.3179 0.604536 19.0501C0.893456 19.818 1.34659 20.5138 1.93216 21.0887C2.50702 21.6743 3.20288 22.1274 3.97094 22.4163C4.70298 22.701 5.53971 22.8954 6.76494 22.9515C7.99263 23.0075 8.38465 23.0207 11.5106 23.0207C14.6366 23.0207 15.0287 23.0075 16.2563 22.9515C17.4815 22.8954 18.318 22.701 19.0503 22.4163C20.5964 21.8185 21.8186 20.5962 22.4165 19.0501C22.7012 18.3179 22.8956 17.4811 22.9517 16.2561C23.0075 15.0284 23.0209 14.6364 23.0209 11.5104C23.0209 8.3843 23.0075 7.99228 22.9517 6.76476ZM20.8797 16.1618C20.8286 17.2841 20.641 17.8935 20.4834 18.2991C20.0962 19.303 19.3028 20.0963 18.2989 20.4836C17.8934 20.6412 17.2839 20.8287 16.1616 20.8799C14.9481 20.9354 14.584 20.947 11.5104 20.947C8.43664 20.947 8.07272 20.9354 6.85908 20.8799C5.73695 20.8287 5.12749 20.6412 4.72178 20.4836C4.22192 20.299 3.76966 20.0048 3.39836 19.6225C3.01601 19.2512 2.72182 18.7991 2.53723 18.2991C2.37968 17.8935 2.1921 17.2841 2.14099 16.1618C2.08567 14.9481 2.0739 14.584 2.0739 11.5106C2.0739 8.43699 2.08567 8.07307 2.14099 6.85926C2.19228 5.73695 2.37968 5.12749 2.53723 4.72195C2.72182 4.22192 3.01618 3.76966 3.39836 3.39836C3.76966 3.01601 4.22192 2.72182 4.72195 2.5374C5.12749 2.37968 5.73695 2.19228 6.85926 2.14099C8.07289 2.08567 8.43699 2.0739 11.5104 2.0739C14.5837 2.0739 14.9478 2.08567 16.1616 2.14117C17.2839 2.19228 17.8932 2.37986 18.2989 2.5374C18.7988 2.72199 19.251 3.01618 19.6223 3.39836C20.0047 3.76966 20.2989 4.22192 20.4833 4.72195C20.641 5.12749 20.8286 5.73695 20.8797 6.85926C20.935 8.07289 20.9468 8.43699 20.9468 11.5104C20.9468 14.584 20.9352 14.948 20.8797 16.1618ZM11.5103 5.59961C8.2459 5.59961 5.59961 8.24608 5.59961 11.5104C5.59961 14.7748 8.2459 17.4211 11.5103 17.4211C14.7748 17.4211 17.4211 14.7748 17.4211 11.5104C17.4211 8.24608 14.7748 5.59961 11.5103 5.59961ZM11.5103 15.3472C9.3914 15.347 7.67351 13.6293 7.67369 11.5103C7.67369 9.3914 9.3914 7.67351 11.5104 7.67351C13.6295 7.67369 15.3472 9.3914 15.3472 11.5103C15.3472 13.6293 13.6293 15.3472 11.5103 15.3472ZM17.6548 6.74694C18.4176 6.74694 19.036 6.12853 19.036 5.36575C19.036 4.60279 18.4176 3.98438 17.6548 3.98438C16.8918 3.98438 16.2734 4.60279 16.2734 5.36575C16.2734 6.12853 16.8918 6.74694 17.6548 6.74694Z" fill="currentColor"/>
</svg>
