<svg width="78" height="31" viewBox="0 0 78 31" fill="none" xmlns="http://www.w3.org/2000/svg">
<path d="M43.606 22.18C41.854 22.18 40.384 21.508 39.196 20.164C38.02 18.82 37.432 17.248 37.432 15.448C37.432 13.6 37.984 12.076 39.088 10.876C40.192 9.664 41.638 9.058 43.426 9.058C44.842 9.058 46.066 9.4 47.098 10.084C48.13 10.756 48.646 11.56 48.646 12.496C48.646 12.916 48.508 13.258 48.232 13.522C47.968 13.786 47.608 13.918 47.152 13.918C46.744 13.918 46.378 13.798 46.054 13.558C45.73 13.306 45.46 13.006 45.244 12.658C45.04 12.31 44.83 11.962 44.614 11.614C44.398 11.254 44.134 10.954 43.822 10.714C43.522 10.462 43.174 10.336 42.778 10.336C42.178 10.336 41.662 10.618 41.23 11.182C40.81 11.746 40.6 12.508 40.6 13.468C40.6 15.16 41.008 16.552 41.824 17.644C42.64 18.724 43.582 19.264 44.65 19.264C45.046 19.264 45.406 19.204 45.73 19.084C46.066 18.964 46.36 18.796 46.612 18.58C46.876 18.352 47.074 18.154 47.206 17.986C47.35 17.818 47.512 17.608 47.692 17.356C47.86 17.152 48.07 17.086 48.322 17.158C48.574 17.218 48.694 17.392 48.682 17.68C48.634 18.928 48.172 19.99 47.296 20.866C46.432 21.742 45.202 22.18 43.606 22.18ZM60.9064 9.22C61.1824 9.22 61.3204 9.334 61.3204 9.562V9.634C61.3204 9.802 61.1644 10.024 60.8524 10.3C60.5404 10.576 60.3004 10.87 60.1324 11.182L57.0184 16.762V20.038C57.0184 20.338 57.1504 20.638 57.4144 20.938C57.6784 21.226 57.8104 21.442 57.8104 21.586V21.658C57.8104 21.886 57.6664 22 57.3784 22H53.4184C53.1304 22 52.9864 21.886 52.9864 21.658V21.586C52.9864 21.442 53.1064 21.226 53.3464 20.938C53.5864 20.638 53.7064 20.338 53.7064 20.038V17.05L50.0704 11.182C49.9144 10.942 49.7284 10.726 49.5124 10.534C49.2964 10.33 49.1284 10.168 49.0084 10.048C48.8884 9.916 48.8284 9.778 48.8284 9.634V9.562C48.8284 9.334 48.9724 9.22 49.2604 9.22H54.1384C54.4264 9.22 54.5704 9.334 54.5704 9.562V9.634C54.5704 9.766 54.4744 9.91 54.2824 10.066C54.0904 10.222 53.9284 10.39 53.7964 10.57C53.6764 10.75 53.6764 10.954 53.7964 11.182L56.1904 15.502L58.5664 11.182C58.6984 10.942 58.6984 10.732 58.5664 10.552C58.4464 10.372 58.2844 10.21 58.0804 10.066C57.8884 9.91 57.7924 9.766 57.7924 9.634V9.562C57.7924 9.334 57.9364 9.22 58.2244 9.22H60.9064ZM76.382 20.02C76.442 20.32 76.58 20.62 76.796 20.92C77.012 21.208 77.12 21.43 77.12 21.586V21.658C77.12 21.886 76.976 22 76.688 22H72.944C72.656 22 72.512 21.886 72.512 21.658V21.586C72.512 21.466 72.632 21.256 72.872 20.956C73.112 20.644 73.202 20.332 73.142 20.02L72.062 13.738L69.308 21.46C69.188 21.808 68.972 21.982 68.66 21.982C68.312 21.982 68.06 21.814 67.904 21.478L64.754 13.45L63.782 20.02C63.734 20.332 63.83 20.638 64.07 20.938C64.31 21.238 64.43 21.454 64.43 21.586V21.658C64.43 21.886 64.286 22 63.998 22H61.766C61.478 22 61.334 21.886 61.334 21.658V21.586C61.334 21.43 61.442 21.208 61.658 20.92C61.886 20.62 62.024 20.32 62.072 20.02L63.44 11.2C63.488 10.888 63.38 10.582 63.116 10.282C62.864 9.982 62.738 9.766 62.738 9.634V9.562C62.738 9.334 62.876 9.22 63.152 9.22H65.528C66.02 9.22 66.344 9.436 66.5 9.868L69.11 17.5L71.63 9.904C71.798 9.448 72.11 9.22 72.566 9.22H75.014C75.29 9.22 75.428 9.334 75.428 9.562V9.634C75.428 9.754 75.296 9.97 75.032 10.282C74.768 10.594 74.666 10.912 74.726 11.236L76.382 20.02Z" fill="white"/>
<path d="M16.5771 0.04972C16.2772 0.0673611 15.9773 0.0938237 15.6685 0.129108C14.7776 0.199676 13.9131 0.305532 13.031 0.429027C12.7135 0.473131 12.4047 0.508415 12.0784 0.543699C11.4168 0.614267 10.7993 0.781868 10.1907 0.993572C9.89074 1.09943 9.59082 1.2141 9.29091 1.33759C7.14739 2.08738 5.28615 3.34879 3.69836 5.02479C3.36316 5.36881 3.07207 5.73047 2.81626 6.10978C1.1579 9.40885 -0.218181 13.1666 0.0288087 16.8891C0.0640929 17.3566 0.117019 17.8153 0.20523 18.2828C0.425756 19.9059 0.981482 21.4319 1.7842 22.8168C2.04883 23.2755 2.34874 23.7254 2.67512 24.1488C5.65664 27.8889 10.3406 30.5353 15.2098 30.0325C15.5362 30.0148 15.8626 29.9972 16.189 29.9619C16.8417 29.9001 17.4857 29.8119 18.1296 29.6973C18.4119 29.6443 18.6853 29.5914 18.9588 29.5297C19.0999 29.4944 19.241 29.4679 19.3822 29.4326C19.391 29.4326 19.3998 29.4326 19.3998 29.4238C19.8673 29.3179 20.326 29.1856 20.7847 29.0357C20.9259 28.9916 21.067 28.9386 21.2081 28.8857C21.6845 28.7093 22.152 28.5064 22.6107 28.2771C22.7342 28.2153 22.8665 28.1447 22.99 28.083C23.6869 27.7125 24.3484 27.2803 24.9747 26.8039C25.0982 26.7069 25.2217 26.6099 25.3452 26.5129C26.2097 25.8072 26.9859 25.0045 27.6563 24.1224C27.8416 23.8754 28.0268 23.6196 28.1944 23.3637C28.9266 22.2435 29.4911 21.0173 29.8351 19.7206C29.9145 19.3678 29.9851 19.015 30.0292 18.6621C30.0998 18.274 30.1174 17.8859 30.1086 17.4977C30.0821 16.7039 30.0645 15.9188 30.038 15.1337C30.0292 14.7456 30.0204 14.3486 30.0027 13.9605C30.0292 13.4842 30.038 12.999 30.0204 12.505C30.0027 12.0111 29.9586 11.5083 29.888 11.0231C29.6499 9.74405 29.2265 8.48264 28.6266 7.30944C28.4855 7.03599 28.3355 6.77136 28.1856 6.50672C27.6299 5.58052 26.9683 4.72487 26.2185 3.97508C26.0685 3.82513 25.9186 3.68399 25.7686 3.55167C25.2923 3.12826 24.7895 2.74014 24.2514 2.39612C24.1103 2.30791 23.9691 2.2197 23.828 2.14031C23.1841 1.77865 22.5048 1.47873 21.7903 1.24938C21.6404 1.20528 21.4992 1.16117 21.3493 1.11707C21.0405 1.03768 20.7318 0.967109 20.4142 0.914184C20.229 0.852435 20.0526 0.790689 19.8673 0.720119C19.735 0.676015 19.6115 0.623088 19.4792 0.578982C19.4704 0.570161 19.4527 0.570163 19.4439 0.561341C18.5177 0.190858 17.5915 -0.126702 16.5771 0.04972Z" fill="#D89477"/>
</svg>
