<svg width="318" height="285" viewBox="0 0 318 285" fill="none" xmlns="http://www.w3.org/2000/svg">
<mask id="mask0_346_3669" style="mask-type:alpha" maskUnits="userSpaceOnUse" x="50" y="1" width="135" height="278">
<path d="M134.718 17.0221L135.204 13.1313L138.608 5.8361L132.773 1.94531L100.188 4.37705L57.3889 17.0221L51.0664 38.4214L59.3343 232.474L105.051 278.191H182.867L178.976 275.273C163.65 259.934 156.665 253.347 146.391 246.092C142.508 223.547 140.829 209.832 138.608 183.353C134.269 132.527 133.59 105.528 134.718 60.7934L136.177 47.1757L137.149 41.3395V33.5579V28.2081L136.177 23.3446L135.204 19.4538L134.718 17.0221Z" fill="#C4C4C4" stroke="black"/>
</mask>
<g mask="url(#mask0_346_3669)">
<path d="M105.092 232.112C105.474 236.746 109.13 237.101 106.284 232.797C106.052 232.494 105.368 231.347 105.092 232.112Z" fill="currentColor"/>
<path d="M94.2407 143.452C94.2407 144.235 94.2852 145.009 94.3207 145.782V145.711C94.6587 148.824 94.0628 152.533 94.9255 155.37C96.9711 154.658 95.6904 150.727 95.9305 148.966V148.886C95.7051 145.005 95.2237 141.142 94.4897 137.324C93.5381 137.893 94.4097 142.127 94.2407 143.452Z" fill="currentColor"/>
<path d="M73.0295 115.433C73.0339 115.516 73.0339 115.599 73.0295 115.682C73.0295 115.771 73.0295 115.86 73.0295 115.949V115.824C73.0295 115.94 73.0295 116.047 73.0295 116.162C73.0338 116.139 73.0338 116.115 73.0295 116.091C73.3941 123.927 73.5453 131.78 73.7499 139.625C73.7499 140.203 73.8033 140.781 73.8388 141.35C73.8426 141.326 73.8426 141.302 73.8388 141.279C73.8388 141.528 73.8388 141.786 73.8388 142.035C73.8388 142.568 73.8922 143.093 73.91 143.636V143.556C74.3991 149.621 74.3191 156.274 75.4308 162.073C77.3786 161.53 75.9111 158.773 76.0979 157.332C75.7955 153.775 75.5198 150.146 75.3597 146.535C75.3554 146.562 75.3554 146.589 75.3597 146.615C75.3597 146.188 75.3597 145.726 75.2974 145.334C75.2924 145.358 75.2924 145.382 75.2974 145.406C75.0217 138.762 75.0751 132.118 74.7371 125.474C74.7328 125.501 74.7328 125.528 74.7371 125.554C74.7327 125.483 74.7327 125.412 74.7371 125.341V125.421C74.7371 125.279 74.7371 125.136 74.7371 125.003V125.083C74.7371 124.941 74.7371 124.798 74.7371 124.665C74.7328 124.692 74.7328 124.719 74.7371 124.745C74.4347 117.915 74.2213 111.084 73.9811 104.289C73.2251 97.2717 72.647 114.312 73.0295 115.433Z" fill="currentColor"/>
<path d="M75.3315 145.816C75.327 145.838 75.327 145.86 75.3315 145.881C75.3315 145.881 75.3315 145.844 75.3315 145.816Z" fill="currentColor"/>
<path d="M76.4154 165.053C76.4154 165.053 76.282 164.973 76.2465 164.991C74.9835 166.298 76.0241 168.94 75.9885 170.665C76.0419 171.67 76.1575 173.262 77.3048 171.839C77.4979 169.54 77.1946 167.225 76.4154 165.053Z" fill="currentColor"/>
<path d="M119.403 170.193C119.491 174.685 119.509 179.185 119.643 183.677C119.794 184.21 119.331 186.051 120.247 185.607C120.995 185.073 120.594 183.917 120.719 183.125C120.719 179.932 120.719 176.73 120.799 173.538C120.888 164.252 121.252 154.949 120.897 145.673C119.545 121.028 119.091 165.898 119.403 170.193Z" fill="currentColor"/>
<path d="M120.729 190.944C120.729 190.49 120.515 188.489 120.142 189.85C120.005 191.169 120.077 192.502 120.355 193.799C121.387 193.425 120.569 191.798 120.729 190.944Z" fill="currentColor"/>
<path d="M121.343 223.105C121.788 233.556 122.286 244.006 121.948 254.474C123.958 256.484 123.033 241.916 123.291 240.6C123.167 234.134 123.158 227.65 122.633 221.202C122.304 219.281 122.58 216.942 121.69 215.252C120.57 216.577 121.521 221.149 121.343 223.105Z" fill="currentColor"/>
<path d="M112.881 95.5888C111.371 90.2072 109.426 84.9574 107.065 79.891C105.615 77.8276 97.0325 57.0336 94.7734 60.8669C98.8024 69.663 105.099 77.5252 108.39 86.7838V86.8371C109.929 90.3947 111.058 94.4236 112.641 97.8478C113.913 97.661 113.006 96.3181 112.881 95.5888Z" fill="currentColor"/>
<path d="M115.097 103.766C114.759 102.707 114.67 101.462 113.977 100.564C112.918 100.439 114.555 104.059 114.617 104.779C115.231 105.153 115.311 104.184 115.097 103.766Z" fill="currentColor"/>
<path d="M101.507 56.8462C103.233 56.6861 103.028 54.0446 101.338 56.4727C101.178 56.6417 101.285 56.8195 101.507 56.8462Z" fill="currentColor"/>
<path d="M105.118 57.0435C105.83 57.0435 106.417 56.0207 106.799 55.496C106.514 55.0602 105.91 55.3537 105.714 55.7006C105.518 56.0474 104.638 56.8034 105.118 57.0435Z" fill="currentColor"/>
<path d="M109.149 56.2342C109.736 56.2342 110.038 55.496 110.474 55.1581C110.492 55.1351 110.513 55.1143 110.536 55.0958C110.56 55.0669 110.587 55.0402 110.616 55.0158C111.016 54.411 112.635 53.3437 112.199 52.6856C111.497 52.6767 108.739 55.8162 109.149 56.2342Z" fill="currentColor"/>
<path d="M113.496 55.2487C112.766 54.7684 112.135 55.9602 111.717 56.4316C112.055 57.6056 113.576 55.9513 113.496 55.2487Z" fill="currentColor"/>
<path d="M172.729 49.5109C171.955 49.3242 170.266 51.601 171.84 51.1029C172.151 50.765 173.29 49.8845 172.729 49.5109Z" fill="currentColor"/>
<path d="M175.193 47.3398V47.3851C175.188 47.3704 175.188 47.3545 175.193 47.3398Z" fill="currentColor"/>
<path d="M68.626 113.156C70.0757 141.893 71.1786 170.7 74.1669 199.33C75.0563 207.263 76.1058 215.188 77.4666 223.059C78.0714 224.784 77.9468 231.063 80.2059 230.939C88.7352 236.133 95.2366 244.164 102.761 250.657C107.733 254.614 112.393 260.44 118.841 261.676C121.136 261.569 122.923 258.581 124.871 257.736C135.322 251.155 157.147 244.795 168.202 239.272C175.7 235.519 204.045 223.583 210.004 219.581C213.081 216.913 218.836 214.681 219.938 210.687C221.495 190.738 220.445 170.611 222.02 150.627C222.02 150.627 222.02 150.546 222.02 150.511C222.74 139.242 224.376 127.956 223.443 116.652C220.677 90.7615 212.708 67.6284 204.41 43.09C202.942 40.6976 204.41 40.9466 205.041 38.8476C207.256 22.5629 205.948 22.7852 192.278 22.4383C190.073 22.2338 166.557 25.7291 164.618 25.1065C164.438 24.7274 164.171 24.396 163.839 24.1395C163.506 23.883 163.118 23.7085 162.706 23.6301C158.704 22.9987 154.701 24.2082 150.637 24.3505C148.138 24.8664 135.757 23.0164 136.416 26.4673C124.035 26.8142 88.9931 28.7975 76.6661 30.3184C65.9934 28.3973 70.2447 38.3229 70.7517 44.771C72.2992 55.4437 68.9729 66.1164 68.706 76.7891C68.6438 77.6341 68.5726 78.4701 68.5193 79.3595C67.7633 90.6103 68.1457 101.897 68.626 113.156ZM167.598 27.0543C171.2 27.2766 201.475 21.9136 201.599 26.4762C203.031 31.1544 204.143 39.9683 197.294 39.5147C193.443 39.995 174.17 42.4319 170.257 42.5653C169.705 37.2289 167.429 32.1683 165.641 27.1254L167.598 27.0543ZM171.751 45.1179C171.066 46.0073 170.47 46.9856 169.786 47.8928C169.794 46.2118 169.661 44.7977 171.751 45.1179ZM141.227 58.6366C142.526 63.0836 144.785 67.157 146.652 71.3638C147.782 74.1298 148.138 76.0598 151.695 75.1793C156.053 74.5212 160.34 73.534 164.645 72.6001C183.562 69.3271 173.743 70.2788 170.284 53.1847C170.284 53.1847 170.284 53.1847 170.284 53.238C170.204 52.5443 170.115 51.8506 170.026 51.1479C169.296 48.9689 170.915 47.6437 172.231 46.1229C172.996 44.5486 174.704 45.0022 176.198 44.7443C175.985 44.9489 175.771 45.1623 175.567 45.3847L175.469 45.4825C174.702 46.2424 174.027 47.0902 173.459 48.0084C172.765 50.1785 177.541 45.2157 177.799 44.6821C178.422 43.2146 194.448 42.4586 195.774 42.2718C195.409 42.841 192.981 45.7049 194.484 45.6782C199.029 42.1206 194.422 42.1206 201.448 41.8271C208.329 59.9103 213.94 78.4517 218.24 97.3163C221.566 111.956 221.441 127.049 220.187 141.928C220.187 141.928 220.187 141.875 220.187 141.848C220.107 142.987 220.018 144.116 219.938 145.246C219.938 145.246 219.938 145.175 219.938 145.13C218.444 161.788 218.809 178.518 218.337 195.221C217.626 200.308 219.672 210.785 215.465 214.014L215.331 214.12C197.054 227.319 140.133 245.525 121.269 257.807C120.131 229.418 116.92 201.126 116.627 172.692C116.191 160.152 116.991 147.603 116.564 135.071C115.843 123.55 113.616 112.172 109.938 101.23C104.237 82.9171 97.0955 63.8752 82.1181 51.1124C84.644 50.89 87.1609 50.552 89.6868 50.303C89.082 50.8278 89.9003 51.1924 90.3628 50.8989C90.8697 50.0095 91.7324 50.0896 92.6841 50.0095C92.4617 50.5254 90.7719 51.8595 91.9103 51.984C93.6891 50.5876 93.0398 49.547 96.0193 49.7338C95.6119 50.2701 95.2433 50.8348 94.9165 51.4237C94.8639 51.4974 94.8163 51.5747 94.7741 51.6549C94.5162 53.2113 96.4106 50.7655 96.5974 50.3297C97.0955 49.2002 98.6252 49.7694 99.648 49.5559C99.3278 50.1696 95.9393 53.2647 97.3712 53.327C99.4346 52.0729 99.7992 48.6754 102.859 49.4314C102.503 49.9917 100.048 52.571 101.48 52.6154C103.855 51.0501 102.939 48.7466 106.745 49.3158C106.185 50.2052 102.574 53.9762 103.401 54.581C104.887 54.2697 105.598 52.1707 106.648 51.1213C107.439 49.0579 108.951 49.1379 110.926 49.2002C110.445 49.9473 106.585 53.8517 107.51 54.1808C108.951 53.914 110.854 50.1874 111.886 49.1646C112.393 48.6576 135.419 46.2652 137.18 46.3096C136.798 46.8344 134.61 48.6221 136.184 48.6221C137.963 47.119 137.598 45.8205 140.507 46.2474C135.997 50.0095 135.295 54.3764 140.436 47.4303C140.649 49.7783 139.084 51.0857 137.874 52.9267C138.408 53.8161 139.653 51.7083 140.178 51.3525C140.268 53.8109 140.62 56.2527 141.227 58.6366ZM77.9202 31.6347C87.828 30.6385 97.7892 31.1811 107.724 31.0832C109.921 31.2167 135.001 27.8814 137.074 28.3172C139.413 30.9854 140.364 34.5874 140.934 38.0027C140.934 43.517 141.948 43.5081 135.651 44.5753C124 46.5142 93.2355 47.6082 83.1765 49.5915C84.3683 43.3658 80.9886 36.5619 77.2709 31.7236L77.9202 31.6347ZM80.6684 47.3413C80.6684 47.8127 80.7751 48.3019 80.784 48.7733C79.9216 47.7075 79.2148 46.5247 78.685 45.2602C79.2409 45.2279 79.7877 45.1047 80.3037 44.8955C80.3037 45.0289 80.3571 45.1623 80.3927 45.2957C80.3927 45.2957 80.3927 45.2157 80.3927 45.1712C80.5385 45.8867 80.6307 46.6121 80.6684 47.3413ZM70.5204 87.4796C70.5894 79.1172 71.2881 70.7719 72.6105 62.5144C74.2114 53.0246 75.7056 49.3069 72.4771 39.7192C72.4782 39.6985 72.4782 39.6777 72.4771 39.657C68.6082 23.6479 79.4054 36.215 80.0458 43.6415C79.4855 43.7749 79.4855 43.0634 79.1564 42.8321C74.5138 40.831 77.4666 48.4887 79.1564 49.9473C83.2565 54.999 88.2816 59.3304 91.8214 64.8624C101.204 79.9287 107.048 97.0406 111.673 114.046C117.801 135.516 114.341 157.911 115.461 179.861C115.728 206.16 119.481 232.335 119.366 258.634C117.587 255.397 115.568 252.213 113.852 248.896C113.585 248.371 113.3 247.837 113.024 247.304V247.375L112.9 247.135V247.206C112.5 246.423 112.064 245.658 111.664 244.875C111.139 243.853 110.641 242.821 110.107 241.798L110.027 241.647C109.707 241.007 109.387 240.331 109.067 239.708C107.83 239.628 109.698 243.097 109.734 243.879C110.874 247.15 112.306 250.311 114.012 253.325V253.254C114.023 253.282 114.038 253.309 114.056 253.334C115.171 255.435 116.403 257.472 117.747 259.435C104.077 251.546 94.8898 238 81.878 229.195C84.4216 227.008 87.6679 225.807 90.3983 223.859L90.1226 224.037C92.3906 222.409 94.9076 220.933 96.5707 218.656C97.6051 221.494 99.23 224.08 101.338 226.243C102.752 225.985 101.338 224.259 100.911 223.628C100.644 223.21 100.342 222.819 100.075 222.401C96.6063 216.717 97.6558 209.753 97.1666 203.403C96.9087 196.092 97.0599 188.781 97.1666 181.48C97.1666 174.364 96.6775 167.312 96.1794 160.223C93.8581 159.138 95.121 164.359 94.9876 165.559C94.9833 165.586 94.9833 165.613 94.9876 165.639C94.9832 165.714 94.9832 165.788 94.9876 165.862C94.9431 168.77 95.0588 171.661 95.2455 174.56C95.2455 174.605 95.2455 174.658 95.2455 174.702C95.2455 174.702 95.2455 174.8 95.2455 174.845C95.2455 174.889 95.2455 174.774 95.2455 174.747C95.2455 174.72 95.2455 174.871 95.2455 174.943C95.5301 186.505 95.6902 198.067 96.0638 209.549C96.0687 209.528 96.0687 209.507 96.0638 209.487C95.5746 212.51 96.3573 215.819 94.534 218.514C90.2827 222.071 85.4266 225.042 81.0864 228.546C74.4871 181.889 70.2447 134.68 70.5204 87.4796Z" fill="currentColor"/>
<path d="M74.3784 69.5733C76.1572 69.173 75.1967 62.716 75.7926 60.9106C75.8904 59.1318 76.3618 57.1662 76.2995 55.5742C75.4902 56.4636 75.5258 57.9845 75.1967 59.1318C74.7431 62.5115 73.827 66.3448 74.3784 69.5733Z" fill="currentColor"/>
<path d="M77.608 64.8092C79.4935 64.1688 78.3106 60.2911 79.0043 58.6902C78.0082 58.619 77.3056 63.8131 77.608 64.8092Z" fill="currentColor"/>
<path d="M80.3826 63.2544C81.6811 63.1121 81.4587 60.9953 81.0763 60.2305C80.3648 60.524 79.9201 62.7386 80.3826 63.2544Z" fill="currentColor"/>
<path d="M74.6537 39.569C74.6537 38.1282 73.9778 36.1449 74.6537 34.9442C75.383 34.1615 74.0489 34.0548 73.7643 34.7041C72.4569 36.6696 72.7593 39.9693 73.9778 41.8192C75.0628 41.6146 74.7782 40.3784 74.6537 39.569Z" fill="currentColor"/>
<path d="M75.9928 38.3765C76.8289 38.2253 76.7488 37.3181 76.4286 36.7311C76.4909 36.571 76.3219 36.4999 76.2063 36.5799C75.815 36.8823 75.557 38.1097 75.9928 38.3765Z" fill="currentColor"/>
<path d="M140.71 230.752C140.647 231.872 140.567 233.002 140.398 234.149C140.701 234.06 141.003 233.998 141.288 233.918C141.056 232.868 140.861 231.792 140.692 230.689C140.702 230.708 140.709 230.73 140.71 230.752ZM143.493 236.977C142.995 237.164 142.488 237.324 141.99 237.458C141.786 237.511 141.892 237.173 141.866 237.031C141.866 236.711 141.75 236.417 141.697 236.141C141.101 236.373 140.514 236.604 139.918 236.826C139.833 237.389 139.678 237.939 139.456 238.463C138.795 238.888 138.063 239.19 137.294 239.352C137.152 239.352 136.796 239.619 136.885 239.352C137.111 238.675 137.271 237.978 137.365 237.271C137.792 234.496 138.032 231.748 138.619 228.937C138.7 228.599 138.7 228.27 138.78 227.932C139.126 227.167 139.998 227.114 140.558 226.838C142.079 226.349 142.337 225.789 142.577 227.452C142.995 229.88 143.929 231.961 144.356 234.345C144.436 234.789 144.489 235.234 144.552 235.697C144.801 236.212 144.063 236.782 143.493 236.96V236.977Z" fill="currentColor"/>
<path d="M156.436 224.751C156.374 225.791 156.285 226.841 156.116 227.908C156.383 227.828 156.641 227.783 156.898 227.721C156.721 226.734 156.569 225.72 156.445 224.697C156.438 224.714 156.435 224.732 156.436 224.751ZM158.713 230.612C158.286 230.763 157.823 230.905 157.432 231.012C157.254 231.012 157.352 230.745 157.334 230.612C157.334 230.309 157.236 230.034 157.201 229.722C156.697 229.93 156.19 230.126 155.68 230.309C155.598 230.827 155.457 231.334 155.262 231.821C154.782 232.293 153.972 232.31 153.412 232.524C153.305 232.524 152.994 232.764 153.065 232.524C153.266 231.9 153.415 231.26 153.51 230.612C153.91 228.041 154.15 225.498 154.693 222.91C154.764 222.589 154.773 222.287 154.844 222.02C155.146 221.318 155.893 221.291 156.391 221.051C157.681 220.642 157.877 220.161 158.099 221.673C158.41 223.95 159.175 225.907 159.478 228.148C159.54 228.566 159.576 229.038 159.629 229.411C159.833 229.954 159.202 230.469 158.713 230.612Z" fill="currentColor"/>
<path d="M148.138 213.593C148.067 214.848 147.969 216.102 147.782 217.373C148.102 217.302 148.423 217.249 148.743 217.204C148.503 216.004 148.307 214.776 148.138 213.531V213.593ZM150.984 220.771C150.461 220.934 149.93 221.068 149.392 221.171C149.179 221.171 149.294 220.851 149.267 220.682C149.267 220.317 149.143 219.979 149.098 219.615L147.195 220.219C147.106 220.832 146.935 221.43 146.688 221.998C146.092 222.532 145.087 222.505 144.394 222.736C144.26 222.736 143.869 222.985 143.967 222.683C144.21 221.941 144.388 221.179 144.5 220.406C144.972 217.329 145.256 214.278 145.888 211.183C145.977 210.81 145.986 210.445 146.066 210.071C146.439 209.253 147.373 209.28 147.996 209.031C149.605 208.64 149.837 208.026 150.13 209.92C150.539 212.686 151.509 215.097 151.909 217.809C151.989 218.316 152.033 218.832 152.105 219.339C152.363 220.095 151.589 220.664 150.984 220.771Z" fill="currentColor"/>
<path d="M160.294 217.588C159.974 217.651 159.067 218.14 158.951 217.775C158.951 216.832 159.076 215.872 159.129 214.929C159.323 212.355 159.361 209.771 159.245 207.191C159.191 206.489 158.996 205.911 159.876 205.715C160.58 205.474 161.295 205.269 162.02 205.101C163.603 204.728 163.389 204.47 163.532 206.302C163.532 206.747 163.532 207.556 162.971 207.574C162.562 207.69 162.135 207.77 161.726 207.876C161.726 208.623 161.788 209.362 161.797 210.109C162.117 210.055 162.438 209.966 162.758 209.886C162.891 209.886 163.078 209.717 163.149 209.886C163.212 210.451 163.212 211.021 163.149 211.585C163.238 212.359 162.26 212.697 161.797 212.786C161.699 215.454 161.664 213.88 163.176 214.031C163.451 214.084 163.318 214.556 163.38 214.814C163.464 215.297 163.418 215.794 163.247 216.254C163.033 216.503 162.74 216.512 162.491 216.664C161.775 217.01 161.042 217.318 160.294 217.588Z" fill="currentColor"/>
<path d="M152.973 220.045C152.751 220 152.973 218.924 152.902 218.604V218.515C152.777 216.327 153.035 214.006 152.902 211.791C152.902 210.902 152.831 210.074 152.777 209.221C152.777 208.785 152.617 208.198 153.133 207.887C153.745 207.561 154.417 207.361 155.108 207.3C155.401 207.22 155.508 207.504 155.428 207.815C155.348 208.127 155.428 208.705 155.428 209.114C155.428 209.514 155.428 209.914 155.428 210.323C155.635 209.517 155.822 208.708 155.988 207.895C155.991 207.654 156.064 207.419 156.198 207.218C156.333 207.018 156.522 206.861 156.744 206.766C157.18 206.597 157.648 206.527 158.114 206.561C158.238 206.561 158.363 206.561 158.389 206.668C158.373 207.405 158.254 208.135 158.034 208.838C157.705 210.288 157.242 211.738 156.913 213.187C157.242 214.272 157.456 215.437 157.802 216.514C157.945 216.941 158.105 217.35 158.274 217.741C158.196 217.932 158.075 218.103 157.921 218.24C157.767 218.377 157.583 218.477 157.384 218.533C157.034 218.686 156.662 218.785 156.282 218.826C155.828 218.55 155.712 217.839 155.49 217.314C155.49 218.204 155.588 219.191 154.458 219.466C153.996 219.591 153.471 220.036 152.973 220.045Z" fill="currentColor"/>
<path d="M140.462 224.329C140.044 224.48 139.715 224.516 139.821 223.973C139.759 223.022 139.821 222.017 139.821 221.047C139.821 218.859 139.768 216.689 139.821 214.457C139.277 214.68 138.711 214.844 138.131 214.946C137.909 214.946 137.909 214.733 137.9 214.546C137.86 214.037 137.86 213.525 137.9 213.016C137.633 211.895 138.959 211.726 139.679 211.629C140.414 211.499 141.141 211.329 141.858 211.122C142.481 210.917 143.094 210.704 143.717 210.481C144.339 210.259 144.606 210.108 144.562 210.846C144.558 210.875 144.558 210.905 144.562 210.935C144.562 211.095 144.562 211.264 144.562 211.433C144.713 213.283 144.224 213.007 142.783 213.523C142.783 215.853 142.783 218.166 142.783 220.496C142.694 221.27 142.943 222.808 142.312 223.475C141.725 223.796 141.084 224.027 140.462 224.329Z" fill="currentColor"/>
<path d="M151.428 233.606C150.921 233.81 150.415 233.97 149.899 234.122C149.703 234.166 149.427 234.388 149.338 234.122C149.195 233.588 149.117 233.038 149.107 232.485C149.054 231.791 148.974 231.098 148.903 230.404C148.12 235.669 149.356 233.899 145.674 235.74C145.55 235.794 145.389 235.847 145.354 235.74L145.247 234.78C145.052 233.57 144.936 232.316 144.838 231.053C144.749 230.093 144.562 229.186 144.42 228.243C144.351 227.593 144.238 226.948 144.082 226.313C144.082 226.117 143.824 225.975 144.002 225.726C144.367 225.174 144.936 225.192 145.381 225.112C145.639 225.112 146.083 224.845 146.27 224.996C146.511 225.7 146.658 226.433 146.706 227.175C146.839 228.225 146.964 229.257 147.079 230.297C147.168 229.577 147.266 228.856 147.4 228.118C147.533 227.398 147.702 226.677 147.835 225.957C148.316 223.36 147.737 224.125 150.005 223.493C150.37 223.396 150.361 224.952 150.459 225.272C150.619 226.215 150.761 227.149 150.841 228.118C151.01 226.74 151.251 225.352 151.437 223.974C151.437 222.417 151.962 222.684 153.029 222.248C153.198 222.248 153.599 221.973 153.661 222.177C153.661 222.899 153.599 223.619 153.474 224.329C153.243 225.779 153.02 227.229 152.754 228.687C152.531 229.977 152.451 231.24 152.3 232.512C152.389 233.108 151.998 233.41 151.428 233.606Z" fill="currentColor"/>
<path d="M160.59 229.757C160.314 229.757 160.296 229.517 160.349 229.232C160.349 228.725 160.349 228.218 160.349 227.693C160.349 227.604 160.349 227.515 160.349 227.435C160.349 227.231 160.349 227.017 160.349 226.813C160.363 226.703 160.363 226.593 160.349 226.484C159.86 224.527 159.087 222.739 158.909 220.543C158.82 220.543 158.909 220.356 158.971 220.276C159.556 219.883 160.241 219.667 160.945 219.653C161.177 220.543 161.354 221.521 161.541 222.455C161.545 222.52 161.545 222.585 161.541 222.65C161.701 221.761 161.879 220.827 162.084 219.911C162.074 219.718 162.107 219.525 162.179 219.345C162.251 219.165 162.361 219.004 162.502 218.87C162.751 218.666 163 218.737 163.24 218.648C163.694 218.55 164.129 218.381 164.61 218.248C165.045 218.061 164.12 220.649 164.04 220.978C163.756 221.93 163.462 222.891 163.151 223.851C163.151 223.851 163.151 223.851 163.151 223.904C162.964 224.555 162.738 225.193 162.475 225.817C162.475 226.537 162.706 228.182 162.253 228.832C161.796 229.29 161.22 229.611 160.59 229.757Z" fill="currentColor"/>
<path d="M157.839 159.811L158.026 166.286C158.186 171.765 156.577 173.979 154.611 176.131C152.98 177.79 150.91 178.947 148.643 179.467C148.541 179.495 148.433 179.499 148.328 179.477C148.224 179.456 148.127 179.409 148.044 179.342C147.961 179.275 147.896 179.189 147.853 179.092C147.81 178.994 147.791 178.888 147.798 178.782L148.047 174.797C148.055 174.636 148.113 174.48 148.211 174.352C148.309 174.223 148.445 174.127 148.599 174.077C150.493 173.463 152.628 172.298 152.53 168.803L152.041 152.287C152.035 152.106 152.09 151.929 152.196 151.782C152.302 151.636 152.454 151.529 152.628 151.477L156.532 150.348C156.652 150.313 156.778 150.305 156.901 150.326C157.024 150.347 157.141 150.396 157.242 150.469C157.343 150.542 157.427 150.637 157.485 150.747C157.544 150.857 157.577 150.979 157.582 151.104L157.839 159.811Z" fill="currentColor"/>
<path d="M178.616 156.326L178.669 158.051C178.835 160.287 178.664 162.536 178.162 164.722C177.598 166.84 176.478 168.768 174.916 170.307C173.363 171.756 171.479 172.804 169.429 173.358C167.637 173.987 165.694 174.043 163.87 173.518C163.052 173.205 162.311 172.72 161.697 172.095C161.083 171.471 160.611 170.721 160.312 169.898C159.779 168.742 159.485 166.66 159.423 163.672V161.956C159.307 158.265 159.636 155.579 160.437 153.951C161.042 152.364 161.986 150.929 163.203 149.744C164.743 148.275 166.627 147.214 168.681 146.658C170.476 146.022 172.428 145.978 174.249 146.533C175.508 147.001 176.559 147.903 177.211 149.077C178.041 150.233 178.509 152.65 178.616 156.326ZM169.277 168.048C171.056 167.496 172.123 166.758 172.568 165.816C173.013 165.22 173.324 163.717 173.244 161.013L173.12 157.002C173.039 154.084 172.639 152.43 172.079 152.172C171.483 151.639 170.425 151.559 168.859 151.932H168.744C167.491 152.255 166.383 152.987 165.595 154.013C165.062 154.591 164.644 156.317 164.706 159.261L164.821 163.307C164.902 165.976 165.382 167.399 165.862 167.754C166.369 168.43 167.507 168.519 169.277 168.048Z" fill="currentColor"/>
<path d="M197.185 157.171V157.803C197.255 159.919 196.623 161.999 195.387 163.719C194.152 165.439 192.382 166.701 190.354 167.311C189.625 167.515 183.871 168.983 181.523 169.587C181.404 169.617 181.28 169.619 181.16 169.594C181.04 169.569 180.927 169.518 180.83 169.443C180.733 169.369 180.653 169.274 180.598 169.165C180.542 169.056 180.512 168.936 180.509 168.814L179.779 144.169C179.784 143.991 179.842 143.82 179.945 143.676C180.048 143.531 180.191 143.421 180.357 143.359L184.128 142.176C186.352 141.42 188.638 140.762 189.011 140.647C192.631 139.757 196.037 140.558 196.206 146.143V146.81C196.24 148.451 195.768 150.062 194.855 151.426C194.737 151.61 194.698 151.833 194.744 152.047C194.791 152.26 194.92 152.446 195.104 152.564C196.518 153.507 197.122 155.001 197.185 157.171ZM191.493 148.082C191.448 146.401 190.603 145.369 188.317 146.17L186.05 146.89C185.878 146.941 185.729 147.047 185.624 147.192C185.52 147.337 185.466 147.512 185.471 147.691L185.587 151.542C185.59 151.666 185.622 151.788 185.68 151.898C185.737 152.008 185.82 152.104 185.92 152.177C186.021 152.25 186.137 152.299 186.26 152.32C186.383 152.341 186.508 152.333 186.628 152.298L189.785 151.408C190.932 150.768 191.555 150.234 191.493 148.082ZM192.329 158.55C192.275 156.86 191.519 155.944 190.239 156.069L186.379 157.198C186.204 157.248 186.052 157.355 185.945 157.501C185.839 157.648 185.785 157.826 185.792 158.008L185.934 163.068H186.023L189.322 162.25C190.195 162.105 190.983 161.644 191.537 160.955C192.092 160.266 192.373 159.398 192.329 158.514V158.55Z" fill="currentColor"/>
<path d="M157.848 132.216L158.186 143.672C158.189 143.805 158.148 143.936 158.069 144.044C157.99 144.151 157.878 144.23 157.75 144.267L153.107 145.619C152.976 145.655 152.837 145.647 152.712 145.595C152.586 145.544 152.481 145.452 152.413 145.335L146.89 135.676C146.826 135.555 146.723 135.461 146.597 135.407C146.472 135.354 146.332 135.345 146.2 135.383C146.069 135.42 145.955 135.502 145.877 135.613C145.798 135.725 145.76 135.86 145.77 135.996L146.099 147.185C146.102 147.318 146.061 147.449 145.982 147.557C145.903 147.665 145.791 147.743 145.663 147.781L141.332 149.035C141.244 149.059 141.151 149.063 141.062 149.046C140.972 149.03 140.887 148.993 140.814 148.939C140.74 148.885 140.68 148.816 140.637 148.735C140.594 148.655 140.57 148.565 140.567 148.474L139.829 123.393C139.824 123.26 139.864 123.128 139.943 123.02C140.022 122.912 140.135 122.833 140.264 122.797L144.889 121.455C145.018 121.417 145.155 121.424 145.279 121.474C145.404 121.524 145.507 121.614 145.574 121.73L151.088 131.247C151.157 131.359 151.261 131.447 151.384 131.495C151.508 131.543 151.643 131.549 151.77 131.513C151.897 131.476 152.009 131.399 152.088 131.293C152.167 131.188 152.21 131.059 152.209 130.927L151.889 119.889C151.885 119.756 151.926 119.625 152.005 119.517C152.084 119.409 152.196 119.331 152.324 119.293L156.683 118.03C156.771 118.004 156.863 117.999 156.954 118.015C157.044 118.03 157.13 118.067 157.204 118.121C157.278 118.175 157.338 118.246 157.381 118.327C157.423 118.409 157.446 118.499 157.447 118.591L157.848 132.216Z" fill="currentColor"/>
<path d="M166.005 126.063L170.096 124.871C170.188 124.846 170.284 124.843 170.377 124.862C170.47 124.88 170.557 124.921 170.632 124.98C170.706 125.039 170.766 125.114 170.806 125.201C170.846 125.287 170.865 125.381 170.861 125.476L170.71 129.122C170.705 129.249 170.66 129.37 170.582 129.469C170.504 129.568 170.396 129.64 170.274 129.674L165.827 130.963C165.7 131.001 165.589 131.08 165.511 131.188C165.434 131.296 165.395 131.427 165.4 131.559L165.525 136.006C165.528 136.098 165.552 136.189 165.595 136.27C165.639 136.351 165.7 136.422 165.775 136.476C165.849 136.53 165.935 136.566 166.026 136.582C166.117 136.598 166.21 136.592 166.299 136.567L171.884 134.948C171.973 134.92 172.066 134.914 172.158 134.929C172.249 134.944 172.336 134.98 172.411 135.034C172.487 135.088 172.548 135.16 172.591 135.242C172.633 135.324 172.656 135.416 172.658 135.508L172.773 139.466C172.777 139.6 172.736 139.73 172.657 139.838C172.578 139.946 172.466 140.025 172.338 140.062L160.882 143.397C160.794 143.423 160.701 143.429 160.611 143.413C160.521 143.397 160.435 143.361 160.361 143.307C160.287 143.252 160.226 143.182 160.184 143.1C160.142 143.019 160.119 142.929 160.117 142.837L159.379 117.72C159.376 117.587 159.417 117.456 159.496 117.348C159.574 117.24 159.687 117.162 159.815 117.125L171.261 113.754C171.35 113.726 171.444 113.719 171.535 113.734C171.627 113.749 171.714 113.785 171.789 113.84C171.864 113.894 171.925 113.965 171.968 114.048C172.011 114.13 172.034 114.221 172.035 114.314L172.151 118.165C172.154 118.299 172.113 118.43 172.034 118.537C171.956 118.645 171.843 118.724 171.715 118.761L165.489 120.54C165.361 120.577 165.249 120.656 165.17 120.764C165.091 120.871 165.05 121.002 165.053 121.136L165.187 125.485C165.185 125.584 165.207 125.682 165.252 125.77C165.296 125.858 165.362 125.934 165.443 125.991C165.523 126.048 165.617 126.085 165.715 126.097C165.813 126.11 165.913 126.098 166.005 126.063Z" fill="currentColor"/>
<path d="M197.168 132.812L191.716 134.404C191.638 134.427 191.556 134.434 191.476 134.424C191.396 134.415 191.318 134.39 191.247 134.35C191.177 134.31 191.115 134.257 191.066 134.193C191.016 134.129 190.98 134.055 190.96 133.977L188.914 125.812C188.884 125.674 188.807 125.552 188.695 125.466C188.584 125.38 188.445 125.336 188.304 125.342C188.164 125.349 188.03 125.405 187.926 125.501C187.823 125.596 187.757 125.726 187.74 125.866L186.139 135.649C186.123 135.761 186.075 135.865 186.001 135.951C185.927 136.036 185.83 136.098 185.721 136.129L180.153 137.757C180.076 137.778 179.995 137.784 179.915 137.775C179.835 137.765 179.757 137.74 179.687 137.7C179.617 137.66 179.555 137.607 179.505 137.544C179.456 137.48 179.419 137.407 179.398 137.33L173.172 113.85C173.133 113.698 173.153 113.537 173.229 113.399C173.305 113.262 173.431 113.159 173.581 113.112L178.517 111.68C178.596 111.658 178.678 111.653 178.759 111.664C178.84 111.675 178.918 111.702 178.988 111.743C179.059 111.785 179.12 111.84 179.169 111.905C179.218 111.971 179.253 112.045 179.273 112.124L182.146 124.113C182.176 124.251 182.255 124.374 182.367 124.459C182.479 124.544 182.618 124.587 182.759 124.58C182.9 124.572 183.034 124.515 183.136 124.418C183.239 124.321 183.304 124.191 183.32 124.051L185.312 110.079C185.329 109.964 185.378 109.856 185.453 109.768C185.529 109.68 185.628 109.615 185.739 109.581L187.767 108.994L189.545 108.469C189.624 108.445 189.707 108.438 189.789 108.447C189.871 108.457 189.95 108.484 190.021 108.525C190.092 108.567 190.154 108.623 190.202 108.69C190.25 108.757 190.284 108.833 190.301 108.914L192.97 120.92C192.999 121.056 193.073 121.177 193.181 121.264C193.288 121.351 193.423 121.399 193.561 121.399C193.7 121.399 193.834 121.351 193.941 121.264C194.049 121.177 194.124 121.056 194.153 120.92L196.349 106.895C196.367 106.782 196.417 106.677 196.492 106.592C196.568 106.507 196.667 106.445 196.776 106.414L201.552 105.027C201.651 104.998 201.755 104.994 201.855 105.017C201.955 105.039 202.047 105.087 202.123 105.156C202.199 105.225 202.256 105.312 202.289 105.41C202.321 105.507 202.328 105.611 202.308 105.712L197.568 132.394C197.541 132.491 197.491 132.581 197.421 132.654C197.351 132.727 197.264 132.781 197.168 132.812Z" fill="currentColor"/>
</g>
<mask id="mask1_346_3669" style="mask-type:alpha" maskUnits="userSpaceOnUse" x="-1" y="25" width="113" height="232">
<path d="M69.5129 38.7903L69.9171 35.5571L72.7461 29.4949L67.8969 26.2617L40.819 28.2825L5.25393 38.7903L0 56.5729L6.87052 217.828L44.8605 255.818H109.524L106.291 253.393C93.5553 240.647 87.7509 235.173 79.2131 229.144C75.987 210.41 74.5913 199.013 72.7461 177.009C69.1404 134.774 68.5759 112.338 69.5129 75.1637L70.7253 63.8475L71.5336 58.9977V52.5314V48.0857L70.7253 44.0443L69.9171 40.8111L69.5129 38.7903Z" fill="#C4C4C4" stroke="black"/>
</mask>
<g mask="url(#mask1_346_3669)">
<path d="M44.8867 217.525C45.2045 221.376 48.2421 221.671 45.8771 218.094C45.6849 217.843 45.1158 216.89 44.8867 217.525Z" fill="currentColor"/>
<path d="M35.8703 143.848C35.8703 144.498 35.9073 145.141 35.9369 145.784V145.725C36.2177 148.312 35.7225 151.394 36.4394 153.752C38.1393 153.16 37.075 149.894 37.2746 148.43V148.364C37.0872 145.138 36.6873 141.929 36.0773 138.756C35.2865 139.229 36.0108 142.747 35.8703 143.848Z" fill="currentColor"/>
<path d="M18.2434 120.567C18.247 120.636 18.247 120.705 18.2434 120.774C18.2434 120.848 18.2434 120.922 18.2434 120.995V120.892C18.2434 120.988 18.2434 121.077 18.2434 121.173C18.247 121.153 18.247 121.133 18.2434 121.114C18.5464 127.625 18.672 134.151 18.842 140.67C18.842 141.15 18.8864 141.63 18.9159 142.103C18.9191 142.084 18.9191 142.064 18.9159 142.044C18.9159 142.251 18.9159 142.466 18.9159 142.672C18.9159 143.116 18.9603 143.552 18.975 144.003V143.936C19.3815 148.977 19.315 154.505 20.2389 159.324C21.8574 158.873 20.638 156.582 20.7932 155.385C20.5419 152.428 20.3128 149.413 20.1797 146.412C20.1761 146.434 20.1761 146.457 20.1797 146.479C20.1797 146.124 20.1797 145.74 20.128 145.414C20.1238 145.434 20.1238 145.454 20.128 145.474C19.8989 139.953 19.9432 134.432 19.6624 128.911C19.6588 128.933 19.6588 128.955 19.6624 128.977C19.6587 128.918 19.6587 128.859 19.6624 128.8V128.867C19.6624 128.748 19.6624 128.63 19.6624 128.519V128.586C19.6624 128.467 19.6624 128.349 19.6624 128.238C19.6588 128.26 19.6588 128.283 19.6624 128.305C19.4111 122.629 19.2337 116.953 19.0342 111.306C18.406 105.475 17.9256 119.636 18.2434 120.567Z" fill="currentColor"/>
<path d="M20.1552 145.814C20.1514 145.832 20.1514 145.851 20.1552 145.869C20.1552 145.869 20.1552 145.838 20.1552 145.814Z" fill="currentColor"/>
<path d="M21.0562 161.8C21.0562 161.8 20.9454 161.733 20.9158 161.748C19.8663 162.835 20.7311 165.03 20.7015 166.464C20.7458 167.299 20.8419 168.622 21.7953 167.439C21.9558 165.528 21.7037 163.605 21.0562 161.8Z" fill="currentColor"/>
<path d="M56.7792 166.07C56.8531 169.803 56.8679 173.542 56.9788 177.275C57.1044 177.718 56.7201 179.248 57.4813 178.879C58.1022 178.435 57.7696 177.474 57.873 176.817C57.873 174.163 57.873 171.503 57.9396 168.849C58.0135 161.133 58.3165 153.403 58.0209 145.694C56.8975 125.214 56.5205 162.501 56.7792 166.07Z" fill="currentColor"/>
<path d="M57.8797 183.313C57.8797 182.936 57.7024 181.273 57.392 182.404C57.2781 183.5 57.338 184.607 57.5693 185.685C58.4267 185.375 57.7467 184.022 57.8797 183.313Z" fill="currentColor"/>
<path d="M58.3922 210.038C58.7617 218.722 59.1756 227.406 58.8947 236.105C60.565 237.775 59.7964 225.669 60.0107 224.575C59.9073 219.202 59.8999 213.814 59.4638 208.456C59.1904 206.86 59.4195 204.916 58.6804 203.512C57.7492 204.613 58.54 208.412 58.3922 210.038Z" fill="currentColor"/>
<path d="M51.3581 104.078C50.1029 99.6063 48.4864 95.2437 46.5245 91.0336C45.3198 89.319 38.1878 72.0395 36.3105 75.2249C39.6585 82.5343 44.8912 89.0677 47.6258 96.7614V96.8058C48.9044 99.7621 49.843 103.11 51.1585 105.956C52.2154 105.8 51.4615 104.684 51.3581 104.078Z" fill="currentColor"/>
<path d="M53.1992 110.87C52.9184 109.991 52.8445 108.956 52.268 108.21C51.3885 108.106 52.7484 111.114 52.8001 111.713C53.3101 112.023 53.3766 111.218 53.1992 110.87Z" fill="currentColor"/>
<path d="M41.9093 71.88C43.3431 71.7469 43.1731 69.5519 41.7689 71.5696C41.6358 71.71 41.7245 71.8578 41.9093 71.88Z" fill="currentColor"/>
<path d="M44.9086 72.0439C45.4998 72.0439 45.9876 71.1939 46.3054 70.7579C46.0689 70.3957 45.5664 70.6396 45.4038 70.9279C45.2412 71.2161 44.5095 71.8443 44.9086 72.0439Z" fill="currentColor"/>
<path d="M48.2588 71.3727C48.7466 71.3727 48.9979 70.7593 49.3601 70.4785C49.3754 70.4594 49.3927 70.4421 49.4118 70.4267C49.4321 70.4027 49.4543 70.3805 49.4783 70.3602C49.8109 69.8576 51.156 68.9708 50.7939 68.4238C50.21 68.4165 47.9189 71.0254 48.2588 71.3727Z" fill="currentColor"/>
<path d="M51.8707 70.554C51.2647 70.1549 50.7399 71.1452 50.3926 71.5369C50.6734 72.5125 51.9372 71.1378 51.8707 70.554Z" fill="currentColor"/>
<path d="M101.094 65.7864C100.451 65.6312 99.0471 67.5232 100.355 67.1094C100.614 66.8285 101.56 66.0968 101.094 65.7864Z" fill="currentColor"/>
<path d="M103.14 63.9824V64.0209C103.136 64.0084 103.136 63.9949 103.14 63.9824Z" fill="currentColor"/>
<path d="M14.5845 118.674C15.7892 142.553 16.7057 166.492 19.189 190.283C19.928 196.875 20.8001 203.46 21.9309 210.001C22.4335 211.435 22.33 216.653 24.2073 216.549C31.295 220.865 36.6976 227.539 42.9502 232.935C47.0816 236.223 50.9543 241.064 56.3126 242.092C58.2194 242.003 59.7049 239.52 61.3235 238.818C70.0076 233.348 88.1445 228.064 97.3311 223.474C103.562 220.356 127.116 210.437 132.068 207.111C134.625 204.894 139.407 203.039 140.323 199.721C141.616 183.143 140.744 166.418 142.052 149.811C142.052 149.811 142.052 149.744 142.052 149.715C142.651 140.351 144.011 130.972 143.235 121.578C140.936 100.064 134.314 80.8407 127.419 60.4497C126.199 58.4616 127.419 58.6685 127.944 56.9243C129.784 43.3919 128.697 43.5767 117.338 43.2884C115.505 43.1185 95.9639 46.023 94.3527 45.5057C94.203 45.1906 93.9811 44.9153 93.705 44.7021C93.4289 44.4889 93.1064 44.3439 92.7637 44.2788C89.4378 43.7541 86.112 44.7592 82.7345 44.8774C80.6577 45.3061 70.3698 43.7688 70.9167 46.6364C60.6288 46.9247 31.5093 48.5728 21.2658 49.8366C12.3969 48.2402 15.9297 56.4883 16.3509 61.8466C17.6369 70.7154 14.8728 79.5843 14.6511 88.4532C14.5993 89.1553 14.5402 89.85 14.4959 90.5891C13.8676 99.9384 14.1854 109.317 14.5845 118.674ZM96.8286 47.1242C99.8218 47.309 124.98 42.8524 125.083 46.6438C126.273 50.5314 127.197 57.8556 121.506 57.4786C118.306 57.8777 102.29 59.9028 99.0384 60.0137C98.5802 55.5792 96.6881 51.3739 95.2026 47.1834L96.8286 47.1242ZM100.28 62.1348C99.711 62.8739 99.2158 63.6869 98.6467 64.4407C98.6541 63.0439 98.5432 61.8687 100.28 62.1348ZM74.9151 73.3687C75.9941 77.0641 77.8714 80.449 79.4234 83.9448C80.362 86.2434 80.6577 87.8471 83.6139 87.1155C87.2354 86.5686 90.7977 85.7482 94.3748 84.9722C110.095 82.2524 101.936 83.0432 99.0606 68.8382C99.0606 68.8382 99.0606 68.8382 99.0606 68.8825C98.9941 68.3061 98.9201 67.7296 98.8462 67.1457C98.2402 65.335 99.5853 64.2338 100.679 62.97C101.315 61.6618 102.734 62.0387 103.975 61.8244C103.798 61.9944 103.621 62.1718 103.451 62.3565L103.369 62.4378C102.732 63.0693 102.171 63.7738 101.699 64.5368C101.123 66.3401 105.091 62.2161 105.306 61.7727C105.823 60.5532 119.141 59.925 120.242 59.7698C119.939 60.2428 117.922 62.6226 119.171 62.6004C122.947 59.6441 119.119 59.6441 124.958 59.4002C130.676 74.4271 135.339 89.8348 138.911 105.511C141.676 117.676 141.572 130.218 140.53 142.583C140.53 142.583 140.53 142.539 140.53 142.516C140.463 143.462 140.39 144.401 140.323 145.34C140.323 145.34 140.323 145.28 140.323 145.244C139.081 159.086 139.384 172.988 138.993 186.868C138.401 191.096 140.101 199.802 136.605 202.485L136.495 202.573C121.307 213.541 74.006 228.67 58.3303 238.877C57.3843 215.285 54.7162 191.776 54.4723 168.147C54.1102 157.726 54.7753 147.298 54.4206 136.885C53.8214 127.31 51.9703 117.856 48.9145 108.763C44.177 93.5454 38.2423 77.7218 25.7963 67.1162C27.8952 66.9314 29.9868 66.6505 32.0858 66.4436C31.5832 66.8796 32.2632 67.1827 32.6475 66.9388C33.0688 66.1997 33.7857 66.2662 34.5765 66.1997C34.3917 66.6284 32.9875 67.737 33.9335 67.8404C35.4116 66.6801 34.8721 65.8154 37.348 65.9706C37.0094 66.4162 36.7031 66.8855 36.4315 67.3748C36.3878 67.4361 36.3483 67.5003 36.3133 67.567C36.099 68.8604 37.6732 66.8279 37.8284 66.4658C38.2423 65.5271 39.5135 66.0002 40.3634 65.8228C40.0973 66.3327 37.2815 68.9047 38.4714 68.9564C40.186 67.9143 40.489 65.0911 43.0315 65.7193C42.7358 66.1849 40.696 68.3282 41.8859 68.3652C43.8592 67.0644 43.098 65.1502 46.2612 65.6232C45.7956 66.3623 42.795 69.496 43.4823 69.9985C44.7165 69.7399 45.3078 67.9956 46.1799 67.1235C46.8377 65.4089 48.0941 65.4754 49.7348 65.5271C49.3357 66.148 46.1282 69.3925 46.8968 69.666C48.0941 69.4442 49.6757 66.3475 50.533 65.4976C50.9543 65.0763 70.0889 63.0882 71.5523 63.1252C71.2345 63.5612 69.4164 65.0467 70.7245 65.0467C72.2027 63.7977 71.8996 62.7187 74.3164 63.0734C70.5693 66.1997 69.9854 69.8285 74.2573 64.0564C74.4347 66.0075 73.1339 67.094 72.1288 68.6239C72.5722 69.3629 73.6069 67.6113 74.043 67.3157C74.1182 69.3586 74.4105 71.3877 74.9151 73.3687ZM22.3079 50.9305C30.5411 50.1027 38.8187 50.5535 47.0742 50.4722C48.8997 50.5831 69.7415 47.8116 71.4636 48.1737C73.4073 50.3909 74.1982 53.3842 74.6712 56.2222C74.6712 60.8045 75.5137 60.7971 70.2811 61.684C60.5992 63.2951 35.0347 64.2042 26.6758 65.8523C27.6661 60.6788 24.8577 55.0249 21.7683 51.0044L22.3079 50.9305ZM24.5916 63.9825C24.5916 64.3742 24.6803 64.7807 24.6877 65.1724C23.971 64.2868 23.3837 63.3038 22.9435 62.2531C23.4054 62.2262 23.8598 62.1238 24.2886 61.95C24.2886 62.0609 24.3329 62.1718 24.3625 62.2826C24.3625 62.2826 24.3625 62.2161 24.3625 62.1791C24.4837 62.7737 24.5602 63.3765 24.5916 63.9825ZM16.1588 97.3368C16.2161 90.3878 16.7967 83.4529 17.8956 76.5911C19.2259 68.7052 20.4676 65.6158 17.7847 57.6486C17.7857 57.6314 17.7857 57.6141 17.7847 57.5969C14.5698 44.2936 23.5421 54.7367 24.0742 60.9079C23.6086 61.0188 23.6086 60.4275 23.3352 60.2354C19.4772 58.5725 21.9309 64.9359 23.3352 66.148C26.7423 70.3459 30.9181 73.9452 33.8596 78.5422C41.6568 91.0621 46.5125 105.282 50.3557 119.413C55.4479 137.254 52.5729 155.864 53.5041 174.104C53.7258 195.959 56.8447 217.71 56.7486 239.564C55.2705 236.874 53.5928 234.228 52.1664 231.471C51.9447 231.035 51.7082 230.592 51.4791 230.148V230.207L51.3756 230.008V230.067C51.043 229.417 50.6809 228.781 50.3483 228.131C49.9122 227.281 49.4983 226.423 49.0549 225.573L48.9884 225.448C48.7223 224.916 48.4563 224.354 48.1902 223.837C47.1629 223.77 48.7149 226.652 48.7445 227.303C49.692 230.02 50.8817 232.647 52.2994 235.152V235.093C52.3089 235.116 52.3213 235.139 52.3364 235.159C53.2625 236.906 54.2865 238.598 55.4035 240.229C44.044 233.674 36.4094 222.418 25.5967 215.101C27.7105 213.283 30.4081 212.285 32.677 210.666L32.4479 210.814C34.3326 209.462 36.4241 208.235 37.8062 206.343C38.6658 208.701 40.016 210.849 41.7676 212.647C42.9428 212.433 41.7676 210.999 41.4129 210.474C41.1912 210.127 40.9399 209.802 40.7182 209.454C37.8358 204.732 38.7079 198.945 38.3014 193.668C38.0871 187.592 38.2127 181.517 38.3014 175.449C38.3014 169.537 37.8949 163.676 37.481 157.786C35.552 156.884 36.6015 161.222 36.4907 162.22C36.4871 162.242 36.4871 162.265 36.4907 162.287C36.487 162.348 36.487 162.41 36.4907 162.471C36.4537 164.888 36.5498 167.29 36.705 169.699C36.705 169.736 36.705 169.781 36.705 169.818C36.705 169.818 36.705 169.899 36.705 169.936C36.705 169.973 36.705 169.877 36.705 169.855C36.705 169.832 36.705 169.958 36.705 170.017C36.9415 179.625 37.0745 189.233 37.3849 198.775C37.389 198.758 37.389 198.74 37.3849 198.723C36.9785 201.236 37.6288 203.985 36.1137 206.224C32.581 209.181 28.5456 211.649 24.939 214.561C19.455 175.789 15.9297 136.559 16.1588 97.3368Z" fill="currentColor"/>
<path d="M19.3651 82.4572C20.8432 82.1246 20.045 76.759 20.5402 75.2587C20.6215 73.7805 21.0132 72.1472 20.9615 70.8242C20.2889 71.5633 20.3185 72.8271 20.045 73.7805C19.6681 76.589 18.9069 79.7744 19.3651 82.4572Z" fill="currentColor"/>
<path d="M22.0491 78.4975C23.616 77.9654 22.633 74.743 23.2095 73.4127C22.3817 73.3536 21.7978 77.6698 22.0491 78.4975Z" fill="currentColor"/>
<path d="M24.3525 77.2062C25.4316 77.088 25.2468 75.329 24.929 74.6934C24.3378 74.9373 23.9682 76.7775 24.3525 77.2062Z" fill="currentColor"/>
<path d="M19.5941 57.5246C19.5941 56.3273 19.0324 54.6792 19.5941 53.6814C20.2001 53.031 19.0915 52.9424 18.855 53.4819C17.7686 55.1152 18.0198 57.8572 19.0324 59.3945C19.934 59.2245 19.6975 58.1972 19.5941 57.5246Z" fill="currentColor"/>
<path d="M20.7083 56.5321C21.4031 56.4065 21.3366 55.6526 21.0705 55.1648C21.1222 55.0318 20.9818 54.9727 20.8857 55.0392C20.5605 55.2905 20.3462 56.3104 20.7083 56.5321Z" fill="currentColor"/>
<path d="M74.4866 216.394C74.4349 217.326 74.3683 218.264 74.2279 219.218C74.4792 219.144 74.7305 219.092 74.967 219.025C74.7748 218.153 74.6122 217.259 74.4718 216.343C74.4806 216.358 74.4857 216.376 74.4866 216.394ZM76.7999 221.568C76.386 221.723 75.9647 221.856 75.5509 221.967C75.3809 222.011 75.4696 221.73 75.4474 221.612C75.4474 221.346 75.3513 221.102 75.307 220.873C74.8118 221.065 74.324 221.257 73.8288 221.442C73.7584 221.91 73.6293 222.367 73.4445 222.802C72.8959 223.156 72.2873 223.406 71.6486 223.541C71.5303 223.541 71.2347 223.763 71.3086 223.541C71.4959 222.979 71.6295 222.399 71.7077 221.812C72.0624 219.506 72.262 217.222 72.7498 214.887C72.8163 214.606 72.8163 214.332 72.8828 214.051C73.171 213.416 73.8953 213.372 74.361 213.142C75.6248 212.736 75.8391 212.27 76.0386 213.652C76.386 215.67 77.162 217.399 77.5168 219.38C77.5833 219.75 77.6277 220.119 77.6794 220.504C77.8863 220.932 77.2729 221.405 76.7999 221.553V221.568Z" fill="currentColor"/>
<path d="M87.5539 211.409C87.5022 212.274 87.4283 213.146 87.2879 214.033C87.5096 213.967 87.7239 213.93 87.9382 213.878C87.7904 213.058 87.6648 212.215 87.5613 211.365C87.5554 211.379 87.5528 211.394 87.5539 211.409ZM89.4459 216.28C89.0912 216.406 88.7069 216.524 88.3817 216.613C88.2339 216.613 88.3152 216.391 88.3004 216.28C88.3004 216.029 88.2191 215.8 88.1895 215.541C87.7707 215.713 87.3494 215.876 86.9257 216.029C86.8572 216.459 86.7407 216.881 86.5783 217.285C86.1792 217.677 85.5067 217.692 85.0411 217.869C84.9524 217.869 84.6937 218.069 84.7528 217.869C84.9198 217.35 85.0434 216.819 85.1224 216.28C85.455 214.144 85.6545 212.03 86.1053 209.88C86.1645 209.614 86.1719 209.362 86.231 209.141C86.4823 208.557 87.1031 208.534 87.517 208.335C88.5886 207.995 88.7512 207.596 88.936 208.852C89.1947 210.744 89.8303 212.37 90.0815 214.233C90.1333 214.58 90.1628 214.972 90.2072 215.282C90.3772 215.733 89.8524 216.162 89.4459 216.28Z" fill="currentColor"/>
<path d="M80.6569 202.137C80.5978 203.179 80.5165 204.221 80.3613 205.278C80.6273 205.219 80.8934 205.174 81.1595 205.137C80.9599 204.14 80.7973 203.12 80.6569 202.085V202.137ZM83.0219 208.101C82.5876 208.237 82.1459 208.348 81.699 208.434C81.5216 208.434 81.6177 208.168 81.5955 208.027C81.5955 207.724 81.492 207.443 81.4551 207.14L79.8735 207.643C79.799 208.152 79.6573 208.649 79.4522 209.121C78.957 209.565 78.1219 209.542 77.5454 209.735C77.4345 209.735 77.1093 209.941 77.1906 209.69C77.3926 209.073 77.541 208.44 77.6341 207.798C78.0258 205.241 78.2623 202.706 78.787 200.134C78.8609 199.824 78.8683 199.521 78.9348 199.21C79.2453 198.53 80.0213 198.552 80.5386 198.345C81.8764 198.02 82.0685 197.51 82.3124 199.084C82.6524 201.383 83.458 203.386 83.7906 205.64C83.8571 206.061 83.894 206.49 83.9532 206.911C84.1675 207.539 83.5245 208.012 83.0219 208.101Z" fill="currentColor"/>
<path d="M90.7605 205.454C90.4945 205.506 89.7406 205.912 89.6445 205.609C89.6445 204.826 89.748 204.028 89.7923 203.244C89.9533 201.105 89.9853 198.958 89.8884 196.815C89.8441 196.231 89.6815 195.75 90.4132 195.588C90.9977 195.387 91.5922 195.217 92.1943 195.078C93.5099 194.767 93.3325 194.553 93.4508 196.075C93.4508 196.445 93.4508 197.118 92.9851 197.132C92.6452 197.228 92.2904 197.295 91.9504 197.384C91.9504 198.004 92.0022 198.618 92.0096 199.239C92.2756 199.194 92.5417 199.12 92.8078 199.054C92.9186 199.054 93.0738 198.913 93.133 199.054C93.1854 199.523 93.1854 199.996 93.133 200.466C93.2069 201.109 92.3939 201.389 92.0096 201.463C91.9283 203.68 91.8987 202.372 93.1551 202.498C93.3842 202.542 93.2734 202.934 93.3251 203.148C93.3943 203.55 93.3561 203.963 93.2142 204.346C93.0369 204.553 92.793 204.56 92.586 204.686C91.9913 204.973 91.3819 205.23 90.7605 205.454Z" fill="currentColor"/>
<path d="M84.6762 207.497C84.4915 207.46 84.6762 206.565 84.6171 206.299V206.225C84.5137 204.407 84.728 202.478 84.6171 200.638C84.6171 199.899 84.558 199.212 84.5137 198.502C84.5137 198.14 84.3806 197.652 84.8093 197.394C85.3181 197.123 85.876 196.957 86.45 196.906C86.6939 196.839 86.7826 197.076 86.7161 197.334C86.6496 197.593 86.7161 198.073 86.7161 198.413C86.7161 198.746 86.7161 199.079 86.7161 199.419C86.8885 198.749 87.0437 198.076 87.1817 197.401C87.1842 197.2 87.2449 197.005 87.3564 196.838C87.468 196.672 87.6255 196.541 87.8099 196.462C88.1719 196.322 88.5608 196.264 88.9481 196.292C89.0516 196.292 89.155 196.292 89.1772 196.381C89.1638 196.993 89.0643 197.6 88.8816 198.184C88.6081 199.389 88.2238 200.594 87.9503 201.798C88.2238 202.7 88.4012 203.668 88.6894 204.563C88.8077 204.917 88.9407 205.257 89.0811 205.582C89.0163 205.741 88.916 205.883 88.7879 205.997C88.6598 206.111 88.5073 206.194 88.3421 206.24C88.0507 206.368 87.7417 206.45 87.4256 206.484C87.0487 206.255 86.9526 205.664 86.7678 205.228C86.7678 205.967 86.8491 206.787 85.9105 207.016C85.5262 207.12 85.0901 207.489 84.6762 207.497Z" fill="currentColor"/>
<path d="M74.2806 211.055C73.9333 211.181 73.6598 211.211 73.7485 210.76C73.6968 209.969 73.7485 209.134 73.7485 208.328C73.7485 206.51 73.7042 204.707 73.7485 202.852C73.2963 203.037 72.8255 203.173 72.3443 203.258C72.1595 203.258 72.1595 203.081 72.1521 202.926C72.1186 202.503 72.1186 202.078 72.1521 201.654C71.9304 200.723 73.0316 200.583 73.6302 200.502C74.2409 200.394 74.8454 200.253 75.441 200.08C75.9583 199.91 76.4683 199.733 76.9856 199.548C77.503 199.363 77.7247 199.238 77.6878 199.851C77.6845 199.876 77.6845 199.901 77.6878 199.925C77.6878 200.058 77.6878 200.199 77.6878 200.339C77.8134 201.876 77.4069 201.647 76.2096 202.076C76.2096 204.012 76.2096 205.934 76.2096 207.87C76.1357 208.513 76.3426 209.792 75.8179 210.346C75.3301 210.612 74.798 210.804 74.2806 211.055Z" fill="currentColor"/>
<path d="M83.3912 218.765C82.9699 218.935 82.5487 219.068 82.12 219.194C81.9574 219.231 81.7283 219.415 81.6544 219.194C81.5352 218.75 81.4706 218.293 81.4622 217.834C81.4179 217.257 81.3514 216.681 81.2923 216.104C80.6419 220.48 81.6692 219.009 78.6094 220.539C78.506 220.583 78.3729 220.627 78.3434 220.539L78.2547 219.741C78.0921 218.735 77.996 217.693 77.9147 216.644C77.8408 215.846 77.6856 215.092 77.5673 214.308C77.5099 213.768 77.416 213.232 77.2865 212.705C77.2865 212.542 77.0721 212.424 77.22 212.217C77.523 211.759 77.996 211.773 78.3655 211.707C78.5799 211.707 78.9494 211.485 79.1046 211.611C79.3052 212.196 79.427 212.804 79.4667 213.421C79.5776 214.294 79.6811 215.151 79.7772 216.016C79.8511 215.417 79.9324 214.818 80.0432 214.205C80.1541 213.606 80.2945 213.008 80.4054 212.409C80.8045 210.251 80.3241 210.886 82.2087 210.362C82.5117 210.28 82.5043 211.574 82.5856 211.84C82.7187 212.623 82.8369 213.399 82.9034 214.205C83.0439 213.059 83.2434 211.906 83.3986 210.761C83.3986 209.467 83.8347 209.689 84.7216 209.327C84.862 209.327 85.1946 209.098 85.2463 209.268C85.2465 209.867 85.1945 210.466 85.0911 211.056C84.8989 212.261 84.7142 213.466 84.4924 214.678C84.3077 215.75 84.2412 216.799 84.1155 217.856C84.1894 218.351 83.8642 218.602 83.3912 218.765Z" fill="currentColor"/>
<path d="M91.0062 215.566C90.7771 215.566 90.7623 215.366 90.8066 215.13C90.8066 214.708 90.8066 214.287 90.8066 213.851C90.8066 213.777 90.8066 213.703 90.8066 213.637C90.8066 213.467 90.8066 213.289 90.8066 213.119C90.8181 213.029 90.8181 212.937 90.8066 212.846C90.4001 211.22 89.7571 209.734 89.6093 207.909C89.5354 207.909 89.6093 207.754 89.6611 207.687C90.1471 207.361 90.7166 207.181 91.3018 207.17C91.494 207.909 91.6418 208.722 91.797 209.498C91.8004 209.552 91.8004 209.606 91.797 209.661C91.93 208.921 92.0778 208.145 92.2478 207.384C92.24 207.224 92.267 207.063 92.3269 206.914C92.3869 206.765 92.4784 206.63 92.5952 206.519C92.8021 206.35 93.0091 206.409 93.2086 206.335C93.5855 206.253 93.9477 206.113 94.3468 206.002C94.7089 205.847 93.9403 207.998 93.8738 208.271C93.6373 209.062 93.3934 209.86 93.1347 210.658C93.1347 210.658 93.1347 210.658 93.1347 210.703C92.9794 211.243 92.7919 211.774 92.573 212.292C92.573 212.89 92.7652 214.258 92.3882 214.797C92.0089 215.178 91.5299 215.445 91.0062 215.566Z" fill="currentColor"/>
<path d="M88.7242 157.442L88.8794 162.823C89.0124 167.376 87.6747 169.216 86.0413 171.004C84.6864 172.382 82.9657 173.344 81.0821 173.776C80.9969 173.8 80.9072 173.803 80.8206 173.785C80.734 173.767 80.6529 173.728 80.5842 173.673C80.5154 173.617 80.4611 173.546 80.4255 173.464C80.39 173.383 80.3744 173.295 80.38 173.207L80.587 169.896C80.5938 169.761 80.6413 169.632 80.7231 169.525C80.8049 169.418 80.9172 169.339 81.0452 169.297C82.6194 168.787 84.3932 167.819 84.3119 164.914L83.9054 151.19C83.9009 151.04 83.9464 150.892 84.0346 150.77C84.1229 150.649 84.249 150.56 84.3932 150.517L87.6377 149.579C87.7372 149.549 87.8421 149.543 87.9444 149.56C88.0466 149.578 88.1435 149.618 88.2277 149.679C88.3119 149.74 88.3811 149.819 88.43 149.91C88.4789 150.002 88.5062 150.103 88.5098 150.207L88.7242 157.442Z" fill="currentColor"/>
<path d="M105.989 154.549L106.034 155.982C106.171 157.841 106.029 159.709 105.612 161.525C105.144 163.286 104.212 164.888 102.915 166.167C101.625 167.371 100.059 168.242 98.3547 168.702C96.8663 169.225 95.2517 169.272 93.7355 168.835C93.0558 168.575 92.4399 168.172 91.9298 167.653C91.4197 167.134 91.0273 166.511 90.7792 165.827C90.3358 164.866 90.0919 163.137 90.0402 160.653V159.227C89.9441 156.16 90.2175 153.928 90.8827 152.575C91.3856 151.257 92.17 150.064 93.1812 149.079C94.4615 147.859 96.0265 146.977 97.7339 146.515C99.2253 145.986 100.847 145.95 102.361 146.411C103.407 146.8 104.28 147.55 104.822 148.525C105.511 149.486 105.901 151.494 105.989 154.549ZM98.2291 164.29C99.7072 163.831 100.594 163.218 100.964 162.435C101.333 161.939 101.592 160.69 101.525 158.444L101.422 155.11C101.355 152.686 101.023 151.311 100.557 151.097C100.062 150.654 99.1825 150.587 97.8817 150.898H97.7857C96.7449 151.166 95.8238 151.775 95.1693 152.627C94.7259 153.107 94.3785 154.541 94.4303 156.988L94.5263 160.35C94.5929 162.568 94.992 163.75 95.3911 164.046C95.8123 164.607 96.7583 164.681 98.2291 164.29Z" fill="currentColor"/>
<path d="M121.419 155.25V155.775C121.477 157.534 120.952 159.262 119.925 160.691C118.898 162.12 117.428 163.169 115.743 163.676C115.137 163.846 110.355 165.065 108.404 165.568C108.305 165.592 108.202 165.594 108.102 165.573C108.003 165.552 107.909 165.51 107.828 165.448C107.747 165.386 107.682 165.307 107.635 165.217C107.589 165.126 107.564 165.026 107.561 164.925L106.955 144.445C106.959 144.298 107.007 144.155 107.092 144.035C107.178 143.915 107.298 143.824 107.435 143.772L110.569 142.789C112.417 142.161 114.316 141.614 114.627 141.518C117.635 140.779 120.465 141.444 120.606 146.086V146.64C120.633 148.004 120.241 149.343 119.482 150.476C119.385 150.629 119.352 150.814 119.391 150.991C119.43 151.169 119.537 151.323 119.689 151.422C120.864 152.205 121.367 153.447 121.419 155.25ZM116.689 147.697C116.652 146.3 115.95 145.443 114.05 146.108L112.166 146.707C112.023 146.749 111.899 146.837 111.812 146.957C111.725 147.078 111.681 147.223 111.685 147.372L111.781 150.572C111.784 150.675 111.81 150.777 111.858 150.868C111.906 150.96 111.975 151.039 112.058 151.1C112.142 151.161 112.238 151.201 112.34 151.219C112.442 151.236 112.547 151.23 112.646 151.2L115.27 150.461C116.223 149.929 116.74 149.485 116.689 147.697ZM117.383 156.396C117.339 154.992 116.711 154.23 115.647 154.334L112.439 155.272C112.294 155.314 112.167 155.402 112.079 155.524C111.99 155.646 111.945 155.794 111.951 155.945L112.069 160.15H112.143L114.885 159.47C115.61 159.35 116.265 158.967 116.726 158.394C117.187 157.822 117.421 157.1 117.383 156.366V156.396Z" fill="currentColor"/>
<path d="M88.7318 134.516L89.0126 144.035C89.0154 144.146 88.9814 144.255 88.9159 144.344C88.8503 144.434 88.757 144.499 88.6505 144.53L84.7925 145.653C84.6838 145.683 84.5682 145.676 84.4639 145.633C84.3596 145.591 84.2725 145.515 84.216 145.417L79.6264 137.391C79.5731 137.291 79.4872 137.212 79.3829 137.167C79.2785 137.123 79.1621 137.116 79.0532 137.147C78.9442 137.178 78.8491 137.246 78.784 137.338C78.7188 137.431 78.6875 137.544 78.6951 137.657L78.9686 146.954C78.9714 147.065 78.9374 147.174 78.8719 147.263C78.8063 147.353 78.713 147.418 78.6065 147.449L75.0072 148.491C74.9341 148.512 74.8574 148.515 74.7829 148.501C74.7084 148.488 74.6379 148.457 74.5768 148.412C74.5157 148.368 74.4654 148.31 74.4299 148.243C74.3944 148.176 74.3744 148.102 74.3716 148.026L73.7581 127.184C73.7541 127.073 73.7876 126.963 73.8533 126.874C73.919 126.784 74.0131 126.719 74.1203 126.689L77.9635 125.573C78.0703 125.541 78.1845 125.547 78.2878 125.589C78.391 125.63 78.4772 125.705 78.5326 125.802L83.1148 133.71C83.1721 133.804 83.2586 133.876 83.361 133.916C83.4633 133.956 83.5759 133.961 83.6815 133.931C83.7872 133.901 83.88 133.837 83.9458 133.749C84.0117 133.661 84.0469 133.554 84.046 133.444L83.78 124.272C83.7772 124.161 83.8112 124.052 83.8767 123.963C83.9422 123.873 84.0356 123.808 84.1421 123.777L87.7636 122.727C87.8367 122.706 87.9138 122.701 87.989 122.714C88.0641 122.727 88.1352 122.758 88.1967 122.803C88.2582 122.848 88.3085 122.906 88.3436 122.974C88.3787 123.042 88.3978 123.117 88.3992 123.193L88.7318 134.516Z" fill="currentColor"/>
<path d="M95.5102 129.402L98.9099 128.411C98.986 128.39 99.0659 128.388 99.1432 128.403C99.2205 128.419 99.2931 128.453 99.355 128.502C99.4169 128.551 99.4663 128.613 99.4994 128.685C99.5325 128.757 99.5483 128.835 99.5455 128.914L99.4199 131.944C99.4159 132.049 99.3786 132.15 99.3135 132.232C99.2484 132.315 99.1588 132.374 99.0577 132.402L95.3623 133.474C95.2565 133.505 95.1641 133.571 95.0998 133.661C95.0355 133.75 95.0031 133.859 95.0076 133.969L95.1111 137.665C95.1136 137.741 95.1337 137.816 95.1696 137.884C95.2056 137.951 95.2565 138.01 95.3186 138.055C95.3806 138.1 95.4521 138.13 95.5276 138.143C95.6031 138.156 95.6805 138.152 95.7541 138.13L100.395 136.785C100.469 136.762 100.547 136.757 100.623 136.769C100.699 136.781 100.771 136.811 100.834 136.857C100.896 136.902 100.947 136.961 100.983 137.029C101.018 137.098 101.037 137.174 101.038 137.251L101.135 140.54C101.137 140.651 101.103 140.759 101.038 140.849C100.972 140.938 100.879 141.004 100.772 141.035L91.2531 143.806C91.18 143.828 91.1028 143.832 91.0277 143.819C90.9526 143.806 90.8815 143.776 90.82 143.731C90.7584 143.686 90.7082 143.627 90.673 143.56C90.6379 143.492 90.6189 143.417 90.6175 143.341L90.0041 122.469C90.0013 122.358 90.0353 122.25 90.1008 122.16C90.1663 122.07 90.2596 122.005 90.3662 121.974L99.8781 119.173C99.9517 119.15 100.03 119.144 100.106 119.157C100.182 119.169 100.254 119.199 100.316 119.245C100.379 119.29 100.43 119.349 100.465 119.417C100.501 119.486 100.52 119.562 100.521 119.639L100.617 122.839C100.62 122.95 100.586 123.058 100.52 123.148C100.455 123.238 100.362 123.303 100.255 123.334L95.0815 124.812C94.9749 124.843 94.8816 124.908 94.8161 124.998C94.7506 125.088 94.7166 125.196 94.7193 125.307L94.8302 128.921C94.8285 129.003 94.847 129.085 94.8841 129.158C94.9211 129.231 94.9756 129.295 95.0427 129.342C95.1098 129.389 95.1875 129.42 95.269 129.43C95.3505 129.44 95.4333 129.431 95.5102 129.402Z" fill="currentColor"/>
<path d="M121.407 135.01L116.877 136.333C116.812 136.352 116.745 136.358 116.678 136.35C116.611 136.342 116.546 136.321 116.488 136.288C116.429 136.255 116.378 136.211 116.337 136.157C116.296 136.104 116.266 136.043 116.249 135.978L114.549 129.193C114.524 129.079 114.46 128.977 114.367 128.906C114.274 128.834 114.159 128.798 114.042 128.803C113.925 128.808 113.814 128.855 113.728 128.935C113.642 129.014 113.588 129.122 113.573 129.238L112.243 137.368C112.23 137.46 112.19 137.547 112.128 137.618C112.066 137.689 111.986 137.741 111.896 137.767L107.269 139.119C107.204 139.137 107.137 139.142 107.071 139.134C107.004 139.126 106.94 139.105 106.881 139.072C106.823 139.039 106.772 138.995 106.731 138.942C106.689 138.889 106.659 138.829 106.641 138.764L101.467 119.253C101.435 119.127 101.452 118.993 101.515 118.878C101.578 118.764 101.683 118.679 101.807 118.639L105.909 117.45C105.975 117.432 106.043 117.427 106.11 117.436C106.178 117.445 106.242 117.468 106.301 117.502C106.359 117.537 106.41 117.582 106.451 117.637C106.492 117.691 106.521 117.753 106.537 117.819L108.925 127.782C108.95 127.896 109.015 127.998 109.108 128.069C109.202 128.14 109.317 128.175 109.434 128.169C109.551 128.163 109.662 128.115 109.748 128.035C109.833 127.955 109.887 127.847 109.9 127.73L111.556 116.119C111.57 116.024 111.61 115.934 111.673 115.861C111.736 115.788 111.818 115.734 111.91 115.705L113.595 115.218L115.074 114.781C115.139 114.762 115.208 114.755 115.276 114.763C115.344 114.772 115.41 114.794 115.469 114.828C115.528 114.863 115.579 114.91 115.619 114.965C115.659 115.021 115.687 115.084 115.702 115.151L117.919 125.128C117.943 125.241 118.005 125.342 118.094 125.414C118.184 125.487 118.295 125.526 118.411 125.526C118.526 125.526 118.637 125.487 118.727 125.414C118.816 125.342 118.878 125.241 118.902 125.128L120.728 113.473C120.742 113.38 120.784 113.293 120.847 113.222C120.909 113.151 120.991 113.1 121.082 113.074L125.051 111.921C125.133 111.897 125.219 111.894 125.303 111.913C125.386 111.931 125.463 111.971 125.526 112.029C125.589 112.086 125.636 112.158 125.663 112.239C125.69 112.32 125.696 112.407 125.679 112.49L121.74 134.663C121.718 134.744 121.676 134.818 121.618 134.879C121.56 134.939 121.488 134.984 121.407 135.01Z" fill="currentColor"/>
</g>
<path d="M176.363 249.782C176.819 255.302 181.173 255.726 177.783 250.598C177.508 250.238 176.692 248.871 176.363 249.782Z" fill="currentColor"/>
<path d="M163.438 144.165C163.438 145.097 163.491 146.019 163.533 146.941V146.856C163.936 150.564 163.226 154.982 164.254 158.362C166.69 157.515 165.165 152.832 165.451 150.734V150.638C165.182 146.015 164.609 141.414 163.734 136.865C162.601 137.543 163.639 142.586 163.438 144.165Z" fill="currentColor"/>
<path d="M138.168 110.79C138.173 110.889 138.173 110.988 138.168 111.086C138.168 111.192 138.168 111.298 138.168 111.404V111.256C138.168 111.394 138.168 111.521 138.168 111.659C138.173 111.63 138.173 111.602 138.168 111.574C138.602 120.908 138.782 130.263 139.026 139.608C139.026 140.296 139.09 140.985 139.132 141.663C139.137 141.635 139.137 141.606 139.132 141.578C139.132 141.875 139.132 142.182 139.132 142.479C139.132 143.114 139.196 143.74 139.217 144.386V144.291C139.8 151.516 139.704 159.441 141.029 166.349C143.349 165.703 141.601 162.418 141.823 160.702C141.463 156.464 141.134 152.141 140.944 147.84C140.939 147.871 140.939 147.904 140.944 147.935C140.944 147.427 140.944 146.876 140.87 146.409C140.864 146.437 140.864 146.466 140.87 146.494C140.541 138.58 140.605 130.666 140.202 122.751C140.197 122.783 140.197 122.815 140.202 122.847C140.197 122.762 140.197 122.677 140.202 122.592V122.688C140.202 122.518 140.202 122.349 140.202 122.19V122.285C140.202 122.116 140.202 121.946 140.202 121.787C140.197 121.819 140.197 121.851 140.202 121.883C139.842 113.746 139.588 105.609 139.302 97.5144C138.401 89.1551 137.712 109.455 138.168 110.79Z" fill="currentColor"/>
<path d="M140.912 146.982C140.907 147.007 140.907 147.033 140.912 147.058C140.912 147.058 140.912 147.015 140.912 146.982Z" fill="currentColor"/>
<path d="M142.202 169.9C142.202 169.9 142.044 169.804 142.001 169.825C140.497 171.383 141.736 174.529 141.694 176.585C141.758 177.782 141.895 179.679 143.262 177.983C143.492 175.244 143.131 172.487 142.202 169.9Z" fill="currentColor"/>
<path d="M193.409 176.023C193.515 181.373 193.536 186.734 193.695 192.085C193.875 192.72 193.324 194.913 194.415 194.384C195.305 193.748 194.828 192.371 194.977 191.428C194.977 187.624 194.977 183.81 195.072 180.007C195.178 168.946 195.612 157.863 195.189 146.813C193.578 117.455 193.038 170.906 193.409 176.023Z" fill="currentColor"/>
<path d="M194.989 200.74C194.989 200.2 194.734 197.816 194.289 199.437C194.126 201.009 194.212 202.596 194.544 204.141C195.773 203.696 194.798 201.757 194.989 200.74Z" fill="currentColor"/>
<path d="M195.721 239.051C196.251 251.499 196.844 263.948 196.442 276.418C198.836 278.813 197.734 261.459 198.042 259.891C197.893 252.188 197.883 244.464 197.258 236.783C196.866 234.495 197.194 231.708 196.134 229.695C194.8 231.274 195.933 236.72 195.721 239.051Z" fill="currentColor"/>
<path d="M185.641 87.1529C183.842 80.7422 181.525 74.4884 178.712 68.4531C176.985 65.9951 166.761 41.2244 164.07 45.7908C168.87 56.2691 176.371 65.6349 180.291 76.6641V76.7276C182.124 80.9656 183.469 85.765 185.355 89.844C186.87 89.6215 185.79 88.0217 185.641 87.1529Z" fill="currentColor"/>
<path d="M188.282 96.8901C187.879 95.6294 187.773 94.1461 186.947 93.076C185.686 92.9277 187.636 97.2398 187.71 98.0979C188.441 98.5429 188.536 97.3881 188.282 96.8901Z" fill="currentColor"/>
<path d="M304.176 80.9769C308.086 95.34 310.137 110.145 310.279 125.03C310.279 125.888 309.982 128.876 311.338 127.064C311.487 123.346 311.338 119.648 311.211 115.929C311.038 106.073 310.114 96.2442 308.446 86.5286C307.577 82.9475 307.323 78.9851 305.384 75.7855C302.916 74.3128 303.922 79.8221 304.176 80.9769Z" fill="currentColor"/>
<path d="M172.094 41.0017C174.149 40.811 173.905 37.6643 171.892 40.5567C171.702 40.758 171.829 40.9699 172.094 41.0017Z" fill="currentColor"/>
<path d="M176.395 41.2309C177.243 41.2309 177.942 40.0125 178.398 39.3874C178.058 38.8683 177.338 39.2179 177.105 39.6311C176.872 40.0443 175.823 40.9449 176.395 41.2309Z" fill="currentColor"/>
<path d="M181.194 40.2703C181.893 40.2703 182.253 39.391 182.772 38.9884C182.794 38.961 182.819 38.9362 182.846 38.9142C182.875 38.8798 182.907 38.8479 182.942 38.8188C183.418 38.0984 185.347 36.827 184.828 36.043C183.991 36.0324 180.706 39.7724 181.194 40.2703Z" fill="currentColor"/>
<path d="M186.373 39.0943C185.504 38.5222 184.752 39.9419 184.254 40.5034C184.657 41.9019 186.468 39.9313 186.373 39.0943Z" fill="currentColor"/>
<path d="M256.935 32.2611C256.014 32.0386 254.001 34.7508 255.876 34.1575C256.247 33.7549 257.603 32.706 256.935 32.2611Z" fill="currentColor"/>
<path d="M285.817 26.9749C286.813 27.2292 288.084 25.5234 287.618 24.7182C286.972 24.6229 284.62 26.5617 285.817 26.9749Z" fill="currentColor"/>
<path d="M288.869 26.3278C289.494 26.9423 290.818 25.9358 289.928 25.3954C289.557 25.3107 288.498 25.8616 288.869 26.3278Z" fill="currentColor"/>
<path d="M259.871 29.6738V29.7263C259.866 29.7092 259.866 29.6909 259.871 29.6738Z" fill="currentColor"/>
<path d="M286.736 242.526L286.928 242.398L286.736 242.526Z" fill="currentColor"/>
<path d="M132.923 108.077C134.65 142.309 135.964 176.626 139.524 210.73C140.584 220.181 141.834 229.621 143.455 238.997C144.175 241.053 144.027 248.533 146.718 248.384C156.878 254.572 164.623 264.139 173.586 271.873C179.509 276.588 185.061 283.527 192.742 285C195.475 284.873 197.605 281.313 199.925 280.307C212.374 272.466 238.374 264.891 251.543 258.312C260.474 253.841 294.24 239.622 301.339 234.855C305.004 231.676 311.859 229.017 313.173 224.26C315.027 200.496 313.777 176.52 315.652 152.713C315.652 152.713 315.652 152.618 315.652 152.576C316.51 139.152 318.46 125.707 317.347 112.241C314.052 81.3996 304.559 53.8425 294.674 24.6115C292.926 21.7614 294.674 22.0581 295.427 19.5577C298.065 0.158639 296.507 0.423508 280.223 0.0103104C277.596 -0.23337 249.583 3.93039 247.273 3.18875C247.059 2.73708 246.741 2.34241 246.345 2.03681C245.949 1.73122 245.487 1.52332 244.995 1.43001C240.228 0.677783 235.46 2.11868 230.618 2.28819C227.641 2.90269 212.893 0.698973 213.677 4.80976C198.929 5.22296 157.186 7.5856 142.501 9.39731C129.787 7.10883 134.852 18.9326 135.456 26.6139C137.299 39.3276 133.337 52.0414 133.019 64.7552C132.945 65.7617 132.86 66.7576 132.796 67.8171C131.896 81.2195 132.351 94.6643 132.923 108.077ZM250.822 5.50902C255.113 5.77389 291.178 -0.614783 291.326 4.82035C293.032 10.3932 294.357 20.8927 286.199 20.3523C281.611 20.9245 258.652 23.8274 253.99 23.9864C253.333 17.6295 250.621 11.601 248.492 5.59377L250.822 5.50902ZM255.77 27.0271C254.954 28.0865 254.245 29.252 253.429 30.3326C253.439 28.3302 253.28 26.6457 255.77 27.0271ZM219.409 43.1312C220.956 48.4286 223.647 53.281 225.872 58.2923C227.217 61.5873 227.641 63.8864 231.879 62.8375C237.07 62.0535 242.177 60.8775 247.305 59.765C269.84 55.8661 258.143 56.9998 254.022 36.6366C254.022 36.6366 254.022 36.6366 254.022 36.7001C253.927 35.8737 253.821 35.0473 253.715 34.2103C252.846 31.6146 254.774 30.036 256.342 28.2243C257.254 26.349 259.288 26.8893 261.068 26.5821C260.813 26.8258 260.559 27.08 260.315 27.3449L260.199 27.4615C259.285 28.3667 258.481 29.3766 257.804 30.4704C256.978 33.0555 262.667 27.1436 262.975 26.5079C263.716 24.7598 282.808 23.8592 284.387 23.6367C283.952 24.3148 281.06 27.7263 282.851 27.6945C288.265 23.4566 282.776 23.4566 291.146 23.107C299.344 44.6484 306.028 66.7357 311.149 89.208C315.112 106.647 314.963 124.626 313.47 142.352C313.47 142.352 313.47 142.288 313.47 142.256C313.374 143.612 313.268 144.958 313.173 146.303C313.173 146.303 313.173 146.219 313.173 146.166C311.393 166.01 311.827 185.939 311.266 205.836C310.418 211.896 312.855 224.377 307.844 228.222L307.685 228.35C285.912 244.072 218.106 265.76 195.634 280.391C194.278 246.573 190.453 212.871 190.104 178.999C189.584 164.06 190.538 149.111 190.029 134.183C189.171 120.458 186.517 106.905 182.136 93.8697C175.345 72.055 166.837 49.3715 148.996 34.168C152.005 33.9031 155.003 33.5005 158.012 33.2038C157.292 33.8289 158.266 34.2633 158.817 33.9137C159.421 32.8542 160.449 32.9496 161.582 32.8542C161.318 33.4687 159.305 35.0579 160.661 35.2063C162.78 33.5429 162.006 32.3033 165.555 32.5258C165.07 33.1646 164.631 33.8373 164.242 34.5388C164.179 34.6267 164.122 34.7187 164.072 34.8142C163.765 36.6683 166.022 33.7548 166.244 33.2356C166.837 31.8901 168.66 32.5681 169.878 32.3139C169.497 33.0449 165.46 36.7319 167.166 36.8061C169.624 35.3122 170.058 31.265 173.703 32.1656C173.279 32.833 170.355 35.9055 172.061 35.9585C174.89 34.0938 173.798 31.3497 178.333 32.0278C177.665 33.0873 173.364 37.5795 174.349 38.2999C176.118 37.9291 176.966 35.4287 178.216 34.1786C179.159 31.7206 180.96 31.8159 183.312 31.8901C182.74 32.78 178.142 37.4312 179.244 37.8232C180.96 37.5053 183.228 33.0661 184.457 31.8477C185.061 31.2438 212.49 28.3938 214.588 28.4468C214.133 29.0719 211.526 31.2014 213.402 31.2014C215.521 29.4109 215.086 27.8641 218.551 28.3726C213.179 32.8542 212.342 38.0563 218.466 29.7817C218.72 32.5787 216.856 34.1362 215.415 36.3293C216.05 37.3888 217.534 34.8778 218.159 34.454C218.267 37.3826 218.686 40.2913 219.409 43.1312ZM143.995 10.9653C155.798 9.77872 167.664 10.425 179.498 10.3085C182.115 10.4674 211.993 6.49433 214.461 7.01348C217.248 10.1919 218.381 14.4828 219.059 18.5512C219.059 25.12 220.267 25.1094 212.766 26.3808C198.887 28.6905 162.239 29.9936 150.257 32.3563C151.676 24.9399 147.65 16.8349 143.222 11.0713L143.995 10.9653ZM147.269 29.6758C147.269 30.2373 147.396 30.82 147.407 31.3815C146.379 30.112 145.537 28.7029 144.906 27.1966C145.568 27.1581 146.22 27.0114 146.834 26.7622C146.834 26.9211 146.898 27.08 146.94 27.239C146.94 27.239 146.94 27.1436 146.94 27.0906C147.114 27.943 147.224 28.8071 147.269 29.6758ZM135.18 77.4901C135.262 67.5285 136.095 57.5872 137.67 47.7505C139.577 36.4459 141.357 32.0172 137.511 20.596C137.512 20.5713 137.512 20.5466 137.511 20.5219C132.902 1.4512 145.764 16.4217 146.527 25.2683C145.86 25.4273 145.86 24.5797 145.468 24.3042C139.937 21.9204 143.455 31.0425 145.468 32.78C150.352 38.7979 156.338 43.9576 160.555 50.5475C171.732 68.4951 178.693 88.8796 184.202 109.137C191.502 134.713 187.381 161.39 188.716 187.538C189.034 218.867 193.505 250.048 193.367 281.377C191.248 277.52 188.843 273.727 186.798 269.775C186.48 269.15 186.141 268.514 185.813 267.879V267.964L185.664 267.678V267.762C185.188 266.83 184.669 265.919 184.192 264.986C183.567 263.768 182.973 262.539 182.338 261.321L182.242 261.141C181.861 260.378 181.479 259.572 181.098 258.831C179.625 258.735 181.85 262.867 181.893 263.8C183.251 267.695 184.956 271.461 186.989 275.052V274.967C187.002 275.001 187.02 275.033 187.042 275.062C188.369 277.566 189.837 279.992 191.439 282.33C175.154 272.933 164.21 256.797 148.71 246.308C151.74 243.701 155.607 242.271 158.86 239.951L158.531 240.163C161.233 238.224 164.231 236.465 166.212 233.753C167.445 237.133 169.38 240.214 171.891 242.79C173.576 242.483 171.891 240.428 171.383 239.675C171.065 239.177 170.705 238.711 170.387 238.213C166.255 231.443 167.505 223.148 166.922 215.583C166.615 206.874 166.795 198.165 166.922 189.467C166.922 180.991 166.339 172.589 165.746 164.145C162.981 162.852 164.485 169.072 164.326 170.502C164.321 170.534 164.321 170.566 164.326 170.597C164.321 170.686 164.321 170.774 164.326 170.862C164.274 174.327 164.411 177.77 164.634 181.224C164.634 181.277 164.634 181.34 164.634 181.393C164.634 181.393 164.634 181.51 164.634 181.563C164.634 181.616 164.634 181.478 164.634 181.446C164.634 181.415 164.634 181.595 164.634 181.679C164.973 195.453 165.163 209.226 165.608 222.904C165.614 222.879 165.614 222.854 165.608 222.83C165.026 226.432 165.958 230.373 163.786 233.583C158.722 237.821 152.937 241.36 147.767 245.534C139.905 189.954 134.852 133.717 135.18 77.4901Z" fill="currentColor"/>
<path d="M139.775 56.1626C141.893 55.6858 140.749 47.994 141.459 45.8432C141.576 43.7243 142.137 41.3828 142.063 39.4863C141.099 40.5458 141.141 42.3575 140.749 43.7243C140.209 47.7503 139.118 52.3166 139.775 56.1626Z" fill="currentColor"/>
<path d="M143.625 50.4834C145.872 49.7206 144.462 45.1013 145.289 43.1942C144.102 43.1095 143.265 49.2968 143.625 50.4834Z" fill="currentColor"/>
<path d="M146.93 48.6315C148.477 48.462 148.212 45.9405 147.757 45.0293C146.909 45.3789 146.38 48.017 146.93 48.6315Z" fill="currentColor"/>
<path d="M140.104 20.4156C140.104 18.6993 139.298 16.3366 140.104 14.9063C140.972 13.974 139.383 13.8468 139.044 14.6203C137.487 16.9617 137.847 20.8924 139.298 23.0961C140.591 22.8524 140.252 21.3797 140.104 20.4156Z" fill="currentColor"/>
<path d="M141.696 18.9959C142.692 18.8158 142.597 17.7351 142.216 17.0359C142.29 16.8452 142.088 16.7604 141.951 16.8558C141.485 17.216 141.177 18.6781 141.696 18.9959Z" fill="currentColor"/>
<path d="M218.795 248.162C218.721 249.497 218.626 250.843 218.424 252.209C218.785 252.103 219.145 252.029 219.484 251.934C219.208 250.684 218.975 249.402 218.774 248.088C218.787 248.111 218.794 248.136 218.795 248.162ZM222.111 255.578C221.518 255.801 220.914 255.992 220.321 256.151C220.077 256.214 220.204 255.812 220.173 255.642C220.173 255.261 220.035 254.911 219.971 254.583C219.261 254.858 218.562 255.134 217.852 255.398C217.751 256.069 217.566 256.724 217.301 257.348C216.515 257.855 215.642 258.214 214.727 258.407C214.557 258.407 214.133 258.725 214.239 258.407C214.508 257.601 214.699 256.771 214.812 255.928C215.32 252.623 215.606 249.349 216.305 246.001C216.401 245.598 216.401 245.206 216.496 244.804C216.909 243.892 217.948 243.829 218.615 243.5C220.427 242.918 220.734 242.25 221.02 244.231C221.518 247.124 222.631 249.603 223.139 252.442C223.234 252.972 223.298 253.502 223.372 254.053C223.669 254.667 222.789 255.345 222.111 255.557V255.578Z" fill="currentColor"/>
<path d="M237.526 241.013C237.452 242.253 237.346 243.503 237.145 244.774C237.462 244.679 237.77 244.626 238.077 244.552C237.865 243.376 237.685 242.168 237.537 240.95C237.528 240.97 237.524 240.991 237.526 241.013ZM240.238 247.995C239.73 248.175 239.179 248.345 238.713 248.472C238.501 248.472 238.617 248.154 238.596 247.995C238.596 247.635 238.479 247.306 238.437 246.936C237.837 247.183 237.233 247.416 236.625 247.635C236.527 248.252 236.36 248.856 236.127 249.436C235.555 249.998 234.591 250.019 233.924 250.273C233.797 250.273 233.426 250.559 233.511 250.273C233.75 249.53 233.927 248.768 234.04 247.995C234.517 244.933 234.803 241.903 235.449 238.82C235.534 238.439 235.545 238.078 235.629 237.761C235.99 236.924 236.88 236.892 237.473 236.606C239.009 236.118 239.242 235.546 239.507 237.347C239.878 240.06 240.789 242.391 241.149 245.06C241.224 245.558 241.266 246.12 241.329 246.565C241.573 247.211 240.821 247.826 240.238 247.995Z" fill="currentColor"/>
<path d="M227.64 227.723C227.555 229.217 227.438 230.711 227.216 232.226C227.597 232.141 227.979 232.078 228.36 232.025C228.074 230.594 227.841 229.132 227.64 227.649V227.723ZM231.03 236.273C230.408 236.468 229.774 236.627 229.134 236.75C228.879 236.75 229.017 236.369 228.985 236.167C228.985 235.733 228.837 235.33 228.784 234.896L226.517 235.616C226.41 236.346 226.207 237.059 225.913 237.735C225.203 238.371 224.006 238.339 223.179 238.615C223.02 238.615 222.554 238.911 222.671 238.551C222.96 237.667 223.173 236.76 223.307 235.839C223.868 232.173 224.207 228.539 224.959 224.852C225.065 224.407 225.076 223.973 225.171 223.528C225.616 222.553 226.729 222.585 227.47 222.288C229.388 221.822 229.663 221.091 230.013 223.348C230.5 226.643 231.655 229.514 232.132 232.745C232.227 233.349 232.28 233.964 232.365 234.567C232.672 235.468 231.751 236.146 231.03 236.273Z" fill="currentColor"/>
<path d="M242.123 232.481C241.742 232.555 240.661 233.138 240.523 232.703C240.523 231.58 240.672 230.436 240.735 229.313C240.966 226.246 241.012 223.168 240.873 220.095C240.809 219.258 240.576 218.57 241.625 218.337C242.463 218.049 243.315 217.805 244.179 217.606C246.065 217.161 245.81 216.853 245.98 219.036C245.98 219.566 245.98 220.53 245.312 220.551C244.825 220.689 244.316 220.784 243.829 220.911C243.829 221.801 243.903 222.681 243.914 223.571C244.295 223.507 244.677 223.401 245.058 223.306C245.217 223.306 245.439 223.104 245.524 223.306C245.599 223.978 245.599 224.657 245.524 225.329C245.63 226.251 244.465 226.654 243.914 226.76C243.797 229.938 243.755 228.063 245.556 228.243C245.884 228.306 245.725 228.868 245.8 229.175C245.899 229.751 245.844 230.343 245.641 230.892C245.386 231.188 245.037 231.199 244.74 231.379C243.888 231.791 243.014 232.159 242.123 232.481Z" fill="currentColor"/>
<path d="M233.404 235.406C233.139 235.353 233.404 234.071 233.319 233.69V233.584C233.171 230.977 233.478 228.212 233.319 225.574C233.319 224.515 233.234 223.529 233.171 222.512C233.171 221.993 232.98 221.294 233.594 220.923C234.324 220.535 235.123 220.297 235.946 220.224C236.296 220.128 236.423 220.467 236.328 220.838C236.232 221.209 236.328 221.898 236.328 222.385C236.328 222.862 236.328 223.338 236.328 223.826C236.575 222.865 236.798 221.901 236.995 220.933C236.999 220.646 237.086 220.366 237.246 220.127C237.406 219.888 237.631 219.701 237.896 219.588C238.415 219.386 238.972 219.303 239.527 219.344C239.676 219.344 239.824 219.344 239.856 219.471C239.837 220.349 239.694 221.219 239.432 222.057C239.04 223.783 238.489 225.51 238.097 227.237C238.489 228.53 238.743 229.918 239.157 231.2C239.326 231.708 239.517 232.196 239.718 232.662C239.625 232.89 239.481 233.093 239.298 233.256C239.114 233.42 238.896 233.539 238.659 233.605C238.241 233.787 237.798 233.905 237.345 233.954C236.805 233.626 236.667 232.778 236.402 232.153C236.402 233.213 236.519 234.389 235.173 234.717C234.622 234.866 233.997 235.395 233.404 235.406Z" fill="currentColor"/>
<path d="M218.497 240.51C217.999 240.69 217.607 240.733 217.734 240.087C217.66 238.953 217.734 237.756 217.734 236.601C217.734 233.995 217.671 231.409 217.734 228.75C217.086 229.016 216.411 229.211 215.721 229.333C215.457 229.333 215.457 229.079 215.446 228.856C215.398 228.25 215.398 227.64 215.446 227.034C215.128 225.699 216.707 225.498 217.565 225.381C218.44 225.226 219.307 225.025 220.161 224.777C220.902 224.533 221.633 224.279 222.375 224.014C223.117 223.749 223.434 223.569 223.381 224.449C223.377 224.484 223.377 224.519 223.381 224.555C223.381 224.745 223.381 224.947 223.381 225.148C223.562 227.352 222.979 227.023 221.262 227.638C221.262 230.414 221.262 233.168 221.262 235.944C221.157 236.866 221.453 238.699 220.701 239.493C220.002 239.875 219.239 240.15 218.497 240.51Z" fill="currentColor"/>
<path d="M231.56 251.56C230.956 251.803 230.352 251.994 229.738 252.174C229.504 252.227 229.176 252.492 229.07 252.174C228.899 251.538 228.807 250.883 228.795 250.225C228.731 249.398 228.636 248.572 228.551 247.746C227.619 254.018 229.091 251.909 224.705 254.103C224.557 254.166 224.366 254.23 224.324 254.103L224.196 252.958C223.963 251.517 223.826 250.024 223.709 248.519C223.603 247.375 223.381 246.294 223.211 245.171C223.129 244.397 222.994 243.628 222.809 242.872C222.809 242.639 222.501 242.469 222.713 242.173C223.148 241.516 223.826 241.537 224.355 241.442C224.663 241.442 225.192 241.124 225.415 241.304C225.702 242.142 225.877 243.015 225.934 243.9C226.093 245.15 226.241 246.379 226.379 247.619C226.485 246.76 226.601 245.902 226.76 245.023C226.919 244.165 227.121 243.306 227.28 242.448C227.852 239.355 227.163 240.266 229.865 239.513C230.299 239.397 230.288 241.251 230.405 241.632C230.596 242.755 230.765 243.868 230.861 245.023C231.062 243.381 231.348 241.728 231.57 240.086C231.57 238.232 232.196 238.549 233.467 238.03C233.668 238.03 234.145 237.702 234.219 237.945C234.219 238.805 234.145 239.663 233.997 240.509C233.721 242.236 233.456 243.963 233.138 245.701C232.874 247.237 232.778 248.742 232.598 250.257C232.704 250.966 232.238 251.327 231.56 251.56Z" fill="currentColor"/>
<path d="M242.475 246.977C242.146 246.977 242.125 246.691 242.189 246.352C242.189 245.748 242.189 245.144 242.189 244.519C242.189 244.413 242.189 244.307 242.189 244.212C242.189 243.968 242.189 243.714 242.189 243.47C242.205 243.34 242.205 243.208 242.189 243.078C241.606 240.747 240.684 238.618 240.472 236.001C240.367 236.001 240.472 235.778 240.547 235.683C241.243 235.215 242.06 234.958 242.899 234.941C243.174 236.001 243.386 237.166 243.609 238.279C243.613 238.356 243.613 238.434 243.609 238.512C243.799 237.452 244.011 236.34 244.255 235.249C244.244 235.018 244.282 234.788 244.368 234.574C244.454 234.36 244.585 234.167 244.753 234.009C245.049 233.765 245.346 233.85 245.632 233.744C246.172 233.628 246.692 233.426 247.264 233.267C247.783 233.045 246.681 236.128 246.586 236.52C246.247 237.654 245.897 238.798 245.526 239.942C245.526 239.942 245.526 239.942 245.526 240.006C245.304 240.78 245.035 241.541 244.721 242.284C244.721 243.142 244.996 245.102 244.456 245.875C243.912 246.421 243.226 246.803 242.475 246.977Z" fill="currentColor"/>
<path d="M239.199 163.658L239.422 171.372C239.613 177.898 237.695 180.536 235.354 183.1C233.411 185.075 230.945 186.454 228.244 187.073C228.122 187.107 227.994 187.111 227.87 187.086C227.745 187.06 227.629 187.005 227.531 186.925C227.432 186.845 227.354 186.743 227.303 186.627C227.252 186.51 227.23 186.384 227.238 186.257L227.535 181.511C227.544 181.318 227.612 181.133 227.73 180.98C227.847 180.826 228.008 180.712 228.191 180.653C230.448 179.922 232.991 178.534 232.874 174.37L232.292 154.695C232.285 154.48 232.35 154.268 232.477 154.094C232.603 153.92 232.784 153.792 232.991 153.731L237.642 152.386C237.785 152.344 237.935 152.335 238.082 152.36C238.228 152.384 238.367 152.443 238.488 152.53C238.608 152.616 238.708 152.73 238.778 152.861C238.848 152.992 238.887 153.138 238.892 153.286L239.199 163.658Z" fill="currentColor"/>
<path d="M263.949 159.507L264.013 161.562C264.21 164.226 264.006 166.905 263.409 169.508C262.737 172.032 261.402 174.329 259.542 176.162C257.692 177.889 255.448 179.136 253.005 179.796C250.871 180.546 248.556 180.613 246.383 179.986C245.408 179.614 244.525 179.036 243.794 178.292C243.063 177.548 242.5 176.655 242.145 175.674C241.509 174.297 241.16 171.818 241.085 168.258V166.213C240.948 161.816 241.34 158.617 242.293 156.678C243.014 154.788 244.139 153.078 245.588 151.667C247.424 149.917 249.667 148.653 252.115 147.99C254.252 147.232 256.577 147.18 258.747 147.842C260.247 148.399 261.498 149.473 262.275 150.872C263.264 152.249 263.822 155.128 263.949 159.507ZM252.824 173.471C254.943 172.814 256.215 171.934 256.745 170.811C257.274 170.102 257.645 168.311 257.55 165.09L257.401 160.312C257.306 156.837 256.829 154.866 256.162 154.559C255.452 153.923 254.191 153.828 252.326 154.273H252.189C250.697 154.657 249.376 155.53 248.438 156.752C247.802 157.441 247.305 159.496 247.379 163.003L247.516 167.824C247.612 171.002 248.184 172.697 248.756 173.121C249.36 173.926 250.716 174.032 252.824 173.471Z" fill="currentColor"/>
<path d="M286.07 160.514V161.266C286.153 163.787 285.4 166.265 283.929 168.313C282.457 170.362 280.349 171.866 277.933 172.592C277.064 172.836 270.21 174.584 267.413 175.304C267.271 175.339 267.123 175.342 266.981 175.312C266.838 175.282 266.704 175.221 266.588 175.133C266.472 175.044 266.377 174.931 266.311 174.801C266.245 174.671 266.208 174.528 266.205 174.382L265.336 145.024C265.342 144.813 265.41 144.609 265.533 144.437C265.656 144.265 265.827 144.134 266.025 144.06L270.517 142.651C273.165 141.75 275.888 140.966 276.333 140.829C280.645 139.769 284.703 140.723 284.905 147.376V148.171C284.944 150.125 284.382 152.045 283.294 153.67C283.155 153.889 283.108 154.155 283.163 154.409C283.219 154.663 283.372 154.885 283.591 155.026C285.275 156.149 285.996 157.929 286.07 160.514ZM279.289 149.686C279.236 147.683 278.23 146.454 275.507 147.408L272.805 148.266C272.601 148.327 272.423 148.453 272.299 148.626C272.174 148.798 272.11 149.007 272.117 149.22L272.254 153.807C272.258 153.955 272.296 154.101 272.365 154.232C272.433 154.363 272.532 154.477 272.652 154.564C272.771 154.651 272.91 154.709 273.056 154.734C273.202 154.759 273.352 154.75 273.494 154.708L277.255 153.648C278.622 152.886 279.363 152.25 279.289 149.686ZM280.285 162.156C280.222 160.143 279.321 159.052 277.795 159.2L273.197 160.546C272.99 160.605 272.808 160.732 272.681 160.907C272.554 161.082 272.49 161.294 272.498 161.51L272.668 167.538H272.773L276.704 166.563C277.743 166.391 278.682 165.842 279.343 165.021C280.003 164.2 280.339 163.166 280.285 162.114V162.156Z" fill="currentColor"/>
<path d="M239.206 130.783L239.608 144.429C239.612 144.589 239.564 144.744 239.47 144.873C239.376 145.001 239.242 145.095 239.089 145.139L233.559 146.75C233.403 146.793 233.237 146.782 233.088 146.721C232.938 146.66 232.813 146.551 232.732 146.411L226.153 134.905C226.077 134.761 225.953 134.648 225.804 134.585C225.654 134.521 225.487 134.511 225.331 134.556C225.175 134.6 225.039 134.697 224.945 134.83C224.852 134.963 224.807 135.124 224.818 135.286L225.21 148.614C225.214 148.773 225.165 148.929 225.071 149.058C224.977 149.186 224.844 149.28 224.691 149.324L219.531 150.818C219.426 150.847 219.317 150.852 219.21 150.832C219.103 150.812 219.002 150.769 218.914 150.705C218.827 150.641 218.755 150.557 218.704 150.461C218.653 150.365 218.624 150.259 218.62 150.151L217.741 120.273C217.735 120.114 217.783 119.957 217.877 119.828C217.971 119.7 218.106 119.606 218.26 119.563L223.769 117.964C223.922 117.919 224.086 117.927 224.234 117.986C224.382 118.046 224.506 118.154 224.585 118.292L231.154 129.629C231.236 129.763 231.36 129.867 231.507 129.924C231.653 129.981 231.815 129.988 231.966 129.945C232.118 129.902 232.251 129.81 232.345 129.684C232.439 129.558 232.49 129.405 232.489 129.247L232.107 116.099C232.103 115.94 232.152 115.784 232.246 115.656C232.34 115.527 232.474 115.434 232.626 115.389L237.818 113.885C237.923 113.854 238.033 113.847 238.141 113.866C238.249 113.885 238.351 113.928 238.439 113.993C238.527 114.057 238.599 114.141 238.649 114.238C238.7 114.335 238.727 114.443 238.729 114.552L239.206 130.783Z" fill="currentColor"/>
<path d="M248.923 123.453L253.796 122.034C253.905 122.004 254.02 122 254.131 122.022C254.242 122.045 254.346 122.093 254.434 122.163C254.523 122.233 254.594 122.323 254.641 122.426C254.689 122.529 254.711 122.641 254.707 122.754L254.527 127.098C254.522 127.248 254.468 127.393 254.375 127.511C254.282 127.629 254.153 127.715 254.008 127.755L248.711 129.291C248.559 129.336 248.427 129.43 248.334 129.559C248.242 129.687 248.196 129.843 248.202 130.001L248.351 135.298C248.354 135.408 248.383 135.516 248.434 135.613C248.486 135.709 248.559 135.793 248.648 135.858C248.737 135.922 248.839 135.965 248.948 135.984C249.056 136.003 249.167 135.997 249.272 135.966L255.926 134.038C256.031 134.005 256.143 133.997 256.252 134.015C256.361 134.032 256.465 134.075 256.554 134.14C256.644 134.205 256.717 134.29 256.768 134.388C256.819 134.486 256.846 134.595 256.848 134.705L256.985 139.42C256.989 139.579 256.941 139.735 256.847 139.863C256.753 139.992 256.619 140.085 256.466 140.13L242.82 144.103C242.715 144.134 242.605 144.14 242.497 144.121C242.389 144.103 242.287 144.059 242.199 143.995C242.111 143.93 242.039 143.846 241.989 143.749C241.938 143.652 241.911 143.545 241.909 143.435L241.03 113.515C241.026 113.356 241.074 113.201 241.168 113.072C241.262 112.944 241.396 112.85 241.549 112.806L255.184 108.79C255.29 108.757 255.401 108.749 255.51 108.767C255.62 108.785 255.723 108.828 255.812 108.893C255.902 108.958 255.975 109.042 256.026 109.14C256.077 109.239 256.104 109.347 256.106 109.458L256.244 114.045C256.248 114.204 256.199 114.36 256.105 114.489C256.011 114.617 255.877 114.711 255.725 114.755L248.308 116.874C248.155 116.918 248.022 117.012 247.928 117.141C247.834 117.269 247.785 117.425 247.789 117.584L247.948 122.765C247.946 122.883 247.972 122.999 248.025 123.104C248.078 123.209 248.156 123.3 248.253 123.368C248.349 123.436 248.46 123.479 248.577 123.494C248.694 123.509 248.812 123.495 248.923 123.453Z" fill="currentColor"/>
<path d="M286.043 131.493L279.549 133.39C279.456 133.417 279.359 133.425 279.263 133.414C279.168 133.404 279.075 133.373 278.991 133.326C278.907 133.279 278.833 133.215 278.774 133.138C278.716 133.062 278.673 132.975 278.648 132.881L276.211 123.155C276.176 122.991 276.084 122.845 275.951 122.743C275.818 122.64 275.653 122.588 275.485 122.596C275.318 122.603 275.158 122.67 275.035 122.784C274.912 122.898 274.833 123.052 274.813 123.219L272.906 134.873C272.887 135.006 272.83 135.131 272.741 135.232C272.653 135.334 272.537 135.408 272.408 135.445L265.776 137.384C265.683 137.41 265.586 137.417 265.491 137.405C265.396 137.394 265.304 137.364 265.22 137.316C265.136 137.269 265.063 137.206 265.004 137.13C264.944 137.055 264.901 136.968 264.875 136.875L257.459 108.905C257.412 108.724 257.437 108.532 257.527 108.368C257.618 108.205 257.768 108.082 257.946 108.026L263.826 106.32C263.92 106.295 264.018 106.288 264.115 106.301C264.211 106.314 264.304 106.346 264.388 106.396C264.472 106.445 264.545 106.511 264.603 106.589C264.661 106.666 264.703 106.755 264.727 106.85L268.149 121.132C268.185 121.296 268.278 121.442 268.412 121.543C268.546 121.645 268.712 121.696 268.88 121.687C269.047 121.678 269.207 121.61 269.329 121.495C269.451 121.379 269.529 121.224 269.547 121.057L271.921 104.413C271.941 104.276 271.999 104.148 272.089 104.043C272.179 103.938 272.297 103.86 272.429 103.82L274.845 103.12L276.964 102.495C277.058 102.467 277.157 102.458 277.254 102.47C277.352 102.481 277.446 102.513 277.53 102.563C277.615 102.612 277.688 102.679 277.746 102.759C277.803 102.838 277.844 102.929 277.864 103.025L281.043 117.328C281.077 117.489 281.166 117.634 281.294 117.738C281.422 117.841 281.582 117.898 281.747 117.898C281.912 117.898 282.072 117.841 282.2 117.738C282.329 117.634 282.417 117.489 282.452 117.328L285.069 100.62C285.09 100.486 285.149 100.361 285.239 100.26C285.329 100.158 285.447 100.085 285.577 100.048L291.267 98.3951C291.384 98.36 291.508 98.3558 291.627 98.3827C291.746 98.4097 291.857 98.467 291.947 98.549C292.038 98.631 292.106 98.7351 292.144 98.8511C292.183 98.967 292.191 99.091 292.167 99.2109L286.52 130.995C286.489 131.112 286.429 131.218 286.345 131.305C286.262 131.392 286.158 131.457 286.043 131.493Z" fill="currentColor"/>
</svg>
