<svg width="273" height="403" viewBox="0 0 273 403" fill="none" xmlns="http://www.w3.org/2000/svg">
<path d="M85.1017 140.933C88.6682 146.317 91.9655 152.104 96.1376 157.016C96.8778 157.891 97.7526 158.093 98.5602 157.891C98.6947 157.958 98.8293 157.958 99.0312 158.025C103.876 158.833 109.529 155.536 114.105 153.921C118.613 152.306 123.122 150.758 127.698 149.143C127.698 149.143 127.698 149.21 127.765 149.21C134.158 156.343 142.098 162.467 149.231 168.859C156.095 174.983 162.891 182.654 171.236 186.826C171.774 187.096 172.245 187.096 172.783 186.961C174.6 187.297 176.754 186.355 177.023 184.471C179.916 163.745 183.415 143.154 185.636 122.361C189.876 122.361 194.384 121.015 198.489 120.207C203.199 119.332 207.91 118.256 212.62 117.246C217.331 116.237 222.041 115.16 226.752 114.151C230.991 113.209 236.24 113.007 239.672 110.113C241.421 108.7 240.748 105.874 238.999 104.797C238.662 104.124 238.057 103.586 237.182 103.182C177.292 76.1982 117.604 48.8104 57.4447 22.4992C40.4871 15.0971 23.7313 6.95467 6.50456 0.158171C4.01475 -0.85121 2.33248 3.25362 4.68771 4.46488C4.82229 4.53217 5.02413 4.5995 5.15872 4.66679C2.13058 3.85928 -1.50316 6.95465 0.650183 10.3193C25.3464 48.6757 50.0425 87.0323 74.9406 125.187C78.2379 130.436 81.6698 135.684 85.1017 140.933ZM154.614 163.341C148.693 157.622 142.906 151.296 136.58 145.846C139.406 144.836 142.3 143.827 145.126 142.817C147.212 142.077 149.5 141.404 151.721 140.664C156.162 151.498 160.469 162.399 165.045 173.166C161.68 169.801 157.979 166.639 154.614 163.341ZM172.447 170.609C168.073 159.573 163.43 148.672 158.988 137.77C159.661 137.434 160.267 137.03 160.873 136.559C162.757 135.146 162.42 131.714 159.796 131.647C142.031 118.121 125.41 103.115 108.25 88.9164C91.3599 74.9197 74.7387 60.7211 58.3195 46.186C57.983 45.9168 57.7138 45.6477 57.4447 45.3785C87.3223 64.0184 117.267 82.4564 147.145 101.029C158.585 108.095 169.957 115.228 181.329 122.361C181.733 122.562 182.07 122.764 182.406 122.832C178.503 138.578 175.542 154.594 172.447 170.609ZM28.3072 39.1203C21.3088 28.219 14.3104 17.3177 7.31207 6.41637C7.0429 6.01261 6.77375 5.67615 6.43728 5.40699C20.5013 12.6072 35.1037 18.8654 49.4369 25.6619C64.1739 32.6603 78.9108 39.4568 93.6478 46.3879C123.189 60.1155 152.798 73.7084 182.406 87.2341C196.47 93.6942 210.534 100.154 224.598 106.614C219.888 107.758 215.245 108.835 210.534 109.979C205.824 111.123 201.181 112.199 196.537 113.478C192.971 114.42 189.068 115.093 185.636 116.506C185.434 116.304 185.165 116.102 184.896 115.968C144.453 91.0697 104.078 66.1717 63.7028 41.2063C52.2632 34.1407 40.8908 27.075 29.3839 20.0766C26.2884 18.1924 22.6547 22.7011 25.4137 25.1909C58.3868 54.7321 91.7636 83.9368 126.957 110.786C136.446 117.987 146.203 124.918 155.691 132.118C151.654 132.993 147.751 134.81 143.915 136.088C138.599 137.905 133.35 139.722 128.034 141.606C122.92 143.356 117.873 145.105 112.826 146.922L105.222 149.547C103.338 150.219 101.252 150.623 99.5695 151.633C97.3489 147.326 94.5226 143.356 91.9655 139.251C88.8701 134.339 85.7746 129.426 82.6792 124.514L64.7795 96.184C52.7342 77.0731 40.4871 58.0967 28.3072 39.1203Z" fill="currentColor"/>
<path d="M221.301 179.559C216.725 176.329 212.082 173.166 207.371 170.071C205.756 168.994 204.276 171.551 205.891 172.628C235.701 193.354 271.77 220.742 267.396 261.79C265.445 279.757 255.485 296.109 243.575 309.298C231.529 322.689 216.86 333.86 201.181 342.742C184.963 351.961 167.467 358.623 149.231 362.593C138.464 364.949 125.948 366.429 114.912 363.805C118.479 359.296 121.641 354.451 124.333 349.404C131.331 336.417 137.522 312.528 118.68 306.001C111.076 303.376 102.194 305.799 95.9358 310.509C89.1393 315.691 85.3036 323.9 84.4288 332.245C82.8811 347.385 91.8982 359.565 104.549 365.891C98.9639 371.543 92.773 376.456 86.1784 380.695C70.4321 390.654 52.8015 395.634 34.3635 397.518C31.0662 397.854 30.9989 402.498 34.3635 402.699C52.667 404.045 71.1723 397.922 86.7167 388.568C95.6666 383.185 103.876 376.388 110.875 368.515C112.49 369.053 114.105 369.457 115.787 369.794C127.025 372.082 138.532 370.668 149.635 368.381C159.796 366.294 169.755 363.266 179.445 359.498C198.758 351.894 216.658 341.262 232.539 327.938C247.814 315.085 261.272 299.339 268.473 280.497C275.74 261.453 274.125 241.67 264.57 223.77C254.678 205.197 238.259 191.47 221.301 179.559ZM108.587 361.719C103.876 359.767 99.5695 356.806 96.003 352.567C85.3709 339.983 88.9374 317.373 105.289 311.519C112.422 308.962 120.968 310.24 124.602 317.575C128.101 324.573 125.612 333.59 122.583 340.387C119.017 348.058 114.239 355.259 108.587 361.719Z" fill="currentColor"/>
</svg>
