<svg width="203" height="194" viewBox="0 0 203 194" fill="none" xmlns="http://www.w3.org/2000/svg">
<path fill-rule="evenodd" clip-rule="evenodd" d="M197.785 92.2656C198.461 91.9289 199.139 91.5911 199.785 91.1715C201.114 90.2815 203.02 92.0614 202.089 93.3519C201.586 94.0512 201.193 94.7674 200.803 95.4784C200.299 96.3962 199.8 97.3053 199.076 98.1578C198.367 99.0182 197.579 99.839 196.792 100.66C196.398 101.07 196.004 101.48 195.62 101.896C194.989 102.585 194.333 103.276 193.672 103.973C191.642 106.115 189.559 108.312 187.955 110.662C187.201 111.775 186.315 112.398 185.429 112.665C184.321 114.578 180.688 114.89 179.713 112.042C179.25 110.683 178.778 109.326 178.305 107.968C176.472 102.702 174.636 97.4299 173.333 92.0169C173.155 91.2159 173.288 90.2369 173.953 89.703C174.042 89.6362 174.13 89.5583 174.219 89.4805C174.307 89.4026 174.396 89.3247 174.485 89.258C174.662 89.1245 174.839 89.0355 175.061 89.0355V88.991H175.592C176.39 88.991 177.276 89.3915 177.631 90.1479C178.17 91.2673 178.68 92.4451 179.185 93.6103C179.302 93.8812 179.419 94.1513 179.536 94.4199C180.156 60.4224 160.084 28.2494 128.271 15.1221C98.9826 3.01825 65.1307 8.13564 40.7165 28.3828C15.4162 49.3865 3.76299 83.295 10.6309 115.602C17.0113 145.728 39.6088 170.87 68.5868 180.838C98.894 191.25 134.74 183.997 158.977 163.127C161.015 161.347 163.939 164.195 161.99 166.153C148.032 180.215 129.954 189.915 110.37 192.897C91.3171 195.789 72.3087 192.986 54.9839 184.576C23.8792 169.49 2.8325 138.652 0.262589 104.076C-2.35163 68.5213 14.7073 34.1233 44.5714 14.8551C74.3026 -4.32413 112.984 -4.94713 143.424 13.0751C173.244 30.7413 190.879 65.4953 187.866 100.071C188.398 99.6263 188.918 99.1702 189.439 98.7141C189.96 98.2579 190.48 97.8018 191.012 97.3568C191.62 96.861 192.203 96.3406 192.786 95.8203C193.564 95.1264 194.341 94.4326 195.177 93.7969C195.987 93.1612 196.884 92.7144 197.785 92.2656ZM103.437 26.2596C107.773 26.5252 112.108 27.1892 116.355 28.3402C146.217 36.4414 170.195 65.9243 170.504 97.0894C170.814 129.007 149.933 160.128 119.452 170.177C89.4136 180.093 52.6064 167.432 35.4858 140.65C26.8591 127.148 23.1872 110.326 24.5144 94.4333C25.4876 82.5693 29.3364 71.5464 35.8396 61.9844C48.4921 40.337 73.8413 26.3924 98.8808 26.1268C99.3232 23.5592 102.995 23.6477 103.437 26.2596ZM161.878 87.0847C160.683 81.197 158.604 75.4863 155.861 70.1741C153.207 69.6428 150.552 68.5804 147.898 67.4737C146.04 75.9733 144.846 84.5614 144.536 93.2823C150.641 93.061 156.746 92.8397 162.763 93.061C162.586 91.0689 162.276 89.0768 161.878 87.0847ZM131.567 93.6451L132.149 93.6365L132.215 93.6351C134.406 93.5913 136.64 93.5466 138.917 93.4151C139.271 83.9859 140.599 74.5124 143.12 65.3931C142.235 65.0389 141.395 64.7291 140.554 64.4635C135.688 62.8698 130.689 61.586 125.69 60.5235C118.656 59.0627 111.533 58.1773 104.411 57.7788C104.411 58.3157 104.422 58.8413 104.433 59.3613C104.444 59.8703 104.455 60.374 104.455 60.8777C104.561 65.3163 104.682 69.7478 104.803 74.1779C104.983 80.7937 105.163 87.4064 105.296 94.0349C114.081 93.905 122.824 93.775 131.567 93.6451ZM56.234 131.929C70.2137 136.754 84.8127 139.499 99.5002 140.03C99.3232 127.015 99.1905 114 99.102 100.985H98.4384C92.6059 101.005 86.737 101.116 80.8524 101.227C73.7484 101.362 66.6215 101.496 59.5077 101.472C59.4635 111.61 58.269 121.924 56.234 131.929ZM145.452 57.8412C145.664 57.2318 145.882 56.606 146.129 56.0081C135.334 43.7457 120.293 35.2019 103.88 33.5197C104.145 39.4074 104.234 45.2508 104.322 51.1385C111.887 51.4484 119.408 52.2896 126.84 53.6619C132.326 54.6801 137.767 56.0081 143.12 57.6461C143.828 57.8674 144.536 58.0888 145.288 58.3101C145.343 58.1554 145.397 57.9989 145.452 57.8412ZM98.9029 77.5005C98.8919 71.9559 98.8808 66.4112 98.8366 60.8777C98.8366 59.891 98.7984 58.8663 98.7576 57.7678L98.7481 57.5132C98.2205 57.5132 97.688 57.5084 97.1523 57.5035C96.0709 57.4936 94.9763 57.4836 93.8818 57.5132C83.1758 57.6461 72.5141 58.9741 62.1179 61.4532C59.6847 62.0287 57.2515 62.6927 54.8626 63.401C55.56 66.1576 56.065 68.9692 56.5293 71.5539C56.654 72.2484 56.7758 72.9265 56.8976 73.5828C58.1805 80.4444 59.0211 87.3946 59.3308 94.3891C66.5792 94.2415 73.8413 94.2306 81.0792 94.2197C86.8729 94.2109 92.651 94.2022 98.3942 94.1235H98.9693C98.9251 88.5899 98.914 83.0452 98.9029 77.5005ZM98.7038 51.0058C98.5711 45.0738 98.5269 39.1417 98.6154 33.2097C80.2118 32.8113 63.0911 40.0714 50.2174 52.3338C51.4119 53.9275 52.3852 55.8311 53.1815 57.8674C55.6147 57.0706 58.0921 56.3623 60.5695 55.7425C71.2312 52.9978 82.2468 51.4927 93.2182 51.0943C95.0315 51.0058 96.8891 51.0058 98.7024 51.0058H98.7038ZM47.7401 59.6824C47.3861 58.4872 47.0765 57.2476 46.8553 56.0081C45.5723 57.7346 44.3336 59.5054 43.1834 61.3647C43.3664 61.2981 43.5494 61.2377 43.7276 61.179C44.0235 61.0814 44.3064 60.9881 44.5548 60.8777C45.2626 60.5825 45.9704 60.3268 46.6782 60.071C47.0321 59.9431 47.3861 59.8152 47.7401 59.6824ZM39.5558 68.8018C39.423 68.8903 39.3345 68.9346 39.2018 68.9788C35.3972 77.4784 33.318 86.7306 33.0083 95.9385C39.9539 95.2302 46.988 94.7875 54.022 94.5661C53.6239 87.7488 52.7834 81.0199 51.4119 74.3353C50.7484 71.2808 50.0405 68.2263 49.2884 65.1717C48.8682 65.3267 48.4368 65.4706 48.0055 65.6144C47.5741 65.7583 47.1428 65.9022 46.7225 66.0571C44.3336 66.8982 41.9005 67.8278 39.5558 68.8018ZM41.5023 131.132C43.6258 134.895 46.1474 138.481 49.1115 141.757C49.5244 140.31 49.8979 138.864 50.2715 137.418C50.4583 136.695 50.6451 135.972 50.8368 135.249C47.6516 133.965 44.5548 132.593 41.5023 131.132ZM33.0083 100.454C33.2737 108.644 34.9548 116.745 38.0958 124.27C42.564 126.528 47.1649 128.564 51.8101 130.335C53.6239 120.817 54.3759 111.255 54.2432 101.428C47.1649 101.339 40.0424 101.074 33.0083 100.454ZM53.4027 143.793C53.2258 144.457 52.8276 144.9 52.3852 145.165C64.9492 157.029 82.5565 163.67 99.8983 163.404C99.8099 163.094 99.7214 162.74 99.7214 162.341C99.6992 159.597 99.6661 156.841 99.6329 154.085C99.5997 151.33 99.5665 148.574 99.5444 145.829C84.4145 145.032 69.3731 142.066 55.128 136.887C54.5971 139.233 54.0221 141.535 53.4027 143.793ZM132.149 100.808L105.428 100.941L105.428 100.948C105.65 114.005 105.871 127.062 106.18 140.074C118.789 139.986 131.441 138.304 143.695 134.939C143.616 134.642 143.546 134.345 143.477 134.052C143.391 133.69 143.307 133.334 143.209 132.991C142.191 129.14 141.395 125.244 140.731 121.349C139.581 114.576 138.962 107.714 138.829 100.852C136.573 100.808 134.362 100.808 132.15 100.808H132.149ZM106.446 163.005C113.259 162.209 119.939 160.305 126.132 157.206C133.83 153.355 140.643 147.998 146.217 141.535C146.173 141.469 146.117 141.391 146.062 141.314C146.007 141.236 145.952 141.159 145.907 141.092C132.945 144.457 119.541 146.095 106.18 146.006C106.313 151.451 106.402 156.896 106.49 162.341C106.49 162.607 106.49 162.784 106.446 163.005ZM149.261 132.811C149.31 132.962 149.357 133.111 149.402 133.257C150.065 133.036 150.74 132.814 151.414 132.593C152.089 132.372 152.764 132.15 153.428 131.929C159.135 122.544 162.586 111.831 162.984 100.808C156.879 101.162 150.685 101.074 144.492 100.985C144.669 107.802 145.332 114.576 146.571 121.304C147.19 124.713 147.987 128.077 148.871 131.442C148.97 131.904 149.119 132.367 149.261 132.811Z" fill="currentColor"/>
</svg>
