<svg width="903" height="766" viewBox="0 0 903 766" fill="none" xmlns="http://www.w3.org/2000/svg">
<path d="M521.081 15.9758L523.137 15.7703L525.108 15.1487C550.568 7.11857 574.721 -0.742032 597.529 -8.16496C645.268 -23.7017 687.115 -37.3209 722.725 -46.5637C748.911 -53.3602 770.409 -57.4164 787.339 -58.2141C804.677 -59.0309 814.142 -56.26 819.059 -52.7638L819.074 -52.7532L819.089 -52.7427C820.935 -51.4351 824.115 -48.2299 828.249 -41.9656C832.231 -35.9326 836.427 -28.0985 840.682 -18.7243C849.188 0.0151835 857.301 23.5018 864.141 47.8714C870.968 72.1912 876.383 96.8753 879.634 117.852C883.007 139.62 883.641 154.963 882.436 162.003C880.265 174.153 871.821 185.685 849.784 194.991L849.711 195.022L849.639 195.053C814.227 210.337 801.318 213.277 682.114 240.43C656.831 246.189 626.766 253.038 590.69 261.324L590.338 261.405L589.991 261.498C573.594 265.892 558.947 271.907 548.794 280.951C543.477 285.688 538.917 291.679 536.437 299.093C533.912 306.641 533.997 314.314 535.928 321.521C537.771 328.4 542.672 336.768 547.263 344.078C552.406 352.265 559.194 362.192 566.943 373.177C576.189 386.285 587.19 401.44 598.837 417.486C606.612 428.196 614.675 439.304 622.697 450.465C642.938 478.628 663.224 507.546 679.453 533.233C696.12 559.611 707.048 580.368 710.399 592.872C714.658 608.766 712.667 618.867 705.599 629.399C697.237 641.86 681.37 655.457 654.264 675.113C601.819 712.459 561.345 735.112 532.338 744.505L532.294 744.52L532.25 744.534C524.633 747.04 514.112 746.068 498.502 733.234C482.613 720.173 464.367 696.933 444.111 661.788L444.037 661.66L443.962 661.533L343.689 493.335L343.682 493.325L343.676 493.314C336.015 480.5 327.39 469.482 317.349 462.186C306.739 454.478 293.748 450.489 279.808 454.224C271.456 456.462 265.184 461.727 259.529 467.655C253.813 473.648 246.68 482.576 236.966 495.443C225.179 511.056 208.676 533.706 184.91 566.326C169.251 587.82 150.437 613.642 127.741 644.631C110.704 667.272 95.6014 684.388 82.4571 696.379C69.0226 708.635 58.9931 714.273 52.224 716.087C46.8656 717.523 35.6734 716.722 15.9659 706.861C-3.0375 697.352 -26.8107 681.009 -55.5091 657.101C-80.7234 635.97 -99.8231 618.049 -113.108 603.283C-126.934 587.915 -132.569 577.991 -133.954 572.822C-135.535 566.923 -134.824 556.082 -126.141 538.12C-117.682 520.62 -102.922 498.995 -81.0467 473.082C-56.8319 445.526 -35.7469 422.158 -17.5388 401.978C-8.41243 391.864 -0.00883517 382.55 7.70386 373.912C30.3526 348.545 47.5733 328.442 57.8329 312.276C67.4577 297.111 75.875 277.829 65.6449 259.022C61.0468 250.569 53.7995 244.664 46.5593 240.273C39.2592 235.846 30.4642 232.068 20.8858 228.535L20.6335 228.442L20.3787 228.356C-8.36149 218.625 -34.4474 209.959 -58.1338 202.091C-98.2081 188.779 -131.414 177.748 -158.985 167.699C-203.336 151.533 -229.405 139.121 -244.152 126.36C-251.07 120.375 -254.945 114.744 -257.142 109.02C-259.377 103.198 -260.386 95.9411 -259.58 85.9875C-257.885 65.042 -248.734 36.8773 -233.136 -5.90301L-233.114 -5.96218L-233.093 -6.02151C-220.608 -40.9446 -208.417 -66.9298 -196.76 -84.6619C-184.729 -102.965 -175.245 -109.457 -169.4 -111.023C-165.281 -112.127 -157.814 -112.389 -146.17 -110.463C-134.906 -108.601 -121.428 -104.993 -106.221 -99.9638C-75.8037 -89.9037 -40.4695 -74.8389 -5.44703 -59.1554C6.67105 -53.7288 18.8129 -48.1992 30.6576 -42.805C52.5751 -32.8233 73.4753 -23.305 91.3251 -15.76C105.128 -9.92547 117.814 -4.96188 128.336 -1.72046C133.587 -0.102753 138.768 1.23413 143.562 1.97929C147.906 2.65428 154.007 3.20247 160.074 1.57686C165.312 0.173293 170.884 -2.22967 175.949 -6.57827C181.011 -10.9238 184.491 -16.287 186.94 -22.0461C191.455 -32.6651 193.279 -46.7671 194.343 -63.8583C195.681 -85.3283 195.974 -116.345 196.39 -160.417C196.647 -187.657 196.952 -219.884 197.579 -257.927L197.581 -258.045L197.581 -258.162C197.769 -297.904 201.852 -326.811 208.775 -346.118C215.667 -365.339 223.984 -371.677 230.939 -373.541C261.336 -381.686 313.637 -382.299 390.421 -373.67C437.182 -367.966 456.019 -351.521 461.41 -331.401C465.186 -317.309 466.275 -293.243 465.165 -262.352C464.079 -232.12 461.008 -197.58 457.578 -163.74C456.292 -151.056 454.947 -138.398 453.644 -126.134C451.507 -106.016 449.482 -86.9544 448.013 -70.563C446.824 -57.3023 445.952 -45.3129 445.668 -35.4751C445.406 -26.4487 445.513 -16.7405 447.438 -9.55596C450.33 1.23982 457.376 8.59562 465.606 12.8619C473.112 16.7522 481.236 17.9409 487.763 18.2863C497.763 18.8155 509.304 17.3965 516.553 16.5053C518.359 16.2833 519.899 16.094 521.081 15.9758Z" stroke="#090909" stroke-width="40"/>
</svg>
