<svg width="13" height="12" viewBox="0 0 13 12" fill="none" xmlns="http://www.w3.org/2000/svg">
<path d="M4.56886 4.08092C4.77664 4.08092 4.79742 3.74505 4.82512 3.57823C4.74893 1.86277 4.59656 0.573358 5.01443 0.232971C5.39767 -0.0803654 7.2169 -0.0442979 7.63246 0.145057C7.83793 0.239734 7.9626 0.433597 8.00416 0.7289C8.08035 1.24061 8.05495 1.37135 7.97415 3.58049C7.97415 3.91637 8.05957 4.08318 8.23041 4.08318C8.53977 4.08318 10.8138 3.04849 11.5133 3.04849C11.9751 3.04849 12.1528 3.32576 12.4068 3.97949C12.6492 4.61968 12.7808 5.11787 12.7993 5.47178C12.82 5.83696 12.3999 6.13227 11.5433 6.35769L9.53019 6.91899C9.24853 6.99789 9.10539 7.1106 9.10539 7.25938C9.10539 7.39012 9.30394 7.59976 10.6037 9.1935C10.987 9.6759 11.1786 10.0411 11.1786 10.2868C11.1786 10.5618 10.8461 10.9315 10.1812 11.3936C9.59714 11.7971 9.19312 12 8.97149 12C8.68983 12 8.33661 11.7002 7.91181 11.0983C6.6028 9.16419 6.50121 8.72913 6.02101 9.39863C4.09789 12.2389 4.17177 12.4779 2.60187 11.3936C1.93697 10.9405 1.60222 10.5708 1.60222 10.2868C1.60222 9.5722 3.6754 7.593 3.6754 7.2436C3.6754 6.97083 3.32218 6.93928 1.25592 6.35769C0.417869 6.13227 0 5.84598 0 5.50108C0 5.12688 0.152372 4.56107 0.454808 3.8014C0.655662 3.30998 0.932703 3.06202 1.28593 3.06202C2.0501 3.06202 4.21563 4.08092 4.56886 4.08092Z" fill="currentColor"/>
</svg>
